%TF.GenerationSoftware,KiCad,Pcbnew,6.0.11+dfsg-1~bpo11+1*%
%TF.CreationDate,2023-04-13T07:48:47+00:00*%
%TF.ProjectId,PINHOLDER01,50494e48-4f4c-4444-9552-30312e6b6963,01A*%
%TF.SameCoordinates,Original*%
%TF.FileFunction,Copper,L2,Bot*%
%TF.FilePolarity,Positive*%
%FSLAX46Y46*%
G04 Gerber Fmt 4.6, Leading zero omitted, Abs format (unit mm)*
G04 Created by KiCad (PCBNEW 6.0.11+dfsg-1~bpo11+1) date 2023-04-13 07:48:47*
%MOMM*%
%LPD*%
G01*
G04 APERTURE LIST*
%ADD10C,0.300000*%
%TA.AperFunction,NonConductor*%
%ADD11C,0.300000*%
%TD*%
%TA.AperFunction,ComponentPad*%
%ADD12C,6.000000*%
%TD*%
%TA.AperFunction,SMDPad,CuDef*%
%ADD13R,1.000000X2.510000*%
%TD*%
%TA.AperFunction,ViaPad*%
%ADD14C,0.800000*%
%TD*%
%TA.AperFunction,Conductor*%
%ADD15C,0.400000*%
%TD*%
G04 APERTURE END LIST*
D10*
D11*
X129200000Y-114028571D02*
X129200000Y-112528571D01*
X128700000Y-113600000D01*
X128200000Y-112528571D01*
X128200000Y-114028571D01*
X126771428Y-114028571D02*
X127485714Y-114028571D01*
X127485714Y-112528571D01*
X126342857Y-113600000D02*
X125628571Y-113600000D01*
X126485714Y-114028571D02*
X125985714Y-112528571D01*
X125485714Y-114028571D01*
X124485714Y-113242857D02*
X124271428Y-113314285D01*
X124200000Y-113385714D01*
X124128571Y-113528571D01*
X124128571Y-113742857D01*
X124200000Y-113885714D01*
X124271428Y-113957142D01*
X124414285Y-114028571D01*
X124985714Y-114028571D01*
X124985714Y-112528571D01*
X124485714Y-112528571D01*
X124342857Y-112600000D01*
X124271428Y-112671428D01*
X124200000Y-112814285D01*
X124200000Y-112957142D01*
X124271428Y-113100000D01*
X124342857Y-113171428D01*
X124485714Y-113242857D01*
X124985714Y-113242857D01*
D12*
%TO.P,M3,1*%
%TO.N,GND*%
X114175179Y-70341146D03*
%TD*%
%TO.P,M4,1*%
%TO.N,GND*%
X114175179Y-110981146D03*
%TD*%
D13*
%TO.P,J1,1*%
%TO.N,/circle_0*%
X124540000Y-83525000D03*
%TO.P,J1,2*%
%TO.N,GND*%
X122000000Y-80215000D03*
%TO.P,J1,3*%
%TO.N,Net-(J1-Pad3)*%
X119460000Y-83525000D03*
%TD*%
D14*
%TO.N,/circle_0*%
X123800000Y-88650000D03*
%TO.N,Net-(J1-Pad3)*%
X120100000Y-76850000D03*
%TD*%
D15*
%TO.N,/circle_0*%
X124540000Y-87910000D02*
X123800000Y-88650000D01*
X124540000Y-83525000D02*
X124540000Y-87910000D01*
%TO.N,Net-(J1-Pad3)*%
X120100000Y-76850000D02*
X119460000Y-77490000D01*
X119460000Y-77490000D02*
X119460000Y-83525000D01*
%TD*%
%TA.AperFunction,Conductor*%
%TO.N,GND*%
G36*
X135726809Y-65930306D02*
G01*
X135796061Y-65985511D01*
X135834502Y-66065296D01*
X135839500Y-66109615D01*
X135839500Y-115210436D01*
X135819793Y-115296779D01*
X135764574Y-115366020D01*
X135684782Y-115404447D01*
X135640480Y-115409436D01*
X130303594Y-115408870D01*
X130217254Y-115389154D01*
X130148018Y-115333928D01*
X130109601Y-115254131D01*
X130105867Y-115187593D01*
X130106384Y-115183000D01*
X130107643Y-115183000D01*
X130107643Y-111517000D01*
X123292357Y-111517000D01*
X123292357Y-115183000D01*
X123293326Y-115183000D01*
X123293325Y-115253389D01*
X123254898Y-115333181D01*
X123185656Y-115388399D01*
X123099294Y-115408105D01*
X109948658Y-115406710D01*
X109862317Y-115386994D01*
X109793081Y-115331768D01*
X109754664Y-115251971D01*
X109749679Y-115207710D01*
X109749679Y-88638753D01*
X122994514Y-88638753D01*
X122995600Y-88649829D01*
X122995600Y-88649830D01*
X122998625Y-88680675D01*
X123012039Y-88817486D01*
X123068726Y-88987896D01*
X123161759Y-89141512D01*
X123286514Y-89270699D01*
X123436789Y-89369036D01*
X123447214Y-89372913D01*
X123594685Y-89427757D01*
X123594687Y-89427757D01*
X123605116Y-89431636D01*
X123616143Y-89433107D01*
X123616146Y-89433108D01*
X123734486Y-89448898D01*
X123783130Y-89455388D01*
X123794207Y-89454380D01*
X123950896Y-89440121D01*
X123950898Y-89440121D01*
X123961981Y-89439112D01*
X124047381Y-89411364D01*
X124122196Y-89387055D01*
X124122199Y-89387054D01*
X124132782Y-89383615D01*
X124157239Y-89369036D01*
X124277489Y-89297353D01*
X124277490Y-89297352D01*
X124287044Y-89291657D01*
X124417099Y-89167807D01*
X124434570Y-89141512D01*
X124510325Y-89027490D01*
X124516483Y-89018222D01*
X124580257Y-88850336D01*
X124592470Y-88763434D01*
X124624001Y-88680675D01*
X124648819Y-88650416D01*
X124927561Y-88371674D01*
X124947125Y-88354517D01*
X124968282Y-88338282D01*
X125064536Y-88212841D01*
X125125044Y-88066762D01*
X125140500Y-87949361D01*
X125145682Y-87910000D01*
X125143980Y-87897072D01*
X125143980Y-87897065D01*
X125142203Y-87883567D01*
X125140500Y-87857592D01*
X125140500Y-85300231D01*
X125160207Y-85213888D01*
X125215426Y-85144647D01*
X125249156Y-85122921D01*
X125264388Y-85115160D01*
X125278342Y-85108050D01*
X125368050Y-85018342D01*
X125425646Y-84905304D01*
X125440500Y-84811519D01*
X125440499Y-82238482D01*
X125439275Y-82230753D01*
X125428097Y-82160169D01*
X125428096Y-82160166D01*
X125425646Y-82144696D01*
X125368050Y-82031658D01*
X125278342Y-81941950D01*
X125165304Y-81884354D01*
X125071519Y-81869500D01*
X125063695Y-81869500D01*
X124539627Y-81869501D01*
X124008482Y-81869501D01*
X124000769Y-81870723D01*
X124000763Y-81870723D01*
X123930169Y-81881903D01*
X123930166Y-81881904D01*
X123914696Y-81884354D01*
X123900740Y-81891465D01*
X123900737Y-81891466D01*
X123873483Y-81905353D01*
X123801658Y-81941950D01*
X123711950Y-82031658D01*
X123654354Y-82144696D01*
X123639500Y-82238481D01*
X123639501Y-84811518D01*
X123640723Y-84819231D01*
X123640723Y-84819237D01*
X123651903Y-84889831D01*
X123651904Y-84889834D01*
X123654354Y-84905304D01*
X123711950Y-85018342D01*
X123801658Y-85108050D01*
X123815612Y-85115160D01*
X123830844Y-85122921D01*
X123898829Y-85179679D01*
X123935455Y-85260314D01*
X123939500Y-85300231D01*
X123939500Y-87578837D01*
X123919793Y-87665180D01*
X123881214Y-87719551D01*
X123800348Y-87800417D01*
X123725360Y-87847536D01*
X123680435Y-87857613D01*
X123627017Y-87863227D01*
X123457007Y-87921103D01*
X123362651Y-87979151D01*
X123313521Y-88009376D01*
X123313519Y-88009377D01*
X123304045Y-88015206D01*
X123175732Y-88140859D01*
X123078446Y-88291817D01*
X123017022Y-88460578D01*
X122994514Y-88638753D01*
X109749679Y-88638753D01*
X109749679Y-82238481D01*
X118559500Y-82238481D01*
X118559501Y-84811518D01*
X118560723Y-84819231D01*
X118560723Y-84819237D01*
X118571903Y-84889831D01*
X118571904Y-84889834D01*
X118574354Y-84905304D01*
X118631950Y-85018342D01*
X118721658Y-85108050D01*
X118834696Y-85165646D01*
X118928481Y-85180500D01*
X118936305Y-85180500D01*
X119460373Y-85180499D01*
X119991518Y-85180499D01*
X119999231Y-85179277D01*
X119999237Y-85179277D01*
X120069831Y-85168097D01*
X120069834Y-85168096D01*
X120085304Y-85165646D01*
X120099260Y-85158535D01*
X120099263Y-85158534D01*
X120184388Y-85115160D01*
X120198342Y-85108050D01*
X120288050Y-85018342D01*
X120345646Y-84905304D01*
X120360500Y-84811519D01*
X120360499Y-82238482D01*
X120359275Y-82230753D01*
X120348097Y-82160169D01*
X120348096Y-82160166D01*
X120345646Y-82144696D01*
X120288050Y-82031658D01*
X120198342Y-81941950D01*
X120169156Y-81927079D01*
X120101171Y-81870321D01*
X120064545Y-81789686D01*
X120060500Y-81749769D01*
X120060500Y-81505176D01*
X120970000Y-81505176D01*
X120970720Y-81517130D01*
X120978925Y-81584924D01*
X120985165Y-81609494D01*
X121028922Y-81720015D01*
X121042115Y-81743429D01*
X121113510Y-81837487D01*
X121132513Y-81856490D01*
X121226571Y-81927885D01*
X121249985Y-81941078D01*
X121360506Y-81984835D01*
X121385076Y-81991075D01*
X121452870Y-81999280D01*
X121464824Y-82000000D01*
X121723577Y-82000000D01*
X121742547Y-81995670D01*
X121746000Y-81988500D01*
X121746000Y-81977577D01*
X122254000Y-81977577D01*
X122258330Y-81996547D01*
X122265500Y-82000000D01*
X122535176Y-82000000D01*
X122547130Y-81999280D01*
X122614924Y-81991075D01*
X122639494Y-81984835D01*
X122750015Y-81941078D01*
X122773429Y-81927885D01*
X122867487Y-81856490D01*
X122886490Y-81837487D01*
X122957885Y-81743429D01*
X122971078Y-81720015D01*
X123014835Y-81609494D01*
X123021075Y-81584924D01*
X123029280Y-81517130D01*
X123030000Y-81505176D01*
X123030000Y-80491423D01*
X123025670Y-80472453D01*
X123018500Y-80469000D01*
X122276423Y-80469000D01*
X122257453Y-80473330D01*
X122254000Y-80480500D01*
X122254000Y-81977577D01*
X121746000Y-81977577D01*
X121746000Y-80491423D01*
X121741670Y-80472453D01*
X121734500Y-80469000D01*
X120992423Y-80469000D01*
X120973453Y-80473330D01*
X120970000Y-80480500D01*
X120970000Y-81505176D01*
X120060500Y-81505176D01*
X120060500Y-79938577D01*
X120970000Y-79938577D01*
X120974330Y-79957547D01*
X120981500Y-79961000D01*
X121723577Y-79961000D01*
X121742547Y-79956670D01*
X121746000Y-79949500D01*
X121746000Y-79938577D01*
X122254000Y-79938577D01*
X122258330Y-79957547D01*
X122265500Y-79961000D01*
X123007577Y-79961000D01*
X123026547Y-79956670D01*
X123030000Y-79949500D01*
X123030000Y-78924824D01*
X123029280Y-78912870D01*
X123021075Y-78845076D01*
X123014835Y-78820506D01*
X122971078Y-78709985D01*
X122957885Y-78686571D01*
X122886490Y-78592513D01*
X122867487Y-78573510D01*
X122773429Y-78502115D01*
X122750015Y-78488922D01*
X122639494Y-78445165D01*
X122614924Y-78438925D01*
X122547130Y-78430720D01*
X122535176Y-78430000D01*
X122276423Y-78430000D01*
X122257453Y-78434330D01*
X122254000Y-78441500D01*
X122254000Y-79938577D01*
X121746000Y-79938577D01*
X121746000Y-78452423D01*
X121741670Y-78433453D01*
X121734500Y-78430000D01*
X121464824Y-78430000D01*
X121452870Y-78430720D01*
X121385076Y-78438925D01*
X121360506Y-78445165D01*
X121249985Y-78488922D01*
X121226571Y-78502115D01*
X121132513Y-78573510D01*
X121113510Y-78592513D01*
X121042115Y-78686571D01*
X121028922Y-78709985D01*
X120985165Y-78820506D01*
X120978925Y-78845076D01*
X120970720Y-78912870D01*
X120970000Y-78924824D01*
X120970000Y-79938577D01*
X120060500Y-79938577D01*
X120060500Y-77839160D01*
X120080207Y-77752817D01*
X120135426Y-77683576D01*
X120215218Y-77645149D01*
X120241463Y-77640979D01*
X120261981Y-77639112D01*
X120282144Y-77632561D01*
X120422196Y-77587055D01*
X120422199Y-77587054D01*
X120432782Y-77583615D01*
X120587044Y-77491657D01*
X120717099Y-77367807D01*
X120731476Y-77346169D01*
X120810325Y-77227490D01*
X120816483Y-77218222D01*
X120823706Y-77199209D01*
X120876305Y-77060739D01*
X120880257Y-77050336D01*
X120905251Y-76872493D01*
X120905565Y-76850000D01*
X120885546Y-76671528D01*
X120878094Y-76650127D01*
X120830145Y-76512437D01*
X120826485Y-76501927D01*
X120731316Y-76349625D01*
X120604770Y-76222193D01*
X120453136Y-76125963D01*
X120364109Y-76094262D01*
X120294436Y-76069452D01*
X120294432Y-76069451D01*
X120283951Y-76065719D01*
X120272904Y-76064402D01*
X120272901Y-76064401D01*
X120116671Y-76045772D01*
X120116669Y-76045772D01*
X120105624Y-76044455D01*
X119927017Y-76063227D01*
X119916482Y-76066813D01*
X119916479Y-76066814D01*
X119838035Y-76093519D01*
X119757007Y-76121103D01*
X119662651Y-76179151D01*
X119613521Y-76209376D01*
X119613519Y-76209377D01*
X119604045Y-76215206D01*
X119475732Y-76340859D01*
X119378446Y-76491817D01*
X119317022Y-76660578D01*
X119315628Y-76671609D01*
X119315628Y-76671611D01*
X119307752Y-76733958D01*
X119277378Y-76817150D01*
X119251035Y-76849730D01*
X119072439Y-77028326D01*
X119052875Y-77045483D01*
X119031718Y-77061718D01*
X119023781Y-77072062D01*
X119023778Y-77072065D01*
X119007553Y-77093211D01*
X119007550Y-77093215D01*
X118935464Y-77187159D01*
X118874956Y-77333238D01*
X118854318Y-77490000D01*
X118856020Y-77502928D01*
X118856020Y-77502935D01*
X118857797Y-77516433D01*
X118859500Y-77542408D01*
X118859500Y-81749769D01*
X118839793Y-81836112D01*
X118784574Y-81905353D01*
X118750845Y-81927079D01*
X118721658Y-81941950D01*
X118631950Y-82031658D01*
X118574354Y-82144696D01*
X118559500Y-82238481D01*
X109749679Y-82238481D01*
X109749679Y-66114531D01*
X109769386Y-66028188D01*
X109824605Y-65958947D01*
X109904397Y-65920520D01*
X109948641Y-65915531D01*
X121572968Y-65913307D01*
X135640462Y-65910615D01*
X135726809Y-65930306D01*
G37*
%TD.AperFunction*%
%TD*%
M02*
