%TF.GenerationSoftware,KiCad,Pcbnew,6.0.11+dfsg-1~bpo11+1*%
%TF.CreationDate,2023-04-13T00:45:52+00:00*%
%TF.ProjectId,PINHOLDER01,50494e48-4f4c-4444-9552-30312e6b6963,01A*%
%TF.SameCoordinates,Original*%
%TF.FileFunction,Legend,Bot*%
%TF.FilePolarity,Positive*%
%FSLAX46Y46*%
G04 Gerber Fmt 4.6, Leading zero omitted, Abs format (unit mm)*
G04 Created by KiCad (PCBNEW 6.0.11+dfsg-1~bpo11+1) date 2023-04-13 00:45:52*
%MOMM*%
%LPD*%
G01*
G04 APERTURE LIST*
%ADD10C,0.300000*%
%ADD11C,0.150000*%
%ADD12C,0.120000*%
G04 APERTURE END LIST*
D10*
X135185847Y-96333009D02*
X133485847Y-96333009D01*
X133485847Y-96980628D01*
X133566800Y-97142533D01*
X133647752Y-97223485D01*
X133809657Y-97304438D01*
X134052514Y-97304438D01*
X134214419Y-97223485D01*
X134295371Y-97142533D01*
X134376323Y-96980628D01*
X134376323Y-96333009D01*
X135185847Y-98033009D02*
X133485847Y-98033009D01*
X135185847Y-98842533D02*
X133485847Y-98842533D01*
X135185847Y-99813961D01*
X133485847Y-99813961D01*
X135185847Y-100623485D02*
X133485847Y-100623485D01*
X134295371Y-100623485D02*
X134295371Y-101594914D01*
X135185847Y-101594914D02*
X133485847Y-101594914D01*
X133485847Y-102728247D02*
X133485847Y-103052057D01*
X133566800Y-103213961D01*
X133728704Y-103375866D01*
X134052514Y-103456819D01*
X134619180Y-103456819D01*
X134942990Y-103375866D01*
X135104895Y-103213961D01*
X135185847Y-103052057D01*
X135185847Y-102728247D01*
X135104895Y-102566342D01*
X134942990Y-102404438D01*
X134619180Y-102323485D01*
X134052514Y-102323485D01*
X133728704Y-102404438D01*
X133566800Y-102566342D01*
X133485847Y-102728247D01*
X135185847Y-104994914D02*
X135185847Y-104185390D01*
X133485847Y-104185390D01*
X135185847Y-105561580D02*
X133485847Y-105561580D01*
X133485847Y-105966342D01*
X133566800Y-106209200D01*
X133728704Y-106371104D01*
X133890609Y-106452057D01*
X134214419Y-106533009D01*
X134457276Y-106533009D01*
X134781085Y-106452057D01*
X134942990Y-106371104D01*
X135104895Y-106209200D01*
X135185847Y-105966342D01*
X135185847Y-105561580D01*
X134295371Y-107261580D02*
X134295371Y-107828247D01*
X135185847Y-108071104D02*
X135185847Y-107261580D01*
X133485847Y-107261580D01*
X133485847Y-108071104D01*
X135185847Y-109771104D02*
X134376323Y-109204438D01*
X135185847Y-108799676D02*
X133485847Y-108799676D01*
X133485847Y-109447295D01*
X133566800Y-109609200D01*
X133647752Y-109690152D01*
X133809657Y-109771104D01*
X134052514Y-109771104D01*
X134214419Y-109690152D01*
X134295371Y-109609200D01*
X134376323Y-109447295D01*
X134376323Y-108799676D01*
X133485847Y-110823485D02*
X133485847Y-110985390D01*
X133566800Y-111147295D01*
X133647752Y-111228247D01*
X133809657Y-111309200D01*
X134133466Y-111390152D01*
X134538228Y-111390152D01*
X134862038Y-111309200D01*
X135023942Y-111228247D01*
X135104895Y-111147295D01*
X135185847Y-110985390D01*
X135185847Y-110823485D01*
X135104895Y-110661580D01*
X135023942Y-110580628D01*
X134862038Y-110499676D01*
X134538228Y-110418723D01*
X134133466Y-110418723D01*
X133809657Y-110499676D01*
X133647752Y-110580628D01*
X133566800Y-110661580D01*
X133485847Y-110823485D01*
X135185847Y-113009200D02*
X135185847Y-112037771D01*
X135185847Y-112523485D02*
X133485847Y-112523485D01*
X133728704Y-112361580D01*
X133890609Y-112199676D01*
X133971561Y-112037771D01*
X134700133Y-113656819D02*
X134700133Y-114466342D01*
X135185847Y-113494914D02*
X133485847Y-114061580D01*
X135185847Y-114628247D01*
D11*
%TO.C,J1*%
X126322380Y-81536666D02*
X127036666Y-81536666D01*
X127179523Y-81489047D01*
X127274761Y-81393809D01*
X127322380Y-81250952D01*
X127322380Y-81155714D01*
X127322380Y-82536666D02*
X127322380Y-81965238D01*
X127322380Y-82250952D02*
X126322380Y-82250952D01*
X126465238Y-82155714D01*
X126560476Y-82060476D01*
X126608095Y-81965238D01*
D12*
X118130000Y-83200000D02*
X118130000Y-80540000D01*
X123780000Y-83200000D02*
X120220000Y-83200000D01*
X125870000Y-83200000D02*
X125870000Y-80540000D01*
X125870000Y-83200000D02*
X125300000Y-83200000D01*
X121240000Y-80540000D02*
X118130000Y-80540000D01*
X118700000Y-80540000D02*
X118130000Y-80540000D01*
X125300000Y-83200000D02*
X125300000Y-84720000D01*
X125870000Y-80540000D02*
X122760000Y-80540000D01*
%TD*%
M02*
