  0
SECTION
  2
HEADER
  9
$ANGBASE
  50
0.0
  9
$ANGDIR
  70
1
  9
$MEASUREMENT
  70
0
  0
ENDSEC
  0
SECTION
  2
TABLES
  0
TABLE
  2
LTYPE
  70
4
  0
LTYPE
  5
40F
  2
CONTINUOUS
  70
0
  3
Solid line
  72
65
  73
0
  40
0.0
  0
LTYPE
  5
410
  2
DASHDOT
 70
0
  3
Dash Dot ____ _ ____ _
 72
65
 73
4
 40
2.0
 49
1.25
 49
-0.25
 49
0.25
 49
-0.25
  0
LTYPE
  5
411
  2
DASHED
 70
0
  3
Dashed __ __ __ __ __
 72
65
 73
2
 40
0.75
 49
0.5
 49
-0.25
  0
LTYPE
  5
43B
  2
DOTTED
 70
0
  3
Dotted .  .  .  .
 72
65
 73
2
 40
0.2
 49
0.0
 49
-0.2
  0
ENDTAB
  0
TABLE
  2
STYLE
  70
4
  0
STYLE
  2
KICAD
  70
0
  40
0
  41
1
  42
1
  50
0
  71
0
  3
isocp.shx
  0
STYLE
  2
KICADB
  70
0
  40
0
  41
1
  42
1
  50
0
  71
0
  3
isocp.shx
  0
STYLE
  2
KICADI
  70
0
  40
0
  41
1
  42
1
  50
15
  71
0
  3
isocp.shx
  0
STYLE
  2
KICADBI
  70
0
  40
0
  41
1
  42
1
  50
15
  71
0
  3
isocp.shx
  0
ENDTAB
  0
TABLE
  2
LAYER
  70
1
  0
LAYER
  2
BLACK
  70
0
  62
7
  6
CONTINUOUS
  0
ENDTAB
  0
ENDSEC
  0
SECTION
  2
ENTITIES
0
LINE
8
BLACK
6
CONTINUOUS
10
1.2612
20
-0.322267
11
1.26133
21
-0.322244
0
LINE
8
BLACK
6
CONTINUOUS
10
1.26133
20
-0.322244
11
1.26145
21
-0.322309
0
LINE
8
BLACK
6
CONTINUOUS
10
1.26145
20
-0.322309
11
1.26183
21
-0.322377
0
LINE
8
BLACK
6
CONTINUOUS
10
1.26183
20
-0.322377
11
1.26242
21
-0.32287
0
LINE
8
BLACK
6
CONTINUOUS
10
1.26242
20
-0.32287
11
1.26308
21
-0.323254
0
LINE
8
BLACK
6
CONTINUOUS
10
1.26308
20
-0.323254
11
1.26317
21
-0.323504
0
LINE
8
BLACK
6
CONTINUOUS
10
1.26317
20
-0.323504
11
1.26338
21
-0.323675
0
LINE
8
BLACK
6
CONTINUOUS
10
1.26338
20
-0.323675
11
1.26351
21
-0.324431
0
LINE
8
BLACK
6
CONTINUOUS
10
1.26351
20
-0.324431
11
1.26377
21
-0.325152
0
LINE
8
BLACK
6
CONTINUOUS
10
1.26377
20
-0.325152
11
1.26377
21
-0.789719
0
LINE
8
BLACK
6
CONTINUOUS
10
1.26377
20
-0.789719
11
1.2637
21
-0.790102
0
LINE
8
BLACK
6
CONTINUOUS
10
1.2637
20
-0.790102
11
1.26373
21
-0.790231
0
LINE
8
BLACK
6
CONTINUOUS
10
1.26373
20
-0.790231
11
1.26366
21
-0.790345
0
LINE
8
BLACK
6
CONTINUOUS
10
1.26366
20
-0.790345
11
1.26359
21
-0.790729
0
LINE
8
BLACK
6
CONTINUOUS
10
1.26359
20
-0.790729
11
1.2631
21
-0.791316
0
LINE
8
BLACK
6
CONTINUOUS
10
1.2631
20
-0.791316
11
1.26272
21
-0.791981
0
LINE
8
BLACK
6
CONTINUOUS
10
1.26272
20
-0.791981
11
1.26247
21
-0.792072
0
LINE
8
BLACK
6
CONTINUOUS
10
1.26247
20
-0.792072
11
1.2623
21
-0.792276
0
LINE
8
BLACK
6
CONTINUOUS
10
1.2623
20
-0.792276
11
1.26154
21
-0.792409
0
LINE
8
BLACK
6
CONTINUOUS
10
1.26154
20
-0.792409
11
1.26082
21
-0.792671
0
LINE
8
BLACK
6
CONTINUOUS
10
1.26082
20
-0.792671
11
0.812001
21
-0.792671
0
LINE
8
BLACK
6
CONTINUOUS
10
0.812001
20
-0.792671
11
0.811617
21
-0.792604
0
LINE
8
BLACK
6
CONTINUOUS
10
0.811617
20
-0.792604
11
0.811488
21
-0.792627
0
LINE
8
BLACK
6
CONTINUOUS
10
0.811488
20
-0.792627
11
0.811374
21
-0.792561
0
LINE
8
BLACK
6
CONTINUOUS
10
0.811374
20
-0.792561
11
0.810991
21
-0.792493
0
LINE
8
BLACK
6
CONTINUOUS
10
0.810991
20
-0.792493
11
0.810403
21
-0.792
0
LINE
8
BLACK
6
CONTINUOUS
10
0.810403
20
-0.792
11
0.809739
21
-0.791617
0
LINE
8
BLACK
6
CONTINUOUS
10
0.809739
20
-0.791617
11
0.809648
21
-0.791366
0
LINE
8
BLACK
6
CONTINUOUS
10
0.809648
20
-0.791366
11
0.809444
21
-0.791195
0
LINE
8
BLACK
6
CONTINUOUS
10
0.809444
20
-0.791195
11
0.80931
21
-0.790439
0
LINE
8
BLACK
6
CONTINUOUS
10
0.80931
20
-0.790439
11
0.809048
21
-0.789719
0
LINE
8
BLACK
6
CONTINUOUS
10
0.809048
20
-0.789719
11
0.809048
21
-0.325152
0
LINE
8
BLACK
6
CONTINUOUS
10
0.809048
20
-0.325152
11
0.809116
21
-0.324768
0
LINE
8
BLACK
6
CONTINUOUS
10
0.809116
20
-0.324768
11
0.809093
21
-0.324639
0
LINE
8
BLACK
6
CONTINUOUS
10
0.809093
20
-0.324639
11
0.809159
21
-0.324525
0
LINE
8
BLACK
6
CONTINUOUS
10
0.809159
20
-0.324525
11
0.809226
21
-0.324142
0
LINE
8
BLACK
6
CONTINUOUS
10
0.809226
20
-0.324142
11
0.809719
21
-0.323554
0
LINE
8
BLACK
6
CONTINUOUS
10
0.809719
20
-0.323554
11
0.810103
21
-0.32289
0
LINE
8
BLACK
6
CONTINUOUS
10
0.810103
20
-0.32289
11
0.810353
21
-0.322799
0
LINE
8
BLACK
6
CONTINUOUS
10
0.810353
20
-0.322799
11
0.810524
21
-0.322595
0
LINE
8
BLACK
6
CONTINUOUS
10
0.810524
20
-0.322595
11
0.81128
21
-0.322461
0
LINE
8
BLACK
6
CONTINUOUS
10
0.81128
20
-0.322461
11
0.812001
21
-0.322199
0
LINE
8
BLACK
6
CONTINUOUS
10
0.812001
20
-0.322199
11
1.26082
21
-0.322199
0
LINE
8
BLACK
6
CONTINUOUS
10
1.26082
20
-0.322199
11
1.2612
21
-0.322267
  0
ENDSEC
  0
EOF
