  0
SECTION
  2
HEADER
  9
$ANGBASE
  50
0.0
  9
$ANGDIR
  70
1
  9
$MEASUREMENT
  70
0
  0
ENDSEC
  0
SECTION
  2
TABLES
  0
TABLE
  2
LTYPE
  70
4
  0
LTYPE
  5
40F
  2
CONTINUOUS
  70
0
  3
Solid line
  72
65
  73
0
  40
0.0
  0
LTYPE
  5
410
  2
DASHDOT
 70
0
  3
Dash Dot ____ _ ____ _
 72
65
 73
4
 40
2.0
 49
1.25
 49
-0.25
 49
0.25
 49
-0.25
  0
LTYPE
  5
411
  2
DASHED
 70
0
  3
Dashed __ __ __ __ __
 72
65
 73
2
 40
0.75
 49
0.5
 49
-0.25
  0
LTYPE
  5
43B
  2
DOTTED
 70
0
  3
Dotted .  .  .  .
 72
65
 73
2
 40
0.2
 49
0.0
 49
-0.2
  0
ENDTAB
  0
TABLE
  2
STYLE
  70
4
  0
STYLE
  2
KICAD
  70
0
  40
0
  41
1
  42
1
  50
0
  71
0
  3
isocp.shx
  0
STYLE
  2
KICADB
  70
0
  40
0
  41
1
  42
1
  50
0
  71
0
  3
isocp.shx
  0
STYLE
  2
KICADI
  70
0
  40
0
  41
1
  42
1
  50
15
  71
0
  3
isocp.shx
  0
STYLE
  2
KICADBI
  70
0
  40
0
  41
1
  42
1
  50
15
  71
0
  3
isocp.shx
  0
ENDTAB
  0
TABLE
  2
LAYER
  70
1
  0
LAYER
  2
BLACK
  70
0
  62
7
  6
CONTINUOUS
  0
ENDTAB
  0
ENDSEC
  0
SECTION
  2
ENTITIES
0
LINE
8
BLACK
6
CONTINUOUS
10
0.274438
20
-0.593912
11
0.274502
21
-0.59391
0
LINE
8
BLACK
6
CONTINUOUS
10
0.274502
20
-0.59391
11
0.280126
21
-0.595785
0
LINE
8
BLACK
6
CONTINUOUS
10
0.280126
20
-0.595785
11
0.281028
21
-0.596273
0
LINE
8
BLACK
6
CONTINUOUS
10
0.281028
20
-0.596273
11
0.28112
21
-0.596424
0
LINE
8
BLACK
6
CONTINUOUS
10
0.28112
20
-0.596424
11
0.28128
21
-0.596498
0
LINE
8
BLACK
6
CONTINUOUS
10
0.28128
20
-0.596498
11
0.283155
21
-0.598373
0
LINE
8
BLACK
6
CONTINUOUS
10
0.283155
20
-0.598373
11
0.28326
21
-0.598523
0
LINE
8
BLACK
6
CONTINUOUS
10
0.28326
20
-0.598523
11
0.283329
21
-0.598563
0
LINE
8
BLACK
6
CONTINUOUS
10
0.283329
20
-0.598563
11
0.283374
21
-0.598685
0
LINE
8
BLACK
6
CONTINUOUS
10
0.283374
20
-0.598685
11
0.283743
21
-0.599213
0
LINE
8
BLACK
6
CONTINUOUS
10
0.283743
20
-0.599213
11
0.283799
21
-0.599855
0
LINE
8
BLACK
6
CONTINUOUS
10
0.283799
20
-0.599855
11
0.28402
21
-0.600461
0
LINE
8
BLACK
6
CONTINUOUS
10
0.28402
20
-0.600461
11
0.28402
21
-0.613584
0
LINE
8
BLACK
6
CONTINUOUS
10
0.28402
20
-0.613584
11
0.283952
21
-0.613968
0
LINE
8
BLACK
6
CONTINUOUS
10
0.283952
20
-0.613968
11
0.283975
21
-0.614097
0
LINE
8
BLACK
6
CONTINUOUS
10
0.283975
20
-0.614097
11
0.283909
21
-0.614211
0
LINE
8
BLACK
6
CONTINUOUS
10
0.283909
20
-0.614211
11
0.283842
21
-0.614594
0
LINE
8
BLACK
6
CONTINUOUS
10
0.283842
20
-0.614594
11
0.283349
21
-0.615182
0
LINE
8
BLACK
6
CONTINUOUS
10
0.283349
20
-0.615182
11
0.282965
21
-0.615846
0
LINE
8
BLACK
6
CONTINUOUS
10
0.282965
20
-0.615846
11
0.282715
21
-0.615937
0
LINE
8
BLACK
6
CONTINUOUS
10
0.282715
20
-0.615937
11
0.282544
21
-0.616142
0
LINE
8
BLACK
6
CONTINUOUS
10
0.282544
20
-0.616142
11
0.281788
21
-0.616275
0
LINE
8
BLACK
6
CONTINUOUS
10
0.281788
20
-0.616275
11
0.281067
21
-0.616537
0
LINE
8
BLACK
6
CONTINUOUS
10
0.281067
20
-0.616537
11
0.273568
21
-0.616537
0
LINE
8
BLACK
6
CONTINUOUS
10
0.273568
20
-0.616537
11
0.272558
21
-0.616359
0
LINE
8
BLACK
6
CONTINUOUS
10
0.272558
20
-0.616359
11
0.271011
21
-0.615061
0
LINE
8
BLACK
6
CONTINUOUS
10
0.271011
20
-0.615061
11
0.27066
21
-0.613072
0
LINE
8
BLACK
6
CONTINUOUS
10
0.27066
20
-0.613072
11
0.27167
21
-0.611322
0
LINE
8
BLACK
6
CONTINUOUS
10
0.27167
20
-0.611322
11
0.273568
21
-0.610632
0
LINE
8
BLACK
6
CONTINUOUS
10
0.273568
20
-0.610632
11
0.278114
21
-0.610632
0
LINE
8
BLACK
6
CONTINUOUS
10
0.278114
20
-0.610632
11
0.278114
21
-0.601684
0
LINE
8
BLACK
6
CONTINUOUS
10
0.278114
20
-0.601684
11
0.277597
21
-0.601167
0
LINE
8
BLACK
6
CONTINUOUS
10
0.277597
20
-0.601167
11
0.273089
21
-0.599664
0
LINE
8
BLACK
6
CONTINUOUS
10
0.273089
20
-0.599664
11
0.270298
21
-0.599664
0
LINE
8
BLACK
6
CONTINUOUS
10
0.270298
20
-0.599664
11
0.265789
21
-0.601167
0
LINE
8
BLACK
6
CONTINUOUS
10
0.265789
20
-0.601167
11
0.262871
21
-0.604085
0
LINE
8
BLACK
6
CONTINUOUS
10
0.262871
20
-0.604085
11
0.261356
21
-0.607116
0
LINE
8
BLACK
6
CONTINUOUS
10
0.261356
20
-0.607116
11
0.259648
21
-0.613948
0
LINE
8
BLACK
6
CONTINUOUS
10
0.259648
20
-0.613948
11
0.259648
21
-0.618845
0
LINE
8
BLACK
6
CONTINUOUS
10
0.259648
20
-0.618845
11
0.261356
21
-0.625677
0
LINE
8
BLACK
6
CONTINUOUS
10
0.261356
20
-0.625677
11
0.262871
21
-0.628708
0
LINE
8
BLACK
6
CONTINUOUS
10
0.262871
20
-0.628708
11
0.265789
21
-0.631626
0
LINE
8
BLACK
6
CONTINUOUS
10
0.265789
20
-0.631626
11
0.270298
21
-0.633129
0
LINE
8
BLACK
6
CONTINUOUS
10
0.270298
20
-0.633129
11
0.274746
21
-0.633129
0
LINE
8
BLACK
6
CONTINUOUS
10
0.274746
20
-0.633129
11
0.277872
21
-0.631566
0
LINE
8
BLACK
6
CONTINUOUS
10
0.277872
20
-0.631566
11
0.278855
21
-0.631273
0
LINE
8
BLACK
6
CONTINUOUS
10
0.278855
20
-0.631273
11
0.280819
21
-0.631743
0
LINE
8
BLACK
6
CONTINUOUS
10
0.280819
20
-0.631743
11
0.282023
21
-0.633365
0
LINE
8
BLACK
6
CONTINUOUS
10
0.282023
20
-0.633365
11
0.281902
21
-0.635381
0
LINE
8
BLACK
6
CONTINUOUS
10
0.281902
20
-0.635381
11
0.280513
21
-0.636848
0
LINE
8
BLACK
6
CONTINUOUS
10
0.280513
20
-0.636848
11
0.276763
21
-0.638723
0
LINE
8
BLACK
6
CONTINUOUS
10
0.276763
20
-0.638723
11
0.27578
21
-0.639015
0
LINE
8
BLACK
6
CONTINUOUS
10
0.27578
20
-0.639015
11
0.275609
21
-0.638974
0
LINE
8
BLACK
6
CONTINUOUS
10
0.275609
20
-0.638974
11
0.275443
21
-0.639034
0
LINE
8
BLACK
6
CONTINUOUS
10
0.275443
20
-0.639034
11
0.269819
21
-0.639034
0
LINE
8
BLACK
6
CONTINUOUS
10
0.269819
20
-0.639034
11
0.268949
21
-0.638881
0
LINE
8
BLACK
6
CONTINUOUS
10
0.268949
20
-0.638881
11
0.268885
21
-0.638883
0
LINE
8
BLACK
6
CONTINUOUS
10
0.268885
20
-0.638883
11
0.263261
21
-0.637008
0
LINE
8
BLACK
6
CONTINUOUS
10
0.263261
20
-0.637008
11
0.262359
21
-0.63652
0
LINE
8
BLACK
6
CONTINUOUS
10
0.262359
20
-0.63652
11
0.262266
21
-0.636369
0
LINE
8
BLACK
6
CONTINUOUS
10
0.262266
20
-0.636369
11
0.262106
21
-0.636295
0
LINE
8
BLACK
6
CONTINUOUS
10
0.262106
20
-0.636295
11
0.258357
21
-0.632545
0
LINE
8
BLACK
6
CONTINUOUS
10
0.258357
20
-0.632545
11
0.25785
21
-0.631822
0
LINE
8
BLACK
6
CONTINUOUS
10
0.25785
20
-0.631822
11
0.257804
21
-0.631778
0
LINE
8
BLACK
6
CONTINUOUS
10
0.257804
20
-0.631778
11
0.255929
21
-0.628028
0
LINE
8
BLACK
6
CONTINUOUS
10
0.255929
20
-0.628028
11
0.255784
21
-0.62754
0
LINE
8
BLACK
6
CONTINUOUS
10
0.255784
20
-0.62754
11
0.255705
21
-0.627424
0
LINE
8
BLACK
6
CONTINUOUS
10
0.255705
20
-0.627424
11
0.253831
21
-0.619925
0
LINE
8
BLACK
6
CONTINUOUS
10
0.253831
20
-0.619925
11
0.253789
21
-0.619337
0
LINE
8
BLACK
6
CONTINUOUS
10
0.253789
20
-0.619337
11
0.253742
21
-0.619209
0
LINE
8
BLACK
6
CONTINUOUS
10
0.253742
20
-0.619209
11
0.253742
21
-0.613584
0
LINE
8
BLACK
6
CONTINUOUS
10
0.253742
20
-0.613584
11
0.253845
21
-0.613004
0
LINE
8
BLACK
6
CONTINUOUS
10
0.253845
20
-0.613004
11
0.253831
21
-0.612868
0
LINE
8
BLACK
6
CONTINUOUS
10
0.253831
20
-0.612868
11
0.255705
21
-0.605369
0
LINE
8
BLACK
6
CONTINUOUS
10
0.255705
20
-0.605369
11
0.255913
21
-0.604904
0
LINE
8
BLACK
6
CONTINUOUS
10
0.255913
20
-0.604904
11
0.255929
21
-0.604765
0
LINE
8
BLACK
6
CONTINUOUS
10
0.255929
20
-0.604765
11
0.257804
21
-0.601015
0
LINE
8
BLACK
6
CONTINUOUS
10
0.257804
20
-0.601015
11
0.25833
21
-0.600306
0
LINE
8
BLACK
6
CONTINUOUS
10
0.25833
20
-0.600306
11
0.258357
21
-0.600248
0
LINE
8
BLACK
6
CONTINUOUS
10
0.258357
20
-0.600248
11
0.262106
21
-0.596498
0
LINE
8
BLACK
6
CONTINUOUS
10
0.262106
20
-0.596498
11
0.262946
21
-0.59591
0
LINE
8
BLACK
6
CONTINUOUS
10
0.262946
20
-0.59591
11
0.263122
21
-0.595895
0
LINE
8
BLACK
6
CONTINUOUS
10
0.263122
20
-0.595895
11
0.263261
21
-0.595785
0
LINE
8
BLACK
6
CONTINUOUS
10
0.263261
20
-0.595785
11
0.268885
21
-0.59391
0
LINE
8
BLACK
6
CONTINUOUS
10
0.268885
20
-0.59391
11
0.269758
21
-0.593781
0
LINE
8
BLACK
6
CONTINUOUS
10
0.269758
20
-0.593781
11
0.269819
21
-0.593759
0
LINE
8
BLACK
6
CONTINUOUS
10
0.269819
20
-0.593759
11
0.273568
21
-0.593759
0
LINE
8
BLACK
6
CONTINUOUS
10
0.273568
20
-0.593759
11
0.274438
21
-0.593912
0
LINE
8
BLACK
6
CONTINUOUS
10
0.349428
20
-0.593912
11
0.349492
21
-0.59391
0
LINE
8
BLACK
6
CONTINUOUS
10
0.349492
20
-0.59391
11
0.355117
21
-0.595785
0
LINE
8
BLACK
6
CONTINUOUS
10
0.355117
20
-0.595785
11
0.356019
21
-0.596273
0
LINE
8
BLACK
6
CONTINUOUS
10
0.356019
20
-0.596273
11
0.356111
21
-0.596424
0
LINE
8
BLACK
6
CONTINUOUS
10
0.356111
20
-0.596424
11
0.356271
21
-0.596498
0
LINE
8
BLACK
6
CONTINUOUS
10
0.356271
20
-0.596498
11
0.36002
21
-0.600248
0
LINE
8
BLACK
6
CONTINUOUS
10
0.36002
20
-0.600248
11
0.360527
21
-0.600971
0
LINE
8
BLACK
6
CONTINUOUS
10
0.360527
20
-0.600971
11
0.360574
21
-0.601015
0
LINE
8
BLACK
6
CONTINUOUS
10
0.360574
20
-0.601015
11
0.362448
21
-0.604765
0
LINE
8
BLACK
6
CONTINUOUS
10
0.362448
20
-0.604765
11
0.362594
21
-0.605253
0
LINE
8
BLACK
6
CONTINUOUS
10
0.362594
20
-0.605253
11
0.362672
21
-0.605369
0
LINE
8
BLACK
6
CONTINUOUS
10
0.362672
20
-0.605369
11
0.364547
21
-0.612868
0
LINE
8
BLACK
6
CONTINUOUS
10
0.364547
20
-0.612868
11
0.364588
21
-0.613456
0
LINE
8
BLACK
6
CONTINUOUS
10
0.364588
20
-0.613456
11
0.364635
21
-0.613584
0
LINE
8
BLACK
6
CONTINUOUS
10
0.364635
20
-0.613584
11
0.364635
21
-0.619209
0
LINE
8
BLACK
6
CONTINUOUS
10
0.364635
20
-0.619209
11
0.364533
21
-0.619789
0
LINE
8
BLACK
6
CONTINUOUS
10
0.364533
20
-0.619789
11
0.364547
21
-0.619925
0
LINE
8
BLACK
6
CONTINUOUS
10
0.364547
20
-0.619925
11
0.362672
21
-0.627424
0
LINE
8
BLACK
6
CONTINUOUS
10
0.362672
20
-0.627424
11
0.362464
21
-0.627889
0
LINE
8
BLACK
6
CONTINUOUS
10
0.362464
20
-0.627889
11
0.362448
21
-0.628028
0
LINE
8
BLACK
6
CONTINUOUS
10
0.362448
20
-0.628028
11
0.360574
21
-0.631778
0
LINE
8
BLACK
6
CONTINUOUS
10
0.360574
20
-0.631778
11
0.360048
21
-0.632487
0
LINE
8
BLACK
6
CONTINUOUS
10
0.360048
20
-0.632487
11
0.360021
21
-0.632545
0
LINE
8
BLACK
6
CONTINUOUS
10
0.360021
20
-0.632545
11
0.356271
21
-0.636295
0
LINE
8
BLACK
6
CONTINUOUS
10
0.356271
20
-0.636295
11
0.355431
21
-0.636883
0
LINE
8
BLACK
6
CONTINUOUS
10
0.355431
20
-0.636883
11
0.355255
21
-0.636898
0
LINE
8
BLACK
6
CONTINUOUS
10
0.355255
20
-0.636898
11
0.355117
21
-0.637008
0
LINE
8
BLACK
6
CONTINUOUS
10
0.355117
20
-0.637008
11
0.349492
21
-0.638883
0
LINE
8
BLACK
6
CONTINUOUS
10
0.349492
20
-0.638883
11
0.348619
21
-0.639012
0
LINE
8
BLACK
6
CONTINUOUS
10
0.348619
20
-0.639012
11
0.348559
21
-0.639034
0
LINE
8
BLACK
6
CONTINUOUS
10
0.348559
20
-0.639034
11
0.339185
21
-0.639034
0
LINE
8
BLACK
6
CONTINUOUS
10
0.339185
20
-0.639034
11
0.338801
21
-0.638967
0
LINE
8
BLACK
6
CONTINUOUS
10
0.338801
20
-0.638967
11
0.338672
21
-0.63899
0
LINE
8
BLACK
6
CONTINUOUS
10
0.338672
20
-0.63899
11
0.338559
21
-0.638924
0
LINE
8
BLACK
6
CONTINUOUS
10
0.338559
20
-0.638924
11
0.338175
21
-0.638856
0
LINE
8
BLACK
6
CONTINUOUS
10
0.338175
20
-0.638856
11
0.337587
21
-0.638363
0
LINE
8
BLACK
6
CONTINUOUS
10
0.337587
20
-0.638363
11
0.336923
21
-0.63798
0
LINE
8
BLACK
6
CONTINUOUS
10
0.336923
20
-0.63798
11
0.336832
21
-0.637729
0
LINE
8
BLACK
6
CONTINUOUS
10
0.336832
20
-0.637729
11
0.336628
21
-0.637558
0
LINE
8
BLACK
6
CONTINUOUS
10
0.336628
20
-0.637558
11
0.336495
21
-0.636802
0
LINE
8
BLACK
6
CONTINUOUS
10
0.336495
20
-0.636802
11
0.336232
21
-0.636082
0
LINE
8
BLACK
6
CONTINUOUS
10
0.336232
20
-0.636082
11
0.336232
21
-0.596712
0
LINE
8
BLACK
6
CONTINUOUS
10
0.336232
20
-0.596712
11
0.3363
21
-0.596328
0
LINE
8
BLACK
6
CONTINUOUS
10
0.3363
20
-0.596328
11
0.336277
21
-0.596199
0
LINE
8
BLACK
6
CONTINUOUS
10
0.336277
20
-0.596199
11
0.336343
21
-0.596085
0
LINE
8
BLACK
6
CONTINUOUS
10
0.336343
20
-0.596085
11
0.33641
21
-0.595702
0
LINE
8
BLACK
6
CONTINUOUS
10
0.33641
20
-0.595702
11
0.336903
21
-0.595114
0
LINE
8
BLACK
6
CONTINUOUS
10
0.336903
20
-0.595114
11
0.337287
21
-0.59445
0
LINE
8
BLACK
6
CONTINUOUS
10
0.337287
20
-0.59445
11
0.337537
21
-0.594359
0
LINE
8
BLACK
6
CONTINUOUS
10
0.337537
20
-0.594359
11
0.337709
21
-0.594154
0
LINE
8
BLACK
6
CONTINUOUS
10
0.337709
20
-0.594154
11
0.338464
21
-0.594021
0
LINE
8
BLACK
6
CONTINUOUS
10
0.338464
20
-0.594021
11
0.339185
21
-0.593759
0
LINE
8
BLACK
6
CONTINUOUS
10
0.339185
20
-0.593759
11
0.348559
21
-0.593759
0
LINE
8
BLACK
6
CONTINUOUS
10
0.348559
20
-0.593759
11
0.349428
21
-0.593912
0
LINE
8
BLACK
6
CONTINUOUS
10
0.342138
20
-0.599664
11
0.342138
21
-0.633129
0
LINE
8
BLACK
6
CONTINUOUS
10
0.342138
20
-0.633129
11
0.34808
21
-0.633129
0
LINE
8
BLACK
6
CONTINUOUS
10
0.34808
20
-0.633129
11
0.352588
21
-0.631626
0
LINE
8
BLACK
6
CONTINUOUS
10
0.352588
20
-0.631626
11
0.355506
21
-0.628708
0
LINE
8
BLACK
6
CONTINUOUS
10
0.355506
20
-0.628708
11
0.357021
21
-0.625677
0
LINE
8
BLACK
6
CONTINUOUS
10
0.357021
20
-0.625677
11
0.358729
21
-0.618845
0
LINE
8
BLACK
6
CONTINUOUS
10
0.358729
20
-0.618845
11
0.358729
21
-0.613948
0
LINE
8
BLACK
6
CONTINUOUS
10
0.358729
20
-0.613948
11
0.357021
21
-0.607116
0
LINE
8
BLACK
6
CONTINUOUS
10
0.357021
20
-0.607116
11
0.355506
21
-0.604085
0
LINE
8
BLACK
6
CONTINUOUS
10
0.355506
20
-0.604085
11
0.352588
21
-0.601167
0
LINE
8
BLACK
6
CONTINUOUS
10
0.352588
20
-0.601167
11
0.34808
21
-0.599664
0
LINE
8
BLACK
6
CONTINUOUS
10
0.34808
20
-0.599664
11
0.342138
21
-0.599664
0
LINE
8
BLACK
6
CONTINUOUS
10
0.320681
20
-0.593851
11
0.32095
21
-0.593804
0
LINE
8
BLACK
6
CONTINUOUS
10
0.32095
20
-0.593804
11
0.321609
21
-0.594184
0
LINE
8
BLACK
6
CONTINUOUS
10
0.321609
20
-0.594184
11
0.322325
21
-0.594441
0
LINE
8
BLACK
6
CONTINUOUS
10
0.322325
20
-0.594441
11
0.322463
21
-0.594677
0
LINE
8
BLACK
6
CONTINUOUS
10
0.322463
20
-0.594677
11
0.322699
21
-0.594814
0
LINE
8
BLACK
6
CONTINUOUS
10
0.322699
20
-0.594814
11
0.322959
21
-0.595528
0
LINE
8
BLACK
6
CONTINUOUS
10
0.322959
20
-0.595528
11
0.323343
21
-0.596186
0
LINE
8
BLACK
6
CONTINUOUS
10
0.323343
20
-0.596186
11
0.323297
21
-0.596455
0
LINE
8
BLACK
6
CONTINUOUS
10
0.323297
20
-0.596455
11
0.32339
21
-0.596712
0
LINE
8
BLACK
6
CONTINUOUS
10
0.32339
20
-0.596712
11
0.32339
21
-0.636082
0
LINE
8
BLACK
6
CONTINUOUS
10
0.32339
20
-0.636082
11
0.323212
21
-0.637092
0
LINE
8
BLACK
6
CONTINUOUS
10
0.323212
20
-0.637092
11
0.321914
21
-0.638639
0
LINE
8
BLACK
6
CONTINUOUS
10
0.321914
20
-0.638639
11
0.319924
21
-0.63899
0
LINE
8
BLACK
6
CONTINUOUS
10
0.319924
20
-0.63899
11
0.318175
21
-0.63798
0
LINE
8
BLACK
6
CONTINUOUS
10
0.318175
20
-0.63798
11
0.317484
21
-0.636082
0
LINE
8
BLACK
6
CONTINUOUS
10
0.317484
20
-0.636082
11
0.317484
21
-0.60783
0
LINE
8
BLACK
6
CONTINUOUS
10
0.317484
20
-0.60783
11
0.300504
21
-0.637547
0
LINE
8
BLACK
6
CONTINUOUS
10
0.300504
20
-0.637547
11
0.299848
21
-0.638335
0
LINE
8
BLACK
6
CONTINUOUS
10
0.299848
20
-0.638335
11
0.299592
21
-0.63843
0
LINE
8
BLACK
6
CONTINUOUS
10
0.299592
20
-0.63843
11
0.299416
21
-0.638639
0
LINE
8
BLACK
6
CONTINUOUS
10
0.299416
20
-0.638639
11
0.298667
21
-0.638771
0
LINE
8
BLACK
6
CONTINUOUS
10
0.298667
20
-0.638771
11
0.297953
21
-0.639034
0
LINE
8
BLACK
6
CONTINUOUS
10
0.297953
20
-0.639034
11
0.297696
21
-0.638942
0
LINE
8
BLACK
6
CONTINUOUS
10
0.297696
20
-0.638942
11
0.297427
21
-0.63899
0
LINE
8
BLACK
6
CONTINUOUS
10
0.297427
20
-0.63899
11
0.296768
21
-0.638609
0
LINE
8
BLACK
6
CONTINUOUS
10
0.296768
20
-0.638609
11
0.296052
21
-0.638352
0
LINE
8
BLACK
6
CONTINUOUS
10
0.296052
20
-0.638352
11
0.295915
21
-0.638116
0
LINE
8
BLACK
6
CONTINUOUS
10
0.295915
20
-0.638116
11
0.295678
21
-0.63798
0
LINE
8
BLACK
6
CONTINUOUS
10
0.295678
20
-0.63798
11
0.295418
21
-0.637265
0
LINE
8
BLACK
6
CONTINUOUS
10
0.295418
20
-0.637265
11
0.295034
21
-0.636607
0
LINE
8
BLACK
6
CONTINUOUS
10
0.295034
20
-0.636607
11
0.295081
21
-0.636338
0
LINE
8
BLACK
6
CONTINUOUS
10
0.295081
20
-0.636338
11
0.294987
21
-0.636082
0
LINE
8
BLACK
6
CONTINUOUS
10
0.294987
20
-0.636082
11
0.294987
21
-0.596712
0
LINE
8
BLACK
6
CONTINUOUS
10
0.294987
20
-0.596712
11
0.295165
21
-0.595702
0
LINE
8
BLACK
6
CONTINUOUS
10
0.295165
20
-0.595702
11
0.296464
21
-0.594154
0
LINE
8
BLACK
6
CONTINUOUS
10
0.296464
20
-0.594154
11
0.298453
21
-0.593804
0
LINE
8
BLACK
6
CONTINUOUS
10
0.298453
20
-0.593804
11
0.300202
21
-0.594814
0
LINE
8
BLACK
6
CONTINUOUS
10
0.300202
20
-0.594814
11
0.300893
21
-0.596712
0
LINE
8
BLACK
6
CONTINUOUS
10
0.300893
20
-0.596712
11
0.300893
21
-0.624963
0
LINE
8
BLACK
6
CONTINUOUS
10
0.300893
20
-0.624963
11
0.317874
21
-0.595247
0
LINE
8
BLACK
6
CONTINUOUS
10
0.317874
20
-0.595247
11
0.318529
21
-0.594458
0
LINE
8
BLACK
6
CONTINUOUS
10
0.318529
20
-0.594458
11
0.318785
21
-0.594364
0
LINE
8
BLACK
6
CONTINUOUS
10
0.318785
20
-0.594364
11
0.318961
21
-0.594154
0
LINE
8
BLACK
6
CONTINUOUS
10
0.318961
20
-0.594154
11
0.31971
21
-0.594022
0
LINE
8
BLACK
6
CONTINUOUS
10
0.31971
20
-0.594022
11
0.320424
21
-0.593759
0
LINE
8
BLACK
6
CONTINUOUS
10
0.320424
20
-0.593759
11
0.320681
21
-0.593851
0
LINE
8
BLACK
6
CONTINUOUS
10
0.433203
20
-0.594693
11
0.433997
21
-0.59655
0
LINE
8
BLACK
6
CONTINUOUS
10
0.433997
20
-0.59655
11
0.433411
21
-0.598483
0
LINE
8
BLACK
6
CONTINUOUS
10
0.433411
20
-0.598483
11
0.418074
21
-0.618932
0
LINE
8
BLACK
6
CONTINUOUS
10
0.418074
20
-0.618932
11
0.433136
21
-0.633994
0
LINE
8
BLACK
6
CONTINUOUS
10
0.433136
20
-0.633994
11
0.433725
21
-0.634834
0
LINE
8
BLACK
6
CONTINUOUS
10
0.433725
20
-0.634834
11
0.433901
21
-0.636846
0
LINE
8
BLACK
6
CONTINUOUS
10
0.433901
20
-0.636846
11
0.432742
21
-0.6385
0
LINE
8
BLACK
6
CONTINUOUS
10
0.432742
20
-0.6385
11
0.430791
21
-0.639023
0
LINE
8
BLACK
6
CONTINUOUS
10
0.430791
20
-0.639023
11
0.428961
21
-0.63817
0
LINE
8
BLACK
6
CONTINUOUS
10
0.428961
20
-0.63817
11
0.411504
21
-0.620713
0
LINE
8
BLACK
6
CONTINUOUS
10
0.411504
20
-0.620713
11
0.411504
21
-0.636082
0
LINE
8
BLACK
6
CONTINUOUS
10
0.411504
20
-0.636082
11
0.411326
21
-0.637092
0
LINE
8
BLACK
6
CONTINUOUS
10
0.411326
20
-0.637092
11
0.410028
21
-0.638639
0
LINE
8
BLACK
6
CONTINUOUS
10
0.410028
20
-0.638639
11
0.408038
21
-0.63899
0
LINE
8
BLACK
6
CONTINUOUS
10
0.408038
20
-0.63899
11
0.406289
21
-0.63798
0
LINE
8
BLACK
6
CONTINUOUS
10
0.406289
20
-0.63798
11
0.405598
21
-0.636082
0
LINE
8
BLACK
6
CONTINUOUS
10
0.405598
20
-0.636082
11
0.405598
21
-0.596712
0
LINE
8
BLACK
6
CONTINUOUS
10
0.405598
20
-0.596712
11
0.405777
21
-0.595702
0
LINE
8
BLACK
6
CONTINUOUS
10
0.405777
20
-0.595702
11
0.407075
21
-0.594154
0
LINE
8
BLACK
6
CONTINUOUS
10
0.407075
20
-0.594154
11
0.409064
21
-0.593804
0
LINE
8
BLACK
6
CONTINUOUS
10
0.409064
20
-0.593804
11
0.410813
21
-0.594814
0
LINE
8
BLACK
6
CONTINUOUS
10
0.410813
20
-0.594814
11
0.411504
21
-0.596712
0
LINE
8
BLACK
6
CONTINUOUS
10
0.411504
20
-0.596712
11
0.411504
21
-0.612361
0
LINE
8
BLACK
6
CONTINUOUS
10
0.411504
20
-0.612361
11
0.413856
21
-0.614713
0
LINE
8
BLACK
6
CONTINUOUS
10
0.413856
20
-0.614713
11
0.428686
21
-0.59494
0
LINE
8
BLACK
6
CONTINUOUS
10
0.428686
20
-0.59494
11
0.429435
21
-0.594239
0
LINE
8
BLACK
6
CONTINUOUS
10
0.429435
20
-0.594239
11
0.431402
21
-0.59378
0
LINE
8
BLACK
6
CONTINUOUS
10
0.431402
20
-0.59378
11
0.433203
21
-0.594693
0
LINE
8
BLACK
6
CONTINUOUS
10
0.190749
20
-0.594196
11
0.192005
21
-0.595778
0
LINE
8
BLACK
6
CONTINUOUS
10
0.192005
20
-0.595778
11
0.195081
21
-0.605007
0
LINE
8
BLACK
6
CONTINUOUS
10
0.195081
20
-0.605007
11
0.209573
21
-0.605007
0
LINE
8
BLACK
6
CONTINUOUS
10
0.209573
20
-0.605007
11
0.212649
21
-0.595778
0
LINE
8
BLACK
6
CONTINUOUS
10
0.212649
20
-0.595778
11
0.213137
21
-0.594876
0
LINE
8
BLACK
6
CONTINUOUS
10
0.213137
20
-0.594876
11
0.214858
21
-0.593819
0
LINE
8
BLACK
6
CONTINUOUS
10
0.214858
20
-0.593819
11
0.216856
21
-0.594115
0
LINE
8
BLACK
6
CONTINUOUS
10
0.216856
20
-0.594115
11
0.218196
21
-0.595626
0
LINE
8
BLACK
6
CONTINUOUS
10
0.218196
20
-0.595626
11
0.218252
21
-0.597645
0
LINE
8
BLACK
6
CONTINUOUS
10
0.218252
20
-0.597645
11
0.205128
21
-0.637015
0
LINE
8
BLACK
6
CONTINUOUS
10
0.205128
20
-0.637015
11
0.20464
21
-0.637917
0
LINE
8
BLACK
6
CONTINUOUS
10
0.20464
20
-0.637917
11
0.204568
21
-0.637962
0
LINE
8
BLACK
6
CONTINUOUS
10
0.204568
20
-0.637962
11
0.204536
21
-0.638041
0
LINE
8
BLACK
6
CONTINUOUS
10
0.204536
20
-0.638041
11
0.203715
21
-0.638485
0
LINE
8
BLACK
6
CONTINUOUS
10
0.203715
20
-0.638485
11
0.202919
21
-0.638974
0
LINE
8
BLACK
6
CONTINUOUS
10
0.202919
20
-0.638974
11
0.202835
21
-0.638962
0
LINE
8
BLACK
6
CONTINUOUS
10
0.202835
20
-0.638962
11
0.20276
21
-0.639002
0
LINE
8
BLACK
6
CONTINUOUS
10
0.20276
20
-0.639002
11
0.201845
21
-0.638815
0
LINE
8
BLACK
6
CONTINUOUS
10
0.201845
20
-0.638815
11
0.200921
21
-0.638678
0
LINE
8
BLACK
6
CONTINUOUS
10
0.200921
20
-0.638678
11
0.200865
21
-0.638615
0
LINE
8
BLACK
6
CONTINUOUS
10
0.200865
20
-0.638615
11
0.200781
21
-0.638597
0
LINE
8
BLACK
6
CONTINUOUS
10
0.200781
20
-0.638597
11
0.200201
21
-0.637866
0
LINE
8
BLACK
6
CONTINUOUS
10
0.200201
20
-0.637866
11
0.199581
21
-0.637167
0
LINE
8
BLACK
6
CONTINUOUS
10
0.199581
20
-0.637167
11
0.199579
21
-0.637082
0
LINE
8
BLACK
6
CONTINUOUS
10
0.199579
20
-0.637082
11
0.199526
21
-0.637015
0
LINE
8
BLACK
6
CONTINUOUS
10
0.199526
20
-0.637015
11
0.186402
21
-0.597645
0
LINE
8
BLACK
6
CONTINUOUS
10
0.186402
20
-0.597645
11
0.186252
21
-0.596631
0
LINE
8
BLACK
6
CONTINUOUS
10
0.186252
20
-0.596631
11
0.186994
21
-0.594752
0
LINE
8
BLACK
6
CONTINUOUS
10
0.186994
20
-0.594752
11
0.188771
21
-0.593791
0
LINE
8
BLACK
6
CONTINUOUS
10
0.188771
20
-0.593791
11
0.190749
21
-0.594196
0
LINE
8
BLACK
6
CONTINUOUS
10
0.19705
20
-0.610913
11
0.202327
21
-0.626744
0
LINE
8
BLACK
6
CONTINUOUS
10
0.202327
20
-0.626744
11
0.207604
21
-0.610913
0
LINE
8
BLACK
6
CONTINUOUS
10
0.207604
20
-0.610913
11
0.19705
21
-0.610913
0
LINE
8
BLACK
6
CONTINUOUS
10
0.73911
20
-0.546549
11
0.740794
21
-0.5491
0
LINE
8
BLACK
6
CONTINUOUS
10
0.740794
20
-0.5491
11
0.740977
21
-0.552151
0
LINE
8
BLACK
6
CONTINUOUS
10
0.740977
20
-0.552151
11
0.73961
21
-0.554885
0
LINE
8
BLACK
6
CONTINUOUS
10
0.73961
20
-0.554885
11
0.737059
21
-0.55657
0
LINE
8
BLACK
6
CONTINUOUS
10
0.737059
20
-0.55657
11
0.721975
21
-0.561598
0
LINE
8
BLACK
6
CONTINUOUS
10
0.721975
20
-0.561598
11
0.721975
21
-0.584956
0
LINE
8
BLACK
6
CONTINUOUS
10
0.721975
20
-0.584956
11
0.737059
21
-0.589984
0
LINE
8
BLACK
6
CONTINUOUS
10
0.737059
20
-0.589984
11
0.73961
21
-0.591669
0
LINE
8
BLACK
6
CONTINUOUS
10
0.73961
20
-0.591669
11
0.740977
21
-0.594403
0
LINE
8
BLACK
6
CONTINUOUS
10
0.740977
20
-0.594403
11
0.740794
21
-0.597454
0
LINE
8
BLACK
6
CONTINUOUS
10
0.740794
20
-0.597454
11
0.73911
21
-0.600005
0
LINE
8
BLACK
6
CONTINUOUS
10
0.73911
20
-0.600005
11
0.736376
21
-0.601372
0
LINE
8
BLACK
6
CONTINUOUS
10
0.736376
20
-0.601372
11
0.733324
21
-0.601189
0
LINE
8
BLACK
6
CONTINUOUS
10
0.733324
20
-0.601189
11
0.666395
21
-0.578879
0
LINE
8
BLACK
6
CONTINUOUS
10
0.666395
20
-0.578879
11
0.665405
21
-0.578226
0
LINE
8
BLACK
6
CONTINUOUS
10
0.665405
20
-0.578226
11
0.664344
21
-0.577695
0
LINE
8
BLACK
6
CONTINUOUS
10
0.664344
20
-0.577695
11
0.664145
21
-0.577394
0
LINE
8
BLACK
6
CONTINUOUS
10
0.664145
20
-0.577394
11
0.663844
21
-0.577195
0
LINE
8
BLACK
6
CONTINUOUS
10
0.663844
20
-0.577195
11
0.663314
21
-0.576134
0
LINE
8
BLACK
6
CONTINUOUS
10
0.663314
20
-0.576134
11
0.66266
21
-0.575144
0
LINE
8
BLACK
6
CONTINUOUS
10
0.66266
20
-0.575144
11
0.662638
21
-0.574784
0
LINE
8
BLACK
6
CONTINUOUS
10
0.662638
20
-0.574784
11
0.662477
21
-0.574461
0
LINE
8
BLACK
6
CONTINUOUS
10
0.662477
20
-0.574461
11
0.662548
21
-0.573277
0
LINE
8
BLACK
6
CONTINUOUS
10
0.662548
20
-0.573277
11
0.662477
21
-0.572093
0
LINE
8
BLACK
6
CONTINUOUS
10
0.662477
20
-0.572093
11
0.662638
21
-0.57177
0
LINE
8
BLACK
6
CONTINUOUS
10
0.662638
20
-0.57177
11
0.66266
21
-0.571409
0
LINE
8
BLACK
6
CONTINUOUS
10
0.66266
20
-0.571409
11
0.663314
21
-0.57042
0
LINE
8
BLACK
6
CONTINUOUS
10
0.663314
20
-0.57042
11
0.663844
21
-0.569359
0
LINE
8
BLACK
6
CONTINUOUS
10
0.663844
20
-0.569359
11
0.664145
21
-0.56916
0
LINE
8
BLACK
6
CONTINUOUS
10
0.664145
20
-0.56916
11
0.664344
21
-0.568858
0
LINE
8
BLACK
6
CONTINUOUS
10
0.664344
20
-0.568858
11
0.665405
21
-0.568328
0
LINE
8
BLACK
6
CONTINUOUS
10
0.665405
20
-0.568328
11
0.666395
21
-0.567674
0
LINE
8
BLACK
6
CONTINUOUS
10
0.666395
20
-0.567674
11
0.733324
21
-0.545365
0
LINE
8
BLACK
6
CONTINUOUS
10
0.733324
20
-0.545365
11
0.736376
21
-0.545182
0
LINE
8
BLACK
6
CONTINUOUS
10
0.736376
20
-0.545182
11
0.73911
21
-0.546549
0
LINE
8
BLACK
6
CONTINUOUS
10
0.686937
20
-0.573277
11
0.710164
21
-0.581019
0
LINE
8
BLACK
6
CONTINUOUS
10
0.710164
20
-0.581019
11
0.710164
21
-0.565535
0
LINE
8
BLACK
6
CONTINUOUS
10
0.710164
20
-0.565535
11
0.686937
21
-0.573277
0
LINE
8
BLACK
6
CONTINUOUS
10
0.440347
20
-0.566097
11
0.439655
21
-0.567767
0
LINE
8
BLACK
6
CONTINUOUS
10
0.439655
20
-0.567767
11
0.437985
21
-0.568459
0
LINE
8
BLACK
6
CONTINUOUS
10
0.437985
20
-0.568459
11
0.436315
21
-0.567767
0
LINE
8
BLACK
6
CONTINUOUS
10
0.436315
20
-0.567767
11
0.435623
21
-0.566097
0
LINE
8
BLACK
6
CONTINUOUS
10
0.435623
20
-0.566097
11
0.435623
21
-0.506254
0
LINE
8
BLACK
6
CONTINUOUS
10
0.435623
20
-0.506254
11
0.436315
21
-0.504584
0
LINE
8
BLACK
6
CONTINUOUS
10
0.436315
20
-0.504584
11
0.437985
21
-0.503892
0
LINE
8
BLACK
6
CONTINUOUS
10
0.437985
20
-0.503892
11
0.458064
21
-0.503892
0
LINE
8
BLACK
6
CONTINUOUS
10
0.458064
20
-0.503892
11
0.458064
21
-0.403892
0
LINE
8
BLACK
6
CONTINUOUS
10
0.458064
20
-0.403892
11
0.337985
21
-0.403892
0
LINE
8
BLACK
6
CONTINUOUS
10
0.337985
20
-0.403892
11
0.336315
21
-0.4032
0
LINE
8
BLACK
6
CONTINUOUS
10
0.336315
20
-0.4032
11
0.335623
21
-0.40153
0
LINE
8
BLACK
6
CONTINUOUS
10
0.335623
20
-0.40153
11
0.336315
21
-0.399859
0
LINE
8
BLACK
6
CONTINUOUS
10
0.336315
20
-0.399859
11
0.337985
21
-0.399167
0
LINE
8
BLACK
6
CONTINUOUS
10
0.337985
20
-0.399167
11
0.460426
21
-0.399167
0
LINE
8
BLACK
6
CONTINUOUS
10
0.460426
20
-0.399167
11
0.462096
21
-0.399859
0
LINE
8
BLACK
6
CONTINUOUS
10
0.462096
20
-0.399859
11
0.462788
21
-0.40153
0
LINE
8
BLACK
6
CONTINUOUS
10
0.462788
20
-0.40153
11
0.462788
21
-0.506254
0
LINE
8
BLACK
6
CONTINUOUS
10
0.462788
20
-0.506254
11
0.462096
21
-0.507924
0
LINE
8
BLACK
6
CONTINUOUS
10
0.462096
20
-0.507924
11
0.460426
21
-0.508616
0
LINE
8
BLACK
6
CONTINUOUS
10
0.460426
20
-0.508616
11
0.440347
21
-0.508616
0
LINE
8
BLACK
6
CONTINUOUS
10
0.440347
20
-0.508616
11
0.440347
21
-0.566097
0
LINE
8
BLACK
6
CONTINUOUS
10
0.738144
20
-0.488485
11
0.740306
21
-0.490647
0
LINE
8
BLACK
6
CONTINUOUS
10
0.740306
20
-0.490647
11
0.741097
21
-0.493599
0
LINE
8
BLACK
6
CONTINUOUS
10
0.741097
20
-0.493599
11
0.741097
21
-0.531845
0
LINE
8
BLACK
6
CONTINUOUS
10
0.741097
20
-0.531845
11
0.740306
21
-0.534797
0
LINE
8
BLACK
6
CONTINUOUS
10
0.740306
20
-0.534797
11
0.738144
21
-0.536959
0
LINE
8
BLACK
6
CONTINUOUS
10
0.738144
20
-0.536959
11
0.735192
21
-0.53775
0
LINE
8
BLACK
6
CONTINUOUS
10
0.735192
20
-0.53775
11
0.732239
21
-0.536959
0
LINE
8
BLACK
6
CONTINUOUS
10
0.732239
20
-0.536959
11
0.730077
21
-0.534797
0
LINE
8
BLACK
6
CONTINUOUS
10
0.730077
20
-0.534797
11
0.729286
21
-0.531845
0
LINE
8
BLACK
6
CONTINUOUS
10
0.729286
20
-0.531845
11
0.729286
21
-0.518628
0
LINE
8
BLACK
6
CONTINUOUS
10
0.729286
20
-0.518628
11
0.668263
21
-0.518628
0
LINE
8
BLACK
6
CONTINUOUS
10
0.668263
20
-0.518628
11
0.666964
21
-0.51828
0
LINE
8
BLACK
6
CONTINUOUS
10
0.666964
20
-0.51828
11
0.665645
21
-0.518016
0
LINE
8
BLACK
6
CONTINUOUS
10
0.665645
20
-0.518016
11
0.665498
21
-0.517887
0
LINE
8
BLACK
6
CONTINUOUS
10
0.665498
20
-0.517887
11
0.66531
21
-0.517836
0
LINE
8
BLACK
6
CONTINUOUS
10
0.66531
20
-0.517836
11
0.664359
21
-0.516885
0
LINE
8
BLACK
6
CONTINUOUS
10
0.664359
20
-0.516885
11
0.663349
21
-0.515998
0
LINE
8
BLACK
6
CONTINUOUS
10
0.663349
20
-0.515998
11
0.663286
21
-0.515813
0
LINE
8
BLACK
6
CONTINUOUS
10
0.663286
20
-0.515813
11
0.663148
21
-0.515675
0
LINE
8
BLACK
6
CONTINUOUS
10
0.663148
20
-0.515675
11
0.6628
21
-0.514376
0
LINE
8
BLACK
6
CONTINUOUS
10
0.6628
20
-0.514376
11
0.662369
21
-0.513102
0
LINE
8
BLACK
6
CONTINUOUS
10
0.662369
20
-0.513102
11
0.662408
21
-0.512911
0
LINE
8
BLACK
6
CONTINUOUS
10
0.662408
20
-0.512911
11
0.662357
21
-0.512722
0
LINE
8
BLACK
6
CONTINUOUS
10
0.662357
20
-0.512722
11
0.662705
21
-0.511423
0
LINE
8
BLACK
6
CONTINUOUS
10
0.662705
20
-0.511423
11
0.662969
21
-0.510105
0
LINE
8
BLACK
6
CONTINUOUS
10
0.662969
20
-0.510105
11
0.663098
21
-0.509958
0
LINE
8
BLACK
6
CONTINUOUS
10
0.663098
20
-0.509958
11
0.663148
21
-0.509769
0
LINE
8
BLACK
6
CONTINUOUS
10
0.663148
20
-0.509769
11
0.664099
21
-0.508818
0
LINE
8
BLACK
6
CONTINUOUS
10
0.664099
20
-0.508818
11
0.664987
21
-0.507808
0
LINE
8
BLACK
6
CONTINUOUS
10
0.664987
20
-0.507808
11
0.674061
21
-0.501759
0
LINE
8
BLACK
6
CONTINUOUS
10
0.674061
20
-0.501759
11
0.679345
21
-0.496475
0
LINE
8
BLACK
6
CONTINUOUS
10
0.679345
20
-0.496475
11
0.682103
21
-0.490958
0
LINE
8
BLACK
6
CONTINUOUS
10
0.682103
20
-0.490958
11
0.684131
21
-0.488671
0
LINE
8
BLACK
6
CONTINUOUS
10
0.684131
20
-0.488671
11
0.687031
21
-0.487704
0
LINE
8
BLACK
6
CONTINUOUS
10
0.687031
20
-0.487704
11
0.690026
21
-0.488317
0
LINE
8
BLACK
6
CONTINUOUS
10
0.690026
20
-0.488317
11
0.692313
21
-0.490346
0
LINE
8
BLACK
6
CONTINUOUS
10
0.692313
20
-0.490346
11
0.69328
21
-0.493246
0
LINE
8
BLACK
6
CONTINUOUS
10
0.69328
20
-0.493246
11
0.692667
21
-0.49624
0
LINE
8
BLACK
6
CONTINUOUS
10
0.692667
20
-0.49624
11
0.68948
21
-0.502615
0
LINE
8
BLACK
6
CONTINUOUS
10
0.68948
20
-0.502615
11
0.688849
21
-0.503326
0
LINE
8
BLACK
6
CONTINUOUS
10
0.688849
20
-0.503326
11
0.688374
21
-0.504149
0
LINE
8
BLACK
6
CONTINUOUS
10
0.688374
20
-0.504149
11
0.685707
21
-0.506816
0
LINE
8
BLACK
6
CONTINUOUS
10
0.685707
20
-0.506816
11
0.729286
21
-0.506816
0
LINE
8
BLACK
6
CONTINUOUS
10
0.729286
20
-0.506816
11
0.729286
21
-0.493599
0
LINE
8
BLACK
6
CONTINUOUS
10
0.729286
20
-0.493599
11
0.730077
21
-0.490647
0
LINE
8
BLACK
6
CONTINUOUS
10
0.730077
20
-0.490647
11
0.732239
21
-0.488485
0
LINE
8
BLACK
6
CONTINUOUS
10
0.732239
20
-0.488485
11
0.735192
21
-0.487694
0
LINE
8
BLACK
6
CONTINUOUS
10
0.735192
20
-0.487694
11
0.738144
21
-0.488485
0
LINE
8
BLACK
6
CONTINUOUS
10
0.379813
20
-0.504584
11
0.380505
21
-0.506254
0
LINE
8
BLACK
6
CONTINUOUS
10
0.380505
20
-0.506254
11
0.379813
21
-0.507924
0
LINE
8
BLACK
6
CONTINUOUS
10
0.379813
20
-0.507924
11
0.378143
21
-0.508616
0
LINE
8
BLACK
6
CONTINUOUS
10
0.378143
20
-0.508616
11
0.237985
21
-0.508616
0
LINE
8
BLACK
6
CONTINUOUS
10
0.237985
20
-0.508616
11
0.236315
21
-0.507924
0
LINE
8
BLACK
6
CONTINUOUS
10
0.236315
20
-0.507924
11
0.235623
21
-0.506254
0
LINE
8
BLACK
6
CONTINUOUS
10
0.235623
20
-0.506254
11
0.236315
21
-0.504584
0
LINE
8
BLACK
6
CONTINUOUS
10
0.236315
20
-0.504584
11
0.237985
21
-0.503892
0
LINE
8
BLACK
6
CONTINUOUS
10
0.237985
20
-0.503892
11
0.378143
21
-0.503892
0
LINE
8
BLACK
6
CONTINUOUS
10
0.378143
20
-0.503892
11
0.379813
21
-0.504584
0
LINE
8
BLACK
6
CONTINUOUS
10
0.158064
20
-0.506254
11
0.157372
21
-0.507924
0
LINE
8
BLACK
6
CONTINUOUS
10
0.157372
20
-0.507924
11
0.155702
21
-0.508616
0
LINE
8
BLACK
6
CONTINUOUS
10
0.155702
20
-0.508616
11
0.154031
21
-0.507924
0
LINE
8
BLACK
6
CONTINUOUS
10
0.154031
20
-0.507924
11
0.153339
21
-0.506254
0
LINE
8
BLACK
6
CONTINUOUS
10
0.153339
20
-0.506254
11
0.153339
21
-0.40153
0
LINE
8
BLACK
6
CONTINUOUS
10
0.153339
20
-0.40153
11
0.154031
21
-0.399859
0
LINE
8
BLACK
6
CONTINUOUS
10
0.154031
20
-0.399859
11
0.155702
21
-0.399167
0
LINE
8
BLACK
6
CONTINUOUS
10
0.155702
20
-0.399167
11
0.278143
21
-0.399167
0
LINE
8
BLACK
6
CONTINUOUS
10
0.278143
20
-0.399167
11
0.279813
21
-0.399859
0
LINE
8
BLACK
6
CONTINUOUS
10
0.279813
20
-0.399859
11
0.280505
21
-0.40153
0
LINE
8
BLACK
6
CONTINUOUS
10
0.280505
20
-0.40153
11
0.279813
21
-0.4032
0
LINE
8
BLACK
6
CONTINUOUS
10
0.279813
20
-0.4032
11
0.278143
21
-0.403892
0
LINE
8
BLACK
6
CONTINUOUS
10
0.278143
20
-0.403892
11
0.158064
21
-0.403892
0
LINE
8
BLACK
6
CONTINUOUS
10
0.158064
20
-0.403892
11
0.158064
21
-0.506254
0
LINE
8
BLACK
6
CONTINUOUS
10
0.491244
20
-0.45527
11
0.492357
21
-0.456955
0
LINE
8
BLACK
6
CONTINUOUS
10
0.492357
20
-0.456955
11
0.492126
21
-0.458962
0
LINE
8
BLACK
6
CONTINUOUS
10
0.492126
20
-0.458962
11
0.490251
21
-0.462711
0
LINE
8
BLACK
6
CONTINUOUS
10
0.490251
20
-0.462711
11
0.489725
21
-0.463421
0
LINE
8
BLACK
6
CONTINUOUS
10
0.489725
20
-0.463421
11
0.489698
21
-0.463479
0
LINE
8
BLACK
6
CONTINUOUS
10
0.489698
20
-0.463479
11
0.48724
21
-0.465937
0
LINE
8
BLACK
6
CONTINUOUS
10
0.48724
20
-0.465937
11
0.514654
21
-0.465937
0
LINE
8
BLACK
6
CONTINUOUS
10
0.514654
20
-0.465937
11
0.514654
21
-0.457641
0
LINE
8
BLACK
6
CONTINUOUS
10
0.514654
20
-0.457641
11
0.514832
21
-0.456631
0
LINE
8
BLACK
6
CONTINUOUS
10
0.514832
20
-0.456631
11
0.51613
21
-0.455084
0
LINE
8
BLACK
6
CONTINUOUS
10
0.51613
20
-0.455084
11
0.518119
21
-0.454734
0
LINE
8
BLACK
6
CONTINUOUS
10
0.518119
20
-0.454734
11
0.519868
21
-0.455743
0
LINE
8
BLACK
6
CONTINUOUS
10
0.519868
20
-0.455743
11
0.520559
21
-0.457641
0
LINE
8
BLACK
6
CONTINUOUS
10
0.520559
20
-0.457641
11
0.520559
21
-0.480139
0
LINE
8
BLACK
6
CONTINUOUS
10
0.520559
20
-0.480139
11
0.520381
21
-0.481149
0
LINE
8
BLACK
6
CONTINUOUS
10
0.520381
20
-0.481149
11
0.519083
21
-0.482696
0
LINE
8
BLACK
6
CONTINUOUS
10
0.519083
20
-0.482696
11
0.517094
21
-0.483046
0
LINE
8
BLACK
6
CONTINUOUS
10
0.517094
20
-0.483046
11
0.515344
21
-0.482037
0
LINE
8
BLACK
6
CONTINUOUS
10
0.515344
20
-0.482037
11
0.514654
21
-0.480139
0
LINE
8
BLACK
6
CONTINUOUS
10
0.514654
20
-0.480139
11
0.514654
21
-0.471843
0
LINE
8
BLACK
6
CONTINUOUS
10
0.514654
20
-0.471843
11
0.478236
21
-0.471843
0
LINE
8
BLACK
6
CONTINUOUS
10
0.478236
20
-0.471843
11
0.477226
21
-0.471665
0
LINE
8
BLACK
6
CONTINUOUS
10
0.477226
20
-0.471665
11
0.477096
21
-0.471556
0
LINE
8
BLACK
6
CONTINUOUS
10
0.477096
20
-0.471556
11
0.476928
21
-0.471537
0
LINE
8
BLACK
6
CONTINUOUS
10
0.476928
20
-0.471537
11
0.476336
21
-0.470917
0
LINE
8
BLACK
6
CONTINUOUS
10
0.476336
20
-0.470917
11
0.475679
21
-0.470366
0
LINE
8
BLACK
6
CONTINUOUS
10
0.475679
20
-0.470366
11
0.47565
21
-0.470199
0
LINE
8
BLACK
6
CONTINUOUS
10
0.47565
20
-0.470199
11
0.475532
21
-0.470076
0
LINE
8
BLACK
6
CONTINUOUS
10
0.475532
20
-0.470076
11
0.475477
21
-0.469221
0
LINE
8
BLACK
6
CONTINUOUS
10
0.475477
20
-0.469221
11
0.475328
21
-0.468377
0
LINE
8
BLACK
6
CONTINUOUS
10
0.475328
20
-0.468377
11
0.475413
21
-0.46823
0
LINE
8
BLACK
6
CONTINUOUS
10
0.475413
20
-0.46823
11
0.475402
21
-0.468061
0
LINE
8
BLACK
6
CONTINUOUS
10
0.475402
20
-0.468061
11
0.47591
21
-0.46737
0
LINE
8
BLACK
6
CONTINUOUS
10
0.47591
20
-0.46737
11
0.476338
21
-0.466628
0
LINE
8
BLACK
6
CONTINUOUS
10
0.476338
20
-0.466628
11
0.476498
21
-0.46657
0
LINE
8
BLACK
6
CONTINUOUS
10
0.476498
20
-0.46657
11
0.476598
21
-0.466433
0
LINE
8
BLACK
6
CONTINUOUS
10
0.476598
20
-0.466433
11
0.481979
21
-0.462846
0
LINE
8
BLACK
6
CONTINUOUS
10
0.481979
20
-0.462846
11
0.485183
21
-0.459642
0
LINE
8
BLACK
6
CONTINUOUS
10
0.485183
20
-0.459642
11
0.486844
21
-0.456321
0
LINE
8
BLACK
6
CONTINUOUS
10
0.486844
20
-0.456321
11
0.487455
21
-0.455497
0
LINE
8
BLACK
6
CONTINUOUS
10
0.487455
20
-0.455497
11
0.489308
21
-0.454694
0
LINE
8
BLACK
6
CONTINUOUS
10
0.489308
20
-0.454694
11
0.491244
21
-0.45527
0
LINE
8
BLACK
6
CONTINUOUS
10
0.710399
20
-0.42414
11
0.711127
21
-0.424128
0
LINE
8
BLACK
6
CONTINUOUS
10
0.711127
20
-0.424128
11
0.723876
21
-0.427315
0
LINE
8
BLACK
6
CONTINUOUS
10
0.723876
20
-0.427315
11
0.724446
21
-0.427632
0
LINE
8
BLACK
6
CONTINUOUS
10
0.724446
20
-0.427632
11
0.725084
21
-0.427762
0
LINE
8
BLACK
6
CONTINUOUS
10
0.725084
20
-0.427762
11
0.731458
21
-0.43095
0
LINE
8
BLACK
6
CONTINUOUS
10
0.731458
20
-0.43095
11
0.73217
21
-0.43158
0
LINE
8
BLACK
6
CONTINUOUS
10
0.73217
20
-0.43158
11
0.732993
21
-0.432056
0
LINE
8
BLACK
6
CONTINUOUS
10
0.732993
20
-0.432056
11
0.73618
21
-0.435243
0
LINE
8
BLACK
6
CONTINUOUS
10
0.73618
20
-0.435243
11
0.736656
21
-0.436066
0
LINE
8
BLACK
6
CONTINUOUS
10
0.736656
20
-0.436066
11
0.737287
21
-0.436778
0
LINE
8
BLACK
6
CONTINUOUS
10
0.737287
20
-0.436778
11
0.740474
21
-0.443152
0
LINE
8
BLACK
6
CONTINUOUS
10
0.740474
20
-0.443152
11
0.740746
21
-0.444482
0
LINE
8
BLACK
6
CONTINUOUS
10
0.740746
20
-0.444482
11
0.741097
21
-0.445793
0
LINE
8
BLACK
6
CONTINUOUS
10
0.741097
20
-0.445793
11
0.741097
21
-0.452167
0
LINE
8
BLACK
6
CONTINUOUS
10
0.741097
20
-0.452167
11
0.740746
21
-0.453478
0
LINE
8
BLACK
6
CONTINUOUS
10
0.740746
20
-0.453478
11
0.740474
21
-0.454808
0
LINE
8
BLACK
6
CONTINUOUS
10
0.740474
20
-0.454808
11
0.737287
21
-0.461182
0
LINE
8
BLACK
6
CONTINUOUS
10
0.737287
20
-0.461182
11
0.736656
21
-0.461894
0
LINE
8
BLACK
6
CONTINUOUS
10
0.736656
20
-0.461894
11
0.73618
21
-0.462717
0
LINE
8
BLACK
6
CONTINUOUS
10
0.73618
20
-0.462717
11
0.732993
21
-0.465904
0
LINE
8
BLACK
6
CONTINUOUS
10
0.732993
20
-0.465904
11
0.73217
21
-0.46638
0
LINE
8
BLACK
6
CONTINUOUS
10
0.73217
20
-0.46638
11
0.731459
21
-0.46701
0
LINE
8
BLACK
6
CONTINUOUS
10
0.731459
20
-0.46701
11
0.725084
21
-0.470198
0
LINE
8
BLACK
6
CONTINUOUS
10
0.725084
20
-0.470198
11
0.724446
21
-0.470328
0
LINE
8
BLACK
6
CONTINUOUS
10
0.724446
20
-0.470328
11
0.723876
21
-0.470645
0
LINE
8
BLACK
6
CONTINUOUS
10
0.723876
20
-0.470645
11
0.711127
21
-0.473832
0
LINE
8
BLACK
6
CONTINUOUS
10
0.711127
20
-0.473832
11
0.710399
21
-0.47382
0
LINE
8
BLACK
6
CONTINUOUS
10
0.710399
20
-0.47382
11
0.709695
21
-0.474008
0
LINE
8
BLACK
6
CONTINUOUS
10
0.709695
20
-0.474008
11
0.693759
21
-0.474008
0
LINE
8
BLACK
6
CONTINUOUS
10
0.693759
20
-0.474008
11
0.693056
21
-0.47382
0
LINE
8
BLACK
6
CONTINUOUS
10
0.693056
20
-0.47382
11
0.692327
21
-0.473832
0
LINE
8
BLACK
6
CONTINUOUS
10
0.692327
20
-0.473832
11
0.679579
21
-0.470645
0
LINE
8
BLACK
6
CONTINUOUS
10
0.679579
20
-0.470645
11
0.679009
21
-0.470328
0
LINE
8
BLACK
6
CONTINUOUS
10
0.679009
20
-0.470328
11
0.67837
21
-0.470198
0
LINE
8
BLACK
6
CONTINUOUS
10
0.67837
20
-0.470198
11
0.671996
21
-0.46701
0
LINE
8
BLACK
6
CONTINUOUS
10
0.671996
20
-0.46701
11
0.671284
21
-0.46638
0
LINE
8
BLACK
6
CONTINUOUS
10
0.671284
20
-0.46638
11
0.670461
21
-0.465904
0
LINE
8
BLACK
6
CONTINUOUS
10
0.670461
20
-0.465904
11
0.667274
21
-0.462717
0
LINE
8
BLACK
6
CONTINUOUS
10
0.667274
20
-0.462717
11
0.666798
21
-0.461894
0
LINE
8
BLACK
6
CONTINUOUS
10
0.666798
20
-0.461894
11
0.666168
21
-0.461182
0
LINE
8
BLACK
6
CONTINUOUS
10
0.666168
20
-0.461182
11
0.66298
21
-0.454808
0
LINE
8
BLACK
6
CONTINUOUS
10
0.66298
20
-0.454808
11
0.662708
21
-0.453478
0
LINE
8
BLACK
6
CONTINUOUS
10
0.662708
20
-0.453478
11
0.662357
21
-0.452167
0
LINE
8
BLACK
6
CONTINUOUS
10
0.662357
20
-0.452167
11
0.662357
21
-0.445793
0
LINE
8
BLACK
6
CONTINUOUS
10
0.662357
20
-0.445793
11
0.662708
21
-0.444482
0
LINE
8
BLACK
6
CONTINUOUS
10
0.662708
20
-0.444482
11
0.66298
21
-0.443152
0
LINE
8
BLACK
6
CONTINUOUS
10
0.66298
20
-0.443152
11
0.666168
21
-0.436778
0
LINE
8
BLACK
6
CONTINUOUS
10
0.666168
20
-0.436778
11
0.666798
21
-0.436066
0
LINE
8
BLACK
6
CONTINUOUS
10
0.666798
20
-0.436066
11
0.667274
21
-0.435243
0
LINE
8
BLACK
6
CONTINUOUS
10
0.667274
20
-0.435243
11
0.670461
21
-0.432056
0
LINE
8
BLACK
6
CONTINUOUS
10
0.670461
20
-0.432056
11
0.671284
21
-0.43158
0
LINE
8
BLACK
6
CONTINUOUS
10
0.671284
20
-0.43158
11
0.671996
21
-0.43095
0
LINE
8
BLACK
6
CONTINUOUS
10
0.671996
20
-0.43095
11
0.67837
21
-0.427762
0
LINE
8
BLACK
6
CONTINUOUS
10
0.67837
20
-0.427762
11
0.679009
21
-0.427632
0
LINE
8
BLACK
6
CONTINUOUS
10
0.679009
20
-0.427632
11
0.679579
21
-0.427315
0
LINE
8
BLACK
6
CONTINUOUS
10
0.679579
20
-0.427315
11
0.692327
21
-0.424128
0
LINE
8
BLACK
6
CONTINUOUS
10
0.692327
20
-0.424128
11
0.693056
21
-0.42414
0
LINE
8
BLACK
6
CONTINUOUS
10
0.693056
20
-0.42414
11
0.693759
21
-0.423952
0
LINE
8
BLACK
6
CONTINUOUS
10
0.693759
20
-0.423952
11
0.709695
21
-0.423952
0
LINE
8
BLACK
6
CONTINUOUS
10
0.709695
20
-0.423952
11
0.710399
21
-0.42414
0
LINE
8
BLACK
6
CONTINUOUS
10
0.694486
20
-0.435763
11
0.683072
21
-0.438616
0
LINE
8
BLACK
6
CONTINUOUS
10
0.683072
20
-0.438616
11
0.678135
21
-0.441085
0
LINE
8
BLACK
6
CONTINUOUS
10
0.678135
20
-0.441085
11
0.676303
21
-0.442917
0
LINE
8
BLACK
6
CONTINUOUS
10
0.676303
20
-0.442917
11
0.674168
21
-0.447187
0
LINE
8
BLACK
6
CONTINUOUS
10
0.674168
20
-0.447187
11
0.674168
21
-0.450773
0
LINE
8
BLACK
6
CONTINUOUS
10
0.674168
20
-0.450773
11
0.676303
21
-0.455043
0
LINE
8
BLACK
6
CONTINUOUS
10
0.676303
20
-0.455043
11
0.678135
21
-0.456875
0
LINE
8
BLACK
6
CONTINUOUS
10
0.678135
20
-0.456875
11
0.683072
21
-0.459344
0
LINE
8
BLACK
6
CONTINUOUS
10
0.683072
20
-0.459344
11
0.694486
21
-0.462197
0
LINE
8
BLACK
6
CONTINUOUS
10
0.694486
20
-0.462197
11
0.708968
21
-0.462197
0
LINE
8
BLACK
6
CONTINUOUS
10
0.708968
20
-0.462197
11
0.720382
21
-0.459344
0
LINE
8
BLACK
6
CONTINUOUS
10
0.720382
20
-0.459344
11
0.725319
21
-0.456875
0
LINE
8
BLACK
6
CONTINUOUS
10
0.725319
20
-0.456875
11
0.727151
21
-0.455043
0
LINE
8
BLACK
6
CONTINUOUS
10
0.727151
20
-0.455043
11
0.729286
21
-0.450773
0
LINE
8
BLACK
6
CONTINUOUS
10
0.729286
20
-0.450773
11
0.729286
21
-0.447187
0
LINE
8
BLACK
6
CONTINUOUS
10
0.729286
20
-0.447187
11
0.727151
21
-0.442917
0
LINE
8
BLACK
6
CONTINUOUS
10
0.727151
20
-0.442917
11
0.725319
21
-0.441085
0
LINE
8
BLACK
6
CONTINUOUS
10
0.725319
20
-0.441085
11
0.720382
21
-0.438616
0
LINE
8
BLACK
6
CONTINUOUS
10
0.720382
20
-0.438616
11
0.708968
21
-0.435763
0
LINE
8
BLACK
6
CONTINUOUS
10
0.708968
20
-0.435763
11
0.694486
21
-0.435763
0
LINE
8
BLACK
6
CONTINUOUS
10
0.519868
20
-0.423872
11
0.520559
21
-0.42577
0
LINE
8
BLACK
6
CONTINUOUS
10
0.520559
20
-0.42577
11
0.520559
21
-0.42952
0
LINE
8
BLACK
6
CONTINUOUS
10
0.520559
20
-0.42952
11
0.520406
21
-0.430389
0
LINE
8
BLACK
6
CONTINUOUS
10
0.520406
20
-0.430389
11
0.520408
21
-0.430454
0
LINE
8
BLACK
6
CONTINUOUS
10
0.520408
20
-0.430454
11
0.518533
21
-0.436078
0
LINE
8
BLACK
6
CONTINUOUS
10
0.518533
20
-0.436078
11
0.518044
21
-0.43698
0
LINE
8
BLACK
6
CONTINUOUS
10
0.518044
20
-0.43698
11
0.517894
21
-0.437072
0
LINE
8
BLACK
6
CONTINUOUS
10
0.517894
20
-0.437072
11
0.517819
21
-0.437232
0
LINE
8
BLACK
6
CONTINUOUS
10
0.517819
20
-0.437232
11
0.51407
21
-0.440982
0
LINE
8
BLACK
6
CONTINUOUS
10
0.51407
20
-0.440982
11
0.51323
21
-0.44157
0
LINE
8
BLACK
6
CONTINUOUS
10
0.51323
20
-0.44157
11
0.513054
21
-0.441585
0
LINE
8
BLACK
6
CONTINUOUS
10
0.513054
20
-0.441585
11
0.512916
21
-0.441695
0
LINE
8
BLACK
6
CONTINUOUS
10
0.512916
20
-0.441695
11
0.507291
21
-0.44357
0
LINE
8
BLACK
6
CONTINUOUS
10
0.507291
20
-0.44357
11
0.506418
21
-0.443699
0
LINE
8
BLACK
6
CONTINUOUS
10
0.506418
20
-0.443699
11
0.506358
21
-0.443721
0
LINE
8
BLACK
6
CONTINUOUS
10
0.506358
20
-0.443721
11
0.478236
21
-0.443721
0
LINE
8
BLACK
6
CONTINUOUS
10
0.478236
20
-0.443721
11
0.477226
21
-0.443543
0
LINE
8
BLACK
6
CONTINUOUS
10
0.477226
20
-0.443543
11
0.475679
21
-0.442245
0
LINE
8
BLACK
6
CONTINUOUS
10
0.475679
20
-0.442245
11
0.475328
21
-0.440256
0
LINE
8
BLACK
6
CONTINUOUS
10
0.475328
20
-0.440256
11
0.476338
21
-0.438507
0
LINE
8
BLACK
6
CONTINUOUS
10
0.476338
20
-0.438507
11
0.478236
21
-0.437816
0
LINE
8
BLACK
6
CONTINUOUS
10
0.478236
20
-0.437816
11
0.505879
21
-0.437816
0
LINE
8
BLACK
6
CONTINUOUS
10
0.505879
20
-0.437816
11
0.510387
21
-0.436313
0
LINE
8
BLACK
6
CONTINUOUS
10
0.510387
20
-0.436313
11
0.513151
21
-0.433549
0
LINE
8
BLACK
6
CONTINUOUS
10
0.513151
20
-0.433549
11
0.514654
21
-0.429041
0
LINE
8
BLACK
6
CONTINUOUS
10
0.514654
20
-0.429041
11
0.514654
21
-0.42577
0
LINE
8
BLACK
6
CONTINUOUS
10
0.514654
20
-0.42577
11
0.514832
21
-0.42476
0
LINE
8
BLACK
6
CONTINUOUS
10
0.514832
20
-0.42476
11
0.51613
21
-0.423213
0
LINE
8
BLACK
6
CONTINUOUS
10
0.51613
20
-0.423213
11
0.518119
21
-0.422862
0
LINE
8
BLACK
6
CONTINUOUS
10
0.518119
20
-0.422862
11
0.519868
21
-0.423872
0
LINE
8
BLACK
6
CONTINUOUS
10
0.738144
20
-0.361001
11
0.740306
21
-0.363163
0
LINE
8
BLACK
6
CONTINUOUS
10
0.740306
20
-0.363163
11
0.741097
21
-0.366115
0
LINE
8
BLACK
6
CONTINUOUS
10
0.741097
20
-0.366115
11
0.740306
21
-0.369068
0
LINE
8
BLACK
6
CONTINUOUS
10
0.740306
20
-0.369068
11
0.738144
21
-0.37123
0
LINE
8
BLACK
6
CONTINUOUS
10
0.738144
20
-0.37123
11
0.735192
21
-0.372021
0
LINE
8
BLACK
6
CONTINUOUS
10
0.735192
20
-0.372021
11
0.709226
21
-0.372021
0
LINE
8
BLACK
6
CONTINUOUS
10
0.709226
20
-0.372021
11
0.709226
21
-0.378976
0
LINE
8
BLACK
6
CONTINUOUS
10
0.709226
20
-0.378976
11
0.738578
21
-0.399523
0
LINE
8
BLACK
6
CONTINUOUS
10
0.738578
20
-0.399523
11
0.740544
21
-0.401864
0
LINE
8
BLACK
6
CONTINUOUS
10
0.740544
20
-0.401864
11
0.741075
21
-0.404874
0
LINE
8
BLACK
6
CONTINUOUS
10
0.741075
20
-0.404874
11
0.74003
21
-0.407747
0
LINE
8
BLACK
6
CONTINUOUS
10
0.74003
20
-0.407747
11
0.737688
21
-0.409712
0
LINE
8
BLACK
6
CONTINUOUS
10
0.737688
20
-0.409712
11
0.734678
21
-0.410244
0
LINE
8
BLACK
6
CONTINUOUS
10
0.734678
20
-0.410244
11
0.731805
21
-0.409199
0
LINE
8
BLACK
6
CONTINUOUS
10
0.731805
20
-0.409199
11
0.708835
21
-0.393119
0
LINE
8
BLACK
6
CONTINUOUS
10
0.708835
20
-0.393119
11
0.708603
21
-0.394253
0
LINE
8
BLACK
6
CONTINUOUS
10
0.708603
20
-0.394253
11
0.705416
21
-0.400627
0
LINE
8
BLACK
6
CONTINUOUS
10
0.705416
20
-0.400627
11
0.704785
21
-0.401339
0
LINE
8
BLACK
6
CONTINUOUS
10
0.704785
20
-0.401339
11
0.704309
21
-0.402162
0
LINE
8
BLACK
6
CONTINUOUS
10
0.704309
20
-0.402162
11
0.701122
21
-0.405349
0
LINE
8
BLACK
6
CONTINUOUS
10
0.701122
20
-0.405349
11
0.700299
21
-0.405825
0
LINE
8
BLACK
6
CONTINUOUS
10
0.700299
20
-0.405825
11
0.699587
21
-0.406456
0
LINE
8
BLACK
6
CONTINUOUS
10
0.699587
20
-0.406456
11
0.693213
21
-0.409643
0
LINE
8
BLACK
6
CONTINUOUS
10
0.693213
20
-0.409643
11
0.691883
21
-0.409915
0
LINE
8
BLACK
6
CONTINUOUS
10
0.691883
20
-0.409915
11
0.690572
21
-0.410266
0
LINE
8
BLACK
6
CONTINUOUS
10
0.690572
20
-0.410266
11
0.681011
21
-0.410266
0
LINE
8
BLACK
6
CONTINUOUS
10
0.681011
20
-0.410266
11
0.6797
21
-0.409915
0
LINE
8
BLACK
6
CONTINUOUS
10
0.6797
20
-0.409915
11
0.67837
21
-0.409643
0
LINE
8
BLACK
6
CONTINUOUS
10
0.67837
20
-0.409643
11
0.671996
21
-0.406456
0
LINE
8
BLACK
6
CONTINUOUS
10
0.671996
20
-0.406456
11
0.671284
21
-0.405825
0
LINE
8
BLACK
6
CONTINUOUS
10
0.671284
20
-0.405825
11
0.670461
21
-0.405349
0
LINE
8
BLACK
6
CONTINUOUS
10
0.670461
20
-0.405349
11
0.667274
21
-0.402162
0
LINE
8
BLACK
6
CONTINUOUS
10
0.667274
20
-0.402162
11
0.666798
21
-0.401339
0
LINE
8
BLACK
6
CONTINUOUS
10
0.666798
20
-0.401339
11
0.666168
21
-0.400627
0
LINE
8
BLACK
6
CONTINUOUS
10
0.666168
20
-0.400627
11
0.66298
21
-0.394253
0
LINE
8
BLACK
6
CONTINUOUS
10
0.66298
20
-0.394253
11
0.662708
21
-0.392923
0
LINE
8
BLACK
6
CONTINUOUS
10
0.662708
20
-0.392923
11
0.662357
21
-0.391612
0
LINE
8
BLACK
6
CONTINUOUS
10
0.662357
20
-0.391612
11
0.662357
21
-0.366115
0
LINE
8
BLACK
6
CONTINUOUS
10
0.662357
20
-0.366115
11
0.663148
21
-0.363163
0
LINE
8
BLACK
6
CONTINUOUS
10
0.663148
20
-0.363163
11
0.66531
21
-0.361001
0
LINE
8
BLACK
6
CONTINUOUS
10
0.66531
20
-0.361001
11
0.668263
21
-0.36021
0
LINE
8
BLACK
6
CONTINUOUS
10
0.668263
20
-0.36021
11
0.735192
21
-0.36021
0
LINE
8
BLACK
6
CONTINUOUS
10
0.735192
20
-0.36021
11
0.738144
21
-0.361001
0
LINE
8
BLACK
6
CONTINUOUS
10
0.674168
20
-0.372021
11
0.674168
21
-0.390218
0
LINE
8
BLACK
6
CONTINUOUS
10
0.674168
20
-0.390218
11
0.676303
21
-0.394488
0
LINE
8
BLACK
6
CONTINUOUS
10
0.676303
20
-0.394488
11
0.678135
21
-0.39632
0
LINE
8
BLACK
6
CONTINUOUS
10
0.678135
20
-0.39632
11
0.682405
21
-0.398455
0
LINE
8
BLACK
6
CONTINUOUS
10
0.682405
20
-0.398455
11
0.689178
21
-0.398455
0
LINE
8
BLACK
6
CONTINUOUS
10
0.689178
20
-0.398455
11
0.693448
21
-0.39632
0
LINE
8
BLACK
6
CONTINUOUS
10
0.693448
20
-0.39632
11
0.69528
21
-0.394488
0
LINE
8
BLACK
6
CONTINUOUS
10
0.69528
20
-0.394488
11
0.697415
21
-0.390218
0
LINE
8
BLACK
6
CONTINUOUS
10
0.697415
20
-0.390218
11
0.697415
21
-0.372021
0
LINE
8
BLACK
6
CONTINUOUS
10
0.697415
20
-0.372021
11
0.674168
21
-0.372021
0
LINE
8
BLACK
6
CONTINUOUS
10
0.738144
20
-0.300446
11
0.740306
21
-0.302608
0
LINE
8
BLACK
6
CONTINUOUS
10
0.740306
20
-0.302608
11
0.741097
21
-0.30556
0
LINE
8
BLACK
6
CONTINUOUS
10
0.741097
20
-0.30556
11
0.741097
21
-0.337431
0
LINE
8
BLACK
6
CONTINUOUS
10
0.741097
20
-0.337431
11
0.740306
21
-0.340384
0
LINE
8
BLACK
6
CONTINUOUS
10
0.740306
20
-0.340384
11
0.738144
21
-0.342546
0
LINE
8
BLACK
6
CONTINUOUS
10
0.738144
20
-0.342546
11
0.735192
21
-0.343337
0
LINE
8
BLACK
6
CONTINUOUS
10
0.735192
20
-0.343337
11
0.732239
21
-0.342546
0
LINE
8
BLACK
6
CONTINUOUS
10
0.732239
20
-0.342546
11
0.730077
21
-0.340384
0
LINE
8
BLACK
6
CONTINUOUS
10
0.730077
20
-0.340384
11
0.729286
21
-0.337431
0
LINE
8
BLACK
6
CONTINUOUS
10
0.729286
20
-0.337431
11
0.729286
21
-0.311466
0
LINE
8
BLACK
6
CONTINUOUS
10
0.729286
20
-0.311466
11
0.706039
21
-0.311466
0
LINE
8
BLACK
6
CONTINUOUS
10
0.706039
20
-0.311466
11
0.706039
21
-0.32787
0
LINE
8
BLACK
6
CONTINUOUS
10
0.706039
20
-0.32787
11
0.705248
21
-0.330823
0
LINE
8
BLACK
6
CONTINUOUS
10
0.705248
20
-0.330823
11
0.703086
21
-0.332984
0
LINE
8
BLACK
6
CONTINUOUS
10
0.703086
20
-0.332984
11
0.700134
21
-0.333776
0
LINE
8
BLACK
6
CONTINUOUS
10
0.700134
20
-0.333776
11
0.697181
21
-0.332984
0
LINE
8
BLACK
6
CONTINUOUS
10
0.697181
20
-0.332984
11
0.695019
21
-0.330823
0
LINE
8
BLACK
6
CONTINUOUS
10
0.695019
20
-0.330823
11
0.694228
21
-0.32787
0
LINE
8
BLACK
6
CONTINUOUS
10
0.694228
20
-0.32787
11
0.694228
21
-0.311466
0
LINE
8
BLACK
6
CONTINUOUS
10
0.694228
20
-0.311466
11
0.674168
21
-0.311466
0
LINE
8
BLACK
6
CONTINUOUS
10
0.674168
20
-0.311466
11
0.674168
21
-0.337431
0
LINE
8
BLACK
6
CONTINUOUS
10
0.674168
20
-0.337431
11
0.673377
21
-0.340384
0
LINE
8
BLACK
6
CONTINUOUS
10
0.673377
20
-0.340384
11
0.671215
21
-0.342546
0
LINE
8
BLACK
6
CONTINUOUS
10
0.671215
20
-0.342546
11
0.668263
21
-0.343337
0
LINE
8
BLACK
6
CONTINUOUS
10
0.668263
20
-0.343337
11
0.66531
21
-0.342546
0
LINE
8
BLACK
6
CONTINUOUS
10
0.66531
20
-0.342546
11
0.663148
21
-0.340384
0
LINE
8
BLACK
6
CONTINUOUS
10
0.663148
20
-0.340384
11
0.662357
21
-0.337431
0
LINE
8
BLACK
6
CONTINUOUS
10
0.662357
20
-0.337431
11
0.662357
21
-0.30556
0
LINE
8
BLACK
6
CONTINUOUS
10
0.662357
20
-0.30556
11
0.663148
21
-0.302608
0
LINE
8
BLACK
6
CONTINUOUS
10
0.663148
20
-0.302608
11
0.66531
21
-0.300446
0
LINE
8
BLACK
6
CONTINUOUS
10
0.66531
20
-0.300446
11
0.668263
21
-0.299655
0
LINE
8
BLACK
6
CONTINUOUS
10
0.668263
20
-0.299655
11
0.735192
21
-0.299655
0
LINE
8
BLACK
6
CONTINUOUS
10
0.735192
20
-0.299655
11
0.738144
21
-0.300446
0
LINE
8
BLACK
6
CONTINUOUS
10
0.738144
20
-0.233517
11
0.740306
21
-0.235679
0
LINE
8
BLACK
6
CONTINUOUS
10
0.740306
20
-0.235679
11
0.741097
21
-0.238631
0
LINE
8
BLACK
6
CONTINUOUS
10
0.741097
20
-0.238631
11
0.741097
21
-0.254567
0
LINE
8
BLACK
6
CONTINUOUS
10
0.741097
20
-0.254567
11
0.740851
21
-0.255485
0
LINE
8
BLACK
6
CONTINUOUS
10
0.740851
20
-0.255485
11
0.740794
21
-0.256434
0
LINE
8
BLACK
6
CONTINUOUS
10
0.740794
20
-0.256434
11
0.737607
21
-0.265996
0
LINE
8
BLACK
6
CONTINUOUS
10
0.737607
20
-0.265996
11
0.736859
21
-0.267129
0
LINE
8
BLACK
6
CONTINUOUS
10
0.736859
20
-0.267129
11
0.73618
21
-0.268304
0
LINE
8
BLACK
6
CONTINUOUS
10
0.73618
20
-0.268304
11
0.729806
21
-0.274678
0
LINE
8
BLACK
6
CONTINUOUS
10
0.729806
20
-0.274678
11
0.728983
21
-0.275153
0
LINE
8
BLACK
6
CONTINUOUS
10
0.728983
20
-0.275153
11
0.728271
21
-0.275784
0
LINE
8
BLACK
6
CONTINUOUS
10
0.728271
20
-0.275784
11
0.721897
21
-0.278971
0
LINE
8
BLACK
6
CONTINUOUS
10
0.721897
20
-0.278971
11
0.721258
21
-0.279102
0
LINE
8
BLACK
6
CONTINUOUS
10
0.721258
20
-0.279102
11
0.720688
21
-0.279419
0
LINE
8
BLACK
6
CONTINUOUS
10
0.720688
20
-0.279419
11
0.70794
21
-0.282606
0
LINE
8
BLACK
6
CONTINUOUS
10
0.70794
20
-0.282606
11
0.707212
21
-0.282593
0
LINE
8
BLACK
6
CONTINUOUS
10
0.707212
20
-0.282593
11
0.706508
21
-0.282782
0
LINE
8
BLACK
6
CONTINUOUS
10
0.706508
20
-0.282782
11
0.696946
21
-0.282782
0
LINE
8
BLACK
6
CONTINUOUS
10
0.696946
20
-0.282782
11
0.696243
21
-0.282593
0
LINE
8
BLACK
6
CONTINUOUS
10
0.696243
20
-0.282593
11
0.695514
21
-0.282606
0
LINE
8
BLACK
6
CONTINUOUS
10
0.695514
20
-0.282606
11
0.682766
21
-0.279419
0
LINE
8
BLACK
6
CONTINUOUS
10
0.682766
20
-0.279419
11
0.682196
21
-0.279102
0
LINE
8
BLACK
6
CONTINUOUS
10
0.682196
20
-0.279102
11
0.681557
21
-0.278971
0
LINE
8
BLACK
6
CONTINUOUS
10
0.681557
20
-0.278971
11
0.675183
21
-0.275784
0
LINE
8
BLACK
6
CONTINUOUS
10
0.675183
20
-0.275784
11
0.674471
21
-0.275154
0
LINE
8
BLACK
6
CONTINUOUS
10
0.674471
20
-0.275154
11
0.673648
21
-0.274678
0
LINE
8
BLACK
6
CONTINUOUS
10
0.673648
20
-0.274678
11
0.667274
21
-0.268304
0
LINE
8
BLACK
6
CONTINUOUS
10
0.667274
20
-0.268304
11
0.666595
21
-0.267128
0
LINE
8
BLACK
6
CONTINUOUS
10
0.666595
20
-0.267128
11
0.665847
21
-0.265996
0
LINE
8
BLACK
6
CONTINUOUS
10
0.665847
20
-0.265996
11
0.66266
21
-0.256434
0
LINE
8
BLACK
6
CONTINUOUS
10
0.66266
20
-0.256434
11
0.662603
21
-0.255485
0
LINE
8
BLACK
6
CONTINUOUS
10
0.662603
20
-0.255485
11
0.662357
21
-0.254567
0
LINE
8
BLACK
6
CONTINUOUS
10
0.662357
20
-0.254567
11
0.662357
21
-0.238631
0
LINE
8
BLACK
6
CONTINUOUS
10
0.662357
20
-0.238631
11
0.663148
21
-0.235679
0
LINE
8
BLACK
6
CONTINUOUS
10
0.663148
20
-0.235679
11
0.66531
21
-0.233517
0
LINE
8
BLACK
6
CONTINUOUS
10
0.66531
20
-0.233517
11
0.668263
21
-0.232726
0
LINE
8
BLACK
6
CONTINUOUS
10
0.668263
20
-0.232726
11
0.735192
21
-0.232726
0
LINE
8
BLACK
6
CONTINUOUS
10
0.735192
20
-0.232726
11
0.738144
21
-0.233517
0
LINE
8
BLACK
6
CONTINUOUS
10
0.674168
20
-0.244537
11
0.674168
21
-0.253609
0
LINE
8
BLACK
6
CONTINUOUS
10
0.674168
20
-0.253609
11
0.676611
21
-0.260938
0
LINE
8
BLACK
6
CONTINUOUS
10
0.676611
20
-0.260938
11
0.681322
21
-0.265649
0
LINE
8
BLACK
6
CONTINUOUS
10
0.681322
20
-0.265649
11
0.686259
21
-0.268117
0
LINE
8
BLACK
6
CONTINUOUS
10
0.686259
20
-0.268117
11
0.697673
21
-0.270971
0
LINE
8
BLACK
6
CONTINUOUS
10
0.697673
20
-0.270971
11
0.705781
21
-0.270971
0
LINE
8
BLACK
6
CONTINUOUS
10
0.705781
20
-0.270971
11
0.717195
21
-0.268117
0
LINE
8
BLACK
6
CONTINUOUS
10
0.717195
20
-0.268117
11
0.722132
21
-0.265649
0
LINE
8
BLACK
6
CONTINUOUS
10
0.722132
20
-0.265649
11
0.726843
21
-0.260938
0
LINE
8
BLACK
6
CONTINUOUS
10
0.726843
20
-0.260938
11
0.729286
21
-0.253609
0
LINE
8
BLACK
6
CONTINUOUS
10
0.729286
20
-0.253609
11
0.729286
21
-0.244537
0
LINE
8
BLACK
6
CONTINUOUS
10
0.729286
20
-0.244537
11
0.674168
21
-0.244537
0
LINE
8
BLACK
6
CONTINUOUS
10
0.738144
20
-0.179336
11
0.740306
21
-0.181498
0
LINE
8
BLACK
6
CONTINUOUS
10
0.740306
20
-0.181498
11
0.741097
21
-0.184451
0
LINE
8
BLACK
6
CONTINUOUS
10
0.741097
20
-0.184451
11
0.741097
21
-0.216322
0
LINE
8
BLACK
6
CONTINUOUS
10
0.741097
20
-0.216322
11
0.740306
21
-0.219274
0
LINE
8
BLACK
6
CONTINUOUS
10
0.740306
20
-0.219274
11
0.738144
21
-0.221436
0
LINE
8
BLACK
6
CONTINUOUS
10
0.738144
20
-0.221436
11
0.735192
21
-0.222227
0
LINE
8
BLACK
6
CONTINUOUS
10
0.735192
20
-0.222227
11
0.732239
21
-0.221436
0
LINE
8
BLACK
6
CONTINUOUS
10
0.732239
20
-0.221436
11
0.730077
21
-0.219274
0
LINE
8
BLACK
6
CONTINUOUS
10
0.730077
20
-0.219274
11
0.729286
21
-0.216322
0
LINE
8
BLACK
6
CONTINUOUS
10
0.729286
20
-0.216322
11
0.729286
21
-0.190356
0
LINE
8
BLACK
6
CONTINUOUS
10
0.729286
20
-0.190356
11
0.668263
21
-0.190356
0
LINE
8
BLACK
6
CONTINUOUS
10
0.668263
20
-0.190356
11
0.66531
21
-0.189565
0
LINE
8
BLACK
6
CONTINUOUS
10
0.66531
20
-0.189565
11
0.663148
21
-0.187403
0
LINE
8
BLACK
6
CONTINUOUS
10
0.663148
20
-0.187403
11
0.662357
21
-0.184451
0
LINE
8
BLACK
6
CONTINUOUS
10
0.662357
20
-0.184451
11
0.663148
21
-0.181498
0
LINE
8
BLACK
6
CONTINUOUS
10
0.663148
20
-0.181498
11
0.66531
21
-0.179336
0
LINE
8
BLACK
6
CONTINUOUS
10
0.66531
20
-0.179336
11
0.668263
21
-0.178545
0
LINE
8
BLACK
6
CONTINUOUS
10
0.668263
20
-0.178545
11
0.735192
21
-0.178545
0
LINE
8
BLACK
6
CONTINUOUS
10
0.735192
20
-0.178545
11
0.738144
21
-0.179336
0
LINE
8
BLACK
6
CONTINUOUS
10
0.713586
20
-0.10543
11
0.714314
21
-0.105418
0
LINE
8
BLACK
6
CONTINUOUS
10
0.714314
20
-0.105418
11
0.727063
21
-0.108605
0
LINE
8
BLACK
6
CONTINUOUS
10
0.727063
20
-0.108605
11
0.727107
21
-0.10863
0
LINE
8
BLACK
6
CONTINUOUS
10
0.727107
20
-0.10863
11
0.727159
21
-0.10863
0
LINE
8
BLACK
6
CONTINUOUS
10
0.727159
20
-0.10863
11
0.728441
21
-0.10937
0
LINE
8
BLACK
6
CONTINUOUS
10
0.728441
20
-0.10937
11
0.729735
21
-0.110089
0
LINE
8
BLACK
6
CONTINUOUS
10
0.729735
20
-0.110089
11
0.729762
21
-0.110133
0
LINE
8
BLACK
6
CONTINUOUS
10
0.729762
20
-0.110133
11
0.729806
21
-0.110159
0
LINE
8
BLACK
6
CONTINUOUS
10
0.729806
20
-0.110159
11
0.73618
21
-0.116533
0
LINE
8
BLACK
6
CONTINUOUS
10
0.73618
20
-0.116533
11
0.736656
21
-0.117356
0
LINE
8
BLACK
6
CONTINUOUS
10
0.736656
20
-0.117356
11
0.737287
21
-0.118067
0
LINE
8
BLACK
6
CONTINUOUS
10
0.737287
20
-0.118067
11
0.740474
21
-0.124442
0
LINE
8
BLACK
6
CONTINUOUS
10
0.740474
20
-0.124442
11
0.740746
21
-0.125772
0
LINE
8
BLACK
6
CONTINUOUS
10
0.740746
20
-0.125772
11
0.741097
21
-0.127083
0
LINE
8
BLACK
6
CONTINUOUS
10
0.741097
20
-0.127083
11
0.741097
21
-0.139831
0
LINE
8
BLACK
6
CONTINUOUS
10
0.741097
20
-0.139831
11
0.740746
21
-0.141142
0
LINE
8
BLACK
6
CONTINUOUS
10
0.740746
20
-0.141142
11
0.740474
21
-0.142472
0
LINE
8
BLACK
6
CONTINUOUS
10
0.740474
20
-0.142472
11
0.737287
21
-0.148846
0
LINE
8
BLACK
6
CONTINUOUS
10
0.737287
20
-0.148846
11
0.736656
21
-0.149558
0
LINE
8
BLACK
6
CONTINUOUS
10
0.736656
20
-0.149558
11
0.73618
21
-0.150381
0
LINE
8
BLACK
6
CONTINUOUS
10
0.73618
20
-0.150381
11
0.729806
21
-0.156755
0
LINE
8
BLACK
6
CONTINUOUS
10
0.729806
20
-0.156755
11
0.729762
21
-0.156781
0
LINE
8
BLACK
6
CONTINUOUS
10
0.729762
20
-0.156781
11
0.729735
21
-0.156825
0
LINE
8
BLACK
6
CONTINUOUS
10
0.729735
20
-0.156825
11
0.728441
21
-0.157543
0
LINE
8
BLACK
6
CONTINUOUS
10
0.728441
20
-0.157543
11
0.727159
21
-0.158284
0
LINE
8
BLACK
6
CONTINUOUS
10
0.727159
20
-0.158284
11
0.727107
21
-0.158284
0
LINE
8
BLACK
6
CONTINUOUS
10
0.727107
20
-0.158284
11
0.727063
21
-0.158309
0
LINE
8
BLACK
6
CONTINUOUS
10
0.727063
20
-0.158309
11
0.714314
21
-0.161496
0
LINE
8
BLACK
6
CONTINUOUS
10
0.714314
20
-0.161496
11
0.713586
21
-0.161484
0
LINE
8
BLACK
6
CONTINUOUS
10
0.713586
20
-0.161484
11
0.712882
21
-0.161672
0
LINE
8
BLACK
6
CONTINUOUS
10
0.712882
20
-0.161672
11
0.690572
21
-0.161672
0
LINE
8
BLACK
6
CONTINUOUS
10
0.690572
20
-0.161672
11
0.689868
21
-0.161484
0
LINE
8
BLACK
6
CONTINUOUS
10
0.689868
20
-0.161484
11
0.68914
21
-0.161496
0
LINE
8
BLACK
6
CONTINUOUS
10
0.68914
20
-0.161496
11
0.676391
21
-0.158309
0
LINE
8
BLACK
6
CONTINUOUS
10
0.676391
20
-0.158309
11
0.676347
21
-0.158284
0
LINE
8
BLACK
6
CONTINUOUS
10
0.676347
20
-0.158284
11
0.676295
21
-0.158284
0
LINE
8
BLACK
6
CONTINUOUS
10
0.676295
20
-0.158284
11
0.675013
21
-0.157543
0
LINE
8
BLACK
6
CONTINUOUS
10
0.675013
20
-0.157543
11
0.673719
21
-0.156825
0
LINE
8
BLACK
6
CONTINUOUS
10
0.673719
20
-0.156825
11
0.673692
21
-0.156781
0
LINE
8
BLACK
6
CONTINUOUS
10
0.673692
20
-0.156781
11
0.673648
21
-0.156755
0
LINE
8
BLACK
6
CONTINUOUS
10
0.673648
20
-0.156755
11
0.667274
21
-0.150381
0
LINE
8
BLACK
6
CONTINUOUS
10
0.667274
20
-0.150381
11
0.666798
21
-0.149558
0
LINE
8
BLACK
6
CONTINUOUS
10
0.666798
20
-0.149558
11
0.666168
21
-0.148846
0
LINE
8
BLACK
6
CONTINUOUS
10
0.666168
20
-0.148846
11
0.66298
21
-0.142472
0
LINE
8
BLACK
6
CONTINUOUS
10
0.66298
20
-0.142472
11
0.662708
21
-0.141142
0
LINE
8
BLACK
6
CONTINUOUS
10
0.662708
20
-0.141142
11
0.662357
21
-0.139831
0
LINE
8
BLACK
6
CONTINUOUS
10
0.662357
20
-0.139831
11
0.662357
21
-0.127083
0
LINE
8
BLACK
6
CONTINUOUS
10
0.662357
20
-0.127083
11
0.662708
21
-0.125772
0
LINE
8
BLACK
6
CONTINUOUS
10
0.662708
20
-0.125772
11
0.66298
21
-0.124442
0
LINE
8
BLACK
6
CONTINUOUS
10
0.66298
20
-0.124442
11
0.666168
21
-0.118067
0
LINE
8
BLACK
6
CONTINUOUS
10
0.666168
20
-0.118067
11
0.666798
21
-0.117356
0
LINE
8
BLACK
6
CONTINUOUS
10
0.666798
20
-0.117356
11
0.667274
21
-0.116533
0
LINE
8
BLACK
6
CONTINUOUS
10
0.667274
20
-0.116533
11
0.673648
21
-0.110159
0
LINE
8
BLACK
6
CONTINUOUS
10
0.673648
20
-0.110159
11
0.673692
21
-0.110133
0
LINE
8
BLACK
6
CONTINUOUS
10
0.673692
20
-0.110133
11
0.673719
21
-0.110089
0
LINE
8
BLACK
6
CONTINUOUS
10
0.673719
20
-0.110089
11
0.675013
21
-0.10937
0
LINE
8
BLACK
6
CONTINUOUS
10
0.675013
20
-0.10937
11
0.676295
21
-0.10863
0
LINE
8
BLACK
6
CONTINUOUS
10
0.676295
20
-0.10863
11
0.676347
21
-0.10863
0
LINE
8
BLACK
6
CONTINUOUS
10
0.676347
20
-0.10863
11
0.676391
21
-0.108605
0
LINE
8
BLACK
6
CONTINUOUS
10
0.676391
20
-0.108605
11
0.68914
21
-0.105418
0
LINE
8
BLACK
6
CONTINUOUS
10
0.68914
20
-0.105418
11
0.689868
21
-0.10543
0
LINE
8
BLACK
6
CONTINUOUS
10
0.689868
20
-0.10543
11
0.690572
21
-0.105242
0
LINE
8
BLACK
6
CONTINUOUS
10
0.690572
20
-0.105242
11
0.712882
21
-0.105242
0
LINE
8
BLACK
6
CONTINUOUS
10
0.712882
20
-0.105242
11
0.713586
21
-0.10543
0
LINE
8
BLACK
6
CONTINUOUS
10
0.691299
20
-0.117053
11
0.680843
21
-0.119667
0
LINE
8
BLACK
6
CONTINUOUS
10
0.680843
20
-0.119667
11
0.676303
21
-0.124207
0
LINE
8
BLACK
6
CONTINUOUS
10
0.676303
20
-0.124207
11
0.674168
21
-0.128477
0
LINE
8
BLACK
6
CONTINUOUS
10
0.674168
20
-0.128477
11
0.674168
21
-0.138437
0
LINE
8
BLACK
6
CONTINUOUS
10
0.674168
20
-0.138437
11
0.676303
21
-0.142707
0
LINE
8
BLACK
6
CONTINUOUS
10
0.676303
20
-0.142707
11
0.680843
21
-0.147247
0
LINE
8
BLACK
6
CONTINUOUS
10
0.680843
20
-0.147247
11
0.691299
21
-0.149861
0
LINE
8
BLACK
6
CONTINUOUS
10
0.691299
20
-0.149861
11
0.712155
21
-0.149861
0
LINE
8
BLACK
6
CONTINUOUS
10
0.712155
20
-0.149861
11
0.722611
21
-0.147247
0
LINE
8
BLACK
6
CONTINUOUS
10
0.722611
20
-0.147247
11
0.727151
21
-0.142707
0
LINE
8
BLACK
6
CONTINUOUS
10
0.727151
20
-0.142707
11
0.729286
21
-0.138437
0
LINE
8
BLACK
6
CONTINUOUS
10
0.729286
20
-0.138437
11
0.729286
21
-0.128477
0
LINE
8
BLACK
6
CONTINUOUS
10
0.729286
20
-0.128477
11
0.727151
21
-0.124207
0
LINE
8
BLACK
6
CONTINUOUS
10
0.727151
20
-0.124207
11
0.722611
21
-0.119667
0
LINE
8
BLACK
6
CONTINUOUS
10
0.722611
20
-0.119667
11
0.712155
21
-0.117053
0
LINE
8
BLACK
6
CONTINUOUS
10
0.712155
20
-0.117053
11
0.691299
21
-0.117053
0
LINE
8
BLACK
6
CONTINUOUS
10
0.66531
20
-0.0875776
11
0.663148
21
-0.0854161
0
LINE
8
BLACK
6
CONTINUOUS
10
0.663148
20
-0.0854161
11
0.662357
21
-0.0824633
0
LINE
8
BLACK
6
CONTINUOUS
10
0.662357
20
-0.0824633
11
0.663148
21
-0.0795106
0
LINE
8
BLACK
6
CONTINUOUS
10
0.663148
20
-0.0795106
11
0.66531
21
-0.077349
0
LINE
8
BLACK
6
CONTINUOUS
10
0.66531
20
-0.077349
11
0.668263
21
-0.0765578
0
LINE
8
BLACK
6
CONTINUOUS
10
0.668263
20
-0.0765578
11
0.694228
21
-0.0765578
0
LINE
8
BLACK
6
CONTINUOUS
10
0.694228
20
-0.0765578
11
0.694228
21
-0.0501236
0
LINE
8
BLACK
6
CONTINUOUS
10
0.694228
20
-0.0501236
11
0.668263
21
-0.0501236
0
LINE
8
BLACK
6
CONTINUOUS
10
0.668263
20
-0.0501236
11
0.66531
21
-0.0493324
0
LINE
8
BLACK
6
CONTINUOUS
10
0.66531
20
-0.0493324
11
0.663148
21
-0.0471708
0
LINE
8
BLACK
6
CONTINUOUS
10
0.663148
20
-0.0471708
11
0.662357
21
-0.0442181
0
LINE
8
BLACK
6
CONTINUOUS
10
0.662357
20
-0.0442181
11
0.663148
21
-0.0412653
0
LINE
8
BLACK
6
CONTINUOUS
10
0.663148
20
-0.0412653
11
0.66531
21
-0.0391037
0
LINE
8
BLACK
6
CONTINUOUS
10
0.66531
20
-0.0391037
11
0.668263
21
-0.0383126
0
LINE
8
BLACK
6
CONTINUOUS
10
0.668263
20
-0.0383126
11
0.735192
21
-0.0383126
0
LINE
8
BLACK
6
CONTINUOUS
10
0.735192
20
-0.0383126
11
0.738144
21
-0.0391037
0
LINE
8
BLACK
6
CONTINUOUS
10
0.738144
20
-0.0391037
11
0.740306
21
-0.0412653
0
LINE
8
BLACK
6
CONTINUOUS
10
0.740306
20
-0.0412653
11
0.741097
21
-0.0442181
0
LINE
8
BLACK
6
CONTINUOUS
10
0.741097
20
-0.0442181
11
0.740306
21
-0.0471708
0
LINE
8
BLACK
6
CONTINUOUS
10
0.740306
20
-0.0471708
11
0.738144
21
-0.0493324
0
LINE
8
BLACK
6
CONTINUOUS
10
0.738144
20
-0.0493324
11
0.735192
21
-0.0501236
0
LINE
8
BLACK
6
CONTINUOUS
10
0.735192
20
-0.0501236
11
0.706039
21
-0.0501236
0
LINE
8
BLACK
6
CONTINUOUS
10
0.706039
20
-0.0501236
11
0.706039
21
-0.0765578
0
LINE
8
BLACK
6
CONTINUOUS
10
0.706039
20
-0.0765578
11
0.735192
21
-0.0765578
0
LINE
8
BLACK
6
CONTINUOUS
10
0.735192
20
-0.0765578
11
0.738144
21
-0.077349
0
LINE
8
BLACK
6
CONTINUOUS
10
0.738144
20
-0.077349
11
0.740306
21
-0.0795106
0
LINE
8
BLACK
6
CONTINUOUS
10
0.740306
20
-0.0795106
11
0.741097
21
-0.0824633
0
LINE
8
BLACK
6
CONTINUOUS
10
0.741097
20
-0.0824633
11
0.740306
21
-0.0854161
0
LINE
8
BLACK
6
CONTINUOUS
10
0.740306
20
-0.0854161
11
0.738144
21
-0.0875776
0
LINE
8
BLACK
6
CONTINUOUS
10
0.738144
20
-0.0875776
11
0.735192
21
-0.0883688
0
LINE
8
BLACK
6
CONTINUOUS
10
0.735192
20
-0.0883688
11
0.668263
21
-0.0883688
0
LINE
8
BLACK
6
CONTINUOUS
10
0.668263
20
-0.0883688
11
0.66531
21
-0.0875776
0
LINE
8
BLACK
6
CONTINUOUS
10
0.738144
20
0.0310125
11
0.740306
21
0.0288509
0
LINE
8
BLACK
6
CONTINUOUS
10
0.740306
20
0.0288509
11
0.741097
21
0.0258981
0
LINE
8
BLACK
6
CONTINUOUS
10
0.741097
20
0.0258981
11
0.740306
21
0.0229454
0
LINE
8
BLACK
6
CONTINUOUS
10
0.740306
20
0.0229454
11
0.738144
21
0.0207838
0
LINE
8
BLACK
6
CONTINUOUS
10
0.738144
20
0.0207838
11
0.735192
21
0.0199926
0
LINE
8
BLACK
6
CONTINUOUS
10
0.735192
20
0.0199926
11
0.6905
21
0.0199926
0
LINE
8
BLACK
6
CONTINUOUS
10
0.6905
20
0.0199926
11
0.738122
21
-0.00721965
0
LINE
8
BLACK
6
CONTINUOUS
10
0.738122
20
-0.00721965
11
0.738131
21
-0.00722917
0
LINE
8
BLACK
6
CONTINUOUS
10
0.738131
20
-0.00722917
11
0.738144
21
-0.00723272
0
LINE
8
BLACK
6
CONTINUOUS
10
0.738144
20
-0.00723272
11
0.739216
21
-0.00830437
0
LINE
8
BLACK
6
CONTINUOUS
10
0.739216
20
-0.00830437
11
0.740293
21
-0.00937154
0
LINE
8
BLACK
6
CONTINUOUS
10
0.740293
20
-0.00937154
11
0.740296
21
-0.00938469
0
LINE
8
BLACK
6
CONTINUOUS
10
0.740296
20
-0.00938469
11
0.740306
21
-0.00939429
0
LINE
8
BLACK
6
CONTINUOUS
10
0.740306
20
-0.00939429
11
0.740697
21
-0.010855
0
LINE
8
BLACK
6
CONTINUOUS
10
0.740697
20
-0.010855
11
0.741097
21
-0.0123207
0
LINE
8
BLACK
6
CONTINUOUS
10
0.741097
20
-0.0123207
11
0.741094
21
-0.0123339
0
LINE
8
BLACK
6
CONTINUOUS
10
0.741094
20
-0.0123339
11
0.741097
21
-0.012347
0
LINE
8
BLACK
6
CONTINUOUS
10
0.741097
20
-0.012347
11
0.740706
21
-0.0138077
0
LINE
8
BLACK
6
CONTINUOUS
10
0.740706
20
-0.0138077
11
0.740319
21
-0.015277
0
LINE
8
BLACK
6
CONTINUOUS
10
0.740319
20
-0.015277
11
0.740309
21
-0.0152867
0
LINE
8
BLACK
6
CONTINUOUS
10
0.740309
20
-0.0152867
11
0.740306
21
-0.0152998
0
LINE
8
BLACK
6
CONTINUOUS
10
0.740306
20
-0.0152998
11
0.739237
21
-0.0163693
0
LINE
8
BLACK
6
CONTINUOUS
10
0.739237
20
-0.0163693
11
0.738167
21
-0.0174482
0
LINE
8
BLACK
6
CONTINUOUS
10
0.738167
20
-0.0174482
11
0.738154
21
-0.0174518
0
LINE
8
BLACK
6
CONTINUOUS
10
0.738154
20
-0.0174518
11
0.738144
21
-0.0174614
0
LINE
8
BLACK
6
CONTINUOUS
10
0.738144
20
-0.0174614
11
0.736684
21
-0.0178528
0
LINE
8
BLACK
6
CONTINUOUS
10
0.736684
20
-0.0178528
11
0.735218
21
-0.0182525
0
LINE
8
BLACK
6
CONTINUOUS
10
0.735218
20
-0.0182525
11
0.735205
21
-0.0182491
0
LINE
8
BLACK
6
CONTINUOUS
10
0.735205
20
-0.0182491
11
0.735192
21
-0.0182526
0
LINE
8
BLACK
6
CONTINUOUS
10
0.735192
20
-0.0182526
11
0.668263
21
-0.0182526
0
LINE
8
BLACK
6
CONTINUOUS
10
0.668263
20
-0.0182526
11
0.66531
21
-0.0174614
0
LINE
8
BLACK
6
CONTINUOUS
10
0.66531
20
-0.0174614
11
0.663148
21
-0.0152998
0
LINE
8
BLACK
6
CONTINUOUS
10
0.663148
20
-0.0152998
11
0.662357
21
-0.012347
0
LINE
8
BLACK
6
CONTINUOUS
10
0.662357
20
-0.012347
11
0.663148
21
-0.00939429
0
LINE
8
BLACK
6
CONTINUOUS
10
0.663148
20
-0.00939429
11
0.66531
21
-0.00723272
0
LINE
8
BLACK
6
CONTINUOUS
10
0.66531
20
-0.00723272
11
0.668263
21
-0.00644154
0
LINE
8
BLACK
6
CONTINUOUS
10
0.668263
20
-0.00644154
11
0.712954
21
-0.00644154
0
LINE
8
BLACK
6
CONTINUOUS
10
0.712954
20
-0.00644154
11
0.665333
21
0.0207707
0
LINE
8
BLACK
6
CONTINUOUS
10
0.665333
20
0.0207707
11
0.665323
21
0.0207803
0
LINE
8
BLACK
6
CONTINUOUS
10
0.665323
20
0.0207803
11
0.66531
21
0.0207838
0
LINE
8
BLACK
6
CONTINUOUS
10
0.66531
20
0.0207838
11
0.664238
21
0.0218555
0
LINE
8
BLACK
6
CONTINUOUS
10
0.664238
20
0.0218555
11
0.663161
21
0.0229226
0
LINE
8
BLACK
6
CONTINUOUS
10
0.663161
20
0.0229226
11
0.663158
21
0.0229358
0
LINE
8
BLACK
6
CONTINUOUS
10
0.663158
20
0.0229358
11
0.663148
21
0.0229454
0
LINE
8
BLACK
6
CONTINUOUS
10
0.663148
20
0.0229454
11
0.662757
21
0.0244061
0
LINE
8
BLACK
6
CONTINUOUS
10
0.662757
20
0.0244061
11
0.662357
21
0.0258719
0
LINE
8
BLACK
6
CONTINUOUS
10
0.662357
20
0.0258719
11
0.662361
21
0.025885
0
LINE
8
BLACK
6
CONTINUOUS
10
0.662361
20
0.025885
11
0.662357
21
0.0258981
0
LINE
8
BLACK
6
CONTINUOUS
10
0.662357
20
0.0258981
11
0.662749
21
0.027363
0
LINE
8
BLACK
6
CONTINUOUS
10
0.662749
20
0.027363
11
0.663135
21
0.0288281
0
LINE
8
BLACK
6
CONTINUOUS
10
0.663135
20
0.0288281
11
0.663145
21
0.0288378
0
LINE
8
BLACK
6
CONTINUOUS
10
0.663145
20
0.0288378
11
0.663148
21
0.0288509
0
LINE
8
BLACK
6
CONTINUOUS
10
0.663148
20
0.0288509
11
0.66422
21
0.0299226
0
LINE
8
BLACK
6
CONTINUOUS
10
0.66422
20
0.0299226
11
0.665287
21
0.0309993
0
LINE
8
BLACK
6
CONTINUOUS
10
0.665287
20
0.0309993
11
0.6653
21
0.0310029
0
LINE
8
BLACK
6
CONTINUOUS
10
0.6653
20
0.0310029
11
0.66531
21
0.0310125
0
LINE
8
BLACK
6
CONTINUOUS
10
0.66531
20
0.0310125
11
0.66677
21
0.0314039
0
LINE
8
BLACK
6
CONTINUOUS
10
0.66677
20
0.0314039
11
0.668236
21
0.0318036
0
LINE
8
BLACK
6
CONTINUOUS
10
0.668236
20
0.0318036
11
0.668249
21
0.0318002
0
LINE
8
BLACK
6
CONTINUOUS
10
0.668249
20
0.0318002
11
0.668263
21
0.0318037
0
LINE
8
BLACK
6
CONTINUOUS
10
0.668263
20
0.0318037
11
0.735192
21
0.0318037
0
LINE
8
BLACK
6
CONTINUOUS
10
0.735192
20
0.0318037
11
0.738144
21
0.0310125
0
LINE
8
BLACK
6
CONTINUOUS
10
0.738144
20
0.0628835
11
0.740306
21
0.0607219
0
LINE
8
BLACK
6
CONTINUOUS
10
0.740306
20
0.0607219
11
0.741097
21
0.0577692
0
LINE
8
BLACK
6
CONTINUOUS
10
0.741097
20
0.0577692
11
0.740306
21
0.0548164
0
LINE
8
BLACK
6
CONTINUOUS
10
0.740306
20
0.0548164
11
0.738144
21
0.0526548
0
LINE
8
BLACK
6
CONTINUOUS
10
0.738144
20
0.0526548
11
0.735192
21
0.0518637
0
LINE
8
BLACK
6
CONTINUOUS
10
0.735192
20
0.0518637
11
0.668263
21
0.0518637
0
LINE
8
BLACK
6
CONTINUOUS
10
0.668263
20
0.0518637
11
0.66531
21
0.0526548
0
LINE
8
BLACK
6
CONTINUOUS
10
0.66531
20
0.0526548
11
0.663148
21
0.0548164
0
LINE
8
BLACK
6
CONTINUOUS
10
0.663148
20
0.0548164
11
0.662357
21
0.0577692
0
LINE
8
BLACK
6
CONTINUOUS
10
0.662357
20
0.0577692
11
0.663148
21
0.0607219
0
LINE
8
BLACK
6
CONTINUOUS
10
0.663148
20
0.0607219
11
0.66531
21
0.0628835
0
LINE
8
BLACK
6
CONTINUOUS
10
0.66531
20
0.0628835
11
0.668263
21
0.0636747
0
LINE
8
BLACK
6
CONTINUOUS
10
0.668263
20
0.0636747
11
0.735192
21
0.0636747
0
LINE
8
BLACK
6
CONTINUOUS
10
0.735192
20
0.0636747
11
0.738144
21
0.0628835
0
LINE
8
BLACK
6
CONTINUOUS
10
0.738144
20
0.129813
11
0.740306
21
0.127651
0
LINE
8
BLACK
6
CONTINUOUS
10
0.740306
20
0.127651
11
0.741097
21
0.124698
0
LINE
8
BLACK
6
CONTINUOUS
10
0.741097
20
0.124698
11
0.740306
21
0.121746
0
LINE
8
BLACK
6
CONTINUOUS
10
0.740306
20
0.121746
11
0.738144
21
0.119584
0
LINE
8
BLACK
6
CONTINUOUS
10
0.738144
20
0.119584
11
0.735192
21
0.118793
0
LINE
8
BLACK
6
CONTINUOUS
10
0.735192
20
0.118793
11
0.709226
21
0.118793
0
LINE
8
BLACK
6
CONTINUOUS
10
0.709226
20
0.118793
11
0.709226
21
0.0992015
0
LINE
8
BLACK
6
CONTINUOUS
10
0.709226
20
0.0992015
11
0.708875
21
0.0978904
0
LINE
8
BLACK
6
CONTINUOUS
10
0.708875
20
0.0978904
11
0.708603
21
0.0965605
0
LINE
8
BLACK
6
CONTINUOUS
10
0.708603
20
0.0965605
11
0.705416
21
0.0901863
0
LINE
8
BLACK
6
CONTINUOUS
10
0.705416
20
0.0901863
11
0.704785
21
0.0894748
0
LINE
8
BLACK
6
CONTINUOUS
10
0.704785
20
0.0894748
11
0.704309
21
0.0886515
0
LINE
8
BLACK
6
CONTINUOUS
10
0.704309
20
0.0886515
11
0.701122
21
0.0854644
0
LINE
8
BLACK
6
CONTINUOUS
10
0.701122
20
0.0854644
11
0.700299
21
0.084989
0
LINE
8
BLACK
6
CONTINUOUS
10
0.700299
20
0.084989
11
0.699588
21
0.0843581
0
LINE
8
BLACK
6
CONTINUOUS
10
0.699588
20
0.0843581
11
0.693213
21
0.081171
0
LINE
8
BLACK
6
CONTINUOUS
10
0.693213
20
0.081171
11
0.691883
21
0.0808989
0
LINE
8
BLACK
6
CONTINUOUS
10
0.691883
20
0.0808989
11
0.690572
21
0.0805476
0
LINE
8
BLACK
6
CONTINUOUS
10
0.690572
20
0.0805476
11
0.681011
21
0.0805476
0
LINE
8
BLACK
6
CONTINUOUS
10
0.681011
20
0.0805476
11
0.6797
21
0.0808989
0
LINE
8
BLACK
6
CONTINUOUS
10
0.6797
20
0.0808989
11
0.67837
21
0.081171
0
LINE
8
BLACK
6
CONTINUOUS
10
0.67837
20
0.081171
11
0.671996
21
0.0843581
0
LINE
8
BLACK
6
CONTINUOUS
10
0.671996
20
0.0843581
11
0.671284
21
0.0849889
0
LINE
8
BLACK
6
CONTINUOUS
10
0.671284
20
0.0849889
11
0.670461
21
0.0854644
0
LINE
8
BLACK
6
CONTINUOUS
10
0.670461
20
0.0854644
11
0.667274
21
0.0886515
0
LINE
8
BLACK
6
CONTINUOUS
10
0.667274
20
0.0886515
11
0.666798
21
0.0894748
0
LINE
8
BLACK
6
CONTINUOUS
10
0.666798
20
0.0894748
11
0.666168
21
0.0901862
0
LINE
8
BLACK
6
CONTINUOUS
10
0.666168
20
0.0901862
11
0.66298
21
0.0965605
0
LINE
8
BLACK
6
CONTINUOUS
10
0.66298
20
0.0965605
11
0.662708
21
0.0978904
0
LINE
8
BLACK
6
CONTINUOUS
10
0.662708
20
0.0978904
11
0.662357
21
0.0992015
0
LINE
8
BLACK
6
CONTINUOUS
10
0.662357
20
0.0992015
11
0.662357
21
0.124698
0
LINE
8
BLACK
6
CONTINUOUS
10
0.662357
20
0.124698
11
0.663148
21
0.127651
0
LINE
8
BLACK
6
CONTINUOUS
10
0.663148
20
0.127651
11
0.66531
21
0.129813
0
LINE
8
BLACK
6
CONTINUOUS
10
0.66531
20
0.129813
11
0.668263
21
0.130604
0
LINE
8
BLACK
6
CONTINUOUS
10
0.668263
20
0.130604
11
0.735192
21
0.130604
0
LINE
8
BLACK
6
CONTINUOUS
10
0.735192
20
0.130604
11
0.738144
21
0.129813
0
LINE
8
BLACK
6
CONTINUOUS
10
0.674168
20
0.118793
11
0.674168
21
0.100596
0
LINE
8
BLACK
6
CONTINUOUS
10
0.674168
20
0.100596
11
0.676303
21
0.0963255
0
LINE
8
BLACK
6
CONTINUOUS
10
0.676303
20
0.0963255
11
0.678135
21
0.0944937
0
LINE
8
BLACK
6
CONTINUOUS
10
0.678135
20
0.0944937
11
0.682405
21
0.0923586
0
LINE
8
BLACK
6
CONTINUOUS
10
0.682405
20
0.0923586
11
0.689178
21
0.0923586
0
LINE
8
BLACK
6
CONTINUOUS
10
0.689178
20
0.0923586
11
0.693448
21
0.0944937
0
LINE
8
BLACK
6
CONTINUOUS
10
0.693448
20
0.0944937
11
0.69528
21
0.0963255
0
LINE
8
BLACK
6
CONTINUOUS
10
0.69528
20
0.0963255
11
0.697415
21
0.100596
0
LINE
8
BLACK
6
CONTINUOUS
10
0.697415
20
0.100596
11
0.697415
21
0.118793
0
LINE
8
BLACK
6
CONTINUOUS
10
0.697415
20
0.118793
11
0.674168
21
0.118793
  0
ENDSEC
  0
EOF
