  0
SECTION
  2
HEADER
  9
$ANGBASE
  50
0.0
  9
$ANGDIR
  70
1
  9
$MEASUREMENT
  70
0
  0
ENDSEC
  0
SECTION
  2
TABLES
  0
TABLE
  2
LTYPE
  70
4
  0
LTYPE
  5
40F
  2
CONTINUOUS
  70
0
  3
Solid line
  72
65
  73
0
  40
0.0
  0
LTYPE
  5
410
  2
DASHDOT
 70
0
  3
Dash Dot ____ _ ____ _
 72
65
 73
4
 40
2.0
 49
1.25
 49
-0.25
 49
0.25
 49
-0.25
  0
LTYPE
  5
411
  2
DASHED
 70
0
  3
Dashed __ __ __ __ __
 72
65
 73
2
 40
0.75
 49
0.5
 49
-0.25
  0
LTYPE
  5
43B
  2
DOTTED
 70
0
  3
Dotted .  .  .  .
 72
65
 73
2
 40
0.2
 49
0.0
 49
-0.2
  0
ENDTAB
  0
TABLE
  2
STYLE
  70
4
  0
STYLE
  2
KICAD
  70
0
  40
0
  41
1
  42
1
  50
0
  71
0
  3
isocp.shx
  0
STYLE
  2
KICADB
  70
0
  40
0
  41
1
  42
1
  50
0
  71
0
  3
isocp.shx
  0
STYLE
  2
KICADI
  70
0
  40
0
  41
1
  42
1
  50
15
  71
0
  3
isocp.shx
  0
STYLE
  2
KICADBI
  70
0
  40
0
  41
1
  42
1
  50
15
  71
0
  3
isocp.shx
  0
ENDTAB
  0
TABLE
  2
LAYER
  70
1
  0
LAYER
  2
BLACK
  70
0
  62
7
  6
CONTINUOUS
  0
ENDTAB
  0
ENDSEC
  0
SECTION
  2
ENTITIES
0
LINE
8
BLACK
6
CONTINUOUS
10
4.51
20
-4.24424
11
4.52385
21
-4.24668
0
LINE
8
BLACK
6
CONTINUOUS
10
4.52385
20
-4.24668
11
4.53735
21
-4.25065
0
LINE
8
BLACK
6
CONTINUOUS
10
4.53735
20
-4.25065
11
4.55031
21
-4.2561
0
LINE
8
BLACK
6
CONTINUOUS
10
4.55031
20
-4.2561
11
4.56259
21
-4.26296
0
LINE
8
BLACK
6
CONTINUOUS
10
4.56259
20
-4.26296
11
4.57403
21
-4.27115
0
LINE
8
BLACK
6
CONTINUOUS
10
4.57403
20
-4.27115
11
4.58448
21
-4.28056
0
LINE
8
BLACK
6
CONTINUOUS
10
4.58448
20
-4.28056
11
4.59382
21
-4.29108
0
LINE
8
BLACK
6
CONTINUOUS
10
4.59382
20
-4.29108
11
4.60193
21
-4.30257
0
LINE
8
BLACK
6
CONTINUOUS
10
4.60193
20
-4.30257
11
4.6087
21
-4.3149
0
LINE
8
BLACK
6
CONTINUOUS
10
4.6087
20
-4.3149
11
4.61406
21
-4.3279
0
LINE
8
BLACK
6
CONTINUOUS
10
4.61406
20
-4.3279
11
4.61794
21
-4.34142
0
LINE
8
BLACK
6
CONTINUOUS
10
4.61794
20
-4.34142
11
4.62028
21
-4.35529
0
LINE
8
BLACK
6
CONTINUOUS
10
4.62028
20
-4.35529
11
4.62107
21
-4.36934
0
LINE
8
BLACK
6
CONTINUOUS
10
4.62107
20
-4.36934
11
4.62102
21
-4.37285
0
LINE
8
BLACK
6
CONTINUOUS
10
4.62102
20
-4.37285
11
4.61984
21
-4.38687
0
LINE
8
BLACK
6
CONTINUOUS
10
4.61984
20
-4.38687
11
4.61711
21
-4.40067
0
LINE
8
BLACK
6
CONTINUOUS
10
4.61711
20
-4.40067
11
4.61286
21
-4.41407
0
LINE
8
BLACK
6
CONTINUOUS
10
4.61286
20
-4.41407
11
4.60714
21
-4.42692
0
LINE
8
BLACK
6
CONTINUOUS
10
4.60714
20
-4.42692
11
4.60002
21
-4.43906
0
LINE
8
BLACK
6
CONTINUOUS
10
4.60002
20
-4.43906
11
4.5916
21
-4.45032
0
LINE
8
BLACK
6
CONTINUOUS
10
4.5916
20
-4.45032
11
4.58197
21
-4.46057
0
LINE
8
BLACK
6
CONTINUOUS
10
4.58197
20
-4.46057
11
4.57126
21
-4.46969
0
LINE
8
BLACK
6
CONTINUOUS
10
4.57126
20
-4.46969
11
4.5596
21
-4.47755
0
LINE
8
BLACK
6
CONTINUOUS
10
4.5596
20
-4.47755
11
4.54713
21
-4.48407
0
LINE
8
BLACK
6
CONTINUOUS
10
4.54713
20
-4.48407
11
4.53402
21
-4.48915
0
LINE
8
BLACK
6
CONTINUOUS
10
4.53402
20
-4.48915
11
4.52042
21
-4.49275
0
LINE
8
BLACK
6
CONTINUOUS
10
4.52042
20
-4.49275
11
4.5065
21
-4.4948
0
LINE
8
BLACK
6
CONTINUOUS
10
4.5065
20
-4.4948
11
4.49245
21
-4.49529
0
LINE
8
BLACK
6
CONTINUOUS
10
4.49245
20
-4.49529
11
4.47842
21
-4.49421
0
LINE
8
BLACK
6
CONTINUOUS
10
4.47842
20
-4.49421
11
4.46461
21
-4.49158
0
LINE
8
BLACK
6
CONTINUOUS
10
4.46461
20
-4.49158
11
4.45117
21
-4.48742
0
LINE
8
BLACK
6
CONTINUOUS
10
4.45117
20
-4.48742
11
4.43828
21
-4.48179
0
LINE
8
BLACK
6
CONTINUOUS
10
4.43828
20
-4.48179
11
4.4261
21
-4.47476
0
LINE
8
BLACK
6
CONTINUOUS
10
4.4261
20
-4.47476
11
4.41478
21
-4.46641
0
LINE
8
BLACK
6
CONTINUOUS
10
4.41478
20
-4.46641
11
4.40446
21
-4.45685
0
LINE
8
BLACK
6
CONTINUOUS
10
4.40446
20
-4.45685
11
4.39527
21
-4.44621
0
LINE
8
BLACK
6
CONTINUOUS
10
4.39527
20
-4.44621
11
4.38732
21
-4.4346
0
LINE
8
BLACK
6
CONTINUOUS
10
4.38732
20
-4.4346
11
4.38072
21
-4.42218
0
LINE
8
BLACK
6
CONTINUOUS
10
4.38072
20
-4.42218
11
4.37554
21
-4.4091
0
LINE
8
BLACK
6
CONTINUOUS
10
4.37554
20
-4.4091
11
4.37185
21
-4.39553
0
LINE
8
BLACK
6
CONTINUOUS
10
4.37185
20
-4.39553
11
4.3697
21
-4.38163
0
LINE
8
BLACK
6
CONTINUOUS
10
4.3697
20
-4.38163
11
4.36911
21
-4.36758
0
LINE
8
BLACK
6
CONTINUOUS
10
4.36911
20
-4.36758
11
4.37009
21
-4.35355
0
LINE
8
BLACK
6
CONTINUOUS
10
4.37009
20
-4.35355
11
4.37263
21
-4.33971
0
LINE
8
BLACK
6
CONTINUOUS
10
4.37263
20
-4.33971
11
4.3767
21
-4.32625
0
LINE
8
BLACK
6
CONTINUOUS
10
4.3767
20
-4.32625
11
4.38224
21
-4.31332
0
LINE
8
BLACK
6
CONTINUOUS
10
4.38224
20
-4.31332
11
4.38919
21
-4.30109
0
LINE
8
BLACK
6
CONTINUOUS
10
4.38919
20
-4.30109
11
4.39745
21
-4.28971
0
LINE
8
BLACK
6
CONTINUOUS
10
4.39745
20
-4.28971
11
4.40694
21
-4.27932
0
LINE
8
BLACK
6
CONTINUOUS
10
4.40694
20
-4.27932
11
4.41752
21
-4.27006
0
LINE
8
BLACK
6
CONTINUOUS
10
4.41752
20
-4.27006
11
4.42907
21
-4.26203
0
LINE
8
BLACK
6
CONTINUOUS
10
4.42907
20
-4.26203
11
4.44144
21
-4.25534
0
LINE
8
BLACK
6
CONTINUOUS
10
4.44144
20
-4.25534
11
4.45449
21
-4.25007
0
LINE
8
BLACK
6
CONTINUOUS
10
4.45449
20
-4.25007
11
4.46803
21
-4.24629
0
LINE
8
BLACK
6
CONTINUOUS
10
4.46803
20
-4.24629
11
4.48192
21
-4.24404
0
LINE
8
BLACK
6
CONTINUOUS
10
4.48192
20
-4.24404
11
4.49597
21
-4.24336
0
LINE
8
BLACK
6
CONTINUOUS
10
4.49597
20
-4.24336
11
4.51
21
-4.24424
0
LINE
8
BLACK
6
CONTINUOUS
10
4.92585
20
-3.2317
11
4.9284
21
-3.23341
0
LINE
8
BLACK
6
CONTINUOUS
10
4.9284
20
-3.23341
11
4.93011
21
-3.23596
0
LINE
8
BLACK
6
CONTINUOUS
10
4.93011
20
-3.23596
11
4.93071
21
-3.23898
0
LINE
8
BLACK
6
CONTINUOUS
10
4.93071
20
-3.23898
11
4.93071
21
-3.3378
0
LINE
8
BLACK
6
CONTINUOUS
10
4.93071
20
-3.3378
11
4.93011
21
-3.34081
0
LINE
8
BLACK
6
CONTINUOUS
10
4.93011
20
-3.34081
11
4.9284
21
-3.34336
0
LINE
8
BLACK
6
CONTINUOUS
10
4.9284
20
-3.34336
11
4.92585
21
-3.34507
0
LINE
8
BLACK
6
CONTINUOUS
10
4.92585
20
-3.34507
11
4.92283
21
-3.34567
0
LINE
8
BLACK
6
CONTINUOUS
10
4.92283
20
-3.34567
11
4.88346
21
-3.34567
0
LINE
8
BLACK
6
CONTINUOUS
10
4.88346
20
-3.34567
11
4.88045
21
-3.34507
0
LINE
8
BLACK
6
CONTINUOUS
10
4.88045
20
-3.34507
11
4.8779
21
-3.34336
0
LINE
8
BLACK
6
CONTINUOUS
10
4.8779
20
-3.34336
11
4.87619
21
-3.34081
0
LINE
8
BLACK
6
CONTINUOUS
10
4.87619
20
-3.34081
11
4.87559
21
-3.3378
0
LINE
8
BLACK
6
CONTINUOUS
10
4.87559
20
-3.3378
11
4.87559
21
-3.23898
0
LINE
8
BLACK
6
CONTINUOUS
10
4.87559
20
-3.23898
11
4.87619
21
-3.23596
0
LINE
8
BLACK
6
CONTINUOUS
10
4.87619
20
-3.23596
11
4.8779
21
-3.23341
0
LINE
8
BLACK
6
CONTINUOUS
10
4.8779
20
-3.23341
11
4.88045
21
-3.2317
0
LINE
8
BLACK
6
CONTINUOUS
10
4.88045
20
-3.2317
11
4.88346
21
-3.2311
0
LINE
8
BLACK
6
CONTINUOUS
10
4.88346
20
-3.2311
11
4.92283
21
-3.2311
0
LINE
8
BLACK
6
CONTINUOUS
10
4.92283
20
-3.2311
11
4.92585
21
-3.2317
0
LINE
8
BLACK
6
CONTINUOUS
10
4.72585
20
-3.2317
11
4.7284
21
-3.23341
0
LINE
8
BLACK
6
CONTINUOUS
10
4.7284
20
-3.23341
11
4.73011
21
-3.23596
0
LINE
8
BLACK
6
CONTINUOUS
10
4.73011
20
-3.23596
11
4.73071
21
-3.23898
0
LINE
8
BLACK
6
CONTINUOUS
10
4.73071
20
-3.23898
11
4.73071
21
-3.3378
0
LINE
8
BLACK
6
CONTINUOUS
10
4.73071
20
-3.3378
11
4.73011
21
-3.34081
0
LINE
8
BLACK
6
CONTINUOUS
10
4.73011
20
-3.34081
11
4.7284
21
-3.34336
0
LINE
8
BLACK
6
CONTINUOUS
10
4.7284
20
-3.34336
11
4.72585
21
-3.34507
0
LINE
8
BLACK
6
CONTINUOUS
10
4.72585
20
-3.34507
11
4.72283
21
-3.34567
0
LINE
8
BLACK
6
CONTINUOUS
10
4.72283
20
-3.34567
11
4.68346
21
-3.34567
0
LINE
8
BLACK
6
CONTINUOUS
10
4.68346
20
-3.34567
11
4.68045
21
-3.34507
0
LINE
8
BLACK
6
CONTINUOUS
10
4.68045
20
-3.34507
11
4.6779
21
-3.34336
0
LINE
8
BLACK
6
CONTINUOUS
10
4.6779
20
-3.34336
11
4.67619
21
-3.34081
0
LINE
8
BLACK
6
CONTINUOUS
10
4.67619
20
-3.34081
11
4.67559
21
-3.3378
0
LINE
8
BLACK
6
CONTINUOUS
10
4.67559
20
-3.3378
11
4.67559
21
-3.23898
0
LINE
8
BLACK
6
CONTINUOUS
10
4.67559
20
-3.23898
11
4.67619
21
-3.23596
0
LINE
8
BLACK
6
CONTINUOUS
10
4.67619
20
-3.23596
11
4.6779
21
-3.23341
0
LINE
8
BLACK
6
CONTINUOUS
10
4.6779
20
-3.23341
11
4.68045
21
-3.2317
0
LINE
8
BLACK
6
CONTINUOUS
10
4.68045
20
-3.2317
11
4.68346
21
-3.2311
0
LINE
8
BLACK
6
CONTINUOUS
10
4.68346
20
-3.2311
11
4.72283
21
-3.2311
0
LINE
8
BLACK
6
CONTINUOUS
10
4.72283
20
-3.2311
11
4.72585
21
-3.2317
0
LINE
8
BLACK
6
CONTINUOUS
10
4.82585
20
-3.10139
11
4.8284
21
-3.10309
0
LINE
8
BLACK
6
CONTINUOUS
10
4.8284
20
-3.10309
11
4.83011
21
-3.10565
0
LINE
8
BLACK
6
CONTINUOUS
10
4.83011
20
-3.10565
11
4.83071
21
-3.10866
0
LINE
8
BLACK
6
CONTINUOUS
10
4.83071
20
-3.10866
11
4.83071
21
-3.20748
0
LINE
8
BLACK
6
CONTINUOUS
10
4.83071
20
-3.20748
11
4.83011
21
-3.21049
0
LINE
8
BLACK
6
CONTINUOUS
10
4.83011
20
-3.21049
11
4.8284
21
-3.21305
0
LINE
8
BLACK
6
CONTINUOUS
10
4.8284
20
-3.21305
11
4.82585
21
-3.21475
0
LINE
8
BLACK
6
CONTINUOUS
10
4.82585
20
-3.21475
11
4.82283
21
-3.21535
0
LINE
8
BLACK
6
CONTINUOUS
10
4.82283
20
-3.21535
11
4.78346
21
-3.21535
0
LINE
8
BLACK
6
CONTINUOUS
10
4.78346
20
-3.21535
11
4.78045
21
-3.21475
0
LINE
8
BLACK
6
CONTINUOUS
10
4.78045
20
-3.21475
11
4.7779
21
-3.21305
0
LINE
8
BLACK
6
CONTINUOUS
10
4.7779
20
-3.21305
11
4.77619
21
-3.21049
0
LINE
8
BLACK
6
CONTINUOUS
10
4.77619
20
-3.21049
11
4.77559
21
-3.20748
0
LINE
8
BLACK
6
CONTINUOUS
10
4.77559
20
-3.20748
11
4.77559
21
-3.10866
0
LINE
8
BLACK
6
CONTINUOUS
10
4.77559
20
-3.10866
11
4.77619
21
-3.10565
0
LINE
8
BLACK
6
CONTINUOUS
10
4.77619
20
-3.10565
11
4.7779
21
-3.10309
0
LINE
8
BLACK
6
CONTINUOUS
10
4.7779
20
-3.10309
11
4.78045
21
-3.10139
0
LINE
8
BLACK
6
CONTINUOUS
10
4.78045
20
-3.10139
11
4.78346
21
-3.10079
0
LINE
8
BLACK
6
CONTINUOUS
10
4.78346
20
-3.10079
11
4.82283
21
-3.10079
0
LINE
8
BLACK
6
CONTINUOUS
10
4.82283
20
-3.10079
11
4.82585
21
-3.10139
0
LINE
8
BLACK
6
CONTINUOUS
10
4.51
20
-2.64424
11
4.52385
21
-2.64668
0
LINE
8
BLACK
6
CONTINUOUS
10
4.52385
20
-2.64668
11
4.53735
21
-2.65065
0
LINE
8
BLACK
6
CONTINUOUS
10
4.53735
20
-2.65065
11
4.55031
21
-2.6561
0
LINE
8
BLACK
6
CONTINUOUS
10
4.55031
20
-2.6561
11
4.56259
21
-2.66296
0
LINE
8
BLACK
6
CONTINUOUS
10
4.56259
20
-2.66296
11
4.57403
21
-2.67115
0
LINE
8
BLACK
6
CONTINUOUS
10
4.57403
20
-2.67115
11
4.58448
21
-2.68056
0
LINE
8
BLACK
6
CONTINUOUS
10
4.58448
20
-2.68056
11
4.59382
21
-2.69108
0
LINE
8
BLACK
6
CONTINUOUS
10
4.59382
20
-2.69108
11
4.60193
21
-2.70257
0
LINE
8
BLACK
6
CONTINUOUS
10
4.60193
20
-2.70257
11
4.6087
21
-2.7149
0
LINE
8
BLACK
6
CONTINUOUS
10
4.6087
20
-2.7149
11
4.61406
21
-2.7279
0
LINE
8
BLACK
6
CONTINUOUS
10
4.61406
20
-2.7279
11
4.61794
21
-2.74142
0
LINE
8
BLACK
6
CONTINUOUS
10
4.61794
20
-2.74142
11
4.62028
21
-2.75529
0
LINE
8
BLACK
6
CONTINUOUS
10
4.62028
20
-2.75529
11
4.62107
21
-2.76934
0
LINE
8
BLACK
6
CONTINUOUS
10
4.62107
20
-2.76934
11
4.62102
21
-2.77285
0
LINE
8
BLACK
6
CONTINUOUS
10
4.62102
20
-2.77285
11
4.61984
21
-2.78687
0
LINE
8
BLACK
6
CONTINUOUS
10
4.61984
20
-2.78687
11
4.61711
21
-2.80067
0
LINE
8
BLACK
6
CONTINUOUS
10
4.61711
20
-2.80067
11
4.61286
21
-2.81407
0
LINE
8
BLACK
6
CONTINUOUS
10
4.61286
20
-2.81407
11
4.60714
21
-2.82692
0
LINE
8
BLACK
6
CONTINUOUS
10
4.60714
20
-2.82692
11
4.60002
21
-2.83906
0
LINE
8
BLACK
6
CONTINUOUS
10
4.60002
20
-2.83906
11
4.5916
21
-2.85032
0
LINE
8
BLACK
6
CONTINUOUS
10
4.5916
20
-2.85032
11
4.58197
21
-2.86057
0
LINE
8
BLACK
6
CONTINUOUS
10
4.58197
20
-2.86057
11
4.57126
21
-2.86969
0
LINE
8
BLACK
6
CONTINUOUS
10
4.57126
20
-2.86969
11
4.5596
21
-2.87755
0
LINE
8
BLACK
6
CONTINUOUS
10
4.5596
20
-2.87755
11
4.54713
21
-2.88407
0
LINE
8
BLACK
6
CONTINUOUS
10
4.54713
20
-2.88407
11
4.53402
21
-2.88915
0
LINE
8
BLACK
6
CONTINUOUS
10
4.53402
20
-2.88915
11
4.52042
21
-2.89275
0
LINE
8
BLACK
6
CONTINUOUS
10
4.52042
20
-2.89275
11
4.5065
21
-2.8948
0
LINE
8
BLACK
6
CONTINUOUS
10
4.5065
20
-2.8948
11
4.49245
21
-2.89529
0
LINE
8
BLACK
6
CONTINUOUS
10
4.49245
20
-2.89529
11
4.47842
21
-2.89421
0
LINE
8
BLACK
6
CONTINUOUS
10
4.47842
20
-2.89421
11
4.46461
21
-2.89158
0
LINE
8
BLACK
6
CONTINUOUS
10
4.46461
20
-2.89158
11
4.45117
21
-2.88742
0
LINE
8
BLACK
6
CONTINUOUS
10
4.45117
20
-2.88742
11
4.43828
21
-2.88179
0
LINE
8
BLACK
6
CONTINUOUS
10
4.43828
20
-2.88179
11
4.4261
21
-2.87476
0
LINE
8
BLACK
6
CONTINUOUS
10
4.4261
20
-2.87476
11
4.41478
21
-2.86641
0
LINE
8
BLACK
6
CONTINUOUS
10
4.41478
20
-2.86641
11
4.40446
21
-2.85685
0
LINE
8
BLACK
6
CONTINUOUS
10
4.40446
20
-2.85685
11
4.39527
21
-2.84621
0
LINE
8
BLACK
6
CONTINUOUS
10
4.39527
20
-2.84621
11
4.38732
21
-2.8346
0
LINE
8
BLACK
6
CONTINUOUS
10
4.38732
20
-2.8346
11
4.38072
21
-2.82218
0
LINE
8
BLACK
6
CONTINUOUS
10
4.38072
20
-2.82218
11
4.37554
21
-2.8091
0
LINE
8
BLACK
6
CONTINUOUS
10
4.37554
20
-2.8091
11
4.37185
21
-2.79553
0
LINE
8
BLACK
6
CONTINUOUS
10
4.37185
20
-2.79553
11
4.3697
21
-2.78163
0
LINE
8
BLACK
6
CONTINUOUS
10
4.3697
20
-2.78163
11
4.36911
21
-2.76758
0
LINE
8
BLACK
6
CONTINUOUS
10
4.36911
20
-2.76758
11
4.37009
21
-2.75355
0
LINE
8
BLACK
6
CONTINUOUS
10
4.37009
20
-2.75355
11
4.37263
21
-2.73971
0
LINE
8
BLACK
6
CONTINUOUS
10
4.37263
20
-2.73971
11
4.3767
21
-2.72625
0
LINE
8
BLACK
6
CONTINUOUS
10
4.3767
20
-2.72625
11
4.38224
21
-2.71332
0
LINE
8
BLACK
6
CONTINUOUS
10
4.38224
20
-2.71332
11
4.38919
21
-2.70109
0
LINE
8
BLACK
6
CONTINUOUS
10
4.38919
20
-2.70109
11
4.39745
21
-2.68971
0
LINE
8
BLACK
6
CONTINUOUS
10
4.39745
20
-2.68971
11
4.40694
21
-2.67932
0
LINE
8
BLACK
6
CONTINUOUS
10
4.40694
20
-2.67932
11
4.41752
21
-2.67006
0
LINE
8
BLACK
6
CONTINUOUS
10
4.41752
20
-2.67006
11
4.42907
21
-2.66203
0
LINE
8
BLACK
6
CONTINUOUS
10
4.42907
20
-2.66203
11
4.44144
21
-2.65534
0
LINE
8
BLACK
6
CONTINUOUS
10
4.44144
20
-2.65534
11
4.45449
21
-2.65007
0
LINE
8
BLACK
6
CONTINUOUS
10
4.45449
20
-2.65007
11
4.46803
21
-2.64629
0
LINE
8
BLACK
6
CONTINUOUS
10
4.46803
20
-2.64629
11
4.48192
21
-2.64404
0
LINE
8
BLACK
6
CONTINUOUS
10
4.48192
20
-2.64404
11
4.49597
21
-2.64336
0
LINE
8
BLACK
6
CONTINUOUS
10
4.49597
20
-2.64336
11
4.51
21
-2.64424
  0
ENDSEC
  0
EOF
