  0
SECTION
  2
HEADER
  9
$ANGBASE
  50
0.0
  9
$ANGDIR
  70
1
  9
$MEASUREMENT
  70
0
  0
ENDSEC
  0
SECTION
  2
TABLES
  0
TABLE
  2
LTYPE
  70
4
  0
LTYPE
  5
40F
  2
CONTINUOUS
  70
0
  3
Solid line
  72
65
  73
0
  40
0.0
  0
LTYPE
  5
410
  2
DASHDOT
 70
0
  3
Dash Dot ____ _ ____ _
 72
65
 73
4
 40
2.0
 49
1.25
 49
-0.25
 49
0.25
 49
-0.25
  0
LTYPE
  5
411
  2
DASHED
 70
0
  3
Dashed __ __ __ __ __
 72
65
 73
2
 40
0.75
 49
0.5
 49
-0.25
  0
LTYPE
  5
43B
  2
DOTTED
 70
0
  3
Dotted .  .  .  .
 72
65
 73
2
 40
0.2
 49
0.0
 49
-0.2
  0
ENDTAB
  0
TABLE
  2
STYLE
  70
4
  0
STYLE
  2
KICAD
  70
0
  40
0
  41
1
  42
1
  50
0
  71
0
  3
isocp.shx
  0
STYLE
  2
KICADB
  70
0
  40
0
  41
1
  42
1
  50
0
  71
0
  3
isocp.shx
  0
STYLE
  2
KICADI
  70
0
  40
0
  41
1
  42
1
  50
15
  71
0
  3
isocp.shx
  0
STYLE
  2
KICADBI
  70
0
  40
0
  41
1
  42
1
  50
15
  71
0
  3
isocp.shx
  0
ENDTAB
  0
TABLE
  2
LAYER
  70
1
  0
LAYER
  2
BLACK
  70
0
  62
7
  6
CONTINUOUS
  0
ENDTAB
  0
ENDSEC
  0
SECTION
  2
ENTITIES
0
LINE
8
BLACK
6
CONTINUOUS
10
0.428564
20
-1.6558
11
0.430726
21
-1.65796
0
LINE
8
BLACK
6
CONTINUOUS
10
0.430726
20
-1.65796
11
0.431517
21
-1.66091
0
LINE
8
BLACK
6
CONTINUOUS
10
0.431517
20
-1.66091
11
0.431517
21
-1.71997
0
LINE
8
BLACK
6
CONTINUOUS
10
0.431517
20
-1.71997
11
0.430726
21
-1.72292
0
LINE
8
BLACK
6
CONTINUOUS
10
0.430726
20
-1.72292
11
0.428564
21
-1.72508
0
LINE
8
BLACK
6
CONTINUOUS
10
0.428564
20
-1.72508
11
0.425612
21
-1.72587
0
LINE
8
BLACK
6
CONTINUOUS
10
0.425612
20
-1.72587
11
0.403114
21
-1.72587
0
LINE
8
BLACK
6
CONTINUOUS
10
0.403114
20
-1.72587
11
0.401803
21
-1.72552
0
LINE
8
BLACK
6
CONTINUOUS
10
0.401803
20
-1.72552
11
0.400473
21
-1.72525
0
LINE
8
BLACK
6
CONTINUOUS
10
0.400473
20
-1.72525
11
0.394849
21
-1.72244
0
LINE
8
BLACK
6
CONTINUOUS
10
0.394849
20
-1.72244
11
0.394138
21
-1.72181
0
LINE
8
BLACK
6
CONTINUOUS
10
0.394138
20
-1.72181
11
0.393314
21
-1.72133
0
LINE
8
BLACK
6
CONTINUOUS
10
0.393314
20
-1.72133
11
0.390502
21
-1.71852
0
LINE
8
BLACK
6
CONTINUOUS
10
0.390502
20
-1.71852
11
0.390027
21
-1.7177
0
LINE
8
BLACK
6
CONTINUOUS
10
0.390027
20
-1.7177
11
0.389396
21
-1.71698
0
LINE
8
BLACK
6
CONTINUOUS
10
0.389396
20
-1.71698
11
0.386584
21
-1.71136
0
LINE
8
BLACK
6
CONTINUOUS
10
0.386584
20
-1.71136
11
0.386312
21
-1.71003
0
LINE
8
BLACK
6
CONTINUOUS
10
0.386312
20
-1.71003
11
0.38596
21
-1.70872
0
LINE
8
BLACK
6
CONTINUOUS
10
0.38596
20
-1.70872
11
0.38596
21
-1.70028
0
LINE
8
BLACK
6
CONTINUOUS
10
0.38596
20
-1.70028
11
0.386312
21
-1.69897
0
LINE
8
BLACK
6
CONTINUOUS
10
0.386312
20
-1.69897
11
0.386584
21
-1.69764
0
LINE
8
BLACK
6
CONTINUOUS
10
0.386584
20
-1.69764
11
0.389396
21
-1.69202
0
LINE
8
BLACK
6
CONTINUOUS
10
0.389396
20
-1.69202
11
0.390027
21
-1.69131
0
LINE
8
BLACK
6
CONTINUOUS
10
0.390027
20
-1.69131
11
0.390502
21
-1.69048
0
LINE
8
BLACK
6
CONTINUOUS
10
0.390502
20
-1.69048
11
0.393314
21
-1.68767
0
LINE
8
BLACK
6
CONTINUOUS
10
0.393314
20
-1.68767
11
0.393368
21
-1.68764
0
LINE
8
BLACK
6
CONTINUOUS
10
0.393368
20
-1.68764
11
0.393314
21
-1.68759
0
LINE
8
BLACK
6
CONTINUOUS
10
0.393314
20
-1.68759
11
0.392839
21
-1.68676
0
LINE
8
BLACK
6
CONTINUOUS
10
0.392839
20
-1.68676
11
0.392208
21
-1.68605
0
LINE
8
BLACK
6
CONTINUOUS
10
0.392208
20
-1.68605
11
0.389396
21
-1.68043
0
LINE
8
BLACK
6
CONTINUOUS
10
0.389396
20
-1.68043
11
0.389124
21
-1.6791
0
LINE
8
BLACK
6
CONTINUOUS
10
0.389124
20
-1.6791
11
0.388772
21
-1.67779
0
LINE
8
BLACK
6
CONTINUOUS
10
0.388772
20
-1.67779
11
0.388772
21
-1.67216
0
LINE
8
BLACK
6
CONTINUOUS
10
0.388772
20
-1.67216
11
0.389124
21
-1.67085
0
LINE
8
BLACK
6
CONTINUOUS
10
0.389124
20
-1.67085
11
0.389396
21
-1.66952
0
LINE
8
BLACK
6
CONTINUOUS
10
0.389396
20
-1.66952
11
0.392208
21
-1.6639
0
LINE
8
BLACK
6
CONTINUOUS
10
0.392208
20
-1.6639
11
0.392839
21
-1.66318
0
LINE
8
BLACK
6
CONTINUOUS
10
0.392839
20
-1.66318
11
0.393314
21
-1.66236
0
LINE
8
BLACK
6
CONTINUOUS
10
0.393314
20
-1.66236
11
0.396126
21
-1.65955
0
LINE
8
BLACK
6
CONTINUOUS
10
0.396126
20
-1.65955
11
0.39695
21
-1.65907
0
LINE
8
BLACK
6
CONTINUOUS
10
0.39695
20
-1.65907
11
0.397661
21
-1.65844
0
LINE
8
BLACK
6
CONTINUOUS
10
0.397661
20
-1.65844
11
0.403286
21
-1.65563
0
LINE
8
BLACK
6
CONTINUOUS
10
0.403286
20
-1.65563
11
0.404616
21
-1.65536
0
LINE
8
BLACK
6
CONTINUOUS
10
0.404616
20
-1.65536
11
0.405927
21
-1.65501
0
LINE
8
BLACK
6
CONTINUOUS
10
0.405927
20
-1.65501
11
0.425612
21
-1.65501
0
LINE
8
BLACK
6
CONTINUOUS
10
0.425612
20
-1.65501
11
0.428564
21
-1.6558
0
LINE
8
BLACK
6
CONTINUOUS
10
0.40068
20
-1.69701
11
0.399531
21
-1.69816
0
LINE
8
BLACK
6
CONTINUOUS
10
0.399531
20
-1.69816
11
0.397771
21
-1.70168
0
LINE
8
BLACK
6
CONTINUOUS
10
0.397771
20
-1.70168
11
0.397771
21
-1.70733
0
LINE
8
BLACK
6
CONTINUOUS
10
0.397771
20
-1.70733
11
0.399531
21
-1.71085
0
LINE
8
BLACK
6
CONTINUOUS
10
0.399531
20
-1.71085
11
0.400988
21
-1.7123
0
LINE
8
BLACK
6
CONTINUOUS
10
0.400988
20
-1.7123
11
0.404509
21
-1.71406
0
LINE
8
BLACK
6
CONTINUOUS
10
0.404509
20
-1.71406
11
0.419706
21
-1.71406
0
LINE
8
BLACK
6
CONTINUOUS
10
0.419706
20
-1.71406
11
0.419706
21
-1.69494
0
LINE
8
BLACK
6
CONTINUOUS
10
0.419706
20
-1.69494
11
0.406885
21
-1.69494
0
LINE
8
BLACK
6
CONTINUOUS
10
0.406885
20
-1.69494
11
0.40068
21
-1.69701
0
LINE
8
BLACK
6
CONTINUOUS
10
0.4038
20
-1.66858
11
0.402344
21
-1.67004
0
LINE
8
BLACK
6
CONTINUOUS
10
0.402344
20
-1.67004
11
0.400583
21
-1.67356
0
LINE
8
BLACK
6
CONTINUOUS
10
0.400583
20
-1.67356
11
0.400583
21
-1.67639
0
LINE
8
BLACK
6
CONTINUOUS
10
0.400583
20
-1.67639
11
0.402344
21
-1.67991
0
LINE
8
BLACK
6
CONTINUOUS
10
0.402344
20
-1.67991
11
0.4038
21
-1.68137
0
LINE
8
BLACK
6
CONTINUOUS
10
0.4038
20
-1.68137
11
0.407321
21
-1.68313
0
LINE
8
BLACK
6
CONTINUOUS
10
0.407321
20
-1.68313
11
0.419706
21
-1.68313
0
LINE
8
BLACK
6
CONTINUOUS
10
0.419706
20
-1.68313
11
0.419706
21
-1.66682
0
LINE
8
BLACK
6
CONTINUOUS
10
0.419706
20
-1.66682
11
0.407321
21
-1.66682
0
LINE
8
BLACK
6
CONTINUOUS
10
0.407321
20
-1.66682
11
0.4038
21
-1.66858
0
LINE
8
BLACK
6
CONTINUOUS
10
0.52699
20
-1.6558
11
0.529151
21
-1.65796
0
LINE
8
BLACK
6
CONTINUOUS
10
0.529151
20
-1.65796
11
0.529942
21
-1.66091
0
LINE
8
BLACK
6
CONTINUOUS
10
0.529942
20
-1.66091
11
0.529942
21
-1.71997
0
LINE
8
BLACK
6
CONTINUOUS
10
0.529942
20
-1.71997
11
0.529151
21
-1.72292
0
LINE
8
BLACK
6
CONTINUOUS
10
0.529151
20
-1.72292
11
0.52699
21
-1.72508
0
LINE
8
BLACK
6
CONTINUOUS
10
0.52699
20
-1.72508
11
0.524037
21
-1.72587
0
LINE
8
BLACK
6
CONTINUOUS
10
0.524037
20
-1.72587
11
0.495915
21
-1.72587
0
LINE
8
BLACK
6
CONTINUOUS
10
0.495915
20
-1.72587
11
0.492963
21
-1.72508
0
LINE
8
BLACK
6
CONTINUOUS
10
0.492963
20
-1.72508
11
0.490801
21
-1.72292
0
LINE
8
BLACK
6
CONTINUOUS
10
0.490801
20
-1.72292
11
0.490371
21
-1.72131
0
LINE
8
BLACK
6
CONTINUOUS
10
0.490371
20
-1.72131
11
0.489085
21
-1.72389
0
LINE
8
BLACK
6
CONTINUOUS
10
0.489085
20
-1.72389
11
0.486534
21
-1.72557
0
LINE
8
BLACK
6
CONTINUOUS
10
0.486534
20
-1.72557
11
0.483483
21
-1.72575
0
LINE
8
BLACK
6
CONTINUOUS
10
0.483483
20
-1.72575
11
0.480749
21
-1.72439
0
LINE
8
BLACK
6
CONTINUOUS
10
0.480749
20
-1.72439
11
0.479064
21
-1.72184
0
LINE
8
BLACK
6
CONTINUOUS
10
0.479064
20
-1.72184
11
0.474786
21
-1.709
0
LINE
8
BLACK
6
CONTINUOUS
10
0.474786
20
-1.709
11
0.455177
21
-1.709
0
LINE
8
BLACK
6
CONTINUOUS
10
0.455177
20
-1.709
11
0.450899
21
-1.72184
0
LINE
8
BLACK
6
CONTINUOUS
10
0.450899
20
-1.72184
11
0.449215
21
-1.72439
0
LINE
8
BLACK
6
CONTINUOUS
10
0.449215
20
-1.72439
11
0.446481
21
-1.72575
0
LINE
8
BLACK
6
CONTINUOUS
10
0.446481
20
-1.72575
11
0.443429
21
-1.72557
0
LINE
8
BLACK
6
CONTINUOUS
10
0.443429
20
-1.72557
11
0.440878
21
-1.72389
0
LINE
8
BLACK
6
CONTINUOUS
10
0.440878
20
-1.72389
11
0.439511
21
-1.72115
0
LINE
8
BLACK
6
CONTINUOUS
10
0.439511
20
-1.72115
11
0.439694
21
-1.7181
0
LINE
8
BLACK
6
CONTINUOUS
10
0.439694
20
-1.7181
11
0.459379
21
-1.65905
0
LINE
8
BLACK
6
CONTINUOUS
10
0.459379
20
-1.65905
11
0.460033
21
-1.65806
0
LINE
8
BLACK
6
CONTINUOUS
10
0.460033
20
-1.65806
11
0.460563
21
-1.65699
0
LINE
8
BLACK
6
CONTINUOUS
10
0.460563
20
-1.65699
11
0.460864
21
-1.6568
0
LINE
8
BLACK
6
CONTINUOUS
10
0.460864
20
-1.6568
11
0.461064
21
-1.65649
0
LINE
8
BLACK
6
CONTINUOUS
10
0.461064
20
-1.65649
11
0.462125
21
-1.65596
0
LINE
8
BLACK
6
CONTINUOUS
10
0.462125
20
-1.65596
11
0.463114
21
-1.65531
0
LINE
8
BLACK
6
CONTINUOUS
10
0.463114
20
-1.65531
11
0.463475
21
-1.65529
0
LINE
8
BLACK
6
CONTINUOUS
10
0.463475
20
-1.65529
11
0.463798
21
-1.65513
0
LINE
8
BLACK
6
CONTINUOUS
10
0.463798
20
-1.65513
11
0.464982
21
-1.6552
0
LINE
8
BLACK
6
CONTINUOUS
10
0.464982
20
-1.6552
11
0.466166
21
-1.65513
0
LINE
8
BLACK
6
CONTINUOUS
10
0.466166
20
-1.65513
11
0.466489
21
-1.65529
0
LINE
8
BLACK
6
CONTINUOUS
10
0.466489
20
-1.65529
11
0.466849
21
-1.65531
0
LINE
8
BLACK
6
CONTINUOUS
10
0.466849
20
-1.65531
11
0.467839
21
-1.65596
0
LINE
8
BLACK
6
CONTINUOUS
10
0.467839
20
-1.65596
11
0.4689
21
-1.65649
0
LINE
8
BLACK
6
CONTINUOUS
10
0.4689
20
-1.65649
11
0.469099
21
-1.6568
0
LINE
8
BLACK
6
CONTINUOUS
10
0.469099
20
-1.6568
11
0.4694
21
-1.65699
0
LINE
8
BLACK
6
CONTINUOUS
10
0.4694
20
-1.65699
11
0.469931
21
-1.65806
0
LINE
8
BLACK
6
CONTINUOUS
10
0.469931
20
-1.65806
11
0.470584
21
-1.65905
0
LINE
8
BLACK
6
CONTINUOUS
10
0.470584
20
-1.65905
11
0.490269
21
-1.7181
0
LINE
8
BLACK
6
CONTINUOUS
10
0.490269
20
-1.7181
11
0.490313
21
-1.71884
0
LINE
8
BLACK
6
CONTINUOUS
10
0.490313
20
-1.71884
11
0.490801
21
-1.71702
0
LINE
8
BLACK
6
CONTINUOUS
10
0.490801
20
-1.71702
11
0.492963
21
-1.71485
0
LINE
8
BLACK
6
CONTINUOUS
10
0.492963
20
-1.71485
11
0.495915
21
-1.71406
0
LINE
8
BLACK
6
CONTINUOUS
10
0.495915
20
-1.71406
11
0.518131
21
-1.71406
0
LINE
8
BLACK
6
CONTINUOUS
10
0.518131
20
-1.71406
11
0.518131
21
-1.66091
0
LINE
8
BLACK
6
CONTINUOUS
10
0.518131
20
-1.66091
11
0.518922
21
-1.65796
0
LINE
8
BLACK
6
CONTINUOUS
10
0.518922
20
-1.65796
11
0.521084
21
-1.6558
0
LINE
8
BLACK
6
CONTINUOUS
10
0.521084
20
-1.6558
11
0.524037
21
-1.65501
0
LINE
8
BLACK
6
CONTINUOUS
10
0.524037
20
-1.65501
11
0.52699
21
-1.6558
0
LINE
8
BLACK
6
CONTINUOUS
10
0.459114
20
-1.69719
11
0.470849
21
-1.69719
0
LINE
8
BLACK
6
CONTINUOUS
10
0.470849
20
-1.69719
11
0.464982
21
-1.67959
0
LINE
8
BLACK
6
CONTINUOUS
10
0.464982
20
-1.67959
11
0.459114
21
-1.69719
0
LINE
8
BLACK
6
CONTINUOUS
10
0.592765
20
-1.65534
11
0.594026
21
-1.65556
0
LINE
8
BLACK
6
CONTINUOUS
10
0.594026
20
-1.65556
11
0.594227
21
-1.65573
0
LINE
8
BLACK
6
CONTINUOUS
10
0.594227
20
-1.65573
11
0.594481
21
-1.6558
0
LINE
8
BLACK
6
CONTINUOUS
10
0.594481
20
-1.6558
11
0.595386
21
-1.6567
0
LINE
8
BLACK
6
CONTINUOUS
10
0.595386
20
-1.6567
11
0.596367
21
-1.65753
0
LINE
8
BLACK
6
CONTINUOUS
10
0.596367
20
-1.65753
11
0.596457
21
-1.65777
0
LINE
8
BLACK
6
CONTINUOUS
10
0.596457
20
-1.65777
11
0.596643
21
-1.65796
0
LINE
8
BLACK
6
CONTINUOUS
10
0.596643
20
-1.65796
11
0.596974
21
-1.6592
0
LINE
8
BLACK
6
CONTINUOUS
10
0.596974
20
-1.6592
11
0.597412
21
-1.6604
0
LINE
8
BLACK
6
CONTINUOUS
10
0.597412
20
-1.6604
11
0.597366
21
-1.66066
0
LINE
8
BLACK
6
CONTINUOUS
10
0.597366
20
-1.66066
11
0.597434
21
-1.66091
0
LINE
8
BLACK
6
CONTINUOUS
10
0.597434
20
-1.66091
11
0.597434
21
-1.71997
0
LINE
8
BLACK
6
CONTINUOUS
10
0.597434
20
-1.71997
11
0.596643
21
-1.72292
0
LINE
8
BLACK
6
CONTINUOUS
10
0.596643
20
-1.72292
11
0.594481
21
-1.72508
0
LINE
8
BLACK
6
CONTINUOUS
10
0.594481
20
-1.72508
11
0.591528
21
-1.72587
0
LINE
8
BLACK
6
CONTINUOUS
10
0.591528
20
-1.72587
11
0.588576
21
-1.72508
0
LINE
8
BLACK
6
CONTINUOUS
10
0.588576
20
-1.72508
11
0.586414
21
-1.72292
0
LINE
8
BLACK
6
CONTINUOUS
10
0.586414
20
-1.72292
11
0.585623
21
-1.71997
0
LINE
8
BLACK
6
CONTINUOUS
10
0.585623
20
-1.71997
11
0.585623
21
-1.68753
0
LINE
8
BLACK
6
CONTINUOUS
10
0.585623
20
-1.68753
11
0.577195
21
-1.70559
0
LINE
8
BLACK
6
CONTINUOUS
10
0.577195
20
-1.70559
11
0.57686
21
-1.70599
0
LINE
8
BLACK
6
CONTINUOUS
10
0.57686
20
-1.70599
11
0.576682
21
-1.70648
0
LINE
8
BLACK
6
CONTINUOUS
10
0.576682
20
-1.70648
11
0.575892
21
-1.70714
0
LINE
8
BLACK
6
CONTINUOUS
10
0.575892
20
-1.70714
11
0.575229
21
-1.70793
0
LINE
8
BLACK
6
CONTINUOUS
10
0.575229
20
-1.70793
11
0.57474
21
-1.70811
0
LINE
8
BLACK
6
CONTINUOUS
10
0.57474
20
-1.70811
11
0.574341
21
-1.70845
0
LINE
8
BLACK
6
CONTINUOUS
10
0.574341
20
-1.70845
11
0.573325
21
-1.70863
0
LINE
8
BLACK
6
CONTINUOUS
10
0.573325
20
-1.70863
11
0.572356
21
-1.70898
0
LINE
8
BLACK
6
CONTINUOUS
10
0.572356
20
-1.70898
11
0.571843
21
-1.70889
0
LINE
8
BLACK
6
CONTINUOUS
10
0.571843
20
-1.70889
11
0.57133
21
-1.70898
0
LINE
8
BLACK
6
CONTINUOUS
10
0.57133
20
-1.70898
11
0.570361
21
-1.70863
0
LINE
8
BLACK
6
CONTINUOUS
10
0.570361
20
-1.70863
11
0.569346
21
-1.70845
0
LINE
8
BLACK
6
CONTINUOUS
10
0.569346
20
-1.70845
11
0.568947
21
-1.70811
0
LINE
8
BLACK
6
CONTINUOUS
10
0.568947
20
-1.70811
11
0.568458
21
-1.70793
0
LINE
8
BLACK
6
CONTINUOUS
10
0.568458
20
-1.70793
11
0.567794
21
-1.70714
0
LINE
8
BLACK
6
CONTINUOUS
10
0.567794
20
-1.70714
11
0.567005
21
-1.70648
0
LINE
8
BLACK
6
CONTINUOUS
10
0.567005
20
-1.70648
11
0.566827
21
-1.70599
0
LINE
8
BLACK
6
CONTINUOUS
10
0.566827
20
-1.70599
11
0.566492
21
-1.70559
0
LINE
8
BLACK
6
CONTINUOUS
10
0.566492
20
-1.70559
11
0.558064
21
-1.68753
0
LINE
8
BLACK
6
CONTINUOUS
10
0.558064
20
-1.68753
11
0.558064
21
-1.71997
0
LINE
8
BLACK
6
CONTINUOUS
10
0.558064
20
-1.71997
11
0.557273
21
-1.72292
0
LINE
8
BLACK
6
CONTINUOUS
10
0.557273
20
-1.72292
11
0.555111
21
-1.72508
0
LINE
8
BLACK
6
CONTINUOUS
10
0.555111
20
-1.72508
11
0.552158
21
-1.72587
0
LINE
8
BLACK
6
CONTINUOUS
10
0.552158
20
-1.72587
11
0.549206
21
-1.72508
0
LINE
8
BLACK
6
CONTINUOUS
10
0.549206
20
-1.72508
11
0.547044
21
-1.72292
0
LINE
8
BLACK
6
CONTINUOUS
10
0.547044
20
-1.72292
11
0.546253
21
-1.71997
0
LINE
8
BLACK
6
CONTINUOUS
10
0.546253
20
-1.71997
11
0.546253
21
-1.66091
0
LINE
8
BLACK
6
CONTINUOUS
10
0.546253
20
-1.66091
11
0.546321
21
-1.66066
0
LINE
8
BLACK
6
CONTINUOUS
10
0.546321
20
-1.66066
11
0.546275
21
-1.6604
0
LINE
8
BLACK
6
CONTINUOUS
10
0.546275
20
-1.6604
11
0.546713
21
-1.6592
0
LINE
8
BLACK
6
CONTINUOUS
10
0.546713
20
-1.6592
11
0.547044
21
-1.65796
0
LINE
8
BLACK
6
CONTINUOUS
10
0.547044
20
-1.65796
11
0.54723
21
-1.65777
0
LINE
8
BLACK
6
CONTINUOUS
10
0.54723
20
-1.65777
11
0.54732
21
-1.65753
0
LINE
8
BLACK
6
CONTINUOUS
10
0.54732
20
-1.65753
11
0.5483
21
-1.6567
0
LINE
8
BLACK
6
CONTINUOUS
10
0.5483
20
-1.6567
11
0.549206
21
-1.6558
0
LINE
8
BLACK
6
CONTINUOUS
10
0.549206
20
-1.6558
11
0.54946
21
-1.65573
0
LINE
8
BLACK
6
CONTINUOUS
10
0.54946
20
-1.65573
11
0.549661
21
-1.65556
0
LINE
8
BLACK
6
CONTINUOUS
10
0.549661
20
-1.65556
11
0.550922
21
-1.65534
0
LINE
8
BLACK
6
CONTINUOUS
10
0.550922
20
-1.65534
11
0.552158
21
-1.65501
0
LINE
8
BLACK
6
CONTINUOUS
10
0.552158
20
-1.65501
11
0.552412
21
-1.65508
0
LINE
8
BLACK
6
CONTINUOUS
10
0.552412
20
-1.65508
11
0.552671
21
-1.65503
0
LINE
8
BLACK
6
CONTINUOUS
10
0.552671
20
-1.65503
11
0.553874
21
-1.65547
0
LINE
8
BLACK
6
CONTINUOUS
10
0.553874
20
-1.65547
11
0.555111
21
-1.6558
0
LINE
8
BLACK
6
CONTINUOUS
10
0.555111
20
-1.6558
11
0.555297
21
-1.65598
0
LINE
8
BLACK
6
CONTINUOUS
10
0.555297
20
-1.65598
11
0.555544
21
-1.65607
0
LINE
8
BLACK
6
CONTINUOUS
10
0.555544
20
-1.65607
11
0.556367
21
-1.65705
0
LINE
8
BLACK
6
CONTINUOUS
10
0.556367
20
-1.65705
11
0.557273
21
-1.65796
0
LINE
8
BLACK
6
CONTINUOUS
10
0.557273
20
-1.65796
11
0.557341
21
-1.65821
0
LINE
8
BLACK
6
CONTINUOUS
10
0.557341
20
-1.65821
11
0.55751
21
-1.65842
0
LINE
8
BLACK
6
CONTINUOUS
10
0.55751
20
-1.65842
11
0.571843
21
-1.68913
0
LINE
8
BLACK
6
CONTINUOUS
10
0.571843
20
-1.68913
11
0.586177
21
-1.65842
0
LINE
8
BLACK
6
CONTINUOUS
10
0.586177
20
-1.65842
11
0.586346
21
-1.65821
0
LINE
8
BLACK
6
CONTINUOUS
10
0.586346
20
-1.65821
11
0.586414
21
-1.65796
0
LINE
8
BLACK
6
CONTINUOUS
10
0.586414
20
-1.65796
11
0.587319
21
-1.65705
0
LINE
8
BLACK
6
CONTINUOUS
10
0.587319
20
-1.65705
11
0.588143
21
-1.65607
0
LINE
8
BLACK
6
CONTINUOUS
10
0.588143
20
-1.65607
11
0.58839
21
-1.65598
0
LINE
8
BLACK
6
CONTINUOUS
10
0.58839
20
-1.65598
11
0.588576
21
-1.6558
0
LINE
8
BLACK
6
CONTINUOUS
10
0.588576
20
-1.6558
11
0.589812
21
-1.65547
0
LINE
8
BLACK
6
CONTINUOUS
10
0.589812
20
-1.65547
11
0.591015
21
-1.65503
0
LINE
8
BLACK
6
CONTINUOUS
10
0.591015
20
-1.65503
11
0.591274
21
-1.65508
0
LINE
8
BLACK
6
CONTINUOUS
10
0.591274
20
-1.65508
11
0.591528
21
-1.65501
0
LINE
8
BLACK
6
CONTINUOUS
10
0.591528
20
-1.65501
11
0.592765
21
-1.65534
0
LINE
8
BLACK
6
CONTINUOUS
10
0.755545
20
0.189204
11
0.758271
21
0.18703
0
LINE
8
BLACK
6
CONTINUOUS
10
0.758271
20
0.18703
11
0.759784
21
0.183889
0
LINE
8
BLACK
6
CONTINUOUS
10
0.759784
20
0.183889
11
0.75998
21
0.182146
0
LINE
8
BLACK
6
CONTINUOUS
10
0.75998
20
0.182146
11
0.75998
21
-1.77992
0
LINE
8
BLACK
6
CONTINUOUS
10
0.75998
20
-1.77992
11
0.759204
21
-1.78331
0
LINE
8
BLACK
6
CONTINUOUS
10
0.759204
20
-1.78331
11
0.75703
21
-1.78604
0
LINE
8
BLACK
6
CONTINUOUS
10
0.75703
20
-1.78604
11
0.753889
21
-1.78755
0
LINE
8
BLACK
6
CONTINUOUS
10
0.753889
20
-1.78755
11
0.752146
21
-1.78775
0
LINE
8
BLACK
6
CONTINUOUS
10
0.752146
20
-1.78775
11
-0.182146
21
-1.78775
0
LINE
8
BLACK
6
CONTINUOUS
10
-0.182146
20
-1.78775
11
-0.185545
21
-1.78697
0
LINE
8
BLACK
6
CONTINUOUS
10
-0.185545
20
-1.78697
11
-0.188271
21
-1.7848
0
LINE
8
BLACK
6
CONTINUOUS
10
-0.188271
20
-1.7848
11
-0.189784
21
-1.78166
0
LINE
8
BLACK
6
CONTINUOUS
10
-0.189784
20
-1.78166
11
-0.18998
21
-1.77992
0
LINE
8
BLACK
6
CONTINUOUS
10
-0.18998
20
-1.77992
11
-0.18998
21
-1.62477
0
LINE
8
BLACK
6
CONTINUOUS
10
-0.18998
20
-1.62477
11
-0.18998
21
-0.720821
0
LINE
8
BLACK
6
CONTINUOUS
10
-0.18998
20
-0.720821
11
-0.18998
21
-0.5697
0
LINE
8
BLACK
6
CONTINUOUS
10
-0.18998
20
-0.5697
11
-0.18998
21
0.182146
0
LINE
8
BLACK
6
CONTINUOUS
10
-0.18998
20
0.182146
11
-0.189204
21
0.185545
0
LINE
8
BLACK
6
CONTINUOUS
10
-0.189204
20
0.185545
11
-0.18703
21
0.188271
0
LINE
8
BLACK
6
CONTINUOUS
10
-0.18703
20
0.188271
11
-0.183889
21
0.189784
0
LINE
8
BLACK
6
CONTINUOUS
10
-0.183889
20
0.189784
11
-0.182146
21
0.18998
0
LINE
8
BLACK
6
CONTINUOUS
10
-0.182146
20
0.18998
11
0.752146
21
0.18998
0
LINE
8
BLACK
6
CONTINUOUS
10
0.752146
20
0.18998
11
0.755545
21
0.189204
0
LINE
8
BLACK
6
CONTINUOUS
10
0.347555
20
-1.76176
11
0.638652
21
-1.76176
0
LINE
8
BLACK
6
CONTINUOUS
10
0.638652
20
-1.76176
11
0.638652
21
-1.62477
0
LINE
8
BLACK
6
CONTINUOUS
10
0.638652
20
-1.62477
11
0.347555
21
-1.62477
0
LINE
8
BLACK
6
CONTINUOUS
10
0.347555
20
-1.62477
11
0.347555
21
-1.76176
0
LINE
8
BLACK
6
CONTINUOUS
10
0.427749
20
-0.568459
11
0.415938
21
-0.568459
0
LINE
8
BLACK
6
CONTINUOUS
10
0.415938
20
-0.568459
11
0.415938
21
-0.691687
0
LINE
8
BLACK
6
CONTINUOUS
10
0.415938
20
-0.691687
11
0.415644
21
-0.692975
0
LINE
8
BLACK
6
CONTINUOUS
10
0.415644
20
-0.692975
11
0.415496
21
-0.694288
0
LINE
8
BLACK
6
CONTINUOUS
10
0.415496
20
-0.694288
11
0.415258
21
-0.694667
0
LINE
8
BLACK
6
CONTINUOUS
10
0.415258
20
-0.694667
11
0.415158
21
-0.695104
0
LINE
8
BLACK
6
CONTINUOUS
10
0.415158
20
-0.695104
11
0.414334
21
-0.696136
0
LINE
8
BLACK
6
CONTINUOUS
10
0.414334
20
-0.696136
11
0.413632
21
-0.697255
0
LINE
8
BLACK
6
CONTINUOUS
10
0.413632
20
-0.697255
11
0.394047
21
-0.716839
0
LINE
8
BLACK
6
CONTINUOUS
10
0.394047
20
-0.716839
11
0.394678
21
-0.720821
0
LINE
8
BLACK
6
CONTINUOUS
10
0.394678
20
-0.720821
11
0.393907
21
-0.725687
0
LINE
8
BLACK
6
CONTINUOUS
10
0.393907
20
-0.725687
11
0.39167
21
-0.730077
0
LINE
8
BLACK
6
CONTINUOUS
10
0.39167
20
-0.730077
11
0.388186
21
-0.733561
0
LINE
8
BLACK
6
CONTINUOUS
10
0.388186
20
-0.733561
11
0.383796
21
-0.735798
0
LINE
8
BLACK
6
CONTINUOUS
10
0.383796
20
-0.735798
11
0.37893
21
-0.736569
0
LINE
8
BLACK
6
CONTINUOUS
10
0.37893
20
-0.736569
11
0.374064
21
-0.735798
0
LINE
8
BLACK
6
CONTINUOUS
10
0.374064
20
-0.735798
11
0.369674
21
-0.733561
0
LINE
8
BLACK
6
CONTINUOUS
10
0.369674
20
-0.733561
11
0.36619
21
-0.730077
0
LINE
8
BLACK
6
CONTINUOUS
10
0.36619
20
-0.730077
11
0.363953
21
-0.725687
0
LINE
8
BLACK
6
CONTINUOUS
10
0.363953
20
-0.725687
11
0.363182
21
-0.720821
0
LINE
8
BLACK
6
CONTINUOUS
10
0.363182
20
-0.720821
11
0.363953
21
-0.715955
0
LINE
8
BLACK
6
CONTINUOUS
10
0.363953
20
-0.715955
11
0.36619
21
-0.711565
0
LINE
8
BLACK
6
CONTINUOUS
10
0.36619
20
-0.711565
11
0.369674
21
-0.708081
0
LINE
8
BLACK
6
CONTINUOUS
10
0.369674
20
-0.708081
11
0.374064
21
-0.705844
0
LINE
8
BLACK
6
CONTINUOUS
10
0.374064
20
-0.705844
11
0.37893
21
-0.705073
0
LINE
8
BLACK
6
CONTINUOUS
10
0.37893
20
-0.705073
11
0.382912
21
-0.705704
0
LINE
8
BLACK
6
CONTINUOUS
10
0.382912
20
-0.705704
11
0.40019
21
-0.688426
0
LINE
8
BLACK
6
CONTINUOUS
10
0.40019
20
-0.688426
11
0.40019
21
-0.568459
0
LINE
8
BLACK
6
CONTINUOUS
10
0.40019
20
-0.568459
11
0.388379
21
-0.568459
0
LINE
8
BLACK
6
CONTINUOUS
10
0.388379
20
-0.568459
11
0.388379
21
-0.46964
0
LINE
8
BLACK
6
CONTINUOUS
10
0.388379
20
-0.46964
11
0.427749
21
-0.46964
0
LINE
8
BLACK
6
CONTINUOUS
10
0.427749
20
-0.46964
11
0.427749
21
-0.568459
0
LINE
8
BLACK
6
CONTINUOUS
10
0.238127
20
-0.241277
11
0.242517
21
-0.243514
0
LINE
8
BLACK
6
CONTINUOUS
10
0.242517
20
-0.243514
11
0.246001
21
-0.246998
0
LINE
8
BLACK
6
CONTINUOUS
10
0.246001
20
-0.246998
11
0.248238
21
-0.251388
0
LINE
8
BLACK
6
CONTINUOUS
10
0.248238
20
-0.251388
11
0.249009
21
-0.256254
0
LINE
8
BLACK
6
CONTINUOUS
10
0.249009
20
-0.256254
11
0.248238
21
-0.261121
0
LINE
8
BLACK
6
CONTINUOUS
10
0.248238
20
-0.261121
11
0.246001
21
-0.265511
0
LINE
8
BLACK
6
CONTINUOUS
10
0.246001
20
-0.265511
11
0.242517
21
-0.268995
0
LINE
8
BLACK
6
CONTINUOUS
10
0.242517
20
-0.268995
11
0.238127
21
-0.271231
0
LINE
8
BLACK
6
CONTINUOUS
10
0.238127
20
-0.271231
11
0.233261
21
-0.272002
0
LINE
8
BLACK
6
CONTINUOUS
10
0.233261
20
-0.272002
11
0.229279
21
-0.271371
0
LINE
8
BLACK
6
CONTINUOUS
10
0.229279
20
-0.271371
11
0.215938
21
-0.284712
0
LINE
8
BLACK
6
CONTINUOUS
10
0.215938
20
-0.284712
11
0.215938
21
-0.46964
0
LINE
8
BLACK
6
CONTINUOUS
10
0.215938
20
-0.46964
11
0.227749
21
-0.46964
0
LINE
8
BLACK
6
CONTINUOUS
10
0.227749
20
-0.46964
11
0.227749
21
-0.568459
0
LINE
8
BLACK
6
CONTINUOUS
10
0.227749
20
-0.568459
11
0.188379
21
-0.568459
0
LINE
8
BLACK
6
CONTINUOUS
10
0.188379
20
-0.568459
11
0.188379
21
-0.46964
0
LINE
8
BLACK
6
CONTINUOUS
10
0.188379
20
-0.46964
11
0.20019
21
-0.46964
0
LINE
8
BLACK
6
CONTINUOUS
10
0.20019
20
-0.46964
11
0.20019
21
-0.281451
0
LINE
8
BLACK
6
CONTINUOUS
10
0.20019
20
-0.281451
11
0.200484
21
-0.280163
0
LINE
8
BLACK
6
CONTINUOUS
10
0.200484
20
-0.280163
11
0.200632
21
-0.27885
0
LINE
8
BLACK
6
CONTINUOUS
10
0.200632
20
-0.27885
11
0.20087
21
-0.278471
0
LINE
8
BLACK
6
CONTINUOUS
10
0.20087
20
-0.278471
11
0.20097
21
-0.278035
0
LINE
8
BLACK
6
CONTINUOUS
10
0.20097
20
-0.278035
11
0.201793
21
-0.277002
0
LINE
8
BLACK
6
CONTINUOUS
10
0.201793
20
-0.277002
11
0.202496
21
-0.275883
0
LINE
8
BLACK
6
CONTINUOUS
10
0.202496
20
-0.275883
11
0.218143
21
-0.260236
0
LINE
8
BLACK
6
CONTINUOUS
10
0.218143
20
-0.260236
11
0.217513
21
-0.256254
0
LINE
8
BLACK
6
CONTINUOUS
10
0.217513
20
-0.256254
11
0.218283
21
-0.251388
0
LINE
8
BLACK
6
CONTINUOUS
10
0.218283
20
-0.251388
11
0.22052
21
-0.246998
0
LINE
8
BLACK
6
CONTINUOUS
10
0.22052
20
-0.246998
11
0.224004
21
-0.243514
0
LINE
8
BLACK
6
CONTINUOUS
10
0.224004
20
-0.243514
11
0.228394
21
-0.241277
0
LINE
8
BLACK
6
CONTINUOUS
10
0.228394
20
-0.241277
11
0.233261
21
-0.240506
0
LINE
8
BLACK
6
CONTINUOUS
10
0.233261
20
-0.240506
11
0.238127
21
-0.241277
0
LINE
8
BLACK
6
CONTINUOUS
10
0.267513
20
-0.439778
11
0.267915
21
-0.443131
0
LINE
8
BLACK
6
CONTINUOUS
10
0.267915
20
-0.443131
11
0.270019
21
-0.448467
0
LINE
8
BLACK
6
CONTINUOUS
10
0.270019
20
-0.448467
11
0.27002
21
-0.448467
0
LINE
8
BLACK
6
CONTINUOUS
10
0.27002
20
-0.448467
11
0.273485
21
-0.453037
0
LINE
8
BLACK
6
CONTINUOUS
10
0.273485
20
-0.453037
11
0.273485
21
-0.453037
0
LINE
8
BLACK
6
CONTINUOUS
10
0.273485
20
-0.453037
11
0.278056
21
-0.456503
0
LINE
8
BLACK
6
CONTINUOUS
10
0.278056
20
-0.456503
11
0.278056
21
-0.456503
0
LINE
8
BLACK
6
CONTINUOUS
10
0.278056
20
-0.456503
11
0.283392
21
-0.458607
0
LINE
8
BLACK
6
CONTINUOUS
10
0.283392
20
-0.458607
11
0.286745
21
-0.45901
0
LINE
8
BLACK
6
CONTINUOUS
10
0.286745
20
-0.45901
11
0.298064
21
-0.45901
0
LINE
8
BLACK
6
CONTINUOUS
10
0.298064
20
-0.45901
11
0.298064
21
-0.438144
0
LINE
8
BLACK
6
CONTINUOUS
10
0.298064
20
-0.438144
11
0.288379
21
-0.438144
0
LINE
8
BLACK
6
CONTINUOUS
10
0.288379
20
-0.438144
11
0.288379
21
-0.398734
0
LINE
8
BLACK
6
CONTINUOUS
10
0.288379
20
-0.398734
11
0.267513
21
-0.398734
0
LINE
8
BLACK
6
CONTINUOUS
10
0.267513
20
-0.398734
11
0.267513
21
-0.439778
0
LINE
8
BLACK
6
CONTINUOUS
10
0.327749
20
-0.438144
11
0.318064
21
-0.438144
0
LINE
8
BLACK
6
CONTINUOUS
10
0.318064
20
-0.438144
11
0.318064
21
-0.45901
0
LINE
8
BLACK
6
CONTINUOUS
10
0.318064
20
-0.45901
11
0.329383
21
-0.45901
0
LINE
8
BLACK
6
CONTINUOUS
10
0.329383
20
-0.45901
11
0.332736
21
-0.458607
0
LINE
8
BLACK
6
CONTINUOUS
10
0.332736
20
-0.458607
11
0.338072
21
-0.456503
0
LINE
8
BLACK
6
CONTINUOUS
10
0.338072
20
-0.456503
11
0.338072
21
-0.456503
0
LINE
8
BLACK
6
CONTINUOUS
10
0.338072
20
-0.456503
11
0.342642
21
-0.453037
0
LINE
8
BLACK
6
CONTINUOUS
10
0.342642
20
-0.453037
11
0.342642
21
-0.453037
0
LINE
8
BLACK
6
CONTINUOUS
10
0.342642
20
-0.453037
11
0.346108
21
-0.448467
0
LINE
8
BLACK
6
CONTINUOUS
10
0.346108
20
-0.448467
11
0.346108
21
-0.448467
0
LINE
8
BLACK
6
CONTINUOUS
10
0.346108
20
-0.448467
11
0.348212
21
-0.443131
0
LINE
8
BLACK
6
CONTINUOUS
10
0.348212
20
-0.443131
11
0.348615
21
-0.439778
0
LINE
8
BLACK
6
CONTINUOUS
10
0.348615
20
-0.439778
11
0.348615
21
-0.398734
0
LINE
8
BLACK
6
CONTINUOUS
10
0.348615
20
-0.398734
11
0.327749
21
-0.398734
0
LINE
8
BLACK
6
CONTINUOUS
10
0.327749
20
-0.398734
11
0.327749
21
-0.438144
0
LINE
8
BLACK
6
CONTINUOUS
10
0.318064
20
-0.339325
11
0.327749
21
-0.339325
0
LINE
8
BLACK
6
CONTINUOUS
10
0.327749
20
-0.339325
11
0.327749
21
-0.378734
0
LINE
8
BLACK
6
CONTINUOUS
10
0.327749
20
-0.378734
11
0.348615
21
-0.378734
0
LINE
8
BLACK
6
CONTINUOUS
10
0.348615
20
-0.378734
11
0.348615
21
-0.337691
0
LINE
8
BLACK
6
CONTINUOUS
10
0.348615
20
-0.337691
11
0.348212
21
-0.334338
0
LINE
8
BLACK
6
CONTINUOUS
10
0.348212
20
-0.334338
11
0.346108
21
-0.329002
0
LINE
8
BLACK
6
CONTINUOUS
10
0.346108
20
-0.329002
11
0.346108
21
-0.329002
0
LINE
8
BLACK
6
CONTINUOUS
10
0.346108
20
-0.329002
11
0.342642
21
-0.324432
0
LINE
8
BLACK
6
CONTINUOUS
10
0.342642
20
-0.324432
11
0.342642
21
-0.324432
0
LINE
8
BLACK
6
CONTINUOUS
10
0.342642
20
-0.324432
11
0.338072
21
-0.320966
0
LINE
8
BLACK
6
CONTINUOUS
10
0.338072
20
-0.320966
11
0.338072
21
-0.320966
0
LINE
8
BLACK
6
CONTINUOUS
10
0.338072
20
-0.320966
11
0.332736
21
-0.318861
0
LINE
8
BLACK
6
CONTINUOUS
10
0.332736
20
-0.318861
11
0.329383
21
-0.318459
0
LINE
8
BLACK
6
CONTINUOUS
10
0.329383
20
-0.318459
11
0.318064
21
-0.318459
0
LINE
8
BLACK
6
CONTINUOUS
10
0.318064
20
-0.318459
11
0.318064
21
-0.339325
0
LINE
8
BLACK
6
CONTINUOUS
10
0.34801
20
-0.727878
11
0.34801
21
-0.727878
0
LINE
8
BLACK
6
CONTINUOUS
10
0.34801
20
-0.727878
11
0.34801
21
-0.727878
0
LINE
8
BLACK
6
CONTINUOUS
10
0.34801
20
-0.727878
11
0.350356
21
-0.734582
0
LINE
8
BLACK
6
CONTINUOUS
10
0.350356
20
-0.734582
11
0.350356
21
-0.734582
0
LINE
8
BLACK
6
CONTINUOUS
10
0.350356
20
-0.734582
11
0.354134
21
-0.740595
0
LINE
8
BLACK
6
CONTINUOUS
10
0.354134
20
-0.740595
11
0.359156
21
-0.745617
0
LINE
8
BLACK
6
CONTINUOUS
10
0.359156
20
-0.745617
11
0.359156
21
-0.745617
0
LINE
8
BLACK
6
CONTINUOUS
10
0.359156
20
-0.745617
11
0.359156
21
-0.745617
0
LINE
8
BLACK
6
CONTINUOUS
10
0.359156
20
-0.745617
11
0.365169
21
-0.749395
0
LINE
8
BLACK
6
CONTINUOUS
10
0.365169
20
-0.749395
11
0.371873
21
-0.751741
0
LINE
8
BLACK
6
CONTINUOUS
10
0.371873
20
-0.751741
11
0.37893
21
-0.752536
0
LINE
8
BLACK
6
CONTINUOUS
10
0.37893
20
-0.752536
11
0.385987
21
-0.751741
0
LINE
8
BLACK
6
CONTINUOUS
10
0.385987
20
-0.751741
11
0.392691
21
-0.749395
0
LINE
8
BLACK
6
CONTINUOUS
10
0.392691
20
-0.749395
11
0.398704
21
-0.745617
0
LINE
8
BLACK
6
CONTINUOUS
10
0.398704
20
-0.745617
11
0.403726
21
-0.740595
0
LINE
8
BLACK
6
CONTINUOUS
10
0.403726
20
-0.740595
11
0.407504
21
-0.734582
0
LINE
8
BLACK
6
CONTINUOUS
10
0.407504
20
-0.734582
11
0.40985
21
-0.727878
0
LINE
8
BLACK
6
CONTINUOUS
10
0.40985
20
-0.727878
11
0.41012
21
-0.725483
0
LINE
8
BLACK
6
CONTINUOUS
10
0.41012
20
-0.725483
11
0.411271
21
-0.722192
0
LINE
8
BLACK
6
CONTINUOUS
10
0.411271
20
-0.722192
11
0.412365
21
-0.72082
0
LINE
8
BLACK
6
CONTINUOUS
10
0.412365
20
-0.72082
11
0.423504
21
-0.709682
0
LINE
8
BLACK
6
CONTINUOUS
10
0.423504
20
-0.709682
11
0.423889
21
-0.709344
0
LINE
8
BLACK
6
CONTINUOUS
10
0.423889
20
-0.709344
11
0.424925
21
-0.708549
0
LINE
8
BLACK
6
CONTINUOUS
10
0.424925
20
-0.708549
11
0.428715
21
-0.70361
0
LINE
8
BLACK
6
CONTINUOUS
10
0.428715
20
-0.70361
11
0.431097
21
-0.697859
0
LINE
8
BLACK
6
CONTINUOUS
10
0.431097
20
-0.697859
11
0.431706
21
-0.693237
0
LINE
8
BLACK
6
CONTINUOUS
10
0.431706
20
-0.693237
11
0.43191
21
-0.691687
0
LINE
8
BLACK
6
CONTINUOUS
10
0.43191
20
-0.691687
11
0.431739
21
-0.690392
0
LINE
8
BLACK
6
CONTINUOUS
10
0.431739
20
-0.690392
11
0.431706
21
-0.68988
0
LINE
8
BLACK
6
CONTINUOUS
10
0.431706
20
-0.68988
11
0.431706
21
-0.58894
0
LINE
8
BLACK
6
CONTINUOUS
10
0.431706
20
-0.58894
11
0.432481
21
-0.585541
0
LINE
8
BLACK
6
CONTINUOUS
10
0.432481
20
-0.585541
11
0.434655
21
-0.582815
0
LINE
8
BLACK
6
CONTINUOUS
10
0.434655
20
-0.582815
11
0.435983
21
-0.58196
0
LINE
8
BLACK
6
CONTINUOUS
10
0.435983
20
-0.58196
11
0.437132
21
-0.581374
0
LINE
8
BLACK
6
CONTINUOUS
10
0.437132
20
-0.581374
11
0.440664
21
-0.577842
0
LINE
8
BLACK
6
CONTINUOUS
10
0.440664
20
-0.577842
11
0.442932
21
-0.573392
0
LINE
8
BLACK
6
CONTINUOUS
10
0.442932
20
-0.573392
11
0.443517
21
-0.5697
0
LINE
8
BLACK
6
CONTINUOUS
10
0.443517
20
-0.5697
11
0.443517
21
-0.468399
0
LINE
8
BLACK
6
CONTINUOUS
10
0.443517
20
-0.468399
11
0.442932
21
-0.464707
0
LINE
8
BLACK
6
CONTINUOUS
10
0.442932
20
-0.464707
11
0.440664
21
-0.460256
0
LINE
8
BLACK
6
CONTINUOUS
10
0.440664
20
-0.460256
11
0.440664
21
-0.460256
0
LINE
8
BLACK
6
CONTINUOUS
10
0.440664
20
-0.460256
11
0.440664
21
-0.460256
0
LINE
8
BLACK
6
CONTINUOUS
10
0.440664
20
-0.460256
11
0.437132
21
-0.456725
0
LINE
8
BLACK
6
CONTINUOUS
10
0.437132
20
-0.456725
11
0.432682
21
-0.454457
0
LINE
8
BLACK
6
CONTINUOUS
10
0.432682
20
-0.454457
11
0.432682
21
-0.454457
0
LINE
8
BLACK
6
CONTINUOUS
10
0.432682
20
-0.454457
11
0.432682
21
-0.454457
0
LINE
8
BLACK
6
CONTINUOUS
10
0.432682
20
-0.454457
11
0.432682
21
-0.454457
0
LINE
8
BLACK
6
CONTINUOUS
10
0.432682
20
-0.454457
11
0.430104
21
-0.454049
0
LINE
8
BLACK
6
CONTINUOUS
10
0.430104
20
-0.454049
11
0.42899
21
-0.453872
0
LINE
8
BLACK
6
CONTINUOUS
10
0.42899
20
-0.453872
11
0.42899
21
-0.453872
0
LINE
8
BLACK
6
CONTINUOUS
10
0.42899
20
-0.453872
11
0.387138
21
-0.453872
0
LINE
8
BLACK
6
CONTINUOUS
10
0.387138
20
-0.453872
11
0.383446
21
-0.454457
0
LINE
8
BLACK
6
CONTINUOUS
10
0.383446
20
-0.454457
11
0.383445
21
-0.454457
0
LINE
8
BLACK
6
CONTINUOUS
10
0.383445
20
-0.454457
11
0.378995
21
-0.456725
0
LINE
8
BLACK
6
CONTINUOUS
10
0.378995
20
-0.456725
11
0.375463
21
-0.460256
0
LINE
8
BLACK
6
CONTINUOUS
10
0.375463
20
-0.460256
11
0.373196
21
-0.464707
0
LINE
8
BLACK
6
CONTINUOUS
10
0.373196
20
-0.464707
11
0.373196
21
-0.464707
0
LINE
8
BLACK
6
CONTINUOUS
10
0.373196
20
-0.464707
11
0.372611
21
-0.468399
0
LINE
8
BLACK
6
CONTINUOUS
10
0.372611
20
-0.468399
11
0.372611
21
-0.5697
0
LINE
8
BLACK
6
CONTINUOUS
10
0.372611
20
-0.5697
11
0.373116
21
-0.572887
0
LINE
8
BLACK
6
CONTINUOUS
10
0.373116
20
-0.572887
11
0.373196
21
-0.573392
0
LINE
8
BLACK
6
CONTINUOUS
10
0.373196
20
-0.573392
11
0.373196
21
-0.573392
0
LINE
8
BLACK
6
CONTINUOUS
10
0.373196
20
-0.573392
11
0.373196
21
-0.573392
0
LINE
8
BLACK
6
CONTINUOUS
10
0.373196
20
-0.573392
11
0.375463
21
-0.577842
0
LINE
8
BLACK
6
CONTINUOUS
10
0.375463
20
-0.577842
11
0.378995
21
-0.581374
0
LINE
8
BLACK
6
CONTINUOUS
10
0.378995
20
-0.581374
11
0.378995
21
-0.581374
0
LINE
8
BLACK
6
CONTINUOUS
10
0.378995
20
-0.581374
11
0.378995
21
-0.581374
0
LINE
8
BLACK
6
CONTINUOUS
10
0.378995
20
-0.581374
11
0.380144
21
-0.58196
0
LINE
8
BLACK
6
CONTINUOUS
10
0.380144
20
-0.58196
11
0.382821
21
-0.584194
0
LINE
8
BLACK
6
CONTINUOUS
10
0.382821
20
-0.584194
11
0.384263
21
-0.587369
0
LINE
8
BLACK
6
CONTINUOUS
10
0.384263
20
-0.587369
11
0.384422
21
-0.58894
0
LINE
8
BLACK
6
CONTINUOUS
10
0.384422
20
-0.58894
11
0.384422
21
-0.678649
0
LINE
8
BLACK
6
CONTINUOUS
10
0.384422
20
-0.678649
11
0.383646
21
-0.682049
0
LINE
8
BLACK
6
CONTINUOUS
10
0.383646
20
-0.682049
11
0.382127
21
-0.684189
0
LINE
8
BLACK
6
CONTINUOUS
10
0.382127
20
-0.684189
11
0.378931
21
-0.687386
0
LINE
8
BLACK
6
CONTINUOUS
10
0.378931
20
-0.687386
11
0.375978
21
-0.689241
0
LINE
8
BLACK
6
CONTINUOUS
10
0.375978
20
-0.689241
11
0.374268
21
-0.689631
0
LINE
8
BLACK
6
CONTINUOUS
10
0.374268
20
-0.689631
11
0.371873
21
-0.689901
0
LINE
8
BLACK
6
CONTINUOUS
10
0.371873
20
-0.689901
11
0.371873
21
-0.689901
0
LINE
8
BLACK
6
CONTINUOUS
10
0.371873
20
-0.689901
11
0.365169
21
-0.692247
0
LINE
8
BLACK
6
CONTINUOUS
10
0.365169
20
-0.692247
11
0.365169
21
-0.692247
0
LINE
8
BLACK
6
CONTINUOUS
10
0.365169
20
-0.692247
11
0.359156
21
-0.696025
0
LINE
8
BLACK
6
CONTINUOUS
10
0.359156
20
-0.696025
11
0.354134
21
-0.701047
0
LINE
8
BLACK
6
CONTINUOUS
10
0.354134
20
-0.701047
11
0.350356
21
-0.70706
0
LINE
8
BLACK
6
CONTINUOUS
10
0.350356
20
-0.70706
11
0.350356
21
-0.70706
0
LINE
8
BLACK
6
CONTINUOUS
10
0.350356
20
-0.70706
11
0.349438
21
-0.709682
0
LINE
8
BLACK
6
CONTINUOUS
10
0.349438
20
-0.709682
11
0.34801
21
-0.713764
0
LINE
8
BLACK
6
CONTINUOUS
10
0.34801
20
-0.713764
11
0.347215
21
-0.720821
0
LINE
8
BLACK
6
CONTINUOUS
10
0.347215
20
-0.720821
11
0.34801
21
-0.727878
0
LINE
8
BLACK
6
CONTINUOUS
10
0.173116
20
-0.572887
11
0.173196
21
-0.573392
0
LINE
8
BLACK
6
CONTINUOUS
10
0.173196
20
-0.573392
11
0.173196
21
-0.573392
0
LINE
8
BLACK
6
CONTINUOUS
10
0.173196
20
-0.573392
11
0.173196
21
-0.573392
0
LINE
8
BLACK
6
CONTINUOUS
10
0.173196
20
-0.573392
11
0.175463
21
-0.577842
0
LINE
8
BLACK
6
CONTINUOUS
10
0.175463
20
-0.577842
11
0.178995
21
-0.581374
0
LINE
8
BLACK
6
CONTINUOUS
10
0.178995
20
-0.581374
11
0.181823
21
-0.582815
0
LINE
8
BLACK
6
CONTINUOUS
10
0.181823
20
-0.582815
11
0.183446
21
-0.583642
0
LINE
8
BLACK
6
CONTINUOUS
10
0.183446
20
-0.583642
11
0.187138
21
-0.584227
0
LINE
8
BLACK
6
CONTINUOUS
10
0.187138
20
-0.584227
11
0.22899
21
-0.584226
0
LINE
8
BLACK
6
CONTINUOUS
10
0.22899
20
-0.584226
11
0.232682
21
-0.583642
0
LINE
8
BLACK
6
CONTINUOUS
10
0.232682
20
-0.583642
11
0.237132
21
-0.581374
0
LINE
8
BLACK
6
CONTINUOUS
10
0.237132
20
-0.581374
11
0.240664
21
-0.577842
0
LINE
8
BLACK
6
CONTINUOUS
10
0.240664
20
-0.577842
11
0.242932
21
-0.573392
0
LINE
8
BLACK
6
CONTINUOUS
10
0.242932
20
-0.573392
11
0.243517
21
-0.5697
0
LINE
8
BLACK
6
CONTINUOUS
10
0.243517
20
-0.5697
11
0.243517
21
-0.468399
0
LINE
8
BLACK
6
CONTINUOUS
10
0.243517
20
-0.468399
11
0.242932
21
-0.464707
0
LINE
8
BLACK
6
CONTINUOUS
10
0.242932
20
-0.464707
11
0.240664
21
-0.460256
0
LINE
8
BLACK
6
CONTINUOUS
10
0.240664
20
-0.460256
11
0.240664
21
-0.460256
0
LINE
8
BLACK
6
CONTINUOUS
10
0.240664
20
-0.460256
11
0.240664
21
-0.460256
0
LINE
8
BLACK
6
CONTINUOUS
10
0.240664
20
-0.460256
11
0.237132
21
-0.456725
0
LINE
8
BLACK
6
CONTINUOUS
10
0.237132
20
-0.456725
11
0.237132
21
-0.456725
0
LINE
8
BLACK
6
CONTINUOUS
10
0.237132
20
-0.456725
11
0.235983
21
-0.456139
0
LINE
8
BLACK
6
CONTINUOUS
10
0.235983
20
-0.456139
11
0.233307
21
-0.453904
0
LINE
8
BLACK
6
CONTINUOUS
10
0.233307
20
-0.453904
11
0.231865
21
-0.45073
0
LINE
8
BLACK
6
CONTINUOUS
10
0.231865
20
-0.45073
11
0.231706
21
-0.449158
0
LINE
8
BLACK
6
CONTINUOUS
10
0.231706
20
-0.449158
11
0.231706
21
-0.398734
0
LINE
8
BLACK
6
CONTINUOUS
10
0.231706
20
-0.398734
11
0.231706
21
-0.378734
0
LINE
8
BLACK
6
CONTINUOUS
10
0.231706
20
-0.378734
11
0.231706
21
-0.295146
0
LINE
8
BLACK
6
CONTINUOUS
10
0.231706
20
-0.295146
11
0.232481
21
-0.291747
0
LINE
8
BLACK
6
CONTINUOUS
10
0.232481
20
-0.291747
11
0.234655
21
-0.289021
0
LINE
8
BLACK
6
CONTINUOUS
10
0.234655
20
-0.289021
11
0.237797
21
-0.287508
0
LINE
8
BLACK
6
CONTINUOUS
10
0.237797
20
-0.287508
11
0.238663
21
-0.287361
0
LINE
8
BLACK
6
CONTINUOUS
10
0.238663
20
-0.287361
11
0.240318
21
-0.287174
0
LINE
8
BLACK
6
CONTINUOUS
10
0.240318
20
-0.287174
11
0.247021
21
-0.284828
0
LINE
8
BLACK
6
CONTINUOUS
10
0.247021
20
-0.284828
11
0.253035
21
-0.28105
0
LINE
8
BLACK
6
CONTINUOUS
10
0.253035
20
-0.28105
11
0.258057
21
-0.276028
0
LINE
8
BLACK
6
CONTINUOUS
10
0.258057
20
-0.276028
11
0.261835
21
-0.270015
0
LINE
8
BLACK
6
CONTINUOUS
10
0.261835
20
-0.270015
11
0.264181
21
-0.263311
0
LINE
8
BLACK
6
CONTINUOUS
10
0.264181
20
-0.263311
11
0.264976
21
-0.256254
0
LINE
8
BLACK
6
CONTINUOUS
10
0.264976
20
-0.256254
11
0.264181
21
-0.249197
0
LINE
8
BLACK
6
CONTINUOUS
10
0.264181
20
-0.249197
11
0.261835
21
-0.242493
0
LINE
8
BLACK
6
CONTINUOUS
10
0.261835
20
-0.242493
11
0.258057
21
-0.23648
0
LINE
8
BLACK
6
CONTINUOUS
10
0.258057
20
-0.23648
11
0.258056
21
-0.23648
0
LINE
8
BLACK
6
CONTINUOUS
10
0.258056
20
-0.23648
11
0.258056
21
-0.23648
0
LINE
8
BLACK
6
CONTINUOUS
10
0.258056
20
-0.23648
11
0.253035
21
-0.231458
0
LINE
8
BLACK
6
CONTINUOUS
10
0.253035
20
-0.231458
11
0.253035
21
-0.231458
0
LINE
8
BLACK
6
CONTINUOUS
10
0.253035
20
-0.231458
11
0.253035
21
-0.231458
0
LINE
8
BLACK
6
CONTINUOUS
10
0.253035
20
-0.231458
11
0.247021
21
-0.22768
0
LINE
8
BLACK
6
CONTINUOUS
10
0.247021
20
-0.22768
11
0.247021
21
-0.22768
0
LINE
8
BLACK
6
CONTINUOUS
10
0.247021
20
-0.22768
11
0.247021
21
-0.22768
0
LINE
8
BLACK
6
CONTINUOUS
10
0.247021
20
-0.22768
11
0.240318
21
-0.225334
0
LINE
8
BLACK
6
CONTINUOUS
10
0.240318
20
-0.225334
11
0.240318
21
-0.225334
0
LINE
8
BLACK
6
CONTINUOUS
10
0.240318
20
-0.225334
11
0.240318
21
-0.225334
0
LINE
8
BLACK
6
CONTINUOUS
10
0.240318
20
-0.225334
11
0.233261
21
-0.224539
0
LINE
8
BLACK
6
CONTINUOUS
10
0.233261
20
-0.224539
11
0.226203
21
-0.225334
0
LINE
8
BLACK
6
CONTINUOUS
10
0.226203
20
-0.225334
11
0.226203
21
-0.225334
0
LINE
8
BLACK
6
CONTINUOUS
10
0.226203
20
-0.225334
11
0.226203
21
-0.225334
0
LINE
8
BLACK
6
CONTINUOUS
10
0.226203
20
-0.225334
11
0.2195
21
-0.22768
0
LINE
8
BLACK
6
CONTINUOUS
10
0.2195
20
-0.22768
11
0.2195
21
-0.22768
0
LINE
8
BLACK
6
CONTINUOUS
10
0.2195
20
-0.22768
11
0.213486
21
-0.231458
0
LINE
8
BLACK
6
CONTINUOUS
10
0.213486
20
-0.231458
11
0.208465
21
-0.23648
0
LINE
8
BLACK
6
CONTINUOUS
10
0.208465
20
-0.23648
11
0.204686
21
-0.242493
0
LINE
8
BLACK
6
CONTINUOUS
10
0.204686
20
-0.242493
11
0.204686
21
-0.242493
0
LINE
8
BLACK
6
CONTINUOUS
10
0.204686
20
-0.242493
11
0.202341
21
-0.249197
0
LINE
8
BLACK
6
CONTINUOUS
10
0.202341
20
-0.249197
11
0.202341
21
-0.249197
0
LINE
8
BLACK
6
CONTINUOUS
10
0.202341
20
-0.249197
11
0.202071
21
-0.251592
0
LINE
8
BLACK
6
CONTINUOUS
10
0.202071
20
-0.251592
11
0.200919
21
-0.254883
0
LINE
8
BLACK
6
CONTINUOUS
10
0.200919
20
-0.254883
11
0.199825
21
-0.256255
0
LINE
8
BLACK
6
CONTINUOUS
10
0.199825
20
-0.256255
11
0.192624
21
-0.263456
0
LINE
8
BLACK
6
CONTINUOUS
10
0.192624
20
-0.263456
11
0.192239
21
-0.263794
0
LINE
8
BLACK
6
CONTINUOUS
10
0.192239
20
-0.263794
11
0.191202
21
-0.264589
0
LINE
8
BLACK
6
CONTINUOUS
10
0.191202
20
-0.264589
11
0.190251
21
-0.265829
0
LINE
8
BLACK
6
CONTINUOUS
10
0.190251
20
-0.265829
11
0.187413
21
-0.269528
0
LINE
8
BLACK
6
CONTINUOUS
10
0.187413
20
-0.269528
11
0.187413
21
-0.269528
0
LINE
8
BLACK
6
CONTINUOUS
10
0.187413
20
-0.269528
11
0.185031
21
-0.275279
0
LINE
8
BLACK
6
CONTINUOUS
10
0.185031
20
-0.275279
11
0.185031
21
-0.275279
0
LINE
8
BLACK
6
CONTINUOUS
10
0.185031
20
-0.275279
11
0.184218
21
-0.281451
0
LINE
8
BLACK
6
CONTINUOUS
10
0.184218
20
-0.281451
11
0.184389
21
-0.282746
0
LINE
8
BLACK
6
CONTINUOUS
10
0.184389
20
-0.282746
11
0.184422
21
-0.283258
0
LINE
8
BLACK
6
CONTINUOUS
10
0.184422
20
-0.283258
11
0.184422
21
-0.449158
0
LINE
8
BLACK
6
CONTINUOUS
10
0.184422
20
-0.449158
11
0.183646
21
-0.452558
0
LINE
8
BLACK
6
CONTINUOUS
10
0.183646
20
-0.452558
11
0.181472
21
-0.455284
0
LINE
8
BLACK
6
CONTINUOUS
10
0.181472
20
-0.455284
11
0.180144
21
-0.456139
0
LINE
8
BLACK
6
CONTINUOUS
10
0.180144
20
-0.456139
11
0.178995
21
-0.456725
0
LINE
8
BLACK
6
CONTINUOUS
10
0.178995
20
-0.456725
11
0.178995
21
-0.456725
0
LINE
8
BLACK
6
CONTINUOUS
10
0.178995
20
-0.456725
11
0.175463
21
-0.460256
0
LINE
8
BLACK
6
CONTINUOUS
10
0.175463
20
-0.460256
11
0.173196
21
-0.464707
0
LINE
8
BLACK
6
CONTINUOUS
10
0.173196
20
-0.464707
11
0.173196
21
-0.464707
0
LINE
8
BLACK
6
CONTINUOUS
10
0.173196
20
-0.464707
11
0.172611
21
-0.468399
0
LINE
8
BLACK
6
CONTINUOUS
10
0.172611
20
-0.468399
11
0.172611
21
-0.5697
0
LINE
8
BLACK
6
CONTINUOUS
10
0.172611
20
-0.5697
11
0.173116
21
-0.572887
0
LINE
8
BLACK
6
CONTINUOUS
10
0.288379
20
-0.378734
11
0.288379
21
-0.339325
0
LINE
8
BLACK
6
CONTINUOUS
10
0.288379
20
-0.339325
11
0.298064
21
-0.339325
0
LINE
8
BLACK
6
CONTINUOUS
10
0.298064
20
-0.339325
11
0.298064
21
-0.318459
0
LINE
8
BLACK
6
CONTINUOUS
10
0.298064
20
-0.318459
11
0.286745
21
-0.318459
0
LINE
8
BLACK
6
CONTINUOUS
10
0.286745
20
-0.318459
11
0.283392
21
-0.318861
0
LINE
8
BLACK
6
CONTINUOUS
10
0.283392
20
-0.318861
11
0.278056
21
-0.320966
0
LINE
8
BLACK
6
CONTINUOUS
10
0.278056
20
-0.320966
11
0.278056
21
-0.320966
0
LINE
8
BLACK
6
CONTINUOUS
10
0.278056
20
-0.320966
11
0.273485
21
-0.324432
0
LINE
8
BLACK
6
CONTINUOUS
10
0.273485
20
-0.324432
11
0.273485
21
-0.324432
0
LINE
8
BLACK
6
CONTINUOUS
10
0.273485
20
-0.324432
11
0.27002
21
-0.329002
0
LINE
8
BLACK
6
CONTINUOUS
10
0.27002
20
-0.329002
11
0.270019
21
-0.329002
0
LINE
8
BLACK
6
CONTINUOUS
10
0.270019
20
-0.329002
11
0.267915
21
-0.334338
0
LINE
8
BLACK
6
CONTINUOUS
10
0.267915
20
-0.334338
11
0.267513
21
-0.337691
0
LINE
8
BLACK
6
CONTINUOUS
10
0.267513
20
-0.337691
11
0.267513
21
-0.378734
0
LINE
8
BLACK
6
CONTINUOUS
10
0.267513
20
-0.378734
11
0.288379
21
-0.378734
0
CIRCLE
8
BLACK
10
0
20
0
40
0.00688976
0
CIRCLE
8
BLACK
10
0
20
-1.6
40
0.00688976
0
CIRCLE
8
BLACK
10
0.37893
20
-0.720821
40
0.00787402
0
CIRCLE
8
BLACK
10
0.233261
20
-0.256254
40
0.00787402
  0
ENDSEC
  0
EOF
