  0
SECTION
  2
HEADER
  9
$ANGBASE
  50
0.0
  9
$ANGDIR
  70
1
  9
$MEASUREMENT
  70
0
  0
ENDSEC
  0
SECTION
  2
TABLES
  0
TABLE
  2
LTYPE
  70
4
  0
LTYPE
  5
40F
  2
CONTINUOUS
  70
0
  3
Solid line
  72
65
  73
0
  40
0.0
  0
LTYPE
  5
410
  2
DASHDOT
 70
0
  3
Dash Dot ____ _ ____ _
 72
65
 73
4
 40
2.0
 49
1.25
 49
-0.25
 49
0.25
 49
-0.25
  0
LTYPE
  5
411
  2
DASHED
 70
0
  3
Dashed __ __ __ __ __
 72
65
 73
2
 40
0.75
 49
0.5
 49
-0.25
  0
LTYPE
  5
43B
  2
DOTTED
 70
0
  3
Dotted .  .  .  .
 72
65
 73
2
 40
0.2
 49
0.0
 49
-0.2
  0
ENDTAB
  0
TABLE
  2
STYLE
  70
4
  0
STYLE
  2
KICAD
  70
0
  40
0
  41
1
  42
1
  50
0
  71
0
  3
isocp.shx
  0
STYLE
  2
KICADB
  70
0
  40
0
  41
1
  42
1
  50
0
  71
0
  3
isocp.shx
  0
STYLE
  2
KICADI
  70
0
  40
0
  41
1
  42
1
  50
15
  71
0
  3
isocp.shx
  0
STYLE
  2
KICADBI
  70
0
  40
0
  41
1
  42
1
  50
15
  71
0
  3
isocp.shx
  0
ENDTAB
  0
TABLE
  2
LAYER
  70
1
  0
LAYER
  2
BLACK
  70
0
  62
7
  6
CONTINUOUS
  0
ENDTAB
  0
ENDSEC
  0
SECTION
  2
ENTITIES
0
LINE
8
BLACK
6
CONTINUOUS
10
0.434117
20
-1.65446
11
0.435378
21
-1.65468
0
LINE
8
BLACK
6
CONTINUOUS
10
0.435378
20
-1.65468
11
0.435579
21
-1.65485
0
LINE
8
BLACK
6
CONTINUOUS
10
0.435579
20
-1.65485
11
0.435833
21
-1.65492
0
LINE
8
BLACK
6
CONTINUOUS
10
0.435833
20
-1.65492
11
0.436739
21
-1.65583
0
LINE
8
BLACK
6
CONTINUOUS
10
0.436739
20
-1.65583
11
0.437719
21
-1.65665
0
LINE
8
BLACK
6
CONTINUOUS
10
0.437719
20
-1.65665
11
0.437809
21
-1.6569
0
LINE
8
BLACK
6
CONTINUOUS
10
0.437809
20
-1.6569
11
0.437995
21
-1.65708
0
LINE
8
BLACK
6
CONTINUOUS
10
0.437995
20
-1.65708
11
0.438326
21
-1.65832
0
LINE
8
BLACK
6
CONTINUOUS
10
0.438326
20
-1.65832
11
0.438764
21
-1.65952
0
LINE
8
BLACK
6
CONTINUOUS
10
0.438764
20
-1.65952
11
0.438718
21
-1.65978
0
LINE
8
BLACK
6
CONTINUOUS
10
0.438718
20
-1.65978
11
0.438786
21
-1.66004
0
LINE
8
BLACK
6
CONTINUOUS
10
0.438786
20
-1.66004
11
0.438786
21
-1.71909
0
LINE
8
BLACK
6
CONTINUOUS
10
0.438786
20
-1.71909
11
0.437995
21
-1.72204
0
LINE
8
BLACK
6
CONTINUOUS
10
0.437995
20
-1.72204
11
0.435833
21
-1.72421
0
LINE
8
BLACK
6
CONTINUOUS
10
0.435833
20
-1.72421
11
0.432881
21
-1.725
0
LINE
8
BLACK
6
CONTINUOUS
10
0.432881
20
-1.725
11
0.429928
21
-1.72421
0
LINE
8
BLACK
6
CONTINUOUS
10
0.429928
20
-1.72421
11
0.427766
21
-1.72204
0
LINE
8
BLACK
6
CONTINUOUS
10
0.427766
20
-1.72204
11
0.426975
21
-1.71909
0
LINE
8
BLACK
6
CONTINUOUS
10
0.426975
20
-1.71909
11
0.426975
21
-1.68666
0
LINE
8
BLACK
6
CONTINUOUS
10
0.426975
20
-1.68666
11
0.418547
21
-1.70472
0
LINE
8
BLACK
6
CONTINUOUS
10
0.418547
20
-1.70472
11
0.418212
21
-1.70511
0
LINE
8
BLACK
6
CONTINUOUS
10
0.418212
20
-1.70511
11
0.418034
21
-1.7056
0
LINE
8
BLACK
6
CONTINUOUS
10
0.418034
20
-1.7056
11
0.417244
21
-1.70627
0
LINE
8
BLACK
6
CONTINUOUS
10
0.417244
20
-1.70627
11
0.416581
21
-1.70706
0
LINE
8
BLACK
6
CONTINUOUS
10
0.416581
20
-1.70706
11
0.416092
21
-1.70724
0
LINE
8
BLACK
6
CONTINUOUS
10
0.416092
20
-1.70724
11
0.415693
21
-1.70757
0
LINE
8
BLACK
6
CONTINUOUS
10
0.415693
20
-1.70757
11
0.414677
21
-1.70775
0
LINE
8
BLACK
6
CONTINUOUS
10
0.414677
20
-1.70775
11
0.413709
21
-1.7081
0
LINE
8
BLACK
6
CONTINUOUS
10
0.413709
20
-1.7081
11
0.413196
21
-1.70801
0
LINE
8
BLACK
6
CONTINUOUS
10
0.413196
20
-1.70801
11
0.412683
21
-1.7081
0
LINE
8
BLACK
6
CONTINUOUS
10
0.412683
20
-1.7081
11
0.411713
21
-1.70775
0
LINE
8
BLACK
6
CONTINUOUS
10
0.411713
20
-1.70775
11
0.410698
21
-1.70757
0
LINE
8
BLACK
6
CONTINUOUS
10
0.410698
20
-1.70757
11
0.410299
21
-1.70724
0
LINE
8
BLACK
6
CONTINUOUS
10
0.410299
20
-1.70724
11
0.40981
21
-1.70706
0
LINE
8
BLACK
6
CONTINUOUS
10
0.40981
20
-1.70706
11
0.409147
21
-1.70627
0
LINE
8
BLACK
6
CONTINUOUS
10
0.409147
20
-1.70627
11
0.408357
21
-1.7056
0
LINE
8
BLACK
6
CONTINUOUS
10
0.408357
20
-1.7056
11
0.408179
21
-1.70511
0
LINE
8
BLACK
6
CONTINUOUS
10
0.408179
20
-1.70511
11
0.407844
21
-1.70472
0
LINE
8
BLACK
6
CONTINUOUS
10
0.407844
20
-1.70472
11
0.399416
21
-1.68666
0
LINE
8
BLACK
6
CONTINUOUS
10
0.399416
20
-1.68666
11
0.399416
21
-1.71909
0
LINE
8
BLACK
6
CONTINUOUS
10
0.399416
20
-1.71909
11
0.398625
21
-1.72204
0
LINE
8
BLACK
6
CONTINUOUS
10
0.398625
20
-1.72204
11
0.396463
21
-1.72421
0
LINE
8
BLACK
6
CONTINUOUS
10
0.396463
20
-1.72421
11
0.393511
21
-1.725
0
LINE
8
BLACK
6
CONTINUOUS
10
0.393511
20
-1.725
11
0.390558
21
-1.72421
0
LINE
8
BLACK
6
CONTINUOUS
10
0.390558
20
-1.72421
11
0.388396
21
-1.72204
0
LINE
8
BLACK
6
CONTINUOUS
10
0.388396
20
-1.72204
11
0.387605
21
-1.71909
0
LINE
8
BLACK
6
CONTINUOUS
10
0.387605
20
-1.71909
11
0.387605
21
-1.66004
0
LINE
8
BLACK
6
CONTINUOUS
10
0.387605
20
-1.66004
11
0.387673
21
-1.65978
0
LINE
8
BLACK
6
CONTINUOUS
10
0.387673
20
-1.65978
11
0.387627
21
-1.65952
0
LINE
8
BLACK
6
CONTINUOUS
10
0.387627
20
-1.65952
11
0.388065
21
-1.65832
0
LINE
8
BLACK
6
CONTINUOUS
10
0.388065
20
-1.65832
11
0.388396
21
-1.65708
0
LINE
8
BLACK
6
CONTINUOUS
10
0.388396
20
-1.65708
11
0.388582
21
-1.6569
0
LINE
8
BLACK
6
CONTINUOUS
10
0.388582
20
-1.6569
11
0.388672
21
-1.65665
0
LINE
8
BLACK
6
CONTINUOUS
10
0.388672
20
-1.65665
11
0.389652
21
-1.65583
0
LINE
8
BLACK
6
CONTINUOUS
10
0.389652
20
-1.65583
11
0.390558
21
-1.65492
0
LINE
8
BLACK
6
CONTINUOUS
10
0.390558
20
-1.65492
11
0.390812
21
-1.65485
0
LINE
8
BLACK
6
CONTINUOUS
10
0.390812
20
-1.65485
11
0.391013
21
-1.65469
0
LINE
8
BLACK
6
CONTINUOUS
10
0.391013
20
-1.65469
11
0.392274
21
-1.65446
0
LINE
8
BLACK
6
CONTINUOUS
10
0.392274
20
-1.65446
11
0.393511
21
-1.65413
0
LINE
8
BLACK
6
CONTINUOUS
10
0.393511
20
-1.65413
11
0.393764
21
-1.6542
0
LINE
8
BLACK
6
CONTINUOUS
10
0.393764
20
-1.6542
11
0.394023
21
-1.65415
0
LINE
8
BLACK
6
CONTINUOUS
10
0.394023
20
-1.65415
11
0.395226
21
-1.65459
0
LINE
8
BLACK
6
CONTINUOUS
10
0.395226
20
-1.65459
11
0.396463
21
-1.65492
0
LINE
8
BLACK
6
CONTINUOUS
10
0.396463
20
-1.65492
11
0.396649
21
-1.65511
0
LINE
8
BLACK
6
CONTINUOUS
10
0.396649
20
-1.65511
11
0.396896
21
-1.6552
0
LINE
8
BLACK
6
CONTINUOUS
10
0.396896
20
-1.6552
11
0.397719
21
-1.65618
0
LINE
8
BLACK
6
CONTINUOUS
10
0.397719
20
-1.65618
11
0.398625
21
-1.65708
0
LINE
8
BLACK
6
CONTINUOUS
10
0.398625
20
-1.65708
11
0.398693
21
-1.65734
0
LINE
8
BLACK
6
CONTINUOUS
10
0.398693
20
-1.65734
11
0.398862
21
-1.65754
0
LINE
8
BLACK
6
CONTINUOUS
10
0.398862
20
-1.65754
11
0.413196
21
-1.68825
0
LINE
8
BLACK
6
CONTINUOUS
10
0.413196
20
-1.68825
11
0.427529
21
-1.65754
0
LINE
8
BLACK
6
CONTINUOUS
10
0.427529
20
-1.65754
11
0.427698
21
-1.65734
0
LINE
8
BLACK
6
CONTINUOUS
10
0.427698
20
-1.65734
11
0.427766
21
-1.65708
0
LINE
8
BLACK
6
CONTINUOUS
10
0.427766
20
-1.65708
11
0.428672
21
-1.65618
0
LINE
8
BLACK
6
CONTINUOUS
10
0.428672
20
-1.65618
11
0.429495
21
-1.6552
0
LINE
8
BLACK
6
CONTINUOUS
10
0.429495
20
-1.6552
11
0.429742
21
-1.65511
0
LINE
8
BLACK
6
CONTINUOUS
10
0.429742
20
-1.65511
11
0.429928
21
-1.65492
0
LINE
8
BLACK
6
CONTINUOUS
10
0.429928
20
-1.65492
11
0.431164
21
-1.65459
0
LINE
8
BLACK
6
CONTINUOUS
10
0.431164
20
-1.65459
11
0.432368
21
-1.65415
0
LINE
8
BLACK
6
CONTINUOUS
10
0.432368
20
-1.65415
11
0.432627
21
-1.6542
0
LINE
8
BLACK
6
CONTINUOUS
10
0.432627
20
-1.6542
11
0.432881
21
-1.65413
0
LINE
8
BLACK
6
CONTINUOUS
10
0.432881
20
-1.65413
11
0.434117
21
-1.65446
0
LINE
8
BLACK
6
CONTINUOUS
10
0.463955
20
-1.65492
11
0.466116
21
-1.65708
0
LINE
8
BLACK
6
CONTINUOUS
10
0.466116
20
-1.65708
11
0.466908
21
-1.66004
0
LINE
8
BLACK
6
CONTINUOUS
10
0.466908
20
-1.66004
11
0.466908
21
-1.71319
0
LINE
8
BLACK
6
CONTINUOUS
10
0.466908
20
-1.71319
11
0.489124
21
-1.71319
0
LINE
8
BLACK
6
CONTINUOUS
10
0.489124
20
-1.71319
11
0.492076
21
-1.71398
0
LINE
8
BLACK
6
CONTINUOUS
10
0.492076
20
-1.71398
11
0.494238
21
-1.71614
0
LINE
8
BLACK
6
CONTINUOUS
10
0.494238
20
-1.71614
11
0.494726
21
-1.71796
0
LINE
8
BLACK
6
CONTINUOUS
10
0.494726
20
-1.71796
11
0.49477
21
-1.71722
0
LINE
8
BLACK
6
CONTINUOUS
10
0.49477
20
-1.71722
11
0.514455
21
-1.65817
0
LINE
8
BLACK
6
CONTINUOUS
10
0.514455
20
-1.65817
11
0.515108
21
-1.65718
0
LINE
8
BLACK
6
CONTINUOUS
10
0.515108
20
-1.65718
11
0.515639
21
-1.65612
0
LINE
8
BLACK
6
CONTINUOUS
10
0.515639
20
-1.65612
11
0.51594
21
-1.65592
0
LINE
8
BLACK
6
CONTINUOUS
10
0.51594
20
-1.65592
11
0.516139
21
-1.65562
0
LINE
8
BLACK
6
CONTINUOUS
10
0.516139
20
-1.65562
11
0.5172
21
-1.65509
0
LINE
8
BLACK
6
CONTINUOUS
10
0.5172
20
-1.65509
11
0.51819
21
-1.65443
0
LINE
8
BLACK
6
CONTINUOUS
10
0.51819
20
-1.65443
11
0.51855
21
-1.65441
0
LINE
8
BLACK
6
CONTINUOUS
10
0.51855
20
-1.65441
11
0.518873
21
-1.65425
0
LINE
8
BLACK
6
CONTINUOUS
10
0.518873
20
-1.65425
11
0.520057
21
-1.65432
0
LINE
8
BLACK
6
CONTINUOUS
10
0.520057
20
-1.65432
11
0.521241
21
-1.65425
0
LINE
8
BLACK
6
CONTINUOUS
10
0.521241
20
-1.65425
11
0.521564
21
-1.65441
0
LINE
8
BLACK
6
CONTINUOUS
10
0.521564
20
-1.65441
11
0.521925
21
-1.65443
0
LINE
8
BLACK
6
CONTINUOUS
10
0.521925
20
-1.65443
11
0.522915
21
-1.65509
0
LINE
8
BLACK
6
CONTINUOUS
10
0.522915
20
-1.65509
11
0.523975
21
-1.65562
0
LINE
8
BLACK
6
CONTINUOUS
10
0.523975
20
-1.65562
11
0.524174
21
-1.65592
0
LINE
8
BLACK
6
CONTINUOUS
10
0.524174
20
-1.65592
11
0.524476
21
-1.65612
0
LINE
8
BLACK
6
CONTINUOUS
10
0.524476
20
-1.65612
11
0.525006
21
-1.65718
0
LINE
8
BLACK
6
CONTINUOUS
10
0.525006
20
-1.65718
11
0.52566
21
-1.65817
0
LINE
8
BLACK
6
CONTINUOUS
10
0.52566
20
-1.65817
11
0.545345
21
-1.71722
0
LINE
8
BLACK
6
CONTINUOUS
10
0.545345
20
-1.71722
11
0.545528
21
-1.72028
0
LINE
8
BLACK
6
CONTINUOUS
10
0.545528
20
-1.72028
11
0.544161
21
-1.72301
0
LINE
8
BLACK
6
CONTINUOUS
10
0.544161
20
-1.72301
11
0.54161
21
-1.72469
0
LINE
8
BLACK
6
CONTINUOUS
10
0.54161
20
-1.72469
11
0.538558
21
-1.72488
0
LINE
8
BLACK
6
CONTINUOUS
10
0.538558
20
-1.72488
11
0.535824
21
-1.72351
0
LINE
8
BLACK
6
CONTINUOUS
10
0.535824
20
-1.72351
11
0.53414
21
-1.72096
0
LINE
8
BLACK
6
CONTINUOUS
10
0.53414
20
-1.72096
11
0.529862
21
-1.70812
0
LINE
8
BLACK
6
CONTINUOUS
10
0.529862
20
-1.70812
11
0.510253
21
-1.70812
0
LINE
8
BLACK
6
CONTINUOUS
10
0.510253
20
-1.70812
11
0.505975
21
-1.72096
0
LINE
8
BLACK
6
CONTINUOUS
10
0.505975
20
-1.72096
11
0.50429
21
-1.72351
0
LINE
8
BLACK
6
CONTINUOUS
10
0.50429
20
-1.72351
11
0.501556
21
-1.72488
0
LINE
8
BLACK
6
CONTINUOUS
10
0.501556
20
-1.72488
11
0.498505
21
-1.72469
0
LINE
8
BLACK
6
CONTINUOUS
10
0.498505
20
-1.72469
11
0.495954
21
-1.72301
0
LINE
8
BLACK
6
CONTINUOUS
10
0.495954
20
-1.72301
11
0.494668
21
-1.72044
0
LINE
8
BLACK
6
CONTINUOUS
10
0.494668
20
-1.72044
11
0.494238
21
-1.72204
0
LINE
8
BLACK
6
CONTINUOUS
10
0.494238
20
-1.72204
11
0.492076
21
-1.72421
0
LINE
8
BLACK
6
CONTINUOUS
10
0.492076
20
-1.72421
11
0.489124
21
-1.725
0
LINE
8
BLACK
6
CONTINUOUS
10
0.489124
20
-1.725
11
0.461002
21
-1.725
0
LINE
8
BLACK
6
CONTINUOUS
10
0.461002
20
-1.725
11
0.458049
21
-1.72421
0
LINE
8
BLACK
6
CONTINUOUS
10
0.458049
20
-1.72421
11
0.455888
21
-1.72204
0
LINE
8
BLACK
6
CONTINUOUS
10
0.455888
20
-1.72204
11
0.455097
21
-1.71909
0
LINE
8
BLACK
6
CONTINUOUS
10
0.455097
20
-1.71909
11
0.455097
21
-1.66004
0
LINE
8
BLACK
6
CONTINUOUS
10
0.455097
20
-1.66004
11
0.455888
21
-1.65708
0
LINE
8
BLACK
6
CONTINUOUS
10
0.455888
20
-1.65708
11
0.458049
21
-1.65492
0
LINE
8
BLACK
6
CONTINUOUS
10
0.458049
20
-1.65492
11
0.461002
21
-1.65413
0
LINE
8
BLACK
6
CONTINUOUS
10
0.461002
20
-1.65413
11
0.463955
21
-1.65492
0
LINE
8
BLACK
6
CONTINUOUS
10
0.51419
20
-1.69631
11
0.525925
21
-1.69631
0
LINE
8
BLACK
6
CONTINUOUS
10
0.525925
20
-1.69631
11
0.520057
21
-1.67871
0
LINE
8
BLACK
6
CONTINUOUS
10
0.520057
20
-1.67871
11
0.51419
21
-1.69631
0
LINE
8
BLACK
6
CONTINUOUS
10
0.580423
20
-1.65448
11
0.581753
21
-1.65475
0
LINE
8
BLACK
6
CONTINUOUS
10
0.581753
20
-1.65475
11
0.587378
21
-1.65757
0
LINE
8
BLACK
6
CONTINUOUS
10
0.587378
20
-1.65757
11
0.588089
21
-1.6582
0
LINE
8
BLACK
6
CONTINUOUS
10
0.588089
20
-1.6582
11
0.588912
21
-1.65867
0
LINE
8
BLACK
6
CONTINUOUS
10
0.588912
20
-1.65867
11
0.591725
21
-1.66148
0
LINE
8
BLACK
6
CONTINUOUS
10
0.591725
20
-1.66148
11
0.5922
21
-1.66231
0
LINE
8
BLACK
6
CONTINUOUS
10
0.5922
20
-1.66231
11
0.592831
21
-1.66302
0
LINE
8
BLACK
6
CONTINUOUS
10
0.592831
20
-1.66302
11
0.595643
21
-1.66864
0
LINE
8
BLACK
6
CONTINUOUS
10
0.595643
20
-1.66864
11
0.595915
21
-1.66997
0
LINE
8
BLACK
6
CONTINUOUS
10
0.595915
20
-1.66997
11
0.596266
21
-1.67129
0
LINE
8
BLACK
6
CONTINUOUS
10
0.596266
20
-1.67129
11
0.596266
21
-1.67691
0
LINE
8
BLACK
6
CONTINUOUS
10
0.596266
20
-1.67691
11
0.595915
21
-1.67822
0
LINE
8
BLACK
6
CONTINUOUS
10
0.595915
20
-1.67822
11
0.595643
21
-1.67955
0
LINE
8
BLACK
6
CONTINUOUS
10
0.595643
20
-1.67955
11
0.592831
21
-1.68517
0
LINE
8
BLACK
6
CONTINUOUS
10
0.592831
20
-1.68517
11
0.5922
21
-1.68589
0
LINE
8
BLACK
6
CONTINUOUS
10
0.5922
20
-1.68589
11
0.591725
21
-1.68671
0
LINE
8
BLACK
6
CONTINUOUS
10
0.591725
20
-1.68671
11
0.591671
21
-1.68676
0
LINE
8
BLACK
6
CONTINUOUS
10
0.591671
20
-1.68676
11
0.591725
21
-1.68679
0
LINE
8
BLACK
6
CONTINUOUS
10
0.591725
20
-1.68679
11
0.594537
21
-1.68961
0
LINE
8
BLACK
6
CONTINUOUS
10
0.594537
20
-1.68961
11
0.595012
21
-1.69043
0
LINE
8
BLACK
6
CONTINUOUS
10
0.595012
20
-1.69043
11
0.595643
21
-1.69114
0
LINE
8
BLACK
6
CONTINUOUS
10
0.595643
20
-1.69114
11
0.598455
21
-1.69677
0
LINE
8
BLACK
6
CONTINUOUS
10
0.598455
20
-1.69677
11
0.598727
21
-1.6981
0
LINE
8
BLACK
6
CONTINUOUS
10
0.598727
20
-1.6981
11
0.599079
21
-1.69941
0
LINE
8
BLACK
6
CONTINUOUS
10
0.599079
20
-1.69941
11
0.599079
21
-1.70784
0
LINE
8
BLACK
6
CONTINUOUS
10
0.599079
20
-1.70784
11
0.598727
21
-1.70915
0
LINE
8
BLACK
6
CONTINUOUS
10
0.598727
20
-1.70915
11
0.598455
21
-1.71048
0
LINE
8
BLACK
6
CONTINUOUS
10
0.598455
20
-1.71048
11
0.595643
21
-1.71611
0
LINE
8
BLACK
6
CONTINUOUS
10
0.595643
20
-1.71611
11
0.595012
21
-1.71682
0
LINE
8
BLACK
6
CONTINUOUS
10
0.595012
20
-1.71682
11
0.594537
21
-1.71764
0
LINE
8
BLACK
6
CONTINUOUS
10
0.594537
20
-1.71764
11
0.591725
21
-1.72046
0
LINE
8
BLACK
6
CONTINUOUS
10
0.591725
20
-1.72046
11
0.590901
21
-1.72093
0
LINE
8
BLACK
6
CONTINUOUS
10
0.590901
20
-1.72093
11
0.59019
21
-1.72156
0
LINE
8
BLACK
6
CONTINUOUS
10
0.59019
20
-1.72156
11
0.584566
21
-1.72437
0
LINE
8
BLACK
6
CONTINUOUS
10
0.584566
20
-1.72437
11
0.583236
21
-1.72465
0
LINE
8
BLACK
6
CONTINUOUS
10
0.583236
20
-1.72465
11
0.581924
21
-1.725
0
LINE
8
BLACK
6
CONTINUOUS
10
0.581924
20
-1.725
11
0.559427
21
-1.725
0
LINE
8
BLACK
6
CONTINUOUS
10
0.559427
20
-1.725
11
0.556475
21
-1.72421
0
LINE
8
BLACK
6
CONTINUOUS
10
0.556475
20
-1.72421
11
0.554313
21
-1.72204
0
LINE
8
BLACK
6
CONTINUOUS
10
0.554313
20
-1.72204
11
0.553522
21
-1.71909
0
LINE
8
BLACK
6
CONTINUOUS
10
0.553522
20
-1.71909
11
0.553522
21
-1.66004
0
LINE
8
BLACK
6
CONTINUOUS
10
0.553522
20
-1.66004
11
0.554313
21
-1.65708
0
LINE
8
BLACK
6
CONTINUOUS
10
0.554313
20
-1.65708
11
0.556475
21
-1.65492
0
LINE
8
BLACK
6
CONTINUOUS
10
0.556475
20
-1.65492
11
0.559427
21
-1.65413
0
LINE
8
BLACK
6
CONTINUOUS
10
0.559427
20
-1.65413
11
0.579112
21
-1.65413
0
LINE
8
BLACK
6
CONTINUOUS
10
0.579112
20
-1.65413
11
0.580423
21
-1.65448
0
LINE
8
BLACK
6
CONTINUOUS
10
0.565333
20
-1.71319
11
0.58053
21
-1.71319
0
LINE
8
BLACK
6
CONTINUOUS
10
0.58053
20
-1.71319
11
0.584051
21
-1.71143
0
LINE
8
BLACK
6
CONTINUOUS
10
0.584051
20
-1.71143
11
0.585507
21
-1.70997
0
LINE
8
BLACK
6
CONTINUOUS
10
0.585507
20
-1.70997
11
0.587268
21
-1.70645
0
LINE
8
BLACK
6
CONTINUOUS
10
0.587268
20
-1.70645
11
0.587268
21
-1.7008
0
LINE
8
BLACK
6
CONTINUOUS
10
0.587268
20
-1.7008
11
0.585507
21
-1.69728
0
LINE
8
BLACK
6
CONTINUOUS
10
0.585507
20
-1.69728
11
0.584359
21
-1.69613
0
LINE
8
BLACK
6
CONTINUOUS
10
0.584359
20
-1.69613
11
0.578154
21
-1.69406
0
LINE
8
BLACK
6
CONTINUOUS
10
0.578154
20
-1.69406
11
0.565333
21
-1.69406
0
LINE
8
BLACK
6
CONTINUOUS
10
0.565333
20
-1.69406
11
0.565333
21
-1.71319
0
LINE
8
BLACK
6
CONTINUOUS
10
0.565333
20
-1.68225
11
0.577718
21
-1.68225
0
LINE
8
BLACK
6
CONTINUOUS
10
0.577718
20
-1.68225
11
0.581238
21
-1.68049
0
LINE
8
BLACK
6
CONTINUOUS
10
0.581238
20
-1.68049
11
0.582695
21
-1.67904
0
LINE
8
BLACK
6
CONTINUOUS
10
0.582695
20
-1.67904
11
0.584455
21
-1.67552
0
LINE
8
BLACK
6
CONTINUOUS
10
0.584455
20
-1.67552
11
0.584455
21
-1.67268
0
LINE
8
BLACK
6
CONTINUOUS
10
0.584455
20
-1.67268
11
0.582695
21
-1.66916
0
LINE
8
BLACK
6
CONTINUOUS
10
0.582695
20
-1.66916
11
0.581238
21
-1.6677
0
LINE
8
BLACK
6
CONTINUOUS
10
0.581238
20
-1.6677
11
0.577718
21
-1.66594
0
LINE
8
BLACK
6
CONTINUOUS
10
0.577718
20
-1.66594
11
0.565333
21
-1.66594
0
LINE
8
BLACK
6
CONTINUOUS
10
0.565333
20
-1.66594
11
0.565333
21
-1.68225
0
LINE
8
BLACK
6
CONTINUOUS
10
0.0205096
20
-1.48368
11
0.0338744
21
-1.48685
0
LINE
8
BLACK
6
CONTINUOUS
10
0.0338744
20
-1.48685
11
0.0467811
21
-1.49155
0
LINE
8
BLACK
6
CONTINUOUS
10
0.0467811
20
-1.49155
11
0.0590551
21
-1.49771
0
LINE
8
BLACK
6
CONTINUOUS
10
0.0590551
20
-1.49771
11
0.0705306
21
-1.50526
0
LINE
8
BLACK
6
CONTINUOUS
10
0.0705306
20
-1.50526
11
0.0810522
21
-1.51409
0
LINE
8
BLACK
6
CONTINUOUS
10
0.0810522
20
-1.51409
11
0.0904777
21
-1.52408
0
LINE
8
BLACK
6
CONTINUOUS
10
0.0904777
20
-1.52408
11
0.0986796
21
-1.5351
0
LINE
8
BLACK
6
CONTINUOUS
10
0.0986796
20
-1.5351
11
0.105547
21
-1.54699
0
LINE
8
BLACK
6
CONTINUOUS
10
0.105547
20
-1.54699
11
0.110987
21
-1.5596
0
LINE
8
BLACK
6
CONTINUOUS
10
0.110987
20
-1.5596
11
0.114927
21
-1.57276
0
LINE
8
BLACK
6
CONTINUOUS
10
0.114927
20
-1.57276
11
0.117312
21
-1.58629
0
LINE
8
BLACK
6
CONTINUOUS
10
0.117312
20
-1.58629
11
0.11811
21
-1.6
0
LINE
8
BLACK
6
CONTINUOUS
10
0.11811
20
-1.6
11
0.117312
21
-1.61371
0
LINE
8
BLACK
6
CONTINUOUS
10
0.117312
20
-1.61371
11
0.114927
21
-1.62724
0
LINE
8
BLACK
6
CONTINUOUS
10
0.114927
20
-1.62724
11
0.110987
21
-1.6404
0
LINE
8
BLACK
6
CONTINUOUS
10
0.110987
20
-1.6404
11
0.105547
21
-1.65301
0
LINE
8
BLACK
6
CONTINUOUS
10
0.105547
20
-1.65301
11
0.0986796
21
-1.6649
0
LINE
8
BLACK
6
CONTINUOUS
10
0.0986796
20
-1.6649
11
0.0904777
21
-1.67592
0
LINE
8
BLACK
6
CONTINUOUS
10
0.0904777
20
-1.67592
11
0.0810522
21
-1.68591
0
LINE
8
BLACK
6
CONTINUOUS
10
0.0810522
20
-1.68591
11
0.0705306
21
-1.69474
0
LINE
8
BLACK
6
CONTINUOUS
10
0.0705306
20
-1.69474
11
0.0590551
21
-1.70229
0
LINE
8
BLACK
6
CONTINUOUS
10
0.0590551
20
-1.70229
11
0.0467811
21
-1.70845
0
LINE
8
BLACK
6
CONTINUOUS
10
0.0467811
20
-1.70845
11
0.0338744
21
-1.71315
0
LINE
8
BLACK
6
CONTINUOUS
10
0.0338744
20
-1.71315
11
0.0205096
21
-1.71632
0
LINE
8
BLACK
6
CONTINUOUS
10
0.0205096
20
-1.71632
11
0.00686748
21
-1.71791
0
LINE
8
BLACK
6
CONTINUOUS
10
0.00686748
20
-1.71791
11
-0.00686748
21
-1.71791
0
LINE
8
BLACK
6
CONTINUOUS
10
-0.00686748
20
-1.71791
11
-0.0205096
21
-1.71632
0
LINE
8
BLACK
6
CONTINUOUS
10
-0.0205096
20
-1.71632
11
-0.0338744
21
-1.71315
0
LINE
8
BLACK
6
CONTINUOUS
10
-0.0338744
20
-1.71315
11
-0.0467811
21
-1.70845
0
LINE
8
BLACK
6
CONTINUOUS
10
-0.0467811
20
-1.70845
11
-0.0590551
21
-1.70229
0
LINE
8
BLACK
6
CONTINUOUS
10
-0.0590551
20
-1.70229
11
-0.0705306
21
-1.69474
0
LINE
8
BLACK
6
CONTINUOUS
10
-0.0705306
20
-1.69474
11
-0.0810522
21
-1.68591
0
LINE
8
BLACK
6
CONTINUOUS
10
-0.0810522
20
-1.68591
11
-0.0904777
21
-1.67592
0
LINE
8
BLACK
6
CONTINUOUS
10
-0.0904777
20
-1.67592
11
-0.0986796
21
-1.6649
0
LINE
8
BLACK
6
CONTINUOUS
10
-0.0986796
20
-1.6649
11
-0.105547
21
-1.65301
0
LINE
8
BLACK
6
CONTINUOUS
10
-0.105547
20
-1.65301
11
-0.110987
21
-1.6404
0
LINE
8
BLACK
6
CONTINUOUS
10
-0.110987
20
-1.6404
11
-0.114927
21
-1.62724
0
LINE
8
BLACK
6
CONTINUOUS
10
-0.114927
20
-1.62724
11
-0.117312
21
-1.61371
0
LINE
8
BLACK
6
CONTINUOUS
10
-0.117312
20
-1.61371
11
-0.11811
21
-1.6
0
LINE
8
BLACK
6
CONTINUOUS
10
-0.11811
20
-1.6
11
-0.117312
21
-1.58629
0
LINE
8
BLACK
6
CONTINUOUS
10
-0.117312
20
-1.58629
11
-0.114927
21
-1.57276
0
LINE
8
BLACK
6
CONTINUOUS
10
-0.114927
20
-1.57276
11
-0.110987
21
-1.5596
0
LINE
8
BLACK
6
CONTINUOUS
10
-0.110987
20
-1.5596
11
-0.105547
21
-1.54699
0
LINE
8
BLACK
6
CONTINUOUS
10
-0.105547
20
-1.54699
11
-0.0986796
21
-1.5351
0
LINE
8
BLACK
6
CONTINUOUS
10
-0.0986796
20
-1.5351
11
-0.0904777
21
-1.52408
0
LINE
8
BLACK
6
CONTINUOUS
10
-0.0904777
20
-1.52408
11
-0.0810522
21
-1.51409
0
LINE
8
BLACK
6
CONTINUOUS
10
-0.0810522
20
-1.51409
11
-0.0705306
21
-1.50526
0
LINE
8
BLACK
6
CONTINUOUS
10
-0.0705306
20
-1.50526
11
-0.0590551
21
-1.49771
0
LINE
8
BLACK
6
CONTINUOUS
10
-0.0590551
20
-1.49771
11
-0.0467811
21
-1.49155
0
LINE
8
BLACK
6
CONTINUOUS
10
-0.0467811
20
-1.49155
11
-0.0338744
21
-1.48685
0
LINE
8
BLACK
6
CONTINUOUS
10
-0.0338744
20
-1.48685
11
-0.0205096
21
-1.48368
0
LINE
8
BLACK
6
CONTINUOUS
10
-0.0205096
20
-1.48368
11
-0.00686748
21
-1.48209
0
LINE
8
BLACK
6
CONTINUOUS
10
-0.00686748
20
-1.48209
11
0.00686748
21
-1.48209
0
LINE
8
BLACK
6
CONTINUOUS
10
0.00686748
20
-1.48209
11
0.0205096
21
-1.48368
0
LINE
8
BLACK
6
CONTINUOUS
10
0.394368
20
-0.70586
11
0.396198
21
-0.707973
0
LINE
8
BLACK
6
CONTINUOUS
10
0.396198
20
-0.707973
11
0.396646
21
-0.710034
0
LINE
8
BLACK
6
CONTINUOUS
10
0.396646
20
-0.710034
11
0.396646
21
-0.896963
0
LINE
8
BLACK
6
CONTINUOUS
10
0.396646
20
-0.896963
11
0.395859
21
-0.899645
0
LINE
8
BLACK
6
CONTINUOUS
10
0.395859
20
-0.899645
11
0.393747
21
-0.901475
0
LINE
8
BLACK
6
CONTINUOUS
10
0.393747
20
-0.901475
11
0.391686
21
-0.901923
0
LINE
8
BLACK
6
CONTINUOUS
10
0.391686
20
-0.901923
11
0.204757
21
-0.901923
0
LINE
8
BLACK
6
CONTINUOUS
10
0.204757
20
-0.901923
11
0.202075
21
-0.901136
0
LINE
8
BLACK
6
CONTINUOUS
10
0.202075
20
-0.901136
11
0.200244
21
-0.899023
0
LINE
8
BLACK
6
CONTINUOUS
10
0.200244
20
-0.899023
11
0.199796
21
-0.896963
0
LINE
8
BLACK
6
CONTINUOUS
10
0.199796
20
-0.896963
11
0.199796
21
-0.710034
0
LINE
8
BLACK
6
CONTINUOUS
10
0.199796
20
-0.710034
11
0.200584
21
-0.707352
0
LINE
8
BLACK
6
CONTINUOUS
10
0.200584
20
-0.707352
11
0.202696
21
-0.705521
0
LINE
8
BLACK
6
CONTINUOUS
10
0.202696
20
-0.705521
11
0.204757
21
-0.705073
0
LINE
8
BLACK
6
CONTINUOUS
10
0.204757
20
-0.705073
11
0.391686
21
-0.705073
0
LINE
8
BLACK
6
CONTINUOUS
10
0.391686
20
-0.705073
11
0.394368
21
-0.70586
0
LINE
8
BLACK
6
CONTINUOUS
10
0.382867
20
-0.268065
11
0.243447
21
-0.268065
0
LINE
8
BLACK
6
CONTINUOUS
10
0.243447
20
-0.268065
11
0.242517
21
-0.268995
0
LINE
8
BLACK
6
CONTINUOUS
10
0.242517
20
-0.268995
11
0.238127
21
-0.271231
0
LINE
8
BLACK
6
CONTINUOUS
10
0.238127
20
-0.271231
11
0.233261
21
-0.272002
0
LINE
8
BLACK
6
CONTINUOUS
10
0.233261
20
-0.272002
11
0.228394
21
-0.271231
0
LINE
8
BLACK
6
CONTINUOUS
10
0.228394
20
-0.271231
11
0.224004
21
-0.268995
0
LINE
8
BLACK
6
CONTINUOUS
10
0.224004
20
-0.268995
11
0.22052
21
-0.265511
0
LINE
8
BLACK
6
CONTINUOUS
10
0.22052
20
-0.265511
11
0.218283
21
-0.261121
0
LINE
8
BLACK
6
CONTINUOUS
10
0.218283
20
-0.261121
11
0.217513
21
-0.256254
0
LINE
8
BLACK
6
CONTINUOUS
10
0.217513
20
-0.256254
11
0.218283
21
-0.251388
0
LINE
8
BLACK
6
CONTINUOUS
10
0.218283
20
-0.251388
11
0.22052
21
-0.246998
0
LINE
8
BLACK
6
CONTINUOUS
10
0.22052
20
-0.246998
11
0.224004
21
-0.243514
0
LINE
8
BLACK
6
CONTINUOUS
10
0.224004
20
-0.243514
11
0.228394
21
-0.241277
0
LINE
8
BLACK
6
CONTINUOUS
10
0.228394
20
-0.241277
11
0.233261
21
-0.240506
0
LINE
8
BLACK
6
CONTINUOUS
10
0.233261
20
-0.240506
11
0.233261
21
-0.189325
0
LINE
8
BLACK
6
CONTINUOUS
10
0.233261
20
-0.189325
11
0.382867
21
-0.189325
0
LINE
8
BLACK
6
CONTINUOUS
10
0.382867
20
-0.189325
11
0.382867
21
-0.268065
0
LINE
8
BLACK
6
CONTINUOUS
10
0.0205096
20
0.116316
11
0.0338744
21
0.113148
0
LINE
8
BLACK
6
CONTINUOUS
10
0.0338744
20
0.113148
11
0.0467811
21
0.108451
0
LINE
8
BLACK
6
CONTINUOUS
10
0.0467811
20
0.108451
11
0.0590551
21
0.102286
0
LINE
8
BLACK
6
CONTINUOUS
10
0.0590551
20
0.102286
11
0.0705306
21
0.094739
0
LINE
8
BLACK
6
CONTINUOUS
10
0.0705306
20
0.094739
11
0.0810522
21
0.0859103
0
LINE
8
BLACK
6
CONTINUOUS
10
0.0810522
20
0.0859103
11
0.0904777
21
0.0759198
0
LINE
8
BLACK
6
CONTINUOUS
10
0.0904777
20
0.0759198
11
0.0986796
21
0.0649026
0
LINE
8
BLACK
6
CONTINUOUS
10
0.0986796
20
0.0649026
11
0.105547
21
0.0530078
0
LINE
8
BLACK
6
CONTINUOUS
10
0.105547
20
0.0530078
11
0.110987
21
0.0403961
0
LINE
8
BLACK
6
CONTINUOUS
10
0.110987
20
0.0403961
11
0.114927
21
0.0272381
0
LINE
8
BLACK
6
CONTINUOUS
10
0.114927
20
0.0272381
11
0.117312
21
0.0137118
0
LINE
8
BLACK
6
CONTINUOUS
10
0.117312
20
0.0137118
11
0.11811
21
0
0
LINE
8
BLACK
6
CONTINUOUS
10
0.11811
20
0
11
0.117312
21
-0.0137118
0
LINE
8
BLACK
6
CONTINUOUS
10
0.117312
20
-0.0137118
11
0.114927
21
-0.0272381
0
LINE
8
BLACK
6
CONTINUOUS
10
0.114927
20
-0.0272381
11
0.110987
21
-0.0403961
0
LINE
8
BLACK
6
CONTINUOUS
10
0.110987
20
-0.0403961
11
0.105547
21
-0.0530078
0
LINE
8
BLACK
6
CONTINUOUS
10
0.105547
20
-0.0530078
11
0.0986796
21
-0.0649026
0
LINE
8
BLACK
6
CONTINUOUS
10
0.0986796
20
-0.0649026
11
0.0904777
21
-0.0759198
0
LINE
8
BLACK
6
CONTINUOUS
10
0.0904777
20
-0.0759198
11
0.0810522
21
-0.0859103
0
LINE
8
BLACK
6
CONTINUOUS
10
0.0810522
20
-0.0859103
11
0.0705306
21
-0.094739
0
LINE
8
BLACK
6
CONTINUOUS
10
0.0705306
20
-0.094739
11
0.0590551
21
-0.102286
0
LINE
8
BLACK
6
CONTINUOUS
10
0.0590551
20
-0.102286
11
0.0467811
21
-0.108451
0
LINE
8
BLACK
6
CONTINUOUS
10
0.0467811
20
-0.108451
11
0.0338744
21
-0.113148
0
LINE
8
BLACK
6
CONTINUOUS
10
0.0338744
20
-0.113148
11
0.0205096
21
-0.116316
0
LINE
8
BLACK
6
CONTINUOUS
10
0.0205096
20
-0.116316
11
0.00686748
21
-0.11791
0
LINE
8
BLACK
6
CONTINUOUS
10
0.00686748
20
-0.11791
11
-0.00686748
21
-0.11791
0
LINE
8
BLACK
6
CONTINUOUS
10
-0.00686748
20
-0.11791
11
-0.0205096
21
-0.116316
0
LINE
8
BLACK
6
CONTINUOUS
10
-0.0205096
20
-0.116316
11
-0.0338744
21
-0.113148
0
LINE
8
BLACK
6
CONTINUOUS
10
-0.0338744
20
-0.113148
11
-0.0467811
21
-0.108451
0
LINE
8
BLACK
6
CONTINUOUS
10
-0.0467811
20
-0.108451
11
-0.0590551
21
-0.102286
0
LINE
8
BLACK
6
CONTINUOUS
10
-0.0590551
20
-0.102286
11
-0.0705306
21
-0.094739
0
LINE
8
BLACK
6
CONTINUOUS
10
-0.0705306
20
-0.094739
11
-0.0810522
21
-0.0859103
0
LINE
8
BLACK
6
CONTINUOUS
10
-0.0810522
20
-0.0859103
11
-0.0904777
21
-0.0759198
0
LINE
8
BLACK
6
CONTINUOUS
10
-0.0904777
20
-0.0759198
11
-0.0986796
21
-0.0649026
0
LINE
8
BLACK
6
CONTINUOUS
10
-0.0986796
20
-0.0649026
11
-0.105547
21
-0.0530078
0
LINE
8
BLACK
6
CONTINUOUS
10
-0.105547
20
-0.0530078
11
-0.110987
21
-0.0403961
0
LINE
8
BLACK
6
CONTINUOUS
10
-0.110987
20
-0.0403961
11
-0.114927
21
-0.0272381
0
LINE
8
BLACK
6
CONTINUOUS
10
-0.114927
20
-0.0272381
11
-0.117312
21
-0.0137118
0
LINE
8
BLACK
6
CONTINUOUS
10
-0.117312
20
-0.0137118
11
-0.11811
21
0
0
LINE
8
BLACK
6
CONTINUOUS
10
-0.11811
20
0
11
-0.117312
21
0.0137118
0
LINE
8
BLACK
6
CONTINUOUS
10
-0.117312
20
0.0137118
11
-0.114927
21
0.0272381
0
LINE
8
BLACK
6
CONTINUOUS
10
-0.114927
20
0.0272381
11
-0.110987
21
0.0403961
0
LINE
8
BLACK
6
CONTINUOUS
10
-0.110987
20
0.0403961
11
-0.105547
21
0.0530078
0
LINE
8
BLACK
6
CONTINUOUS
10
-0.105547
20
0.0530078
11
-0.0986796
21
0.0649026
0
LINE
8
BLACK
6
CONTINUOUS
10
-0.0986796
20
0.0649026
11
-0.0904777
21
0.0759198
0
LINE
8
BLACK
6
CONTINUOUS
10
-0.0904777
20
0.0759198
11
-0.0810522
21
0.0859103
0
LINE
8
BLACK
6
CONTINUOUS
10
-0.0810522
20
0.0859103
11
-0.0705306
21
0.094739
0
LINE
8
BLACK
6
CONTINUOUS
10
-0.0705306
20
0.094739
11
-0.0590551
21
0.102286
0
LINE
8
BLACK
6
CONTINUOUS
10
-0.0590551
20
0.102286
11
-0.0467811
21
0.108451
0
LINE
8
BLACK
6
CONTINUOUS
10
-0.0467811
20
0.108451
11
-0.0338744
21
0.113148
0
LINE
8
BLACK
6
CONTINUOUS
10
-0.0338744
20
0.113148
11
-0.0205096
21
0.116316
0
LINE
8
BLACK
6
CONTINUOUS
10
-0.0205096
20
0.116316
11
-0.00686748
21
0.11791
0
LINE
8
BLACK
6
CONTINUOUS
10
-0.00686748
20
0.11791
11
0.00686748
21
0.11791
0
LINE
8
BLACK
6
CONTINUOUS
10
0.00686748
20
0.11791
11
0.0205096
21
0.116316
0
CIRCLE
8
BLACK
10
0
20
0
40
0.00688976
0
CIRCLE
8
BLACK
10
0
20
-1.6
40
0.00688976
0
CIRCLE
8
BLACK
10
0.37893
20
-0.720821
40
0.00787402
0
CIRCLE
8
BLACK
10
0.233261
20
-0.256254
40
0.00787402
  0
ENDSEC
  0
EOF
