  0
SECTION
  2
HEADER
  9
$ANGBASE
  50
0.0
  9
$ANGDIR
  70
1
  9
$MEASUREMENT
  70
0
  0
ENDSEC
  0
SECTION
  2
TABLES
  0
TABLE
  2
LTYPE
  70
4
  0
LTYPE
  5
40F
  2
CONTINUOUS
  70
0
  3
Solid line
  72
65
  73
0
  40
0.0
  0
LTYPE
  5
410
  2
DASHDOT
 70
0
  3
Dash Dot ____ _ ____ _
 72
65
 73
4
 40
2.0
 49
1.25
 49
-0.25
 49
0.25
 49
-0.25
  0
LTYPE
  5
411
  2
DASHED
 70
0
  3
Dashed __ __ __ __ __
 72
65
 73
2
 40
0.75
 49
0.5
 49
-0.25
  0
LTYPE
  5
43B
  2
DOTTED
 70
0
  3
Dotted .  .  .  .
 72
65
 73
2
 40
0.2
 49
0.0
 49
-0.2
  0
ENDTAB
  0
TABLE
  2
STYLE
  70
4
  0
STYLE
  2
KICAD
  70
0
  40
0
  41
1
  42
1
  50
0
  71
0
  3
isocp.shx
  0
STYLE
  2
KICADB
  70
0
  40
0
  41
1
  42
1
  50
0
  71
0
  3
isocp.shx
  0
STYLE
  2
KICADI
  70
0
  40
0
  41
1
  42
1
  50
15
  71
0
  3
isocp.shx
  0
STYLE
  2
KICADBI
  70
0
  40
0
  41
1
  42
1
  50
15
  71
0
  3
isocp.shx
  0
ENDTAB
  0
TABLE
  2
LAYER
  70
1
  0
LAYER
  2
BLACK
  70
0
  62
7
  6
CONTINUOUS
  0
ENDTAB
  0
ENDSEC
  0
SECTION
  2
ENTITIES
0
LINE
8
BLACK
6
CONTINUOUS
10
0.760593
20
0.193744
11
0.761217
21
0.193744
0
LINE
8
BLACK
6
CONTINUOUS
10
0.761217
20
0.193744
11
0.761721
21
0.193378
0
LINE
8
BLACK
6
CONTINUOUS
10
0.761721
20
0.193378
11
0.762314
21
0.193185
0
LINE
8
BLACK
6
CONTINUOUS
10
0.762314
20
0.193185
11
0.762681
21
0.192681
0
LINE
8
BLACK
6
CONTINUOUS
10
0.762681
20
0.192681
11
0.763185
21
0.192314
0
LINE
8
BLACK
6
CONTINUOUS
10
0.763185
20
0.192314
11
0.763378
21
0.191721
0
LINE
8
BLACK
6
CONTINUOUS
10
0.763378
20
0.191721
11
0.763744
21
0.191217
0
LINE
8
BLACK
6
CONTINUOUS
10
0.763744
20
0.191217
11
0.763744
21
0.190593
0
LINE
8
BLACK
6
CONTINUOUS
10
0.763744
20
0.190593
11
0.763937
21
0.19
0
LINE
8
BLACK
6
CONTINUOUS
10
0.763937
20
0.19
11
0.763937
21
-1.79
0
LINE
8
BLACK
6
CONTINUOUS
10
0.763937
20
-1.79
11
0.763744
21
-1.79059
0
LINE
8
BLACK
6
CONTINUOUS
10
0.763744
20
-1.79059
11
0.763744
21
-1.79122
0
LINE
8
BLACK
6
CONTINUOUS
10
0.763744
20
-1.79122
11
0.763378
21
-1.79172
0
LINE
8
BLACK
6
CONTINUOUS
10
0.763378
20
-1.79172
11
0.763185
21
-1.79231
0
LINE
8
BLACK
6
CONTINUOUS
10
0.763185
20
-1.79231
11
0.762681
21
-1.79268
0
LINE
8
BLACK
6
CONTINUOUS
10
0.762681
20
-1.79268
11
0.762314
21
-1.79319
0
LINE
8
BLACK
6
CONTINUOUS
10
0.762314
20
-1.79319
11
0.761721
21
-1.79338
0
LINE
8
BLACK
6
CONTINUOUS
10
0.761721
20
-1.79338
11
0.761217
21
-1.79374
0
LINE
8
BLACK
6
CONTINUOUS
10
0.761217
20
-1.79374
11
0.760593
21
-1.79374
0
LINE
8
BLACK
6
CONTINUOUS
10
0.760593
20
-1.79374
11
0.76
21
-1.79394
0
LINE
8
BLACK
6
CONTINUOUS
10
0.76
20
-1.79394
11
-0.19
21
-1.79394
0
LINE
8
BLACK
6
CONTINUOUS
10
-0.19
20
-1.79394
11
-0.190593
21
-1.79374
0
LINE
8
BLACK
6
CONTINUOUS
10
-0.190593
20
-1.79374
11
-0.191217
21
-1.79374
0
LINE
8
BLACK
6
CONTINUOUS
10
-0.191217
20
-1.79374
11
-0.191721
21
-1.79338
0
LINE
8
BLACK
6
CONTINUOUS
10
-0.191721
20
-1.79338
11
-0.192314
21
-1.79319
0
LINE
8
BLACK
6
CONTINUOUS
10
-0.192314
20
-1.79319
11
-0.192681
21
-1.79268
0
LINE
8
BLACK
6
CONTINUOUS
10
-0.192681
20
-1.79268
11
-0.193185
21
-1.79231
0
LINE
8
BLACK
6
CONTINUOUS
10
-0.193185
20
-1.79231
11
-0.193378
21
-1.79172
0
LINE
8
BLACK
6
CONTINUOUS
10
-0.193378
20
-1.79172
11
-0.193744
21
-1.79122
0
LINE
8
BLACK
6
CONTINUOUS
10
-0.193744
20
-1.79122
11
-0.193744
21
-1.79059
0
LINE
8
BLACK
6
CONTINUOUS
10
-0.193744
20
-1.79059
11
-0.193937
21
-1.79
0
LINE
8
BLACK
6
CONTINUOUS
10
-0.193937
20
-1.79
11
-0.193937
21
0.19
0
LINE
8
BLACK
6
CONTINUOUS
10
-0.193937
20
0.19
11
-0.193744
21
0.190593
0
LINE
8
BLACK
6
CONTINUOUS
10
-0.193744
20
0.190593
11
-0.193744
21
0.191217
0
LINE
8
BLACK
6
CONTINUOUS
10
-0.193744
20
0.191217
11
-0.193378
21
0.191721
0
LINE
8
BLACK
6
CONTINUOUS
10
-0.193378
20
0.191721
11
-0.193185
21
0.192314
0
LINE
8
BLACK
6
CONTINUOUS
10
-0.193185
20
0.192314
11
-0.192681
21
0.192681
0
LINE
8
BLACK
6
CONTINUOUS
10
-0.192681
20
0.192681
11
-0.192314
21
0.193185
0
LINE
8
BLACK
6
CONTINUOUS
10
-0.192314
20
0.193185
11
-0.191721
21
0.193378
0
LINE
8
BLACK
6
CONTINUOUS
10
-0.191721
20
0.193378
11
-0.191217
21
0.193744
0
LINE
8
BLACK
6
CONTINUOUS
10
-0.191217
20
0.193744
11
-0.190593
21
0.193744
0
LINE
8
BLACK
6
CONTINUOUS
10
-0.190593
20
0.193744
11
-0.19
21
0.193937
0
LINE
8
BLACK
6
CONTINUOUS
10
-0.19
20
0.193937
11
0.76
21
0.193937
0
LINE
8
BLACK
6
CONTINUOUS
10
0.76
20
0.193937
11
0.760593
21
0.193744
0
LINE
8
BLACK
6
CONTINUOUS
10
-0.186063
20
0.186063
11
-0.186063
21
-1.78606
0
LINE
8
BLACK
6
CONTINUOUS
10
-0.186063
20
-1.78606
11
0.756063
21
-1.78606
0
LINE
8
BLACK
6
CONTINUOUS
10
0.756063
20
-1.78606
11
0.756063
21
0.186063
0
LINE
8
BLACK
6
CONTINUOUS
10
0.756063
20
0.186063
11
-0.186063
21
0.186063
  0
ENDSEC
  0
EOF
