  0
SECTION
  2
HEADER
  9
$ANGBASE
  50
0.0
  9
$ANGDIR
  70
1
  9
$MEASUREMENT
  70
0
  0
ENDSEC
  0
SECTION
  2
TABLES
  0
TABLE
  2
LTYPE
  70
4
  0
LTYPE
  5
40F
  2
CONTINUOUS
  70
0
  3
Solid line
  72
65
  73
0
  40
0.0
  0
LTYPE
  5
410
  2
DASHDOT
 70
0
  3
Dash Dot ____ _ ____ _
 72
65
 73
4
 40
2.0
 49
1.25
 49
-0.25
 49
0.25
 49
-0.25
  0
LTYPE
  5
411
  2
DASHED
 70
0
  3
Dashed __ __ __ __ __
 72
65
 73
2
 40
0.75
 49
0.5
 49
-0.25
  0
LTYPE
  5
43B
  2
DOTTED
 70
0
  3
Dotted .  .  .  .
 72
65
 73
2
 40
0.2
 49
0.0
 49
-0.2
  0
ENDTAB
  0
TABLE
  2
STYLE
  70
4
  0
STYLE
  2
KICAD
  70
0
  40
0
  41
1
  42
1
  50
0
  71
0
  3
isocp.shx
  0
STYLE
  2
KICADB
  70
0
  40
0
  41
1
  42
1
  50
0
  71
0
  3
isocp.shx
  0
STYLE
  2
KICADI
  70
0
  40
0
  41
1
  42
1
  50
15
  71
0
  3
isocp.shx
  0
STYLE
  2
KICADBI
  70
0
  40
0
  41
1
  42
1
  50
15
  71
0
  3
isocp.shx
  0
ENDTAB
  0
TABLE
  2
LAYER
  70
1
  0
LAYER
  2
BLACK
  70
0
  62
7
  6
CONTINUOUS
  0
ENDTAB
  0
ENDSEC
  0
SECTION
  2
ENTITIES
0
LINE
8
BLACK
6
CONTINUOUS
10
0.0141057
20
-1.47481
11
0.0280341
21
-1.47717
0
LINE
8
BLACK
6
CONTINUOUS
10
0.0280341
20
-1.47717
11
0.04161
21
-1.48109
0
LINE
8
BLACK
6
CONTINUOUS
10
0.04161
20
-1.48109
11
0.0546625
21
-1.48649
0
LINE
8
BLACK
6
CONTINUOUS
10
0.0546625
20
-1.48649
11
0.0670277
21
-1.49333
0
LINE
8
BLACK
6
CONTINUOUS
10
0.0670277
20
-1.49333
11
0.0785499
21
-1.5015
0
LINE
8
BLACK
6
CONTINUOUS
10
0.0785499
20
-1.5015
11
0.0890843
21
-1.51092
0
LINE
8
BLACK
6
CONTINUOUS
10
0.0890843
20
-1.51092
11
0.0984985
21
-1.52145
0
LINE
8
BLACK
6
CONTINUOUS
10
0.0984985
20
-1.52145
11
0.106674
21
-1.53297
0
LINE
8
BLACK
6
CONTINUOUS
10
0.106674
20
-1.53297
11
0.113508
21
-1.54534
0
LINE
8
BLACK
6
CONTINUOUS
10
0.113508
20
-1.54534
11
0.118914
21
-1.55839
0
LINE
8
BLACK
6
CONTINUOUS
10
0.118914
20
-1.55839
11
0.122826
21
-1.57197
0
LINE
8
BLACK
6
CONTINUOUS
10
0.122826
20
-1.57197
11
0.125192
21
-1.58589
0
LINE
8
BLACK
6
CONTINUOUS
10
0.125192
20
-1.58589
11
0.125984
21
-1.6
0
LINE
8
BLACK
6
CONTINUOUS
10
0.125984
20
-1.6
11
0.125192
21
-1.61411
0
LINE
8
BLACK
6
CONTINUOUS
10
0.125192
20
-1.61411
11
0.122826
21
-1.62803
0
LINE
8
BLACK
6
CONTINUOUS
10
0.122826
20
-1.62803
11
0.118914
21
-1.64161
0
LINE
8
BLACK
6
CONTINUOUS
10
0.118914
20
-1.64161
11
0.113508
21
-1.65466
0
LINE
8
BLACK
6
CONTINUOUS
10
0.113508
20
-1.65466
11
0.106674
21
-1.66703
0
LINE
8
BLACK
6
CONTINUOUS
10
0.106674
20
-1.66703
11
0.0984985
21
-1.67855
0
LINE
8
BLACK
6
CONTINUOUS
10
0.0984985
20
-1.67855
11
0.0890843
21
-1.68908
0
LINE
8
BLACK
6
CONTINUOUS
10
0.0890843
20
-1.68908
11
0.0785499
21
-1.6985
0
LINE
8
BLACK
6
CONTINUOUS
10
0.0785499
20
-1.6985
11
0.0670277
21
-1.70667
0
LINE
8
BLACK
6
CONTINUOUS
10
0.0670277
20
-1.70667
11
0.0546625
21
-1.71351
0
LINE
8
BLACK
6
CONTINUOUS
10
0.0546625
20
-1.71351
11
0.04161
21
-1.71891
0
LINE
8
BLACK
6
CONTINUOUS
10
0.04161
20
-1.71891
11
0.0280341
21
-1.72283
0
LINE
8
BLACK
6
CONTINUOUS
10
0.0280341
20
-1.72283
11
0.0141057
21
-1.72519
0
LINE
8
BLACK
6
CONTINUOUS
10
0.0141057
20
-1.72519
11
0
21
-1.72598
0
LINE
8
BLACK
6
CONTINUOUS
10
0
20
-1.72598
11
-0.0141057
21
-1.72519
0
LINE
8
BLACK
6
CONTINUOUS
10
-0.0141057
20
-1.72519
11
-0.0280341
21
-1.72283
0
LINE
8
BLACK
6
CONTINUOUS
10
-0.0280341
20
-1.72283
11
-0.04161
21
-1.71891
0
LINE
8
BLACK
6
CONTINUOUS
10
-0.04161
20
-1.71891
11
-0.0546625
21
-1.71351
0
LINE
8
BLACK
6
CONTINUOUS
10
-0.0546625
20
-1.71351
11
-0.0670277
21
-1.70667
0
LINE
8
BLACK
6
CONTINUOUS
10
-0.0670277
20
-1.70667
11
-0.0785499
21
-1.6985
0
LINE
8
BLACK
6
CONTINUOUS
10
-0.0785499
20
-1.6985
11
-0.0890843
21
-1.68908
0
LINE
8
BLACK
6
CONTINUOUS
10
-0.0890843
20
-1.68908
11
-0.0984985
21
-1.67855
0
LINE
8
BLACK
6
CONTINUOUS
10
-0.0984985
20
-1.67855
11
-0.106674
21
-1.66703
0
LINE
8
BLACK
6
CONTINUOUS
10
-0.106674
20
-1.66703
11
-0.113508
21
-1.65466
0
LINE
8
BLACK
6
CONTINUOUS
10
-0.113508
20
-1.65466
11
-0.118914
21
-1.64161
0
LINE
8
BLACK
6
CONTINUOUS
10
-0.118914
20
-1.64161
11
-0.122826
21
-1.62803
0
LINE
8
BLACK
6
CONTINUOUS
10
-0.122826
20
-1.62803
11
-0.125192
21
-1.61411
0
LINE
8
BLACK
6
CONTINUOUS
10
-0.125192
20
-1.61411
11
-0.125984
21
-1.6
0
LINE
8
BLACK
6
CONTINUOUS
10
-0.125984
20
-1.6
11
-0.125192
21
-1.58589
0
LINE
8
BLACK
6
CONTINUOUS
10
-0.125192
20
-1.58589
11
-0.122826
21
-1.57197
0
LINE
8
BLACK
6
CONTINUOUS
10
-0.122826
20
-1.57197
11
-0.118914
21
-1.55839
0
LINE
8
BLACK
6
CONTINUOUS
10
-0.118914
20
-1.55839
11
-0.113508
21
-1.54534
0
LINE
8
BLACK
6
CONTINUOUS
10
-0.113508
20
-1.54534
11
-0.106674
21
-1.53297
0
LINE
8
BLACK
6
CONTINUOUS
10
-0.106674
20
-1.53297
11
-0.0984985
21
-1.52145
0
LINE
8
BLACK
6
CONTINUOUS
10
-0.0984985
20
-1.52145
11
-0.0890843
21
-1.51092
0
LINE
8
BLACK
6
CONTINUOUS
10
-0.0890843
20
-1.51092
11
-0.0785499
21
-1.5015
0
LINE
8
BLACK
6
CONTINUOUS
10
-0.0785499
20
-1.5015
11
-0.0670277
21
-1.49333
0
LINE
8
BLACK
6
CONTINUOUS
10
-0.0670277
20
-1.49333
11
-0.0546625
21
-1.48649
0
LINE
8
BLACK
6
CONTINUOUS
10
-0.0546625
20
-1.48649
11
-0.04161
21
-1.48109
0
LINE
8
BLACK
6
CONTINUOUS
10
-0.04161
20
-1.48109
11
-0.0280341
21
-1.47717
0
LINE
8
BLACK
6
CONTINUOUS
10
-0.0280341
20
-1.47717
11
-0.0141057
21
-1.47481
0
LINE
8
BLACK
6
CONTINUOUS
10
-0.0141057
20
-1.47481
11
0
21
-1.47402
0
LINE
8
BLACK
6
CONTINUOUS
10
0
20
-1.47402
11
0.0141057
21
-1.47481
0
LINE
8
BLACK
6
CONTINUOUS
10
0.230762
20
-0.462365
11
0.233317
21
-0.464072
0
LINE
8
BLACK
6
CONTINUOUS
10
0.233317
20
-0.464072
11
0.235024
21
-0.466627
0
LINE
8
BLACK
6
CONTINUOUS
10
0.235024
20
-0.466627
11
0.235623
21
-0.46964
0
LINE
8
BLACK
6
CONTINUOUS
10
0.235623
20
-0.46964
11
0.235623
21
-0.568459
0
LINE
8
BLACK
6
CONTINUOUS
10
0.235623
20
-0.568459
11
0.235024
21
-0.571472
0
LINE
8
BLACK
6
CONTINUOUS
10
0.235024
20
-0.571472
11
0.233317
21
-0.574027
0
LINE
8
BLACK
6
CONTINUOUS
10
0.233317
20
-0.574027
11
0.230762
21
-0.575733
0
LINE
8
BLACK
6
CONTINUOUS
10
0.230762
20
-0.575733
11
0.227749
21
-0.576333
0
LINE
8
BLACK
6
CONTINUOUS
10
0.227749
20
-0.576333
11
0.188379
21
-0.576333
0
LINE
8
BLACK
6
CONTINUOUS
10
0.188379
20
-0.576333
11
0.185366
21
-0.575733
0
LINE
8
BLACK
6
CONTINUOUS
10
0.185366
20
-0.575733
11
0.182811
21
-0.574027
0
LINE
8
BLACK
6
CONTINUOUS
10
0.182811
20
-0.574027
11
0.181104
21
-0.571472
0
LINE
8
BLACK
6
CONTINUOUS
10
0.181104
20
-0.571472
11
0.180505
21
-0.568459
0
LINE
8
BLACK
6
CONTINUOUS
10
0.180505
20
-0.568459
11
0.180505
21
-0.46964
0
LINE
8
BLACK
6
CONTINUOUS
10
0.180505
20
-0.46964
11
0.181104
21
-0.466627
0
LINE
8
BLACK
6
CONTINUOUS
10
0.181104
20
-0.466627
11
0.182811
21
-0.464072
0
LINE
8
BLACK
6
CONTINUOUS
10
0.182811
20
-0.464072
11
0.185366
21
-0.462365
0
LINE
8
BLACK
6
CONTINUOUS
10
0.185366
20
-0.462365
11
0.188379
21
-0.461766
0
LINE
8
BLACK
6
CONTINUOUS
10
0.188379
20
-0.461766
11
0.227749
21
-0.461766
0
LINE
8
BLACK
6
CONTINUOUS
10
0.227749
20
-0.461766
11
0.230762
21
-0.462365
0
LINE
8
BLACK
6
CONTINUOUS
10
0.430762
20
-0.462365
11
0.433317
21
-0.464072
0
LINE
8
BLACK
6
CONTINUOUS
10
0.433317
20
-0.464072
11
0.435024
21
-0.466627
0
LINE
8
BLACK
6
CONTINUOUS
10
0.435024
20
-0.466627
11
0.435623
21
-0.46964
0
LINE
8
BLACK
6
CONTINUOUS
10
0.435623
20
-0.46964
11
0.435623
21
-0.568459
0
LINE
8
BLACK
6
CONTINUOUS
10
0.435623
20
-0.568459
11
0.435024
21
-0.571472
0
LINE
8
BLACK
6
CONTINUOUS
10
0.435024
20
-0.571472
11
0.433317
21
-0.574027
0
LINE
8
BLACK
6
CONTINUOUS
10
0.433317
20
-0.574027
11
0.430762
21
-0.575733
0
LINE
8
BLACK
6
CONTINUOUS
10
0.430762
20
-0.575733
11
0.427749
21
-0.576333
0
LINE
8
BLACK
6
CONTINUOUS
10
0.427749
20
-0.576333
11
0.388379
21
-0.576333
0
LINE
8
BLACK
6
CONTINUOUS
10
0.388379
20
-0.576333
11
0.385366
21
-0.575733
0
LINE
8
BLACK
6
CONTINUOUS
10
0.385366
20
-0.575733
11
0.382811
21
-0.574027
0
LINE
8
BLACK
6
CONTINUOUS
10
0.382811
20
-0.574027
11
0.381104
21
-0.571472
0
LINE
8
BLACK
6
CONTINUOUS
10
0.381104
20
-0.571472
11
0.380505
21
-0.568459
0
LINE
8
BLACK
6
CONTINUOUS
10
0.380505
20
-0.568459
11
0.380505
21
-0.46964
0
LINE
8
BLACK
6
CONTINUOUS
10
0.380505
20
-0.46964
11
0.381104
21
-0.466627
0
LINE
8
BLACK
6
CONTINUOUS
10
0.381104
20
-0.466627
11
0.382811
21
-0.464072
0
LINE
8
BLACK
6
CONTINUOUS
10
0.382811
20
-0.464072
11
0.385366
21
-0.462365
0
LINE
8
BLACK
6
CONTINUOUS
10
0.385366
20
-0.462365
11
0.388379
21
-0.461766
0
LINE
8
BLACK
6
CONTINUOUS
10
0.388379
20
-0.461766
11
0.427749
21
-0.461766
0
LINE
8
BLACK
6
CONTINUOUS
10
0.427749
20
-0.461766
11
0.430762
21
-0.462365
0
LINE
8
BLACK
6
CONTINUOUS
10
0.330762
20
-0.33205
11
0.333317
21
-0.333757
0
LINE
8
BLACK
6
CONTINUOUS
10
0.333317
20
-0.333757
11
0.335024
21
-0.336312
0
LINE
8
BLACK
6
CONTINUOUS
10
0.335024
20
-0.336312
11
0.335623
21
-0.339325
0
LINE
8
BLACK
6
CONTINUOUS
10
0.335623
20
-0.339325
11
0.335623
21
-0.438144
0
LINE
8
BLACK
6
CONTINUOUS
10
0.335623
20
-0.438144
11
0.335024
21
-0.441157
0
LINE
8
BLACK
6
CONTINUOUS
10
0.335024
20
-0.441157
11
0.333317
21
-0.443712
0
LINE
8
BLACK
6
CONTINUOUS
10
0.333317
20
-0.443712
11
0.330762
21
-0.445419
0
LINE
8
BLACK
6
CONTINUOUS
10
0.330762
20
-0.445419
11
0.327749
21
-0.446018
0
LINE
8
BLACK
6
CONTINUOUS
10
0.327749
20
-0.446018
11
0.288379
21
-0.446018
0
LINE
8
BLACK
6
CONTINUOUS
10
0.288379
20
-0.446018
11
0.285366
21
-0.445419
0
LINE
8
BLACK
6
CONTINUOUS
10
0.285366
20
-0.445419
11
0.282811
21
-0.443712
0
LINE
8
BLACK
6
CONTINUOUS
10
0.282811
20
-0.443712
11
0.281104
21
-0.441157
0
LINE
8
BLACK
6
CONTINUOUS
10
0.281104
20
-0.441157
11
0.280505
21
-0.438144
0
LINE
8
BLACK
6
CONTINUOUS
10
0.280505
20
-0.438144
11
0.280505
21
-0.339325
0
LINE
8
BLACK
6
CONTINUOUS
10
0.280505
20
-0.339325
11
0.281104
21
-0.336312
0
LINE
8
BLACK
6
CONTINUOUS
10
0.281104
20
-0.336312
11
0.282811
21
-0.333757
0
LINE
8
BLACK
6
CONTINUOUS
10
0.282811
20
-0.333757
11
0.285366
21
-0.33205
0
LINE
8
BLACK
6
CONTINUOUS
10
0.285366
20
-0.33205
11
0.288379
21
-0.331451
0
LINE
8
BLACK
6
CONTINUOUS
10
0.288379
20
-0.331451
11
0.327749
21
-0.331451
0
LINE
8
BLACK
6
CONTINUOUS
10
0.327749
20
-0.331451
11
0.330762
21
-0.33205
0
LINE
8
BLACK
6
CONTINUOUS
10
0.0141057
20
0.125192
11
0.0280341
21
0.122826
0
LINE
8
BLACK
6
CONTINUOUS
10
0.0280341
20
0.122826
11
0.04161
21
0.118914
0
LINE
8
BLACK
6
CONTINUOUS
10
0.04161
20
0.118914
11
0.0546625
21
0.113508
0
LINE
8
BLACK
6
CONTINUOUS
10
0.0546625
20
0.113508
11
0.0670277
21
0.106674
0
LINE
8
BLACK
6
CONTINUOUS
10
0.0670277
20
0.106674
11
0.0785499
21
0.0984985
0
LINE
8
BLACK
6
CONTINUOUS
10
0.0785499
20
0.0984985
11
0.0890843
21
0.0890843
0
LINE
8
BLACK
6
CONTINUOUS
10
0.0890843
20
0.0890843
11
0.0984985
21
0.0785499
0
LINE
8
BLACK
6
CONTINUOUS
10
0.0984985
20
0.0785499
11
0.106674
21
0.0670277
0
LINE
8
BLACK
6
CONTINUOUS
10
0.106674
20
0.0670277
11
0.113508
21
0.0546625
0
LINE
8
BLACK
6
CONTINUOUS
10
0.113508
20
0.0546625
11
0.118914
21
0.04161
0
LINE
8
BLACK
6
CONTINUOUS
10
0.118914
20
0.04161
11
0.122826
21
0.0280341
0
LINE
8
BLACK
6
CONTINUOUS
10
0.122826
20
0.0280341
11
0.125192
21
0.0141057
0
LINE
8
BLACK
6
CONTINUOUS
10
0.125192
20
0.0141057
11
0.125984
21
0
0
LINE
8
BLACK
6
CONTINUOUS
10
0.125984
20
0
11
0.125192
21
-0.0141057
0
LINE
8
BLACK
6
CONTINUOUS
10
0.125192
20
-0.0141057
11
0.122826
21
-0.0280341
0
LINE
8
BLACK
6
CONTINUOUS
10
0.122826
20
-0.0280341
11
0.118914
21
-0.04161
0
LINE
8
BLACK
6
CONTINUOUS
10
0.118914
20
-0.04161
11
0.113508
21
-0.0546625
0
LINE
8
BLACK
6
CONTINUOUS
10
0.113508
20
-0.0546625
11
0.106674
21
-0.0670277
0
LINE
8
BLACK
6
CONTINUOUS
10
0.106674
20
-0.0670277
11
0.0984985
21
-0.0785499
0
LINE
8
BLACK
6
CONTINUOUS
10
0.0984985
20
-0.0785499
11
0.0890843
21
-0.0890843
0
LINE
8
BLACK
6
CONTINUOUS
10
0.0890843
20
-0.0890843
11
0.0785499
21
-0.0984985
0
LINE
8
BLACK
6
CONTINUOUS
10
0.0785499
20
-0.0984985
11
0.0670277
21
-0.106674
0
LINE
8
BLACK
6
CONTINUOUS
10
0.0670277
20
-0.106674
11
0.0546625
21
-0.113508
0
LINE
8
BLACK
6
CONTINUOUS
10
0.0546625
20
-0.113508
11
0.04161
21
-0.118914
0
LINE
8
BLACK
6
CONTINUOUS
10
0.04161
20
-0.118914
11
0.0280341
21
-0.122826
0
LINE
8
BLACK
6
CONTINUOUS
10
0.0280341
20
-0.122826
11
0.0141057
21
-0.125192
0
LINE
8
BLACK
6
CONTINUOUS
10
0.0141057
20
-0.125192
11
0
21
-0.125984
0
LINE
8
BLACK
6
CONTINUOUS
10
0
20
-0.125984
11
-0.0141057
21
-0.125192
0
LINE
8
BLACK
6
CONTINUOUS
10
-0.0141057
20
-0.125192
11
-0.0280341
21
-0.122826
0
LINE
8
BLACK
6
CONTINUOUS
10
-0.0280341
20
-0.122826
11
-0.04161
21
-0.118914
0
LINE
8
BLACK
6
CONTINUOUS
10
-0.04161
20
-0.118914
11
-0.0546625
21
-0.113508
0
LINE
8
BLACK
6
CONTINUOUS
10
-0.0546625
20
-0.113508
11
-0.0670277
21
-0.106674
0
LINE
8
BLACK
6
CONTINUOUS
10
-0.0670277
20
-0.106674
11
-0.0785499
21
-0.0984985
0
LINE
8
BLACK
6
CONTINUOUS
10
-0.0785499
20
-0.0984985
11
-0.0890843
21
-0.0890843
0
LINE
8
BLACK
6
CONTINUOUS
10
-0.0890843
20
-0.0890843
11
-0.0984985
21
-0.0785499
0
LINE
8
BLACK
6
CONTINUOUS
10
-0.0984985
20
-0.0785499
11
-0.106674
21
-0.0670277
0
LINE
8
BLACK
6
CONTINUOUS
10
-0.106674
20
-0.0670277
11
-0.113508
21
-0.0546625
0
LINE
8
BLACK
6
CONTINUOUS
10
-0.113508
20
-0.0546625
11
-0.118914
21
-0.04161
0
LINE
8
BLACK
6
CONTINUOUS
10
-0.118914
20
-0.04161
11
-0.122826
21
-0.0280341
0
LINE
8
BLACK
6
CONTINUOUS
10
-0.122826
20
-0.0280341
11
-0.125192
21
-0.0141057
0
LINE
8
BLACK
6
CONTINUOUS
10
-0.125192
20
-0.0141057
11
-0.125984
21
0
0
LINE
8
BLACK
6
CONTINUOUS
10
-0.125984
20
0
11
-0.125192
21
0.0141057
0
LINE
8
BLACK
6
CONTINUOUS
10
-0.125192
20
0.0141057
11
-0.122826
21
0.0280341
0
LINE
8
BLACK
6
CONTINUOUS
10
-0.122826
20
0.0280341
11
-0.118914
21
0.04161
0
LINE
8
BLACK
6
CONTINUOUS
10
-0.118914
20
0.04161
11
-0.113508
21
0.0546625
0
LINE
8
BLACK
6
CONTINUOUS
10
-0.113508
20
0.0546625
11
-0.106674
21
0.0670277
0
LINE
8
BLACK
6
CONTINUOUS
10
-0.106674
20
0.0670277
11
-0.0984985
21
0.0785499
0
LINE
8
BLACK
6
CONTINUOUS
10
-0.0984985
20
0.0785499
11
-0.0890843
21
0.0890843
0
LINE
8
BLACK
6
CONTINUOUS
10
-0.0890843
20
0.0890843
11
-0.0785499
21
0.0984985
0
LINE
8
BLACK
6
CONTINUOUS
10
-0.0785499
20
0.0984985
11
-0.0670277
21
0.106674
0
LINE
8
BLACK
6
CONTINUOUS
10
-0.0670277
20
0.106674
11
-0.0546625
21
0.113508
0
LINE
8
BLACK
6
CONTINUOUS
10
-0.0546625
20
0.113508
11
-0.04161
21
0.118914
0
LINE
8
BLACK
6
CONTINUOUS
10
-0.04161
20
0.118914
11
-0.0280341
21
0.122826
0
LINE
8
BLACK
6
CONTINUOUS
10
-0.0280341
20
0.122826
11
-0.0141057
21
0.125192
0
LINE
8
BLACK
6
CONTINUOUS
10
-0.0141057
20
0.125192
11
0
21
0.125984
0
LINE
8
BLACK
6
CONTINUOUS
10
0
20
0.125984
11
0.0141057
21
0.125192
  0
ENDSEC
  0
EOF
