  0
SECTION
  2
HEADER
  9
$ANGBASE
  50
0.0
  9
$ANGDIR
  70
1
  9
$MEASUREMENT
  70
0
  0
ENDSEC
  0
SECTION
  2
TABLES
  0
TABLE
  2
LTYPE
  70
4
  0
LTYPE
  5
40F
  2
CONTINUOUS
  70
0
  3
Solid line
  72
65
  73
0
  40
0.0
  0
LTYPE
  5
410
  2
DASHDOT
 70
0
  3
Dash Dot ____ _ ____ _
 72
65
 73
4
 40
2.0
 49
1.25
 49
-0.25
 49
0.25
 49
-0.25
  0
LTYPE
  5
411
  2
DASHED
 70
0
  3
Dashed __ __ __ __ __
 72
65
 73
2
 40
0.75
 49
0.5
 49
-0.25
  0
LTYPE
  5
43B
  2
DOTTED
 70
0
  3
Dotted .  .  .  .
 72
65
 73
2
 40
0.2
 49
0.0
 49
-0.2
  0
ENDTAB
  0
TABLE
  2
STYLE
  70
4
  0
STYLE
  2
KICAD
  70
0
  40
0
  41
1
  42
1
  50
0
  71
0
  3
isocp.shx
  0
STYLE
  2
KICADB
  70
0
  40
0
  41
1
  42
1
  50
0
  71
0
  3
isocp.shx
  0
STYLE
  2
KICADI
  70
0
  40
0
  41
1
  42
1
  50
15
  71
0
  3
isocp.shx
  0
STYLE
  2
KICADBI
  70
0
  40
0
  41
1
  42
1
  50
15
  71
0
  3
isocp.shx
  0
ENDTAB
  0
TABLE
  2
LAYER
  70
1
  0
LAYER
  2
BLACK
  70
0
  62
7
  6
CONTINUOUS
  0
ENDTAB
  0
ENDSEC
  0
SECTION
  2
ENTITIES
0
LINE
8
BLACK
6
CONTINUOUS
10
5.3262
20
-4.46389
11
5.32788
21
-4.46644
0
LINE
8
BLACK
6
CONTINUOUS
10
5.32788
20
-4.46644
11
5.32806
21
-4.46949
0
LINE
8
BLACK
6
CONTINUOUS
10
5.32806
20
-4.46949
11
5.3267
21
-4.47222
0
LINE
8
BLACK
6
CONTINUOUS
10
5.3267
20
-4.47222
11
5.32414
21
-4.47391
0
LINE
8
BLACK
6
CONTINUOUS
10
5.32414
20
-4.47391
11
5.30906
21
-4.47893
0
LINE
8
BLACK
6
CONTINUOUS
10
5.30906
20
-4.47893
11
5.30906
21
-4.50229
0
LINE
8
BLACK
6
CONTINUOUS
10
5.30906
20
-4.50229
11
5.32414
21
-4.50732
0
LINE
8
BLACK
6
CONTINUOUS
10
5.32414
20
-4.50732
11
5.3267
21
-4.509
0
LINE
8
BLACK
6
CONTINUOUS
10
5.3267
20
-4.509
11
5.32806
21
-4.51174
0
LINE
8
BLACK
6
CONTINUOUS
10
5.32806
20
-4.51174
11
5.32788
21
-4.51479
0
LINE
8
BLACK
6
CONTINUOUS
10
5.32788
20
-4.51479
11
5.3262
21
-4.51734
0
LINE
8
BLACK
6
CONTINUOUS
10
5.3262
20
-4.51734
11
5.32346
21
-4.51871
0
LINE
8
BLACK
6
CONTINUOUS
10
5.32346
20
-4.51871
11
5.32041
21
-4.51853
0
LINE
8
BLACK
6
CONTINUOUS
10
5.32041
20
-4.51853
11
5.25348
21
-4.49622
0
LINE
8
BLACK
6
CONTINUOUS
10
5.25348
20
-4.49622
11
5.25249
21
-4.49556
0
LINE
8
BLACK
6
CONTINUOUS
10
5.25249
20
-4.49556
11
5.25143
21
-4.49503
0
LINE
8
BLACK
6
CONTINUOUS
10
5.25143
20
-4.49503
11
5.25123
21
-4.49473
0
LINE
8
BLACK
6
CONTINUOUS
10
5.25123
20
-4.49473
11
5.25093
21
-4.49453
0
LINE
8
BLACK
6
CONTINUOUS
10
5.25093
20
-4.49453
11
5.2504
21
-4.49347
0
LINE
8
BLACK
6
CONTINUOUS
10
5.2504
20
-4.49347
11
5.24975
21
-4.49248
0
LINE
8
BLACK
6
CONTINUOUS
10
5.24975
20
-4.49248
11
5.24972
21
-4.49212
0
LINE
8
BLACK
6
CONTINUOUS
10
5.24972
20
-4.49212
11
5.24956
21
-4.4918
0
LINE
8
BLACK
6
CONTINUOUS
10
5.24956
20
-4.4918
11
5.24963
21
-4.49061
0
LINE
8
BLACK
6
CONTINUOUS
10
5.24963
20
-4.49061
11
5.24956
21
-4.48943
0
LINE
8
BLACK
6
CONTINUOUS
10
5.24956
20
-4.48943
11
5.24972
21
-4.48911
0
LINE
8
BLACK
6
CONTINUOUS
10
5.24972
20
-4.48911
11
5.24975
21
-4.48875
0
LINE
8
BLACK
6
CONTINUOUS
10
5.24975
20
-4.48875
11
5.2504
21
-4.48776
0
LINE
8
BLACK
6
CONTINUOUS
10
5.2504
20
-4.48776
11
5.25093
21
-4.4867
0
LINE
8
BLACK
6
CONTINUOUS
10
5.25093
20
-4.4867
11
5.25123
21
-4.4865
0
LINE
8
BLACK
6
CONTINUOUS
10
5.25123
20
-4.4865
11
5.25143
21
-4.48619
0
LINE
8
BLACK
6
CONTINUOUS
10
5.25143
20
-4.48619
11
5.25249
21
-4.48566
0
LINE
8
BLACK
6
CONTINUOUS
10
5.25249
20
-4.48566
11
5.25348
21
-4.48501
0
LINE
8
BLACK
6
CONTINUOUS
10
5.25348
20
-4.48501
11
5.32041
21
-4.4627
0
LINE
8
BLACK
6
CONTINUOUS
10
5.32041
20
-4.4627
11
5.32346
21
-4.46252
0
LINE
8
BLACK
6
CONTINUOUS
10
5.32346
20
-4.46252
11
5.3262
21
-4.46389
0
LINE
8
BLACK
6
CONTINUOUS
10
5.27402
20
-4.49061
11
5.29725
21
-4.49836
0
LINE
8
BLACK
6
CONTINUOUS
10
5.29725
20
-4.49836
11
5.29725
21
-4.48287
0
LINE
8
BLACK
6
CONTINUOUS
10
5.29725
20
-4.48287
11
5.27402
21
-4.49061
0
LINE
8
BLACK
6
CONTINUOUS
10
5.32523
20
-4.40582
11
5.32739
21
-4.40798
0
LINE
8
BLACK
6
CONTINUOUS
10
5.32739
20
-4.40798
11
5.32818
21
-4.41094
0
LINE
8
BLACK
6
CONTINUOUS
10
5.32818
20
-4.41094
11
5.32818
21
-4.44918
0
LINE
8
BLACK
6
CONTINUOUS
10
5.32818
20
-4.44918
11
5.32739
21
-4.45213
0
LINE
8
BLACK
6
CONTINUOUS
10
5.32739
20
-4.45213
11
5.32523
21
-4.4543
0
LINE
8
BLACK
6
CONTINUOUS
10
5.32523
20
-4.4543
11
5.32228
21
-4.45509
0
LINE
8
BLACK
6
CONTINUOUS
10
5.32228
20
-4.45509
11
5.31932
21
-4.4543
0
LINE
8
BLACK
6
CONTINUOUS
10
5.31932
20
-4.4543
11
5.31716
21
-4.45213
0
LINE
8
BLACK
6
CONTINUOUS
10
5.31716
20
-4.45213
11
5.31637
21
-4.44918
0
LINE
8
BLACK
6
CONTINUOUS
10
5.31637
20
-4.44918
11
5.31637
21
-4.43596
0
LINE
8
BLACK
6
CONTINUOUS
10
5.31637
20
-4.43596
11
5.25535
21
-4.43596
0
LINE
8
BLACK
6
CONTINUOUS
10
5.25535
20
-4.43596
11
5.25405
21
-4.43562
0
LINE
8
BLACK
6
CONTINUOUS
10
5.25405
20
-4.43562
11
5.25273
21
-4.43535
0
LINE
8
BLACK
6
CONTINUOUS
10
5.25273
20
-4.43535
11
5.25258
21
-4.43522
0
LINE
8
BLACK
6
CONTINUOUS
10
5.25258
20
-4.43522
11
5.2524
21
-4.43517
0
LINE
8
BLACK
6
CONTINUOUS
10
5.2524
20
-4.43517
11
5.25144
21
-4.43422
0
LINE
8
BLACK
6
CONTINUOUS
10
5.25144
20
-4.43422
11
5.25043
21
-4.43333
0
LINE
8
BLACK
6
CONTINUOUS
10
5.25043
20
-4.43333
11
5.25037
21
-4.43315
0
LINE
8
BLACK
6
CONTINUOUS
10
5.25037
20
-4.43315
11
5.25023
21
-4.43301
0
LINE
8
BLACK
6
CONTINUOUS
10
5.25023
20
-4.43301
11
5.24989
21
-4.43171
0
LINE
8
BLACK
6
CONTINUOUS
10
5.24989
20
-4.43171
11
5.24946
21
-4.43044
0
LINE
8
BLACK
6
CONTINUOUS
10
5.24946
20
-4.43044
11
5.24949
21
-4.43025
0
LINE
8
BLACK
6
CONTINUOUS
10
5.24949
20
-4.43025
11
5.24944
21
-4.43006
0
LINE
8
BLACK
6
CONTINUOUS
10
5.24944
20
-4.43006
11
5.24979
21
-4.42876
0
LINE
8
BLACK
6
CONTINUOUS
10
5.24979
20
-4.42876
11
5.25005
21
-4.42744
0
LINE
8
BLACK
6
CONTINUOUS
10
5.25005
20
-4.42744
11
5.25018
21
-4.42729
0
LINE
8
BLACK
6
CONTINUOUS
10
5.25018
20
-4.42729
11
5.25023
21
-4.42711
0
LINE
8
BLACK
6
CONTINUOUS
10
5.25023
20
-4.42711
11
5.25118
21
-4.42615
0
LINE
8
BLACK
6
CONTINUOUS
10
5.25118
20
-4.42615
11
5.25207
21
-4.42514
0
LINE
8
BLACK
6
CONTINUOUS
10
5.25207
20
-4.42514
11
5.26115
21
-4.41909
0
LINE
8
BLACK
6
CONTINUOUS
10
5.26115
20
-4.41909
11
5.26643
21
-4.41381
0
LINE
8
BLACK
6
CONTINUOUS
10
5.26643
20
-4.41381
11
5.26919
21
-4.40829
0
LINE
8
BLACK
6
CONTINUOUS
10
5.26919
20
-4.40829
11
5.27122
21
-4.40601
0
LINE
8
BLACK
6
CONTINUOUS
10
5.27122
20
-4.40601
11
5.27412
21
-4.40504
0
LINE
8
BLACK
6
CONTINUOUS
10
5.27412
20
-4.40504
11
5.27711
21
-4.40565
0
LINE
8
BLACK
6
CONTINUOUS
10
5.27711
20
-4.40565
11
5.2794
21
-4.40768
0
LINE
8
BLACK
6
CONTINUOUS
10
5.2794
20
-4.40768
11
5.28037
21
-4.41058
0
LINE
8
BLACK
6
CONTINUOUS
10
5.28037
20
-4.41058
11
5.27975
21
-4.41358
0
LINE
8
BLACK
6
CONTINUOUS
10
5.27975
20
-4.41358
11
5.27657
21
-4.41995
0
LINE
8
BLACK
6
CONTINUOUS
10
5.27657
20
-4.41995
11
5.27594
21
-4.42066
0
LINE
8
BLACK
6
CONTINUOUS
10
5.27594
20
-4.42066
11
5.27546
21
-4.42149
0
LINE
8
BLACK
6
CONTINUOUS
10
5.27546
20
-4.42149
11
5.27279
21
-4.42415
0
LINE
8
BLACK
6
CONTINUOUS
10
5.27279
20
-4.42415
11
5.31637
21
-4.42415
0
LINE
8
BLACK
6
CONTINUOUS
10
5.31637
20
-4.42415
11
5.31637
21
-4.41094
0
LINE
8
BLACK
6
CONTINUOUS
10
5.31637
20
-4.41094
11
5.31716
21
-4.40798
0
LINE
8
BLACK
6
CONTINUOUS
10
5.31716
20
-4.40798
11
5.31932
21
-4.40582
0
LINE
8
BLACK
6
CONTINUOUS
10
5.31932
20
-4.40582
11
5.32228
21
-4.40503
0
LINE
8
BLACK
6
CONTINUOUS
10
5.32228
20
-4.40503
11
5.32523
21
-4.40582
0
LINE
8
BLACK
6
CONTINUOUS
10
5.29748
20
-4.34148
11
5.29821
21
-4.34146
0
LINE
8
BLACK
6
CONTINUOUS
10
5.29821
20
-4.34146
11
5.31096
21
-4.34465
0
LINE
8
BLACK
6
CONTINUOUS
10
5.31096
20
-4.34465
11
5.31153
21
-4.34497
0
LINE
8
BLACK
6
CONTINUOUS
10
5.31153
20
-4.34497
11
5.31217
21
-4.3451
0
LINE
8
BLACK
6
CONTINUOUS
10
5.31217
20
-4.3451
11
5.31854
21
-4.34829
0
LINE
8
BLACK
6
CONTINUOUS
10
5.31854
20
-4.34829
11
5.31926
21
-4.34892
0
LINE
8
BLACK
6
CONTINUOUS
10
5.31926
20
-4.34892
11
5.32008
21
-4.34939
0
LINE
8
BLACK
6
CONTINUOUS
10
5.32008
20
-4.34939
11
5.32327
21
-4.35258
0
LINE
8
BLACK
6
CONTINUOUS
10
5.32327
20
-4.35258
11
5.32374
21
-4.3534
0
LINE
8
BLACK
6
CONTINUOUS
10
5.32374
20
-4.3534
11
5.32437
21
-4.35411
0
LINE
8
BLACK
6
CONTINUOUS
10
5.32437
20
-4.35411
11
5.32756
21
-4.36049
0
LINE
8
BLACK
6
CONTINUOUS
10
5.32756
20
-4.36049
11
5.32783
21
-4.36182
0
LINE
8
BLACK
6
CONTINUOUS
10
5.32783
20
-4.36182
11
5.32818
21
-4.36313
0
LINE
8
BLACK
6
CONTINUOUS
10
5.32818
20
-4.36313
11
5.32818
21
-4.3695
0
LINE
8
BLACK
6
CONTINUOUS
10
5.32818
20
-4.3695
11
5.32783
21
-4.37081
0
LINE
8
BLACK
6
CONTINUOUS
10
5.32783
20
-4.37081
11
5.32756
21
-4.37214
0
LINE
8
BLACK
6
CONTINUOUS
10
5.32756
20
-4.37214
11
5.32437
21
-4.37852
0
LINE
8
BLACK
6
CONTINUOUS
10
5.32437
20
-4.37852
11
5.32374
21
-4.37923
0
LINE
8
BLACK
6
CONTINUOUS
10
5.32374
20
-4.37923
11
5.32327
21
-4.38005
0
LINE
8
BLACK
6
CONTINUOUS
10
5.32327
20
-4.38005
11
5.32008
21
-4.38324
0
LINE
8
BLACK
6
CONTINUOUS
10
5.32008
20
-4.38324
11
5.31926
21
-4.38372
0
LINE
8
BLACK
6
CONTINUOUS
10
5.31926
20
-4.38372
11
5.31854
21
-4.38435
0
LINE
8
BLACK
6
CONTINUOUS
10
5.31854
20
-4.38435
11
5.31217
21
-4.38753
0
LINE
8
BLACK
6
CONTINUOUS
10
5.31217
20
-4.38753
11
5.31153
21
-4.38766
0
LINE
8
BLACK
6
CONTINUOUS
10
5.31153
20
-4.38766
11
5.31096
21
-4.38798
0
LINE
8
BLACK
6
CONTINUOUS
10
5.31096
20
-4.38798
11
5.29821
21
-4.39117
0
LINE
8
BLACK
6
CONTINUOUS
10
5.29821
20
-4.39117
11
5.29748
21
-4.39116
0
LINE
8
BLACK
6
CONTINUOUS
10
5.29748
20
-4.39116
11
5.29678
21
-4.39134
0
LINE
8
BLACK
6
CONTINUOUS
10
5.29678
20
-4.39134
11
5.28085
21
-4.39134
0
LINE
8
BLACK
6
CONTINUOUS
10
5.28085
20
-4.39134
11
5.28014
21
-4.39116
0
LINE
8
BLACK
6
CONTINUOUS
10
5.28014
20
-4.39116
11
5.27941
21
-4.39117
0
LINE
8
BLACK
6
CONTINUOUS
10
5.27941
20
-4.39117
11
5.26666
21
-4.38798
0
LINE
8
BLACK
6
CONTINUOUS
10
5.26666
20
-4.38798
11
5.26609
21
-4.38766
0
LINE
8
BLACK
6
CONTINUOUS
10
5.26609
20
-4.38766
11
5.26546
21
-4.38753
0
LINE
8
BLACK
6
CONTINUOUS
10
5.26546
20
-4.38753
11
5.25908
21
-4.38435
0
LINE
8
BLACK
6
CONTINUOUS
10
5.25908
20
-4.38435
11
5.25837
21
-4.38372
0
LINE
8
BLACK
6
CONTINUOUS
10
5.25837
20
-4.38372
11
5.25755
21
-4.38324
0
LINE
8
BLACK
6
CONTINUOUS
10
5.25755
20
-4.38324
11
5.25436
21
-4.38005
0
LINE
8
BLACK
6
CONTINUOUS
10
5.25436
20
-4.38005
11
5.25388
21
-4.37923
0
LINE
8
BLACK
6
CONTINUOUS
10
5.25388
20
-4.37923
11
5.25325
21
-4.37852
0
LINE
8
BLACK
6
CONTINUOUS
10
5.25325
20
-4.37852
11
5.25007
21
-4.37214
0
LINE
8
BLACK
6
CONTINUOUS
10
5.25007
20
-4.37214
11
5.24979
21
-4.37081
0
LINE
8
BLACK
6
CONTINUOUS
10
5.24979
20
-4.37081
11
5.24944
21
-4.3695
0
LINE
8
BLACK
6
CONTINUOUS
10
5.24944
20
-4.3695
11
5.24944
21
-4.36313
0
LINE
8
BLACK
6
CONTINUOUS
10
5.24944
20
-4.36313
11
5.24979
21
-4.36182
0
LINE
8
BLACK
6
CONTINUOUS
10
5.24979
20
-4.36182
11
5.25007
21
-4.36049
0
LINE
8
BLACK
6
CONTINUOUS
10
5.25007
20
-4.36049
11
5.25325
21
-4.35411
0
LINE
8
BLACK
6
CONTINUOUS
10
5.25325
20
-4.35411
11
5.25388
21
-4.3534
0
LINE
8
BLACK
6
CONTINUOUS
10
5.25388
20
-4.3534
11
5.25436
21
-4.35258
0
LINE
8
BLACK
6
CONTINUOUS
10
5.25436
20
-4.35258
11
5.25755
21
-4.34939
0
LINE
8
BLACK
6
CONTINUOUS
10
5.25755
20
-4.34939
11
5.25837
21
-4.34892
0
LINE
8
BLACK
6
CONTINUOUS
10
5.25837
20
-4.34892
11
5.25908
21
-4.34829
0
LINE
8
BLACK
6
CONTINUOUS
10
5.25908
20
-4.34829
11
5.26546
21
-4.3451
0
LINE
8
BLACK
6
CONTINUOUS
10
5.26546
20
-4.3451
11
5.26609
21
-4.34497
0
LINE
8
BLACK
6
CONTINUOUS
10
5.26609
20
-4.34497
11
5.26666
21
-4.34465
0
LINE
8
BLACK
6
CONTINUOUS
10
5.26666
20
-4.34465
11
5.27941
21
-4.34146
0
LINE
8
BLACK
6
CONTINUOUS
10
5.27941
20
-4.34146
11
5.28014
21
-4.34148
0
LINE
8
BLACK
6
CONTINUOUS
10
5.28014
20
-4.34148
11
5.28085
21
-4.34129
0
LINE
8
BLACK
6
CONTINUOUS
10
5.28085
20
-4.34129
11
5.29678
21
-4.34129
0
LINE
8
BLACK
6
CONTINUOUS
10
5.29678
20
-4.34129
11
5.29748
21
-4.34148
0
LINE
8
BLACK
6
CONTINUOUS
10
5.28157
20
-4.3531
11
5.27016
21
-4.35595
0
LINE
8
BLACK
6
CONTINUOUS
10
5.27016
20
-4.35595
11
5.26522
21
-4.35842
0
LINE
8
BLACK
6
CONTINUOUS
10
5.26522
20
-4.35842
11
5.26339
21
-4.36025
0
LINE
8
BLACK
6
CONTINUOUS
10
5.26339
20
-4.36025
11
5.26125
21
-4.36452
0
LINE
8
BLACK
6
CONTINUOUS
10
5.26125
20
-4.36452
11
5.26125
21
-4.36811
0
LINE
8
BLACK
6
CONTINUOUS
10
5.26125
20
-4.36811
11
5.26339
21
-4.37238
0
LINE
8
BLACK
6
CONTINUOUS
10
5.26339
20
-4.37238
11
5.26522
21
-4.37421
0
LINE
8
BLACK
6
CONTINUOUS
10
5.26522
20
-4.37421
11
5.27016
21
-4.37668
0
LINE
8
BLACK
6
CONTINUOUS
10
5.27016
20
-4.37668
11
5.28157
21
-4.37953
0
LINE
8
BLACK
6
CONTINUOUS
10
5.28157
20
-4.37953
11
5.29605
21
-4.37953
0
LINE
8
BLACK
6
CONTINUOUS
10
5.29605
20
-4.37953
11
5.30747
21
-4.37668
0
LINE
8
BLACK
6
CONTINUOUS
10
5.30747
20
-4.37668
11
5.31241
21
-4.37421
0
LINE
8
BLACK
6
CONTINUOUS
10
5.31241
20
-4.37421
11
5.31424
21
-4.37238
0
LINE
8
BLACK
6
CONTINUOUS
10
5.31424
20
-4.37238
11
5.31637
21
-4.36811
0
LINE
8
BLACK
6
CONTINUOUS
10
5.31637
20
-4.36811
11
5.31637
21
-4.36452
0
LINE
8
BLACK
6
CONTINUOUS
10
5.31637
20
-4.36452
11
5.31424
21
-4.36025
0
LINE
8
BLACK
6
CONTINUOUS
10
5.31424
20
-4.36025
11
5.31241
21
-4.35842
0
LINE
8
BLACK
6
CONTINUOUS
10
5.31241
20
-4.35842
11
5.30747
21
-4.35595
0
LINE
8
BLACK
6
CONTINUOUS
10
5.30747
20
-4.35595
11
5.29605
21
-4.3531
0
LINE
8
BLACK
6
CONTINUOUS
10
5.29605
20
-4.3531
11
5.28157
21
-4.3531
0
LINE
8
BLACK
6
CONTINUOUS
10
5.32523
20
-4.27834
11
5.32739
21
-4.2805
0
LINE
8
BLACK
6
CONTINUOUS
10
5.32739
20
-4.2805
11
5.32818
21
-4.28345
0
LINE
8
BLACK
6
CONTINUOUS
10
5.32818
20
-4.28345
11
5.32739
21
-4.2864
0
LINE
8
BLACK
6
CONTINUOUS
10
5.32739
20
-4.2864
11
5.32523
21
-4.28857
0
LINE
8
BLACK
6
CONTINUOUS
10
5.32523
20
-4.28857
11
5.32228
21
-4.28936
0
LINE
8
BLACK
6
CONTINUOUS
10
5.32228
20
-4.28936
11
5.29631
21
-4.28936
0
LINE
8
BLACK
6
CONTINUOUS
10
5.29631
20
-4.28936
11
5.29631
21
-4.29631
0
LINE
8
BLACK
6
CONTINUOUS
10
5.29631
20
-4.29631
11
5.32566
21
-4.31686
0
LINE
8
BLACK
6
CONTINUOUS
10
5.32566
20
-4.31686
11
5.32763
21
-4.3192
0
LINE
8
BLACK
6
CONTINUOUS
10
5.32763
20
-4.3192
11
5.32816
21
-4.32221
0
LINE
8
BLACK
6
CONTINUOUS
10
5.32816
20
-4.32221
11
5.32712
21
-4.32508
0
LINE
8
BLACK
6
CONTINUOUS
10
5.32712
20
-4.32508
11
5.32477
21
-4.32705
0
LINE
8
BLACK
6
CONTINUOUS
10
5.32477
20
-4.32705
11
5.32176
21
-4.32758
0
LINE
8
BLACK
6
CONTINUOUS
10
5.32176
20
-4.32758
11
5.31889
21
-4.32653
0
LINE
8
BLACK
6
CONTINUOUS
10
5.31889
20
-4.32653
11
5.29592
21
-4.31046
0
LINE
8
BLACK
6
CONTINUOUS
10
5.29592
20
-4.31046
11
5.29569
21
-4.31159
0
LINE
8
BLACK
6
CONTINUOUS
10
5.29569
20
-4.31159
11
5.2925
21
-4.31796
0
LINE
8
BLACK
6
CONTINUOUS
10
5.2925
20
-4.31796
11
5.29187
21
-4.31868
0
LINE
8
BLACK
6
CONTINUOUS
10
5.29187
20
-4.31868
11
5.2914
21
-4.3195
0
LINE
8
BLACK
6
CONTINUOUS
10
5.2914
20
-4.3195
11
5.28821
21
-4.32269
0
LINE
8
BLACK
6
CONTINUOUS
10
5.28821
20
-4.32269
11
5.28738
21
-4.32316
0
LINE
8
BLACK
6
CONTINUOUS
10
5.28738
20
-4.32316
11
5.28667
21
-4.32379
0
LINE
8
BLACK
6
CONTINUOUS
10
5.28667
20
-4.32379
11
5.2803
21
-4.32698
0
LINE
8
BLACK
6
CONTINUOUS
10
5.2803
20
-4.32698
11
5.27897
21
-4.32725
0
LINE
8
BLACK
6
CONTINUOUS
10
5.27897
20
-4.32725
11
5.27766
21
-4.3276
0
LINE
8
BLACK
6
CONTINUOUS
10
5.27766
20
-4.3276
11
5.2681
21
-4.3276
0
LINE
8
BLACK
6
CONTINUOUS
10
5.2681
20
-4.3276
11
5.26679
21
-4.32725
0
LINE
8
BLACK
6
CONTINUOUS
10
5.26679
20
-4.32725
11
5.26546
21
-4.32698
0
LINE
8
BLACK
6
CONTINUOUS
10
5.26546
20
-4.32698
11
5.25908
21
-4.32379
0
LINE
8
BLACK
6
CONTINUOUS
10
5.25908
20
-4.32379
11
5.25837
21
-4.32316
0
LINE
8
BLACK
6
CONTINUOUS
10
5.25837
20
-4.32316
11
5.25755
21
-4.32269
0
LINE
8
BLACK
6
CONTINUOUS
10
5.25755
20
-4.32269
11
5.25436
21
-4.3195
0
LINE
8
BLACK
6
CONTINUOUS
10
5.25436
20
-4.3195
11
5.25388
21
-4.31868
0
LINE
8
BLACK
6
CONTINUOUS
10
5.25388
20
-4.31868
11
5.25325
21
-4.31796
0
LINE
8
BLACK
6
CONTINUOUS
10
5.25325
20
-4.31796
11
5.25007
21
-4.31159
0
LINE
8
BLACK
6
CONTINUOUS
10
5.25007
20
-4.31159
11
5.24979
21
-4.31026
0
LINE
8
BLACK
6
CONTINUOUS
10
5.24979
20
-4.31026
11
5.24944
21
-4.30895
0
LINE
8
BLACK
6
CONTINUOUS
10
5.24944
20
-4.30895
11
5.24944
21
-4.28345
0
LINE
8
BLACK
6
CONTINUOUS
10
5.24944
20
-4.28345
11
5.25023
21
-4.2805
0
LINE
8
BLACK
6
CONTINUOUS
10
5.25023
20
-4.2805
11
5.2524
21
-4.27834
0
LINE
8
BLACK
6
CONTINUOUS
10
5.2524
20
-4.27834
11
5.25535
21
-4.27755
0
LINE
8
BLACK
6
CONTINUOUS
10
5.25535
20
-4.27755
11
5.32228
21
-4.27755
0
LINE
8
BLACK
6
CONTINUOUS
10
5.32228
20
-4.27755
11
5.32523
21
-4.27834
0
LINE
8
BLACK
6
CONTINUOUS
10
5.26125
20
-4.28936
11
5.26125
21
-4.30755
0
LINE
8
BLACK
6
CONTINUOUS
10
5.26125
20
-4.30755
11
5.26339
21
-4.31182
0
LINE
8
BLACK
6
CONTINUOUS
10
5.26339
20
-4.31182
11
5.26522
21
-4.31366
0
LINE
8
BLACK
6
CONTINUOUS
10
5.26522
20
-4.31366
11
5.26949
21
-4.31579
0
LINE
8
BLACK
6
CONTINUOUS
10
5.26949
20
-4.31579
11
5.27626
21
-4.31579
0
LINE
8
BLACK
6
CONTINUOUS
10
5.27626
20
-4.31579
11
5.28053
21
-4.31366
0
LINE
8
BLACK
6
CONTINUOUS
10
5.28053
20
-4.31366
11
5.28237
21
-4.31182
0
LINE
8
BLACK
6
CONTINUOUS
10
5.28237
20
-4.31182
11
5.2845
21
-4.30755
0
LINE
8
BLACK
6
CONTINUOUS
10
5.2845
20
-4.30755
11
5.2845
21
-4.28936
0
LINE
8
BLACK
6
CONTINUOUS
10
5.2845
20
-4.28936
11
5.26125
21
-4.28936
0
LINE
8
BLACK
6
CONTINUOUS
10
5.32523
20
-4.21778
11
5.32739
21
-4.21994
0
LINE
8
BLACK
6
CONTINUOUS
10
5.32739
20
-4.21994
11
5.32818
21
-4.2229
0
LINE
8
BLACK
6
CONTINUOUS
10
5.32818
20
-4.2229
11
5.32818
21
-4.25477
0
LINE
8
BLACK
6
CONTINUOUS
10
5.32818
20
-4.25477
11
5.32739
21
-4.25772
0
LINE
8
BLACK
6
CONTINUOUS
10
5.32739
20
-4.25772
11
5.32523
21
-4.25988
0
LINE
8
BLACK
6
CONTINUOUS
10
5.32523
20
-4.25988
11
5.32228
21
-4.26067
0
LINE
8
BLACK
6
CONTINUOUS
10
5.32228
20
-4.26067
11
5.31932
21
-4.25988
0
LINE
8
BLACK
6
CONTINUOUS
10
5.31932
20
-4.25988
11
5.31716
21
-4.25772
0
LINE
8
BLACK
6
CONTINUOUS
10
5.31716
20
-4.25772
11
5.31637
21
-4.25477
0
LINE
8
BLACK
6
CONTINUOUS
10
5.31637
20
-4.25477
11
5.31637
21
-4.2288
0
LINE
8
BLACK
6
CONTINUOUS
10
5.31637
20
-4.2288
11
5.29312
21
-4.2288
0
LINE
8
BLACK
6
CONTINUOUS
10
5.29312
20
-4.2288
11
5.29312
21
-4.24521
0
LINE
8
BLACK
6
CONTINUOUS
10
5.29312
20
-4.24521
11
5.29233
21
-4.24816
0
LINE
8
BLACK
6
CONTINUOUS
10
5.29233
20
-4.24816
11
5.29017
21
-4.25032
0
LINE
8
BLACK
6
CONTINUOUS
10
5.29017
20
-4.25032
11
5.28722
21
-4.25111
0
LINE
8
BLACK
6
CONTINUOUS
10
5.28722
20
-4.25111
11
5.28427
21
-4.25032
0
LINE
8
BLACK
6
CONTINUOUS
10
5.28427
20
-4.25032
11
5.2821
21
-4.24816
0
LINE
8
BLACK
6
CONTINUOUS
10
5.2821
20
-4.24816
11
5.28131
21
-4.24521
0
LINE
8
BLACK
6
CONTINUOUS
10
5.28131
20
-4.24521
11
5.28131
21
-4.2288
0
LINE
8
BLACK
6
CONTINUOUS
10
5.28131
20
-4.2288
11
5.26125
21
-4.2288
0
LINE
8
BLACK
6
CONTINUOUS
10
5.26125
20
-4.2288
11
5.26125
21
-4.25477
0
LINE
8
BLACK
6
CONTINUOUS
10
5.26125
20
-4.25477
11
5.26046
21
-4.25772
0
LINE
8
BLACK
6
CONTINUOUS
10
5.26046
20
-4.25772
11
5.2583
21
-4.25988
0
LINE
8
BLACK
6
CONTINUOUS
10
5.2583
20
-4.25988
11
5.25535
21
-4.26067
0
LINE
8
BLACK
6
CONTINUOUS
10
5.25535
20
-4.26067
11
5.2524
21
-4.25988
0
LINE
8
BLACK
6
CONTINUOUS
10
5.2524
20
-4.25988
11
5.25023
21
-4.25772
0
LINE
8
BLACK
6
CONTINUOUS
10
5.25023
20
-4.25772
11
5.24944
21
-4.25477
0
LINE
8
BLACK
6
CONTINUOUS
10
5.24944
20
-4.25477
11
5.24944
21
-4.2229
0
LINE
8
BLACK
6
CONTINUOUS
10
5.24944
20
-4.2229
11
5.25023
21
-4.21994
0
LINE
8
BLACK
6
CONTINUOUS
10
5.25023
20
-4.21994
11
5.2524
21
-4.21778
0
LINE
8
BLACK
6
CONTINUOUS
10
5.2524
20
-4.21778
11
5.25535
21
-4.21699
0
LINE
8
BLACK
6
CONTINUOUS
10
5.25535
20
-4.21699
11
5.32228
21
-4.21699
0
LINE
8
BLACK
6
CONTINUOUS
10
5.32228
20
-4.21699
11
5.32523
21
-4.21778
0
LINE
8
BLACK
6
CONTINUOUS
10
5.32523
20
-4.15085
11
5.32739
21
-4.15301
0
LINE
8
BLACK
6
CONTINUOUS
10
5.32739
20
-4.15301
11
5.32818
21
-4.15597
0
LINE
8
BLACK
6
CONTINUOUS
10
5.32818
20
-4.15597
11
5.32818
21
-4.1719
0
LINE
8
BLACK
6
CONTINUOUS
10
5.32818
20
-4.1719
11
5.32794
21
-4.17282
0
LINE
8
BLACK
6
CONTINUOUS
10
5.32794
20
-4.17282
11
5.32788
21
-4.17377
0
LINE
8
BLACK
6
CONTINUOUS
10
5.32788
20
-4.17377
11
5.32469
21
-4.18333
0
LINE
8
BLACK
6
CONTINUOUS
10
5.32469
20
-4.18333
11
5.32394
21
-4.18446
0
LINE
8
BLACK
6
CONTINUOUS
10
5.32394
20
-4.18446
11
5.32327
21
-4.18564
0
LINE
8
BLACK
6
CONTINUOUS
10
5.32327
20
-4.18564
11
5.31689
21
-4.19201
0
LINE
8
BLACK
6
CONTINUOUS
10
5.31689
20
-4.19201
11
5.31607
21
-4.19249
0
LINE
8
BLACK
6
CONTINUOUS
10
5.31607
20
-4.19249
11
5.31536
21
-4.19312
0
LINE
8
BLACK
6
CONTINUOUS
10
5.31536
20
-4.19312
11
5.30898
21
-4.19631
0
LINE
8
BLACK
6
CONTINUOUS
10
5.30898
20
-4.19631
11
5.30834
21
-4.19644
0
LINE
8
BLACK
6
CONTINUOUS
10
5.30834
20
-4.19644
11
5.30777
21
-4.19676
0
LINE
8
BLACK
6
CONTINUOUS
10
5.30777
20
-4.19676
11
5.29503
21
-4.19994
0
LINE
8
BLACK
6
CONTINUOUS
10
5.29503
20
-4.19994
11
5.2943
21
-4.19993
0
LINE
8
BLACK
6
CONTINUOUS
10
5.2943
20
-4.19993
11
5.29359
21
-4.20012
0
LINE
8
BLACK
6
CONTINUOUS
10
5.29359
20
-4.20012
11
5.28403
21
-4.20012
0
LINE
8
BLACK
6
CONTINUOUS
10
5.28403
20
-4.20012
11
5.28333
21
-4.19993
0
LINE
8
BLACK
6
CONTINUOUS
10
5.28333
20
-4.19993
11
5.2826
21
-4.19994
0
LINE
8
BLACK
6
CONTINUOUS
10
5.2826
20
-4.19994
11
5.26985
21
-4.19676
0
LINE
8
BLACK
6
CONTINUOUS
10
5.26985
20
-4.19676
11
5.26928
21
-4.19644
0
LINE
8
BLACK
6
CONTINUOUS
10
5.26928
20
-4.19644
11
5.26864
21
-4.19631
0
LINE
8
BLACK
6
CONTINUOUS
10
5.26864
20
-4.19631
11
5.26227
21
-4.19312
0
LINE
8
BLACK
6
CONTINUOUS
10
5.26227
20
-4.19312
11
5.26156
21
-4.19249
0
LINE
8
BLACK
6
CONTINUOUS
10
5.26156
20
-4.19249
11
5.26073
21
-4.19201
0
LINE
8
BLACK
6
CONTINUOUS
10
5.26073
20
-4.19201
11
5.25436
21
-4.18564
0
LINE
8
BLACK
6
CONTINUOUS
10
5.25436
20
-4.18564
11
5.25368
21
-4.18446
0
LINE
8
BLACK
6
CONTINUOUS
10
5.25368
20
-4.18446
11
5.25293
21
-4.18333
0
LINE
8
BLACK
6
CONTINUOUS
10
5.25293
20
-4.18333
11
5.24975
21
-4.17377
0
LINE
8
BLACK
6
CONTINUOUS
10
5.24975
20
-4.17377
11
5.24969
21
-4.17282
0
LINE
8
BLACK
6
CONTINUOUS
10
5.24969
20
-4.17282
11
5.24944
21
-4.1719
0
LINE
8
BLACK
6
CONTINUOUS
10
5.24944
20
-4.1719
11
5.24944
21
-4.15597
0
LINE
8
BLACK
6
CONTINUOUS
10
5.24944
20
-4.15597
11
5.25023
21
-4.15301
0
LINE
8
BLACK
6
CONTINUOUS
10
5.25023
20
-4.15301
11
5.2524
21
-4.15085
0
LINE
8
BLACK
6
CONTINUOUS
10
5.2524
20
-4.15085
11
5.25535
21
-4.15006
0
LINE
8
BLACK
6
CONTINUOUS
10
5.25535
20
-4.15006
11
5.32228
21
-4.15006
0
LINE
8
BLACK
6
CONTINUOUS
10
5.32228
20
-4.15006
11
5.32523
21
-4.15085
0
LINE
8
BLACK
6
CONTINUOUS
10
5.26125
20
-4.16187
11
5.26125
21
-4.17094
0
LINE
8
BLACK
6
CONTINUOUS
10
5.26125
20
-4.17094
11
5.2637
21
-4.17827
0
LINE
8
BLACK
6
CONTINUOUS
10
5.2637
20
-4.17827
11
5.26841
21
-4.18299
0
LINE
8
BLACK
6
CONTINUOUS
10
5.26841
20
-4.18299
11
5.27335
21
-4.18545
0
LINE
8
BLACK
6
CONTINUOUS
10
5.27335
20
-4.18545
11
5.28476
21
-4.18831
0
LINE
8
BLACK
6
CONTINUOUS
10
5.28476
20
-4.18831
11
5.29287
21
-4.18831
0
LINE
8
BLACK
6
CONTINUOUS
10
5.29287
20
-4.18831
11
5.30428
21
-4.18545
0
LINE
8
BLACK
6
CONTINUOUS
10
5.30428
20
-4.18545
11
5.30922
21
-4.18299
0
LINE
8
BLACK
6
CONTINUOUS
10
5.30922
20
-4.18299
11
5.31393
21
-4.17827
0
LINE
8
BLACK
6
CONTINUOUS
10
5.31393
20
-4.17827
11
5.31637
21
-4.17094
0
LINE
8
BLACK
6
CONTINUOUS
10
5.31637
20
-4.17094
11
5.31637
21
-4.16187
0
LINE
8
BLACK
6
CONTINUOUS
10
5.31637
20
-4.16187
11
5.26125
21
-4.16187
0
LINE
8
BLACK
6
CONTINUOUS
10
5.32523
20
-4.09667
11
5.32739
21
-4.09883
0
LINE
8
BLACK
6
CONTINUOUS
10
5.32739
20
-4.09883
11
5.32818
21
-4.10179
0
LINE
8
BLACK
6
CONTINUOUS
10
5.32818
20
-4.10179
11
5.32818
21
-4.13366
0
LINE
8
BLACK
6
CONTINUOUS
10
5.32818
20
-4.13366
11
5.32739
21
-4.13661
0
LINE
8
BLACK
6
CONTINUOUS
10
5.32739
20
-4.13661
11
5.32523
21
-4.13877
0
LINE
8
BLACK
6
CONTINUOUS
10
5.32523
20
-4.13877
11
5.32228
21
-4.13956
0
LINE
8
BLACK
6
CONTINUOUS
10
5.32228
20
-4.13956
11
5.31932
21
-4.13877
0
LINE
8
BLACK
6
CONTINUOUS
10
5.31932
20
-4.13877
11
5.31716
21
-4.13661
0
LINE
8
BLACK
6
CONTINUOUS
10
5.31716
20
-4.13661
11
5.31637
21
-4.13366
0
LINE
8
BLACK
6
CONTINUOUS
10
5.31637
20
-4.13366
11
5.31637
21
-4.10769
0
LINE
8
BLACK
6
CONTINUOUS
10
5.31637
20
-4.10769
11
5.25535
21
-4.10769
0
LINE
8
BLACK
6
CONTINUOUS
10
5.25535
20
-4.10769
11
5.2524
21
-4.1069
0
LINE
8
BLACK
6
CONTINUOUS
10
5.2524
20
-4.1069
11
5.25023
21
-4.10474
0
LINE
8
BLACK
6
CONTINUOUS
10
5.25023
20
-4.10474
11
5.24944
21
-4.10179
0
LINE
8
BLACK
6
CONTINUOUS
10
5.24944
20
-4.10179
11
5.25023
21
-4.09883
0
LINE
8
BLACK
6
CONTINUOUS
10
5.25023
20
-4.09883
11
5.2524
21
-4.09667
0
LINE
8
BLACK
6
CONTINUOUS
10
5.2524
20
-4.09667
11
5.25535
21
-4.09588
0
LINE
8
BLACK
6
CONTINUOUS
10
5.25535
20
-4.09588
11
5.32228
21
-4.09588
0
LINE
8
BLACK
6
CONTINUOUS
10
5.32228
20
-4.09588
11
5.32523
21
-4.09667
0
LINE
8
BLACK
6
CONTINUOUS
10
5.30067
20
-4.02277
11
5.3014
21
-4.02275
0
LINE
8
BLACK
6
CONTINUOUS
10
5.3014
20
-4.02275
11
5.31415
21
-4.02594
0
LINE
8
BLACK
6
CONTINUOUS
10
5.31415
20
-4.02594
11
5.31419
21
-4.02597
0
LINE
8
BLACK
6
CONTINUOUS
10
5.31419
20
-4.02597
11
5.31424
21
-4.02597
0
LINE
8
BLACK
6
CONTINUOUS
10
5.31424
20
-4.02597
11
5.31553
21
-4.02671
0
LINE
8
BLACK
6
CONTINUOUS
10
5.31553
20
-4.02671
11
5.31682
21
-4.02743
0
LINE
8
BLACK
6
CONTINUOUS
10
5.31682
20
-4.02743
11
5.31685
21
-4.02747
0
LINE
8
BLACK
6
CONTINUOUS
10
5.31685
20
-4.02747
11
5.31689
21
-4.02749
0
LINE
8
BLACK
6
CONTINUOUS
10
5.31689
20
-4.02749
11
5.32327
21
-4.03387
0
LINE
8
BLACK
6
CONTINUOUS
10
5.32327
20
-4.03387
11
5.32374
21
-4.03469
0
LINE
8
BLACK
6
CONTINUOUS
10
5.32374
20
-4.03469
11
5.32437
21
-4.0354
0
LINE
8
BLACK
6
CONTINUOUS
10
5.32437
20
-4.0354
11
5.32756
21
-4.04178
0
LINE
8
BLACK
6
CONTINUOUS
10
5.32756
20
-4.04178
11
5.32783
21
-4.04311
0
LINE
8
BLACK
6
CONTINUOUS
10
5.32783
20
-4.04311
11
5.32818
21
-4.04442
0
LINE
8
BLACK
6
CONTINUOUS
10
5.32818
20
-4.04442
11
5.32818
21
-4.05717
0
LINE
8
BLACK
6
CONTINUOUS
10
5.32818
20
-4.05717
11
5.32783
21
-4.05848
0
LINE
8
BLACK
6
CONTINUOUS
10
5.32783
20
-4.05848
11
5.32756
21
-4.05981
0
LINE
8
BLACK
6
CONTINUOUS
10
5.32756
20
-4.05981
11
5.32437
21
-4.06618
0
LINE
8
BLACK
6
CONTINUOUS
10
5.32437
20
-4.06618
11
5.32374
21
-4.06689
0
LINE
8
BLACK
6
CONTINUOUS
10
5.32374
20
-4.06689
11
5.32327
21
-4.06772
0
LINE
8
BLACK
6
CONTINUOUS
10
5.32327
20
-4.06772
11
5.31689
21
-4.07409
0
LINE
8
BLACK
6
CONTINUOUS
10
5.31689
20
-4.07409
11
5.31685
21
-4.07412
0
LINE
8
BLACK
6
CONTINUOUS
10
5.31685
20
-4.07412
11
5.31682
21
-4.07416
0
LINE
8
BLACK
6
CONTINUOUS
10
5.31682
20
-4.07416
11
5.31553
21
-4.07488
0
LINE
8
BLACK
6
CONTINUOUS
10
5.31553
20
-4.07488
11
5.31424
21
-4.07562
0
LINE
8
BLACK
6
CONTINUOUS
10
5.31424
20
-4.07562
11
5.31419
21
-4.07562
0
LINE
8
BLACK
6
CONTINUOUS
10
5.31419
20
-4.07562
11
5.31415
21
-4.07565
0
LINE
8
BLACK
6
CONTINUOUS
10
5.31415
20
-4.07565
11
5.3014
21
-4.07883
0
LINE
8
BLACK
6
CONTINUOUS
10
5.3014
20
-4.07883
11
5.30067
21
-4.07882
0
LINE
8
BLACK
6
CONTINUOUS
10
5.30067
20
-4.07882
11
5.29997
21
-4.07901
0
LINE
8
BLACK
6
CONTINUOUS
10
5.29997
20
-4.07901
11
5.27766
21
-4.07901
0
LINE
8
BLACK
6
CONTINUOUS
10
5.27766
20
-4.07901
11
5.27695
21
-4.07882
0
LINE
8
BLACK
6
CONTINUOUS
10
5.27695
20
-4.07882
11
5.27623
21
-4.07883
0
LINE
8
BLACK
6
CONTINUOUS
10
5.27623
20
-4.07883
11
5.26348
21
-4.07565
0
LINE
8
BLACK
6
CONTINUOUS
10
5.26348
20
-4.07565
11
5.26343
21
-4.07562
0
LINE
8
BLACK
6
CONTINUOUS
10
5.26343
20
-4.07562
11
5.26338
21
-4.07562
0
LINE
8
BLACK
6
CONTINUOUS
10
5.26338
20
-4.07562
11
5.2621
21
-4.07488
0
LINE
8
BLACK
6
CONTINUOUS
10
5.2621
20
-4.07488
11
5.2608
21
-4.07416
0
LINE
8
BLACK
6
CONTINUOUS
10
5.2608
20
-4.07416
11
5.26078
21
-4.07412
0
LINE
8
BLACK
6
CONTINUOUS
10
5.26078
20
-4.07412
11
5.26073
21
-4.07409
0
LINE
8
BLACK
6
CONTINUOUS
10
5.26073
20
-4.07409
11
5.25436
21
-4.06772
0
LINE
8
BLACK
6
CONTINUOUS
10
5.25436
20
-4.06772
11
5.25388
21
-4.06689
0
LINE
8
BLACK
6
CONTINUOUS
10
5.25388
20
-4.06689
11
5.25325
21
-4.06618
0
LINE
8
BLACK
6
CONTINUOUS
10
5.25325
20
-4.06618
11
5.25007
21
-4.05981
0
LINE
8
BLACK
6
CONTINUOUS
10
5.25007
20
-4.05981
11
5.24979
21
-4.05848
0
LINE
8
BLACK
6
CONTINUOUS
10
5.24979
20
-4.05848
11
5.24944
21
-4.05717
0
LINE
8
BLACK
6
CONTINUOUS
10
5.24944
20
-4.05717
11
5.24944
21
-4.04442
0
LINE
8
BLACK
6
CONTINUOUS
10
5.24944
20
-4.04442
11
5.24979
21
-4.04311
0
LINE
8
BLACK
6
CONTINUOUS
10
5.24979
20
-4.04311
11
5.25007
21
-4.04178
0
LINE
8
BLACK
6
CONTINUOUS
10
5.25007
20
-4.04178
11
5.25325
21
-4.0354
0
LINE
8
BLACK
6
CONTINUOUS
10
5.25325
20
-4.0354
11
5.25388
21
-4.03469
0
LINE
8
BLACK
6
CONTINUOUS
10
5.25388
20
-4.03469
11
5.25436
21
-4.03387
0
LINE
8
BLACK
6
CONTINUOUS
10
5.25436
20
-4.03387
11
5.26073
21
-4.02749
0
LINE
8
BLACK
6
CONTINUOUS
10
5.26073
20
-4.02749
11
5.26078
21
-4.02747
0
LINE
8
BLACK
6
CONTINUOUS
10
5.26078
20
-4.02747
11
5.2608
21
-4.02743
0
LINE
8
BLACK
6
CONTINUOUS
10
5.2608
20
-4.02743
11
5.2621
21
-4.02671
0
LINE
8
BLACK
6
CONTINUOUS
10
5.2621
20
-4.02671
11
5.26338
21
-4.02597
0
LINE
8
BLACK
6
CONTINUOUS
10
5.26338
20
-4.02597
11
5.26343
21
-4.02597
0
LINE
8
BLACK
6
CONTINUOUS
10
5.26343
20
-4.02597
11
5.26348
21
-4.02594
0
LINE
8
BLACK
6
CONTINUOUS
10
5.26348
20
-4.02594
11
5.27623
21
-4.02275
0
LINE
8
BLACK
6
CONTINUOUS
10
5.27623
20
-4.02275
11
5.27695
21
-4.02277
0
LINE
8
BLACK
6
CONTINUOUS
10
5.27695
20
-4.02277
11
5.27766
21
-4.02258
0
LINE
8
BLACK
6
CONTINUOUS
10
5.27766
20
-4.02258
11
5.29997
21
-4.02258
0
LINE
8
BLACK
6
CONTINUOUS
10
5.29997
20
-4.02258
11
5.30067
21
-4.02277
0
LINE
8
BLACK
6
CONTINUOUS
10
5.27839
20
-4.03439
11
5.26793
21
-4.037
0
LINE
8
BLACK
6
CONTINUOUS
10
5.26793
20
-4.037
11
5.26339
21
-4.04154
0
LINE
8
BLACK
6
CONTINUOUS
10
5.26339
20
-4.04154
11
5.26125
21
-4.04581
0
LINE
8
BLACK
6
CONTINUOUS
10
5.26125
20
-4.04581
11
5.26125
21
-4.05577
0
LINE
8
BLACK
6
CONTINUOUS
10
5.26125
20
-4.05577
11
5.26339
21
-4.06004
0
LINE
8
BLACK
6
CONTINUOUS
10
5.26339
20
-4.06004
11
5.26793
21
-4.06458
0
LINE
8
BLACK
6
CONTINUOUS
10
5.26793
20
-4.06458
11
5.27839
21
-4.0672
0
LINE
8
BLACK
6
CONTINUOUS
10
5.27839
20
-4.0672
11
5.29924
21
-4.0672
0
LINE
8
BLACK
6
CONTINUOUS
10
5.29924
20
-4.0672
11
5.3097
21
-4.06458
0
LINE
8
BLACK
6
CONTINUOUS
10
5.3097
20
-4.06458
11
5.31424
21
-4.06004
0
LINE
8
BLACK
6
CONTINUOUS
10
5.31424
20
-4.06004
11
5.31637
21
-4.05577
0
LINE
8
BLACK
6
CONTINUOUS
10
5.31637
20
-4.05577
11
5.31637
21
-4.04581
0
LINE
8
BLACK
6
CONTINUOUS
10
5.31637
20
-4.04581
11
5.31424
21
-4.04154
0
LINE
8
BLACK
6
CONTINUOUS
10
5.31424
20
-4.04154
11
5.3097
21
-4.037
0
LINE
8
BLACK
6
CONTINUOUS
10
5.3097
20
-4.037
11
5.29924
21
-4.03439
0
LINE
8
BLACK
6
CONTINUOUS
10
5.29924
20
-4.03439
11
5.27839
21
-4.03439
0
LINE
8
BLACK
6
CONTINUOUS
10
5.2524
20
-4.00491
11
5.25023
21
-4.00275
0
LINE
8
BLACK
6
CONTINUOUS
10
5.25023
20
-4.00275
11
5.24944
21
-3.9998
0
LINE
8
BLACK
6
CONTINUOUS
10
5.24944
20
-3.9998
11
5.25023
21
-3.99685
0
LINE
8
BLACK
6
CONTINUOUS
10
5.25023
20
-3.99685
11
5.2524
21
-3.99469
0
LINE
8
BLACK
6
CONTINUOUS
10
5.2524
20
-3.99469
11
5.25535
21
-3.99389
0
LINE
8
BLACK
6
CONTINUOUS
10
5.25535
20
-3.99389
11
5.28131
21
-3.99389
0
LINE
8
BLACK
6
CONTINUOUS
10
5.28131
20
-3.99389
11
5.28131
21
-3.96746
0
LINE
8
BLACK
6
CONTINUOUS
10
5.28131
20
-3.96746
11
5.25535
21
-3.96746
0
LINE
8
BLACK
6
CONTINUOUS
10
5.25535
20
-3.96746
11
5.2524
21
-3.96667
0
LINE
8
BLACK
6
CONTINUOUS
10
5.2524
20
-3.96667
11
5.25023
21
-3.96451
0
LINE
8
BLACK
6
CONTINUOUS
10
5.25023
20
-3.96451
11
5.24944
21
-3.96155
0
LINE
8
BLACK
6
CONTINUOUS
10
5.24944
20
-3.96155
11
5.25023
21
-3.9586
0
LINE
8
BLACK
6
CONTINUOUS
10
5.25023
20
-3.9586
11
5.2524
21
-3.95644
0
LINE
8
BLACK
6
CONTINUOUS
10
5.2524
20
-3.95644
11
5.25535
21
-3.95565
0
LINE
8
BLACK
6
CONTINUOUS
10
5.25535
20
-3.95565
11
5.32228
21
-3.95565
0
LINE
8
BLACK
6
CONTINUOUS
10
5.32228
20
-3.95565
11
5.32523
21
-3.95644
0
LINE
8
BLACK
6
CONTINUOUS
10
5.32523
20
-3.95644
11
5.32739
21
-3.9586
0
LINE
8
BLACK
6
CONTINUOUS
10
5.32739
20
-3.9586
11
5.32818
21
-3.96155
0
LINE
8
BLACK
6
CONTINUOUS
10
5.32818
20
-3.96155
11
5.32739
21
-3.96451
0
LINE
8
BLACK
6
CONTINUOUS
10
5.32739
20
-3.96451
11
5.32523
21
-3.96667
0
LINE
8
BLACK
6
CONTINUOUS
10
5.32523
20
-3.96667
11
5.32228
21
-3.96746
0
LINE
8
BLACK
6
CONTINUOUS
10
5.32228
20
-3.96746
11
5.29312
21
-3.96746
0
LINE
8
BLACK
6
CONTINUOUS
10
5.29312
20
-3.96746
11
5.29312
21
-3.99389
0
LINE
8
BLACK
6
CONTINUOUS
10
5.29312
20
-3.99389
11
5.32228
21
-3.99389
0
LINE
8
BLACK
6
CONTINUOUS
10
5.32228
20
-3.99389
11
5.32523
21
-3.99469
0
LINE
8
BLACK
6
CONTINUOUS
10
5.32523
20
-3.99469
11
5.32739
21
-3.99685
0
LINE
8
BLACK
6
CONTINUOUS
10
5.32739
20
-3.99685
11
5.32818
21
-3.9998
0
LINE
8
BLACK
6
CONTINUOUS
10
5.32818
20
-3.9998
11
5.32739
21
-4.00275
0
LINE
8
BLACK
6
CONTINUOUS
10
5.32739
20
-4.00275
11
5.32523
21
-4.00491
0
LINE
8
BLACK
6
CONTINUOUS
10
5.32523
20
-4.00491
11
5.32228
21
-4.00571
0
LINE
8
BLACK
6
CONTINUOUS
10
5.32228
20
-4.00571
11
5.25535
21
-4.00571
0
LINE
8
BLACK
6
CONTINUOUS
10
5.25535
20
-4.00571
11
5.2524
21
-4.00491
0
LINE
8
BLACK
6
CONTINUOUS
10
5.32523
20
-3.88632
11
5.32739
21
-3.88849
0
LINE
8
BLACK
6
CONTINUOUS
10
5.32739
20
-3.88849
11
5.32818
21
-3.89144
0
LINE
8
BLACK
6
CONTINUOUS
10
5.32818
20
-3.89144
11
5.32739
21
-3.89439
0
LINE
8
BLACK
6
CONTINUOUS
10
5.32739
20
-3.89439
11
5.32523
21
-3.89655
0
LINE
8
BLACK
6
CONTINUOUS
10
5.32523
20
-3.89655
11
5.32228
21
-3.89734
0
LINE
8
BLACK
6
CONTINUOUS
10
5.32228
20
-3.89734
11
5.27759
21
-3.89734
0
LINE
8
BLACK
6
CONTINUOUS
10
5.27759
20
-3.89734
11
5.32521
21
-3.92456
0
LINE
8
BLACK
6
CONTINUOUS
10
5.32521
20
-3.92456
11
5.32522
21
-3.92457
0
LINE
8
BLACK
6
CONTINUOUS
10
5.32522
20
-3.92457
11
5.32523
21
-3.92457
0
LINE
8
BLACK
6
CONTINUOUS
10
5.32523
20
-3.92457
11
5.3263
21
-3.92564
0
LINE
8
BLACK
6
CONTINUOUS
10
5.3263
20
-3.92564
11
5.32738
21
-3.92671
0
LINE
8
BLACK
6
CONTINUOUS
10
5.32738
20
-3.92671
11
5.32738
21
-3.92672
0
LINE
8
BLACK
6
CONTINUOUS
10
5.32738
20
-3.92672
11
5.32739
21
-3.92673
0
LINE
8
BLACK
6
CONTINUOUS
10
5.32739
20
-3.92673
11
5.32778
21
-3.92819
0
LINE
8
BLACK
6
CONTINUOUS
10
5.32778
20
-3.92819
11
5.32818
21
-3.92966
0
LINE
8
BLACK
6
CONTINUOUS
10
5.32818
20
-3.92966
11
5.32818
21
-3.92967
0
LINE
8
BLACK
6
CONTINUOUS
10
5.32818
20
-3.92967
11
5.32818
21
-3.92968
0
LINE
8
BLACK
6
CONTINUOUS
10
5.32818
20
-3.92968
11
5.32779
21
-3.93114
0
LINE
8
BLACK
6
CONTINUOUS
10
5.32779
20
-3.93114
11
5.3274
21
-3.93261
0
LINE
8
BLACK
6
CONTINUOUS
10
5.3274
20
-3.93261
11
5.3274
21
-3.93262
0
LINE
8
BLACK
6
CONTINUOUS
10
5.3274
20
-3.93262
11
5.32739
21
-3.93264
0
LINE
8
BLACK
6
CONTINUOUS
10
5.32739
20
-3.93264
11
5.32632
21
-3.93371
0
LINE
8
BLACK
6
CONTINUOUS
10
5.32632
20
-3.93371
11
5.32525
21
-3.93478
0
LINE
8
BLACK
6
CONTINUOUS
10
5.32525
20
-3.93478
11
5.32524
21
-3.93479
0
LINE
8
BLACK
6
CONTINUOUS
10
5.32524
20
-3.93479
11
5.32523
21
-3.9348
0
LINE
8
BLACK
6
CONTINUOUS
10
5.32523
20
-3.9348
11
5.32377
21
-3.93519
0
LINE
8
BLACK
6
CONTINUOUS
10
5.32377
20
-3.93519
11
5.3223
21
-3.93559
0
LINE
8
BLACK
6
CONTINUOUS
10
5.3223
20
-3.93559
11
5.32229
21
-3.93559
0
LINE
8
BLACK
6
CONTINUOUS
10
5.32229
20
-3.93559
11
5.32228
21
-3.93559
0
LINE
8
BLACK
6
CONTINUOUS
10
5.32228
20
-3.93559
11
5.25535
21
-3.93559
0
LINE
8
BLACK
6
CONTINUOUS
10
5.25535
20
-3.93559
11
5.2524
21
-3.9348
0
LINE
8
BLACK
6
CONTINUOUS
10
5.2524
20
-3.9348
11
5.25023
21
-3.93264
0
LINE
8
BLACK
6
CONTINUOUS
10
5.25023
20
-3.93264
11
5.24944
21
-3.92968
0
LINE
8
BLACK
6
CONTINUOUS
10
5.24944
20
-3.92968
11
5.25023
21
-3.92673
0
LINE
8
BLACK
6
CONTINUOUS
10
5.25023
20
-3.92673
11
5.2524
21
-3.92457
0
LINE
8
BLACK
6
CONTINUOUS
10
5.2524
20
-3.92457
11
5.25535
21
-3.92378
0
LINE
8
BLACK
6
CONTINUOUS
10
5.25535
20
-3.92378
11
5.30004
21
-3.92378
0
LINE
8
BLACK
6
CONTINUOUS
10
5.30004
20
-3.92378
11
5.25242
21
-3.89657
0
LINE
8
BLACK
6
CONTINUOUS
10
5.25242
20
-3.89657
11
5.25241
21
-3.89656
0
LINE
8
BLACK
6
CONTINUOUS
10
5.25241
20
-3.89656
11
5.2524
21
-3.89655
0
LINE
8
BLACK
6
CONTINUOUS
10
5.2524
20
-3.89655
11
5.25132
21
-3.89548
0
LINE
8
BLACK
6
CONTINUOUS
10
5.25132
20
-3.89548
11
5.25025
21
-3.89441
0
LINE
8
BLACK
6
CONTINUOUS
10
5.25025
20
-3.89441
11
5.25024
21
-3.8944
0
LINE
8
BLACK
6
CONTINUOUS
10
5.25024
20
-3.8944
11
5.25023
21
-3.89439
0
LINE
8
BLACK
6
CONTINUOUS
10
5.25023
20
-3.89439
11
5.24984
21
-3.89293
0
LINE
8
BLACK
6
CONTINUOUS
10
5.24984
20
-3.89293
11
5.24944
21
-3.89146
0
LINE
8
BLACK
6
CONTINUOUS
10
5.24944
20
-3.89146
11
5.24945
21
-3.89145
0
LINE
8
BLACK
6
CONTINUOUS
10
5.24945
20
-3.89145
11
5.24944
21
-3.89144
0
LINE
8
BLACK
6
CONTINUOUS
10
5.24944
20
-3.89144
11
5.24984
21
-3.88997
0
LINE
8
BLACK
6
CONTINUOUS
10
5.24984
20
-3.88997
11
5.25022
21
-3.88851
0
LINE
8
BLACK
6
CONTINUOUS
10
5.25022
20
-3.88851
11
5.25023
21
-3.8885
0
LINE
8
BLACK
6
CONTINUOUS
10
5.25023
20
-3.8885
11
5.25023
21
-3.88849
0
LINE
8
BLACK
6
CONTINUOUS
10
5.25023
20
-3.88849
11
5.25131
21
-3.88741
0
LINE
8
BLACK
6
CONTINUOUS
10
5.25131
20
-3.88741
11
5.25237
21
-3.88634
0
LINE
8
BLACK
6
CONTINUOUS
10
5.25237
20
-3.88634
11
5.25239
21
-3.88633
0
LINE
8
BLACK
6
CONTINUOUS
10
5.25239
20
-3.88633
11
5.2524
21
-3.88632
0
LINE
8
BLACK
6
CONTINUOUS
10
5.2524
20
-3.88632
11
5.25386
21
-3.88593
0
LINE
8
BLACK
6
CONTINUOUS
10
5.25386
20
-3.88593
11
5.25532
21
-3.88553
0
LINE
8
BLACK
6
CONTINUOUS
10
5.25532
20
-3.88553
11
5.25534
21
-3.88554
0
LINE
8
BLACK
6
CONTINUOUS
10
5.25534
20
-3.88554
11
5.25535
21
-3.88553
0
LINE
8
BLACK
6
CONTINUOUS
10
5.25535
20
-3.88553
11
5.32228
21
-3.88553
0
LINE
8
BLACK
6
CONTINUOUS
10
5.32228
20
-3.88553
11
5.32523
21
-3.88632
0
LINE
8
BLACK
6
CONTINUOUS
10
5.32523
20
-3.85445
11
5.32739
21
-3.85661
0
LINE
8
BLACK
6
CONTINUOUS
10
5.32739
20
-3.85661
11
5.32818
21
-3.85957
0
LINE
8
BLACK
6
CONTINUOUS
10
5.32818
20
-3.85957
11
5.32739
21
-3.86252
0
LINE
8
BLACK
6
CONTINUOUS
10
5.32739
20
-3.86252
11
5.32523
21
-3.86468
0
LINE
8
BLACK
6
CONTINUOUS
10
5.32523
20
-3.86468
11
5.32228
21
-3.86547
0
LINE
8
BLACK
6
CONTINUOUS
10
5.32228
20
-3.86547
11
5.25535
21
-3.86547
0
LINE
8
BLACK
6
CONTINUOUS
10
5.25535
20
-3.86547
11
5.2524
21
-3.86468
0
LINE
8
BLACK
6
CONTINUOUS
10
5.2524
20
-3.86468
11
5.25023
21
-3.86252
0
LINE
8
BLACK
6
CONTINUOUS
10
5.25023
20
-3.86252
11
5.24944
21
-3.85957
0
LINE
8
BLACK
6
CONTINUOUS
10
5.24944
20
-3.85957
11
5.25023
21
-3.85661
0
LINE
8
BLACK
6
CONTINUOUS
10
5.25023
20
-3.85661
11
5.2524
21
-3.85445
0
LINE
8
BLACK
6
CONTINUOUS
10
5.2524
20
-3.85445
11
5.25535
21
-3.85366
0
LINE
8
BLACK
6
CONTINUOUS
10
5.25535
20
-3.85366
11
5.32228
21
-3.85366
0
LINE
8
BLACK
6
CONTINUOUS
10
5.32228
20
-3.85366
11
5.32523
21
-3.85445
0
LINE
8
BLACK
6
CONTINUOUS
10
5.32523
20
-3.78752
11
5.32739
21
-3.78969
0
LINE
8
BLACK
6
CONTINUOUS
10
5.32739
20
-3.78969
11
5.32818
21
-3.79264
0
LINE
8
BLACK
6
CONTINUOUS
10
5.32818
20
-3.79264
11
5.32739
21
-3.79559
0
LINE
8
BLACK
6
CONTINUOUS
10
5.32739
20
-3.79559
11
5.32523
21
-3.79775
0
LINE
8
BLACK
6
CONTINUOUS
10
5.32523
20
-3.79775
11
5.32228
21
-3.79854
0
LINE
8
BLACK
6
CONTINUOUS
10
5.32228
20
-3.79854
11
5.29631
21
-3.79854
0
LINE
8
BLACK
6
CONTINUOUS
10
5.29631
20
-3.79854
11
5.29631
21
-3.81813
0
LINE
8
BLACK
6
CONTINUOUS
10
5.29631
20
-3.81813
11
5.29596
21
-3.81945
0
LINE
8
BLACK
6
CONTINUOUS
10
5.29596
20
-3.81945
11
5.29569
21
-3.82078
0
LINE
8
BLACK
6
CONTINUOUS
10
5.29569
20
-3.82078
11
5.2925
21
-3.82715
0
LINE
8
BLACK
6
CONTINUOUS
10
5.2925
20
-3.82715
11
5.29187
21
-3.82786
0
LINE
8
BLACK
6
CONTINUOUS
10
5.29187
20
-3.82786
11
5.2914
21
-3.82869
0
LINE
8
BLACK
6
CONTINUOUS
10
5.2914
20
-3.82869
11
5.28821
21
-3.83187
0
LINE
8
BLACK
6
CONTINUOUS
10
5.28821
20
-3.83187
11
5.28738
21
-3.83235
0
LINE
8
BLACK
6
CONTINUOUS
10
5.28738
20
-3.83235
11
5.28667
21
-3.83298
0
LINE
8
BLACK
6
CONTINUOUS
10
5.28667
20
-3.83298
11
5.2803
21
-3.83617
0
LINE
8
BLACK
6
CONTINUOUS
10
5.2803
20
-3.83617
11
5.27897
21
-3.83644
0
LINE
8
BLACK
6
CONTINUOUS
10
5.27897
20
-3.83644
11
5.27766
21
-3.83679
0
LINE
8
BLACK
6
CONTINUOUS
10
5.27766
20
-3.83679
11
5.2681
21
-3.83679
0
LINE
8
BLACK
6
CONTINUOUS
10
5.2681
20
-3.83679
11
5.26679
21
-3.83644
0
LINE
8
BLACK
6
CONTINUOUS
10
5.26679
20
-3.83644
11
5.26546
21
-3.83617
0
LINE
8
BLACK
6
CONTINUOUS
10
5.26546
20
-3.83617
11
5.25908
21
-3.83298
0
LINE
8
BLACK
6
CONTINUOUS
10
5.25908
20
-3.83298
11
5.25837
21
-3.83235
0
LINE
8
BLACK
6
CONTINUOUS
10
5.25837
20
-3.83235
11
5.25755
21
-3.83187
0
LINE
8
BLACK
6
CONTINUOUS
10
5.25755
20
-3.83187
11
5.25436
21
-3.82869
0
LINE
8
BLACK
6
CONTINUOUS
10
5.25436
20
-3.82869
11
5.25388
21
-3.82786
0
LINE
8
BLACK
6
CONTINUOUS
10
5.25388
20
-3.82786
11
5.25325
21
-3.82715
0
LINE
8
BLACK
6
CONTINUOUS
10
5.25325
20
-3.82715
11
5.25007
21
-3.82078
0
LINE
8
BLACK
6
CONTINUOUS
10
5.25007
20
-3.82078
11
5.24979
21
-3.81945
0
LINE
8
BLACK
6
CONTINUOUS
10
5.24979
20
-3.81945
11
5.24944
21
-3.81813
0
LINE
8
BLACK
6
CONTINUOUS
10
5.24944
20
-3.81813
11
5.24944
21
-3.79264
0
LINE
8
BLACK
6
CONTINUOUS
10
5.24944
20
-3.79264
11
5.25023
21
-3.78969
0
LINE
8
BLACK
6
CONTINUOUS
10
5.25023
20
-3.78969
11
5.2524
21
-3.78752
0
LINE
8
BLACK
6
CONTINUOUS
10
5.2524
20
-3.78752
11
5.25535
21
-3.78673
0
LINE
8
BLACK
6
CONTINUOUS
10
5.25535
20
-3.78673
11
5.32228
21
-3.78673
0
LINE
8
BLACK
6
CONTINUOUS
10
5.32228
20
-3.78673
11
5.32523
21
-3.78752
0
LINE
8
BLACK
6
CONTINUOUS
10
5.26125
20
-3.79854
11
5.26125
21
-3.81674
0
LINE
8
BLACK
6
CONTINUOUS
10
5.26125
20
-3.81674
11
5.26339
21
-3.82101
0
LINE
8
BLACK
6
CONTINUOUS
10
5.26339
20
-3.82101
11
5.26522
21
-3.82284
0
LINE
8
BLACK
6
CONTINUOUS
10
5.26522
20
-3.82284
11
5.26949
21
-3.82498
0
LINE
8
BLACK
6
CONTINUOUS
10
5.26949
20
-3.82498
11
5.27626
21
-3.82498
0
LINE
8
BLACK
6
CONTINUOUS
10
5.27626
20
-3.82498
11
5.28053
21
-3.82284
0
LINE
8
BLACK
6
CONTINUOUS
10
5.28053
20
-3.82284
11
5.28237
21
-3.82101
0
LINE
8
BLACK
6
CONTINUOUS
10
5.28237
20
-3.82101
11
5.2845
21
-3.81674
0
LINE
8
BLACK
6
CONTINUOUS
10
5.2845
20
-3.81674
11
5.2845
21
-3.79854
0
LINE
8
BLACK
6
CONTINUOUS
10
5.2845
20
-3.79854
11
5.26125
21
-3.79854
0
LINE
8
BLACK
6
CONTINUOUS
10
4.76952
20
-3.36325
11
4.76959
21
-3.36325
0
LINE
8
BLACK
6
CONTINUOUS
10
4.76959
20
-3.36325
11
4.77521
21
-3.36512
0
LINE
8
BLACK
6
CONTINUOUS
10
4.77521
20
-3.36512
11
4.77611
21
-3.36561
0
LINE
8
BLACK
6
CONTINUOUS
10
4.77611
20
-3.36561
11
4.77621
21
-3.36576
0
LINE
8
BLACK
6
CONTINUOUS
10
4.77621
20
-3.36576
11
4.77637
21
-3.36583
0
LINE
8
BLACK
6
CONTINUOUS
10
4.77637
20
-3.36583
11
4.77824
21
-3.36771
0
LINE
8
BLACK
6
CONTINUOUS
10
4.77824
20
-3.36771
11
4.77835
21
-3.36786
0
LINE
8
BLACK
6
CONTINUOUS
10
4.77835
20
-3.36786
11
4.77841
21
-3.3679
0
LINE
8
BLACK
6
CONTINUOUS
10
4.77841
20
-3.3679
11
4.77846
21
-3.36802
0
LINE
8
BLACK
6
CONTINUOUS
10
4.77846
20
-3.36802
11
4.77883
21
-3.36855
0
LINE
8
BLACK
6
CONTINUOUS
10
4.77883
20
-3.36855
11
4.77889
21
-3.36919
0
LINE
8
BLACK
6
CONTINUOUS
10
4.77889
20
-3.36919
11
4.77911
21
-3.3698
0
LINE
8
BLACK
6
CONTINUOUS
10
4.77911
20
-3.3698
11
4.77911
21
-3.38292
0
LINE
8
BLACK
6
CONTINUOUS
10
4.77911
20
-3.38292
11
4.77904
21
-3.3833
0
LINE
8
BLACK
6
CONTINUOUS
10
4.77904
20
-3.3833
11
4.77906
21
-3.38343
0
LINE
8
BLACK
6
CONTINUOUS
10
4.77906
20
-3.38343
11
4.779
21
-3.38355
0
LINE
8
BLACK
6
CONTINUOUS
10
4.779
20
-3.38355
11
4.77893
21
-3.38393
0
LINE
8
BLACK
6
CONTINUOUS
10
4.77893
20
-3.38393
11
4.77843
21
-3.38452
0
LINE
8
BLACK
6
CONTINUOUS
10
4.77843
20
-3.38452
11
4.77805
21
-3.38518
0
LINE
8
BLACK
6
CONTINUOUS
10
4.77805
20
-3.38518
11
4.7778
21
-3.38527
0
LINE
8
BLACK
6
CONTINUOUS
10
4.7778
20
-3.38527
11
4.77763
21
-3.38548
0
LINE
8
BLACK
6
CONTINUOUS
10
4.77763
20
-3.38548
11
4.77687
21
-3.38561
0
LINE
8
BLACK
6
CONTINUOUS
10
4.77687
20
-3.38561
11
4.77615
21
-3.38587
0
LINE
8
BLACK
6
CONTINUOUS
10
4.77615
20
-3.38587
11
4.76865
21
-3.38587
0
LINE
8
BLACK
6
CONTINUOUS
10
4.76865
20
-3.38587
11
4.76764
21
-3.3857
0
LINE
8
BLACK
6
CONTINUOUS
10
4.76764
20
-3.3857
11
4.7661
21
-3.3844
0
LINE
8
BLACK
6
CONTINUOUS
10
4.7661
20
-3.3844
11
4.76575
21
-3.38241
0
LINE
8
BLACK
6
CONTINUOUS
10
4.76575
20
-3.38241
11
4.76676
21
-3.38066
0
LINE
8
BLACK
6
CONTINUOUS
10
4.76676
20
-3.38066
11
4.76865
21
-3.37997
0
LINE
8
BLACK
6
CONTINUOUS
10
4.76865
20
-3.37997
11
4.7732
21
-3.37997
0
LINE
8
BLACK
6
CONTINUOUS
10
4.7732
20
-3.37997
11
4.7732
21
-3.37102
0
LINE
8
BLACK
6
CONTINUOUS
10
4.7732
20
-3.37102
11
4.77268
21
-3.3705
0
LINE
8
BLACK
6
CONTINUOUS
10
4.77268
20
-3.3705
11
4.76817
21
-3.369
0
LINE
8
BLACK
6
CONTINUOUS
10
4.76817
20
-3.369
11
4.76538
21
-3.369
0
LINE
8
BLACK
6
CONTINUOUS
10
4.76538
20
-3.369
11
4.76088
21
-3.3705
0
LINE
8
BLACK
6
CONTINUOUS
10
4.76088
20
-3.3705
11
4.75796
21
-3.37342
0
LINE
8
BLACK
6
CONTINUOUS
10
4.75796
20
-3.37342
11
4.75644
21
-3.37645
0
LINE
8
BLACK
6
CONTINUOUS
10
4.75644
20
-3.37645
11
4.75473
21
-3.38328
0
LINE
8
BLACK
6
CONTINUOUS
10
4.75473
20
-3.38328
11
4.75473
21
-3.38818
0
LINE
8
BLACK
6
CONTINUOUS
10
4.75473
20
-3.38818
11
4.75644
21
-3.39501
0
LINE
8
BLACK
6
CONTINUOUS
10
4.75644
20
-3.39501
11
4.75796
21
-3.39804
0
LINE
8
BLACK
6
CONTINUOUS
10
4.75796
20
-3.39804
11
4.76088
21
-3.40096
0
LINE
8
BLACK
6
CONTINUOUS
10
4.76088
20
-3.40096
11
4.76538
21
-3.40247
0
LINE
8
BLACK
6
CONTINUOUS
10
4.76538
20
-3.40247
11
4.76983
21
-3.40247
0
LINE
8
BLACK
6
CONTINUOUS
10
4.76983
20
-3.40247
11
4.77296
21
-3.4009
0
LINE
8
BLACK
6
CONTINUOUS
10
4.77296
20
-3.4009
11
4.77394
21
-3.40061
0
LINE
8
BLACK
6
CONTINUOUS
10
4.77394
20
-3.40061
11
4.77591
21
-3.40108
0
LINE
8
BLACK
6
CONTINUOUS
10
4.77591
20
-3.40108
11
4.77711
21
-3.4027
0
LINE
8
BLACK
6
CONTINUOUS
10
4.77711
20
-3.4027
11
4.77699
21
-3.40472
0
LINE
8
BLACK
6
CONTINUOUS
10
4.77699
20
-3.40472
11
4.7756
21
-3.40618
0
LINE
8
BLACK
6
CONTINUOUS
10
4.7756
20
-3.40618
11
4.77185
21
-3.40806
0
LINE
8
BLACK
6
CONTINUOUS
10
4.77185
20
-3.40806
11
4.77087
21
-3.40835
0
LINE
8
BLACK
6
CONTINUOUS
10
4.77087
20
-3.40835
11
4.77069
21
-3.40831
0
LINE
8
BLACK
6
CONTINUOUS
10
4.77069
20
-3.40831
11
4.77053
21
-3.40837
0
LINE
8
BLACK
6
CONTINUOUS
10
4.77053
20
-3.40837
11
4.7649
21
-3.40837
0
LINE
8
BLACK
6
CONTINUOUS
10
4.7649
20
-3.40837
11
4.76403
21
-3.40822
0
LINE
8
BLACK
6
CONTINUOUS
10
4.76403
20
-3.40822
11
4.76397
21
-3.40822
0
LINE
8
BLACK
6
CONTINUOUS
10
4.76397
20
-3.40822
11
4.75835
21
-3.40634
0
LINE
8
BLACK
6
CONTINUOUS
10
4.75835
20
-3.40634
11
4.75744
21
-3.40586
0
LINE
8
BLACK
6
CONTINUOUS
10
4.75744
20
-3.40586
11
4.75735
21
-3.40571
0
LINE
8
BLACK
6
CONTINUOUS
10
4.75735
20
-3.40571
11
4.75719
21
-3.40563
0
LINE
8
BLACK
6
CONTINUOUS
10
4.75719
20
-3.40563
11
4.75344
21
-3.40188
0
LINE
8
BLACK
6
CONTINUOUS
10
4.75344
20
-3.40188
11
4.75294
21
-3.40116
0
LINE
8
BLACK
6
CONTINUOUS
10
4.75294
20
-3.40116
11
4.75289
21
-3.40111
0
LINE
8
BLACK
6
CONTINUOUS
10
4.75289
20
-3.40111
11
4.75101
21
-3.39736
0
LINE
8
BLACK
6
CONTINUOUS
10
4.75101
20
-3.39736
11
4.75087
21
-3.39688
0
LINE
8
BLACK
6
CONTINUOUS
10
4.75087
20
-3.39688
11
4.75079
21
-3.39676
0
LINE
8
BLACK
6
CONTINUOUS
10
4.75079
20
-3.39676
11
4.74892
21
-3.38926
0
LINE
8
BLACK
6
CONTINUOUS
10
4.74892
20
-3.38926
11
4.74887
21
-3.38867
0
LINE
8
BLACK
6
CONTINUOUS
10
4.74887
20
-3.38867
11
4.74883
21
-3.38855
0
LINE
8
BLACK
6
CONTINUOUS
10
4.74883
20
-3.38855
11
4.74883
21
-3.38292
0
LINE
8
BLACK
6
CONTINUOUS
10
4.74883
20
-3.38292
11
4.74893
21
-3.38234
0
LINE
8
BLACK
6
CONTINUOUS
10
4.74893
20
-3.38234
11
4.74892
21
-3.3822
0
LINE
8
BLACK
6
CONTINUOUS
10
4.74892
20
-3.3822
11
4.75079
21
-3.37471
0
LINE
8
BLACK
6
CONTINUOUS
10
4.75079
20
-3.37471
11
4.751
21
-3.37424
0
LINE
8
BLACK
6
CONTINUOUS
10
4.751
20
-3.37424
11
4.75101
21
-3.3741
0
LINE
8
BLACK
6
CONTINUOUS
10
4.75101
20
-3.3741
11
4.75289
21
-3.37035
0
LINE
8
BLACK
6
CONTINUOUS
10
4.75289
20
-3.37035
11
4.75342
21
-3.36964
0
LINE
8
BLACK
6
CONTINUOUS
10
4.75342
20
-3.36964
11
4.75344
21
-3.36958
0
LINE
8
BLACK
6
CONTINUOUS
10
4.75344
20
-3.36958
11
4.75719
21
-3.36583
0
LINE
8
BLACK
6
CONTINUOUS
10
4.75719
20
-3.36583
11
4.75803
21
-3.36525
0
LINE
8
BLACK
6
CONTINUOUS
10
4.75803
20
-3.36525
11
4.75821
21
-3.36523
0
LINE
8
BLACK
6
CONTINUOUS
10
4.75821
20
-3.36523
11
4.75835
21
-3.36512
0
LINE
8
BLACK
6
CONTINUOUS
10
4.75835
20
-3.36512
11
4.76397
21
-3.36325
0
LINE
8
BLACK
6
CONTINUOUS
10
4.76397
20
-3.36325
11
4.76484
21
-3.36312
0
LINE
8
BLACK
6
CONTINUOUS
10
4.76484
20
-3.36312
11
4.7649
21
-3.3631
0
LINE
8
BLACK
6
CONTINUOUS
10
4.7649
20
-3.3631
11
4.76865
21
-3.3631
0
LINE
8
BLACK
6
CONTINUOUS
10
4.76865
20
-3.3631
11
4.76952
21
-3.36325
0
LINE
8
BLACK
6
CONTINUOUS
10
4.84451
20
-3.36325
11
4.84458
21
-3.36325
0
LINE
8
BLACK
6
CONTINUOUS
10
4.84458
20
-3.36325
11
4.8502
21
-3.36512
0
LINE
8
BLACK
6
CONTINUOUS
10
4.8502
20
-3.36512
11
4.8511
21
-3.36561
0
LINE
8
BLACK
6
CONTINUOUS
10
4.8511
20
-3.36561
11
4.8512
21
-3.36576
0
LINE
8
BLACK
6
CONTINUOUS
10
4.8512
20
-3.36576
11
4.85136
21
-3.36583
0
LINE
8
BLACK
6
CONTINUOUS
10
4.85136
20
-3.36583
11
4.85511
21
-3.36958
0
LINE
8
BLACK
6
CONTINUOUS
10
4.85511
20
-3.36958
11
4.85561
21
-3.37031
0
LINE
8
BLACK
6
CONTINUOUS
10
4.85561
20
-3.37031
11
4.85566
21
-3.37035
0
LINE
8
BLACK
6
CONTINUOUS
10
4.85566
20
-3.37035
11
4.85753
21
-3.3741
0
LINE
8
BLACK
6
CONTINUOUS
10
4.85753
20
-3.3741
11
4.85768
21
-3.37459
0
LINE
8
BLACK
6
CONTINUOUS
10
4.85768
20
-3.37459
11
4.85776
21
-3.37471
0
LINE
8
BLACK
6
CONTINUOUS
10
4.85776
20
-3.37471
11
4.85963
21
-3.3822
0
LINE
8
BLACK
6
CONTINUOUS
10
4.85963
20
-3.3822
11
4.85967
21
-3.38279
0
LINE
8
BLACK
6
CONTINUOUS
10
4.85967
20
-3.38279
11
4.85972
21
-3.38292
0
LINE
8
BLACK
6
CONTINUOUS
10
4.85972
20
-3.38292
11
4.85972
21
-3.38855
0
LINE
8
BLACK
6
CONTINUOUS
10
4.85972
20
-3.38855
11
4.85962
21
-3.38913
0
LINE
8
BLACK
6
CONTINUOUS
10
4.85962
20
-3.38913
11
4.85963
21
-3.38926
0
LINE
8
BLACK
6
CONTINUOUS
10
4.85963
20
-3.38926
11
4.85776
21
-3.39676
0
LINE
8
BLACK
6
CONTINUOUS
10
4.85776
20
-3.39676
11
4.85755
21
-3.39723
0
LINE
8
BLACK
6
CONTINUOUS
10
4.85755
20
-3.39723
11
4.85753
21
-3.39736
0
LINE
8
BLACK
6
CONTINUOUS
10
4.85753
20
-3.39736
11
4.85566
21
-3.40111
0
LINE
8
BLACK
6
CONTINUOUS
10
4.85566
20
-3.40111
11
4.85513
21
-3.40182
0
LINE
8
BLACK
6
CONTINUOUS
10
4.85513
20
-3.40182
11
4.85511
21
-3.40188
0
LINE
8
BLACK
6
CONTINUOUS
10
4.85511
20
-3.40188
11
4.85136
21
-3.40563
0
LINE
8
BLACK
6
CONTINUOUS
10
4.85136
20
-3.40563
11
4.85052
21
-3.40622
0
LINE
8
BLACK
6
CONTINUOUS
10
4.85052
20
-3.40622
11
4.85034
21
-3.40623
0
LINE
8
BLACK
6
CONTINUOUS
10
4.85034
20
-3.40623
11
4.8502
21
-3.40634
0
LINE
8
BLACK
6
CONTINUOUS
10
4.8502
20
-3.40634
11
4.84458
21
-3.40822
0
LINE
8
BLACK
6
CONTINUOUS
10
4.84458
20
-3.40822
11
4.84371
21
-3.40835
0
LINE
8
BLACK
6
CONTINUOUS
10
4.84371
20
-3.40835
11
4.84364
21
-3.40837
0
LINE
8
BLACK
6
CONTINUOUS
10
4.84364
20
-3.40837
11
4.83427
21
-3.40837
0
LINE
8
BLACK
6
CONTINUOUS
10
4.83427
20
-3.40837
11
4.83389
21
-3.4083
0
LINE
8
BLACK
6
CONTINUOUS
10
4.83389
20
-3.4083
11
4.83376
21
-3.40833
0
LINE
8
BLACK
6
CONTINUOUS
10
4.83376
20
-3.40833
11
4.83364
21
-3.40826
0
LINE
8
BLACK
6
CONTINUOUS
10
4.83364
20
-3.40826
11
4.83326
21
-3.40819
0
LINE
8
BLACK
6
CONTINUOUS
10
4.83326
20
-3.40819
11
4.83267
21
-3.4077
0
LINE
8
BLACK
6
CONTINUOUS
10
4.83267
20
-3.4077
11
4.83201
21
-3.40732
0
LINE
8
BLACK
6
CONTINUOUS
10
4.83201
20
-3.40732
11
4.83192
21
-3.40707
0
LINE
8
BLACK
6
CONTINUOUS
10
4.83192
20
-3.40707
11
4.83171
21
-3.40689
0
LINE
8
BLACK
6
CONTINUOUS
10
4.83171
20
-3.40689
11
4.83158
21
-3.40614
0
LINE
8
BLACK
6
CONTINUOUS
10
4.83158
20
-3.40614
11
4.83132
21
-3.40542
0
LINE
8
BLACK
6
CONTINUOUS
10
4.83132
20
-3.40542
11
4.83132
21
-3.36605
0
LINE
8
BLACK
6
CONTINUOUS
10
4.83132
20
-3.36605
11
4.83139
21
-3.36566
0
LINE
8
BLACK
6
CONTINUOUS
10
4.83139
20
-3.36566
11
4.83136
21
-3.36554
0
LINE
8
BLACK
6
CONTINUOUS
10
4.83136
20
-3.36554
11
4.83143
21
-3.36542
0
LINE
8
BLACK
6
CONTINUOUS
10
4.83143
20
-3.36542
11
4.8315
21
-3.36504
0
LINE
8
BLACK
6
CONTINUOUS
10
4.8315
20
-3.36504
11
4.83199
21
-3.36445
0
LINE
8
BLACK
6
CONTINUOUS
10
4.83199
20
-3.36445
11
4.83237
21
-3.36379
0
LINE
8
BLACK
6
CONTINUOUS
10
4.83237
20
-3.36379
11
4.83262
21
-3.36369
0
LINE
8
BLACK
6
CONTINUOUS
10
4.83262
20
-3.36369
11
4.83279
21
-3.36349
0
LINE
8
BLACK
6
CONTINUOUS
10
4.83279
20
-3.36349
11
4.83355
21
-3.36336
0
LINE
8
BLACK
6
CONTINUOUS
10
4.83355
20
-3.36336
11
4.83427
21
-3.3631
0
LINE
8
BLACK
6
CONTINUOUS
10
4.83427
20
-3.3631
11
4.84364
21
-3.3631
0
LINE
8
BLACK
6
CONTINUOUS
10
4.84364
20
-3.3631
11
4.84451
21
-3.36325
0
LINE
8
BLACK
6
CONTINUOUS
10
4.83722
20
-3.369
11
4.83722
21
-3.40247
0
LINE
8
BLACK
6
CONTINUOUS
10
4.83722
20
-3.40247
11
4.84317
21
-3.40247
0
LINE
8
BLACK
6
CONTINUOUS
10
4.84317
20
-3.40247
11
4.84767
21
-3.40096
0
LINE
8
BLACK
6
CONTINUOUS
10
4.84767
20
-3.40096
11
4.85059
21
-3.39804
0
LINE
8
BLACK
6
CONTINUOUS
10
4.85059
20
-3.39804
11
4.85211
21
-3.39501
0
LINE
8
BLACK
6
CONTINUOUS
10
4.85211
20
-3.39501
11
4.85382
21
-3.38818
0
LINE
8
BLACK
6
CONTINUOUS
10
4.85382
20
-3.38818
11
4.85382
21
-3.38328
0
LINE
8
BLACK
6
CONTINUOUS
10
4.85382
20
-3.38328
11
4.85211
21
-3.37645
0
LINE
8
BLACK
6
CONTINUOUS
10
4.85211
20
-3.37645
11
4.85059
21
-3.37342
0
LINE
8
BLACK
6
CONTINUOUS
10
4.85059
20
-3.37342
11
4.84767
21
-3.3705
0
LINE
8
BLACK
6
CONTINUOUS
10
4.84767
20
-3.3705
11
4.84317
21
-3.369
0
LINE
8
BLACK
6
CONTINUOUS
10
4.84317
20
-3.369
11
4.83722
21
-3.369
0
LINE
8
BLACK
6
CONTINUOUS
10
4.81577
20
-3.36319
11
4.81604
21
-3.36314
0
LINE
8
BLACK
6
CONTINUOUS
10
4.81604
20
-3.36314
11
4.81669
21
-3.36352
0
LINE
8
BLACK
6
CONTINUOUS
10
4.81669
20
-3.36352
11
4.81741
21
-3.36378
0
LINE
8
BLACK
6
CONTINUOUS
10
4.81741
20
-3.36378
11
4.81755
21
-3.36401
0
LINE
8
BLACK
6
CONTINUOUS
10
4.81755
20
-3.36401
11
4.81778
21
-3.36415
0
LINE
8
BLACK
6
CONTINUOUS
10
4.81778
20
-3.36415
11
4.81805
21
-3.36486
0
LINE
8
BLACK
6
CONTINUOUS
10
4.81805
20
-3.36486
11
4.81843
21
-3.36552
0
LINE
8
BLACK
6
CONTINUOUS
10
4.81843
20
-3.36552
11
4.81838
21
-3.36579
0
LINE
8
BLACK
6
CONTINUOUS
10
4.81838
20
-3.36579
11
4.81848
21
-3.36605
0
LINE
8
BLACK
6
CONTINUOUS
10
4.81848
20
-3.36605
11
4.81848
21
-3.40542
0
LINE
8
BLACK
6
CONTINUOUS
10
4.81848
20
-3.40542
11
4.8183
21
-3.40643
0
LINE
8
BLACK
6
CONTINUOUS
10
4.8183
20
-3.40643
11
4.817
21
-3.40798
0
LINE
8
BLACK
6
CONTINUOUS
10
4.817
20
-3.40798
11
4.81501
21
-3.40833
0
LINE
8
BLACK
6
CONTINUOUS
10
4.81501
20
-3.40833
11
4.81326
21
-3.40732
0
LINE
8
BLACK
6
CONTINUOUS
10
4.81326
20
-3.40732
11
4.81257
21
-3.40542
0
LINE
8
BLACK
6
CONTINUOUS
10
4.81257
20
-3.40542
11
4.81257
21
-3.37717
0
LINE
8
BLACK
6
CONTINUOUS
10
4.81257
20
-3.37717
11
4.79559
21
-3.40688
0
LINE
8
BLACK
6
CONTINUOUS
10
4.79559
20
-3.40688
11
4.79493
21
-3.40767
0
LINE
8
BLACK
6
CONTINUOUS
10
4.79493
20
-3.40767
11
4.79468
21
-3.40777
0
LINE
8
BLACK
6
CONTINUOUS
10
4.79468
20
-3.40777
11
4.7945
21
-3.40798
0
LINE
8
BLACK
6
CONTINUOUS
10
4.7945
20
-3.40798
11
4.79375
21
-3.40811
0
LINE
8
BLACK
6
CONTINUOUS
10
4.79375
20
-3.40811
11
4.79304
21
-3.40837
0
LINE
8
BLACK
6
CONTINUOUS
10
4.79304
20
-3.40837
11
4.79278
21
-3.40828
0
LINE
8
BLACK
6
CONTINUOUS
10
4.79278
20
-3.40828
11
4.79251
21
-3.40833
0
LINE
8
BLACK
6
CONTINUOUS
10
4.79251
20
-3.40833
11
4.79185
21
-3.40795
0
LINE
8
BLACK
6
CONTINUOUS
10
4.79185
20
-3.40795
11
4.79114
21
-3.40769
0
LINE
8
BLACK
6
CONTINUOUS
10
4.79114
20
-3.40769
11
4.791
21
-3.40745
0
LINE
8
BLACK
6
CONTINUOUS
10
4.791
20
-3.40745
11
4.79076
21
-3.40732
0
LINE
8
BLACK
6
CONTINUOUS
10
4.79076
20
-3.40732
11
4.7905
21
-3.4066
0
LINE
8
BLACK
6
CONTINUOUS
10
4.7905
20
-3.4066
11
4.79012
21
-3.40594
0
LINE
8
BLACK
6
CONTINUOUS
10
4.79012
20
-3.40594
11
4.79017
21
-3.40567
0
LINE
8
BLACK
6
CONTINUOUS
10
4.79017
20
-3.40567
11
4.79007
21
-3.40542
0
LINE
8
BLACK
6
CONTINUOUS
10
4.79007
20
-3.40542
11
4.79007
21
-3.36605
0
LINE
8
BLACK
6
CONTINUOUS
10
4.79007
20
-3.36605
11
4.79025
21
-3.36504
0
LINE
8
BLACK
6
CONTINUOUS
10
4.79025
20
-3.36504
11
4.79155
21
-3.36349
0
LINE
8
BLACK
6
CONTINUOUS
10
4.79155
20
-3.36349
11
4.79354
21
-3.36314
0
LINE
8
BLACK
6
CONTINUOUS
10
4.79354
20
-3.36314
11
4.79529
21
-3.36415
0
LINE
8
BLACK
6
CONTINUOUS
10
4.79529
20
-3.36415
11
4.79598
21
-3.36605
0
LINE
8
BLACK
6
CONTINUOUS
10
4.79598
20
-3.36605
11
4.79598
21
-3.3943
0
LINE
8
BLACK
6
CONTINUOUS
10
4.79598
20
-3.3943
11
4.81296
21
-3.36458
0
LINE
8
BLACK
6
CONTINUOUS
10
4.81296
20
-3.36458
11
4.81361
21
-3.36379
0
LINE
8
BLACK
6
CONTINUOUS
10
4.81361
20
-3.36379
11
4.81387
21
-3.3637
0
LINE
8
BLACK
6
CONTINUOUS
10
4.81387
20
-3.3637
11
4.81405
21
-3.36349
0
LINE
8
BLACK
6
CONTINUOUS
10
4.81405
20
-3.36349
11
4.8148
21
-3.36336
0
LINE
8
BLACK
6
CONTINUOUS
10
4.8148
20
-3.36336
11
4.81551
21
-3.3631
0
LINE
8
BLACK
6
CONTINUOUS
10
4.81551
20
-3.3631
11
4.81577
21
-3.36319
0
LINE
8
BLACK
6
CONTINUOUS
10
4.92829
20
-3.36403
11
4.92908
21
-3.36589
0
LINE
8
BLACK
6
CONTINUOUS
10
4.92908
20
-3.36589
11
4.9285
21
-3.36782
0
LINE
8
BLACK
6
CONTINUOUS
10
4.9285
20
-3.36782
11
4.91316
21
-3.38827
0
LINE
8
BLACK
6
CONTINUOUS
10
4.91316
20
-3.38827
11
4.92822
21
-3.40333
0
LINE
8
BLACK
6
CONTINUOUS
10
4.92822
20
-3.40333
11
4.92881
21
-3.40417
0
LINE
8
BLACK
6
CONTINUOUS
10
4.92881
20
-3.40417
11
4.92899
21
-3.40618
0
LINE
8
BLACK
6
CONTINUOUS
10
4.92899
20
-3.40618
11
4.92783
21
-3.40784
0
LINE
8
BLACK
6
CONTINUOUS
10
4.92783
20
-3.40784
11
4.92588
21
-3.40836
0
LINE
8
BLACK
6
CONTINUOUS
10
4.92588
20
-3.40836
11
4.92405
21
-3.40751
0
LINE
8
BLACK
6
CONTINUOUS
10
4.92405
20
-3.40751
11
4.90659
21
-3.39005
0
LINE
8
BLACK
6
CONTINUOUS
10
4.90659
20
-3.39005
11
4.90659
21
-3.40542
0
LINE
8
BLACK
6
CONTINUOUS
10
4.90659
20
-3.40542
11
4.90641
21
-3.40643
0
LINE
8
BLACK
6
CONTINUOUS
10
4.90641
20
-3.40643
11
4.90511
21
-3.40798
0
LINE
8
BLACK
6
CONTINUOUS
10
4.90511
20
-3.40798
11
4.90312
21
-3.40833
0
LINE
8
BLACK
6
CONTINUOUS
10
4.90312
20
-3.40833
11
4.90138
21
-3.40732
0
LINE
8
BLACK
6
CONTINUOUS
10
4.90138
20
-3.40732
11
4.90068
21
-3.40542
0
LINE
8
BLACK
6
CONTINUOUS
10
4.90068
20
-3.40542
11
4.90068
21
-3.36605
0
LINE
8
BLACK
6
CONTINUOUS
10
4.90068
20
-3.36605
11
4.90086
21
-3.36504
0
LINE
8
BLACK
6
CONTINUOUS
10
4.90086
20
-3.36504
11
4.90216
21
-3.36349
0
LINE
8
BLACK
6
CONTINUOUS
10
4.90216
20
-3.36349
11
4.90415
21
-3.36314
0
LINE
8
BLACK
6
CONTINUOUS
10
4.90415
20
-3.36314
11
4.9059
21
-3.36415
0
LINE
8
BLACK
6
CONTINUOUS
10
4.9059
20
-3.36415
11
4.90659
21
-3.36605
0
LINE
8
BLACK
6
CONTINUOUS
10
4.90659
20
-3.36605
11
4.90659
21
-3.3817
0
LINE
8
BLACK
6
CONTINUOUS
10
4.90659
20
-3.3817
11
4.90894
21
-3.38405
0
LINE
8
BLACK
6
CONTINUOUS
10
4.90894
20
-3.38405
11
4.92377
21
-3.36428
0
LINE
8
BLACK
6
CONTINUOUS
10
4.92377
20
-3.36428
11
4.92452
21
-3.36358
0
LINE
8
BLACK
6
CONTINUOUS
10
4.92452
20
-3.36358
11
4.92649
21
-3.36312
0
LINE
8
BLACK
6
CONTINUOUS
10
4.92649
20
-3.36312
11
4.92829
21
-3.36403
0
LINE
8
BLACK
6
CONTINUOUS
10
4.68584
20
-3.36353
11
4.68709
21
-3.36511
0
LINE
8
BLACK
6
CONTINUOUS
10
4.68709
20
-3.36511
11
4.69017
21
-3.37434
0
LINE
8
BLACK
6
CONTINUOUS
10
4.69017
20
-3.37434
11
4.70466
21
-3.37434
0
LINE
8
BLACK
6
CONTINUOUS
10
4.70466
20
-3.37434
11
4.70773
21
-3.36511
0
LINE
8
BLACK
6
CONTINUOUS
10
4.70773
20
-3.36511
11
4.70822
21
-3.36421
0
LINE
8
BLACK
6
CONTINUOUS
10
4.70822
20
-3.36421
11
4.70994
21
-3.36316
0
LINE
8
BLACK
6
CONTINUOUS
10
4.70994
20
-3.36316
11
4.71194
21
-3.36345
0
LINE
8
BLACK
6
CONTINUOUS
10
4.71194
20
-3.36345
11
4.71328
21
-3.36496
0
LINE
8
BLACK
6
CONTINUOUS
10
4.71328
20
-3.36496
11
4.71334
21
-3.36698
0
LINE
8
BLACK
6
CONTINUOUS
10
4.71334
20
-3.36698
11
4.70021
21
-3.40635
0
LINE
8
BLACK
6
CONTINUOUS
10
4.70021
20
-3.40635
11
4.69973
21
-3.40725
0
LINE
8
BLACK
6
CONTINUOUS
10
4.69973
20
-3.40725
11
4.69965
21
-3.4073
0
LINE
8
BLACK
6
CONTINUOUS
10
4.69965
20
-3.4073
11
4.69962
21
-3.40738
0
LINE
8
BLACK
6
CONTINUOUS
10
4.69962
20
-3.40738
11
4.6988
21
-3.40782
0
LINE
8
BLACK
6
CONTINUOUS
10
4.6988
20
-3.40782
11
4.698
21
-3.40831
0
LINE
8
BLACK
6
CONTINUOUS
10
4.698
20
-3.40831
11
4.69792
21
-3.4083
0
LINE
8
BLACK
6
CONTINUOUS
10
4.69792
20
-3.4083
11
4.69785
21
-3.40834
0
LINE
8
BLACK
6
CONTINUOUS
10
4.69785
20
-3.40834
11
4.69693
21
-3.40815
0
LINE
8
BLACK
6
CONTINUOUS
10
4.69693
20
-3.40815
11
4.69601
21
-3.40801
0
LINE
8
BLACK
6
CONTINUOUS
10
4.69601
20
-3.40801
11
4.69595
21
-3.40795
0
LINE
8
BLACK
6
CONTINUOUS
10
4.69595
20
-3.40795
11
4.69587
21
-3.40793
0
LINE
8
BLACK
6
CONTINUOUS
10
4.69587
20
-3.40793
11
4.69529
21
-3.4072
0
LINE
8
BLACK
6
CONTINUOUS
10
4.69529
20
-3.4072
11
4.69467
21
-3.4065
0
LINE
8
BLACK
6
CONTINUOUS
10
4.69467
20
-3.4065
11
4.69466
21
-3.40642
0
LINE
8
BLACK
6
CONTINUOUS
10
4.69466
20
-3.40642
11
4.69461
21
-3.40635
0
LINE
8
BLACK
6
CONTINUOUS
10
4.69461
20
-3.40635
11
4.68149
21
-3.36698
0
LINE
8
BLACK
6
CONTINUOUS
10
4.68149
20
-3.36698
11
4.68134
21
-3.36597
0
LINE
8
BLACK
6
CONTINUOUS
10
4.68134
20
-3.36597
11
4.68208
21
-3.36409
0
LINE
8
BLACK
6
CONTINUOUS
10
4.68208
20
-3.36409
11
4.68386
21
-3.36313
0
LINE
8
BLACK
6
CONTINUOUS
10
4.68386
20
-3.36313
11
4.68584
21
-3.36353
0
LINE
8
BLACK
6
CONTINUOUS
10
4.69214
20
-3.38025
11
4.69741
21
-3.39608
0
LINE
8
BLACK
6
CONTINUOUS
10
4.69741
20
-3.39608
11
4.70269
21
-3.38025
0
LINE
8
BLACK
6
CONTINUOUS
10
4.70269
20
-3.38025
11
4.69214
21
-3.38025
0
LINE
8
BLACK
6
CONTINUOUS
10
4.93543
20
-3.33543
11
4.93474
21
-3.3371
0
LINE
8
BLACK
6
CONTINUOUS
10
4.93474
20
-3.3371
11
4.93307
21
-3.3378
0
LINE
8
BLACK
6
CONTINUOUS
10
4.93307
20
-3.3378
11
4.9314
21
-3.3371
0
LINE
8
BLACK
6
CONTINUOUS
10
4.9314
20
-3.3371
11
4.93071
21
-3.33543
0
LINE
8
BLACK
6
CONTINUOUS
10
4.93071
20
-3.33543
11
4.93071
21
-3.27559
0
LINE
8
BLACK
6
CONTINUOUS
10
4.93071
20
-3.27559
11
4.9314
21
-3.27392
0
LINE
8
BLACK
6
CONTINUOUS
10
4.9314
20
-3.27392
11
4.93307
21
-3.27323
0
LINE
8
BLACK
6
CONTINUOUS
10
4.93307
20
-3.27323
11
4.95315
21
-3.27323
0
LINE
8
BLACK
6
CONTINUOUS
10
4.95315
20
-3.27323
11
4.95315
21
-3.17323
0
LINE
8
BLACK
6
CONTINUOUS
10
4.95315
20
-3.17323
11
4.83307
21
-3.17323
0
LINE
8
BLACK
6
CONTINUOUS
10
4.83307
20
-3.17323
11
4.8314
21
-3.17254
0
LINE
8
BLACK
6
CONTINUOUS
10
4.8314
20
-3.17254
11
4.83071
21
-3.17087
0
LINE
8
BLACK
6
CONTINUOUS
10
4.83071
20
-3.17087
11
4.8314
21
-3.1692
0
LINE
8
BLACK
6
CONTINUOUS
10
4.8314
20
-3.1692
11
4.83307
21
-3.1685
0
LINE
8
BLACK
6
CONTINUOUS
10
4.83307
20
-3.1685
11
4.95551
21
-3.1685
0
LINE
8
BLACK
6
CONTINUOUS
10
4.95551
20
-3.1685
11
4.95718
21
-3.1692
0
LINE
8
BLACK
6
CONTINUOUS
10
4.95718
20
-3.1692
11
4.95787
21
-3.17087
0
LINE
8
BLACK
6
CONTINUOUS
10
4.95787
20
-3.17087
11
4.95787
21
-3.27559
0
LINE
8
BLACK
6
CONTINUOUS
10
4.95787
20
-3.27559
11
4.95718
21
-3.27726
0
LINE
8
BLACK
6
CONTINUOUS
10
4.95718
20
-3.27726
11
4.95551
21
-3.27795
0
LINE
8
BLACK
6
CONTINUOUS
10
4.95551
20
-3.27795
11
4.93543
21
-3.27795
0
LINE
8
BLACK
6
CONTINUOUS
10
4.93543
20
-3.27795
11
4.93543
21
-3.33543
0
LINE
8
BLACK
6
CONTINUOUS
10
4.65315
20
-3.27559
11
4.65246
21
-3.27726
0
LINE
8
BLACK
6
CONTINUOUS
10
4.65246
20
-3.27726
11
4.65079
21
-3.27795
0
LINE
8
BLACK
6
CONTINUOUS
10
4.65079
20
-3.27795
11
4.64912
21
-3.27726
0
LINE
8
BLACK
6
CONTINUOUS
10
4.64912
20
-3.27726
11
4.64843
21
-3.27559
0
LINE
8
BLACK
6
CONTINUOUS
10
4.64843
20
-3.27559
11
4.64843
21
-3.17087
0
LINE
8
BLACK
6
CONTINUOUS
10
4.64843
20
-3.17087
11
4.64912
21
-3.1692
0
LINE
8
BLACK
6
CONTINUOUS
10
4.64912
20
-3.1692
11
4.65079
21
-3.1685
0
LINE
8
BLACK
6
CONTINUOUS
10
4.65079
20
-3.1685
11
4.77323
21
-3.1685
0
LINE
8
BLACK
6
CONTINUOUS
10
4.77323
20
-3.1685
11
4.7749
21
-3.1692
0
LINE
8
BLACK
6
CONTINUOUS
10
4.7749
20
-3.1692
11
4.77559
21
-3.17087
0
LINE
8
BLACK
6
CONTINUOUS
10
4.77559
20
-3.17087
11
4.7749
21
-3.17254
0
LINE
8
BLACK
6
CONTINUOUS
10
4.7749
20
-3.17254
11
4.77323
21
-3.17323
0
LINE
8
BLACK
6
CONTINUOUS
10
4.77323
20
-3.17323
11
4.65315
21
-3.17323
0
LINE
8
BLACK
6
CONTINUOUS
10
4.65315
20
-3.17323
11
4.65315
21
-3.27559
0
LINE
8
BLACK
6
CONTINUOUS
10
4.8749
20
-3.27392
11
4.87559
21
-3.27559
0
LINE
8
BLACK
6
CONTINUOUS
10
4.87559
20
-3.27559
11
4.8749
21
-3.27726
0
LINE
8
BLACK
6
CONTINUOUS
10
4.8749
20
-3.27726
11
4.87323
21
-3.27795
0
LINE
8
BLACK
6
CONTINUOUS
10
4.87323
20
-3.27795
11
4.73307
21
-3.27795
0
LINE
8
BLACK
6
CONTINUOUS
10
4.73307
20
-3.27795
11
4.7314
21
-3.27726
0
LINE
8
BLACK
6
CONTINUOUS
10
4.7314
20
-3.27726
11
4.73071
21
-3.27559
0
LINE
8
BLACK
6
CONTINUOUS
10
4.73071
20
-3.27559
11
4.7314
21
-3.27392
0
LINE
8
BLACK
6
CONTINUOUS
10
4.7314
20
-3.27392
11
4.73307
21
-3.27323
0
LINE
8
BLACK
6
CONTINUOUS
10
4.73307
20
-3.27323
11
4.87323
21
-3.27323
0
LINE
8
BLACK
6
CONTINUOUS
10
4.87323
20
-3.27323
11
4.8749
21
-3.27392
0
LINE
8
BLACK
6
CONTINUOUS
10
4.98633
20
-3.22461
11
4.98744
21
-3.22629
0
LINE
8
BLACK
6
CONTINUOUS
10
4.98744
20
-3.22629
11
4.98721
21
-3.2283
0
LINE
8
BLACK
6
CONTINUOUS
10
4.98721
20
-3.2283
11
4.98534
21
-3.23205
0
LINE
8
BLACK
6
CONTINUOUS
10
4.98534
20
-3.23205
11
4.98481
21
-3.23276
0
LINE
8
BLACK
6
CONTINUOUS
10
4.98481
20
-3.23276
11
4.98478
21
-3.23282
0
LINE
8
BLACK
6
CONTINUOUS
10
4.98478
20
-3.23282
11
4.98233
21
-3.23527
0
LINE
8
BLACK
6
CONTINUOUS
10
4.98233
20
-3.23527
11
5.00974
21
-3.23527
0
LINE
8
BLACK
6
CONTINUOUS
10
5.00974
20
-3.23527
11
5.00974
21
-3.22698
0
LINE
8
BLACK
6
CONTINUOUS
10
5.00974
20
-3.22698
11
5.00992
21
-3.22597
0
LINE
8
BLACK
6
CONTINUOUS
10
5.00992
20
-3.22597
11
5.01122
21
-3.22442
0
LINE
8
BLACK
6
CONTINUOUS
10
5.01122
20
-3.22442
11
5.0132
21
-3.22407
0
LINE
8
BLACK
6
CONTINUOUS
10
5.0132
20
-3.22407
11
5.01495
21
-3.22508
0
LINE
8
BLACK
6
CONTINUOUS
10
5.01495
20
-3.22508
11
5.01564
21
-3.22698
0
LINE
8
BLACK
6
CONTINUOUS
10
5.01564
20
-3.22698
11
5.01564
21
-3.24948
0
LINE
8
BLACK
6
CONTINUOUS
10
5.01564
20
-3.24948
11
5.01547
21
-3.25048
0
LINE
8
BLACK
6
CONTINUOUS
10
5.01547
20
-3.25048
11
5.01417
21
-3.25203
0
LINE
8
BLACK
6
CONTINUOUS
10
5.01417
20
-3.25203
11
5.01218
21
-3.25238
0
LINE
8
BLACK
6
CONTINUOUS
10
5.01218
20
-3.25238
11
5.01043
21
-3.25137
0
LINE
8
BLACK
6
CONTINUOUS
10
5.01043
20
-3.25137
11
5.00974
21
-3.24948
0
LINE
8
BLACK
6
CONTINUOUS
10
5.00974
20
-3.24948
11
5.00974
21
-3.24118
0
LINE
8
BLACK
6
CONTINUOUS
10
5.00974
20
-3.24118
11
4.97332
21
-3.24118
0
LINE
8
BLACK
6
CONTINUOUS
10
4.97332
20
-3.24118
11
4.97231
21
-3.241
0
LINE
8
BLACK
6
CONTINUOUS
10
4.97231
20
-3.241
11
4.97218
21
-3.24089
0
LINE
8
BLACK
6
CONTINUOUS
10
4.97218
20
-3.24089
11
4.97201
21
-3.24087
0
LINE
8
BLACK
6
CONTINUOUS
10
4.97201
20
-3.24087
11
4.97142
21
-3.24025
0
LINE
8
BLACK
6
CONTINUOUS
10
4.97142
20
-3.24025
11
4.97076
21
-3.2397
0
LINE
8
BLACK
6
CONTINUOUS
10
4.97076
20
-3.2397
11
4.97074
21
-3.23954
0
LINE
8
BLACK
6
CONTINUOUS
10
4.97074
20
-3.23954
11
4.97062
21
-3.23941
0
LINE
8
BLACK
6
CONTINUOUS
10
4.97062
20
-3.23941
11
4.97056
21
-3.23856
0
LINE
8
BLACK
6
CONTINUOUS
10
4.97056
20
-3.23856
11
4.97041
21
-3.23771
0
LINE
8
BLACK
6
CONTINUOUS
10
4.97041
20
-3.23771
11
4.9705
21
-3.23757
0
LINE
8
BLACK
6
CONTINUOUS
10
4.9705
20
-3.23757
11
4.97049
21
-3.2374
0
LINE
8
BLACK
6
CONTINUOUS
10
4.97049
20
-3.2374
11
4.971
21
-3.23671
0
LINE
8
BLACK
6
CONTINUOUS
10
4.971
20
-3.23671
11
4.97142
21
-3.23596
0
LINE
8
BLACK
6
CONTINUOUS
10
4.97142
20
-3.23596
11
4.97158
21
-3.23591
0
LINE
8
BLACK
6
CONTINUOUS
10
4.97158
20
-3.23591
11
4.97168
21
-3.23577
0
LINE
8
BLACK
6
CONTINUOUS
10
4.97168
20
-3.23577
11
4.97707
21
-3.23218
0
LINE
8
BLACK
6
CONTINUOUS
10
4.97707
20
-3.23218
11
4.98027
21
-3.22898
0
LINE
8
BLACK
6
CONTINUOUS
10
4.98027
20
-3.22898
11
4.98193
21
-3.22566
0
LINE
8
BLACK
6
CONTINUOUS
10
4.98193
20
-3.22566
11
4.98254
21
-3.22483
0
LINE
8
BLACK
6
CONTINUOUS
10
4.98254
20
-3.22483
11
4.98439
21
-3.22403
0
LINE
8
BLACK
6
CONTINUOUS
10
4.98439
20
-3.22403
11
4.98633
21
-3.22461
0
LINE
8
BLACK
6
CONTINUOUS
10
5.01495
20
-3.19321
11
5.01564
21
-3.19511
0
LINE
8
BLACK
6
CONTINUOUS
10
5.01564
20
-3.19511
11
5.01564
21
-3.19886
0
LINE
8
BLACK
6
CONTINUOUS
10
5.01564
20
-3.19886
11
5.01549
21
-3.19973
0
LINE
8
BLACK
6
CONTINUOUS
10
5.01549
20
-3.19973
11
5.01549
21
-3.19979
0
LINE
8
BLACK
6
CONTINUOUS
10
5.01549
20
-3.19979
11
5.01362
21
-3.20541
0
LINE
8
BLACK
6
CONTINUOUS
10
5.01362
20
-3.20541
11
5.01313
21
-3.20632
0
LINE
8
BLACK
6
CONTINUOUS
10
5.01313
20
-3.20632
11
5.01298
21
-3.20641
0
LINE
8
BLACK
6
CONTINUOUS
10
5.01298
20
-3.20641
11
5.01291
21
-3.20657
0
LINE
8
BLACK
6
CONTINUOUS
10
5.01291
20
-3.20657
11
5.00916
21
-3.21032
0
LINE
8
BLACK
6
CONTINUOUS
10
5.00916
20
-3.21032
11
5.00832
21
-3.21091
0
LINE
8
BLACK
6
CONTINUOUS
10
5.00832
20
-3.21091
11
5.00814
21
-3.21092
0
LINE
8
BLACK
6
CONTINUOUS
10
5.00814
20
-3.21092
11
5.008
21
-3.21103
0
LINE
8
BLACK
6
CONTINUOUS
10
5.008
20
-3.21103
11
5.00238
21
-3.21291
0
LINE
8
BLACK
6
CONTINUOUS
10
5.00238
20
-3.21291
11
5.0015
21
-3.21304
0
LINE
8
BLACK
6
CONTINUOUS
10
5.0015
20
-3.21304
11
5.00144
21
-3.21306
0
LINE
8
BLACK
6
CONTINUOUS
10
5.00144
20
-3.21306
11
4.97332
21
-3.21306
0
LINE
8
BLACK
6
CONTINUOUS
10
4.97332
20
-3.21306
11
4.97231
21
-3.21288
0
LINE
8
BLACK
6
CONTINUOUS
10
4.97231
20
-3.21288
11
4.97076
21
-3.21158
0
LINE
8
BLACK
6
CONTINUOUS
10
4.97076
20
-3.21158
11
4.97041
21
-3.20959
0
LINE
8
BLACK
6
CONTINUOUS
10
4.97041
20
-3.20959
11
4.97142
21
-3.20784
0
LINE
8
BLACK
6
CONTINUOUS
10
4.97142
20
-3.20784
11
4.97332
21
-3.20715
0
LINE
8
BLACK
6
CONTINUOUS
10
4.97332
20
-3.20715
11
5.00096
21
-3.20715
0
LINE
8
BLACK
6
CONTINUOUS
10
5.00096
20
-3.20715
11
5.00547
21
-3.20565
0
LINE
8
BLACK
6
CONTINUOUS
10
5.00547
20
-3.20565
11
5.00824
21
-3.20289
0
LINE
8
BLACK
6
CONTINUOUS
10
5.00824
20
-3.20289
11
5.00974
21
-3.19838
0
LINE
8
BLACK
6
CONTINUOUS
10
5.00974
20
-3.19838
11
5.00974
21
-3.19511
0
LINE
8
BLACK
6
CONTINUOUS
10
5.00974
20
-3.19511
11
5.00992
21
-3.1941
0
LINE
8
BLACK
6
CONTINUOUS
10
5.00992
20
-3.1941
11
5.01122
21
-3.19255
0
LINE
8
BLACK
6
CONTINUOUS
10
5.01122
20
-3.19255
11
5.0132
21
-3.1922
0
LINE
8
BLACK
6
CONTINUOUS
10
5.0132
20
-3.1922
11
5.01495
21
-3.19321
  0
ENDSEC
  0
EOF
