  0
SECTION
  2
HEADER
  9
$ANGBASE
  50
0.0
  9
$ANGDIR
  70
1
  9
$MEASUREMENT
  70
0
  0
ENDSEC
  0
SECTION
  2
TABLES
  0
TABLE
  2
LTYPE
  70
4
  0
LTYPE
  5
40F
  2
CONTINUOUS
  70
0
  3
Solid line
  72
65
  73
0
  40
0.0
  0
LTYPE
  5
410
  2
DASHDOT
 70
0
  3
Dash Dot ____ _ ____ _
 72
65
 73
4
 40
2.0
 49
1.25
 49
-0.25
 49
0.25
 49
-0.25
  0
LTYPE
  5
411
  2
DASHED
 70
0
  3
Dashed __ __ __ __ __
 72
65
 73
2
 40
0.75
 49
0.5
 49
-0.25
  0
LTYPE
  5
43B
  2
DOTTED
 70
0
  3
Dotted .  .  .  .
 72
65
 73
2
 40
0.2
 49
0.0
 49
-0.2
  0
ENDTAB
  0
TABLE
  2
STYLE
  70
4
  0
STYLE
  2
KICAD
  70
0
  40
0
  41
1
  42
1
  50
0
  71
0
  3
isocp.shx
  0
STYLE
  2
KICADB
  70
0
  40
0
  41
1
  42
1
  50
0
  71
0
  3
isocp.shx
  0
STYLE
  2
KICADI
  70
0
  40
0
  41
1
  42
1
  50
15
  71
0
  3
isocp.shx
  0
STYLE
  2
KICADBI
  70
0
  40
0
  41
1
  42
1
  50
15
  71
0
  3
isocp.shx
  0
ENDTAB
  0
TABLE
  2
LAYER
  70
1
  0
LAYER
  2
BLACK
  70
0
  62
7
  6
CONTINUOUS
  0
ENDTAB
  0
ENDSEC
  0
SECTION
  2
ENTITIES
0
LINE
8
BLACK
6
CONTINUOUS
10
5.3262
20
-4.46389
11
5.32788
21
-4.46644
0
LINE
8
BLACK
6
CONTINUOUS
10
5.32788
20
-4.46644
11
5.32806
21
-4.46949
0
LINE
8
BLACK
6
CONTINUOUS
10
5.32806
20
-4.46949
11
5.3267
21
-4.47222
0
LINE
8
BLACK
6
CONTINUOUS
10
5.3267
20
-4.47222
11
5.32414
21
-4.47391
0
LINE
8
BLACK
6
CONTINUOUS
10
5.32414
20
-4.47391
11
5.30906
21
-4.47893
0
LINE
8
BLACK
6
CONTINUOUS
10
5.30906
20
-4.47893
11
5.30906
21
-4.50229
0
LINE
8
BLACK
6
CONTINUOUS
10
5.30906
20
-4.50229
11
5.32414
21
-4.50732
0
LINE
8
BLACK
6
CONTINUOUS
10
5.32414
20
-4.50732
11
5.3267
21
-4.509
0
LINE
8
BLACK
6
CONTINUOUS
10
5.3267
20
-4.509
11
5.32806
21
-4.51174
0
LINE
8
BLACK
6
CONTINUOUS
10
5.32806
20
-4.51174
11
5.32788
21
-4.51479
0
LINE
8
BLACK
6
CONTINUOUS
10
5.32788
20
-4.51479
11
5.3262
21
-4.51734
0
LINE
8
BLACK
6
CONTINUOUS
10
5.3262
20
-4.51734
11
5.32346
21
-4.51871
0
LINE
8
BLACK
6
CONTINUOUS
10
5.32346
20
-4.51871
11
5.32041
21
-4.51853
0
LINE
8
BLACK
6
CONTINUOUS
10
5.32041
20
-4.51853
11
5.25348
21
-4.49622
0
LINE
8
BLACK
6
CONTINUOUS
10
5.25348
20
-4.49622
11
5.25249
21
-4.49556
0
LINE
8
BLACK
6
CONTINUOUS
10
5.25249
20
-4.49556
11
5.25143
21
-4.49503
0
LINE
8
BLACK
6
CONTINUOUS
10
5.25143
20
-4.49503
11
5.25123
21
-4.49473
0
LINE
8
BLACK
6
CONTINUOUS
10
5.25123
20
-4.49473
11
5.25093
21
-4.49453
0
LINE
8
BLACK
6
CONTINUOUS
10
5.25093
20
-4.49453
11
5.2504
21
-4.49347
0
LINE
8
BLACK
6
CONTINUOUS
10
5.2504
20
-4.49347
11
5.24975
21
-4.49248
0
LINE
8
BLACK
6
CONTINUOUS
10
5.24975
20
-4.49248
11
5.24972
21
-4.49212
0
LINE
8
BLACK
6
CONTINUOUS
10
5.24972
20
-4.49212
11
5.24956
21
-4.4918
0
LINE
8
BLACK
6
CONTINUOUS
10
5.24956
20
-4.4918
11
5.24963
21
-4.49061
0
LINE
8
BLACK
6
CONTINUOUS
10
5.24963
20
-4.49061
11
5.24956
21
-4.48943
0
LINE
8
BLACK
6
CONTINUOUS
10
5.24956
20
-4.48943
11
5.24972
21
-4.48911
0
LINE
8
BLACK
6
CONTINUOUS
10
5.24972
20
-4.48911
11
5.24975
21
-4.48875
0
LINE
8
BLACK
6
CONTINUOUS
10
5.24975
20
-4.48875
11
5.2504
21
-4.48776
0
LINE
8
BLACK
6
CONTINUOUS
10
5.2504
20
-4.48776
11
5.25093
21
-4.4867
0
LINE
8
BLACK
6
CONTINUOUS
10
5.25093
20
-4.4867
11
5.25123
21
-4.4865
0
LINE
8
BLACK
6
CONTINUOUS
10
5.25123
20
-4.4865
11
5.25143
21
-4.48619
0
LINE
8
BLACK
6
CONTINUOUS
10
5.25143
20
-4.48619
11
5.25249
21
-4.48566
0
LINE
8
BLACK
6
CONTINUOUS
10
5.25249
20
-4.48566
11
5.25348
21
-4.48501
0
LINE
8
BLACK
6
CONTINUOUS
10
5.25348
20
-4.48501
11
5.32041
21
-4.4627
0
LINE
8
BLACK
6
CONTINUOUS
10
5.32041
20
-4.4627
11
5.32346
21
-4.46252
0
LINE
8
BLACK
6
CONTINUOUS
10
5.32346
20
-4.46252
11
5.3262
21
-4.46389
0
LINE
8
BLACK
6
CONTINUOUS
10
5.27402
20
-4.49061
11
5.29725
21
-4.49836
0
LINE
8
BLACK
6
CONTINUOUS
10
5.29725
20
-4.49836
11
5.29725
21
-4.48287
0
LINE
8
BLACK
6
CONTINUOUS
10
5.29725
20
-4.48287
11
5.27402
21
-4.49061
0
LINE
8
BLACK
6
CONTINUOUS
10
5.32523
20
-4.40582
11
5.32739
21
-4.40798
0
LINE
8
BLACK
6
CONTINUOUS
10
5.32739
20
-4.40798
11
5.32818
21
-4.41094
0
LINE
8
BLACK
6
CONTINUOUS
10
5.32818
20
-4.41094
11
5.32818
21
-4.44918
0
LINE
8
BLACK
6
CONTINUOUS
10
5.32818
20
-4.44918
11
5.32739
21
-4.45213
0
LINE
8
BLACK
6
CONTINUOUS
10
5.32739
20
-4.45213
11
5.32523
21
-4.4543
0
LINE
8
BLACK
6
CONTINUOUS
10
5.32523
20
-4.4543
11
5.32228
21
-4.45509
0
LINE
8
BLACK
6
CONTINUOUS
10
5.32228
20
-4.45509
11
5.31932
21
-4.4543
0
LINE
8
BLACK
6
CONTINUOUS
10
5.31932
20
-4.4543
11
5.31716
21
-4.45213
0
LINE
8
BLACK
6
CONTINUOUS
10
5.31716
20
-4.45213
11
5.31637
21
-4.44918
0
LINE
8
BLACK
6
CONTINUOUS
10
5.31637
20
-4.44918
11
5.31637
21
-4.43596
0
LINE
8
BLACK
6
CONTINUOUS
10
5.31637
20
-4.43596
11
5.25535
21
-4.43596
0
LINE
8
BLACK
6
CONTINUOUS
10
5.25535
20
-4.43596
11
5.25405
21
-4.43562
0
LINE
8
BLACK
6
CONTINUOUS
10
5.25405
20
-4.43562
11
5.25273
21
-4.43535
0
LINE
8
BLACK
6
CONTINUOUS
10
5.25273
20
-4.43535
11
5.25258
21
-4.43522
0
LINE
8
BLACK
6
CONTINUOUS
10
5.25258
20
-4.43522
11
5.2524
21
-4.43517
0
LINE
8
BLACK
6
CONTINUOUS
10
5.2524
20
-4.43517
11
5.25144
21
-4.43422
0
LINE
8
BLACK
6
CONTINUOUS
10
5.25144
20
-4.43422
11
5.25043
21
-4.43333
0
LINE
8
BLACK
6
CONTINUOUS
10
5.25043
20
-4.43333
11
5.25037
21
-4.43315
0
LINE
8
BLACK
6
CONTINUOUS
10
5.25037
20
-4.43315
11
5.25023
21
-4.43301
0
LINE
8
BLACK
6
CONTINUOUS
10
5.25023
20
-4.43301
11
5.24989
21
-4.43171
0
LINE
8
BLACK
6
CONTINUOUS
10
5.24989
20
-4.43171
11
5.24946
21
-4.43044
0
LINE
8
BLACK
6
CONTINUOUS
10
5.24946
20
-4.43044
11
5.24949
21
-4.43025
0
LINE
8
BLACK
6
CONTINUOUS
10
5.24949
20
-4.43025
11
5.24944
21
-4.43006
0
LINE
8
BLACK
6
CONTINUOUS
10
5.24944
20
-4.43006
11
5.24979
21
-4.42876
0
LINE
8
BLACK
6
CONTINUOUS
10
5.24979
20
-4.42876
11
5.25005
21
-4.42744
0
LINE
8
BLACK
6
CONTINUOUS
10
5.25005
20
-4.42744
11
5.25018
21
-4.42729
0
LINE
8
BLACK
6
CONTINUOUS
10
5.25018
20
-4.42729
11
5.25023
21
-4.42711
0
LINE
8
BLACK
6
CONTINUOUS
10
5.25023
20
-4.42711
11
5.25118
21
-4.42615
0
LINE
8
BLACK
6
CONTINUOUS
10
5.25118
20
-4.42615
11
5.25207
21
-4.42514
0
LINE
8
BLACK
6
CONTINUOUS
10
5.25207
20
-4.42514
11
5.26115
21
-4.41909
0
LINE
8
BLACK
6
CONTINUOUS
10
5.26115
20
-4.41909
11
5.26643
21
-4.41381
0
LINE
8
BLACK
6
CONTINUOUS
10
5.26643
20
-4.41381
11
5.26919
21
-4.40829
0
LINE
8
BLACK
6
CONTINUOUS
10
5.26919
20
-4.40829
11
5.27122
21
-4.40601
0
LINE
8
BLACK
6
CONTINUOUS
10
5.27122
20
-4.40601
11
5.27412
21
-4.40504
0
LINE
8
BLACK
6
CONTINUOUS
10
5.27412
20
-4.40504
11
5.27711
21
-4.40565
0
LINE
8
BLACK
6
CONTINUOUS
10
5.27711
20
-4.40565
11
5.2794
21
-4.40768
0
LINE
8
BLACK
6
CONTINUOUS
10
5.2794
20
-4.40768
11
5.28037
21
-4.41058
0
LINE
8
BLACK
6
CONTINUOUS
10
5.28037
20
-4.41058
11
5.27975
21
-4.41358
0
LINE
8
BLACK
6
CONTINUOUS
10
5.27975
20
-4.41358
11
5.27657
21
-4.41995
0
LINE
8
BLACK
6
CONTINUOUS
10
5.27657
20
-4.41995
11
5.27594
21
-4.42066
0
LINE
8
BLACK
6
CONTINUOUS
10
5.27594
20
-4.42066
11
5.27546
21
-4.42149
0
LINE
8
BLACK
6
CONTINUOUS
10
5.27546
20
-4.42149
11
5.27279
21
-4.42415
0
LINE
8
BLACK
6
CONTINUOUS
10
5.27279
20
-4.42415
11
5.31637
21
-4.42415
0
LINE
8
BLACK
6
CONTINUOUS
10
5.31637
20
-4.42415
11
5.31637
21
-4.41094
0
LINE
8
BLACK
6
CONTINUOUS
10
5.31637
20
-4.41094
11
5.31716
21
-4.40798
0
LINE
8
BLACK
6
CONTINUOUS
10
5.31716
20
-4.40798
11
5.31932
21
-4.40582
0
LINE
8
BLACK
6
CONTINUOUS
10
5.31932
20
-4.40582
11
5.32228
21
-4.40503
0
LINE
8
BLACK
6
CONTINUOUS
10
5.32228
20
-4.40503
11
5.32523
21
-4.40582
0
LINE
8
BLACK
6
CONTINUOUS
10
5.29748
20
-4.34148
11
5.29821
21
-4.34146
0
LINE
8
BLACK
6
CONTINUOUS
10
5.29821
20
-4.34146
11
5.31096
21
-4.34465
0
LINE
8
BLACK
6
CONTINUOUS
10
5.31096
20
-4.34465
11
5.31153
21
-4.34497
0
LINE
8
BLACK
6
CONTINUOUS
10
5.31153
20
-4.34497
11
5.31217
21
-4.3451
0
LINE
8
BLACK
6
CONTINUOUS
10
5.31217
20
-4.3451
11
5.31854
21
-4.34829
0
LINE
8
BLACK
6
CONTINUOUS
10
5.31854
20
-4.34829
11
5.31926
21
-4.34892
0
LINE
8
BLACK
6
CONTINUOUS
10
5.31926
20
-4.34892
11
5.32008
21
-4.34939
0
LINE
8
BLACK
6
CONTINUOUS
10
5.32008
20
-4.34939
11
5.32327
21
-4.35258
0
LINE
8
BLACK
6
CONTINUOUS
10
5.32327
20
-4.35258
11
5.32374
21
-4.3534
0
LINE
8
BLACK
6
CONTINUOUS
10
5.32374
20
-4.3534
11
5.32437
21
-4.35411
0
LINE
8
BLACK
6
CONTINUOUS
10
5.32437
20
-4.35411
11
5.32756
21
-4.36049
0
LINE
8
BLACK
6
CONTINUOUS
10
5.32756
20
-4.36049
11
5.32783
21
-4.36182
0
LINE
8
BLACK
6
CONTINUOUS
10
5.32783
20
-4.36182
11
5.32818
21
-4.36313
0
LINE
8
BLACK
6
CONTINUOUS
10
5.32818
20
-4.36313
11
5.32818
21
-4.3695
0
LINE
8
BLACK
6
CONTINUOUS
10
5.32818
20
-4.3695
11
5.32783
21
-4.37081
0
LINE
8
BLACK
6
CONTINUOUS
10
5.32783
20
-4.37081
11
5.32756
21
-4.37214
0
LINE
8
BLACK
6
CONTINUOUS
10
5.32756
20
-4.37214
11
5.32437
21
-4.37852
0
LINE
8
BLACK
6
CONTINUOUS
10
5.32437
20
-4.37852
11
5.32374
21
-4.37923
0
LINE
8
BLACK
6
CONTINUOUS
10
5.32374
20
-4.37923
11
5.32327
21
-4.38005
0
LINE
8
BLACK
6
CONTINUOUS
10
5.32327
20
-4.38005
11
5.32008
21
-4.38324
0
LINE
8
BLACK
6
CONTINUOUS
10
5.32008
20
-4.38324
11
5.31926
21
-4.38372
0
LINE
8
BLACK
6
CONTINUOUS
10
5.31926
20
-4.38372
11
5.31854
21
-4.38435
0
LINE
8
BLACK
6
CONTINUOUS
10
5.31854
20
-4.38435
11
5.31217
21
-4.38753
0
LINE
8
BLACK
6
CONTINUOUS
10
5.31217
20
-4.38753
11
5.31153
21
-4.38766
0
LINE
8
BLACK
6
CONTINUOUS
10
5.31153
20
-4.38766
11
5.31096
21
-4.38798
0
LINE
8
BLACK
6
CONTINUOUS
10
5.31096
20
-4.38798
11
5.29821
21
-4.39117
0
LINE
8
BLACK
6
CONTINUOUS
10
5.29821
20
-4.39117
11
5.29748
21
-4.39116
0
LINE
8
BLACK
6
CONTINUOUS
10
5.29748
20
-4.39116
11
5.29678
21
-4.39134
0
LINE
8
BLACK
6
CONTINUOUS
10
5.29678
20
-4.39134
11
5.28085
21
-4.39134
0
LINE
8
BLACK
6
CONTINUOUS
10
5.28085
20
-4.39134
11
5.28014
21
-4.39116
0
LINE
8
BLACK
6
CONTINUOUS
10
5.28014
20
-4.39116
11
5.27941
21
-4.39117
0
LINE
8
BLACK
6
CONTINUOUS
10
5.27941
20
-4.39117
11
5.26666
21
-4.38798
0
LINE
8
BLACK
6
CONTINUOUS
10
5.26666
20
-4.38798
11
5.26609
21
-4.38766
0
LINE
8
BLACK
6
CONTINUOUS
10
5.26609
20
-4.38766
11
5.26546
21
-4.38753
0
LINE
8
BLACK
6
CONTINUOUS
10
5.26546
20
-4.38753
11
5.25908
21
-4.38435
0
LINE
8
BLACK
6
CONTINUOUS
10
5.25908
20
-4.38435
11
5.25837
21
-4.38372
0
LINE
8
BLACK
6
CONTINUOUS
10
5.25837
20
-4.38372
11
5.25755
21
-4.38324
0
LINE
8
BLACK
6
CONTINUOUS
10
5.25755
20
-4.38324
11
5.25436
21
-4.38005
0
LINE
8
BLACK
6
CONTINUOUS
10
5.25436
20
-4.38005
11
5.25388
21
-4.37923
0
LINE
8
BLACK
6
CONTINUOUS
10
5.25388
20
-4.37923
11
5.25325
21
-4.37852
0
LINE
8
BLACK
6
CONTINUOUS
10
5.25325
20
-4.37852
11
5.25007
21
-4.37214
0
LINE
8
BLACK
6
CONTINUOUS
10
5.25007
20
-4.37214
11
5.24979
21
-4.37081
0
LINE
8
BLACK
6
CONTINUOUS
10
5.24979
20
-4.37081
11
5.24944
21
-4.3695
0
LINE
8
BLACK
6
CONTINUOUS
10
5.24944
20
-4.3695
11
5.24944
21
-4.36313
0
LINE
8
BLACK
6
CONTINUOUS
10
5.24944
20
-4.36313
11
5.24979
21
-4.36182
0
LINE
8
BLACK
6
CONTINUOUS
10
5.24979
20
-4.36182
11
5.25007
21
-4.36049
0
LINE
8
BLACK
6
CONTINUOUS
10
5.25007
20
-4.36049
11
5.25325
21
-4.35411
0
LINE
8
BLACK
6
CONTINUOUS
10
5.25325
20
-4.35411
11
5.25388
21
-4.3534
0
LINE
8
BLACK
6
CONTINUOUS
10
5.25388
20
-4.3534
11
5.25436
21
-4.35258
0
LINE
8
BLACK
6
CONTINUOUS
10
5.25436
20
-4.35258
11
5.25755
21
-4.34939
0
LINE
8
BLACK
6
CONTINUOUS
10
5.25755
20
-4.34939
11
5.25837
21
-4.34892
0
LINE
8
BLACK
6
CONTINUOUS
10
5.25837
20
-4.34892
11
5.25908
21
-4.34829
0
LINE
8
BLACK
6
CONTINUOUS
10
5.25908
20
-4.34829
11
5.26546
21
-4.3451
0
LINE
8
BLACK
6
CONTINUOUS
10
5.26546
20
-4.3451
11
5.26609
21
-4.34497
0
LINE
8
BLACK
6
CONTINUOUS
10
5.26609
20
-4.34497
11
5.26666
21
-4.34465
0
LINE
8
BLACK
6
CONTINUOUS
10
5.26666
20
-4.34465
11
5.27941
21
-4.34146
0
LINE
8
BLACK
6
CONTINUOUS
10
5.27941
20
-4.34146
11
5.28014
21
-4.34148
0
LINE
8
BLACK
6
CONTINUOUS
10
5.28014
20
-4.34148
11
5.28085
21
-4.34129
0
LINE
8
BLACK
6
CONTINUOUS
10
5.28085
20
-4.34129
11
5.29678
21
-4.34129
0
LINE
8
BLACK
6
CONTINUOUS
10
5.29678
20
-4.34129
11
5.29748
21
-4.34148
0
LINE
8
BLACK
6
CONTINUOUS
10
5.28157
20
-4.3531
11
5.27016
21
-4.35595
0
LINE
8
BLACK
6
CONTINUOUS
10
5.27016
20
-4.35595
11
5.26522
21
-4.35842
0
LINE
8
BLACK
6
CONTINUOUS
10
5.26522
20
-4.35842
11
5.26339
21
-4.36025
0
LINE
8
BLACK
6
CONTINUOUS
10
5.26339
20
-4.36025
11
5.26125
21
-4.36452
0
LINE
8
BLACK
6
CONTINUOUS
10
5.26125
20
-4.36452
11
5.26125
21
-4.36811
0
LINE
8
BLACK
6
CONTINUOUS
10
5.26125
20
-4.36811
11
5.26339
21
-4.37238
0
LINE
8
BLACK
6
CONTINUOUS
10
5.26339
20
-4.37238
11
5.26522
21
-4.37421
0
LINE
8
BLACK
6
CONTINUOUS
10
5.26522
20
-4.37421
11
5.27016
21
-4.37668
0
LINE
8
BLACK
6
CONTINUOUS
10
5.27016
20
-4.37668
11
5.28157
21
-4.37953
0
LINE
8
BLACK
6
CONTINUOUS
10
5.28157
20
-4.37953
11
5.29605
21
-4.37953
0
LINE
8
BLACK
6
CONTINUOUS
10
5.29605
20
-4.37953
11
5.30747
21
-4.37668
0
LINE
8
BLACK
6
CONTINUOUS
10
5.30747
20
-4.37668
11
5.31241
21
-4.37421
0
LINE
8
BLACK
6
CONTINUOUS
10
5.31241
20
-4.37421
11
5.31424
21
-4.37238
0
LINE
8
BLACK
6
CONTINUOUS
10
5.31424
20
-4.37238
11
5.31637
21
-4.36811
0
LINE
8
BLACK
6
CONTINUOUS
10
5.31637
20
-4.36811
11
5.31637
21
-4.36452
0
LINE
8
BLACK
6
CONTINUOUS
10
5.31637
20
-4.36452
11
5.31424
21
-4.36025
0
LINE
8
BLACK
6
CONTINUOUS
10
5.31424
20
-4.36025
11
5.31241
21
-4.35842
0
LINE
8
BLACK
6
CONTINUOUS
10
5.31241
20
-4.35842
11
5.30747
21
-4.35595
0
LINE
8
BLACK
6
CONTINUOUS
10
5.30747
20
-4.35595
11
5.29605
21
-4.3531
0
LINE
8
BLACK
6
CONTINUOUS
10
5.29605
20
-4.3531
11
5.28157
21
-4.3531
0
LINE
8
BLACK
6
CONTINUOUS
10
5.32523
20
-4.27834
11
5.32739
21
-4.2805
0
LINE
8
BLACK
6
CONTINUOUS
10
5.32739
20
-4.2805
11
5.32818
21
-4.28345
0
LINE
8
BLACK
6
CONTINUOUS
10
5.32818
20
-4.28345
11
5.32739
21
-4.2864
0
LINE
8
BLACK
6
CONTINUOUS
10
5.32739
20
-4.2864
11
5.32523
21
-4.28857
0
LINE
8
BLACK
6
CONTINUOUS
10
5.32523
20
-4.28857
11
5.32228
21
-4.28936
0
LINE
8
BLACK
6
CONTINUOUS
10
5.32228
20
-4.28936
11
5.29631
21
-4.28936
0
LINE
8
BLACK
6
CONTINUOUS
10
5.29631
20
-4.28936
11
5.29631
21
-4.29631
0
LINE
8
BLACK
6
CONTINUOUS
10
5.29631
20
-4.29631
11
5.32566
21
-4.31686
0
LINE
8
BLACK
6
CONTINUOUS
10
5.32566
20
-4.31686
11
5.32763
21
-4.3192
0
LINE
8
BLACK
6
CONTINUOUS
10
5.32763
20
-4.3192
11
5.32816
21
-4.32221
0
LINE
8
BLACK
6
CONTINUOUS
10
5.32816
20
-4.32221
11
5.32712
21
-4.32508
0
LINE
8
BLACK
6
CONTINUOUS
10
5.32712
20
-4.32508
11
5.32477
21
-4.32705
0
LINE
8
BLACK
6
CONTINUOUS
10
5.32477
20
-4.32705
11
5.32176
21
-4.32758
0
LINE
8
BLACK
6
CONTINUOUS
10
5.32176
20
-4.32758
11
5.31889
21
-4.32653
0
LINE
8
BLACK
6
CONTINUOUS
10
5.31889
20
-4.32653
11
5.29592
21
-4.31046
0
LINE
8
BLACK
6
CONTINUOUS
10
5.29592
20
-4.31046
11
5.29569
21
-4.31159
0
LINE
8
BLACK
6
CONTINUOUS
10
5.29569
20
-4.31159
11
5.2925
21
-4.31796
0
LINE
8
BLACK
6
CONTINUOUS
10
5.2925
20
-4.31796
11
5.29187
21
-4.31868
0
LINE
8
BLACK
6
CONTINUOUS
10
5.29187
20
-4.31868
11
5.2914
21
-4.3195
0
LINE
8
BLACK
6
CONTINUOUS
10
5.2914
20
-4.3195
11
5.28821
21
-4.32269
0
LINE
8
BLACK
6
CONTINUOUS
10
5.28821
20
-4.32269
11
5.28738
21
-4.32316
0
LINE
8
BLACK
6
CONTINUOUS
10
5.28738
20
-4.32316
11
5.28667
21
-4.32379
0
LINE
8
BLACK
6
CONTINUOUS
10
5.28667
20
-4.32379
11
5.2803
21
-4.32698
0
LINE
8
BLACK
6
CONTINUOUS
10
5.2803
20
-4.32698
11
5.27897
21
-4.32725
0
LINE
8
BLACK
6
CONTINUOUS
10
5.27897
20
-4.32725
11
5.27766
21
-4.3276
0
LINE
8
BLACK
6
CONTINUOUS
10
5.27766
20
-4.3276
11
5.2681
21
-4.3276
0
LINE
8
BLACK
6
CONTINUOUS
10
5.2681
20
-4.3276
11
5.26679
21
-4.32725
0
LINE
8
BLACK
6
CONTINUOUS
10
5.26679
20
-4.32725
11
5.26546
21
-4.32698
0
LINE
8
BLACK
6
CONTINUOUS
10
5.26546
20
-4.32698
11
5.25908
21
-4.32379
0
LINE
8
BLACK
6
CONTINUOUS
10
5.25908
20
-4.32379
11
5.25837
21
-4.32316
0
LINE
8
BLACK
6
CONTINUOUS
10
5.25837
20
-4.32316
11
5.25755
21
-4.32269
0
LINE
8
BLACK
6
CONTINUOUS
10
5.25755
20
-4.32269
11
5.25436
21
-4.3195
0
LINE
8
BLACK
6
CONTINUOUS
10
5.25436
20
-4.3195
11
5.25388
21
-4.31868
0
LINE
8
BLACK
6
CONTINUOUS
10
5.25388
20
-4.31868
11
5.25325
21
-4.31796
0
LINE
8
BLACK
6
CONTINUOUS
10
5.25325
20
-4.31796
11
5.25007
21
-4.31159
0
LINE
8
BLACK
6
CONTINUOUS
10
5.25007
20
-4.31159
11
5.24979
21
-4.31026
0
LINE
8
BLACK
6
CONTINUOUS
10
5.24979
20
-4.31026
11
5.24944
21
-4.30895
0
LINE
8
BLACK
6
CONTINUOUS
10
5.24944
20
-4.30895
11
5.24944
21
-4.28345
0
LINE
8
BLACK
6
CONTINUOUS
10
5.24944
20
-4.28345
11
5.25023
21
-4.2805
0
LINE
8
BLACK
6
CONTINUOUS
10
5.25023
20
-4.2805
11
5.2524
21
-4.27834
0
LINE
8
BLACK
6
CONTINUOUS
10
5.2524
20
-4.27834
11
5.25535
21
-4.27755
0
LINE
8
BLACK
6
CONTINUOUS
10
5.25535
20
-4.27755
11
5.32228
21
-4.27755
0
LINE
8
BLACK
6
CONTINUOUS
10
5.32228
20
-4.27755
11
5.32523
21
-4.27834
0
LINE
8
BLACK
6
CONTINUOUS
10
5.26125
20
-4.28936
11
5.26125
21
-4.30755
0
LINE
8
BLACK
6
CONTINUOUS
10
5.26125
20
-4.30755
11
5.26339
21
-4.31182
0
LINE
8
BLACK
6
CONTINUOUS
10
5.26339
20
-4.31182
11
5.26522
21
-4.31366
0
LINE
8
BLACK
6
CONTINUOUS
10
5.26522
20
-4.31366
11
5.26949
21
-4.31579
0
LINE
8
BLACK
6
CONTINUOUS
10
5.26949
20
-4.31579
11
5.27626
21
-4.31579
0
LINE
8
BLACK
6
CONTINUOUS
10
5.27626
20
-4.31579
11
5.28053
21
-4.31366
0
LINE
8
BLACK
6
CONTINUOUS
10
5.28053
20
-4.31366
11
5.28237
21
-4.31182
0
LINE
8
BLACK
6
CONTINUOUS
10
5.28237
20
-4.31182
11
5.2845
21
-4.30755
0
LINE
8
BLACK
6
CONTINUOUS
10
5.2845
20
-4.30755
11
5.2845
21
-4.28936
0
LINE
8
BLACK
6
CONTINUOUS
10
5.2845
20
-4.28936
11
5.26125
21
-4.28936
0
LINE
8
BLACK
6
CONTINUOUS
10
5.32523
20
-4.21778
11
5.32739
21
-4.21994
0
LINE
8
BLACK
6
CONTINUOUS
10
5.32739
20
-4.21994
11
5.32818
21
-4.2229
0
LINE
8
BLACK
6
CONTINUOUS
10
5.32818
20
-4.2229
11
5.32818
21
-4.25477
0
LINE
8
BLACK
6
CONTINUOUS
10
5.32818
20
-4.25477
11
5.32739
21
-4.25772
0
LINE
8
BLACK
6
CONTINUOUS
10
5.32739
20
-4.25772
11
5.32523
21
-4.25988
0
LINE
8
BLACK
6
CONTINUOUS
10
5.32523
20
-4.25988
11
5.32228
21
-4.26067
0
LINE
8
BLACK
6
CONTINUOUS
10
5.32228
20
-4.26067
11
5.31932
21
-4.25988
0
LINE
8
BLACK
6
CONTINUOUS
10
5.31932
20
-4.25988
11
5.31716
21
-4.25772
0
LINE
8
BLACK
6
CONTINUOUS
10
5.31716
20
-4.25772
11
5.31637
21
-4.25477
0
LINE
8
BLACK
6
CONTINUOUS
10
5.31637
20
-4.25477
11
5.31637
21
-4.2288
0
LINE
8
BLACK
6
CONTINUOUS
10
5.31637
20
-4.2288
11
5.29312
21
-4.2288
0
LINE
8
BLACK
6
CONTINUOUS
10
5.29312
20
-4.2288
11
5.29312
21
-4.24521
0
LINE
8
BLACK
6
CONTINUOUS
10
5.29312
20
-4.24521
11
5.29233
21
-4.24816
0
LINE
8
BLACK
6
CONTINUOUS
10
5.29233
20
-4.24816
11
5.29017
21
-4.25032
0
LINE
8
BLACK
6
CONTINUOUS
10
5.29017
20
-4.25032
11
5.28722
21
-4.25111
0
LINE
8
BLACK
6
CONTINUOUS
10
5.28722
20
-4.25111
11
5.28427
21
-4.25032
0
LINE
8
BLACK
6
CONTINUOUS
10
5.28427
20
-4.25032
11
5.2821
21
-4.24816
0
LINE
8
BLACK
6
CONTINUOUS
10
5.2821
20
-4.24816
11
5.28131
21
-4.24521
0
LINE
8
BLACK
6
CONTINUOUS
10
5.28131
20
-4.24521
11
5.28131
21
-4.2288
0
LINE
8
BLACK
6
CONTINUOUS
10
5.28131
20
-4.2288
11
5.26125
21
-4.2288
0
LINE
8
BLACK
6
CONTINUOUS
10
5.26125
20
-4.2288
11
5.26125
21
-4.25477
0
LINE
8
BLACK
6
CONTINUOUS
10
5.26125
20
-4.25477
11
5.26046
21
-4.25772
0
LINE
8
BLACK
6
CONTINUOUS
10
5.26046
20
-4.25772
11
5.2583
21
-4.25988
0
LINE
8
BLACK
6
CONTINUOUS
10
5.2583
20
-4.25988
11
5.25535
21
-4.26067
0
LINE
8
BLACK
6
CONTINUOUS
10
5.25535
20
-4.26067
11
5.2524
21
-4.25988
0
LINE
8
BLACK
6
CONTINUOUS
10
5.2524
20
-4.25988
11
5.25023
21
-4.25772
0
LINE
8
BLACK
6
CONTINUOUS
10
5.25023
20
-4.25772
11
5.24944
21
-4.25477
0
LINE
8
BLACK
6
CONTINUOUS
10
5.24944
20
-4.25477
11
5.24944
21
-4.2229
0
LINE
8
BLACK
6
CONTINUOUS
10
5.24944
20
-4.2229
11
5.25023
21
-4.21994
0
LINE
8
BLACK
6
CONTINUOUS
10
5.25023
20
-4.21994
11
5.2524
21
-4.21778
0
LINE
8
BLACK
6
CONTINUOUS
10
5.2524
20
-4.21778
11
5.25535
21
-4.21699
0
LINE
8
BLACK
6
CONTINUOUS
10
5.25535
20
-4.21699
11
5.32228
21
-4.21699
0
LINE
8
BLACK
6
CONTINUOUS
10
5.32228
20
-4.21699
11
5.32523
21
-4.21778
0
LINE
8
BLACK
6
CONTINUOUS
10
5.32523
20
-4.15085
11
5.32739
21
-4.15301
0
LINE
8
BLACK
6
CONTINUOUS
10
5.32739
20
-4.15301
11
5.32818
21
-4.15597
0
LINE
8
BLACK
6
CONTINUOUS
10
5.32818
20
-4.15597
11
5.32818
21
-4.1719
0
LINE
8
BLACK
6
CONTINUOUS
10
5.32818
20
-4.1719
11
5.32794
21
-4.17282
0
LINE
8
BLACK
6
CONTINUOUS
10
5.32794
20
-4.17282
11
5.32788
21
-4.17377
0
LINE
8
BLACK
6
CONTINUOUS
10
5.32788
20
-4.17377
11
5.32469
21
-4.18333
0
LINE
8
BLACK
6
CONTINUOUS
10
5.32469
20
-4.18333
11
5.32394
21
-4.18446
0
LINE
8
BLACK
6
CONTINUOUS
10
5.32394
20
-4.18446
11
5.32327
21
-4.18564
0
LINE
8
BLACK
6
CONTINUOUS
10
5.32327
20
-4.18564
11
5.31689
21
-4.19201
0
LINE
8
BLACK
6
CONTINUOUS
10
5.31689
20
-4.19201
11
5.31607
21
-4.19249
0
LINE
8
BLACK
6
CONTINUOUS
10
5.31607
20
-4.19249
11
5.31536
21
-4.19312
0
LINE
8
BLACK
6
CONTINUOUS
10
5.31536
20
-4.19312
11
5.30898
21
-4.19631
0
LINE
8
BLACK
6
CONTINUOUS
10
5.30898
20
-4.19631
11
5.30834
21
-4.19644
0
LINE
8
BLACK
6
CONTINUOUS
10
5.30834
20
-4.19644
11
5.30777
21
-4.19676
0
LINE
8
BLACK
6
CONTINUOUS
10
5.30777
20
-4.19676
11
5.29503
21
-4.19994
0
LINE
8
BLACK
6
CONTINUOUS
10
5.29503
20
-4.19994
11
5.2943
21
-4.19993
0
LINE
8
BLACK
6
CONTINUOUS
10
5.2943
20
-4.19993
11
5.29359
21
-4.20012
0
LINE
8
BLACK
6
CONTINUOUS
10
5.29359
20
-4.20012
11
5.28403
21
-4.20012
0
LINE
8
BLACK
6
CONTINUOUS
10
5.28403
20
-4.20012
11
5.28333
21
-4.19993
0
LINE
8
BLACK
6
CONTINUOUS
10
5.28333
20
-4.19993
11
5.2826
21
-4.19994
0
LINE
8
BLACK
6
CONTINUOUS
10
5.2826
20
-4.19994
11
5.26985
21
-4.19676
0
LINE
8
BLACK
6
CONTINUOUS
10
5.26985
20
-4.19676
11
5.26928
21
-4.19644
0
LINE
8
BLACK
6
CONTINUOUS
10
5.26928
20
-4.19644
11
5.26864
21
-4.19631
0
LINE
8
BLACK
6
CONTINUOUS
10
5.26864
20
-4.19631
11
5.26227
21
-4.19312
0
LINE
8
BLACK
6
CONTINUOUS
10
5.26227
20
-4.19312
11
5.26156
21
-4.19249
0
LINE
8
BLACK
6
CONTINUOUS
10
5.26156
20
-4.19249
11
5.26073
21
-4.19201
0
LINE
8
BLACK
6
CONTINUOUS
10
5.26073
20
-4.19201
11
5.25436
21
-4.18564
0
LINE
8
BLACK
6
CONTINUOUS
10
5.25436
20
-4.18564
11
5.25368
21
-4.18446
0
LINE
8
BLACK
6
CONTINUOUS
10
5.25368
20
-4.18446
11
5.25293
21
-4.18333
0
LINE
8
BLACK
6
CONTINUOUS
10
5.25293
20
-4.18333
11
5.24975
21
-4.17377
0
LINE
8
BLACK
6
CONTINUOUS
10
5.24975
20
-4.17377
11
5.24969
21
-4.17282
0
LINE
8
BLACK
6
CONTINUOUS
10
5.24969
20
-4.17282
11
5.24944
21
-4.1719
0
LINE
8
BLACK
6
CONTINUOUS
10
5.24944
20
-4.1719
11
5.24944
21
-4.15597
0
LINE
8
BLACK
6
CONTINUOUS
10
5.24944
20
-4.15597
11
5.25023
21
-4.15301
0
LINE
8
BLACK
6
CONTINUOUS
10
5.25023
20
-4.15301
11
5.2524
21
-4.15085
0
LINE
8
BLACK
6
CONTINUOUS
10
5.2524
20
-4.15085
11
5.25535
21
-4.15006
0
LINE
8
BLACK
6
CONTINUOUS
10
5.25535
20
-4.15006
11
5.32228
21
-4.15006
0
LINE
8
BLACK
6
CONTINUOUS
10
5.32228
20
-4.15006
11
5.32523
21
-4.15085
0
LINE
8
BLACK
6
CONTINUOUS
10
5.26125
20
-4.16187
11
5.26125
21
-4.17094
0
LINE
8
BLACK
6
CONTINUOUS
10
5.26125
20
-4.17094
11
5.2637
21
-4.17827
0
LINE
8
BLACK
6
CONTINUOUS
10
5.2637
20
-4.17827
11
5.26841
21
-4.18299
0
LINE
8
BLACK
6
CONTINUOUS
10
5.26841
20
-4.18299
11
5.27335
21
-4.18545
0
LINE
8
BLACK
6
CONTINUOUS
10
5.27335
20
-4.18545
11
5.28476
21
-4.18831
0
LINE
8
BLACK
6
CONTINUOUS
10
5.28476
20
-4.18831
11
5.29287
21
-4.18831
0
LINE
8
BLACK
6
CONTINUOUS
10
5.29287
20
-4.18831
11
5.30428
21
-4.18545
0
LINE
8
BLACK
6
CONTINUOUS
10
5.30428
20
-4.18545
11
5.30922
21
-4.18299
0
LINE
8
BLACK
6
CONTINUOUS
10
5.30922
20
-4.18299
11
5.31393
21
-4.17827
0
LINE
8
BLACK
6
CONTINUOUS
10
5.31393
20
-4.17827
11
5.31637
21
-4.17094
0
LINE
8
BLACK
6
CONTINUOUS
10
5.31637
20
-4.17094
11
5.31637
21
-4.16187
0
LINE
8
BLACK
6
CONTINUOUS
10
5.31637
20
-4.16187
11
5.26125
21
-4.16187
0
LINE
8
BLACK
6
CONTINUOUS
10
5.32523
20
-4.09667
11
5.32739
21
-4.09883
0
LINE
8
BLACK
6
CONTINUOUS
10
5.32739
20
-4.09883
11
5.32818
21
-4.10179
0
LINE
8
BLACK
6
CONTINUOUS
10
5.32818
20
-4.10179
11
5.32818
21
-4.13366
0
LINE
8
BLACK
6
CONTINUOUS
10
5.32818
20
-4.13366
11
5.32739
21
-4.13661
0
LINE
8
BLACK
6
CONTINUOUS
10
5.32739
20
-4.13661
11
5.32523
21
-4.13877
0
LINE
8
BLACK
6
CONTINUOUS
10
5.32523
20
-4.13877
11
5.32228
21
-4.13956
0
LINE
8
BLACK
6
CONTINUOUS
10
5.32228
20
-4.13956
11
5.31932
21
-4.13877
0
LINE
8
BLACK
6
CONTINUOUS
10
5.31932
20
-4.13877
11
5.31716
21
-4.13661
0
LINE
8
BLACK
6
CONTINUOUS
10
5.31716
20
-4.13661
11
5.31637
21
-4.13366
0
LINE
8
BLACK
6
CONTINUOUS
10
5.31637
20
-4.13366
11
5.31637
21
-4.10769
0
LINE
8
BLACK
6
CONTINUOUS
10
5.31637
20
-4.10769
11
5.25535
21
-4.10769
0
LINE
8
BLACK
6
CONTINUOUS
10
5.25535
20
-4.10769
11
5.2524
21
-4.1069
0
LINE
8
BLACK
6
CONTINUOUS
10
5.2524
20
-4.1069
11
5.25023
21
-4.10474
0
LINE
8
BLACK
6
CONTINUOUS
10
5.25023
20
-4.10474
11
5.24944
21
-4.10179
0
LINE
8
BLACK
6
CONTINUOUS
10
5.24944
20
-4.10179
11
5.25023
21
-4.09883
0
LINE
8
BLACK
6
CONTINUOUS
10
5.25023
20
-4.09883
11
5.2524
21
-4.09667
0
LINE
8
BLACK
6
CONTINUOUS
10
5.2524
20
-4.09667
11
5.25535
21
-4.09588
0
LINE
8
BLACK
6
CONTINUOUS
10
5.25535
20
-4.09588
11
5.32228
21
-4.09588
0
LINE
8
BLACK
6
CONTINUOUS
10
5.32228
20
-4.09588
11
5.32523
21
-4.09667
0
LINE
8
BLACK
6
CONTINUOUS
10
5.30067
20
-4.02277
11
5.3014
21
-4.02275
0
LINE
8
BLACK
6
CONTINUOUS
10
5.3014
20
-4.02275
11
5.31415
21
-4.02594
0
LINE
8
BLACK
6
CONTINUOUS
10
5.31415
20
-4.02594
11
5.31419
21
-4.02597
0
LINE
8
BLACK
6
CONTINUOUS
10
5.31419
20
-4.02597
11
5.31424
21
-4.02597
0
LINE
8
BLACK
6
CONTINUOUS
10
5.31424
20
-4.02597
11
5.31553
21
-4.02671
0
LINE
8
BLACK
6
CONTINUOUS
10
5.31553
20
-4.02671
11
5.31682
21
-4.02743
0
LINE
8
BLACK
6
CONTINUOUS
10
5.31682
20
-4.02743
11
5.31685
21
-4.02747
0
LINE
8
BLACK
6
CONTINUOUS
10
5.31685
20
-4.02747
11
5.31689
21
-4.02749
0
LINE
8
BLACK
6
CONTINUOUS
10
5.31689
20
-4.02749
11
5.32327
21
-4.03387
0
LINE
8
BLACK
6
CONTINUOUS
10
5.32327
20
-4.03387
11
5.32374
21
-4.03469
0
LINE
8
BLACK
6
CONTINUOUS
10
5.32374
20
-4.03469
11
5.32437
21
-4.0354
0
LINE
8
BLACK
6
CONTINUOUS
10
5.32437
20
-4.0354
11
5.32756
21
-4.04178
0
LINE
8
BLACK
6
CONTINUOUS
10
5.32756
20
-4.04178
11
5.32783
21
-4.04311
0
LINE
8
BLACK
6
CONTINUOUS
10
5.32783
20
-4.04311
11
5.32818
21
-4.04442
0
LINE
8
BLACK
6
CONTINUOUS
10
5.32818
20
-4.04442
11
5.32818
21
-4.05717
0
LINE
8
BLACK
6
CONTINUOUS
10
5.32818
20
-4.05717
11
5.32783
21
-4.05848
0
LINE
8
BLACK
6
CONTINUOUS
10
5.32783
20
-4.05848
11
5.32756
21
-4.05981
0
LINE
8
BLACK
6
CONTINUOUS
10
5.32756
20
-4.05981
11
5.32437
21
-4.06618
0
LINE
8
BLACK
6
CONTINUOUS
10
5.32437
20
-4.06618
11
5.32374
21
-4.06689
0
LINE
8
BLACK
6
CONTINUOUS
10
5.32374
20
-4.06689
11
5.32327
21
-4.06772
0
LINE
8
BLACK
6
CONTINUOUS
10
5.32327
20
-4.06772
11
5.31689
21
-4.07409
0
LINE
8
BLACK
6
CONTINUOUS
10
5.31689
20
-4.07409
11
5.31685
21
-4.07412
0
LINE
8
BLACK
6
CONTINUOUS
10
5.31685
20
-4.07412
11
5.31682
21
-4.07416
0
LINE
8
BLACK
6
CONTINUOUS
10
5.31682
20
-4.07416
11
5.31553
21
-4.07488
0
LINE
8
BLACK
6
CONTINUOUS
10
5.31553
20
-4.07488
11
5.31424
21
-4.07562
0
LINE
8
BLACK
6
CONTINUOUS
10
5.31424
20
-4.07562
11
5.31419
21
-4.07562
0
LINE
8
BLACK
6
CONTINUOUS
10
5.31419
20
-4.07562
11
5.31415
21
-4.07565
0
LINE
8
BLACK
6
CONTINUOUS
10
5.31415
20
-4.07565
11
5.3014
21
-4.07883
0
LINE
8
BLACK
6
CONTINUOUS
10
5.3014
20
-4.07883
11
5.30067
21
-4.07882
0
LINE
8
BLACK
6
CONTINUOUS
10
5.30067
20
-4.07882
11
5.29997
21
-4.07901
0
LINE
8
BLACK
6
CONTINUOUS
10
5.29997
20
-4.07901
11
5.27766
21
-4.07901
0
LINE
8
BLACK
6
CONTINUOUS
10
5.27766
20
-4.07901
11
5.27695
21
-4.07882
0
LINE
8
BLACK
6
CONTINUOUS
10
5.27695
20
-4.07882
11
5.27623
21
-4.07883
0
LINE
8
BLACK
6
CONTINUOUS
10
5.27623
20
-4.07883
11
5.26348
21
-4.07565
0
LINE
8
BLACK
6
CONTINUOUS
10
5.26348
20
-4.07565
11
5.26343
21
-4.07562
0
LINE
8
BLACK
6
CONTINUOUS
10
5.26343
20
-4.07562
11
5.26338
21
-4.07562
0
LINE
8
BLACK
6
CONTINUOUS
10
5.26338
20
-4.07562
11
5.2621
21
-4.07488
0
LINE
8
BLACK
6
CONTINUOUS
10
5.2621
20
-4.07488
11
5.2608
21
-4.07416
0
LINE
8
BLACK
6
CONTINUOUS
10
5.2608
20
-4.07416
11
5.26078
21
-4.07412
0
LINE
8
BLACK
6
CONTINUOUS
10
5.26078
20
-4.07412
11
5.26073
21
-4.07409
0
LINE
8
BLACK
6
CONTINUOUS
10
5.26073
20
-4.07409
11
5.25436
21
-4.06772
0
LINE
8
BLACK
6
CONTINUOUS
10
5.25436
20
-4.06772
11
5.25388
21
-4.06689
0
LINE
8
BLACK
6
CONTINUOUS
10
5.25388
20
-4.06689
11
5.25325
21
-4.06618
0
LINE
8
BLACK
6
CONTINUOUS
10
5.25325
20
-4.06618
11
5.25007
21
-4.05981
0
LINE
8
BLACK
6
CONTINUOUS
10
5.25007
20
-4.05981
11
5.24979
21
-4.05848
0
LINE
8
BLACK
6
CONTINUOUS
10
5.24979
20
-4.05848
11
5.24944
21
-4.05717
0
LINE
8
BLACK
6
CONTINUOUS
10
5.24944
20
-4.05717
11
5.24944
21
-4.04442
0
LINE
8
BLACK
6
CONTINUOUS
10
5.24944
20
-4.04442
11
5.24979
21
-4.04311
0
LINE
8
BLACK
6
CONTINUOUS
10
5.24979
20
-4.04311
11
5.25007
21
-4.04178
0
LINE
8
BLACK
6
CONTINUOUS
10
5.25007
20
-4.04178
11
5.25325
21
-4.0354
0
LINE
8
BLACK
6
CONTINUOUS
10
5.25325
20
-4.0354
11
5.25388
21
-4.03469
0
LINE
8
BLACK
6
CONTINUOUS
10
5.25388
20
-4.03469
11
5.25436
21
-4.03387
0
LINE
8
BLACK
6
CONTINUOUS
10
5.25436
20
-4.03387
11
5.26073
21
-4.02749
0
LINE
8
BLACK
6
CONTINUOUS
10
5.26073
20
-4.02749
11
5.26078
21
-4.02747
0
LINE
8
BLACK
6
CONTINUOUS
10
5.26078
20
-4.02747
11
5.2608
21
-4.02743
0
LINE
8
BLACK
6
CONTINUOUS
10
5.2608
20
-4.02743
11
5.2621
21
-4.02671
0
LINE
8
BLACK
6
CONTINUOUS
10
5.2621
20
-4.02671
11
5.26338
21
-4.02597
0
LINE
8
BLACK
6
CONTINUOUS
10
5.26338
20
-4.02597
11
5.26343
21
-4.02597
0
LINE
8
BLACK
6
CONTINUOUS
10
5.26343
20
-4.02597
11
5.26348
21
-4.02594
0
LINE
8
BLACK
6
CONTINUOUS
10
5.26348
20
-4.02594
11
5.27623
21
-4.02275
0
LINE
8
BLACK
6
CONTINUOUS
10
5.27623
20
-4.02275
11
5.27695
21
-4.02277
0
LINE
8
BLACK
6
CONTINUOUS
10
5.27695
20
-4.02277
11
5.27766
21
-4.02258
0
LINE
8
BLACK
6
CONTINUOUS
10
5.27766
20
-4.02258
11
5.29997
21
-4.02258
0
LINE
8
BLACK
6
CONTINUOUS
10
5.29997
20
-4.02258
11
5.30067
21
-4.02277
0
LINE
8
BLACK
6
CONTINUOUS
10
5.27839
20
-4.03439
11
5.26793
21
-4.037
0
LINE
8
BLACK
6
CONTINUOUS
10
5.26793
20
-4.037
11
5.26339
21
-4.04154
0
LINE
8
BLACK
6
CONTINUOUS
10
5.26339
20
-4.04154
11
5.26125
21
-4.04581
0
LINE
8
BLACK
6
CONTINUOUS
10
5.26125
20
-4.04581
11
5.26125
21
-4.05577
0
LINE
8
BLACK
6
CONTINUOUS
10
5.26125
20
-4.05577
11
5.26339
21
-4.06004
0
LINE
8
BLACK
6
CONTINUOUS
10
5.26339
20
-4.06004
11
5.26793
21
-4.06458
0
LINE
8
BLACK
6
CONTINUOUS
10
5.26793
20
-4.06458
11
5.27839
21
-4.0672
0
LINE
8
BLACK
6
CONTINUOUS
10
5.27839
20
-4.0672
11
5.29924
21
-4.0672
0
LINE
8
BLACK
6
CONTINUOUS
10
5.29924
20
-4.0672
11
5.3097
21
-4.06458
0
LINE
8
BLACK
6
CONTINUOUS
10
5.3097
20
-4.06458
11
5.31424
21
-4.06004
0
LINE
8
BLACK
6
CONTINUOUS
10
5.31424
20
-4.06004
11
5.31637
21
-4.05577
0
LINE
8
BLACK
6
CONTINUOUS
10
5.31637
20
-4.05577
11
5.31637
21
-4.04581
0
LINE
8
BLACK
6
CONTINUOUS
10
5.31637
20
-4.04581
11
5.31424
21
-4.04154
0
LINE
8
BLACK
6
CONTINUOUS
10
5.31424
20
-4.04154
11
5.3097
21
-4.037
0
LINE
8
BLACK
6
CONTINUOUS
10
5.3097
20
-4.037
11
5.29924
21
-4.03439
0
LINE
8
BLACK
6
CONTINUOUS
10
5.29924
20
-4.03439
11
5.27839
21
-4.03439
0
LINE
8
BLACK
6
CONTINUOUS
10
5.2524
20
-4.00491
11
5.25023
21
-4.00275
0
LINE
8
BLACK
6
CONTINUOUS
10
5.25023
20
-4.00275
11
5.24944
21
-3.9998
0
LINE
8
BLACK
6
CONTINUOUS
10
5.24944
20
-3.9998
11
5.25023
21
-3.99685
0
LINE
8
BLACK
6
CONTINUOUS
10
5.25023
20
-3.99685
11
5.2524
21
-3.99469
0
LINE
8
BLACK
6
CONTINUOUS
10
5.2524
20
-3.99469
11
5.25535
21
-3.99389
0
LINE
8
BLACK
6
CONTINUOUS
10
5.25535
20
-3.99389
11
5.28131
21
-3.99389
0
LINE
8
BLACK
6
CONTINUOUS
10
5.28131
20
-3.99389
11
5.28131
21
-3.96746
0
LINE
8
BLACK
6
CONTINUOUS
10
5.28131
20
-3.96746
11
5.25535
21
-3.96746
0
LINE
8
BLACK
6
CONTINUOUS
10
5.25535
20
-3.96746
11
5.2524
21
-3.96667
0
LINE
8
BLACK
6
CONTINUOUS
10
5.2524
20
-3.96667
11
5.25023
21
-3.96451
0
LINE
8
BLACK
6
CONTINUOUS
10
5.25023
20
-3.96451
11
5.24944
21
-3.96155
0
LINE
8
BLACK
6
CONTINUOUS
10
5.24944
20
-3.96155
11
5.25023
21
-3.9586
0
LINE
8
BLACK
6
CONTINUOUS
10
5.25023
20
-3.9586
11
5.2524
21
-3.95644
0
LINE
8
BLACK
6
CONTINUOUS
10
5.2524
20
-3.95644
11
5.25535
21
-3.95565
0
LINE
8
BLACK
6
CONTINUOUS
10
5.25535
20
-3.95565
11
5.32228
21
-3.95565
0
LINE
8
BLACK
6
CONTINUOUS
10
5.32228
20
-3.95565
11
5.32523
21
-3.95644
0
LINE
8
BLACK
6
CONTINUOUS
10
5.32523
20
-3.95644
11
5.32739
21
-3.9586
0
LINE
8
BLACK
6
CONTINUOUS
10
5.32739
20
-3.9586
11
5.32818
21
-3.96155
0
LINE
8
BLACK
6
CONTINUOUS
10
5.32818
20
-3.96155
11
5.32739
21
-3.96451
0
LINE
8
BLACK
6
CONTINUOUS
10
5.32739
20
-3.96451
11
5.32523
21
-3.96667
0
LINE
8
BLACK
6
CONTINUOUS
10
5.32523
20
-3.96667
11
5.32228
21
-3.96746
0
LINE
8
BLACK
6
CONTINUOUS
10
5.32228
20
-3.96746
11
5.29312
21
-3.96746
0
LINE
8
BLACK
6
CONTINUOUS
10
5.29312
20
-3.96746
11
5.29312
21
-3.99389
0
LINE
8
BLACK
6
CONTINUOUS
10
5.29312
20
-3.99389
11
5.32228
21
-3.99389
0
LINE
8
BLACK
6
CONTINUOUS
10
5.32228
20
-3.99389
11
5.32523
21
-3.99469
0
LINE
8
BLACK
6
CONTINUOUS
10
5.32523
20
-3.99469
11
5.32739
21
-3.99685
0
LINE
8
BLACK
6
CONTINUOUS
10
5.32739
20
-3.99685
11
5.32818
21
-3.9998
0
LINE
8
BLACK
6
CONTINUOUS
10
5.32818
20
-3.9998
11
5.32739
21
-4.00275
0
LINE
8
BLACK
6
CONTINUOUS
10
5.32739
20
-4.00275
11
5.32523
21
-4.00491
0
LINE
8
BLACK
6
CONTINUOUS
10
5.32523
20
-4.00491
11
5.32228
21
-4.00571
0
LINE
8
BLACK
6
CONTINUOUS
10
5.32228
20
-4.00571
11
5.25535
21
-4.00571
0
LINE
8
BLACK
6
CONTINUOUS
10
5.25535
20
-4.00571
11
5.2524
21
-4.00491
0
LINE
8
BLACK
6
CONTINUOUS
10
5.32523
20
-3.88632
11
5.32739
21
-3.88849
0
LINE
8
BLACK
6
CONTINUOUS
10
5.32739
20
-3.88849
11
5.32818
21
-3.89144
0
LINE
8
BLACK
6
CONTINUOUS
10
5.32818
20
-3.89144
11
5.32739
21
-3.89439
0
LINE
8
BLACK
6
CONTINUOUS
10
5.32739
20
-3.89439
11
5.32523
21
-3.89655
0
LINE
8
BLACK
6
CONTINUOUS
10
5.32523
20
-3.89655
11
5.32228
21
-3.89734
0
LINE
8
BLACK
6
CONTINUOUS
10
5.32228
20
-3.89734
11
5.27759
21
-3.89734
0
LINE
8
BLACK
6
CONTINUOUS
10
5.27759
20
-3.89734
11
5.32521
21
-3.92456
0
LINE
8
BLACK
6
CONTINUOUS
10
5.32521
20
-3.92456
11
5.32522
21
-3.92457
0
LINE
8
BLACK
6
CONTINUOUS
10
5.32522
20
-3.92457
11
5.32523
21
-3.92457
0
LINE
8
BLACK
6
CONTINUOUS
10
5.32523
20
-3.92457
11
5.3263
21
-3.92564
0
LINE
8
BLACK
6
CONTINUOUS
10
5.3263
20
-3.92564
11
5.32738
21
-3.92671
0
LINE
8
BLACK
6
CONTINUOUS
10
5.32738
20
-3.92671
11
5.32738
21
-3.92672
0
LINE
8
BLACK
6
CONTINUOUS
10
5.32738
20
-3.92672
11
5.32739
21
-3.92673
0
LINE
8
BLACK
6
CONTINUOUS
10
5.32739
20
-3.92673
11
5.32778
21
-3.92819
0
LINE
8
BLACK
6
CONTINUOUS
10
5.32778
20
-3.92819
11
5.32818
21
-3.92966
0
LINE
8
BLACK
6
CONTINUOUS
10
5.32818
20
-3.92966
11
5.32818
21
-3.92967
0
LINE
8
BLACK
6
CONTINUOUS
10
5.32818
20
-3.92967
11
5.32818
21
-3.92968
0
LINE
8
BLACK
6
CONTINUOUS
10
5.32818
20
-3.92968
11
5.32779
21
-3.93114
0
LINE
8
BLACK
6
CONTINUOUS
10
5.32779
20
-3.93114
11
5.3274
21
-3.93261
0
LINE
8
BLACK
6
CONTINUOUS
10
5.3274
20
-3.93261
11
5.3274
21
-3.93262
0
LINE
8
BLACK
6
CONTINUOUS
10
5.3274
20
-3.93262
11
5.32739
21
-3.93264
0
LINE
8
BLACK
6
CONTINUOUS
10
5.32739
20
-3.93264
11
5.32632
21
-3.93371
0
LINE
8
BLACK
6
CONTINUOUS
10
5.32632
20
-3.93371
11
5.32525
21
-3.93478
0
LINE
8
BLACK
6
CONTINUOUS
10
5.32525
20
-3.93478
11
5.32524
21
-3.93479
0
LINE
8
BLACK
6
CONTINUOUS
10
5.32524
20
-3.93479
11
5.32523
21
-3.9348
0
LINE
8
BLACK
6
CONTINUOUS
10
5.32523
20
-3.9348
11
5.32377
21
-3.93519
0
LINE
8
BLACK
6
CONTINUOUS
10
5.32377
20
-3.93519
11
5.3223
21
-3.93559
0
LINE
8
BLACK
6
CONTINUOUS
10
5.3223
20
-3.93559
11
5.32229
21
-3.93559
0
LINE
8
BLACK
6
CONTINUOUS
10
5.32229
20
-3.93559
11
5.32228
21
-3.93559
0
LINE
8
BLACK
6
CONTINUOUS
10
5.32228
20
-3.93559
11
5.25535
21
-3.93559
0
LINE
8
BLACK
6
CONTINUOUS
10
5.25535
20
-3.93559
11
5.2524
21
-3.9348
0
LINE
8
BLACK
6
CONTINUOUS
10
5.2524
20
-3.9348
11
5.25023
21
-3.93264
0
LINE
8
BLACK
6
CONTINUOUS
10
5.25023
20
-3.93264
11
5.24944
21
-3.92968
0
LINE
8
BLACK
6
CONTINUOUS
10
5.24944
20
-3.92968
11
5.25023
21
-3.92673
0
LINE
8
BLACK
6
CONTINUOUS
10
5.25023
20
-3.92673
11
5.2524
21
-3.92457
0
LINE
8
BLACK
6
CONTINUOUS
10
5.2524
20
-3.92457
11
5.25535
21
-3.92378
0
LINE
8
BLACK
6
CONTINUOUS
10
5.25535
20
-3.92378
11
5.30004
21
-3.92378
0
LINE
8
BLACK
6
CONTINUOUS
10
5.30004
20
-3.92378
11
5.25242
21
-3.89657
0
LINE
8
BLACK
6
CONTINUOUS
10
5.25242
20
-3.89657
11
5.25241
21
-3.89656
0
LINE
8
BLACK
6
CONTINUOUS
10
5.25241
20
-3.89656
11
5.2524
21
-3.89655
0
LINE
8
BLACK
6
CONTINUOUS
10
5.2524
20
-3.89655
11
5.25132
21
-3.89548
0
LINE
8
BLACK
6
CONTINUOUS
10
5.25132
20
-3.89548
11
5.25025
21
-3.89441
0
LINE
8
BLACK
6
CONTINUOUS
10
5.25025
20
-3.89441
11
5.25024
21
-3.8944
0
LINE
8
BLACK
6
CONTINUOUS
10
5.25024
20
-3.8944
11
5.25023
21
-3.89439
0
LINE
8
BLACK
6
CONTINUOUS
10
5.25023
20
-3.89439
11
5.24984
21
-3.89293
0
LINE
8
BLACK
6
CONTINUOUS
10
5.24984
20
-3.89293
11
5.24944
21
-3.89146
0
LINE
8
BLACK
6
CONTINUOUS
10
5.24944
20
-3.89146
11
5.24945
21
-3.89145
0
LINE
8
BLACK
6
CONTINUOUS
10
5.24945
20
-3.89145
11
5.24944
21
-3.89144
0
LINE
8
BLACK
6
CONTINUOUS
10
5.24944
20
-3.89144
11
5.24984
21
-3.88997
0
LINE
8
BLACK
6
CONTINUOUS
10
5.24984
20
-3.88997
11
5.25022
21
-3.88851
0
LINE
8
BLACK
6
CONTINUOUS
10
5.25022
20
-3.88851
11
5.25023
21
-3.8885
0
LINE
8
BLACK
6
CONTINUOUS
10
5.25023
20
-3.8885
11
5.25023
21
-3.88849
0
LINE
8
BLACK
6
CONTINUOUS
10
5.25023
20
-3.88849
11
5.25131
21
-3.88741
0
LINE
8
BLACK
6
CONTINUOUS
10
5.25131
20
-3.88741
11
5.25237
21
-3.88634
0
LINE
8
BLACK
6
CONTINUOUS
10
5.25237
20
-3.88634
11
5.25239
21
-3.88633
0
LINE
8
BLACK
6
CONTINUOUS
10
5.25239
20
-3.88633
11
5.2524
21
-3.88632
0
LINE
8
BLACK
6
CONTINUOUS
10
5.2524
20
-3.88632
11
5.25386
21
-3.88593
0
LINE
8
BLACK
6
CONTINUOUS
10
5.25386
20
-3.88593
11
5.25532
21
-3.88553
0
LINE
8
BLACK
6
CONTINUOUS
10
5.25532
20
-3.88553
11
5.25534
21
-3.88554
0
LINE
8
BLACK
6
CONTINUOUS
10
5.25534
20
-3.88554
11
5.25535
21
-3.88553
0
LINE
8
BLACK
6
CONTINUOUS
10
5.25535
20
-3.88553
11
5.32228
21
-3.88553
0
LINE
8
BLACK
6
CONTINUOUS
10
5.32228
20
-3.88553
11
5.32523
21
-3.88632
0
LINE
8
BLACK
6
CONTINUOUS
10
5.32523
20
-3.85445
11
5.32739
21
-3.85661
0
LINE
8
BLACK
6
CONTINUOUS
10
5.32739
20
-3.85661
11
5.32818
21
-3.85957
0
LINE
8
BLACK
6
CONTINUOUS
10
5.32818
20
-3.85957
11
5.32739
21
-3.86252
0
LINE
8
BLACK
6
CONTINUOUS
10
5.32739
20
-3.86252
11
5.32523
21
-3.86468
0
LINE
8
BLACK
6
CONTINUOUS
10
5.32523
20
-3.86468
11
5.32228
21
-3.86547
0
LINE
8
BLACK
6
CONTINUOUS
10
5.32228
20
-3.86547
11
5.25535
21
-3.86547
0
LINE
8
BLACK
6
CONTINUOUS
10
5.25535
20
-3.86547
11
5.2524
21
-3.86468
0
LINE
8
BLACK
6
CONTINUOUS
10
5.2524
20
-3.86468
11
5.25023
21
-3.86252
0
LINE
8
BLACK
6
CONTINUOUS
10
5.25023
20
-3.86252
11
5.24944
21
-3.85957
0
LINE
8
BLACK
6
CONTINUOUS
10
5.24944
20
-3.85957
11
5.25023
21
-3.85661
0
LINE
8
BLACK
6
CONTINUOUS
10
5.25023
20
-3.85661
11
5.2524
21
-3.85445
0
LINE
8
BLACK
6
CONTINUOUS
10
5.2524
20
-3.85445
11
5.25535
21
-3.85366
0
LINE
8
BLACK
6
CONTINUOUS
10
5.25535
20
-3.85366
11
5.32228
21
-3.85366
0
LINE
8
BLACK
6
CONTINUOUS
10
5.32228
20
-3.85366
11
5.32523
21
-3.85445
0
LINE
8
BLACK
6
CONTINUOUS
10
5.32523
20
-3.78752
11
5.32739
21
-3.78969
0
LINE
8
BLACK
6
CONTINUOUS
10
5.32739
20
-3.78969
11
5.32818
21
-3.79264
0
LINE
8
BLACK
6
CONTINUOUS
10
5.32818
20
-3.79264
11
5.32739
21
-3.79559
0
LINE
8
BLACK
6
CONTINUOUS
10
5.32739
20
-3.79559
11
5.32523
21
-3.79775
0
LINE
8
BLACK
6
CONTINUOUS
10
5.32523
20
-3.79775
11
5.32228
21
-3.79854
0
LINE
8
BLACK
6
CONTINUOUS
10
5.32228
20
-3.79854
11
5.29631
21
-3.79854
0
LINE
8
BLACK
6
CONTINUOUS
10
5.29631
20
-3.79854
11
5.29631
21
-3.81813
0
LINE
8
BLACK
6
CONTINUOUS
10
5.29631
20
-3.81813
11
5.29596
21
-3.81945
0
LINE
8
BLACK
6
CONTINUOUS
10
5.29596
20
-3.81945
11
5.29569
21
-3.82078
0
LINE
8
BLACK
6
CONTINUOUS
10
5.29569
20
-3.82078
11
5.2925
21
-3.82715
0
LINE
8
BLACK
6
CONTINUOUS
10
5.2925
20
-3.82715
11
5.29187
21
-3.82786
0
LINE
8
BLACK
6
CONTINUOUS
10
5.29187
20
-3.82786
11
5.2914
21
-3.82869
0
LINE
8
BLACK
6
CONTINUOUS
10
5.2914
20
-3.82869
11
5.28821
21
-3.83187
0
LINE
8
BLACK
6
CONTINUOUS
10
5.28821
20
-3.83187
11
5.28738
21
-3.83235
0
LINE
8
BLACK
6
CONTINUOUS
10
5.28738
20
-3.83235
11
5.28667
21
-3.83298
0
LINE
8
BLACK
6
CONTINUOUS
10
5.28667
20
-3.83298
11
5.2803
21
-3.83617
0
LINE
8
BLACK
6
CONTINUOUS
10
5.2803
20
-3.83617
11
5.27897
21
-3.83644
0
LINE
8
BLACK
6
CONTINUOUS
10
5.27897
20
-3.83644
11
5.27766
21
-3.83679
0
LINE
8
BLACK
6
CONTINUOUS
10
5.27766
20
-3.83679
11
5.2681
21
-3.83679
0
LINE
8
BLACK
6
CONTINUOUS
10
5.2681
20
-3.83679
11
5.26679
21
-3.83644
0
LINE
8
BLACK
6
CONTINUOUS
10
5.26679
20
-3.83644
11
5.26546
21
-3.83617
0
LINE
8
BLACK
6
CONTINUOUS
10
5.26546
20
-3.83617
11
5.25908
21
-3.83298
0
LINE
8
BLACK
6
CONTINUOUS
10
5.25908
20
-3.83298
11
5.25837
21
-3.83235
0
LINE
8
BLACK
6
CONTINUOUS
10
5.25837
20
-3.83235
11
5.25755
21
-3.83187
0
LINE
8
BLACK
6
CONTINUOUS
10
5.25755
20
-3.83187
11
5.25436
21
-3.82869
0
LINE
8
BLACK
6
CONTINUOUS
10
5.25436
20
-3.82869
11
5.25388
21
-3.82786
0
LINE
8
BLACK
6
CONTINUOUS
10
5.25388
20
-3.82786
11
5.25325
21
-3.82715
0
LINE
8
BLACK
6
CONTINUOUS
10
5.25325
20
-3.82715
11
5.25007
21
-3.82078
0
LINE
8
BLACK
6
CONTINUOUS
10
5.25007
20
-3.82078
11
5.24979
21
-3.81945
0
LINE
8
BLACK
6
CONTINUOUS
10
5.24979
20
-3.81945
11
5.24944
21
-3.81813
0
LINE
8
BLACK
6
CONTINUOUS
10
5.24944
20
-3.81813
11
5.24944
21
-3.79264
0
LINE
8
BLACK
6
CONTINUOUS
10
5.24944
20
-3.79264
11
5.25023
21
-3.78969
0
LINE
8
BLACK
6
CONTINUOUS
10
5.25023
20
-3.78969
11
5.2524
21
-3.78752
0
LINE
8
BLACK
6
CONTINUOUS
10
5.2524
20
-3.78752
11
5.25535
21
-3.78673
0
LINE
8
BLACK
6
CONTINUOUS
10
5.25535
20
-3.78673
11
5.32228
21
-3.78673
0
LINE
8
BLACK
6
CONTINUOUS
10
5.32228
20
-3.78673
11
5.32523
21
-3.78752
0
LINE
8
BLACK
6
CONTINUOUS
10
5.26125
20
-3.79854
11
5.26125
21
-3.81674
0
LINE
8
BLACK
6
CONTINUOUS
10
5.26125
20
-3.81674
11
5.26339
21
-3.82101
0
LINE
8
BLACK
6
CONTINUOUS
10
5.26339
20
-3.82101
11
5.26522
21
-3.82284
0
LINE
8
BLACK
6
CONTINUOUS
10
5.26522
20
-3.82284
11
5.26949
21
-3.82498
0
LINE
8
BLACK
6
CONTINUOUS
10
5.26949
20
-3.82498
11
5.27626
21
-3.82498
0
LINE
8
BLACK
6
CONTINUOUS
10
5.27626
20
-3.82498
11
5.28053
21
-3.82284
0
LINE
8
BLACK
6
CONTINUOUS
10
5.28053
20
-3.82284
11
5.28237
21
-3.82101
0
LINE
8
BLACK
6
CONTINUOUS
10
5.28237
20
-3.82101
11
5.2845
21
-3.81674
0
LINE
8
BLACK
6
CONTINUOUS
10
5.2845
20
-3.81674
11
5.2845
21
-3.79854
0
LINE
8
BLACK
6
CONTINUOUS
10
5.2845
20
-3.79854
11
5.26125
21
-3.79854
0
LINE
8
BLACK
6
CONTINUOUS
10
4.93543
20
-3.33543
11
4.93474
21
-3.3371
0
LINE
8
BLACK
6
CONTINUOUS
10
4.93474
20
-3.3371
11
4.93307
21
-3.3378
0
LINE
8
BLACK
6
CONTINUOUS
10
4.93307
20
-3.3378
11
4.9314
21
-3.3371
0
LINE
8
BLACK
6
CONTINUOUS
10
4.9314
20
-3.3371
11
4.93071
21
-3.33543
0
LINE
8
BLACK
6
CONTINUOUS
10
4.93071
20
-3.33543
11
4.93071
21
-3.27559
0
LINE
8
BLACK
6
CONTINUOUS
10
4.93071
20
-3.27559
11
4.9314
21
-3.27392
0
LINE
8
BLACK
6
CONTINUOUS
10
4.9314
20
-3.27392
11
4.93307
21
-3.27323
0
LINE
8
BLACK
6
CONTINUOUS
10
4.93307
20
-3.27323
11
4.95315
21
-3.27323
0
LINE
8
BLACK
6
CONTINUOUS
10
4.95315
20
-3.27323
11
4.95315
21
-3.17323
0
LINE
8
BLACK
6
CONTINUOUS
10
4.95315
20
-3.17323
11
4.83307
21
-3.17323
0
LINE
8
BLACK
6
CONTINUOUS
10
4.83307
20
-3.17323
11
4.8314
21
-3.17254
0
LINE
8
BLACK
6
CONTINUOUS
10
4.8314
20
-3.17254
11
4.83071
21
-3.17087
0
LINE
8
BLACK
6
CONTINUOUS
10
4.83071
20
-3.17087
11
4.8314
21
-3.1692
0
LINE
8
BLACK
6
CONTINUOUS
10
4.8314
20
-3.1692
11
4.83307
21
-3.1685
0
LINE
8
BLACK
6
CONTINUOUS
10
4.83307
20
-3.1685
11
4.95551
21
-3.1685
0
LINE
8
BLACK
6
CONTINUOUS
10
4.95551
20
-3.1685
11
4.95718
21
-3.1692
0
LINE
8
BLACK
6
CONTINUOUS
10
4.95718
20
-3.1692
11
4.95787
21
-3.17087
0
LINE
8
BLACK
6
CONTINUOUS
10
4.95787
20
-3.17087
11
4.95787
21
-3.27559
0
LINE
8
BLACK
6
CONTINUOUS
10
4.95787
20
-3.27559
11
4.95718
21
-3.27726
0
LINE
8
BLACK
6
CONTINUOUS
10
4.95718
20
-3.27726
11
4.95551
21
-3.27795
0
LINE
8
BLACK
6
CONTINUOUS
10
4.95551
20
-3.27795
11
4.93543
21
-3.27795
0
LINE
8
BLACK
6
CONTINUOUS
10
4.93543
20
-3.27795
11
4.93543
21
-3.33543
0
LINE
8
BLACK
6
CONTINUOUS
10
4.8749
20
-3.27392
11
4.87559
21
-3.27559
0
LINE
8
BLACK
6
CONTINUOUS
10
4.87559
20
-3.27559
11
4.8749
21
-3.27726
0
LINE
8
BLACK
6
CONTINUOUS
10
4.8749
20
-3.27726
11
4.87323
21
-3.27795
0
LINE
8
BLACK
6
CONTINUOUS
10
4.87323
20
-3.27795
11
4.73307
21
-3.27795
0
LINE
8
BLACK
6
CONTINUOUS
10
4.73307
20
-3.27795
11
4.7314
21
-3.27726
0
LINE
8
BLACK
6
CONTINUOUS
10
4.7314
20
-3.27726
11
4.73071
21
-3.27559
0
LINE
8
BLACK
6
CONTINUOUS
10
4.73071
20
-3.27559
11
4.7314
21
-3.27392
0
LINE
8
BLACK
6
CONTINUOUS
10
4.7314
20
-3.27392
11
4.73307
21
-3.27323
0
LINE
8
BLACK
6
CONTINUOUS
10
4.73307
20
-3.27323
11
4.87323
21
-3.27323
0
LINE
8
BLACK
6
CONTINUOUS
10
4.87323
20
-3.27323
11
4.8749
21
-3.27392
0
LINE
8
BLACK
6
CONTINUOUS
10
4.7749
20
-3.1692
11
4.77559
21
-3.17087
0
LINE
8
BLACK
6
CONTINUOUS
10
4.77559
20
-3.17087
11
4.7749
21
-3.17254
0
LINE
8
BLACK
6
CONTINUOUS
10
4.7749
20
-3.17254
11
4.77323
21
-3.17323
0
LINE
8
BLACK
6
CONTINUOUS
10
4.77323
20
-3.17323
11
4.65315
21
-3.17323
0
LINE
8
BLACK
6
CONTINUOUS
10
4.65315
20
-3.17323
11
4.65315
21
-3.27559
0
LINE
8
BLACK
6
CONTINUOUS
10
4.65315
20
-3.27559
11
4.65246
21
-3.27726
0
LINE
8
BLACK
6
CONTINUOUS
10
4.65246
20
-3.27726
11
4.65079
21
-3.27795
0
LINE
8
BLACK
6
CONTINUOUS
10
4.65079
20
-3.27795
11
4.64912
21
-3.27726
0
LINE
8
BLACK
6
CONTINUOUS
10
4.64912
20
-3.27726
11
4.64843
21
-3.27559
0
LINE
8
BLACK
6
CONTINUOUS
10
4.64843
20
-3.27559
11
4.64843
21
-3.17087
0
LINE
8
BLACK
6
CONTINUOUS
10
4.64843
20
-3.17087
11
4.64912
21
-3.1692
0
LINE
8
BLACK
6
CONTINUOUS
10
4.64912
20
-3.1692
11
4.65079
21
-3.1685
0
LINE
8
BLACK
6
CONTINUOUS
10
4.65079
20
-3.1685
11
4.77323
21
-3.1685
0
LINE
8
BLACK
6
CONTINUOUS
10
4.77323
20
-3.1685
11
4.7749
21
-3.1692
0
LINE
8
BLACK
6
CONTINUOUS
10
4.98633
20
-3.22461
11
4.98744
21
-3.22629
0
LINE
8
BLACK
6
CONTINUOUS
10
4.98744
20
-3.22629
11
4.98721
21
-3.2283
0
LINE
8
BLACK
6
CONTINUOUS
10
4.98721
20
-3.2283
11
4.98534
21
-3.23205
0
LINE
8
BLACK
6
CONTINUOUS
10
4.98534
20
-3.23205
11
4.98481
21
-3.23276
0
LINE
8
BLACK
6
CONTINUOUS
10
4.98481
20
-3.23276
11
4.98478
21
-3.23282
0
LINE
8
BLACK
6
CONTINUOUS
10
4.98478
20
-3.23282
11
4.98233
21
-3.23527
0
LINE
8
BLACK
6
CONTINUOUS
10
4.98233
20
-3.23527
11
5.00974
21
-3.23527
0
LINE
8
BLACK
6
CONTINUOUS
10
5.00974
20
-3.23527
11
5.00974
21
-3.22698
0
LINE
8
BLACK
6
CONTINUOUS
10
5.00974
20
-3.22698
11
5.00992
21
-3.22597
0
LINE
8
BLACK
6
CONTINUOUS
10
5.00992
20
-3.22597
11
5.01122
21
-3.22442
0
LINE
8
BLACK
6
CONTINUOUS
10
5.01122
20
-3.22442
11
5.0132
21
-3.22407
0
LINE
8
BLACK
6
CONTINUOUS
10
5.0132
20
-3.22407
11
5.01495
21
-3.22508
0
LINE
8
BLACK
6
CONTINUOUS
10
5.01495
20
-3.22508
11
5.01564
21
-3.22698
0
LINE
8
BLACK
6
CONTINUOUS
10
5.01564
20
-3.22698
11
5.01564
21
-3.24948
0
LINE
8
BLACK
6
CONTINUOUS
10
5.01564
20
-3.24948
11
5.01547
21
-3.25048
0
LINE
8
BLACK
6
CONTINUOUS
10
5.01547
20
-3.25048
11
5.01417
21
-3.25203
0
LINE
8
BLACK
6
CONTINUOUS
10
5.01417
20
-3.25203
11
5.01218
21
-3.25238
0
LINE
8
BLACK
6
CONTINUOUS
10
5.01218
20
-3.25238
11
5.01043
21
-3.25137
0
LINE
8
BLACK
6
CONTINUOUS
10
5.01043
20
-3.25137
11
5.00974
21
-3.24948
0
LINE
8
BLACK
6
CONTINUOUS
10
5.00974
20
-3.24948
11
5.00974
21
-3.24118
0
LINE
8
BLACK
6
CONTINUOUS
10
5.00974
20
-3.24118
11
4.97332
21
-3.24118
0
LINE
8
BLACK
6
CONTINUOUS
10
4.97332
20
-3.24118
11
4.97231
21
-3.241
0
LINE
8
BLACK
6
CONTINUOUS
10
4.97231
20
-3.241
11
4.97218
21
-3.24089
0
LINE
8
BLACK
6
CONTINUOUS
10
4.97218
20
-3.24089
11
4.97201
21
-3.24087
0
LINE
8
BLACK
6
CONTINUOUS
10
4.97201
20
-3.24087
11
4.97142
21
-3.24025
0
LINE
8
BLACK
6
CONTINUOUS
10
4.97142
20
-3.24025
11
4.97076
21
-3.2397
0
LINE
8
BLACK
6
CONTINUOUS
10
4.97076
20
-3.2397
11
4.97074
21
-3.23954
0
LINE
8
BLACK
6
CONTINUOUS
10
4.97074
20
-3.23954
11
4.97062
21
-3.23941
0
LINE
8
BLACK
6
CONTINUOUS
10
4.97062
20
-3.23941
11
4.97056
21
-3.23856
0
LINE
8
BLACK
6
CONTINUOUS
10
4.97056
20
-3.23856
11
4.97041
21
-3.23771
0
LINE
8
BLACK
6
CONTINUOUS
10
4.97041
20
-3.23771
11
4.9705
21
-3.23757
0
LINE
8
BLACK
6
CONTINUOUS
10
4.9705
20
-3.23757
11
4.97049
21
-3.2374
0
LINE
8
BLACK
6
CONTINUOUS
10
4.97049
20
-3.2374
11
4.971
21
-3.23671
0
LINE
8
BLACK
6
CONTINUOUS
10
4.971
20
-3.23671
11
4.97142
21
-3.23596
0
LINE
8
BLACK
6
CONTINUOUS
10
4.97142
20
-3.23596
11
4.97158
21
-3.23591
0
LINE
8
BLACK
6
CONTINUOUS
10
4.97158
20
-3.23591
11
4.97168
21
-3.23577
0
LINE
8
BLACK
6
CONTINUOUS
10
4.97168
20
-3.23577
11
4.97707
21
-3.23218
0
LINE
8
BLACK
6
CONTINUOUS
10
4.97707
20
-3.23218
11
4.98027
21
-3.22898
0
LINE
8
BLACK
6
CONTINUOUS
10
4.98027
20
-3.22898
11
4.98193
21
-3.22566
0
LINE
8
BLACK
6
CONTINUOUS
10
4.98193
20
-3.22566
11
4.98254
21
-3.22483
0
LINE
8
BLACK
6
CONTINUOUS
10
4.98254
20
-3.22483
11
4.98439
21
-3.22403
0
LINE
8
BLACK
6
CONTINUOUS
10
4.98439
20
-3.22403
11
4.98633
21
-3.22461
0
LINE
8
BLACK
6
CONTINUOUS
10
5.01495
20
-3.19321
11
5.01564
21
-3.19511
0
LINE
8
BLACK
6
CONTINUOUS
10
5.01564
20
-3.19511
11
5.01564
21
-3.19886
0
LINE
8
BLACK
6
CONTINUOUS
10
5.01564
20
-3.19886
11
5.01549
21
-3.19973
0
LINE
8
BLACK
6
CONTINUOUS
10
5.01549
20
-3.19973
11
5.01549
21
-3.19979
0
LINE
8
BLACK
6
CONTINUOUS
10
5.01549
20
-3.19979
11
5.01362
21
-3.20541
0
LINE
8
BLACK
6
CONTINUOUS
10
5.01362
20
-3.20541
11
5.01313
21
-3.20632
0
LINE
8
BLACK
6
CONTINUOUS
10
5.01313
20
-3.20632
11
5.01298
21
-3.20641
0
LINE
8
BLACK
6
CONTINUOUS
10
5.01298
20
-3.20641
11
5.01291
21
-3.20657
0
LINE
8
BLACK
6
CONTINUOUS
10
5.01291
20
-3.20657
11
5.00916
21
-3.21032
0
LINE
8
BLACK
6
CONTINUOUS
10
5.00916
20
-3.21032
11
5.00832
21
-3.21091
0
LINE
8
BLACK
6
CONTINUOUS
10
5.00832
20
-3.21091
11
5.00814
21
-3.21092
0
LINE
8
BLACK
6
CONTINUOUS
10
5.00814
20
-3.21092
11
5.008
21
-3.21103
0
LINE
8
BLACK
6
CONTINUOUS
10
5.008
20
-3.21103
11
5.00238
21
-3.21291
0
LINE
8
BLACK
6
CONTINUOUS
10
5.00238
20
-3.21291
11
5.0015
21
-3.21304
0
LINE
8
BLACK
6
CONTINUOUS
10
5.0015
20
-3.21304
11
5.00144
21
-3.21306
0
LINE
8
BLACK
6
CONTINUOUS
10
5.00144
20
-3.21306
11
4.97332
21
-3.21306
0
LINE
8
BLACK
6
CONTINUOUS
10
4.97332
20
-3.21306
11
4.97231
21
-3.21288
0
LINE
8
BLACK
6
CONTINUOUS
10
4.97231
20
-3.21288
11
4.97076
21
-3.21158
0
LINE
8
BLACK
6
CONTINUOUS
10
4.97076
20
-3.21158
11
4.97041
21
-3.20959
0
LINE
8
BLACK
6
CONTINUOUS
10
4.97041
20
-3.20959
11
4.97142
21
-3.20784
0
LINE
8
BLACK
6
CONTINUOUS
10
4.97142
20
-3.20784
11
4.97332
21
-3.20715
0
LINE
8
BLACK
6
CONTINUOUS
10
4.97332
20
-3.20715
11
5.00096
21
-3.20715
0
LINE
8
BLACK
6
CONTINUOUS
10
5.00096
20
-3.20715
11
5.00547
21
-3.20565
0
LINE
8
BLACK
6
CONTINUOUS
10
5.00547
20
-3.20565
11
5.00824
21
-3.20289
0
LINE
8
BLACK
6
CONTINUOUS
10
5.00824
20
-3.20289
11
5.00974
21
-3.19838
0
LINE
8
BLACK
6
CONTINUOUS
10
5.00974
20
-3.19838
11
5.00974
21
-3.19511
0
LINE
8
BLACK
6
CONTINUOUS
10
5.00974
20
-3.19511
11
5.00992
21
-3.1941
0
LINE
8
BLACK
6
CONTINUOUS
10
5.00992
20
-3.1941
11
5.01122
21
-3.19255
0
LINE
8
BLACK
6
CONTINUOUS
10
5.01122
20
-3.19255
11
5.0132
21
-3.1922
0
LINE
8
BLACK
6
CONTINUOUS
10
5.0132
20
-3.1922
11
5.01495
21
-3.19321
  0
ENDSEC
  0
EOF
