  0
SECTION
  2
HEADER
  9
$ANGBASE
  50
0.0
  9
$ANGDIR
  70
1
  9
$MEASUREMENT
  70
0
  0
ENDSEC
  0
SECTION
  2
TABLES
  0
TABLE
  2
LTYPE
  70
4
  0
LTYPE
  5
40F
  2
CONTINUOUS
  70
0
  3
Solid line
  72
65
  73
0
  40
0.0
  0
LTYPE
  5
410
  2
DASHDOT
 70
0
  3
Dash Dot ____ _ ____ _
 72
65
 73
4
 40
2.0
 49
1.25
 49
-0.25
 49
0.25
 49
-0.25
  0
LTYPE
  5
411
  2
DASHED
 70
0
  3
Dashed __ __ __ __ __
 72
65
 73
2
 40
0.75
 49
0.5
 49
-0.25
  0
LTYPE
  5
43B
  2
DOTTED
 70
0
  3
Dotted .  .  .  .
 72
65
 73
2
 40
0.2
 49
0.0
 49
-0.2
  0
ENDTAB
  0
TABLE
  2
STYLE
  70
4
  0
STYLE
  2
KICAD
  70
0
  40
0
  41
1
  42
1
  50
0
  71
0
  3
isocp.shx
  0
STYLE
  2
KICADB
  70
0
  40
0
  41
1
  42
1
  50
0
  71
0
  3
isocp.shx
  0
STYLE
  2
KICADI
  70
0
  40
0
  41
1
  42
1
  50
15
  71
0
  3
isocp.shx
  0
STYLE
  2
KICADBI
  70
0
  40
0
  41
1
  42
1
  50
15
  71
0
  3
isocp.shx
  0
ENDTAB
  0
TABLE
  2
LAYER
  70
1
  0
LAYER
  2
BLACK
  70
0
  62
7
  6
CONTINUOUS
  0
ENDTAB
  0
ENDSEC
  0
SECTION
  2
ENTITIES
0
LINE
8
BLACK
6
CONTINUOUS
10
0.66531
20
-1.49114
11
0.663148
21
-1.48898
0
LINE
8
BLACK
6
CONTINUOUS
10
0.663148
20
-1.48898
11
0.662357
21
-1.48603
0
LINE
8
BLACK
6
CONTINUOUS
10
0.662357
20
-1.48603
11
0.662357
21
-1.46053
0
LINE
8
BLACK
6
CONTINUOUS
10
0.662357
20
-1.46053
11
0.662708
21
-1.45922
0
LINE
8
BLACK
6
CONTINUOUS
10
0.662708
20
-1.45922
11
0.66298
21
-1.45789
0
LINE
8
BLACK
6
CONTINUOUS
10
0.66298
20
-1.45789
11
0.666168
21
-1.45151
0
LINE
8
BLACK
6
CONTINUOUS
10
0.666168
20
-1.45151
11
0.666798
21
-1.4508
0
LINE
8
BLACK
6
CONTINUOUS
10
0.666798
20
-1.4508
11
0.667274
21
-1.44998
0
LINE
8
BLACK
6
CONTINUOUS
10
0.667274
20
-1.44998
11
0.670461
21
-1.44679
0
LINE
8
BLACK
6
CONTINUOUS
10
0.670461
20
-1.44679
11
0.671284
21
-1.44632
0
LINE
8
BLACK
6
CONTINUOUS
10
0.671284
20
-1.44632
11
0.671996
21
-1.44569
0
LINE
8
BLACK
6
CONTINUOUS
10
0.671996
20
-1.44569
11
0.67837
21
-1.4425
0
LINE
8
BLACK
6
CONTINUOUS
10
0.67837
20
-1.4425
11
0.6797
21
-1.44223
0
LINE
8
BLACK
6
CONTINUOUS
10
0.6797
20
-1.44223
11
0.681011
21
-1.44187
0
LINE
8
BLACK
6
CONTINUOUS
10
0.681011
20
-1.44187
11
0.690572
21
-1.44187
0
LINE
8
BLACK
6
CONTINUOUS
10
0.690572
20
-1.44187
11
0.691883
21
-1.44223
0
LINE
8
BLACK
6
CONTINUOUS
10
0.691883
20
-1.44223
11
0.693213
21
-1.4425
0
LINE
8
BLACK
6
CONTINUOUS
10
0.693213
20
-1.4425
11
0.699588
21
-1.44569
0
LINE
8
BLACK
6
CONTINUOUS
10
0.699588
20
-1.44569
11
0.700299
21
-1.44632
0
LINE
8
BLACK
6
CONTINUOUS
10
0.700299
20
-1.44632
11
0.701122
21
-1.44679
0
LINE
8
BLACK
6
CONTINUOUS
10
0.701122
20
-1.44679
11
0.704309
21
-1.44998
0
LINE
8
BLACK
6
CONTINUOUS
10
0.704309
20
-1.44998
11
0.704785
21
-1.4508
0
LINE
8
BLACK
6
CONTINUOUS
10
0.704785
20
-1.4508
11
0.705416
21
-1.45151
0
LINE
8
BLACK
6
CONTINUOUS
10
0.705416
20
-1.45151
11
0.708603
21
-1.45789
0
LINE
8
BLACK
6
CONTINUOUS
10
0.708603
20
-1.45789
11
0.708875
21
-1.45922
0
LINE
8
BLACK
6
CONTINUOUS
10
0.708875
20
-1.45922
11
0.709226
21
-1.46053
0
LINE
8
BLACK
6
CONTINUOUS
10
0.709226
20
-1.46053
11
0.709226
21
-1.48012
0
LINE
8
BLACK
6
CONTINUOUS
10
0.709226
20
-1.48012
11
0.735192
21
-1.48012
0
LINE
8
BLACK
6
CONTINUOUS
10
0.735192
20
-1.48012
11
0.738144
21
-1.48091
0
LINE
8
BLACK
6
CONTINUOUS
10
0.738144
20
-1.48091
11
0.740306
21
-1.48307
0
LINE
8
BLACK
6
CONTINUOUS
10
0.740306
20
-1.48307
11
0.741097
21
-1.48603
0
LINE
8
BLACK
6
CONTINUOUS
10
0.741097
20
-1.48603
11
0.740306
21
-1.48898
0
LINE
8
BLACK
6
CONTINUOUS
10
0.740306
20
-1.48898
11
0.738144
21
-1.49114
0
LINE
8
BLACK
6
CONTINUOUS
10
0.738144
20
-1.49114
11
0.735192
21
-1.49193
0
LINE
8
BLACK
6
CONTINUOUS
10
0.735192
20
-1.49193
11
0.668263
21
-1.49193
0
LINE
8
BLACK
6
CONTINUOUS
10
0.668263
20
-1.49193
11
0.66531
21
-1.49114
0
LINE
8
BLACK
6
CONTINUOUS
10
0.682405
20
-1.45369
11
0.678135
21
-1.45582
0
LINE
8
BLACK
6
CONTINUOUS
10
0.678135
20
-1.45582
11
0.676303
21
-1.45765
0
LINE
8
BLACK
6
CONTINUOUS
10
0.676303
20
-1.45765
11
0.674168
21
-1.46192
0
LINE
8
BLACK
6
CONTINUOUS
10
0.674168
20
-1.46192
11
0.674168
21
-1.48012
0
LINE
8
BLACK
6
CONTINUOUS
10
0.674168
20
-1.48012
11
0.697415
21
-1.48012
0
LINE
8
BLACK
6
CONTINUOUS
10
0.697415
20
-1.48012
11
0.697415
21
-1.46192
0
LINE
8
BLACK
6
CONTINUOUS
10
0.697415
20
-1.46192
11
0.69528
21
-1.45765
0
LINE
8
BLACK
6
CONTINUOUS
10
0.69528
20
-1.45765
11
0.693448
21
-1.45582
0
LINE
8
BLACK
6
CONTINUOUS
10
0.693448
20
-1.45582
11
0.689178
21
-1.45369
0
LINE
8
BLACK
6
CONTINUOUS
10
0.689178
20
-1.45369
11
0.682405
21
-1.45369
0
LINE
8
BLACK
6
CONTINUOUS
10
0.738144
20
-1.41398
11
0.740306
21
-1.41614
0
LINE
8
BLACK
6
CONTINUOUS
10
0.740306
20
-1.41614
11
0.741097
21
-1.4191
0
LINE
8
BLACK
6
CONTINUOUS
10
0.741097
20
-1.4191
11
0.740306
21
-1.42205
0
LINE
8
BLACK
6
CONTINUOUS
10
0.740306
20
-1.42205
11
0.738144
21
-1.42421
0
LINE
8
BLACK
6
CONTINUOUS
10
0.738144
20
-1.42421
11
0.735192
21
-1.425
0
LINE
8
BLACK
6
CONTINUOUS
10
0.735192
20
-1.425
11
0.668263
21
-1.425
0
LINE
8
BLACK
6
CONTINUOUS
10
0.668263
20
-1.425
11
0.66531
21
-1.42421
0
LINE
8
BLACK
6
CONTINUOUS
10
0.66531
20
-1.42421
11
0.663148
21
-1.42205
0
LINE
8
BLACK
6
CONTINUOUS
10
0.663148
20
-1.42205
11
0.662357
21
-1.4191
0
LINE
8
BLACK
6
CONTINUOUS
10
0.662357
20
-1.4191
11
0.663148
21
-1.41614
0
LINE
8
BLACK
6
CONTINUOUS
10
0.663148
20
-1.41614
11
0.66531
21
-1.41398
0
LINE
8
BLACK
6
CONTINUOUS
10
0.66531
20
-1.41398
11
0.668263
21
-1.41319
0
LINE
8
BLACK
6
CONTINUOUS
10
0.668263
20
-1.41319
11
0.735192
21
-1.41319
0
LINE
8
BLACK
6
CONTINUOUS
10
0.735192
20
-1.41319
11
0.738144
21
-1.41398
0
LINE
8
BLACK
6
CONTINUOUS
10
0.735205
20
-1.34308
11
0.735218
21
-1.34307
0
LINE
8
BLACK
6
CONTINUOUS
10
0.735218
20
-1.34307
11
0.736684
21
-1.34347
0
LINE
8
BLACK
6
CONTINUOUS
10
0.736684
20
-1.34347
11
0.738144
21
-1.34387
0
LINE
8
BLACK
6
CONTINUOUS
10
0.738144
20
-1.34387
11
0.738154
21
-1.34388
0
LINE
8
BLACK
6
CONTINUOUS
10
0.738154
20
-1.34388
11
0.738167
21
-1.34388
0
LINE
8
BLACK
6
CONTINUOUS
10
0.738167
20
-1.34388
11
0.739237
21
-1.34496
0
LINE
8
BLACK
6
CONTINUOUS
10
0.739237
20
-1.34496
11
0.740306
21
-1.34603
0
LINE
8
BLACK
6
CONTINUOUS
10
0.740306
20
-1.34603
11
0.740309
21
-1.34604
0
LINE
8
BLACK
6
CONTINUOUS
10
0.740309
20
-1.34604
11
0.740319
21
-1.34605
0
LINE
8
BLACK
6
CONTINUOUS
10
0.740319
20
-1.34605
11
0.740706
21
-1.34752
0
LINE
8
BLACK
6
CONTINUOUS
10
0.740706
20
-1.34752
11
0.741097
21
-1.34898
0
LINE
8
BLACK
6
CONTINUOUS
10
0.741097
20
-1.34898
11
0.741094
21
-1.34899
0
LINE
8
BLACK
6
CONTINUOUS
10
0.741094
20
-1.34899
11
0.741097
21
-1.34901
0
LINE
8
BLACK
6
CONTINUOUS
10
0.741097
20
-1.34901
11
0.740697
21
-1.35047
0
LINE
8
BLACK
6
CONTINUOUS
10
0.740697
20
-1.35047
11
0.740306
21
-1.35193
0
LINE
8
BLACK
6
CONTINUOUS
10
0.740306
20
-1.35193
11
0.740296
21
-1.35194
0
LINE
8
BLACK
6
CONTINUOUS
10
0.740296
20
-1.35194
11
0.740293
21
-1.35196
0
LINE
8
BLACK
6
CONTINUOUS
10
0.740293
20
-1.35196
11
0.739216
21
-1.35302
0
LINE
8
BLACK
6
CONTINUOUS
10
0.739216
20
-1.35302
11
0.738144
21
-1.35409
0
LINE
8
BLACK
6
CONTINUOUS
10
0.738144
20
-1.35409
11
0.738131
21
-1.3541
0
LINE
8
BLACK
6
CONTINUOUS
10
0.738131
20
-1.3541
11
0.738122
21
-1.35411
0
LINE
8
BLACK
6
CONTINUOUS
10
0.738122
20
-1.35411
11
0.6905
21
-1.38132
0
LINE
8
BLACK
6
CONTINUOUS
10
0.6905
20
-1.38132
11
0.735192
21
-1.38132
0
LINE
8
BLACK
6
CONTINUOUS
10
0.735192
20
-1.38132
11
0.738144
21
-1.38211
0
LINE
8
BLACK
6
CONTINUOUS
10
0.738144
20
-1.38211
11
0.740306
21
-1.38427
0
LINE
8
BLACK
6
CONTINUOUS
10
0.740306
20
-1.38427
11
0.741097
21
-1.38723
0
LINE
8
BLACK
6
CONTINUOUS
10
0.741097
20
-1.38723
11
0.740306
21
-1.39018
0
LINE
8
BLACK
6
CONTINUOUS
10
0.740306
20
-1.39018
11
0.738144
21
-1.39234
0
LINE
8
BLACK
6
CONTINUOUS
10
0.738144
20
-1.39234
11
0.735192
21
-1.39313
0
LINE
8
BLACK
6
CONTINUOUS
10
0.735192
20
-1.39313
11
0.668263
21
-1.39313
0
LINE
8
BLACK
6
CONTINUOUS
10
0.668263
20
-1.39313
11
0.668249
21
-1.39313
0
LINE
8
BLACK
6
CONTINUOUS
10
0.668249
20
-1.39313
11
0.668236
21
-1.39313
0
LINE
8
BLACK
6
CONTINUOUS
10
0.668236
20
-1.39313
11
0.66677
21
-1.39273
0
LINE
8
BLACK
6
CONTINUOUS
10
0.66677
20
-1.39273
11
0.66531
21
-1.39234
0
LINE
8
BLACK
6
CONTINUOUS
10
0.66531
20
-1.39234
11
0.6653
21
-1.39233
0
LINE
8
BLACK
6
CONTINUOUS
10
0.6653
20
-1.39233
11
0.665287
21
-1.39233
0
LINE
8
BLACK
6
CONTINUOUS
10
0.665287
20
-1.39233
11
0.66422
21
-1.39125
0
LINE
8
BLACK
6
CONTINUOUS
10
0.66422
20
-1.39125
11
0.663148
21
-1.39018
0
LINE
8
BLACK
6
CONTINUOUS
10
0.663148
20
-1.39018
11
0.663145
21
-1.39016
0
LINE
8
BLACK
6
CONTINUOUS
10
0.663145
20
-1.39016
11
0.663135
21
-1.39016
0
LINE
8
BLACK
6
CONTINUOUS
10
0.663135
20
-1.39016
11
0.662749
21
-1.38869
0
LINE
8
BLACK
6
CONTINUOUS
10
0.662749
20
-1.38869
11
0.662357
21
-1.38723
0
LINE
8
BLACK
6
CONTINUOUS
10
0.662357
20
-1.38723
11
0.662361
21
-1.38721
0
LINE
8
BLACK
6
CONTINUOUS
10
0.662361
20
-1.38721
11
0.662357
21
-1.3872
0
LINE
8
BLACK
6
CONTINUOUS
10
0.662357
20
-1.3872
11
0.662757
21
-1.38573
0
LINE
8
BLACK
6
CONTINUOUS
10
0.662757
20
-1.38573
11
0.663148
21
-1.38427
0
LINE
8
BLACK
6
CONTINUOUS
10
0.663148
20
-1.38427
11
0.663158
21
-1.38426
0
LINE
8
BLACK
6
CONTINUOUS
10
0.663158
20
-1.38426
11
0.663161
21
-1.38425
0
LINE
8
BLACK
6
CONTINUOUS
10
0.663161
20
-1.38425
11
0.664238
21
-1.38318
0
LINE
8
BLACK
6
CONTINUOUS
10
0.664238
20
-1.38318
11
0.66531
21
-1.38211
0
LINE
8
BLACK
6
CONTINUOUS
10
0.66531
20
-1.38211
11
0.665323
21
-1.38211
0
LINE
8
BLACK
6
CONTINUOUS
10
0.665323
20
-1.38211
11
0.665333
21
-1.3821
0
LINE
8
BLACK
6
CONTINUOUS
10
0.665333
20
-1.3821
11
0.712954
21
-1.35489
0
LINE
8
BLACK
6
CONTINUOUS
10
0.712954
20
-1.35489
11
0.668263
21
-1.35489
0
LINE
8
BLACK
6
CONTINUOUS
10
0.668263
20
-1.35489
11
0.66531
21
-1.35409
0
LINE
8
BLACK
6
CONTINUOUS
10
0.66531
20
-1.35409
11
0.663148
21
-1.35193
0
LINE
8
BLACK
6
CONTINUOUS
10
0.663148
20
-1.35193
11
0.662357
21
-1.34898
0
LINE
8
BLACK
6
CONTINUOUS
10
0.662357
20
-1.34898
11
0.663148
21
-1.34603
0
LINE
8
BLACK
6
CONTINUOUS
10
0.663148
20
-1.34603
11
0.66531
21
-1.34387
0
LINE
8
BLACK
6
CONTINUOUS
10
0.66531
20
-1.34387
11
0.668263
21
-1.34307
0
LINE
8
BLACK
6
CONTINUOUS
10
0.668263
20
-1.34307
11
0.735192
21
-1.34307
0
LINE
8
BLACK
6
CONTINUOUS
10
0.735192
20
-1.34307
11
0.735205
21
-1.34308
0
LINE
8
BLACK
6
CONTINUOUS
10
0.66531
20
-1.32222
11
0.663148
21
-1.32006
0
LINE
8
BLACK
6
CONTINUOUS
10
0.663148
20
-1.32006
11
0.662357
21
-1.31711
0
LINE
8
BLACK
6
CONTINUOUS
10
0.662357
20
-1.31711
11
0.663148
21
-1.31416
0
LINE
8
BLACK
6
CONTINUOUS
10
0.663148
20
-1.31416
11
0.66531
21
-1.31199
0
LINE
8
BLACK
6
CONTINUOUS
10
0.66531
20
-1.31199
11
0.668263
21
-1.3112
0
LINE
8
BLACK
6
CONTINUOUS
10
0.668263
20
-1.3112
11
0.694228
21
-1.3112
0
LINE
8
BLACK
6
CONTINUOUS
10
0.694228
20
-1.3112
11
0.694228
21
-1.28477
0
LINE
8
BLACK
6
CONTINUOUS
10
0.694228
20
-1.28477
11
0.668263
21
-1.28477
0
LINE
8
BLACK
6
CONTINUOUS
10
0.668263
20
-1.28477
11
0.66531
21
-1.28398
0
LINE
8
BLACK
6
CONTINUOUS
10
0.66531
20
-1.28398
11
0.663148
21
-1.28182
0
LINE
8
BLACK
6
CONTINUOUS
10
0.663148
20
-1.28182
11
0.662357
21
-1.27886
0
LINE
8
BLACK
6
CONTINUOUS
10
0.662357
20
-1.27886
11
0.663148
21
-1.27591
0
LINE
8
BLACK
6
CONTINUOUS
10
0.663148
20
-1.27591
11
0.66531
21
-1.27375
0
LINE
8
BLACK
6
CONTINUOUS
10
0.66531
20
-1.27375
11
0.668263
21
-1.27296
0
LINE
8
BLACK
6
CONTINUOUS
10
0.668263
20
-1.27296
11
0.735192
21
-1.27296
0
LINE
8
BLACK
6
CONTINUOUS
10
0.735192
20
-1.27296
11
0.738144
21
-1.27375
0
LINE
8
BLACK
6
CONTINUOUS
10
0.738144
20
-1.27375
11
0.740306
21
-1.27591
0
LINE
8
BLACK
6
CONTINUOUS
10
0.740306
20
-1.27591
11
0.741097
21
-1.27886
0
LINE
8
BLACK
6
CONTINUOUS
10
0.741097
20
-1.27886
11
0.740306
21
-1.28182
0
LINE
8
BLACK
6
CONTINUOUS
10
0.740306
20
-1.28182
11
0.738144
21
-1.28398
0
LINE
8
BLACK
6
CONTINUOUS
10
0.738144
20
-1.28398
11
0.735192
21
-1.28477
0
LINE
8
BLACK
6
CONTINUOUS
10
0.735192
20
-1.28477
11
0.706039
21
-1.28477
0
LINE
8
BLACK
6
CONTINUOUS
10
0.706039
20
-1.28477
11
0.706039
21
-1.3112
0
LINE
8
BLACK
6
CONTINUOUS
10
0.706039
20
-1.3112
11
0.735192
21
-1.3112
0
LINE
8
BLACK
6
CONTINUOUS
10
0.735192
20
-1.3112
11
0.738144
21
-1.31199
0
LINE
8
BLACK
6
CONTINUOUS
10
0.738144
20
-1.31199
11
0.740306
21
-1.31416
0
LINE
8
BLACK
6
CONTINUOUS
10
0.740306
20
-1.31416
11
0.741097
21
-1.31711
0
LINE
8
BLACK
6
CONTINUOUS
10
0.741097
20
-1.31711
11
0.740306
21
-1.32006
0
LINE
8
BLACK
6
CONTINUOUS
10
0.740306
20
-1.32006
11
0.738144
21
-1.32222
0
LINE
8
BLACK
6
CONTINUOUS
10
0.738144
20
-1.32222
11
0.735192
21
-1.32301
0
LINE
8
BLACK
6
CONTINUOUS
10
0.735192
20
-1.32301
11
0.668263
21
-1.32301
0
LINE
8
BLACK
6
CONTINUOUS
10
0.668263
20
-1.32301
11
0.66531
21
-1.32222
0
LINE
8
BLACK
6
CONTINUOUS
10
0.713586
20
-1.19984
11
0.714314
21
-1.19983
0
LINE
8
BLACK
6
CONTINUOUS
10
0.714314
20
-1.19983
11
0.727063
21
-1.20302
0
LINE
8
BLACK
6
CONTINUOUS
10
0.727063
20
-1.20302
11
0.727107
21
-1.20304
0
LINE
8
BLACK
6
CONTINUOUS
10
0.727107
20
-1.20304
11
0.727159
21
-1.20304
0
LINE
8
BLACK
6
CONTINUOUS
10
0.727159
20
-1.20304
11
0.728441
21
-1.20378
0
LINE
8
BLACK
6
CONTINUOUS
10
0.728441
20
-1.20378
11
0.729735
21
-1.2045
0
LINE
8
BLACK
6
CONTINUOUS
10
0.729735
20
-1.2045
11
0.729762
21
-1.20455
0
LINE
8
BLACK
6
CONTINUOUS
10
0.729762
20
-1.20455
11
0.729806
21
-1.20457
0
LINE
8
BLACK
6
CONTINUOUS
10
0.729806
20
-1.20457
11
0.73618
21
-1.21095
0
LINE
8
BLACK
6
CONTINUOUS
10
0.73618
20
-1.21095
11
0.736656
21
-1.21177
0
LINE
8
BLACK
6
CONTINUOUS
10
0.736656
20
-1.21177
11
0.737287
21
-1.21248
0
LINE
8
BLACK
6
CONTINUOUS
10
0.737287
20
-1.21248
11
0.740474
21
-1.21885
0
LINE
8
BLACK
6
CONTINUOUS
10
0.740474
20
-1.21885
11
0.740746
21
-1.22018
0
LINE
8
BLACK
6
CONTINUOUS
10
0.740746
20
-1.22018
11
0.741097
21
-1.2215
0
LINE
8
BLACK
6
CONTINUOUS
10
0.741097
20
-1.2215
11
0.741097
21
-1.23424
0
LINE
8
BLACK
6
CONTINUOUS
10
0.741097
20
-1.23424
11
0.740746
21
-1.23556
0
LINE
8
BLACK
6
CONTINUOUS
10
0.740746
20
-1.23556
11
0.740474
21
-1.23689
0
LINE
8
BLACK
6
CONTINUOUS
10
0.740474
20
-1.23689
11
0.737287
21
-1.24326
0
LINE
8
BLACK
6
CONTINUOUS
10
0.737287
20
-1.24326
11
0.736656
21
-1.24397
0
LINE
8
BLACK
6
CONTINUOUS
10
0.736656
20
-1.24397
11
0.73618
21
-1.24479
0
LINE
8
BLACK
6
CONTINUOUS
10
0.73618
20
-1.24479
11
0.729806
21
-1.25117
0
LINE
8
BLACK
6
CONTINUOUS
10
0.729806
20
-1.25117
11
0.729762
21
-1.25119
0
LINE
8
BLACK
6
CONTINUOUS
10
0.729762
20
-1.25119
11
0.729735
21
-1.25124
0
LINE
8
BLACK
6
CONTINUOUS
10
0.729735
20
-1.25124
11
0.728441
21
-1.25196
0
LINE
8
BLACK
6
CONTINUOUS
10
0.728441
20
-1.25196
11
0.727159
21
-1.2527
0
LINE
8
BLACK
6
CONTINUOUS
10
0.727159
20
-1.2527
11
0.727107
21
-1.2527
0
LINE
8
BLACK
6
CONTINUOUS
10
0.727107
20
-1.2527
11
0.727063
21
-1.25272
0
LINE
8
BLACK
6
CONTINUOUS
10
0.727063
20
-1.25272
11
0.714314
21
-1.25591
0
LINE
8
BLACK
6
CONTINUOUS
10
0.714314
20
-1.25591
11
0.713586
21
-1.2559
0
LINE
8
BLACK
6
CONTINUOUS
10
0.713586
20
-1.2559
11
0.712882
21
-1.25609
0
LINE
8
BLACK
6
CONTINUOUS
10
0.712882
20
-1.25609
11
0.690572
21
-1.25609
0
LINE
8
BLACK
6
CONTINUOUS
10
0.690572
20
-1.25609
11
0.689868
21
-1.2559
0
LINE
8
BLACK
6
CONTINUOUS
10
0.689868
20
-1.2559
11
0.68914
21
-1.25591
0
LINE
8
BLACK
6
CONTINUOUS
10
0.68914
20
-1.25591
11
0.676391
21
-1.25272
0
LINE
8
BLACK
6
CONTINUOUS
10
0.676391
20
-1.25272
11
0.676347
21
-1.2527
0
LINE
8
BLACK
6
CONTINUOUS
10
0.676347
20
-1.2527
11
0.676295
21
-1.2527
0
LINE
8
BLACK
6
CONTINUOUS
10
0.676295
20
-1.2527
11
0.675013
21
-1.25196
0
LINE
8
BLACK
6
CONTINUOUS
10
0.675013
20
-1.25196
11
0.673719
21
-1.25124
0
LINE
8
BLACK
6
CONTINUOUS
10
0.673719
20
-1.25124
11
0.673692
21
-1.25119
0
LINE
8
BLACK
6
CONTINUOUS
10
0.673692
20
-1.25119
11
0.673648
21
-1.25117
0
LINE
8
BLACK
6
CONTINUOUS
10
0.673648
20
-1.25117
11
0.667274
21
-1.24479
0
LINE
8
BLACK
6
CONTINUOUS
10
0.667274
20
-1.24479
11
0.666798
21
-1.24397
0
LINE
8
BLACK
6
CONTINUOUS
10
0.666798
20
-1.24397
11
0.666168
21
-1.24326
0
LINE
8
BLACK
6
CONTINUOUS
10
0.666168
20
-1.24326
11
0.66298
21
-1.23689
0
LINE
8
BLACK
6
CONTINUOUS
10
0.66298
20
-1.23689
11
0.662708
21
-1.23556
0
LINE
8
BLACK
6
CONTINUOUS
10
0.662708
20
-1.23556
11
0.662357
21
-1.23424
0
LINE
8
BLACK
6
CONTINUOUS
10
0.662357
20
-1.23424
11
0.662357
21
-1.2215
0
LINE
8
BLACK
6
CONTINUOUS
10
0.662357
20
-1.2215
11
0.662708
21
-1.22018
0
LINE
8
BLACK
6
CONTINUOUS
10
0.662708
20
-1.22018
11
0.66298
21
-1.21885
0
LINE
8
BLACK
6
CONTINUOUS
10
0.66298
20
-1.21885
11
0.666168
21
-1.21248
0
LINE
8
BLACK
6
CONTINUOUS
10
0.666168
20
-1.21248
11
0.666798
21
-1.21177
0
LINE
8
BLACK
6
CONTINUOUS
10
0.666798
20
-1.21177
11
0.667274
21
-1.21095
0
LINE
8
BLACK
6
CONTINUOUS
10
0.667274
20
-1.21095
11
0.673648
21
-1.20457
0
LINE
8
BLACK
6
CONTINUOUS
10
0.673648
20
-1.20457
11
0.673692
21
-1.20455
0
LINE
8
BLACK
6
CONTINUOUS
10
0.673692
20
-1.20455
11
0.673719
21
-1.2045
0
LINE
8
BLACK
6
CONTINUOUS
10
0.673719
20
-1.2045
11
0.675013
21
-1.20378
0
LINE
8
BLACK
6
CONTINUOUS
10
0.675013
20
-1.20378
11
0.676295
21
-1.20304
0
LINE
8
BLACK
6
CONTINUOUS
10
0.676295
20
-1.20304
11
0.676347
21
-1.20304
0
LINE
8
BLACK
6
CONTINUOUS
10
0.676347
20
-1.20304
11
0.676391
21
-1.20302
0
LINE
8
BLACK
6
CONTINUOUS
10
0.676391
20
-1.20302
11
0.68914
21
-1.19983
0
LINE
8
BLACK
6
CONTINUOUS
10
0.68914
20
-1.19983
11
0.689868
21
-1.19984
0
LINE
8
BLACK
6
CONTINUOUS
10
0.689868
20
-1.19984
11
0.690572
21
-1.19965
0
LINE
8
BLACK
6
CONTINUOUS
10
0.690572
20
-1.19965
11
0.712882
21
-1.19965
0
LINE
8
BLACK
6
CONTINUOUS
10
0.712882
20
-1.19965
11
0.713586
21
-1.19984
0
LINE
8
BLACK
6
CONTINUOUS
10
0.691299
20
-1.21147
11
0.680843
21
-1.21408
0
LINE
8
BLACK
6
CONTINUOUS
10
0.680843
20
-1.21408
11
0.676303
21
-1.21862
0
LINE
8
BLACK
6
CONTINUOUS
10
0.676303
20
-1.21862
11
0.674168
21
-1.22289
0
LINE
8
BLACK
6
CONTINUOUS
10
0.674168
20
-1.22289
11
0.674168
21
-1.23285
0
LINE
8
BLACK
6
CONTINUOUS
10
0.674168
20
-1.23285
11
0.676303
21
-1.23712
0
LINE
8
BLACK
6
CONTINUOUS
10
0.676303
20
-1.23712
11
0.680843
21
-1.24166
0
LINE
8
BLACK
6
CONTINUOUS
10
0.680843
20
-1.24166
11
0.691299
21
-1.24427
0
LINE
8
BLACK
6
CONTINUOUS
10
0.691299
20
-1.24427
11
0.712155
21
-1.24427
0
LINE
8
BLACK
6
CONTINUOUS
10
0.712155
20
-1.24427
11
0.722611
21
-1.24166
0
LINE
8
BLACK
6
CONTINUOUS
10
0.722611
20
-1.24166
11
0.727151
21
-1.23712
0
LINE
8
BLACK
6
CONTINUOUS
10
0.727151
20
-1.23712
11
0.729286
21
-1.23285
0
LINE
8
BLACK
6
CONTINUOUS
10
0.729286
20
-1.23285
11
0.729286
21
-1.22289
0
LINE
8
BLACK
6
CONTINUOUS
10
0.729286
20
-1.22289
11
0.727151
21
-1.21862
0
LINE
8
BLACK
6
CONTINUOUS
10
0.727151
20
-1.21862
11
0.722611
21
-1.21408
0
LINE
8
BLACK
6
CONTINUOUS
10
0.722611
20
-1.21408
11
0.712155
21
-1.21147
0
LINE
8
BLACK
6
CONTINUOUS
10
0.712155
20
-1.21147
11
0.691299
21
-1.21147
0
LINE
8
BLACK
6
CONTINUOUS
10
0.66531
20
-1.18199
11
0.663148
21
-1.17983
0
LINE
8
BLACK
6
CONTINUOUS
10
0.663148
20
-1.17983
11
0.662357
21
-1.17688
0
LINE
8
BLACK
6
CONTINUOUS
10
0.662357
20
-1.17688
11
0.663148
21
-1.17392
0
LINE
8
BLACK
6
CONTINUOUS
10
0.663148
20
-1.17392
11
0.66531
21
-1.17176
0
LINE
8
BLACK
6
CONTINUOUS
10
0.66531
20
-1.17176
11
0.668263
21
-1.17097
0
LINE
8
BLACK
6
CONTINUOUS
10
0.668263
20
-1.17097
11
0.729286
21
-1.17097
0
LINE
8
BLACK
6
CONTINUOUS
10
0.729286
20
-1.17097
11
0.729286
21
-1.14501
0
LINE
8
BLACK
6
CONTINUOUS
10
0.729286
20
-1.14501
11
0.730077
21
-1.14205
0
LINE
8
BLACK
6
CONTINUOUS
10
0.730077
20
-1.14205
11
0.732239
21
-1.13989
0
LINE
8
BLACK
6
CONTINUOUS
10
0.732239
20
-1.13989
11
0.735192
21
-1.1391
0
LINE
8
BLACK
6
CONTINUOUS
10
0.735192
20
-1.1391
11
0.738144
21
-1.13989
0
LINE
8
BLACK
6
CONTINUOUS
10
0.738144
20
-1.13989
11
0.740306
21
-1.14205
0
LINE
8
BLACK
6
CONTINUOUS
10
0.740306
20
-1.14205
11
0.741097
21
-1.14501
0
LINE
8
BLACK
6
CONTINUOUS
10
0.741097
20
-1.14501
11
0.741097
21
-1.17688
0
LINE
8
BLACK
6
CONTINUOUS
10
0.741097
20
-1.17688
11
0.740306
21
-1.17983
0
LINE
8
BLACK
6
CONTINUOUS
10
0.740306
20
-1.17983
11
0.738144
21
-1.18199
0
LINE
8
BLACK
6
CONTINUOUS
10
0.738144
20
-1.18199
11
0.735192
21
-1.18278
0
LINE
8
BLACK
6
CONTINUOUS
10
0.735192
20
-1.18278
11
0.668263
21
-1.18278
0
LINE
8
BLACK
6
CONTINUOUS
10
0.668263
20
-1.18278
11
0.66531
21
-1.18199
0
LINE
8
BLACK
6
CONTINUOUS
10
0.66531
20
-1.12781
11
0.663148
21
-1.12565
0
LINE
8
BLACK
6
CONTINUOUS
10
0.663148
20
-1.12565
11
0.662357
21
-1.1227
0
LINE
8
BLACK
6
CONTINUOUS
10
0.662357
20
-1.1227
11
0.662357
21
-1.10676
0
LINE
8
BLACK
6
CONTINUOUS
10
0.662357
20
-1.10676
11
0.662603
21
-1.10584
0
LINE
8
BLACK
6
CONTINUOUS
10
0.662603
20
-1.10584
11
0.66266
21
-1.10489
0
LINE
8
BLACK
6
CONTINUOUS
10
0.66266
20
-1.10489
11
0.665847
21
-1.09533
0
LINE
8
BLACK
6
CONTINUOUS
10
0.665847
20
-1.09533
11
0.666595
21
-1.0942
0
LINE
8
BLACK
6
CONTINUOUS
10
0.666595
20
-1.0942
11
0.667274
21
-1.09302
0
LINE
8
BLACK
6
CONTINUOUS
10
0.667274
20
-1.09302
11
0.673648
21
-1.08665
0
LINE
8
BLACK
6
CONTINUOUS
10
0.673648
20
-1.08665
11
0.674471
21
-1.08617
0
LINE
8
BLACK
6
CONTINUOUS
10
0.674471
20
-1.08617
11
0.675183
21
-1.08554
0
LINE
8
BLACK
6
CONTINUOUS
10
0.675183
20
-1.08554
11
0.681557
21
-1.08236
0
LINE
8
BLACK
6
CONTINUOUS
10
0.681557
20
-1.08236
11
0.682196
21
-1.08222
0
LINE
8
BLACK
6
CONTINUOUS
10
0.682196
20
-1.08222
11
0.682766
21
-1.08191
0
LINE
8
BLACK
6
CONTINUOUS
10
0.682766
20
-1.08191
11
0.695514
21
-1.07872
0
LINE
8
BLACK
6
CONTINUOUS
10
0.695514
20
-1.07872
11
0.696243
21
-1.07873
0
LINE
8
BLACK
6
CONTINUOUS
10
0.696243
20
-1.07873
11
0.696946
21
-1.07855
0
LINE
8
BLACK
6
CONTINUOUS
10
0.696946
20
-1.07855
11
0.706508
21
-1.07855
0
LINE
8
BLACK
6
CONTINUOUS
10
0.706508
20
-1.07855
11
0.707212
21
-1.07873
0
LINE
8
BLACK
6
CONTINUOUS
10
0.707212
20
-1.07873
11
0.70794
21
-1.07872
0
LINE
8
BLACK
6
CONTINUOUS
10
0.70794
20
-1.07872
11
0.720688
21
-1.08191
0
LINE
8
BLACK
6
CONTINUOUS
10
0.720688
20
-1.08191
11
0.721258
21
-1.08222
0
LINE
8
BLACK
6
CONTINUOUS
10
0.721258
20
-1.08222
11
0.721897
21
-1.08236
0
LINE
8
BLACK
6
CONTINUOUS
10
0.721897
20
-1.08236
11
0.728271
21
-1.08554
0
LINE
8
BLACK
6
CONTINUOUS
10
0.728271
20
-1.08554
11
0.728983
21
-1.08617
0
LINE
8
BLACK
6
CONTINUOUS
10
0.728983
20
-1.08617
11
0.729806
21
-1.08665
0
LINE
8
BLACK
6
CONTINUOUS
10
0.729806
20
-1.08665
11
0.73618
21
-1.09302
0
LINE
8
BLACK
6
CONTINUOUS
10
0.73618
20
-1.09302
11
0.736859
21
-1.0942
0
LINE
8
BLACK
6
CONTINUOUS
10
0.736859
20
-1.0942
11
0.737607
21
-1.09533
0
LINE
8
BLACK
6
CONTINUOUS
10
0.737607
20
-1.09533
11
0.740794
21
-1.10489
0
LINE
8
BLACK
6
CONTINUOUS
10
0.740794
20
-1.10489
11
0.740851
21
-1.10584
0
LINE
8
BLACK
6
CONTINUOUS
10
0.740851
20
-1.10584
11
0.741097
21
-1.10676
0
LINE
8
BLACK
6
CONTINUOUS
10
0.741097
20
-1.10676
11
0.741097
21
-1.1227
0
LINE
8
BLACK
6
CONTINUOUS
10
0.741097
20
-1.1227
11
0.740306
21
-1.12565
0
LINE
8
BLACK
6
CONTINUOUS
10
0.740306
20
-1.12565
11
0.738144
21
-1.12781
0
LINE
8
BLACK
6
CONTINUOUS
10
0.738144
20
-1.12781
11
0.735192
21
-1.1286
0
LINE
8
BLACK
6
CONTINUOUS
10
0.735192
20
-1.1286
11
0.668263
21
-1.1286
0
LINE
8
BLACK
6
CONTINUOUS
10
0.668263
20
-1.1286
11
0.66531
21
-1.12781
0
LINE
8
BLACK
6
CONTINUOUS
10
0.697673
20
-1.09036
11
0.686259
21
-1.09321
0
LINE
8
BLACK
6
CONTINUOUS
10
0.686259
20
-1.09321
11
0.681322
21
-1.09568
0
LINE
8
BLACK
6
CONTINUOUS
10
0.681322
20
-1.09568
11
0.676611
21
-1.10039
0
LINE
8
BLACK
6
CONTINUOUS
10
0.676611
20
-1.10039
11
0.674168
21
-1.10772
0
LINE
8
BLACK
6
CONTINUOUS
10
0.674168
20
-1.10772
11
0.674168
21
-1.11679
0
LINE
8
BLACK
6
CONTINUOUS
10
0.674168
20
-1.11679
11
0.729286
21
-1.11679
0
LINE
8
BLACK
6
CONTINUOUS
10
0.729286
20
-1.11679
11
0.729286
21
-1.10772
0
LINE
8
BLACK
6
CONTINUOUS
10
0.729286
20
-1.10772
11
0.726843
21
-1.10039
0
LINE
8
BLACK
6
CONTINUOUS
10
0.726843
20
-1.10039
11
0.722132
21
-1.09568
0
LINE
8
BLACK
6
CONTINUOUS
10
0.722132
20
-1.09568
11
0.717195
21
-1.09321
0
LINE
8
BLACK
6
CONTINUOUS
10
0.717195
20
-1.09321
11
0.705781
21
-1.09036
0
LINE
8
BLACK
6
CONTINUOUS
10
0.705781
20
-1.09036
11
0.697673
21
-1.09036
0
LINE
8
BLACK
6
CONTINUOUS
10
0.66531
20
-1.06088
11
0.663148
21
-1.05872
0
LINE
8
BLACK
6
CONTINUOUS
10
0.663148
20
-1.05872
11
0.662357
21
-1.05577
0
LINE
8
BLACK
6
CONTINUOUS
10
0.662357
20
-1.05577
11
0.662357
21
-1.0239
0
LINE
8
BLACK
6
CONTINUOUS
10
0.662357
20
-1.0239
11
0.663148
21
-1.02094
0
LINE
8
BLACK
6
CONTINUOUS
10
0.663148
20
-1.02094
11
0.66531
21
-1.01878
0
LINE
8
BLACK
6
CONTINUOUS
10
0.66531
20
-1.01878
11
0.668263
21
-1.01799
0
LINE
8
BLACK
6
CONTINUOUS
10
0.668263
20
-1.01799
11
0.671215
21
-1.01878
0
LINE
8
BLACK
6
CONTINUOUS
10
0.671215
20
-1.01878
11
0.673377
21
-1.02094
0
LINE
8
BLACK
6
CONTINUOUS
10
0.673377
20
-1.02094
11
0.674168
21
-1.0239
0
LINE
8
BLACK
6
CONTINUOUS
10
0.674168
20
-1.0239
11
0.674168
21
-1.04986
0
LINE
8
BLACK
6
CONTINUOUS
10
0.674168
20
-1.04986
11
0.694228
21
-1.04986
0
LINE
8
BLACK
6
CONTINUOUS
10
0.694228
20
-1.04986
11
0.694228
21
-1.03346
0
LINE
8
BLACK
6
CONTINUOUS
10
0.694228
20
-1.03346
11
0.695019
21
-1.0305
0
LINE
8
BLACK
6
CONTINUOUS
10
0.695019
20
-1.0305
11
0.697181
21
-1.02834
0
LINE
8
BLACK
6
CONTINUOUS
10
0.697181
20
-1.02834
11
0.700134
21
-1.02755
0
LINE
8
BLACK
6
CONTINUOUS
10
0.700134
20
-1.02755
11
0.703086
21
-1.02834
0
LINE
8
BLACK
6
CONTINUOUS
10
0.703086
20
-1.02834
11
0.705248
21
-1.0305
0
LINE
8
BLACK
6
CONTINUOUS
10
0.705248
20
-1.0305
11
0.706039
21
-1.03346
0
LINE
8
BLACK
6
CONTINUOUS
10
0.706039
20
-1.03346
11
0.706039
21
-1.04986
0
LINE
8
BLACK
6
CONTINUOUS
10
0.706039
20
-1.04986
11
0.729286
21
-1.04986
0
LINE
8
BLACK
6
CONTINUOUS
10
0.729286
20
-1.04986
11
0.729286
21
-1.0239
0
LINE
8
BLACK
6
CONTINUOUS
10
0.729286
20
-1.0239
11
0.730077
21
-1.02094
0
LINE
8
BLACK
6
CONTINUOUS
10
0.730077
20
-1.02094
11
0.732239
21
-1.01878
0
LINE
8
BLACK
6
CONTINUOUS
10
0.732239
20
-1.01878
11
0.735192
21
-1.01799
0
LINE
8
BLACK
6
CONTINUOUS
10
0.735192
20
-1.01799
11
0.738144
21
-1.01878
0
LINE
8
BLACK
6
CONTINUOUS
10
0.738144
20
-1.01878
11
0.740306
21
-1.02094
0
LINE
8
BLACK
6
CONTINUOUS
10
0.740306
20
-1.02094
11
0.741097
21
-1.0239
0
LINE
8
BLACK
6
CONTINUOUS
10
0.741097
20
-1.0239
11
0.741097
21
-1.05577
0
LINE
8
BLACK
6
CONTINUOUS
10
0.741097
20
-1.05577
11
0.740306
21
-1.05872
0
LINE
8
BLACK
6
CONTINUOUS
10
0.740306
20
-1.05872
11
0.738144
21
-1.06088
0
LINE
8
BLACK
6
CONTINUOUS
10
0.738144
20
-1.06088
11
0.735192
21
-1.06167
0
LINE
8
BLACK
6
CONTINUOUS
10
0.735192
20
-1.06167
11
0.668263
21
-1.06167
0
LINE
8
BLACK
6
CONTINUOUS
10
0.668263
20
-1.06167
11
0.66531
21
-1.06088
0
LINE
8
BLACK
6
CONTINUOUS
10
0.66531
20
-1.00033
11
0.663148
21
-0.998164
0
LINE
8
BLACK
6
CONTINUOUS
10
0.663148
20
-0.998164
11
0.662357
21
-0.995212
0
LINE
8
BLACK
6
CONTINUOUS
10
0.662357
20
-0.995212
11
0.662357
21
-0.969715
0
LINE
8
BLACK
6
CONTINUOUS
10
0.662357
20
-0.969715
11
0.662708
21
-0.968404
0
LINE
8
BLACK
6
CONTINUOUS
10
0.662708
20
-0.968404
11
0.66298
21
-0.967074
0
LINE
8
BLACK
6
CONTINUOUS
10
0.66298
20
-0.967074
11
0.666168
21
-0.9607
0
LINE
8
BLACK
6
CONTINUOUS
10
0.666168
20
-0.9607
11
0.666798
21
-0.959988
0
LINE
8
BLACK
6
CONTINUOUS
10
0.666798
20
-0.959988
11
0.667274
21
-0.959165
0
LINE
8
BLACK
6
CONTINUOUS
10
0.667274
20
-0.959165
11
0.670461
21
-0.955978
0
LINE
8
BLACK
6
CONTINUOUS
10
0.670461
20
-0.955978
11
0.671284
21
-0.955502
0
LINE
8
BLACK
6
CONTINUOUS
10
0.671284
20
-0.955502
11
0.671996
21
-0.954872
0
LINE
8
BLACK
6
CONTINUOUS
10
0.671996
20
-0.954872
11
0.67837
21
-0.951684
0
LINE
8
BLACK
6
CONTINUOUS
10
0.67837
20
-0.951684
11
0.6797
21
-0.951412
0
LINE
8
BLACK
6
CONTINUOUS
10
0.6797
20
-0.951412
11
0.681011
21
-0.951061
0
LINE
8
BLACK
6
CONTINUOUS
10
0.681011
20
-0.951061
11
0.690572
21
-0.951061
0
LINE
8
BLACK
6
CONTINUOUS
10
0.690572
20
-0.951061
11
0.691883
21
-0.951412
0
LINE
8
BLACK
6
CONTINUOUS
10
0.691883
20
-0.951412
11
0.693213
21
-0.951684
0
LINE
8
BLACK
6
CONTINUOUS
10
0.693213
20
-0.951684
11
0.699587
21
-0.954872
0
LINE
8
BLACK
6
CONTINUOUS
10
0.699587
20
-0.954872
11
0.700299
21
-0.955502
0
LINE
8
BLACK
6
CONTINUOUS
10
0.700299
20
-0.955502
11
0.701122
21
-0.955978
0
LINE
8
BLACK
6
CONTINUOUS
10
0.701122
20
-0.955978
11
0.704309
21
-0.959165
0
LINE
8
BLACK
6
CONTINUOUS
10
0.704309
20
-0.959165
11
0.704785
21
-0.959988
0
LINE
8
BLACK
6
CONTINUOUS
10
0.704785
20
-0.959988
11
0.705416
21
-0.9607
0
LINE
8
BLACK
6
CONTINUOUS
10
0.705416
20
-0.9607
11
0.708603
21
-0.967074
0
LINE
8
BLACK
6
CONTINUOUS
10
0.708603
20
-0.967074
11
0.708835
21
-0.968208
0
LINE
8
BLACK
6
CONTINUOUS
10
0.708835
20
-0.968208
11
0.731805
21
-0.952129
0
LINE
8
BLACK
6
CONTINUOUS
10
0.731805
20
-0.952129
11
0.734678
21
-0.951083
0
LINE
8
BLACK
6
CONTINUOUS
10
0.734678
20
-0.951083
11
0.737688
21
-0.951615
0
LINE
8
BLACK
6
CONTINUOUS
10
0.737688
20
-0.951615
11
0.74003
21
-0.95358
0
LINE
8
BLACK
6
CONTINUOUS
10
0.74003
20
-0.95358
11
0.741075
21
-0.956453
0
LINE
8
BLACK
6
CONTINUOUS
10
0.741075
20
-0.956453
11
0.740544
21
-0.959463
0
LINE
8
BLACK
6
CONTINUOUS
10
0.740544
20
-0.959463
11
0.738578
21
-0.961804
0
LINE
8
BLACK
6
CONTINUOUS
10
0.738578
20
-0.961804
11
0.709226
21
-0.982351
0
LINE
8
BLACK
6
CONTINUOUS
10
0.709226
20
-0.982351
11
0.709226
21
-0.989306
0
LINE
8
BLACK
6
CONTINUOUS
10
0.709226
20
-0.989306
11
0.735192
21
-0.989306
0
LINE
8
BLACK
6
CONTINUOUS
10
0.735192
20
-0.989306
11
0.738144
21
-0.990097
0
LINE
8
BLACK
6
CONTINUOUS
10
0.738144
20
-0.990097
11
0.740306
21
-0.992259
0
LINE
8
BLACK
6
CONTINUOUS
10
0.740306
20
-0.992259
11
0.741097
21
-0.995212
0
LINE
8
BLACK
6
CONTINUOUS
10
0.741097
20
-0.995212
11
0.740306
21
-0.998164
0
LINE
8
BLACK
6
CONTINUOUS
10
0.740306
20
-0.998164
11
0.738144
21
-1.00033
0
LINE
8
BLACK
6
CONTINUOUS
10
0.738144
20
-1.00033
11
0.735192
21
-1.00112
0
LINE
8
BLACK
6
CONTINUOUS
10
0.735192
20
-1.00112
11
0.668263
21
-1.00112
0
LINE
8
BLACK
6
CONTINUOUS
10
0.668263
20
-1.00112
11
0.66531
21
-1.00033
0
LINE
8
BLACK
6
CONTINUOUS
10
0.682405
20
-0.962872
11
0.678135
21
-0.965007
0
LINE
8
BLACK
6
CONTINUOUS
10
0.678135
20
-0.965007
11
0.676303
21
-0.966839
0
LINE
8
BLACK
6
CONTINUOUS
10
0.676303
20
-0.966839
11
0.674168
21
-0.971109
0
LINE
8
BLACK
6
CONTINUOUS
10
0.674168
20
-0.971109
11
0.674168
21
-0.989306
0
LINE
8
BLACK
6
CONTINUOUS
10
0.674168
20
-0.989306
11
0.697415
21
-0.989306
0
LINE
8
BLACK
6
CONTINUOUS
10
0.697415
20
-0.989306
11
0.697415
21
-0.971109
0
LINE
8
BLACK
6
CONTINUOUS
10
0.697415
20
-0.971109
11
0.69528
21
-0.966839
0
LINE
8
BLACK
6
CONTINUOUS
10
0.69528
20
-0.966839
11
0.693448
21
-0.965007
0
LINE
8
BLACK
6
CONTINUOUS
10
0.693448
20
-0.965007
11
0.689178
21
-0.962872
0
LINE
8
BLACK
6
CONTINUOUS
10
0.689178
20
-0.962872
11
0.682405
21
-0.962872
0
LINE
8
BLACK
6
CONTINUOUS
10
0.710399
20
-0.887508
11
0.711127
21
-0.887495
0
LINE
8
BLACK
6
CONTINUOUS
10
0.711127
20
-0.887495
11
0.723876
21
-0.890682
0
LINE
8
BLACK
6
CONTINUOUS
10
0.723876
20
-0.890682
11
0.724446
21
-0.890999
0
LINE
8
BLACK
6
CONTINUOUS
10
0.724446
20
-0.890999
11
0.725084
21
-0.89113
0
LINE
8
BLACK
6
CONTINUOUS
10
0.725084
20
-0.89113
11
0.731458
21
-0.894317
0
LINE
8
BLACK
6
CONTINUOUS
10
0.731458
20
-0.894317
11
0.73217
21
-0.894947
0
LINE
8
BLACK
6
CONTINUOUS
10
0.73217
20
-0.894947
11
0.732993
21
-0.895423
0
LINE
8
BLACK
6
CONTINUOUS
10
0.732993
20
-0.895423
11
0.73618
21
-0.89861
0
LINE
8
BLACK
6
CONTINUOUS
10
0.73618
20
-0.89861
11
0.736656
21
-0.899433
0
LINE
8
BLACK
6
CONTINUOUS
10
0.736656
20
-0.899433
11
0.737287
21
-0.900145
0
LINE
8
BLACK
6
CONTINUOUS
10
0.737287
20
-0.900145
11
0.740474
21
-0.906519
0
LINE
8
BLACK
6
CONTINUOUS
10
0.740474
20
-0.906519
11
0.740746
21
-0.907849
0
LINE
8
BLACK
6
CONTINUOUS
10
0.740746
20
-0.907849
11
0.741097
21
-0.90916
0
LINE
8
BLACK
6
CONTINUOUS
10
0.741097
20
-0.90916
11
0.741097
21
-0.915534
0
LINE
8
BLACK
6
CONTINUOUS
10
0.741097
20
-0.915534
11
0.740746
21
-0.916845
0
LINE
8
BLACK
6
CONTINUOUS
10
0.740746
20
-0.916845
11
0.740474
21
-0.918175
0
LINE
8
BLACK
6
CONTINUOUS
10
0.740474
20
-0.918175
11
0.737287
21
-0.924549
0
LINE
8
BLACK
6
CONTINUOUS
10
0.737287
20
-0.924549
11
0.736656
21
-0.925261
0
LINE
8
BLACK
6
CONTINUOUS
10
0.736656
20
-0.925261
11
0.73618
21
-0.926084
0
LINE
8
BLACK
6
CONTINUOUS
10
0.73618
20
-0.926084
11
0.732993
21
-0.929271
0
LINE
8
BLACK
6
CONTINUOUS
10
0.732993
20
-0.929271
11
0.73217
21
-0.929747
0
LINE
8
BLACK
6
CONTINUOUS
10
0.73217
20
-0.929747
11
0.731458
21
-0.930378
0
LINE
8
BLACK
6
CONTINUOUS
10
0.731458
20
-0.930378
11
0.725084
21
-0.933565
0
LINE
8
BLACK
6
CONTINUOUS
10
0.725084
20
-0.933565
11
0.724446
21
-0.933695
0
LINE
8
BLACK
6
CONTINUOUS
10
0.724446
20
-0.933695
11
0.723876
21
-0.934012
0
LINE
8
BLACK
6
CONTINUOUS
10
0.723876
20
-0.934012
11
0.711127
21
-0.937199
0
LINE
8
BLACK
6
CONTINUOUS
10
0.711127
20
-0.937199
11
0.710399
21
-0.937187
0
LINE
8
BLACK
6
CONTINUOUS
10
0.710399
20
-0.937187
11
0.709695
21
-0.937375
0
LINE
8
BLACK
6
CONTINUOUS
10
0.709695
20
-0.937375
11
0.693759
21
-0.937375
0
LINE
8
BLACK
6
CONTINUOUS
10
0.693759
20
-0.937375
11
0.693056
21
-0.937187
0
LINE
8
BLACK
6
CONTINUOUS
10
0.693056
20
-0.937187
11
0.692327
21
-0.937199
0
LINE
8
BLACK
6
CONTINUOUS
10
0.692327
20
-0.937199
11
0.679579
21
-0.934012
0
LINE
8
BLACK
6
CONTINUOUS
10
0.679579
20
-0.934012
11
0.679009
21
-0.933695
0
LINE
8
BLACK
6
CONTINUOUS
10
0.679009
20
-0.933695
11
0.67837
21
-0.933565
0
LINE
8
BLACK
6
CONTINUOUS
10
0.67837
20
-0.933565
11
0.671996
21
-0.930378
0
LINE
8
BLACK
6
CONTINUOUS
10
0.671996
20
-0.930378
11
0.671284
21
-0.929747
0
LINE
8
BLACK
6
CONTINUOUS
10
0.671284
20
-0.929747
11
0.670461
21
-0.929271
0
LINE
8
BLACK
6
CONTINUOUS
10
0.670461
20
-0.929271
11
0.667274
21
-0.926084
0
LINE
8
BLACK
6
CONTINUOUS
10
0.667274
20
-0.926084
11
0.666798
21
-0.925261
0
LINE
8
BLACK
6
CONTINUOUS
10
0.666798
20
-0.925261
11
0.666168
21
-0.924549
0
LINE
8
BLACK
6
CONTINUOUS
10
0.666168
20
-0.924549
11
0.66298
21
-0.918175
0
LINE
8
BLACK
6
CONTINUOUS
10
0.66298
20
-0.918175
11
0.662708
21
-0.916845
0
LINE
8
BLACK
6
CONTINUOUS
10
0.662708
20
-0.916845
11
0.662357
21
-0.915534
0
LINE
8
BLACK
6
CONTINUOUS
10
0.662357
20
-0.915534
11
0.662357
21
-0.90916
0
LINE
8
BLACK
6
CONTINUOUS
10
0.662357
20
-0.90916
11
0.662708
21
-0.907849
0
LINE
8
BLACK
6
CONTINUOUS
10
0.662708
20
-0.907849
11
0.66298
21
-0.906519
0
LINE
8
BLACK
6
CONTINUOUS
10
0.66298
20
-0.906519
11
0.666168
21
-0.900145
0
LINE
8
BLACK
6
CONTINUOUS
10
0.666168
20
-0.900145
11
0.666798
21
-0.899433
0
LINE
8
BLACK
6
CONTINUOUS
10
0.666798
20
-0.899433
11
0.667274
21
-0.89861
0
LINE
8
BLACK
6
CONTINUOUS
10
0.667274
20
-0.89861
11
0.670461
21
-0.895423
0
LINE
8
BLACK
6
CONTINUOUS
10
0.670461
20
-0.895423
11
0.671284
21
-0.894947
0
LINE
8
BLACK
6
CONTINUOUS
10
0.671284
20
-0.894947
11
0.671996
21
-0.894317
0
LINE
8
BLACK
6
CONTINUOUS
10
0.671996
20
-0.894317
11
0.67837
21
-0.89113
0
LINE
8
BLACK
6
CONTINUOUS
10
0.67837
20
-0.89113
11
0.679009
21
-0.890999
0
LINE
8
BLACK
6
CONTINUOUS
10
0.679009
20
-0.890999
11
0.679579
21
-0.890682
0
LINE
8
BLACK
6
CONTINUOUS
10
0.679579
20
-0.890682
11
0.692327
21
-0.887495
0
LINE
8
BLACK
6
CONTINUOUS
10
0.692327
20
-0.887495
11
0.693056
21
-0.887508
0
LINE
8
BLACK
6
CONTINUOUS
10
0.693056
20
-0.887508
11
0.693759
21
-0.887319
0
LINE
8
BLACK
6
CONTINUOUS
10
0.693759
20
-0.887319
11
0.709695
21
-0.887319
0
LINE
8
BLACK
6
CONTINUOUS
10
0.709695
20
-0.887319
11
0.710399
21
-0.887508
0
LINE
8
BLACK
6
CONTINUOUS
10
0.694486
20
-0.89913
11
0.683072
21
-0.901984
0
LINE
8
BLACK
6
CONTINUOUS
10
0.683072
20
-0.901984
11
0.678135
21
-0.904452
0
LINE
8
BLACK
6
CONTINUOUS
10
0.678135
20
-0.904452
11
0.676303
21
-0.906284
0
LINE
8
BLACK
6
CONTINUOUS
10
0.676303
20
-0.906284
11
0.674168
21
-0.910554
0
LINE
8
BLACK
6
CONTINUOUS
10
0.674168
20
-0.910554
11
0.674168
21
-0.91414
0
LINE
8
BLACK
6
CONTINUOUS
10
0.674168
20
-0.91414
11
0.676303
21
-0.91841
0
LINE
8
BLACK
6
CONTINUOUS
10
0.676303
20
-0.91841
11
0.678135
21
-0.920242
0
LINE
8
BLACK
6
CONTINUOUS
10
0.678135
20
-0.920242
11
0.683072
21
-0.922711
0
LINE
8
BLACK
6
CONTINUOUS
10
0.683072
20
-0.922711
11
0.694486
21
-0.925564
0
LINE
8
BLACK
6
CONTINUOUS
10
0.694486
20
-0.925564
11
0.708968
21
-0.925564
0
LINE
8
BLACK
6
CONTINUOUS
10
0.708968
20
-0.925564
11
0.720382
21
-0.922711
0
LINE
8
BLACK
6
CONTINUOUS
10
0.720382
20
-0.922711
11
0.725319
21
-0.920242
0
LINE
8
BLACK
6
CONTINUOUS
10
0.725319
20
-0.920242
11
0.727151
21
-0.91841
0
LINE
8
BLACK
6
CONTINUOUS
10
0.727151
20
-0.91841
11
0.729286
21
-0.91414
0
LINE
8
BLACK
6
CONTINUOUS
10
0.729286
20
-0.91414
11
0.729286
21
-0.910554
0
LINE
8
BLACK
6
CONTINUOUS
10
0.729286
20
-0.910554
11
0.727151
21
-0.906284
0
LINE
8
BLACK
6
CONTINUOUS
10
0.727151
20
-0.906284
11
0.725319
21
-0.904452
0
LINE
8
BLACK
6
CONTINUOUS
10
0.725319
20
-0.904452
11
0.720382
21
-0.901984
0
LINE
8
BLACK
6
CONTINUOUS
10
0.720382
20
-0.901984
11
0.708968
21
-0.89913
0
LINE
8
BLACK
6
CONTINUOUS
10
0.708968
20
-0.89913
11
0.694486
21
-0.89913
0
LINE
8
BLACK
6
CONTINUOUS
10
0.738144
20
-0.824368
11
0.740306
21
-0.82653
0
LINE
8
BLACK
6
CONTINUOUS
10
0.740306
20
-0.82653
11
0.741097
21
-0.829482
0
LINE
8
BLACK
6
CONTINUOUS
10
0.741097
20
-0.829482
11
0.741097
21
-0.867728
0
LINE
8
BLACK
6
CONTINUOUS
10
0.741097
20
-0.867728
11
0.740306
21
-0.87068
0
LINE
8
BLACK
6
CONTINUOUS
10
0.740306
20
-0.87068
11
0.738144
21
-0.872842
0
LINE
8
BLACK
6
CONTINUOUS
10
0.738144
20
-0.872842
11
0.735192
21
-0.873633
0
LINE
8
BLACK
6
CONTINUOUS
10
0.735192
20
-0.873633
11
0.732239
21
-0.872842
0
LINE
8
BLACK
6
CONTINUOUS
10
0.732239
20
-0.872842
11
0.730077
21
-0.87068
0
LINE
8
BLACK
6
CONTINUOUS
10
0.730077
20
-0.87068
11
0.729286
21
-0.867728
0
LINE
8
BLACK
6
CONTINUOUS
10
0.729286
20
-0.867728
11
0.729286
21
-0.854511
0
LINE
8
BLACK
6
CONTINUOUS
10
0.729286
20
-0.854511
11
0.685707
21
-0.854511
0
LINE
8
BLACK
6
CONTINUOUS
10
0.685707
20
-0.854511
11
0.688374
21
-0.857178
0
LINE
8
BLACK
6
CONTINUOUS
10
0.688374
20
-0.857178
11
0.688849
21
-0.858001
0
LINE
8
BLACK
6
CONTINUOUS
10
0.688849
20
-0.858001
11
0.68948
21
-0.858712
0
LINE
8
BLACK
6
CONTINUOUS
10
0.68948
20
-0.858712
11
0.692667
21
-0.865087
0
LINE
8
BLACK
6
CONTINUOUS
10
0.692667
20
-0.865087
11
0.69328
21
-0.868081
0
LINE
8
BLACK
6
CONTINUOUS
10
0.69328
20
-0.868081
11
0.692313
21
-0.870982
0
LINE
8
BLACK
6
CONTINUOUS
10
0.692313
20
-0.870982
11
0.690026
21
-0.87301
0
LINE
8
BLACK
6
CONTINUOUS
10
0.690026
20
-0.87301
11
0.687031
21
-0.873623
0
LINE
8
BLACK
6
CONTINUOUS
10
0.687031
20
-0.873623
11
0.684131
21
-0.872656
0
LINE
8
BLACK
6
CONTINUOUS
10
0.684131
20
-0.872656
11
0.682103
21
-0.870369
0
LINE
8
BLACK
6
CONTINUOUS
10
0.682103
20
-0.870369
11
0.679345
21
-0.864852
0
LINE
8
BLACK
6
CONTINUOUS
10
0.679345
20
-0.864852
11
0.674061
21
-0.859569
0
LINE
8
BLACK
6
CONTINUOUS
10
0.674061
20
-0.859569
11
0.664987
21
-0.853519
0
LINE
8
BLACK
6
CONTINUOUS
10
0.664987
20
-0.853519
11
0.664099
21
-0.852509
0
LINE
8
BLACK
6
CONTINUOUS
10
0.664099
20
-0.852509
11
0.663148
21
-0.851558
0
LINE
8
BLACK
6
CONTINUOUS
10
0.663148
20
-0.851558
11
0.663098
21
-0.851369
0
LINE
8
BLACK
6
CONTINUOUS
10
0.663098
20
-0.851369
11
0.662969
21
-0.851223
0
LINE
8
BLACK
6
CONTINUOUS
10
0.662969
20
-0.851223
11
0.662705
21
-0.849904
0
LINE
8
BLACK
6
CONTINUOUS
10
0.662705
20
-0.849904
11
0.662357
21
-0.848605
0
LINE
8
BLACK
6
CONTINUOUS
10
0.662357
20
-0.848605
11
0.662408
21
-0.848416
0
LINE
8
BLACK
6
CONTINUOUS
10
0.662408
20
-0.848416
11
0.662369
21
-0.848225
0
LINE
8
BLACK
6
CONTINUOUS
10
0.662369
20
-0.848225
11
0.6628
21
-0.846951
0
LINE
8
BLACK
6
CONTINUOUS
10
0.6628
20
-0.846951
11
0.663148
21
-0.845652
0
LINE
8
BLACK
6
CONTINUOUS
10
0.663148
20
-0.845652
11
0.663286
21
-0.845514
0
LINE
8
BLACK
6
CONTINUOUS
10
0.663286
20
-0.845514
11
0.663349
21
-0.845329
0
LINE
8
BLACK
6
CONTINUOUS
10
0.663349
20
-0.845329
11
0.664359
21
-0.844442
0
LINE
8
BLACK
6
CONTINUOUS
10
0.664359
20
-0.844442
11
0.66531
21
-0.843491
0
LINE
8
BLACK
6
CONTINUOUS
10
0.66531
20
-0.843491
11
0.665498
21
-0.84344
0
LINE
8
BLACK
6
CONTINUOUS
10
0.665498
20
-0.84344
11
0.665645
21
-0.843311
0
LINE
8
BLACK
6
CONTINUOUS
10
0.665645
20
-0.843311
11
0.666964
21
-0.843048
0
LINE
8
BLACK
6
CONTINUOUS
10
0.666964
20
-0.843048
11
0.668263
21
-0.8427
0
LINE
8
BLACK
6
CONTINUOUS
10
0.668263
20
-0.8427
11
0.729286
21
-0.8427
0
LINE
8
BLACK
6
CONTINUOUS
10
0.729286
20
-0.8427
11
0.729286
21
-0.829482
0
LINE
8
BLACK
6
CONTINUOUS
10
0.729286
20
-0.829482
11
0.730077
21
-0.82653
0
LINE
8
BLACK
6
CONTINUOUS
10
0.730077
20
-0.82653
11
0.732239
21
-0.824368
0
LINE
8
BLACK
6
CONTINUOUS
10
0.732239
20
-0.824368
11
0.735192
21
-0.823577
0
LINE
8
BLACK
6
CONTINUOUS
10
0.735192
20
-0.823577
11
0.738144
21
-0.824368
0
LINE
8
BLACK
6
CONTINUOUS
10
0.73911
20
-0.761322
11
0.740794
21
-0.763873
0
LINE
8
BLACK
6
CONTINUOUS
10
0.740794
20
-0.763873
11
0.740977
21
-0.766924
0
LINE
8
BLACK
6
CONTINUOUS
10
0.740977
20
-0.766924
11
0.73961
21
-0.769659
0
LINE
8
BLACK
6
CONTINUOUS
10
0.73961
20
-0.769659
11
0.737059
21
-0.771343
0
LINE
8
BLACK
6
CONTINUOUS
10
0.737059
20
-0.771343
11
0.721975
21
-0.776371
0
LINE
8
BLACK
6
CONTINUOUS
10
0.721975
20
-0.776371
11
0.721975
21
-0.799729
0
LINE
8
BLACK
6
CONTINUOUS
10
0.721975
20
-0.799729
11
0.737059
21
-0.804757
0
LINE
8
BLACK
6
CONTINUOUS
10
0.737059
20
-0.804757
11
0.73961
21
-0.806442
0
LINE
8
BLACK
6
CONTINUOUS
10
0.73961
20
-0.806442
11
0.740977
21
-0.809176
0
LINE
8
BLACK
6
CONTINUOUS
10
0.740977
20
-0.809176
11
0.740794
21
-0.812227
0
LINE
8
BLACK
6
CONTINUOUS
10
0.740794
20
-0.812227
11
0.73911
21
-0.814778
0
LINE
8
BLACK
6
CONTINUOUS
10
0.73911
20
-0.814778
11
0.736376
21
-0.816145
0
LINE
8
BLACK
6
CONTINUOUS
10
0.736376
20
-0.816145
11
0.733324
21
-0.815962
0
LINE
8
BLACK
6
CONTINUOUS
10
0.733324
20
-0.815962
11
0.666395
21
-0.793653
0
LINE
8
BLACK
6
CONTINUOUS
10
0.666395
20
-0.793653
11
0.665405
21
-0.792999
0
LINE
8
BLACK
6
CONTINUOUS
10
0.665405
20
-0.792999
11
0.664344
21
-0.792469
0
LINE
8
BLACK
6
CONTINUOUS
10
0.664344
20
-0.792469
11
0.664145
21
-0.792167
0
LINE
8
BLACK
6
CONTINUOUS
10
0.664145
20
-0.792167
11
0.663844
21
-0.791968
0
LINE
8
BLACK
6
CONTINUOUS
10
0.663844
20
-0.791968
11
0.663314
21
-0.790907
0
LINE
8
BLACK
6
CONTINUOUS
10
0.663314
20
-0.790907
11
0.66266
21
-0.789918
0
LINE
8
BLACK
6
CONTINUOUS
10
0.66266
20
-0.789918
11
0.662638
21
-0.789557
0
LINE
8
BLACK
6
CONTINUOUS
10
0.662638
20
-0.789557
11
0.662477
21
-0.789234
0
LINE
8
BLACK
6
CONTINUOUS
10
0.662477
20
-0.789234
11
0.662548
21
-0.78805
0
LINE
8
BLACK
6
CONTINUOUS
10
0.662548
20
-0.78805
11
0.662477
21
-0.786866
0
LINE
8
BLACK
6
CONTINUOUS
10
0.662477
20
-0.786866
11
0.662638
21
-0.786543
0
LINE
8
BLACK
6
CONTINUOUS
10
0.662638
20
-0.786543
11
0.66266
21
-0.786183
0
LINE
8
BLACK
6
CONTINUOUS
10
0.66266
20
-0.786183
11
0.663314
21
-0.785193
0
LINE
8
BLACK
6
CONTINUOUS
10
0.663314
20
-0.785193
11
0.663844
21
-0.784132
0
LINE
8
BLACK
6
CONTINUOUS
10
0.663844
20
-0.784132
11
0.664145
21
-0.783933
0
LINE
8
BLACK
6
CONTINUOUS
10
0.664145
20
-0.783933
11
0.664344
21
-0.783632
0
LINE
8
BLACK
6
CONTINUOUS
10
0.664344
20
-0.783632
11
0.665405
21
-0.783101
0
LINE
8
BLACK
6
CONTINUOUS
10
0.665405
20
-0.783101
11
0.666395
21
-0.782448
0
LINE
8
BLACK
6
CONTINUOUS
10
0.666395
20
-0.782448
11
0.733324
21
-0.760138
0
LINE
8
BLACK
6
CONTINUOUS
10
0.733324
20
-0.760138
11
0.736376
21
-0.759955
0
LINE
8
BLACK
6
CONTINUOUS
10
0.736376
20
-0.759955
11
0.73911
21
-0.761322
0
LINE
8
BLACK
6
CONTINUOUS
10
0.686937
20
-0.78805
11
0.710164
21
-0.795792
0
LINE
8
BLACK
6
CONTINUOUS
10
0.710164
20
-0.795792
11
0.710164
21
-0.780308
0
LINE
8
BLACK
6
CONTINUOUS
10
0.710164
20
-0.780308
11
0.686937
21
-0.78805
0
LINE
8
BLACK
6
CONTINUOUS
10
0.391125
20
-0.178566
11
0.391254
21
-0.178543
0
LINE
8
BLACK
6
CONTINUOUS
10
0.391254
20
-0.178543
11
0.391367
21
-0.178609
0
LINE
8
BLACK
6
CONTINUOUS
10
0.391367
20
-0.178609
11
0.391751
21
-0.178676
0
LINE
8
BLACK
6
CONTINUOUS
10
0.391751
20
-0.178676
11
0.392339
21
-0.179169
0
LINE
8
BLACK
6
CONTINUOUS
10
0.392339
20
-0.179169
11
0.393003
21
-0.179553
0
LINE
8
BLACK
6
CONTINUOUS
10
0.393003
20
-0.179553
11
0.393094
21
-0.179803
0
LINE
8
BLACK
6
CONTINUOUS
10
0.393094
20
-0.179803
11
0.393298
21
-0.179975
0
LINE
8
BLACK
6
CONTINUOUS
10
0.393298
20
-0.179975
11
0.393431
21
-0.18073
0
LINE
8
BLACK
6
CONTINUOUS
10
0.393431
20
-0.18073
11
0.393694
21
-0.181451
0
LINE
8
BLACK
6
CONTINUOUS
10
0.393694
20
-0.181451
11
0.393694
21
-0.275939
0
LINE
8
BLACK
6
CONTINUOUS
10
0.393694
20
-0.275939
11
0.393626
21
-0.276323
0
LINE
8
BLACK
6
CONTINUOUS
10
0.393626
20
-0.276323
11
0.393649
21
-0.276452
0
LINE
8
BLACK
6
CONTINUOUS
10
0.393649
20
-0.276452
11
0.393583
21
-0.276566
0
LINE
8
BLACK
6
CONTINUOUS
10
0.393583
20
-0.276566
11
0.393516
21
-0.276949
0
LINE
8
BLACK
6
CONTINUOUS
10
0.393516
20
-0.276949
11
0.393023
21
-0.277537
0
LINE
8
BLACK
6
CONTINUOUS
10
0.393023
20
-0.277537
11
0.392639
21
-0.278201
0
LINE
8
BLACK
6
CONTINUOUS
10
0.392639
20
-0.278201
11
0.392389
21
-0.278292
0
LINE
8
BLACK
6
CONTINUOUS
10
0.392389
20
-0.278292
11
0.392217
21
-0.278496
0
LINE
8
BLACK
6
CONTINUOUS
10
0.392217
20
-0.278496
11
0.391462
21
-0.27863
0
LINE
8
BLACK
6
CONTINUOUS
10
0.391462
20
-0.27863
11
0.390741
21
-0.278892
0
LINE
8
BLACK
6
CONTINUOUS
10
0.390741
20
-0.278892
11
0.225387
21
-0.278892
0
LINE
8
BLACK
6
CONTINUOUS
10
0.225387
20
-0.278892
11
0.225003
21
-0.278824
0
LINE
8
BLACK
6
CONTINUOUS
10
0.225003
20
-0.278824
11
0.224874
21
-0.278847
0
LINE
8
BLACK
6
CONTINUOUS
10
0.224874
20
-0.278847
11
0.22476
21
-0.278781
0
LINE
8
BLACK
6
CONTINUOUS
10
0.22476
20
-0.278781
11
0.224377
21
-0.278714
0
LINE
8
BLACK
6
CONTINUOUS
10
0.224377
20
-0.278714
11
0.223789
21
-0.278221
0
LINE
8
BLACK
6
CONTINUOUS
10
0.223789
20
-0.278221
11
0.223125
21
-0.277837
0
LINE
8
BLACK
6
CONTINUOUS
10
0.223125
20
-0.277837
11
0.223034
21
-0.277587
0
LINE
8
BLACK
6
CONTINUOUS
10
0.223034
20
-0.277587
11
0.222829
21
-0.277416
0
LINE
8
BLACK
6
CONTINUOUS
10
0.222829
20
-0.277416
11
0.222696
21
-0.27666
0
LINE
8
BLACK
6
CONTINUOUS
10
0.222696
20
-0.27666
11
0.222434
21
-0.275939
0
LINE
8
BLACK
6
CONTINUOUS
10
0.222434
20
-0.275939
11
0.222434
21
-0.181451
0
LINE
8
BLACK
6
CONTINUOUS
10
0.222434
20
-0.181451
11
0.222502
21
-0.181067
0
LINE
8
BLACK
6
CONTINUOUS
10
0.222502
20
-0.181067
11
0.222479
21
-0.180938
0
LINE
8
BLACK
6
CONTINUOUS
10
0.222479
20
-0.180938
11
0.222544
21
-0.180825
0
LINE
8
BLACK
6
CONTINUOUS
10
0.222544
20
-0.180825
11
0.222612
21
-0.180441
0
LINE
8
BLACK
6
CONTINUOUS
10
0.222612
20
-0.180441
11
0.223105
21
-0.179853
0
LINE
8
BLACK
6
CONTINUOUS
10
0.223105
20
-0.179853
11
0.223489
21
-0.179189
0
LINE
8
BLACK
6
CONTINUOUS
10
0.223489
20
-0.179189
11
0.223739
21
-0.179098
0
LINE
8
BLACK
6
CONTINUOUS
10
0.223739
20
-0.179098
11
0.22391
21
-0.178894
0
LINE
8
BLACK
6
CONTINUOUS
10
0.22391
20
-0.178894
11
0.224666
21
-0.178761
0
LINE
8
BLACK
6
CONTINUOUS
10
0.224666
20
-0.178761
11
0.225387
21
-0.178498
0
LINE
8
BLACK
6
CONTINUOUS
10
0.225387
20
-0.178498
11
0.390741
21
-0.178498
0
LINE
8
BLACK
6
CONTINUOUS
10
0.390741
20
-0.178498
11
0.391125
21
-0.178566
0
LINE
8
BLACK
6
CONTINUOUS
10
0.228339
20
-0.184404
11
0.228339
21
-0.272986
0
LINE
8
BLACK
6
CONTINUOUS
10
0.228339
20
-0.272986
11
0.387788
21
-0.272986
0
LINE
8
BLACK
6
CONTINUOUS
10
0.387788
20
-0.272986
11
0.387788
21
-0.184404
0
LINE
8
BLACK
6
CONTINUOUS
10
0.387788
20
-0.184404
11
0.228339
21
-0.184404
0
LINE
8
BLACK
6
CONTINUOUS
10
0.310514
20
-0.121724
11
0.311438
21
-0.121861
0
LINE
8
BLACK
6
CONTINUOUS
10
0.311438
20
-0.121861
11
0.311495
21
-0.121925
0
LINE
8
BLACK
6
CONTINUOUS
10
0.311495
20
-0.121925
11
0.311578
21
-0.121942
0
LINE
8
BLACK
6
CONTINUOUS
10
0.311578
20
-0.121942
11
0.312158
21
-0.122673
0
LINE
8
BLACK
6
CONTINUOUS
10
0.312158
20
-0.122673
11
0.312778
21
-0.123373
0
LINE
8
BLACK
6
CONTINUOUS
10
0.312778
20
-0.123373
11
0.312781
21
-0.123458
0
LINE
8
BLACK
6
CONTINUOUS
10
0.312781
20
-0.123458
11
0.312834
21
-0.123524
0
LINE
8
BLACK
6
CONTINUOUS
10
0.312834
20
-0.123524
11
0.325957
21
-0.162894
0
LINE
8
BLACK
6
CONTINUOUS
10
0.325957
20
-0.162894
11
0.326107
21
-0.163909
0
LINE
8
BLACK
6
CONTINUOUS
10
0.326107
20
-0.163909
11
0.325365
21
-0.165787
0
LINE
8
BLACK
6
CONTINUOUS
10
0.325365
20
-0.165787
11
0.323589
21
-0.166749
0
LINE
8
BLACK
6
CONTINUOUS
10
0.323589
20
-0.166749
11
0.32161
21
-0.166344
0
LINE
8
BLACK
6
CONTINUOUS
10
0.32161
20
-0.166344
11
0.320354
21
-0.164762
0
LINE
8
BLACK
6
CONTINUOUS
10
0.320354
20
-0.164762
11
0.317278
21
-0.155532
0
LINE
8
BLACK
6
CONTINUOUS
10
0.317278
20
-0.155532
11
0.302787
21
-0.155532
0
LINE
8
BLACK
6
CONTINUOUS
10
0.302787
20
-0.155532
11
0.29971
21
-0.164762
0
LINE
8
BLACK
6
CONTINUOUS
10
0.29971
20
-0.164762
11
0.299222
21
-0.165664
0
LINE
8
BLACK
6
CONTINUOUS
10
0.299222
20
-0.165664
11
0.297501
21
-0.166721
0
LINE
8
BLACK
6
CONTINUOUS
10
0.297501
20
-0.166721
11
0.295503
21
-0.166425
0
LINE
8
BLACK
6
CONTINUOUS
10
0.295503
20
-0.166425
11
0.294163
21
-0.164913
0
LINE
8
BLACK
6
CONTINUOUS
10
0.294163
20
-0.164913
11
0.294108
21
-0.162894
0
LINE
8
BLACK
6
CONTINUOUS
10
0.294108
20
-0.162894
11
0.307231
21
-0.123524
0
LINE
8
BLACK
6
CONTINUOUS
10
0.307231
20
-0.123524
11
0.307719
21
-0.122622
0
LINE
8
BLACK
6
CONTINUOUS
10
0.307719
20
-0.122622
11
0.307792
21
-0.122578
0
LINE
8
BLACK
6
CONTINUOUS
10
0.307792
20
-0.122578
11
0.307823
21
-0.122499
0
LINE
8
BLACK
6
CONTINUOUS
10
0.307823
20
-0.122499
11
0.308644
21
-0.122054
0
LINE
8
BLACK
6
CONTINUOUS
10
0.308644
20
-0.122054
11
0.30944
21
-0.121565
0
LINE
8
BLACK
6
CONTINUOUS
10
0.30944
20
-0.121565
11
0.309524
21
-0.121578
0
LINE
8
BLACK
6
CONTINUOUS
10
0.309524
20
-0.121578
11
0.309599
21
-0.121537
0
LINE
8
BLACK
6
CONTINUOUS
10
0.309599
20
-0.121537
11
0.310514
21
-0.121724
0
LINE
8
BLACK
6
CONTINUOUS
10
0.304755
20
-0.149627
11
0.315309
21
-0.149627
0
LINE
8
BLACK
6
CONTINUOUS
10
0.315309
20
-0.149627
11
0.310032
21
-0.133795
0
LINE
8
BLACK
6
CONTINUOUS
10
0.310032
20
-0.133795
11
0.304755
21
-0.149627
  0
ENDSEC
  0
EOF
