  0
SECTION
  2
HEADER
  9
$ANGBASE
  50
0.0
  9
$ANGDIR
  70
1
  9
$MEASUREMENT
  70
0
  0
ENDSEC
  0
SECTION
  2
TABLES
  0
TABLE
  2
LTYPE
  70
4
  0
LTYPE
  5
40F
  2
CONTINUOUS
  70
0
  3
Solid line
  72
65
  73
0
  40
0.0
  0
LTYPE
  5
410
  2
DASHDOT
 70
0
  3
Dash Dot ____ _ ____ _
 72
65
 73
4
 40
2.0
 49
1.25
 49
-0.25
 49
0.25
 49
-0.25
  0
LTYPE
  5
411
  2
DASHED
 70
0
  3
Dashed __ __ __ __ __
 72
65
 73
2
 40
0.75
 49
0.5
 49
-0.25
  0
LTYPE
  5
43B
  2
DOTTED
 70
0
  3
Dotted .  .  .  .
 72
65
 73
2
 40
0.2
 49
0.0
 49
-0.2
  0
ENDTAB
  0
TABLE
  2
STYLE
  70
4
  0
STYLE
  2
KICAD
  70
0
  40
0
  41
1
  42
1
  50
0
  71
0
  3
isocp.shx
  0
STYLE
  2
KICADB
  70
0
  40
0
  41
1
  42
1
  50
0
  71
0
  3
isocp.shx
  0
STYLE
  2
KICADI
  70
0
  40
0
  41
1
  42
1
  50
15
  71
0
  3
isocp.shx
  0
STYLE
  2
KICADBI
  70
0
  40
0
  41
1
  42
1
  50
15
  71
0
  3
isocp.shx
  0
ENDTAB
  0
TABLE
  2
LAYER
  70
1
  0
LAYER
  2
BLACK
  70
0
  62
7
  6
CONTINUOUS
  0
ENDTAB
  0
ENDSEC
  0
SECTION
  2
ENTITIES
0
LINE
8
BLACK
6
CONTINUOUS
10
0.0205096
20
-1.48368
11
0.0338744
21
-1.48685
0
LINE
8
BLACK
6
CONTINUOUS
10
0.0338744
20
-1.48685
11
0.0467811
21
-1.49155
0
LINE
8
BLACK
6
CONTINUOUS
10
0.0467811
20
-1.49155
11
0.0590551
21
-1.49771
0
LINE
8
BLACK
6
CONTINUOUS
10
0.0590551
20
-1.49771
11
0.0705306
21
-1.50526
0
LINE
8
BLACK
6
CONTINUOUS
10
0.0705306
20
-1.50526
11
0.0810522
21
-1.51409
0
LINE
8
BLACK
6
CONTINUOUS
10
0.0810522
20
-1.51409
11
0.0904777
21
-1.52408
0
LINE
8
BLACK
6
CONTINUOUS
10
0.0904777
20
-1.52408
11
0.0986796
21
-1.5351
0
LINE
8
BLACK
6
CONTINUOUS
10
0.0986796
20
-1.5351
11
0.105547
21
-1.54699
0
LINE
8
BLACK
6
CONTINUOUS
10
0.105547
20
-1.54699
11
0.110987
21
-1.5596
0
LINE
8
BLACK
6
CONTINUOUS
10
0.110987
20
-1.5596
11
0.114927
21
-1.57276
0
LINE
8
BLACK
6
CONTINUOUS
10
0.114927
20
-1.57276
11
0.117312
21
-1.58629
0
LINE
8
BLACK
6
CONTINUOUS
10
0.117312
20
-1.58629
11
0.11811
21
-1.6
0
LINE
8
BLACK
6
CONTINUOUS
10
0.11811
20
-1.6
11
0.117312
21
-1.61371
0
LINE
8
BLACK
6
CONTINUOUS
10
0.117312
20
-1.61371
11
0.114927
21
-1.62724
0
LINE
8
BLACK
6
CONTINUOUS
10
0.114927
20
-1.62724
11
0.110987
21
-1.6404
0
LINE
8
BLACK
6
CONTINUOUS
10
0.110987
20
-1.6404
11
0.105547
21
-1.65301
0
LINE
8
BLACK
6
CONTINUOUS
10
0.105547
20
-1.65301
11
0.0986796
21
-1.6649
0
LINE
8
BLACK
6
CONTINUOUS
10
0.0986796
20
-1.6649
11
0.0904777
21
-1.67592
0
LINE
8
BLACK
6
CONTINUOUS
10
0.0904777
20
-1.67592
11
0.0810522
21
-1.68591
0
LINE
8
BLACK
6
CONTINUOUS
10
0.0810522
20
-1.68591
11
0.0705306
21
-1.69474
0
LINE
8
BLACK
6
CONTINUOUS
10
0.0705306
20
-1.69474
11
0.0590551
21
-1.70229
0
LINE
8
BLACK
6
CONTINUOUS
10
0.0590551
20
-1.70229
11
0.0467811
21
-1.70845
0
LINE
8
BLACK
6
CONTINUOUS
10
0.0467811
20
-1.70845
11
0.0338744
21
-1.71315
0
LINE
8
BLACK
6
CONTINUOUS
10
0.0338744
20
-1.71315
11
0.0205096
21
-1.71632
0
LINE
8
BLACK
6
CONTINUOUS
10
0.0205096
20
-1.71632
11
0.00686748
21
-1.71791
0
LINE
8
BLACK
6
CONTINUOUS
10
0.00686748
20
-1.71791
11
-0.00686748
21
-1.71791
0
LINE
8
BLACK
6
CONTINUOUS
10
-0.00686748
20
-1.71791
11
-0.0205096
21
-1.71632
0
LINE
8
BLACK
6
CONTINUOUS
10
-0.0205096
20
-1.71632
11
-0.0338744
21
-1.71315
0
LINE
8
BLACK
6
CONTINUOUS
10
-0.0338744
20
-1.71315
11
-0.0467811
21
-1.70845
0
LINE
8
BLACK
6
CONTINUOUS
10
-0.0467811
20
-1.70845
11
-0.0590551
21
-1.70229
0
LINE
8
BLACK
6
CONTINUOUS
10
-0.0590551
20
-1.70229
11
-0.0705306
21
-1.69474
0
LINE
8
BLACK
6
CONTINUOUS
10
-0.0705306
20
-1.69474
11
-0.0810522
21
-1.68591
0
LINE
8
BLACK
6
CONTINUOUS
10
-0.0810522
20
-1.68591
11
-0.0904777
21
-1.67592
0
LINE
8
BLACK
6
CONTINUOUS
10
-0.0904777
20
-1.67592
11
-0.0986796
21
-1.6649
0
LINE
8
BLACK
6
CONTINUOUS
10
-0.0986796
20
-1.6649
11
-0.105547
21
-1.65301
0
LINE
8
BLACK
6
CONTINUOUS
10
-0.105547
20
-1.65301
11
-0.110987
21
-1.6404
0
LINE
8
BLACK
6
CONTINUOUS
10
-0.110987
20
-1.6404
11
-0.114927
21
-1.62724
0
LINE
8
BLACK
6
CONTINUOUS
10
-0.114927
20
-1.62724
11
-0.117312
21
-1.61371
0
LINE
8
BLACK
6
CONTINUOUS
10
-0.117312
20
-1.61371
11
-0.11811
21
-1.6
0
LINE
8
BLACK
6
CONTINUOUS
10
-0.11811
20
-1.6
11
-0.117312
21
-1.58629
0
LINE
8
BLACK
6
CONTINUOUS
10
-0.117312
20
-1.58629
11
-0.114927
21
-1.57276
0
LINE
8
BLACK
6
CONTINUOUS
10
-0.114927
20
-1.57276
11
-0.110987
21
-1.5596
0
LINE
8
BLACK
6
CONTINUOUS
10
-0.110987
20
-1.5596
11
-0.105547
21
-1.54699
0
LINE
8
BLACK
6
CONTINUOUS
10
-0.105547
20
-1.54699
11
-0.0986796
21
-1.5351
0
LINE
8
BLACK
6
CONTINUOUS
10
-0.0986796
20
-1.5351
11
-0.0904777
21
-1.52408
0
LINE
8
BLACK
6
CONTINUOUS
10
-0.0904777
20
-1.52408
11
-0.0810522
21
-1.51409
0
LINE
8
BLACK
6
CONTINUOUS
10
-0.0810522
20
-1.51409
11
-0.0705306
21
-1.50526
0
LINE
8
BLACK
6
CONTINUOUS
10
-0.0705306
20
-1.50526
11
-0.0590551
21
-1.49771
0
LINE
8
BLACK
6
CONTINUOUS
10
-0.0590551
20
-1.49771
11
-0.0467811
21
-1.49155
0
LINE
8
BLACK
6
CONTINUOUS
10
-0.0467811
20
-1.49155
11
-0.0338744
21
-1.48685
0
LINE
8
BLACK
6
CONTINUOUS
10
-0.0338744
20
-1.48685
11
-0.0205096
21
-1.48368
0
LINE
8
BLACK
6
CONTINUOUS
10
-0.0205096
20
-1.48368
11
-0.00686748
21
-1.48209
0
LINE
8
BLACK
6
CONTINUOUS
10
-0.00686748
20
-1.48209
11
0.00686748
21
-1.48209
0
LINE
8
BLACK
6
CONTINUOUS
10
0.00686748
20
-1.48209
11
0.0205096
21
-1.48368
0
LINE
8
BLACK
6
CONTINUOUS
10
0.0205096
20
0.116316
11
0.0338744
21
0.113148
0
LINE
8
BLACK
6
CONTINUOUS
10
0.0338744
20
0.113148
11
0.0467811
21
0.108451
0
LINE
8
BLACK
6
CONTINUOUS
10
0.0467811
20
0.108451
11
0.0590551
21
0.102286
0
LINE
8
BLACK
6
CONTINUOUS
10
0.0590551
20
0.102286
11
0.0705306
21
0.094739
0
LINE
8
BLACK
6
CONTINUOUS
10
0.0705306
20
0.094739
11
0.0810522
21
0.0859103
0
LINE
8
BLACK
6
CONTINUOUS
10
0.0810522
20
0.0859103
11
0.0904777
21
0.0759198
0
LINE
8
BLACK
6
CONTINUOUS
10
0.0904777
20
0.0759198
11
0.0986796
21
0.0649026
0
LINE
8
BLACK
6
CONTINUOUS
10
0.0986796
20
0.0649026
11
0.105547
21
0.0530078
0
LINE
8
BLACK
6
CONTINUOUS
10
0.105547
20
0.0530078
11
0.110987
21
0.0403961
0
LINE
8
BLACK
6
CONTINUOUS
10
0.110987
20
0.0403961
11
0.114927
21
0.0272381
0
LINE
8
BLACK
6
CONTINUOUS
10
0.114927
20
0.0272381
11
0.117312
21
0.0137118
0
LINE
8
BLACK
6
CONTINUOUS
10
0.117312
20
0.0137118
11
0.11811
21
0
0
LINE
8
BLACK
6
CONTINUOUS
10
0.11811
20
0
11
0.117312
21
-0.0137118
0
LINE
8
BLACK
6
CONTINUOUS
10
0.117312
20
-0.0137118
11
0.114927
21
-0.0272381
0
LINE
8
BLACK
6
CONTINUOUS
10
0.114927
20
-0.0272381
11
0.110987
21
-0.0403961
0
LINE
8
BLACK
6
CONTINUOUS
10
0.110987
20
-0.0403961
11
0.105547
21
-0.0530078
0
LINE
8
BLACK
6
CONTINUOUS
10
0.105547
20
-0.0530078
11
0.0986796
21
-0.0649026
0
LINE
8
BLACK
6
CONTINUOUS
10
0.0986796
20
-0.0649026
11
0.0904777
21
-0.0759198
0
LINE
8
BLACK
6
CONTINUOUS
10
0.0904777
20
-0.0759198
11
0.0810522
21
-0.0859103
0
LINE
8
BLACK
6
CONTINUOUS
10
0.0810522
20
-0.0859103
11
0.0705306
21
-0.094739
0
LINE
8
BLACK
6
CONTINUOUS
10
0.0705306
20
-0.094739
11
0.0590551
21
-0.102286
0
LINE
8
BLACK
6
CONTINUOUS
10
0.0590551
20
-0.102286
11
0.0467811
21
-0.108451
0
LINE
8
BLACK
6
CONTINUOUS
10
0.0467811
20
-0.108451
11
0.0338744
21
-0.113148
0
LINE
8
BLACK
6
CONTINUOUS
10
0.0338744
20
-0.113148
11
0.0205096
21
-0.116316
0
LINE
8
BLACK
6
CONTINUOUS
10
0.0205096
20
-0.116316
11
0.00686748
21
-0.11791
0
LINE
8
BLACK
6
CONTINUOUS
10
0.00686748
20
-0.11791
11
-0.00686748
21
-0.11791
0
LINE
8
BLACK
6
CONTINUOUS
10
-0.00686748
20
-0.11791
11
-0.0205096
21
-0.116316
0
LINE
8
BLACK
6
CONTINUOUS
10
-0.0205096
20
-0.116316
11
-0.0338744
21
-0.113148
0
LINE
8
BLACK
6
CONTINUOUS
10
-0.0338744
20
-0.113148
11
-0.0467811
21
-0.108451
0
LINE
8
BLACK
6
CONTINUOUS
10
-0.0467811
20
-0.108451
11
-0.0590551
21
-0.102286
0
LINE
8
BLACK
6
CONTINUOUS
10
-0.0590551
20
-0.102286
11
-0.0705306
21
-0.094739
0
LINE
8
BLACK
6
CONTINUOUS
10
-0.0705306
20
-0.094739
11
-0.0810522
21
-0.0859103
0
LINE
8
BLACK
6
CONTINUOUS
10
-0.0810522
20
-0.0859103
11
-0.0904777
21
-0.0759198
0
LINE
8
BLACK
6
CONTINUOUS
10
-0.0904777
20
-0.0759198
11
-0.0986796
21
-0.0649026
0
LINE
8
BLACK
6
CONTINUOUS
10
-0.0986796
20
-0.0649026
11
-0.105547
21
-0.0530078
0
LINE
8
BLACK
6
CONTINUOUS
10
-0.105547
20
-0.0530078
11
-0.110987
21
-0.0403961
0
LINE
8
BLACK
6
CONTINUOUS
10
-0.110987
20
-0.0403961
11
-0.114927
21
-0.0272381
0
LINE
8
BLACK
6
CONTINUOUS
10
-0.114927
20
-0.0272381
11
-0.117312
21
-0.0137118
0
LINE
8
BLACK
6
CONTINUOUS
10
-0.117312
20
-0.0137118
11
-0.11811
21
0
0
LINE
8
BLACK
6
CONTINUOUS
10
-0.11811
20
0
11
-0.117312
21
0.0137118
0
LINE
8
BLACK
6
CONTINUOUS
10
-0.117312
20
0.0137118
11
-0.114927
21
0.0272381
0
LINE
8
BLACK
6
CONTINUOUS
10
-0.114927
20
0.0272381
11
-0.110987
21
0.0403961
0
LINE
8
BLACK
6
CONTINUOUS
10
-0.110987
20
0.0403961
11
-0.105547
21
0.0530078
0
LINE
8
BLACK
6
CONTINUOUS
10
-0.105547
20
0.0530078
11
-0.0986796
21
0.0649026
0
LINE
8
BLACK
6
CONTINUOUS
10
-0.0986796
20
0.0649026
11
-0.0904777
21
0.0759198
0
LINE
8
BLACK
6
CONTINUOUS
10
-0.0904777
20
0.0759198
11
-0.0810522
21
0.0859103
0
LINE
8
BLACK
6
CONTINUOUS
10
-0.0810522
20
0.0859103
11
-0.0705306
21
0.094739
0
LINE
8
BLACK
6
CONTINUOUS
10
-0.0705306
20
0.094739
11
-0.0590551
21
0.102286
0
LINE
8
BLACK
6
CONTINUOUS
10
-0.0590551
20
0.102286
11
-0.0467811
21
0.108451
0
LINE
8
BLACK
6
CONTINUOUS
10
-0.0467811
20
0.108451
11
-0.0338744
21
0.113148
0
LINE
8
BLACK
6
CONTINUOUS
10
-0.0338744
20
0.113148
11
-0.0205096
21
0.116316
0
LINE
8
BLACK
6
CONTINUOUS
10
-0.0205096
20
0.116316
11
-0.00686748
21
0.11791
0
LINE
8
BLACK
6
CONTINUOUS
10
-0.00686748
20
0.11791
11
0.00686748
21
0.11791
0
LINE
8
BLACK
6
CONTINUOUS
10
0.00686748
20
0.11791
11
0.0205096
21
0.116316
  0
ENDSEC
  0
EOF
