  0
SECTION
  2
HEADER
  9
$ANGBASE
  50
0.0
  9
$ANGDIR
  70
1
  9
$MEASUREMENT
  70
0
  0
ENDSEC
  0
SECTION
  2
TABLES
  0
TABLE
  2
LTYPE
  70
4
  0
LTYPE
  5
40F
  2
CONTINUOUS
  70
0
  3
Solid line
  72
65
  73
0
  40
0.0
  0
LTYPE
  5
410
  2
DASHDOT
 70
0
  3
Dash Dot ____ _ ____ _
 72
65
 73
4
 40
2.0
 49
1.25
 49
-0.25
 49
0.25
 49
-0.25
  0
LTYPE
  5
411
  2
DASHED
 70
0
  3
Dashed __ __ __ __ __
 72
65
 73
2
 40
0.75
 49
0.5
 49
-0.25
  0
LTYPE
  5
43B
  2
DOTTED
 70
0
  3
Dotted .  .  .  .
 72
65
 73
2
 40
0.2
 49
0.0
 49
-0.2
  0
ENDTAB
  0
TABLE
  2
STYLE
  70
4
  0
STYLE
  2
KICAD
  70
0
  40
0
  41
1
  42
1
  50
0
  71
0
  3
isocp.shx
  0
STYLE
  2
KICADB
  70
0
  40
0
  41
1
  42
1
  50
0
  71
0
  3
isocp.shx
  0
STYLE
  2
KICADI
  70
0
  40
0
  41
1
  42
1
  50
15
  71
0
  3
isocp.shx
  0
STYLE
  2
KICADBI
  70
0
  40
0
  41
1
  42
1
  50
15
  71
0
  3
isocp.shx
  0
ENDTAB
  0
TABLE
  2
LAYER
  70
1
  0
LAYER
  2
BLACK
  70
0
  62
7
  6
CONTINUOUS
  0
ENDTAB
  0
ENDSEC
  0
SECTION
  2
ENTITIES
0
LINE
8
BLACK
6
CONTINUOUS
10
1.27681
20
-0.28972
11
1.27813
21
-0.289927
0
LINE
8
BLACK
6
CONTINUOUS
10
1.27813
20
-0.289927
11
1.27948
21
-0.289935
0
LINE
8
BLACK
6
CONTINUOUS
10
1.27948
20
-0.289935
11
1.28088
21
-0.290354
0
LINE
8
BLACK
6
CONTINUOUS
10
1.28088
20
-0.290354
11
1.28232
21
-0.290579
0
LINE
8
BLACK
6
CONTINUOUS
10
1.28232
20
-0.290579
11
1.28354
21
-0.291149
0
LINE
8
BLACK
6
CONTINUOUS
10
1.28354
20
-0.291149
11
1.28482
21
-0.291534
0
LINE
8
BLACK
6
CONTINUOUS
10
1.28482
20
-0.291534
11
1.28605
21
-0.292329
0
LINE
8
BLACK
6
CONTINUOUS
10
1.28605
20
-0.292329
11
1.28738
21
-0.292951
0
LINE
8
BLACK
6
CONTINUOUS
10
1.28738
20
-0.292951
11
1.28838
21
-0.293839
0
LINE
8
BLACK
6
CONTINUOUS
10
1.28838
20
-0.293839
11
1.28951
21
-0.29457
0
LINE
8
BLACK
6
CONTINUOUS
10
1.28951
20
-0.29457
11
1.29046
21
-0.295678
0
LINE
8
BLACK
6
CONTINUOUS
10
1.29046
20
-0.295678
11
1.29156
21
-0.296645
0
LINE
8
BLACK
6
CONTINUOUS
10
1.29156
20
-0.296645
11
1.29228
21
-0.297781
0
LINE
8
BLACK
6
CONTINUOUS
10
1.29228
20
-0.297781
11
1.29315
21
-0.298798
0
LINE
8
BLACK
6
CONTINUOUS
10
1.29315
20
-0.298798
11
1.29376
21
-0.300129
0
LINE
8
BLACK
6
CONTINUOUS
10
1.29376
20
-0.300129
11
1.29454
21
-0.301366
0
LINE
8
BLACK
6
CONTINUOUS
10
1.29454
20
-0.301366
11
1.29491
21
-0.302657
0
LINE
8
BLACK
6
CONTINUOUS
10
1.29491
20
-0.302657
11
1.29546
21
-0.303879
0
LINE
8
BLACK
6
CONTINUOUS
10
1.29546
20
-0.303879
11
1.29567
21
-0.305326
0
LINE
8
BLACK
6
CONTINUOUS
10
1.29567
20
-0.305326
11
1.29607
21
-0.306732
0
LINE
8
BLACK
6
CONTINUOUS
10
1.29607
20
-0.306732
11
1.29606
21
-0.308075
0
LINE
8
BLACK
6
CONTINUOUS
10
1.29606
20
-0.308075
11
1.29625
21
-0.309404
0
LINE
8
BLACK
6
CONTINUOUS
10
1.29625
20
-0.309404
11
1.29625
21
-0.805467
0
LINE
8
BLACK
6
CONTINUOUS
10
1.29625
20
-0.805467
11
1.29625
21
-0.805707
0
LINE
8
BLACK
6
CONTINUOUS
10
1.29625
20
-0.805707
11
1.29604
21
-0.807034
0
LINE
8
BLACK
6
CONTINUOUS
10
1.29604
20
-0.807034
11
1.29604
21
-0.808376
0
LINE
8
BLACK
6
CONTINUOUS
10
1.29604
20
-0.808376
11
1.29562
21
-0.809777
0
LINE
8
BLACK
6
CONTINUOUS
10
1.29562
20
-0.809777
11
1.29539
21
-0.811222
0
LINE
8
BLACK
6
CONTINUOUS
10
1.29539
20
-0.811222
11
1.29482
21
-0.812437
0
LINE
8
BLACK
6
CONTINUOUS
10
1.29482
20
-0.812437
11
1.29444
21
-0.813724
0
LINE
8
BLACK
6
CONTINUOUS
10
1.29444
20
-0.813724
11
1.29364
21
-0.814951
0
LINE
8
BLACK
6
CONTINUOUS
10
1.29364
20
-0.814951
11
1.29302
21
-0.816274
0
LINE
8
BLACK
6
CONTINUOUS
10
1.29302
20
-0.816274
11
1.29213
21
-0.81728
0
LINE
8
BLACK
6
CONTINUOUS
10
1.29213
20
-0.81728
11
1.2914
21
-0.818407
0
LINE
8
BLACK
6
CONTINUOUS
10
1.2914
20
-0.818407
11
1.29029
21
-0.819362
0
LINE
8
BLACK
6
CONTINUOUS
10
1.29029
20
-0.819362
11
1.28933
21
-0.820458
0
LINE
8
BLACK
6
CONTINUOUS
10
1.28933
20
-0.820458
11
1.28819
21
-0.821174
0
LINE
8
BLACK
6
CONTINUOUS
10
1.28819
20
-0.821174
11
1.28717
21
-0.82205
0
LINE
8
BLACK
6
CONTINUOUS
10
1.28717
20
-0.82205
11
1.28584
21
-0.822656
0
LINE
8
BLACK
6
CONTINUOUS
10
1.28584
20
-0.822656
11
1.28461
21
-0.823436
0
LINE
8
BLACK
6
CONTINUOUS
10
1.28461
20
-0.823436
11
1.28331
21
-0.823805
0
LINE
8
BLACK
6
CONTINUOUS
10
1.28331
20
-0.823805
11
1.28209
21
-0.824361
0
LINE
8
BLACK
6
CONTINUOUS
10
1.28209
20
-0.824361
11
1.28065
21
-0.824568
0
LINE
8
BLACK
6
CONTINUOUS
10
1.28065
20
-0.824568
11
1.27924
21
-0.82497
0
LINE
8
BLACK
6
CONTINUOUS
10
1.27924
20
-0.82497
11
1.2779
21
-0.824961
0
LINE
8
BLACK
6
CONTINUOUS
10
1.2779
20
-0.824961
11
1.27657
21
-0.825152
0
LINE
8
BLACK
6
CONTINUOUS
10
1.27657
20
-0.825152
11
0.796253
21
-0.825152
0
LINE
8
BLACK
6
CONTINUOUS
10
0.796253
20
-0.825152
11
0.796012
21
-0.82515
0
LINE
8
BLACK
6
CONTINUOUS
10
0.796012
20
-0.82515
11
0.794686
21
-0.824944
0
LINE
8
BLACK
6
CONTINUOUS
10
0.794686
20
-0.824944
11
0.793343
21
-0.824936
0
LINE
8
BLACK
6
CONTINUOUS
10
0.793343
20
-0.824936
11
0.791942
21
-0.824517
0
LINE
8
BLACK
6
CONTINUOUS
10
0.791942
20
-0.824517
11
0.790497
21
-0.824292
0
LINE
8
BLACK
6
CONTINUOUS
10
0.790497
20
-0.824292
11
0.789282
21
-0.823721
0
LINE
8
BLACK
6
CONTINUOUS
10
0.789282
20
-0.823721
11
0.787996
21
-0.823336
0
LINE
8
BLACK
6
CONTINUOUS
10
0.787996
20
-0.823336
11
0.786769
21
-0.822541
0
LINE
8
BLACK
6
CONTINUOUS
10
0.786769
20
-0.822541
11
0.785445
21
-0.82192
0
LINE
8
BLACK
6
CONTINUOUS
10
0.785445
20
-0.82192
11
0.784439
21
-0.821031
0
LINE
8
BLACK
6
CONTINUOUS
10
0.784439
20
-0.821031
11
0.783312
21
-0.820301
0
LINE
8
BLACK
6
CONTINUOUS
10
0.783312
20
-0.820301
11
0.782358
21
-0.819193
0
LINE
8
BLACK
6
CONTINUOUS
10
0.782358
20
-0.819193
11
0.781262
21
-0.818225
0
LINE
8
BLACK
6
CONTINUOUS
10
0.781262
20
-0.818225
11
0.780545
21
-0.817089
0
LINE
8
BLACK
6
CONTINUOUS
10
0.780545
20
-0.817089
11
0.779669
21
-0.816072
0
LINE
8
BLACK
6
CONTINUOUS
10
0.779669
20
-0.816072
11
0.779064
21
-0.814741
0
LINE
8
BLACK
6
CONTINUOUS
10
0.779064
20
-0.814741
11
0.778284
21
-0.813505
0
LINE
8
BLACK
6
CONTINUOUS
10
0.778284
20
-0.813505
11
0.777915
21
-0.812214
0
LINE
8
BLACK
6
CONTINUOUS
10
0.777915
20
-0.812214
11
0.777359
21
-0.810992
0
LINE
8
BLACK
6
CONTINUOUS
10
0.777359
20
-0.810992
11
0.777152
21
-0.809544
0
LINE
8
BLACK
6
CONTINUOUS
10
0.777152
20
-0.809544
11
0.77675
21
-0.808138
0
LINE
8
BLACK
6
CONTINUOUS
10
0.77675
20
-0.808138
11
0.776758
21
-0.806796
0
LINE
8
BLACK
6
CONTINUOUS
10
0.776758
20
-0.806796
11
0.776568
21
-0.805467
0
LINE
8
BLACK
6
CONTINUOUS
10
0.776568
20
-0.805467
11
0.776568
21
-0.309404
0
LINE
8
BLACK
6
CONTINUOUS
10
0.776568
20
-0.309404
11
0.776569
21
-0.309163
0
LINE
8
BLACK
6
CONTINUOUS
10
0.776569
20
-0.309163
11
0.776776
21
-0.307837
0
LINE
8
BLACK
6
CONTINUOUS
10
0.776776
20
-0.307837
11
0.776784
21
-0.306494
0
LINE
8
BLACK
6
CONTINUOUS
10
0.776784
20
-0.306494
11
0.777203
21
-0.305093
0
LINE
8
BLACK
6
CONTINUOUS
10
0.777203
20
-0.305093
11
0.777428
21
-0.303648
0
LINE
8
BLACK
6
CONTINUOUS
10
0.777428
20
-0.303648
11
0.777998
21
-0.302433
0
LINE
8
BLACK
6
CONTINUOUS
10
0.777998
20
-0.302433
11
0.778383
21
-0.301147
0
LINE
8
BLACK
6
CONTINUOUS
10
0.778383
20
-0.301147
11
0.779179
21
-0.29992
0
LINE
8
BLACK
6
CONTINUOUS
10
0.779179
20
-0.29992
11
0.7798
21
-0.298596
0
LINE
8
BLACK
6
CONTINUOUS
10
0.7798
20
-0.298596
11
0.780689
21
-0.29759
0
LINE
8
BLACK
6
CONTINUOUS
10
0.780689
20
-0.29759
11
0.781419
21
-0.296463
0
LINE
8
BLACK
6
CONTINUOUS
10
0.781419
20
-0.296463
11
0.782527
21
-0.295509
0
LINE
8
BLACK
6
CONTINUOUS
10
0.782527
20
-0.295509
11
0.783495
21
-0.294413
0
LINE
8
BLACK
6
CONTINUOUS
10
0.783495
20
-0.294413
11
0.78463
21
-0.293696
0
LINE
8
BLACK
6
CONTINUOUS
10
0.78463
20
-0.293696
11
0.785647
21
-0.29282
0
LINE
8
BLACK
6
CONTINUOUS
10
0.785647
20
-0.29282
11
0.786978
21
-0.292215
0
LINE
8
BLACK
6
CONTINUOUS
10
0.786978
20
-0.292215
11
0.788215
21
-0.291435
0
LINE
8
BLACK
6
CONTINUOUS
10
0.788215
20
-0.291435
11
0.789506
21
-0.291066
0
LINE
8
BLACK
6
CONTINUOUS
10
0.789506
20
-0.291066
11
0.790728
21
-0.29051
0
LINE
8
BLACK
6
CONTINUOUS
10
0.790728
20
-0.29051
11
0.792175
21
-0.290303
0
LINE
8
BLACK
6
CONTINUOUS
10
0.792175
20
-0.290303
11
0.793581
21
-0.289901
0
LINE
8
BLACK
6
CONTINUOUS
10
0.793581
20
-0.289901
11
0.794924
21
-0.289909
0
LINE
8
BLACK
6
CONTINUOUS
10
0.794924
20
-0.289909
11
0.796253
21
-0.289719
0
LINE
8
BLACK
6
CONTINUOUS
10
0.796253
20
-0.289719
11
1.27657
21
-0.289719
0
LINE
8
BLACK
6
CONTINUOUS
10
1.27657
20
-0.289719
11
1.27681
21
-0.28972
0
LINE
8
BLACK
6
CONTINUOUS
10
0.815938
20
-0.329089
11
0.815938
21
-0.785782
0
LINE
8
BLACK
6
CONTINUOUS
10
0.815938
20
-0.785782
11
1.25688
21
-0.785782
0
LINE
8
BLACK
6
CONTINUOUS
10
1.25688
20
-0.785782
11
1.25688
21
-0.329089
0
LINE
8
BLACK
6
CONTINUOUS
10
1.25688
20
-0.329089
11
0.815938
21
-0.329089
  0
ENDSEC
  0
EOF
