  0
SECTION
  2
HEADER
  9
$ANGBASE
  50
0.0
  9
$ANGDIR
  70
1
  9
$MEASUREMENT
  70
0
  0
ENDSEC
  0
SECTION
  2
TABLES
  0
TABLE
  2
LTYPE
  70
4
  0
LTYPE
  5
40F
  2
CONTINUOUS
  70
0
  3
Solid line
  72
65
  73
0
  40
0.0
  0
LTYPE
  5
410
  2
DASHDOT
 70
0
  3
Dash Dot ____ _ ____ _
 72
65
 73
4
 40
2.0
 49
1.25
 49
-0.25
 49
0.25
 49
-0.25
  0
LTYPE
  5
411
  2
DASHED
 70
0
  3
Dashed __ __ __ __ __
 72
65
 73
2
 40
0.75
 49
0.5
 49
-0.25
  0
LTYPE
  5
43B
  2
DOTTED
 70
0
  3
Dotted .  .  .  .
 72
65
 73
2
 40
0.2
 49
0.0
 49
-0.2
  0
ENDTAB
  0
TABLE
  2
STYLE
  70
4
  0
STYLE
  2
KICAD
  70
0
  40
0
  41
1
  42
1
  50
0
  71
0
  3
isocp.shx
  0
STYLE
  2
KICADB
  70
0
  40
0
  41
1
  42
1
  50
0
  71
0
  3
isocp.shx
  0
STYLE
  2
KICADI
  70
0
  40
0
  41
1
  42
1
  50
15
  71
0
  3
isocp.shx
  0
STYLE
  2
KICADBI
  70
0
  40
0
  41
1
  42
1
  50
15
  71
0
  3
isocp.shx
  0
ENDTAB
  0
TABLE
  2
LAYER
  70
1
  0
LAYER
  2
BLACK
  70
0
  62
7
  6
CONTINUOUS
  0
ENDTAB
  0
ENDSEC
  0
SECTION
  2
ENTITIES
0
LINE
8
BLACK
6
CONTINUOUS
10
4.95512
20
-3.17323
11
4.95512
21
-3.23583
0
LINE
8
BLACK
6
CONTINUOUS
10
4.95512
20
-3.23583
11
4.95454
21
-3.23722
0
LINE
8
BLACK
6
CONTINUOUS
10
4.95454
20
-3.23722
11
4.91772
21
-3.27404
0
LINE
8
BLACK
6
CONTINUOUS
10
4.91772
20
-3.27404
11
4.91772
21
-3.32323
0
LINE
8
BLACK
6
CONTINUOUS
10
4.91772
20
-3.32323
11
4.91714
21
-3.32462
0
LINE
8
BLACK
6
CONTINUOUS
10
4.91714
20
-3.32462
11
4.91575
21
-3.3252
0
LINE
8
BLACK
6
CONTINUOUS
10
4.91575
20
-3.3252
11
4.89055
21
-3.3252
0
LINE
8
BLACK
6
CONTINUOUS
10
4.89055
20
-3.3252
11
4.88916
21
-3.32462
0
LINE
8
BLACK
6
CONTINUOUS
10
4.88916
20
-3.32462
11
4.88858
21
-3.32323
0
LINE
8
BLACK
6
CONTINUOUS
10
4.88858
20
-3.32323
11
4.88858
21
-3.2752
0
LINE
8
BLACK
6
CONTINUOUS
10
4.88858
20
-3.2752
11
4.71772
21
-3.2752
0
LINE
8
BLACK
6
CONTINUOUS
10
4.71772
20
-3.2752
11
4.71772
21
-3.32323
0
LINE
8
BLACK
6
CONTINUOUS
10
4.71772
20
-3.32323
11
4.71714
21
-3.32462
0
LINE
8
BLACK
6
CONTINUOUS
10
4.71714
20
-3.32462
11
4.71575
21
-3.3252
0
LINE
8
BLACK
6
CONTINUOUS
10
4.71575
20
-3.3252
11
4.69055
21
-3.3252
0
LINE
8
BLACK
6
CONTINUOUS
10
4.69055
20
-3.3252
11
4.68916
21
-3.32462
0
LINE
8
BLACK
6
CONTINUOUS
10
4.68916
20
-3.32462
11
4.68858
21
-3.32323
0
LINE
8
BLACK
6
CONTINUOUS
10
4.68858
20
-3.32323
11
4.68858
21
-3.2752
0
LINE
8
BLACK
6
CONTINUOUS
10
4.68858
20
-3.2752
11
4.65315
21
-3.2752
0
LINE
8
BLACK
6
CONTINUOUS
10
4.65315
20
-3.2752
11
4.65176
21
-3.27462
0
LINE
8
BLACK
6
CONTINUOUS
10
4.65176
20
-3.27462
11
4.65118
21
-3.27323
0
LINE
8
BLACK
6
CONTINUOUS
10
4.65118
20
-3.27323
11
4.65118
21
-3.17323
0
LINE
8
BLACK
6
CONTINUOUS
10
4.65118
20
-3.17323
11
4.65176
21
-3.17184
0
LINE
8
BLACK
6
CONTINUOUS
10
4.65176
20
-3.17184
11
4.65315
21
-3.17126
0
LINE
8
BLACK
6
CONTINUOUS
10
4.65315
20
-3.17126
11
4.78858
21
-3.17126
0
LINE
8
BLACK
6
CONTINUOUS
10
4.78858
20
-3.17126
11
4.78858
21
-3.12323
0
LINE
8
BLACK
6
CONTINUOUS
10
4.78858
20
-3.12323
11
4.78916
21
-3.12184
0
LINE
8
BLACK
6
CONTINUOUS
10
4.78916
20
-3.12184
11
4.79055
21
-3.12126
0
LINE
8
BLACK
6
CONTINUOUS
10
4.79055
20
-3.12126
11
4.81575
21
-3.12126
0
LINE
8
BLACK
6
CONTINUOUS
10
4.81575
20
-3.12126
11
4.81714
21
-3.12184
0
LINE
8
BLACK
6
CONTINUOUS
10
4.81714
20
-3.12184
11
4.81772
21
-3.12323
0
LINE
8
BLACK
6
CONTINUOUS
10
4.81772
20
-3.12323
11
4.81772
21
-3.17126
0
LINE
8
BLACK
6
CONTINUOUS
10
4.81772
20
-3.17126
11
4.95315
21
-3.17126
0
LINE
8
BLACK
6
CONTINUOUS
10
4.95315
20
-3.17126
11
4.95454
21
-3.17184
0
LINE
8
BLACK
6
CONTINUOUS
10
4.95454
20
-3.17184
11
4.95512
21
-3.17323
0
LINE
8
BLACK
6
CONTINUOUS
10
4.89252
20
-3.2752
11
4.89252
21
-3.32126
0
LINE
8
BLACK
6
CONTINUOUS
10
4.89252
20
-3.32126
11
4.91378
21
-3.32126
0
LINE
8
BLACK
6
CONTINUOUS
10
4.91378
20
-3.32126
11
4.91378
21
-3.2752
0
LINE
8
BLACK
6
CONTINUOUS
10
4.91378
20
-3.2752
11
4.89252
21
-3.2752
0
LINE
8
BLACK
6
CONTINUOUS
10
4.69252
20
-3.2752
11
4.69252
21
-3.32126
0
LINE
8
BLACK
6
CONTINUOUS
10
4.69252
20
-3.32126
11
4.71378
21
-3.32126
0
LINE
8
BLACK
6
CONTINUOUS
10
4.71378
20
-3.32126
11
4.71378
21
-3.2752
0
LINE
8
BLACK
6
CONTINUOUS
10
4.71378
20
-3.2752
11
4.69252
21
-3.2752
0
LINE
8
BLACK
6
CONTINUOUS
10
4.65512
20
-3.27126
11
4.91493
21
-3.27126
0
LINE
8
BLACK
6
CONTINUOUS
10
4.91493
20
-3.27126
11
4.95118
21
-3.23501
0
LINE
8
BLACK
6
CONTINUOUS
10
4.95118
20
-3.23501
11
4.95118
21
-3.1752
0
LINE
8
BLACK
6
CONTINUOUS
10
4.95118
20
-3.1752
11
4.65512
21
-3.1752
0
LINE
8
BLACK
6
CONTINUOUS
10
4.65512
20
-3.1752
11
4.65512
21
-3.27126
0
LINE
8
BLACK
6
CONTINUOUS
10
4.79252
20
-3.1252
11
4.79252
21
-3.17126
0
LINE
8
BLACK
6
CONTINUOUS
10
4.79252
20
-3.17126
11
4.81378
21
-3.17126
0
LINE
8
BLACK
6
CONTINUOUS
10
4.81378
20
-3.17126
11
4.81378
21
-3.1252
0
LINE
8
BLACK
6
CONTINUOUS
10
4.81378
20
-3.1252
11
4.79252
21
-3.1252
0
LINE
8
BLACK
6
CONTINUOUS
10
4.78881
20
-3.19885
11
4.78898
21
-3.19883
0
LINE
8
BLACK
6
CONTINUOUS
10
4.78898
20
-3.19883
11
4.78967
21
-3.19934
0
LINE
8
BLACK
6
CONTINUOUS
10
4.78967
20
-3.19934
11
4.79041
21
-3.19977
0
LINE
8
BLACK
6
CONTINUOUS
10
4.79041
20
-3.19977
11
4.79047
21
-3.19993
0
LINE
8
BLACK
6
CONTINUOUS
10
4.79047
20
-3.19993
11
4.79061
21
-3.20003
0
LINE
8
BLACK
6
CONTINUOUS
10
4.79061
20
-3.20003
11
4.7942
21
-3.20541
0
LINE
8
BLACK
6
CONTINUOUS
10
4.7942
20
-3.20541
11
4.7974
21
-3.20862
0
LINE
8
BLACK
6
CONTINUOUS
10
4.7974
20
-3.20862
11
4.80072
21
-3.21028
0
LINE
8
BLACK
6
CONTINUOUS
10
4.80072
20
-3.21028
11
4.80154
21
-3.21089
0
LINE
8
BLACK
6
CONTINUOUS
10
4.80154
20
-3.21089
11
4.80235
21
-3.21274
0
LINE
8
BLACK
6
CONTINUOUS
10
4.80235
20
-3.21274
11
4.80177
21
-3.21468
0
LINE
8
BLACK
6
CONTINUOUS
10
4.80177
20
-3.21468
11
4.80009
21
-3.21579
0
LINE
8
BLACK
6
CONTINUOUS
10
4.80009
20
-3.21579
11
4.79808
21
-3.21556
0
LINE
8
BLACK
6
CONTINUOUS
10
4.79808
20
-3.21556
11
4.79433
21
-3.21368
0
LINE
8
BLACK
6
CONTINUOUS
10
4.79433
20
-3.21368
11
4.79362
21
-3.21316
0
LINE
8
BLACK
6
CONTINUOUS
10
4.79362
20
-3.21316
11
4.79356
21
-3.21313
0
LINE
8
BLACK
6
CONTINUOUS
10
4.79356
20
-3.21313
11
4.7911
21
-3.21067
0
LINE
8
BLACK
6
CONTINUOUS
10
4.7911
20
-3.21067
11
4.7911
21
-3.23809
0
LINE
8
BLACK
6
CONTINUOUS
10
4.7911
20
-3.23809
11
4.7994
21
-3.23809
0
LINE
8
BLACK
6
CONTINUOUS
10
4.7994
20
-3.23809
11
4.80041
21
-3.23826
0
LINE
8
BLACK
6
CONTINUOUS
10
4.80041
20
-3.23826
11
4.80196
21
-3.23956
0
LINE
8
BLACK
6
CONTINUOUS
10
4.80196
20
-3.23956
11
4.80231
21
-3.24155
0
LINE
8
BLACK
6
CONTINUOUS
10
4.80231
20
-3.24155
11
4.8013
21
-3.2433
0
LINE
8
BLACK
6
CONTINUOUS
10
4.8013
20
-3.2433
11
4.7994
21
-3.24399
0
LINE
8
BLACK
6
CONTINUOUS
10
4.7994
20
-3.24399
11
4.7769
21
-3.24399
0
LINE
8
BLACK
6
CONTINUOUS
10
4.7769
20
-3.24399
11
4.77589
21
-3.24381
0
LINE
8
BLACK
6
CONTINUOUS
10
4.77589
20
-3.24381
11
4.77435
21
-3.24251
0
LINE
8
BLACK
6
CONTINUOUS
10
4.77435
20
-3.24251
11
4.77399
21
-3.24053
0
LINE
8
BLACK
6
CONTINUOUS
10
4.77399
20
-3.24053
11
4.775
21
-3.23878
0
LINE
8
BLACK
6
CONTINUOUS
10
4.775
20
-3.23878
11
4.7769
21
-3.23809
0
LINE
8
BLACK
6
CONTINUOUS
10
4.7769
20
-3.23809
11
4.7852
21
-3.23809
0
LINE
8
BLACK
6
CONTINUOUS
10
4.7852
20
-3.23809
11
4.7852
21
-3.20167
0
LINE
8
BLACK
6
CONTINUOUS
10
4.7852
20
-3.20167
11
4.78538
21
-3.20066
0
LINE
8
BLACK
6
CONTINUOUS
10
4.78538
20
-3.20066
11
4.78549
21
-3.20053
0
LINE
8
BLACK
6
CONTINUOUS
10
4.78549
20
-3.20053
11
4.7855
21
-3.20036
0
LINE
8
BLACK
6
CONTINUOUS
10
4.7855
20
-3.20036
11
4.78612
21
-3.19977
0
LINE
8
BLACK
6
CONTINUOUS
10
4.78612
20
-3.19977
11
4.78668
21
-3.19911
0
LINE
8
BLACK
6
CONTINUOUS
10
4.78668
20
-3.19911
11
4.78684
21
-3.19908
0
LINE
8
BLACK
6
CONTINUOUS
10
4.78684
20
-3.19908
11
4.78697
21
-3.19896
0
LINE
8
BLACK
6
CONTINUOUS
10
4.78697
20
-3.19896
11
4.78782
21
-3.19891
0
LINE
8
BLACK
6
CONTINUOUS
10
4.78782
20
-3.19891
11
4.78866
21
-3.19876
0
LINE
8
BLACK
6
CONTINUOUS
10
4.78866
20
-3.19876
11
4.78881
21
-3.19885
0
LINE
8
BLACK
6
CONTINUOUS
10
4.81853
20
-3.19977
11
4.81923
21
-3.20167
0
LINE
8
BLACK
6
CONTINUOUS
10
4.81923
20
-3.20167
11
4.81923
21
-3.22931
0
LINE
8
BLACK
6
CONTINUOUS
10
4.81923
20
-3.22931
11
4.82073
21
-3.23382
0
LINE
8
BLACK
6
CONTINUOUS
10
4.82073
20
-3.23382
11
4.82349
21
-3.23658
0
LINE
8
BLACK
6
CONTINUOUS
10
4.82349
20
-3.23658
11
4.828
21
-3.23809
0
LINE
8
BLACK
6
CONTINUOUS
10
4.828
20
-3.23809
11
4.83127
21
-3.23809
0
LINE
8
BLACK
6
CONTINUOUS
10
4.83127
20
-3.23809
11
4.83228
21
-3.23826
0
LINE
8
BLACK
6
CONTINUOUS
10
4.83228
20
-3.23826
11
4.83383
21
-3.23956
0
LINE
8
BLACK
6
CONTINUOUS
10
4.83383
20
-3.23956
11
4.83418
21
-3.24155
0
LINE
8
BLACK
6
CONTINUOUS
10
4.83418
20
-3.24155
11
4.83317
21
-3.2433
0
LINE
8
BLACK
6
CONTINUOUS
10
4.83317
20
-3.2433
11
4.83127
21
-3.24399
0
LINE
8
BLACK
6
CONTINUOUS
10
4.83127
20
-3.24399
11
4.82752
21
-3.24399
0
LINE
8
BLACK
6
CONTINUOUS
10
4.82752
20
-3.24399
11
4.82665
21
-3.24384
0
LINE
8
BLACK
6
CONTINUOUS
10
4.82665
20
-3.24384
11
4.82659
21
-3.24384
0
LINE
8
BLACK
6
CONTINUOUS
10
4.82659
20
-3.24384
11
4.82096
21
-3.24197
0
LINE
8
BLACK
6
CONTINUOUS
10
4.82096
20
-3.24197
11
4.82006
21
-3.24148
0
LINE
8
BLACK
6
CONTINUOUS
10
4.82006
20
-3.24148
11
4.81997
21
-3.24133
0
LINE
8
BLACK
6
CONTINUOUS
10
4.81997
20
-3.24133
11
4.81981
21
-3.24125
0
LINE
8
BLACK
6
CONTINUOUS
10
4.81981
20
-3.24125
11
4.81606
21
-3.2375
0
LINE
8
BLACK
6
CONTINUOUS
10
4.81606
20
-3.2375
11
4.81547
21
-3.23666
0
LINE
8
BLACK
6
CONTINUOUS
10
4.81547
20
-3.23666
11
4.81546
21
-3.23649
0
LINE
8
BLACK
6
CONTINUOUS
10
4.81546
20
-3.23649
11
4.81535
21
-3.23635
0
LINE
8
BLACK
6
CONTINUOUS
10
4.81535
20
-3.23635
11
4.81347
21
-3.23072
0
LINE
8
BLACK
6
CONTINUOUS
10
4.81347
20
-3.23072
11
4.81334
21
-3.22985
0
LINE
8
BLACK
6
CONTINUOUS
10
4.81334
20
-3.22985
11
4.81332
21
-3.22979
0
LINE
8
BLACK
6
CONTINUOUS
10
4.81332
20
-3.22979
11
4.81332
21
-3.20167
0
LINE
8
BLACK
6
CONTINUOUS
10
4.81332
20
-3.20167
11
4.8135
21
-3.20066
0
LINE
8
BLACK
6
CONTINUOUS
10
4.8135
20
-3.20066
11
4.8148
21
-3.19911
0
LINE
8
BLACK
6
CONTINUOUS
10
4.8148
20
-3.19911
11
4.81679
21
-3.19876
0
LINE
8
BLACK
6
CONTINUOUS
10
4.81679
20
-3.19876
11
4.81853
21
-3.19977
  0
ENDSEC
  0
EOF
