  0
SECTION
  2
HEADER
  9
$ANGBASE
  50
0.0
  9
$ANGDIR
  70
1
  9
$MEASUREMENT
  70
0
  0
ENDSEC
  0
SECTION
  2
TABLES
  0
TABLE
  2
LTYPE
  70
4
  0
LTYPE
  5
40F
  2
CONTINUOUS
  70
0
  3
Solid line
  72
65
  73
0
  40
0.0
  0
LTYPE
  5
410
  2
DASHDOT
 70
0
  3
Dash Dot ____ _ ____ _
 72
65
 73
4
 40
2.0
 49
1.25
 49
-0.25
 49
0.25
 49
-0.25
  0
LTYPE
  5
411
  2
DASHED
 70
0
  3
Dashed __ __ __ __ __
 72
65
 73
2
 40
0.75
 49
0.5
 49
-0.25
  0
LTYPE
  5
43B
  2
DOTTED
 70
0
  3
Dotted .  .  .  .
 72
65
 73
2
 40
0.2
 49
0.0
 49
-0.2
  0
ENDTAB
  0
TABLE
  2
STYLE
  70
4
  0
STYLE
  2
KICAD
  70
0
  40
0
  41
1
  42
1
  50
0
  71
0
  3
isocp.shx
  0
STYLE
  2
KICADB
  70
0
  40
0
  41
1
  42
1
  50
0
  71
0
  3
isocp.shx
  0
STYLE
  2
KICADI
  70
0
  40
0
  41
1
  42
1
  50
15
  71
0
  3
isocp.shx
  0
STYLE
  2
KICADBI
  70
0
  40
0
  41
1
  42
1
  50
15
  71
0
  3
isocp.shx
  0
ENDTAB
  0
TABLE
  2
LAYER
  70
1
  0
LAYER
  2
BLACK
  70
0
  62
7
  6
CONTINUOUS
  0
ENDTAB
  0
ENDSEC
  0
SECTION
  2
ENTITIES
0
LINE
8
BLACK
6
CONTINUOUS
10
1.27796
20
-0.289919
11
1.27937
21
-0.289919
0
LINE
8
BLACK
6
CONTINUOUS
10
1.27937
20
-0.289919
11
1.28072
21
-0.290316
0
LINE
8
BLACK
6
CONTINUOUS
10
1.28072
20
-0.290316
11
1.28211
21
-0.290516
0
LINE
8
BLACK
6
CONTINUOUS
10
1.28211
20
-0.290516
11
1.28339
21
-0.291101
0
LINE
8
BLACK
6
CONTINUOUS
10
1.28339
20
-0.291101
11
1.28475
21
-0.291498
0
LINE
8
BLACK
6
CONTINUOUS
10
1.28475
20
-0.291498
11
1.28593
21
-0.292259
0
LINE
8
BLACK
6
CONTINUOUS
10
1.28593
20
-0.292259
11
1.28721
21
-0.292844
0
LINE
8
BLACK
6
CONTINUOUS
10
1.28721
20
-0.292844
11
1.28827
21
-0.293766
0
LINE
8
BLACK
6
CONTINUOUS
10
1.28827
20
-0.293766
11
1.28946
21
-0.294527
0
LINE
8
BLACK
6
CONTINUOUS
10
1.28946
20
-0.294527
11
1.29038
21
-0.295591
0
LINE
8
BLACK
6
CONTINUOUS
10
1.29038
20
-0.295591
11
1.29144
21
-0.296513
0
LINE
8
BLACK
6
CONTINUOUS
10
1.29144
20
-0.296513
11
1.29221
21
-0.297697
0
LINE
8
BLACK
6
CONTINUOUS
10
1.29221
20
-0.297697
11
1.29313
21
-0.298761
0
LINE
8
BLACK
6
CONTINUOUS
10
1.29313
20
-0.298761
11
1.29371
21
-0.300042
0
LINE
8
BLACK
6
CONTINUOUS
10
1.29371
20
-0.300042
11
1.29447
21
-0.301226
0
LINE
8
BLACK
6
CONTINUOUS
10
1.29447
20
-0.301226
11
1.29487
21
-0.302577
0
LINE
8
BLACK
6
CONTINUOUS
10
1.29487
20
-0.302577
11
1.29546
21
-0.303858
0
LINE
8
BLACK
6
CONTINUOUS
10
1.29546
20
-0.303858
11
1.29566
21
-0.305251
0
LINE
8
BLACK
6
CONTINUOUS
10
1.29566
20
-0.305251
11
1.29605
21
-0.306602
0
LINE
8
BLACK
6
CONTINUOUS
10
1.29605
20
-0.306602
11
1.29605
21
-0.30801
0
LINE
8
BLACK
6
CONTINUOUS
10
1.29605
20
-0.30801
11
1.29625
21
-0.309404
0
LINE
8
BLACK
6
CONTINUOUS
10
1.29625
20
-0.309404
11
1.29625
21
-0.805467
0
LINE
8
BLACK
6
CONTINUOUS
10
1.29625
20
-0.805467
11
1.29605
21
-0.80686
0
LINE
8
BLACK
6
CONTINUOUS
10
1.29605
20
-0.80686
11
1.29605
21
-0.808268
0
LINE
8
BLACK
6
CONTINUOUS
10
1.29605
20
-0.808268
11
1.29566
21
-0.809619
0
LINE
8
BLACK
6
CONTINUOUS
10
1.29566
20
-0.809619
11
1.29546
21
-0.811013
0
LINE
8
BLACK
6
CONTINUOUS
10
1.29546
20
-0.811013
11
1.29487
21
-0.812293
0
LINE
8
BLACK
6
CONTINUOUS
10
1.29487
20
-0.812293
11
1.29447
21
-0.813644
0
LINE
8
BLACK
6
CONTINUOUS
10
1.29447
20
-0.813644
11
1.29371
21
-0.814829
0
LINE
8
BLACK
6
CONTINUOUS
10
1.29371
20
-0.814829
11
1.29313
21
-0.816109
0
LINE
8
BLACK
6
CONTINUOUS
10
1.29313
20
-0.816109
11
1.29221
21
-0.817173
0
LINE
8
BLACK
6
CONTINUOUS
10
1.29221
20
-0.817173
11
1.29144
21
-0.818358
0
LINE
8
BLACK
6
CONTINUOUS
10
1.29144
20
-0.818358
11
1.29038
21
-0.81928
0
LINE
8
BLACK
6
CONTINUOUS
10
1.29038
20
-0.81928
11
1.28946
21
-0.820344
0
LINE
8
BLACK
6
CONTINUOUS
10
1.28946
20
-0.820344
11
1.28827
21
-0.821105
0
LINE
8
BLACK
6
CONTINUOUS
10
1.28827
20
-0.821105
11
1.28721
21
-0.822027
0
LINE
8
BLACK
6
CONTINUOUS
10
1.28721
20
-0.822027
11
1.28593
21
-0.822612
0
LINE
8
BLACK
6
CONTINUOUS
10
1.28593
20
-0.822612
11
1.28475
21
-0.823373
0
LINE
8
BLACK
6
CONTINUOUS
10
1.28475
20
-0.823373
11
1.28339
21
-0.82377
0
LINE
8
BLACK
6
CONTINUOUS
10
1.28339
20
-0.82377
11
1.28211
21
-0.824354
0
LINE
8
BLACK
6
CONTINUOUS
10
1.28211
20
-0.824354
11
1.28072
21
-0.824555
0
LINE
8
BLACK
6
CONTINUOUS
10
1.28072
20
-0.824555
11
1.27937
21
-0.824951
0
LINE
8
BLACK
6
CONTINUOUS
10
1.27937
20
-0.824951
11
1.27796
21
-0.824951
0
LINE
8
BLACK
6
CONTINUOUS
10
1.27796
20
-0.824951
11
1.27657
21
-0.825152
0
LINE
8
BLACK
6
CONTINUOUS
10
1.27657
20
-0.825152
11
0.796253
21
-0.825152
0
LINE
8
BLACK
6
CONTINUOUS
10
0.796253
20
-0.825152
11
0.794859
21
-0.824951
0
LINE
8
BLACK
6
CONTINUOUS
10
0.794859
20
-0.824951
11
0.793451
21
-0.824951
0
LINE
8
BLACK
6
CONTINUOUS
10
0.793451
20
-0.824951
11
0.7921
21
-0.824555
0
LINE
8
BLACK
6
CONTINUOUS
10
0.7921
20
-0.824555
11
0.790707
21
-0.824354
0
LINE
8
BLACK
6
CONTINUOUS
10
0.790707
20
-0.824354
11
0.789426
21
-0.82377
0
LINE
8
BLACK
6
CONTINUOUS
10
0.789426
20
-0.82377
11
0.788075
21
-0.823373
0
LINE
8
BLACK
6
CONTINUOUS
10
0.788075
20
-0.823373
11
0.786891
21
-0.822612
0
LINE
8
BLACK
6
CONTINUOUS
10
0.786891
20
-0.822612
11
0.78561
21
-0.822027
0
LINE
8
BLACK
6
CONTINUOUS
10
0.78561
20
-0.822027
11
0.784546
21
-0.821105
0
LINE
8
BLACK
6
CONTINUOUS
10
0.784546
20
-0.821105
11
0.783362
21
-0.820344
0
LINE
8
BLACK
6
CONTINUOUS
10
0.783362
20
-0.820344
11
0.78244
21
-0.81928
0
LINE
8
BLACK
6
CONTINUOUS
10
0.78244
20
-0.81928
11
0.781376
21
-0.818358
0
LINE
8
BLACK
6
CONTINUOUS
10
0.781376
20
-0.818358
11
0.780615
21
-0.817173
0
LINE
8
BLACK
6
CONTINUOUS
10
0.780615
20
-0.817173
11
0.779693
21
-0.816109
0
LINE
8
BLACK
6
CONTINUOUS
10
0.779693
20
-0.816109
11
0.779108
21
-0.814829
0
LINE
8
BLACK
6
CONTINUOUS
10
0.779108
20
-0.814829
11
0.778347
21
-0.813644
0
LINE
8
BLACK
6
CONTINUOUS
10
0.778347
20
-0.813644
11
0.77795
21
-0.812293
0
LINE
8
BLACK
6
CONTINUOUS
10
0.77795
20
-0.812293
11
0.777365
21
-0.811013
0
LINE
8
BLACK
6
CONTINUOUS
10
0.777365
20
-0.811013
11
0.777165
21
-0.809619
0
LINE
8
BLACK
6
CONTINUOUS
10
0.777165
20
-0.809619
11
0.776768
21
-0.808268
0
LINE
8
BLACK
6
CONTINUOUS
10
0.776768
20
-0.808268
11
0.776768
21
-0.80686
0
LINE
8
BLACK
6
CONTINUOUS
10
0.776768
20
-0.80686
11
0.776568
21
-0.805467
0
LINE
8
BLACK
6
CONTINUOUS
10
0.776568
20
-0.805467
11
0.776568
21
-0.309404
0
LINE
8
BLACK
6
CONTINUOUS
10
0.776568
20
-0.309404
11
0.776768
21
-0.30801
0
LINE
8
BLACK
6
CONTINUOUS
10
0.776768
20
-0.30801
11
0.776768
21
-0.306602
0
LINE
8
BLACK
6
CONTINUOUS
10
0.776768
20
-0.306602
11
0.777165
21
-0.305251
0
LINE
8
BLACK
6
CONTINUOUS
10
0.777165
20
-0.305251
11
0.777365
21
-0.303858
0
LINE
8
BLACK
6
CONTINUOUS
10
0.777365
20
-0.303858
11
0.77795
21
-0.302577
0
LINE
8
BLACK
6
CONTINUOUS
10
0.77795
20
-0.302577
11
0.778347
21
-0.301226
0
LINE
8
BLACK
6
CONTINUOUS
10
0.778347
20
-0.301226
11
0.779108
21
-0.300042
0
LINE
8
BLACK
6
CONTINUOUS
10
0.779108
20
-0.300042
11
0.779693
21
-0.298761
0
LINE
8
BLACK
6
CONTINUOUS
10
0.779693
20
-0.298761
11
0.780615
21
-0.297697
0
LINE
8
BLACK
6
CONTINUOUS
10
0.780615
20
-0.297697
11
0.781376
21
-0.296513
0
LINE
8
BLACK
6
CONTINUOUS
10
0.781376
20
-0.296513
11
0.78244
21
-0.295591
0
LINE
8
BLACK
6
CONTINUOUS
10
0.78244
20
-0.295591
11
0.783362
21
-0.294527
0
LINE
8
BLACK
6
CONTINUOUS
10
0.783362
20
-0.294527
11
0.784546
21
-0.293766
0
LINE
8
BLACK
6
CONTINUOUS
10
0.784546
20
-0.293766
11
0.78561
21
-0.292844
0
LINE
8
BLACK
6
CONTINUOUS
10
0.78561
20
-0.292844
11
0.786891
21
-0.292259
0
LINE
8
BLACK
6
CONTINUOUS
10
0.786891
20
-0.292259
11
0.788075
21
-0.291498
0
LINE
8
BLACK
6
CONTINUOUS
10
0.788075
20
-0.291498
11
0.789426
21
-0.291101
0
LINE
8
BLACK
6
CONTINUOUS
10
0.789426
20
-0.291101
11
0.790707
21
-0.290516
0
LINE
8
BLACK
6
CONTINUOUS
10
0.790707
20
-0.290516
11
0.7921
21
-0.290316
0
LINE
8
BLACK
6
CONTINUOUS
10
0.7921
20
-0.290316
11
0.793451
21
-0.289919
0
LINE
8
BLACK
6
CONTINUOUS
10
0.793451
20
-0.289919
11
0.794859
21
-0.289919
0
LINE
8
BLACK
6
CONTINUOUS
10
0.794859
20
-0.289919
11
0.796253
21
-0.289719
0
LINE
8
BLACK
6
CONTINUOUS
10
0.796253
20
-0.289719
11
1.27657
21
-0.289719
0
LINE
8
BLACK
6
CONTINUOUS
10
1.27657
20
-0.289719
11
1.27796
21
-0.289919
0
LINE
8
BLACK
6
CONTINUOUS
10
0.815938
20
-0.329089
11
0.815938
21
-0.785782
0
LINE
8
BLACK
6
CONTINUOUS
10
0.815938
20
-0.785782
11
1.25688
21
-0.785782
0
LINE
8
BLACK
6
CONTINUOUS
10
1.25688
20
-0.785782
11
1.25688
21
-0.329089
0
LINE
8
BLACK
6
CONTINUOUS
10
1.25688
20
-0.329089
11
0.815938
21
-0.329089
  0
ENDSEC
  0
EOF
