  0
SECTION
  2
HEADER
  9
$ANGBASE
  50
0.0
  9
$ANGDIR
  70
1
  9
$MEASUREMENT
  70
0
  0
ENDSEC
  0
SECTION
  2
TABLES
  0
TABLE
  2
LTYPE
  70
4
  0
LTYPE
  5
40F
  2
CONTINUOUS
  70
0
  3
Solid line
  72
65
  73
0
  40
0.0
  0
LTYPE
  5
410
  2
DASHDOT
 70
0
  3
Dash Dot ____ _ ____ _
 72
65
 73
4
 40
2.0
 49
1.25
 49
-0.25
 49
0.25
 49
-0.25
  0
LTYPE
  5
411
  2
DASHED
 70
0
  3
Dashed __ __ __ __ __
 72
65
 73
2
 40
0.75
 49
0.5
 49
-0.25
  0
LTYPE
  5
43B
  2
DOTTED
 70
0
  3
Dotted .  .  .  .
 72
65
 73
2
 40
0.2
 49
0.0
 49
-0.2
  0
ENDTAB
  0
TABLE
  2
STYLE
  70
4
  0
STYLE
  2
KICAD
  70
0
  40
0
  41
1
  42
1
  50
0
  71
0
  3
isocp.shx
  0
STYLE
  2
KICADB
  70
0
  40
0
  41
1
  42
1
  50
0
  71
0
  3
isocp.shx
  0
STYLE
  2
KICADI
  70
0
  40
0
  41
1
  42
1
  50
15
  71
0
  3
isocp.shx
  0
STYLE
  2
KICADBI
  70
0
  40
0
  41
1
  42
1
  50
15
  71
0
  3
isocp.shx
  0
ENDTAB
  0
TABLE
  2
LAYER
  70
1
  0
LAYER
  2
BLACK
  70
0
  62
7
  6
CONTINUOUS
  0
ENDTAB
  0
ENDSEC
  0
SECTION
  2
ENTITIES
0
LINE
8
BLACK
6
CONTINUOUS
10
0.232877
20
-0.251265
11
0.232748
21
-0.251288
0
LINE
8
BLACK
6
CONTINUOUS
10
0.232748
20
-0.251288
11
0.232634
21
-0.251222
0
LINE
8
BLACK
6
CONTINUOUS
10
0.232634
20
-0.251222
11
0.232251
21
-0.251155
0
LINE
8
BLACK
6
CONTINUOUS
10
0.232251
20
-0.251155
11
0.231663
21
-0.250662
0
LINE
8
BLACK
6
CONTINUOUS
10
0.231663
20
-0.250662
11
0.230999
21
-0.250278
0
LINE
8
BLACK
6
CONTINUOUS
10
0.230999
20
-0.250278
11
0.230908
21
-0.250028
0
LINE
8
BLACK
6
CONTINUOUS
10
0.230908
20
-0.250028
11
0.230704
21
-0.249856
0
LINE
8
BLACK
6
CONTINUOUS
10
0.230704
20
-0.249856
11
0.23057
21
-0.249101
0
LINE
8
BLACK
6
CONTINUOUS
10
0.23057
20
-0.249101
11
0.230308
21
-0.24838
0
LINE
8
BLACK
6
CONTINUOUS
10
0.230308
20
-0.24838
11
0.230308
21
-0.20901
0
LINE
8
BLACK
6
CONTINUOUS
10
0.230308
20
-0.20901
11
0.230376
21
-0.208626
0
LINE
8
BLACK
6
CONTINUOUS
10
0.230376
20
-0.208626
11
0.230353
21
-0.208497
0
LINE
8
BLACK
6
CONTINUOUS
10
0.230353
20
-0.208497
11
0.230418
21
-0.208384
0
LINE
8
BLACK
6
CONTINUOUS
10
0.230418
20
-0.208384
11
0.230486
21
-0.208
0
LINE
8
BLACK
6
CONTINUOUS
10
0.230486
20
-0.208
11
0.230979
21
-0.207412
0
LINE
8
BLACK
6
CONTINUOUS
10
0.230979
20
-0.207412
11
0.231363
21
-0.206748
0
LINE
8
BLACK
6
CONTINUOUS
10
0.231363
20
-0.206748
11
0.231613
21
-0.206657
0
LINE
8
BLACK
6
CONTINUOUS
10
0.231613
20
-0.206657
11
0.231784
21
-0.206453
0
LINE
8
BLACK
6
CONTINUOUS
10
0.231784
20
-0.206453
11
0.23254
21
-0.20632
0
LINE
8
BLACK
6
CONTINUOUS
10
0.23254
20
-0.20632
11
0.233261
21
-0.206057
0
LINE
8
BLACK
6
CONTINUOUS
10
0.233261
20
-0.206057
11
0.255898
21
-0.206057
0
LINE
8
BLACK
6
CONTINUOUS
10
0.255898
20
-0.206057
11
0.255898
21
-0.189325
0
LINE
8
BLACK
6
CONTINUOUS
10
0.255898
20
-0.189325
11
0.255966
21
-0.188941
0
LINE
8
BLACK
6
CONTINUOUS
10
0.255966
20
-0.188941
11
0.255943
21
-0.188812
0
LINE
8
BLACK
6
CONTINUOUS
10
0.255943
20
-0.188812
11
0.256009
21
-0.188699
0
LINE
8
BLACK
6
CONTINUOUS
10
0.256009
20
-0.188699
11
0.256077
21
-0.188315
0
LINE
8
BLACK
6
CONTINUOUS
10
0.256077
20
-0.188315
11
0.25657
21
-0.187727
0
LINE
8
BLACK
6
CONTINUOUS
10
0.25657
20
-0.187727
11
0.256953
21
-0.187063
0
LINE
8
BLACK
6
CONTINUOUS
10
0.256953
20
-0.187063
11
0.257204
21
-0.186972
0
LINE
8
BLACK
6
CONTINUOUS
10
0.257204
20
-0.186972
11
0.257375
21
-0.186768
0
LINE
8
BLACK
6
CONTINUOUS
10
0.257375
20
-0.186768
11
0.25813
21
-0.186635
0
LINE
8
BLACK
6
CONTINUOUS
10
0.25813
20
-0.186635
11
0.258851
21
-0.186372
0
LINE
8
BLACK
6
CONTINUOUS
10
0.258851
20
-0.186372
11
0.357276
21
-0.186372
0
LINE
8
BLACK
6
CONTINUOUS
10
0.357276
20
-0.186372
11
0.35766
21
-0.18644
0
LINE
8
BLACK
6
CONTINUOUS
10
0.35766
20
-0.18644
11
0.357789
21
-0.186417
0
LINE
8
BLACK
6
CONTINUOUS
10
0.357789
20
-0.186417
11
0.357903
21
-0.186483
0
LINE
8
BLACK
6
CONTINUOUS
10
0.357903
20
-0.186483
11
0.358286
21
-0.18655
0
LINE
8
BLACK
6
CONTINUOUS
10
0.358286
20
-0.18655
11
0.358874
21
-0.187043
0
LINE
8
BLACK
6
CONTINUOUS
10
0.358874
20
-0.187043
11
0.359538
21
-0.187427
0
LINE
8
BLACK
6
CONTINUOUS
10
0.359538
20
-0.187427
11
0.359629
21
-0.187677
0
LINE
8
BLACK
6
CONTINUOUS
10
0.359629
20
-0.187677
11
0.359834
21
-0.187849
0
LINE
8
BLACK
6
CONTINUOUS
10
0.359834
20
-0.187849
11
0.359967
21
-0.188604
0
LINE
8
BLACK
6
CONTINUOUS
10
0.359967
20
-0.188604
11
0.360229
21
-0.189325
0
LINE
8
BLACK
6
CONTINUOUS
10
0.360229
20
-0.189325
11
0.360229
21
-0.206057
0
LINE
8
BLACK
6
CONTINUOUS
10
0.360229
20
-0.206057
11
0.382867
21
-0.206057
0
LINE
8
BLACK
6
CONTINUOUS
10
0.382867
20
-0.206057
11
0.383251
21
-0.206125
0
LINE
8
BLACK
6
CONTINUOUS
10
0.383251
20
-0.206125
11
0.38338
21
-0.206102
0
LINE
8
BLACK
6
CONTINUOUS
10
0.38338
20
-0.206102
11
0.383493
21
-0.206168
0
LINE
8
BLACK
6
CONTINUOUS
10
0.383493
20
-0.206168
11
0.383877
21
-0.206235
0
LINE
8
BLACK
6
CONTINUOUS
10
0.383877
20
-0.206235
11
0.384465
21
-0.206728
0
LINE
8
BLACK
6
CONTINUOUS
10
0.384465
20
-0.206728
11
0.385129
21
-0.207112
0
LINE
8
BLACK
6
CONTINUOUS
10
0.385129
20
-0.207112
11
0.38522
21
-0.207362
0
LINE
8
BLACK
6
CONTINUOUS
10
0.38522
20
-0.207362
11
0.385424
21
-0.207534
0
LINE
8
BLACK
6
CONTINUOUS
10
0.385424
20
-0.207534
11
0.385557
21
-0.208289
0
LINE
8
BLACK
6
CONTINUOUS
10
0.385557
20
-0.208289
11
0.38582
21
-0.20901
0
LINE
8
BLACK
6
CONTINUOUS
10
0.38582
20
-0.20901
11
0.38582
21
-0.24838
0
LINE
8
BLACK
6
CONTINUOUS
10
0.38582
20
-0.24838
11
0.385752
21
-0.248764
0
LINE
8
BLACK
6
CONTINUOUS
10
0.385752
20
-0.248764
11
0.385775
21
-0.248893
0
LINE
8
BLACK
6
CONTINUOUS
10
0.385775
20
-0.248893
11
0.385709
21
-0.249006
0
LINE
8
BLACK
6
CONTINUOUS
10
0.385709
20
-0.249006
11
0.385642
21
-0.24939
0
LINE
8
BLACK
6
CONTINUOUS
10
0.385642
20
-0.24939
11
0.385149
21
-0.249978
0
LINE
8
BLACK
6
CONTINUOUS
10
0.385149
20
-0.249978
11
0.384765
21
-0.250642
0
LINE
8
BLACK
6
CONTINUOUS
10
0.384765
20
-0.250642
11
0.384515
21
-0.250733
0
LINE
8
BLACK
6
CONTINUOUS
10
0.384515
20
-0.250733
11
0.384343
21
-0.250937
0
LINE
8
BLACK
6
CONTINUOUS
10
0.384343
20
-0.250937
11
0.383588
21
-0.25107
0
LINE
8
BLACK
6
CONTINUOUS
10
0.383588
20
-0.25107
11
0.382867
21
-0.251333
0
LINE
8
BLACK
6
CONTINUOUS
10
0.382867
20
-0.251333
11
0.360229
21
-0.251333
0
LINE
8
BLACK
6
CONTINUOUS
10
0.360229
20
-0.251333
11
0.360229
21
-0.268065
0
LINE
8
BLACK
6
CONTINUOUS
10
0.360229
20
-0.268065
11
0.360162
21
-0.268449
0
LINE
8
BLACK
6
CONTINUOUS
10
0.360162
20
-0.268449
11
0.360184
21
-0.268578
0
LINE
8
BLACK
6
CONTINUOUS
10
0.360184
20
-0.268578
11
0.360119
21
-0.268691
0
LINE
8
BLACK
6
CONTINUOUS
10
0.360119
20
-0.268691
11
0.360051
21
-0.269075
0
LINE
8
BLACK
6
CONTINUOUS
10
0.360051
20
-0.269075
11
0.359558
21
-0.269663
0
LINE
8
BLACK
6
CONTINUOUS
10
0.359558
20
-0.269663
11
0.359174
21
-0.270327
0
LINE
8
BLACK
6
CONTINUOUS
10
0.359174
20
-0.270327
11
0.358924
21
-0.270418
0
LINE
8
BLACK
6
CONTINUOUS
10
0.358924
20
-0.270418
11
0.358753
21
-0.270622
0
LINE
8
BLACK
6
CONTINUOUS
10
0.358753
20
-0.270622
11
0.357997
21
-0.270756
0
LINE
8
BLACK
6
CONTINUOUS
10
0.357997
20
-0.270756
11
0.357276
21
-0.271018
0
LINE
8
BLACK
6
CONTINUOUS
10
0.357276
20
-0.271018
11
0.258851
21
-0.271018
0
LINE
8
BLACK
6
CONTINUOUS
10
0.258851
20
-0.271018
11
0.258468
21
-0.27095
0
LINE
8
BLACK
6
CONTINUOUS
10
0.258468
20
-0.27095
11
0.258338
21
-0.270973
0
LINE
8
BLACK
6
CONTINUOUS
10
0.258338
20
-0.270973
11
0.258225
21
-0.270907
0
LINE
8
BLACK
6
CONTINUOUS
10
0.258225
20
-0.270907
11
0.257841
21
-0.27084
0
LINE
8
BLACK
6
CONTINUOUS
10
0.257841
20
-0.27084
11
0.257254
21
-0.270347
0
LINE
8
BLACK
6
CONTINUOUS
10
0.257254
20
-0.270347
11
0.256589
21
-0.269963
0
LINE
8
BLACK
6
CONTINUOUS
10
0.256589
20
-0.269963
11
0.256498
21
-0.269713
0
LINE
8
BLACK
6
CONTINUOUS
10
0.256498
20
-0.269713
11
0.256294
21
-0.269541
0
LINE
8
BLACK
6
CONTINUOUS
10
0.256294
20
-0.269541
11
0.256161
21
-0.268786
0
LINE
8
BLACK
6
CONTINUOUS
10
0.256161
20
-0.268786
11
0.255898
21
-0.268065
0
LINE
8
BLACK
6
CONTINUOUS
10
0.255898
20
-0.268065
11
0.255898
21
-0.251333
0
LINE
8
BLACK
6
CONTINUOUS
10
0.255898
20
-0.251333
11
0.233261
21
-0.251333
0
LINE
8
BLACK
6
CONTINUOUS
10
0.233261
20
-0.251333
11
0.232877
21
-0.251265
0
LINE
8
BLACK
6
CONTINUOUS
10
0.261804
20
-0.251333
11
0.261804
21
-0.265112
0
LINE
8
BLACK
6
CONTINUOUS
10
0.261804
20
-0.265112
11
0.305111
21
-0.265112
0
LINE
8
BLACK
6
CONTINUOUS
10
0.305111
20
-0.265112
11
0.305111
21
-0.251333
0
LINE
8
BLACK
6
CONTINUOUS
10
0.305111
20
-0.251333
11
0.261804
21
-0.251333
0
LINE
8
BLACK
6
CONTINUOUS
10
0.311017
20
-0.251333
11
0.311017
21
-0.265112
0
LINE
8
BLACK
6
CONTINUOUS
10
0.311017
20
-0.265112
11
0.354324
21
-0.265112
0
LINE
8
BLACK
6
CONTINUOUS
10
0.354324
20
-0.265112
11
0.354324
21
-0.251333
0
LINE
8
BLACK
6
CONTINUOUS
10
0.354324
20
-0.251333
11
0.311017
21
-0.251333
0
LINE
8
BLACK
6
CONTINUOUS
10
0.236213
20
-0.245427
11
0.271108
21
-0.245427
0
LINE
8
BLACK
6
CONTINUOUS
10
0.271108
20
-0.245427
11
0.270817
21
-0.244724
0
LINE
8
BLACK
6
CONTINUOUS
10
0.270817
20
-0.244724
11
0.270817
21
-0.211963
0
LINE
8
BLACK
6
CONTINUOUS
10
0.270817
20
-0.211963
11
0.236213
21
-0.211963
0
LINE
8
BLACK
6
CONTINUOUS
10
0.236213
20
-0.211963
11
0.236213
21
-0.245427
0
LINE
8
BLACK
6
CONTINUOUS
10
0.276132
20
-0.211963
11
0.276132
21
-0.244724
0
LINE
8
BLACK
6
CONTINUOUS
10
0.276132
20
-0.244724
11
0.275841
21
-0.245427
0
LINE
8
BLACK
6
CONTINUOUS
10
0.275841
20
-0.245427
11
0.293043
21
-0.245427
0
LINE
8
BLACK
6
CONTINUOUS
10
0.293043
20
-0.245427
11
0.292752
21
-0.244724
0
LINE
8
BLACK
6
CONTINUOUS
10
0.292752
20
-0.244724
11
0.292752
21
-0.211963
0
LINE
8
BLACK
6
CONTINUOUS
10
0.292752
20
-0.211963
11
0.276132
21
-0.211963
0
LINE
8
BLACK
6
CONTINUOUS
10
0.334816
20
-0.211963
11
0.332416
21
-0.213163
0
LINE
8
BLACK
6
CONTINUOUS
10
0.332416
20
-0.213163
11
0.331034
21
-0.214545
0
LINE
8
BLACK
6
CONTINUOUS
10
0.331034
20
-0.214545
11
0.329155
21
-0.215323
0
LINE
8
BLACK
6
CONTINUOUS
10
0.329155
20
-0.215323
11
0.327276
21
-0.214545
0
LINE
8
BLACK
6
CONTINUOUS
10
0.327276
20
-0.214545
11
0.326497
21
-0.212666
0
LINE
8
BLACK
6
CONTINUOUS
10
0.326497
20
-0.212666
11
0.326789
21
-0.211963
0
LINE
8
BLACK
6
CONTINUOUS
10
0.326789
20
-0.211963
11
0.316589
21
-0.211963
0
LINE
8
BLACK
6
CONTINUOUS
10
0.316589
20
-0.211963
11
0.318034
21
-0.214852
0
LINE
8
BLACK
6
CONTINUOUS
10
0.318034
20
-0.214852
11
0.318077
21
-0.215469
0
LINE
8
BLACK
6
CONTINUOUS
10
0.318077
20
-0.215469
11
0.318314
21
-0.21604
0
LINE
8
BLACK
6
CONTINUOUS
10
0.318314
20
-0.21604
11
0.318314
21
-0.221102
0
LINE
8
BLACK
6
CONTINUOUS
10
0.318314
20
-0.221102
11
0.318077
21
-0.221674
0
LINE
8
BLACK
6
CONTINUOUS
10
0.318077
20
-0.221674
11
0.318034
21
-0.222291
0
LINE
8
BLACK
6
CONTINUOUS
10
0.318034
20
-0.222291
11
0.316346
21
-0.225665
0
LINE
8
BLACK
6
CONTINUOUS
10
0.316346
20
-0.225665
11
0.316016
21
-0.225952
0
LINE
8
BLACK
6
CONTINUOUS
10
0.316016
20
-0.225952
11
0.315848
21
-0.226356
0
LINE
8
BLACK
6
CONTINUOUS
10
0.315848
20
-0.226356
11
0.314161
21
-0.228043
0
LINE
8
BLACK
6
CONTINUOUS
10
0.314161
20
-0.228043
11
0.313757
21
-0.228211
0
LINE
8
BLACK
6
CONTINUOUS
10
0.313757
20
-0.228211
11
0.31347
21
-0.228541
0
LINE
8
BLACK
6
CONTINUOUS
10
0.31347
20
-0.228541
11
0.310096
21
-0.230228
0
LINE
8
BLACK
6
CONTINUOUS
10
0.310096
20
-0.230228
11
0.309479
21
-0.230272
0
LINE
8
BLACK
6
CONTINUOUS
10
0.309479
20
-0.230272
11
0.308907
21
-0.230509
0
LINE
8
BLACK
6
CONTINUOUS
10
0.308907
20
-0.230509
11
0.298067
21
-0.230509
0
LINE
8
BLACK
6
CONTINUOUS
10
0.298067
20
-0.230509
11
0.298067
21
-0.244724
0
LINE
8
BLACK
6
CONTINUOUS
10
0.298067
20
-0.244724
11
0.297775
21
-0.245427
0
LINE
8
BLACK
6
CONTINUOUS
10
0.297775
20
-0.245427
11
0.325101
21
-0.245427
0
LINE
8
BLACK
6
CONTINUOUS
10
0.325101
20
-0.245427
11
0.32481
21
-0.244724
0
LINE
8
BLACK
6
CONTINUOUS
10
0.32481
20
-0.244724
11
0.325589
21
-0.242845
0
LINE
8
BLACK
6
CONTINUOUS
10
0.325589
20
-0.242845
11
0.345392
21
-0.223041
0
LINE
8
BLACK
6
CONTINUOUS
10
0.345392
20
-0.223041
11
0.346745
21
-0.218984
0
LINE
8
BLACK
6
CONTINUOUS
10
0.346745
20
-0.218984
11
0.346745
21
-0.216668
0
LINE
8
BLACK
6
CONTINUOUS
10
0.346745
20
-0.216668
11
0.345531
21
-0.21424
0
LINE
8
BLACK
6
CONTINUOUS
10
0.345531
20
-0.21424
11
0.344454
21
-0.213163
0
LINE
8
BLACK
6
CONTINUOUS
10
0.344454
20
-0.213163
11
0.342054
21
-0.211963
0
LINE
8
BLACK
6
CONTINUOUS
10
0.342054
20
-0.211963
11
0.334816
21
-0.211963
0
LINE
8
BLACK
6
CONTINUOUS
10
0.351779
20
-0.214852
11
0.351823
21
-0.215469
0
LINE
8
BLACK
6
CONTINUOUS
10
0.351823
20
-0.215469
11
0.35206
21
-0.21604
0
LINE
8
BLACK
6
CONTINUOUS
10
0.35206
20
-0.21604
11
0.35206
21
-0.219415
0
LINE
8
BLACK
6
CONTINUOUS
10
0.35206
20
-0.219415
11
0.351893
21
-0.219819
0
LINE
8
BLACK
6
CONTINUOUS
10
0.351893
20
-0.219819
11
0.351924
21
-0.220255
0
LINE
8
BLACK
6
CONTINUOUS
10
0.351924
20
-0.220255
11
0.350236
21
-0.225317
0
LINE
8
BLACK
6
CONTINUOUS
10
0.350236
20
-0.225317
11
0.349831
21
-0.225784
0
LINE
8
BLACK
6
CONTINUOUS
10
0.349831
20
-0.225784
11
0.349594
21
-0.226356
0
LINE
8
BLACK
6
CONTINUOUS
10
0.349594
20
-0.226356
11
0.333883
21
-0.242067
0
LINE
8
BLACK
6
CONTINUOUS
10
0.333883
20
-0.242067
11
0.349402
21
-0.242067
0
LINE
8
BLACK
6
CONTINUOUS
10
0.349402
20
-0.242067
11
0.351282
21
-0.242845
0
LINE
8
BLACK
6
CONTINUOUS
10
0.351282
20
-0.242845
11
0.35206
21
-0.244724
0
LINE
8
BLACK
6
CONTINUOUS
10
0.35206
20
-0.244724
11
0.351769
21
-0.245427
0
LINE
8
BLACK
6
CONTINUOUS
10
0.351769
20
-0.245427
11
0.379914
21
-0.245427
0
LINE
8
BLACK
6
CONTINUOUS
10
0.379914
20
-0.245427
11
0.379914
21
-0.211963
0
LINE
8
BLACK
6
CONTINUOUS
10
0.379914
20
-0.211963
11
0.350335
21
-0.211963
0
LINE
8
BLACK
6
CONTINUOUS
10
0.350335
20
-0.211963
11
0.351779
21
-0.214852
0
LINE
8
BLACK
6
CONTINUOUS
10
0.298067
20
-0.211963
11
0.298067
21
-0.225194
0
LINE
8
BLACK
6
CONTINUOUS
10
0.298067
20
-0.225194
11
0.30828
21
-0.225194
0
LINE
8
BLACK
6
CONTINUOUS
10
0.30828
20
-0.225194
11
0.310708
21
-0.22398
0
LINE
8
BLACK
6
CONTINUOUS
10
0.310708
20
-0.22398
11
0.311785
21
-0.222903
0
LINE
8
BLACK
6
CONTINUOUS
10
0.311785
20
-0.222903
11
0.312999
21
-0.220475
0
LINE
8
BLACK
6
CONTINUOUS
10
0.312999
20
-0.220475
11
0.312999
21
-0.216668
0
LINE
8
BLACK
6
CONTINUOUS
10
0.312999
20
-0.216668
11
0.311785
21
-0.21424
0
LINE
8
BLACK
6
CONTINUOUS
10
0.311785
20
-0.21424
11
0.310708
21
-0.213163
0
LINE
8
BLACK
6
CONTINUOUS
10
0.310708
20
-0.213163
11
0.308308
21
-0.211963
0
LINE
8
BLACK
6
CONTINUOUS
10
0.308308
20
-0.211963
11
0.298067
21
-0.211963
0
LINE
8
BLACK
6
CONTINUOUS
10
0.261804
20
-0.192278
11
0.261804
21
-0.206057
0
LINE
8
BLACK
6
CONTINUOUS
10
0.261804
20
-0.206057
11
0.305111
21
-0.206057
0
LINE
8
BLACK
6
CONTINUOUS
10
0.305111
20
-0.206057
11
0.305111
21
-0.192278
0
LINE
8
BLACK
6
CONTINUOUS
10
0.305111
20
-0.192278
11
0.261804
21
-0.192278
0
LINE
8
BLACK
6
CONTINUOUS
10
0.311017
20
-0.192278
11
0.311017
21
-0.206057
0
LINE
8
BLACK
6
CONTINUOUS
10
0.311017
20
-0.206057
11
0.354324
21
-0.206057
0
LINE
8
BLACK
6
CONTINUOUS
10
0.354324
20
-0.206057
11
0.354324
21
-0.192278
0
LINE
8
BLACK
6
CONTINUOUS
10
0.354324
20
-0.192278
11
0.311017
21
-0.192278
  0
ENDSEC
  0
EOF
