  0
SECTION
  2
HEADER
  9
$ANGBASE
  50
0.0
  9
$ANGDIR
  70
1
  9
$MEASUREMENT
  70
0
  0
ENDSEC
  0
SECTION
  2
TABLES
  0
TABLE
  2
LTYPE
  70
4
  0
LTYPE
  5
40F
  2
CONTINUOUS
  70
0
  3
Solid line
  72
65
  73
0
  40
0.0
  0
LTYPE
  5
410
  2
DASHDOT
 70
0
  3
Dash Dot ____ _ ____ _
 72
65
 73
4
 40
2.0
 49
1.25
 49
-0.25
 49
0.25
 49
-0.25
  0
LTYPE
  5
411
  2
DASHED
 70
0
  3
Dashed __ __ __ __ __
 72
65
 73
2
 40
0.75
 49
0.5
 49
-0.25
  0
LTYPE
  5
43B
  2
DOTTED
 70
0
  3
Dotted .  .  .  .
 72
65
 73
2
 40
0.2
 49
0.0
 49
-0.2
  0
ENDTAB
  0
TABLE
  2
STYLE
  70
4
  0
STYLE
  2
KICAD
  70
0
  40
0
  41
1
  42
1
  50
0
  71
0
  3
isocp.shx
  0
STYLE
  2
KICADB
  70
0
  40
0
  41
1
  42
1
  50
0
  71
0
  3
isocp.shx
  0
STYLE
  2
KICADI
  70
0
  40
0
  41
1
  42
1
  50
15
  71
0
  3
isocp.shx
  0
STYLE
  2
KICADBI
  70
0
  40
0
  41
1
  42
1
  50
15
  71
0
  3
isocp.shx
  0
ENDTAB
  0
TABLE
  2
LAYER
  70
1
  0
LAYER
  2
BLACK
  70
0
  62
7
  6
CONTINUOUS
  0
ENDTAB
  0
ENDSEC
  0
SECTION
  2
ENTITIES
0
LINE
8
BLACK
6
CONTINUOUS
10
0.580423
20
-1.65449
11
0.581753
21
-1.65476
0
LINE
8
BLACK
6
CONTINUOUS
10
0.581753
20
-1.65476
11
0.587378
21
-1.65758
0
LINE
8
BLACK
6
CONTINUOUS
10
0.587378
20
-1.65758
11
0.588089
21
-1.65821
0
LINE
8
BLACK
6
CONTINUOUS
10
0.588089
20
-1.65821
11
0.588912
21
-1.65868
0
LINE
8
BLACK
6
CONTINUOUS
10
0.588912
20
-1.65868
11
0.591725
21
-1.66149
0
LINE
8
BLACK
6
CONTINUOUS
10
0.591725
20
-1.66149
11
0.5922
21
-1.66232
0
LINE
8
BLACK
6
CONTINUOUS
10
0.5922
20
-1.66232
11
0.592831
21
-1.66303
0
LINE
8
BLACK
6
CONTINUOUS
10
0.592831
20
-1.66303
11
0.595643
21
-1.66865
0
LINE
8
BLACK
6
CONTINUOUS
10
0.595643
20
-1.66865
11
0.595915
21
-1.66998
0
LINE
8
BLACK
6
CONTINUOUS
10
0.595915
20
-1.66998
11
0.596266
21
-1.67129
0
LINE
8
BLACK
6
CONTINUOUS
10
0.596266
20
-1.67129
11
0.596266
21
-1.67692
0
LINE
8
BLACK
6
CONTINUOUS
10
0.596266
20
-1.67692
11
0.595915
21
-1.67823
0
LINE
8
BLACK
6
CONTINUOUS
10
0.595915
20
-1.67823
11
0.595643
21
-1.67956
0
LINE
8
BLACK
6
CONTINUOUS
10
0.595643
20
-1.67956
11
0.592831
21
-1.68518
0
LINE
8
BLACK
6
CONTINUOUS
10
0.592831
20
-1.68518
11
0.5922
21
-1.6859
0
LINE
8
BLACK
6
CONTINUOUS
10
0.5922
20
-1.6859
11
0.591725
21
-1.68672
0
LINE
8
BLACK
6
CONTINUOUS
10
0.591725
20
-1.68672
11
0.591671
21
-1.68677
0
LINE
8
BLACK
6
CONTINUOUS
10
0.591671
20
-1.68677
11
0.591725
21
-1.6868
0
LINE
8
BLACK
6
CONTINUOUS
10
0.591725
20
-1.6868
11
0.594537
21
-1.68962
0
LINE
8
BLACK
6
CONTINUOUS
10
0.594537
20
-1.68962
11
0.595012
21
-1.69044
0
LINE
8
BLACK
6
CONTINUOUS
10
0.595012
20
-1.69044
11
0.595643
21
-1.69115
0
LINE
8
BLACK
6
CONTINUOUS
10
0.595643
20
-1.69115
11
0.598455
21
-1.69678
0
LINE
8
BLACK
6
CONTINUOUS
10
0.598455
20
-1.69678
11
0.598727
21
-1.6981
0
LINE
8
BLACK
6
CONTINUOUS
10
0.598727
20
-1.6981
11
0.599079
21
-1.69942
0
LINE
8
BLACK
6
CONTINUOUS
10
0.599079
20
-1.69942
11
0.599079
21
-1.70785
0
LINE
8
BLACK
6
CONTINUOUS
10
0.599079
20
-1.70785
11
0.598727
21
-1.70916
0
LINE
8
BLACK
6
CONTINUOUS
10
0.598727
20
-1.70916
11
0.598455
21
-1.71049
0
LINE
8
BLACK
6
CONTINUOUS
10
0.598455
20
-1.71049
11
0.595643
21
-1.71612
0
LINE
8
BLACK
6
CONTINUOUS
10
0.595643
20
-1.71612
11
0.595012
21
-1.71683
0
LINE
8
BLACK
6
CONTINUOUS
10
0.595012
20
-1.71683
11
0.594537
21
-1.71765
0
LINE
8
BLACK
6
CONTINUOUS
10
0.594537
20
-1.71765
11
0.591725
21
-1.72046
0
LINE
8
BLACK
6
CONTINUOUS
10
0.591725
20
-1.72046
11
0.590901
21
-1.72094
0
LINE
8
BLACK
6
CONTINUOUS
10
0.590901
20
-1.72094
11
0.59019
21
-1.72157
0
LINE
8
BLACK
6
CONTINUOUS
10
0.59019
20
-1.72157
11
0.584566
21
-1.72438
0
LINE
8
BLACK
6
CONTINUOUS
10
0.584566
20
-1.72438
11
0.583236
21
-1.72466
0
LINE
8
BLACK
6
CONTINUOUS
10
0.583236
20
-1.72466
11
0.581924
21
-1.72501
0
LINE
8
BLACK
6
CONTINUOUS
10
0.581924
20
-1.72501
11
0.559427
21
-1.72501
0
LINE
8
BLACK
6
CONTINUOUS
10
0.559427
20
-1.72501
11
0.556475
21
-1.72422
0
LINE
8
BLACK
6
CONTINUOUS
10
0.556475
20
-1.72422
11
0.554313
21
-1.72205
0
LINE
8
BLACK
6
CONTINUOUS
10
0.554313
20
-1.72205
11
0.553522
21
-1.7191
0
LINE
8
BLACK
6
CONTINUOUS
10
0.553522
20
-1.7191
11
0.553522
21
-1.66005
0
LINE
8
BLACK
6
CONTINUOUS
10
0.553522
20
-1.66005
11
0.554313
21
-1.65709
0
LINE
8
BLACK
6
CONTINUOUS
10
0.554313
20
-1.65709
11
0.556475
21
-1.65493
0
LINE
8
BLACK
6
CONTINUOUS
10
0.556475
20
-1.65493
11
0.559427
21
-1.65414
0
LINE
8
BLACK
6
CONTINUOUS
10
0.559427
20
-1.65414
11
0.579112
21
-1.65414
0
LINE
8
BLACK
6
CONTINUOUS
10
0.579112
20
-1.65414
11
0.580423
21
-1.65449
0
LINE
8
BLACK
6
CONTINUOUS
10
0.565333
20
-1.69407
11
0.565333
21
-1.7132
0
LINE
8
BLACK
6
CONTINUOUS
10
0.565333
20
-1.7132
11
0.58053
21
-1.7132
0
LINE
8
BLACK
6
CONTINUOUS
10
0.58053
20
-1.7132
11
0.584051
21
-1.71144
0
LINE
8
BLACK
6
CONTINUOUS
10
0.584051
20
-1.71144
11
0.585507
21
-1.70998
0
LINE
8
BLACK
6
CONTINUOUS
10
0.585507
20
-1.70998
11
0.587268
21
-1.70646
0
LINE
8
BLACK
6
CONTINUOUS
10
0.587268
20
-1.70646
11
0.587268
21
-1.70081
0
LINE
8
BLACK
6
CONTINUOUS
10
0.587268
20
-1.70081
11
0.585507
21
-1.69729
0
LINE
8
BLACK
6
CONTINUOUS
10
0.585507
20
-1.69729
11
0.584359
21
-1.69614
0
LINE
8
BLACK
6
CONTINUOUS
10
0.584359
20
-1.69614
11
0.578154
21
-1.69407
0
LINE
8
BLACK
6
CONTINUOUS
10
0.578154
20
-1.69407
11
0.565333
21
-1.69407
0
LINE
8
BLACK
6
CONTINUOUS
10
0.565333
20
-1.66595
11
0.565333
21
-1.68226
0
LINE
8
BLACK
6
CONTINUOUS
10
0.565333
20
-1.68226
11
0.577718
21
-1.68226
0
LINE
8
BLACK
6
CONTINUOUS
10
0.577718
20
-1.68226
11
0.581238
21
-1.6805
0
LINE
8
BLACK
6
CONTINUOUS
10
0.581238
20
-1.6805
11
0.582695
21
-1.67905
0
LINE
8
BLACK
6
CONTINUOUS
10
0.582695
20
-1.67905
11
0.584455
21
-1.67552
0
LINE
8
BLACK
6
CONTINUOUS
10
0.584455
20
-1.67552
11
0.584455
21
-1.67269
0
LINE
8
BLACK
6
CONTINUOUS
10
0.584455
20
-1.67269
11
0.582695
21
-1.66917
0
LINE
8
BLACK
6
CONTINUOUS
10
0.582695
20
-1.66917
11
0.581238
21
-1.66771
0
LINE
8
BLACK
6
CONTINUOUS
10
0.581238
20
-1.66771
11
0.577718
21
-1.66595
0
LINE
8
BLACK
6
CONTINUOUS
10
0.577718
20
-1.66595
11
0.565333
21
-1.66595
0
LINE
8
BLACK
6
CONTINUOUS
10
0.434117
20
-1.65447
11
0.435378
21
-1.65469
0
LINE
8
BLACK
6
CONTINUOUS
10
0.435378
20
-1.65469
11
0.435579
21
-1.65486
0
LINE
8
BLACK
6
CONTINUOUS
10
0.435579
20
-1.65486
11
0.435833
21
-1.65493
0
LINE
8
BLACK
6
CONTINUOUS
10
0.435833
20
-1.65493
11
0.436739
21
-1.65584
0
LINE
8
BLACK
6
CONTINUOUS
10
0.436739
20
-1.65584
11
0.437719
21
-1.65666
0
LINE
8
BLACK
6
CONTINUOUS
10
0.437719
20
-1.65666
11
0.437809
21
-1.65691
0
LINE
8
BLACK
6
CONTINUOUS
10
0.437809
20
-1.65691
11
0.437995
21
-1.65709
0
LINE
8
BLACK
6
CONTINUOUS
10
0.437995
20
-1.65709
11
0.438326
21
-1.65833
0
LINE
8
BLACK
6
CONTINUOUS
10
0.438326
20
-1.65833
11
0.438764
21
-1.65953
0
LINE
8
BLACK
6
CONTINUOUS
10
0.438764
20
-1.65953
11
0.438718
21
-1.65979
0
LINE
8
BLACK
6
CONTINUOUS
10
0.438718
20
-1.65979
11
0.438786
21
-1.66005
0
LINE
8
BLACK
6
CONTINUOUS
10
0.438786
20
-1.66005
11
0.438786
21
-1.7191
0
LINE
8
BLACK
6
CONTINUOUS
10
0.438786
20
-1.7191
11
0.437995
21
-1.72205
0
LINE
8
BLACK
6
CONTINUOUS
10
0.437995
20
-1.72205
11
0.435833
21
-1.72422
0
LINE
8
BLACK
6
CONTINUOUS
10
0.435833
20
-1.72422
11
0.432881
21
-1.72501
0
LINE
8
BLACK
6
CONTINUOUS
10
0.432881
20
-1.72501
11
0.429928
21
-1.72422
0
LINE
8
BLACK
6
CONTINUOUS
10
0.429928
20
-1.72422
11
0.427766
21
-1.72205
0
LINE
8
BLACK
6
CONTINUOUS
10
0.427766
20
-1.72205
11
0.426975
21
-1.7191
0
LINE
8
BLACK
6
CONTINUOUS
10
0.426975
20
-1.7191
11
0.426975
21
-1.68667
0
LINE
8
BLACK
6
CONTINUOUS
10
0.426975
20
-1.68667
11
0.418547
21
-1.70473
0
LINE
8
BLACK
6
CONTINUOUS
10
0.418547
20
-1.70473
11
0.418212
21
-1.70512
0
LINE
8
BLACK
6
CONTINUOUS
10
0.418212
20
-1.70512
11
0.418034
21
-1.70561
0
LINE
8
BLACK
6
CONTINUOUS
10
0.418034
20
-1.70561
11
0.417244
21
-1.70628
0
LINE
8
BLACK
6
CONTINUOUS
10
0.417244
20
-1.70628
11
0.416581
21
-1.70707
0
LINE
8
BLACK
6
CONTINUOUS
10
0.416581
20
-1.70707
11
0.416092
21
-1.70724
0
LINE
8
BLACK
6
CONTINUOUS
10
0.416092
20
-1.70724
11
0.415693
21
-1.70758
0
LINE
8
BLACK
6
CONTINUOUS
10
0.415693
20
-1.70758
11
0.414677
21
-1.70776
0
LINE
8
BLACK
6
CONTINUOUS
10
0.414677
20
-1.70776
11
0.413709
21
-1.70811
0
LINE
8
BLACK
6
CONTINUOUS
10
0.413709
20
-1.70811
11
0.413196
21
-1.70802
0
LINE
8
BLACK
6
CONTINUOUS
10
0.413196
20
-1.70802
11
0.412683
21
-1.70811
0
LINE
8
BLACK
6
CONTINUOUS
10
0.412683
20
-1.70811
11
0.411713
21
-1.70776
0
LINE
8
BLACK
6
CONTINUOUS
10
0.411713
20
-1.70776
11
0.410698
21
-1.70758
0
LINE
8
BLACK
6
CONTINUOUS
10
0.410698
20
-1.70758
11
0.410299
21
-1.70724
0
LINE
8
BLACK
6
CONTINUOUS
10
0.410299
20
-1.70724
11
0.40981
21
-1.70707
0
LINE
8
BLACK
6
CONTINUOUS
10
0.40981
20
-1.70707
11
0.409147
21
-1.70628
0
LINE
8
BLACK
6
CONTINUOUS
10
0.409147
20
-1.70628
11
0.408357
21
-1.70561
0
LINE
8
BLACK
6
CONTINUOUS
10
0.408357
20
-1.70561
11
0.408179
21
-1.70512
0
LINE
8
BLACK
6
CONTINUOUS
10
0.408179
20
-1.70512
11
0.407844
21
-1.70473
0
LINE
8
BLACK
6
CONTINUOUS
10
0.407844
20
-1.70473
11
0.399416
21
-1.68667
0
LINE
8
BLACK
6
CONTINUOUS
10
0.399416
20
-1.68667
11
0.399416
21
-1.7191
0
LINE
8
BLACK
6
CONTINUOUS
10
0.399416
20
-1.7191
11
0.398625
21
-1.72205
0
LINE
8
BLACK
6
CONTINUOUS
10
0.398625
20
-1.72205
11
0.396463
21
-1.72422
0
LINE
8
BLACK
6
CONTINUOUS
10
0.396463
20
-1.72422
11
0.393511
21
-1.72501
0
LINE
8
BLACK
6
CONTINUOUS
10
0.393511
20
-1.72501
11
0.390558
21
-1.72422
0
LINE
8
BLACK
6
CONTINUOUS
10
0.390558
20
-1.72422
11
0.388396
21
-1.72205
0
LINE
8
BLACK
6
CONTINUOUS
10
0.388396
20
-1.72205
11
0.387605
21
-1.7191
0
LINE
8
BLACK
6
CONTINUOUS
10
0.387605
20
-1.7191
11
0.387605
21
-1.66005
0
LINE
8
BLACK
6
CONTINUOUS
10
0.387605
20
-1.66005
11
0.387673
21
-1.65979
0
LINE
8
BLACK
6
CONTINUOUS
10
0.387673
20
-1.65979
11
0.387627
21
-1.65953
0
LINE
8
BLACK
6
CONTINUOUS
10
0.387627
20
-1.65953
11
0.388065
21
-1.65833
0
LINE
8
BLACK
6
CONTINUOUS
10
0.388065
20
-1.65833
11
0.388396
21
-1.65709
0
LINE
8
BLACK
6
CONTINUOUS
10
0.388396
20
-1.65709
11
0.388582
21
-1.65691
0
LINE
8
BLACK
6
CONTINUOUS
10
0.388582
20
-1.65691
11
0.388672
21
-1.65666
0
LINE
8
BLACK
6
CONTINUOUS
10
0.388672
20
-1.65666
11
0.389652
21
-1.65584
0
LINE
8
BLACK
6
CONTINUOUS
10
0.389652
20
-1.65584
11
0.390558
21
-1.65493
0
LINE
8
BLACK
6
CONTINUOUS
10
0.390558
20
-1.65493
11
0.390812
21
-1.65486
0
LINE
8
BLACK
6
CONTINUOUS
10
0.390812
20
-1.65486
11
0.391013
21
-1.65469
0
LINE
8
BLACK
6
CONTINUOUS
10
0.391013
20
-1.65469
11
0.392274
21
-1.65447
0
LINE
8
BLACK
6
CONTINUOUS
10
0.392274
20
-1.65447
11
0.393511
21
-1.65414
0
LINE
8
BLACK
6
CONTINUOUS
10
0.393511
20
-1.65414
11
0.393765
21
-1.65421
0
LINE
8
BLACK
6
CONTINUOUS
10
0.393765
20
-1.65421
11
0.394024
21
-1.65416
0
LINE
8
BLACK
6
CONTINUOUS
10
0.394024
20
-1.65416
11
0.395227
21
-1.6546
0
LINE
8
BLACK
6
CONTINUOUS
10
0.395227
20
-1.6546
11
0.396463
21
-1.65493
0
LINE
8
BLACK
6
CONTINUOUS
10
0.396463
20
-1.65493
11
0.396649
21
-1.65512
0
LINE
8
BLACK
6
CONTINUOUS
10
0.396649
20
-1.65512
11
0.396896
21
-1.65521
0
LINE
8
BLACK
6
CONTINUOUS
10
0.396896
20
-1.65521
11
0.397719
21
-1.65619
0
LINE
8
BLACK
6
CONTINUOUS
10
0.397719
20
-1.65619
11
0.398625
21
-1.65709
0
LINE
8
BLACK
6
CONTINUOUS
10
0.398625
20
-1.65709
11
0.398693
21
-1.65735
0
LINE
8
BLACK
6
CONTINUOUS
10
0.398693
20
-1.65735
11
0.398862
21
-1.65755
0
LINE
8
BLACK
6
CONTINUOUS
10
0.398862
20
-1.65755
11
0.413196
21
-1.68826
0
LINE
8
BLACK
6
CONTINUOUS
10
0.413196
20
-1.68826
11
0.427529
21
-1.65755
0
LINE
8
BLACK
6
CONTINUOUS
10
0.427529
20
-1.65755
11
0.427698
21
-1.65735
0
LINE
8
BLACK
6
CONTINUOUS
10
0.427698
20
-1.65735
11
0.427766
21
-1.65709
0
LINE
8
BLACK
6
CONTINUOUS
10
0.427766
20
-1.65709
11
0.428672
21
-1.65619
0
LINE
8
BLACK
6
CONTINUOUS
10
0.428672
20
-1.65619
11
0.429495
21
-1.65521
0
LINE
8
BLACK
6
CONTINUOUS
10
0.429495
20
-1.65521
11
0.429742
21
-1.65512
0
LINE
8
BLACK
6
CONTINUOUS
10
0.429742
20
-1.65512
11
0.429928
21
-1.65493
0
LINE
8
BLACK
6
CONTINUOUS
10
0.429928
20
-1.65493
11
0.431164
21
-1.6546
0
LINE
8
BLACK
6
CONTINUOUS
10
0.431164
20
-1.6546
11
0.432368
21
-1.65416
0
LINE
8
BLACK
6
CONTINUOUS
10
0.432368
20
-1.65416
11
0.432627
21
-1.65421
0
LINE
8
BLACK
6
CONTINUOUS
10
0.432627
20
-1.65421
11
0.432881
21
-1.65414
0
LINE
8
BLACK
6
CONTINUOUS
10
0.432881
20
-1.65414
11
0.434117
21
-1.65447
0
LINE
8
BLACK
6
CONTINUOUS
10
0.463955
20
-1.65493
11
0.466116
21
-1.65709
0
LINE
8
BLACK
6
CONTINUOUS
10
0.466116
20
-1.65709
11
0.466908
21
-1.66005
0
LINE
8
BLACK
6
CONTINUOUS
10
0.466908
20
-1.66005
11
0.466908
21
-1.7132
0
LINE
8
BLACK
6
CONTINUOUS
10
0.466908
20
-1.7132
11
0.489124
21
-1.7132
0
LINE
8
BLACK
6
CONTINUOUS
10
0.489124
20
-1.7132
11
0.492076
21
-1.71399
0
LINE
8
BLACK
6
CONTINUOUS
10
0.492076
20
-1.71399
11
0.494238
21
-1.71615
0
LINE
8
BLACK
6
CONTINUOUS
10
0.494238
20
-1.71615
11
0.494726
21
-1.71797
0
LINE
8
BLACK
6
CONTINUOUS
10
0.494726
20
-1.71797
11
0.49477
21
-1.71723
0
LINE
8
BLACK
6
CONTINUOUS
10
0.49477
20
-1.71723
11
0.514455
21
-1.65818
0
LINE
8
BLACK
6
CONTINUOUS
10
0.514455
20
-1.65818
11
0.515108
21
-1.65719
0
LINE
8
BLACK
6
CONTINUOUS
10
0.515108
20
-1.65719
11
0.515639
21
-1.65613
0
LINE
8
BLACK
6
CONTINUOUS
10
0.515639
20
-1.65613
11
0.51594
21
-1.65593
0
LINE
8
BLACK
6
CONTINUOUS
10
0.51594
20
-1.65593
11
0.516139
21
-1.65563
0
LINE
8
BLACK
6
CONTINUOUS
10
0.516139
20
-1.65563
11
0.5172
21
-1.6551
0
LINE
8
BLACK
6
CONTINUOUS
10
0.5172
20
-1.6551
11
0.51819
21
-1.65444
0
LINE
8
BLACK
6
CONTINUOUS
10
0.51819
20
-1.65444
11
0.51855
21
-1.65442
0
LINE
8
BLACK
6
CONTINUOUS
10
0.51855
20
-1.65442
11
0.518873
21
-1.65426
0
LINE
8
BLACK
6
CONTINUOUS
10
0.518873
20
-1.65426
11
0.520057
21
-1.65433
0
LINE
8
BLACK
6
CONTINUOUS
10
0.520057
20
-1.65433
11
0.521241
21
-1.65426
0
LINE
8
BLACK
6
CONTINUOUS
10
0.521241
20
-1.65426
11
0.521564
21
-1.65442
0
LINE
8
BLACK
6
CONTINUOUS
10
0.521564
20
-1.65442
11
0.521925
21
-1.65444
0
LINE
8
BLACK
6
CONTINUOUS
10
0.521925
20
-1.65444
11
0.522915
21
-1.6551
0
LINE
8
BLACK
6
CONTINUOUS
10
0.522915
20
-1.6551
11
0.523975
21
-1.65563
0
LINE
8
BLACK
6
CONTINUOUS
10
0.523975
20
-1.65563
11
0.524174
21
-1.65593
0
LINE
8
BLACK
6
CONTINUOUS
10
0.524174
20
-1.65593
11
0.524476
21
-1.65613
0
LINE
8
BLACK
6
CONTINUOUS
10
0.524476
20
-1.65613
11
0.525006
21
-1.65719
0
LINE
8
BLACK
6
CONTINUOUS
10
0.525006
20
-1.65719
11
0.52566
21
-1.65818
0
LINE
8
BLACK
6
CONTINUOUS
10
0.52566
20
-1.65818
11
0.545345
21
-1.71723
0
LINE
8
BLACK
6
CONTINUOUS
10
0.545345
20
-1.71723
11
0.545528
21
-1.72029
0
LINE
8
BLACK
6
CONTINUOUS
10
0.545528
20
-1.72029
11
0.544161
21
-1.72302
0
LINE
8
BLACK
6
CONTINUOUS
10
0.544161
20
-1.72302
11
0.54161
21
-1.7247
0
LINE
8
BLACK
6
CONTINUOUS
10
0.54161
20
-1.7247
11
0.538558
21
-1.72489
0
LINE
8
BLACK
6
CONTINUOUS
10
0.538558
20
-1.72489
11
0.535824
21
-1.72352
0
LINE
8
BLACK
6
CONTINUOUS
10
0.535824
20
-1.72352
11
0.53414
21
-1.72097
0
LINE
8
BLACK
6
CONTINUOUS
10
0.53414
20
-1.72097
11
0.529862
21
-1.70813
0
LINE
8
BLACK
6
CONTINUOUS
10
0.529862
20
-1.70813
11
0.510253
21
-1.70813
0
LINE
8
BLACK
6
CONTINUOUS
10
0.510253
20
-1.70813
11
0.505975
21
-1.72097
0
LINE
8
BLACK
6
CONTINUOUS
10
0.505975
20
-1.72097
11
0.50429
21
-1.72352
0
LINE
8
BLACK
6
CONTINUOUS
10
0.50429
20
-1.72352
11
0.501556
21
-1.72489
0
LINE
8
BLACK
6
CONTINUOUS
10
0.501556
20
-1.72489
11
0.498505
21
-1.7247
0
LINE
8
BLACK
6
CONTINUOUS
10
0.498505
20
-1.7247
11
0.495954
21
-1.72302
0
LINE
8
BLACK
6
CONTINUOUS
10
0.495954
20
-1.72302
11
0.494668
21
-1.72045
0
LINE
8
BLACK
6
CONTINUOUS
10
0.494668
20
-1.72045
11
0.494238
21
-1.72205
0
LINE
8
BLACK
6
CONTINUOUS
10
0.494238
20
-1.72205
11
0.492076
21
-1.72422
0
LINE
8
BLACK
6
CONTINUOUS
10
0.492076
20
-1.72422
11
0.489124
21
-1.72501
0
LINE
8
BLACK
6
CONTINUOUS
10
0.489124
20
-1.72501
11
0.461002
21
-1.72501
0
LINE
8
BLACK
6
CONTINUOUS
10
0.461002
20
-1.72501
11
0.458049
21
-1.72422
0
LINE
8
BLACK
6
CONTINUOUS
10
0.458049
20
-1.72422
11
0.455888
21
-1.72205
0
LINE
8
BLACK
6
CONTINUOUS
10
0.455888
20
-1.72205
11
0.455097
21
-1.7191
0
LINE
8
BLACK
6
CONTINUOUS
10
0.455097
20
-1.7191
11
0.455097
21
-1.66005
0
LINE
8
BLACK
6
CONTINUOUS
10
0.455097
20
-1.66005
11
0.455888
21
-1.65709
0
LINE
8
BLACK
6
CONTINUOUS
10
0.455888
20
-1.65709
11
0.458049
21
-1.65493
0
LINE
8
BLACK
6
CONTINUOUS
10
0.458049
20
-1.65493
11
0.461002
21
-1.65414
0
LINE
8
BLACK
6
CONTINUOUS
10
0.461002
20
-1.65414
11
0.463955
21
-1.65493
0
LINE
8
BLACK
6
CONTINUOUS
10
0.51419
20
-1.69632
11
0.525925
21
-1.69632
0
LINE
8
BLACK
6
CONTINUOUS
10
0.525925
20
-1.69632
11
0.520057
21
-1.67872
0
LINE
8
BLACK
6
CONTINUOUS
10
0.520057
20
-1.67872
11
0.51419
21
-1.69632
0
LINE
8
BLACK
6
CONTINUOUS
10
0.0086502
20
-1.48221
11
0.0221317
21
-1.48398
0
LINE
8
BLACK
6
CONTINUOUS
10
0.0221317
20
-1.48398
11
0.0353198
21
-1.48729
0
LINE
8
BLACK
6
CONTINUOUS
10
0.0353198
20
-1.48729
11
0.0480398
21
-1.4921
0
LINE
8
BLACK
6
CONTINUOUS
10
0.0480398
20
-1.4921
11
0.060123
21
-1.49834
0
LINE
8
BLACK
6
CONTINUOUS
10
0.060123
20
-1.49834
11
0.0714093
21
-1.50592
0
LINE
8
BLACK
6
CONTINUOUS
10
0.0714093
20
-1.50592
11
0.0817492
21
-1.51475
0
LINE
8
BLACK
6
CONTINUOUS
10
0.0817492
20
-1.51475
11
0.0910055
21
-1.52471
0
LINE
8
BLACK
6
CONTINUOUS
10
0.0910055
20
-1.52471
11
0.0990556
21
-1.53567
0
LINE
8
BLACK
6
CONTINUOUS
10
0.0990556
20
-1.53567
11
0.105793
21
-1.54748
0
LINE
8
BLACK
6
CONTINUOUS
10
0.105793
20
-1.54748
11
0.111128
21
-1.55999
0
LINE
8
BLACK
6
CONTINUOUS
10
0.111128
20
-1.55999
11
0.11499
21
-1.57303
0
LINE
8
BLACK
6
CONTINUOUS
10
0.11499
20
-1.57303
11
0.117327
21
-1.58642
0
LINE
8
BLACK
6
CONTINUOUS
10
0.117327
20
-1.58642
11
0.11811
21
-1.6
0
LINE
8
BLACK
6
CONTINUOUS
10
0.11811
20
-1.6
11
0.117877
21
-1.60742
0
LINE
8
BLACK
6
CONTINUOUS
10
0.117877
20
-1.60742
11
0.116244
21
-1.62092
0
LINE
8
BLACK
6
CONTINUOUS
10
0.116244
20
-1.62092
11
0.113069
21
-1.63414
0
LINE
8
BLACK
6
CONTINUOUS
10
0.113069
20
-1.63414
11
0.108396
21
-1.64691
0
LINE
8
BLACK
6
CONTINUOUS
10
0.108396
20
-1.64691
11
0.102286
21
-1.65906
0
LINE
8
BLACK
6
CONTINUOUS
10
0.102286
20
-1.65906
11
0.0948209
21
-1.67042
0
LINE
8
BLACK
6
CONTINUOUS
10
0.0948209
20
-1.67042
11
0.0860987
21
-1.68085
0
LINE
8
BLACK
6
CONTINUOUS
10
0.0860987
20
-1.68085
11
0.0762352
21
-1.69021
0
LINE
8
BLACK
6
CONTINUOUS
10
0.0762352
20
-1.69021
11
0.0653612
21
-1.69838
0
LINE
8
BLACK
6
CONTINUOUS
10
0.0653612
20
-1.69838
11
0.0536209
21
-1.70524
0
LINE
8
BLACK
6
CONTINUOUS
10
0.0536209
20
-1.70524
11
0.0411699
21
-1.7107
0
LINE
8
BLACK
6
CONTINUOUS
10
0.0411699
20
-1.7107
11
0.0281732
21
-1.7147
0
LINE
8
BLACK
6
CONTINUOUS
10
0.0281732
20
-1.7147
11
0.0148031
21
-1.71718
0
LINE
8
BLACK
6
CONTINUOUS
10
0.0148031
20
-1.71718
11
0.00123681
21
-1.7181
0
LINE
8
BLACK
6
CONTINUOUS
10
0.00123681
20
-1.7181
11
-0.0123459
21
-1.71746
0
LINE
8
BLACK
6
CONTINUOUS
10
-0.0123459
20
-1.71746
11
-0.025765
21
-1.71527
0
LINE
8
BLACK
6
CONTINUOUS
10
-0.025765
20
-1.71527
11
-0.0388425
21
-1.71154
0
LINE
8
BLACK
6
CONTINUOUS
10
-0.0388425
20
-1.71154
11
-0.0514052
21
-1.70634
0
LINE
8
BLACK
6
CONTINUOUS
10
-0.0514052
20
-1.70634
11
-0.0632866
21
-1.69972
0
LINE
8
BLACK
6
CONTINUOUS
10
-0.0632866
20
-1.69972
11
-0.0743292
21
-1.69179
0
LINE
8
BLACK
6
CONTINUOUS
10
-0.0743292
20
-1.69179
11
-0.0843865
21
-1.68264
0
LINE
8
BLACK
6
CONTINUOUS
10
-0.0843865
20
-1.68264
11
-0.0933254
21
-1.67239
0
LINE
8
BLACK
6
CONTINUOUS
10
-0.0933254
20
-1.67239
11
-0.101027
21
-1.66118
0
LINE
8
BLACK
6
CONTINUOUS
10
-0.101027
20
-1.66118
11
-0.10739
21
-1.64917
0
LINE
8
BLACK
6
CONTINUOUS
10
-0.10739
20
-1.64917
11
-0.11233
21
-1.6365
0
LINE
8
BLACK
6
CONTINUOUS
10
-0.11233
20
-1.6365
11
-0.11578
21
-1.62335
0
LINE
8
BLACK
6
CONTINUOUS
10
-0.11578
20
-1.62335
11
-0.117696
21
-1.60988
0
LINE
8
BLACK
6
CONTINUOUS
10
-0.117696
20
-1.60988
11
-0.118052
21
-1.59629
0
LINE
8
BLACK
6
CONTINUOUS
10
-0.118052
20
-1.59629
11
-0.116843
21
-1.58275
0
LINE
8
BLACK
6
CONTINUOUS
10
-0.116843
20
-1.58275
11
-0.114086
21
-1.56943
0
LINE
8
BLACK
6
CONTINUOUS
10
-0.114086
20
-1.56943
11
-0.109816
21
-1.55652
0
LINE
8
BLACK
6
CONTINUOUS
10
-0.109816
20
-1.55652
11
-0.104091
21
-1.54419
0
LINE
8
BLACK
6
CONTINUOUS
10
-0.104091
20
-1.54419
11
-0.0969861
21
-1.53259
0
LINE
8
BLACK
6
CONTINUOUS
10
-0.0969861
20
-1.53259
11
-0.0885958
21
-1.52189
0
LINE
8
BLACK
6
CONTINUOUS
10
-0.0885958
20
-1.52189
11
-0.0790312
21
-1.51223
0
LINE
8
BLACK
6
CONTINUOUS
10
-0.0790312
20
-1.51223
11
-0.0684191
21
-1.50373
0
LINE
8
BLACK
6
CONTINUOUS
10
-0.0684191
20
-1.50373
11
-0.0569
21
-1.4965
0
LINE
8
BLACK
6
CONTINUOUS
10
-0.0569
20
-1.4965
11
-0.0446269
21
-1.49065
0
LINE
8
BLACK
6
CONTINUOUS
10
-0.0446269
20
-1.49065
11
-0.0317622
21
-1.48624
0
LINE
8
BLACK
6
CONTINUOUS
10
-0.0317622
20
-1.48624
11
-0.0184765
21
-1.48334
0
LINE
8
BLACK
6
CONTINUOUS
10
-0.0184765
20
-1.48334
11
-0.00494594
21
-1.48199
0
LINE
8
BLACK
6
CONTINUOUS
10
-0.00494594
20
-1.48199
11
0.0086502
21
-1.48221
0
LINE
8
BLACK
6
CONTINUOUS
10
0.394368
20
-0.70586
11
0.396198
21
-0.707973
0
LINE
8
BLACK
6
CONTINUOUS
10
0.396198
20
-0.707973
11
0.396646
21
-0.710034
0
LINE
8
BLACK
6
CONTINUOUS
10
0.396646
20
-0.710034
11
0.396646
21
-0.896963
0
LINE
8
BLACK
6
CONTINUOUS
10
0.396646
20
-0.896963
11
0.395859
21
-0.899645
0
LINE
8
BLACK
6
CONTINUOUS
10
0.395859
20
-0.899645
11
0.393747
21
-0.901475
0
LINE
8
BLACK
6
CONTINUOUS
10
0.393747
20
-0.901475
11
0.391686
21
-0.901923
0
LINE
8
BLACK
6
CONTINUOUS
10
0.391686
20
-0.901923
11
0.204757
21
-0.901923
0
LINE
8
BLACK
6
CONTINUOUS
10
0.204757
20
-0.901923
11
0.202075
21
-0.901136
0
LINE
8
BLACK
6
CONTINUOUS
10
0.202075
20
-0.901136
11
0.200244
21
-0.899023
0
LINE
8
BLACK
6
CONTINUOUS
10
0.200244
20
-0.899023
11
0.199796
21
-0.896963
0
LINE
8
BLACK
6
CONTINUOUS
10
0.199796
20
-0.896963
11
0.199796
21
-0.710034
0
LINE
8
BLACK
6
CONTINUOUS
10
0.199796
20
-0.710034
11
0.200584
21
-0.707352
0
LINE
8
BLACK
6
CONTINUOUS
10
0.200584
20
-0.707352
11
0.202696
21
-0.705521
0
LINE
8
BLACK
6
CONTINUOUS
10
0.202696
20
-0.705521
11
0.204757
21
-0.705073
0
LINE
8
BLACK
6
CONTINUOUS
10
0.204757
20
-0.705073
11
0.391686
21
-0.705073
0
LINE
8
BLACK
6
CONTINUOUS
10
0.391686
20
-0.705073
11
0.394368
21
-0.70586
0
LINE
8
BLACK
6
CONTINUOUS
10
0.382867
20
-0.268065
11
0.243447
21
-0.268065
0
LINE
8
BLACK
6
CONTINUOUS
10
0.243447
20
-0.268065
11
0.242517
21
-0.268995
0
LINE
8
BLACK
6
CONTINUOUS
10
0.242517
20
-0.268995
11
0.238127
21
-0.271231
0
LINE
8
BLACK
6
CONTINUOUS
10
0.238127
20
-0.271231
11
0.233261
21
-0.272002
0
LINE
8
BLACK
6
CONTINUOUS
10
0.233261
20
-0.272002
11
0.228394
21
-0.271231
0
LINE
8
BLACK
6
CONTINUOUS
10
0.228394
20
-0.271231
11
0.224004
21
-0.268995
0
LINE
8
BLACK
6
CONTINUOUS
10
0.224004
20
-0.268995
11
0.22052
21
-0.265511
0
LINE
8
BLACK
6
CONTINUOUS
10
0.22052
20
-0.265511
11
0.218283
21
-0.261121
0
LINE
8
BLACK
6
CONTINUOUS
10
0.218283
20
-0.261121
11
0.217513
21
-0.256254
0
LINE
8
BLACK
6
CONTINUOUS
10
0.217513
20
-0.256254
11
0.218283
21
-0.251388
0
LINE
8
BLACK
6
CONTINUOUS
10
0.218283
20
-0.251388
11
0.22052
21
-0.246998
0
LINE
8
BLACK
6
CONTINUOUS
10
0.22052
20
-0.246998
11
0.224004
21
-0.243514
0
LINE
8
BLACK
6
CONTINUOUS
10
0.224004
20
-0.243514
11
0.228394
21
-0.241277
0
LINE
8
BLACK
6
CONTINUOUS
10
0.228394
20
-0.241277
11
0.233261
21
-0.240506
0
LINE
8
BLACK
6
CONTINUOUS
10
0.233261
20
-0.240506
11
0.233261
21
-0.189325
0
LINE
8
BLACK
6
CONTINUOUS
10
0.233261
20
-0.189325
11
0.382867
21
-0.189325
0
LINE
8
BLACK
6
CONTINUOUS
10
0.382867
20
-0.189325
11
0.382867
21
-0.268065
0
LINE
8
BLACK
6
CONTINUOUS
10
0.0086502
20
0.117793
11
0.0221317
21
0.116018
0
LINE
8
BLACK
6
CONTINUOUS
10
0.0221317
20
0.116018
11
0.0353198
21
0.112706
0
LINE
8
BLACK
6
CONTINUOUS
10
0.0353198
20
0.112706
11
0.0480398
21
0.107899
0
LINE
8
BLACK
6
CONTINUOUS
10
0.0480398
20
0.107899
11
0.060123
21
0.101662
0
LINE
8
BLACK
6
CONTINUOUS
10
0.060123
20
0.101662
11
0.0714093
21
0.0940783
0
LINE
8
BLACK
6
CONTINUOUS
10
0.0714093
20
0.0940783
11
0.0817492
21
0.0852473
0
LINE
8
BLACK
6
CONTINUOUS
10
0.0817492
20
0.0852473
11
0.0910055
21
0.0752863
0
LINE
8
BLACK
6
CONTINUOUS
10
0.0910055
20
0.0752863
11
0.0990556
21
0.0643274
0
LINE
8
BLACK
6
CONTINUOUS
10
0.0990556
20
0.0643274
11
0.105793
21
0.052516
0
LINE
8
BLACK
6
CONTINUOUS
10
0.105793
20
0.052516
11
0.111128
21
0.0400084
0
LINE
8
BLACK
6
CONTINUOUS
10
0.111128
20
0.0400084
11
0.11499
21
0.0269706
0
LINE
8
BLACK
6
CONTINUOUS
10
0.11499
20
0.0269706
11
0.117327
21
0.0135752
0
LINE
8
BLACK
6
CONTINUOUS
10
0.117327
20
0.0135752
11
0.11811
21
0
0
LINE
8
BLACK
6
CONTINUOUS
10
0.11811
20
0
11
0.117877
21
-0.00741622
0
LINE
8
BLACK
6
CONTINUOUS
10
0.117877
20
-0.00741622
11
0.116244
21
-0.0209155
0
LINE
8
BLACK
6
CONTINUOUS
10
0.116244
20
-0.0209155
11
0.113069
21
-0.0341376
0
LINE
8
BLACK
6
CONTINUOUS
10
0.113069
20
-0.0341376
11
0.108396
21
-0.0469072
0
LINE
8
BLACK
6
CONTINUOUS
10
0.108396
20
-0.0469072
11
0.102286
21
-0.0590551
0
LINE
8
BLACK
6
CONTINUOUS
10
0.102286
20
-0.0590551
11
0.0948209
21
-0.0704203
0
LINE
8
BLACK
6
CONTINUOUS
10
0.0948209
20
-0.0704203
11
0.0860987
21
-0.080852
0
LINE
8
BLACK
6
CONTINUOUS
10
0.0860987
20
-0.080852
11
0.0762352
21
-0.0902121
0
LINE
8
BLACK
6
CONTINUOUS
10
0.0762352
20
-0.0902121
11
0.0653612
21
-0.0983765
0
LINE
8
BLACK
6
CONTINUOUS
10
0.0653612
20
-0.0983765
11
0.0536209
21
-0.105237
0
LINE
8
BLACK
6
CONTINUOUS
10
0.0536209
20
-0.105237
11
0.0411699
21
-0.110703
0
LINE
8
BLACK
6
CONTINUOUS
10
0.0411699
20
-0.110703
11
0.0281732
21
-0.114701
0
LINE
8
BLACK
6
CONTINUOUS
10
0.0281732
20
-0.114701
11
0.0148031
21
-0.117179
0
LINE
8
BLACK
6
CONTINUOUS
10
0.0148031
20
-0.117179
11
0.00123681
21
-0.118104
0
LINE
8
BLACK
6
CONTINUOUS
10
0.00123681
20
-0.118104
11
-0.0123459
21
-0.117463
0
LINE
8
BLACK
6
CONTINUOUS
10
-0.0123459
20
-0.117463
11
-0.025765
21
-0.115266
0
LINE
8
BLACK
6
CONTINUOUS
10
-0.025765
20
-0.115266
11
-0.0388425
21
-0.111541
0
LINE
8
BLACK
6
CONTINUOUS
10
-0.0388425
20
-0.111541
11
-0.0514052
21
-0.106337
0
LINE
8
BLACK
6
CONTINUOUS
10
-0.0514052
20
-0.106337
11
-0.0632866
21
-0.0997238
0
LINE
8
BLACK
6
CONTINUOUS
10
-0.0632866
20
-0.0997238
11
-0.0743292
21
-0.0917889
0
LINE
8
BLACK
6
CONTINUOUS
10
-0.0743292
20
-0.0917889
11
-0.0843865
21
-0.0826374
0
LINE
8
BLACK
6
CONTINUOUS
10
-0.0843865
20
-0.0826374
11
-0.0933254
21
-0.0723906
0
LINE
8
BLACK
6
CONTINUOUS
10
-0.0933254
20
-0.0723906
11
-0.101027
21
-0.0611843
0
LINE
8
BLACK
6
CONTINUOUS
10
-0.101027
20
-0.0611843
11
-0.10739
21
-0.049167
0
LINE
8
BLACK
6
CONTINUOUS
10
-0.10739
20
-0.049167
11
-0.11233
21
-0.0364981
0
LINE
8
BLACK
6
CONTINUOUS
10
-0.11233
20
-0.0364981
11
-0.11578
21
-0.0233454
0
LINE
8
BLACK
6
CONTINUOUS
10
-0.11578
20
-0.0233454
11
-0.117696
21
-0.00988323
0
LINE
8
BLACK
6
CONTINUOUS
10
-0.117696
20
-0.00988323
11
-0.118052
21
0.00370992
0
LINE
8
BLACK
6
CONTINUOUS
10
-0.118052
20
0.00370992
11
-0.116843
21
0.0172539
0
LINE
8
BLACK
6
CONTINUOUS
10
-0.116843
20
0.0172539
11
-0.114086
21
0.0305692
0
LINE
8
BLACK
6
CONTINUOUS
10
-0.114086
20
0.0305692
11
-0.109816
21
0.0434793
0
LINE
8
BLACK
6
CONTINUOUS
10
-0.109816
20
0.0434793
11
-0.104091
21
0.0558131
0
LINE
8
BLACK
6
CONTINUOUS
10
-0.104091
20
0.0558131
11
-0.0969861
21
0.0674071
0
LINE
8
BLACK
6
CONTINUOUS
10
-0.0969861
20
0.0674071
11
-0.0885958
21
0.0781077
0
LINE
8
BLACK
6
CONTINUOUS
10
-0.0885958
20
0.0781077
11
-0.0790312
21
0.087773
0
LINE
8
BLACK
6
CONTINUOUS
10
-0.0790312
20
0.087773
11
-0.0684191
21
0.0962749
0
LINE
8
BLACK
6
CONTINUOUS
10
-0.0684191
20
0.0962749
11
-0.0569
21
0.103501
0
LINE
8
BLACK
6
CONTINUOUS
10
-0.0569
20
0.103501
11
-0.0446269
21
0.109355
0
LINE
8
BLACK
6
CONTINUOUS
10
-0.0446269
20
0.109355
11
-0.0317622
21
0.113759
0
LINE
8
BLACK
6
CONTINUOUS
10
-0.0317622
20
0.113759
11
-0.0184765
21
0.116656
0
LINE
8
BLACK
6
CONTINUOUS
10
-0.0184765
20
0.116656
11
-0.00494594
21
0.118007
0
LINE
8
BLACK
6
CONTINUOUS
10
-0.00494594
20
0.118007
11
0.0086502
21
0.117793
0
CIRCLE
8
BLACK
10
0.37893
20
-0.720821
40
0.00787402
0
CIRCLE
8
BLACK
10
0.233261
20
-0.256254
40
0.00787402
  0
ENDSEC
  0
EOF
