  0
SECTION
  2
HEADER
  9
$ANGBASE
  50
0.0
  9
$ANGDIR
  70
1
  9
$MEASUREMENT
  70
0
  0
ENDSEC
  0
SECTION
  2
TABLES
  0
TABLE
  2
LTYPE
  70
4
  0
LTYPE
  5
40F
  2
CONTINUOUS
  70
0
  3
Solid line
  72
65
  73
0
  40
0.0
  0
LTYPE
  5
410
  2
DASHDOT
 70
0
  3
Dash Dot ____ _ ____ _
 72
65
 73
4
 40
2.0
 49
1.25
 49
-0.25
 49
0.25
 49
-0.25
  0
LTYPE
  5
411
  2
DASHED
 70
0
  3
Dashed __ __ __ __ __
 72
65
 73
2
 40
0.75
 49
0.5
 49
-0.25
  0
LTYPE
  5
43B
  2
DOTTED
 70
0
  3
Dotted .  .  .  .
 72
65
 73
2
 40
0.2
 49
0.0
 49
-0.2
  0
ENDTAB
  0
TABLE
  2
STYLE
  70
4
  0
STYLE
  2
KICAD
  70
0
  40
0
  41
1
  42
1
  50
0
  71
0
  3
isocp.shx
  0
STYLE
  2
KICADB
  70
0
  40
0
  41
1
  42
1
  50
0
  71
0
  3
isocp.shx
  0
STYLE
  2
KICADI
  70
0
  40
0
  41
1
  42
1
  50
15
  71
0
  3
isocp.shx
  0
STYLE
  2
KICADBI
  70
0
  40
0
  41
1
  42
1
  50
15
  71
0
  3
isocp.shx
  0
ENDTAB
  0
TABLE
  2
LAYER
  70
1
  0
LAYER
  2
BLACK
  70
0
  62
7
  6
CONTINUOUS
  0
ENDTAB
  0
ENDSEC
  0
SECTION
  2
ENTITIES
0
LINE
8
BLACK
6
CONTINUOUS
10
0.460032
20
-0.403892
11
0.460032
21
-0.46649
0
LINE
8
BLACK
6
CONTINUOUS
10
0.460032
20
-0.46649
11
0.459456
21
-0.467882
0
LINE
8
BLACK
6
CONTINUOUS
10
0.459456
20
-0.467882
11
0.422631
21
-0.504707
0
LINE
8
BLACK
6
CONTINUOUS
10
0.422631
20
-0.504707
11
0.422631
21
-0.553892
0
LINE
8
BLACK
6
CONTINUOUS
10
0.422631
20
-0.553892
11
0.422054
21
-0.555284
0
LINE
8
BLACK
6
CONTINUOUS
10
0.422054
20
-0.555284
11
0.420662
21
-0.55586
0
LINE
8
BLACK
6
CONTINUOUS
10
0.420662
20
-0.55586
11
0.395465
21
-0.55586
0
LINE
8
BLACK
6
CONTINUOUS
10
0.395465
20
-0.55586
11
0.394073
21
-0.555284
0
LINE
8
BLACK
6
CONTINUOUS
10
0.394073
20
-0.555284
11
0.393497
21
-0.553892
0
LINE
8
BLACK
6
CONTINUOUS
10
0.393497
20
-0.553892
11
0.393497
21
-0.50586
0
LINE
8
BLACK
6
CONTINUOUS
10
0.393497
20
-0.50586
11
0.222631
21
-0.50586
0
LINE
8
BLACK
6
CONTINUOUS
10
0.222631
20
-0.50586
11
0.222631
21
-0.553892
0
LINE
8
BLACK
6
CONTINUOUS
10
0.222631
20
-0.553892
11
0.222054
21
-0.555284
0
LINE
8
BLACK
6
CONTINUOUS
10
0.222054
20
-0.555284
11
0.220662
21
-0.55586
0
LINE
8
BLACK
6
CONTINUOUS
10
0.220662
20
-0.55586
11
0.195465
21
-0.55586
0
LINE
8
BLACK
6
CONTINUOUS
10
0.195465
20
-0.55586
11
0.194073
21
-0.555284
0
LINE
8
BLACK
6
CONTINUOUS
10
0.194073
20
-0.555284
11
0.193497
21
-0.553892
0
LINE
8
BLACK
6
CONTINUOUS
10
0.193497
20
-0.553892
11
0.193497
21
-0.50586
0
LINE
8
BLACK
6
CONTINUOUS
10
0.193497
20
-0.50586
11
0.158064
21
-0.50586
0
LINE
8
BLACK
6
CONTINUOUS
10
0.158064
20
-0.50586
11
0.156672
21
-0.505284
0
LINE
8
BLACK
6
CONTINUOUS
10
0.156672
20
-0.505284
11
0.156095
21
-0.503892
0
LINE
8
BLACK
6
CONTINUOUS
10
0.156095
20
-0.503892
11
0.156095
21
-0.403892
0
LINE
8
BLACK
6
CONTINUOUS
10
0.156095
20
-0.403892
11
0.156672
21
-0.4025
0
LINE
8
BLACK
6
CONTINUOUS
10
0.156672
20
-0.4025
11
0.158064
21
-0.401923
0
LINE
8
BLACK
6
CONTINUOUS
10
0.158064
20
-0.401923
11
0.293497
21
-0.401923
0
LINE
8
BLACK
6
CONTINUOUS
10
0.293497
20
-0.401923
11
0.293497
21
-0.353892
0
LINE
8
BLACK
6
CONTINUOUS
10
0.293497
20
-0.353892
11
0.294073
21
-0.3525
0
LINE
8
BLACK
6
CONTINUOUS
10
0.294073
20
-0.3525
11
0.295465
21
-0.351923
0
LINE
8
BLACK
6
CONTINUOUS
10
0.295465
20
-0.351923
11
0.320662
21
-0.351923
0
LINE
8
BLACK
6
CONTINUOUS
10
0.320662
20
-0.351923
11
0.322054
21
-0.3525
0
LINE
8
BLACK
6
CONTINUOUS
10
0.322054
20
-0.3525
11
0.322631
21
-0.353892
0
LINE
8
BLACK
6
CONTINUOUS
10
0.322631
20
-0.353892
11
0.322631
21
-0.401923
0
LINE
8
BLACK
6
CONTINUOUS
10
0.322631
20
-0.401923
11
0.458064
21
-0.401923
0
LINE
8
BLACK
6
CONTINUOUS
10
0.458064
20
-0.401923
11
0.459456
21
-0.4025
0
LINE
8
BLACK
6
CONTINUOUS
10
0.459456
20
-0.4025
11
0.460032
21
-0.403892
0
LINE
8
BLACK
6
CONTINUOUS
10
0.397434
20
-0.50586
11
0.397434
21
-0.551923
0
LINE
8
BLACK
6
CONTINUOUS
10
0.397434
20
-0.551923
11
0.418694
21
-0.551923
0
LINE
8
BLACK
6
CONTINUOUS
10
0.418694
20
-0.551923
11
0.418694
21
-0.50586
0
LINE
8
BLACK
6
CONTINUOUS
10
0.418694
20
-0.50586
11
0.397434
21
-0.50586
0
LINE
8
BLACK
6
CONTINUOUS
10
0.197434
20
-0.50586
11
0.197434
21
-0.551923
0
LINE
8
BLACK
6
CONTINUOUS
10
0.197434
20
-0.551923
11
0.218694
21
-0.551923
0
LINE
8
BLACK
6
CONTINUOUS
10
0.218694
20
-0.551923
11
0.218694
21
-0.50586
0
LINE
8
BLACK
6
CONTINUOUS
10
0.218694
20
-0.50586
11
0.197434
21
-0.50586
0
LINE
8
BLACK
6
CONTINUOUS
10
0.160032
20
-0.501923
11
0.419847
21
-0.501923
0
LINE
8
BLACK
6
CONTINUOUS
10
0.419847
20
-0.501923
11
0.456095
21
-0.465675
0
LINE
8
BLACK
6
CONTINUOUS
10
0.456095
20
-0.465675
11
0.456095
21
-0.40586
0
LINE
8
BLACK
6
CONTINUOUS
10
0.456095
20
-0.40586
11
0.160032
21
-0.40586
0
LINE
8
BLACK
6
CONTINUOUS
10
0.160032
20
-0.40586
11
0.160032
21
-0.501923
0
LINE
8
BLACK
6
CONTINUOUS
10
0.297434
20
-0.35586
11
0.297434
21
-0.401923
0
LINE
8
BLACK
6
CONTINUOUS
10
0.297434
20
-0.401923
11
0.318694
21
-0.401923
0
LINE
8
BLACK
6
CONTINUOUS
10
0.318694
20
-0.401923
11
0.318694
21
-0.35586
0
LINE
8
BLACK
6
CONTINUOUS
10
0.318694
20
-0.35586
11
0.297434
21
-0.35586
0
LINE
8
BLACK
6
CONTINUOUS
10
0.293726
20
-0.429509
11
0.293895
21
-0.429498
0
LINE
8
BLACK
6
CONTINUOUS
10
0.293895
20
-0.429498
11
0.294585
21
-0.430005
0
LINE
8
BLACK
6
CONTINUOUS
10
0.294585
20
-0.430005
11
0.295328
21
-0.430434
0
LINE
8
BLACK
6
CONTINUOUS
10
0.295328
20
-0.430434
11
0.295386
21
-0.430594
0
LINE
8
BLACK
6
CONTINUOUS
10
0.295386
20
-0.430594
11
0.295523
21
-0.430694
0
LINE
8
BLACK
6
CONTINUOUS
10
0.295523
20
-0.430694
11
0.29911
21
-0.436075
0
LINE
8
BLACK
6
CONTINUOUS
10
0.29911
20
-0.436075
11
0.302314
21
-0.439279
0
LINE
8
BLACK
6
CONTINUOUS
10
0.302314
20
-0.439279
11
0.305635
21
-0.44094
0
LINE
8
BLACK
6
CONTINUOUS
10
0.305635
20
-0.44094
11
0.306458
21
-0.441551
0
LINE
8
BLACK
6
CONTINUOUS
10
0.306458
20
-0.441551
11
0.307262
21
-0.443404
0
LINE
8
BLACK
6
CONTINUOUS
10
0.307262
20
-0.443404
11
0.306686
21
-0.44534
0
LINE
8
BLACK
6
CONTINUOUS
10
0.306686
20
-0.44534
11
0.305
21
-0.446453
0
LINE
8
BLACK
6
CONTINUOUS
10
0.305
20
-0.446453
11
0.302994
21
-0.446222
0
LINE
8
BLACK
6
CONTINUOUS
10
0.302994
20
-0.446222
11
0.299244
21
-0.444347
0
LINE
8
BLACK
6
CONTINUOUS
10
0.299244
20
-0.444347
11
0.298535
21
-0.443821
0
LINE
8
BLACK
6
CONTINUOUS
10
0.298535
20
-0.443821
11
0.298477
21
-0.443794
0
LINE
8
BLACK
6
CONTINUOUS
10
0.298477
20
-0.443794
11
0.296018
21
-0.441335
0
LINE
8
BLACK
6
CONTINUOUS
10
0.296018
20
-0.441335
11
0.296018
21
-0.468749
0
LINE
8
BLACK
6
CONTINUOUS
10
0.296018
20
-0.468749
11
0.304314
21
-0.468749
0
LINE
8
BLACK
6
CONTINUOUS
10
0.304314
20
-0.468749
11
0.305324
21
-0.468927
0
LINE
8
BLACK
6
CONTINUOUS
10
0.305324
20
-0.468927
11
0.306871
21
-0.470226
0
LINE
8
BLACK
6
CONTINUOUS
10
0.306871
20
-0.470226
11
0.307222
21
-0.472215
0
LINE
8
BLACK
6
CONTINUOUS
10
0.307222
20
-0.472215
11
0.306212
21
-0.473964
0
LINE
8
BLACK
6
CONTINUOUS
10
0.306212
20
-0.473964
11
0.304314
21
-0.474655
0
LINE
8
BLACK
6
CONTINUOUS
10
0.304314
20
-0.474655
11
0.281817
21
-0.474655
0
LINE
8
BLACK
6
CONTINUOUS
10
0.281817
20
-0.474655
11
0.280807
21
-0.474477
0
LINE
8
BLACK
6
CONTINUOUS
10
0.280807
20
-0.474477
11
0.27926
21
-0.473179
0
LINE
8
BLACK
6
CONTINUOUS
10
0.27926
20
-0.473179
11
0.278909
21
-0.471189
0
LINE
8
BLACK
6
CONTINUOUS
10
0.278909
20
-0.471189
11
0.279919
21
-0.46944
0
LINE
8
BLACK
6
CONTINUOUS
10
0.279919
20
-0.46944
11
0.281817
21
-0.468749
0
LINE
8
BLACK
6
CONTINUOUS
10
0.281817
20
-0.468749
11
0.290113
21
-0.468749
0
LINE
8
BLACK
6
CONTINUOUS
10
0.290113
20
-0.468749
11
0.290113
21
-0.432332
0
LINE
8
BLACK
6
CONTINUOUS
10
0.290113
20
-0.432332
11
0.290291
21
-0.431322
0
LINE
8
BLACK
6
CONTINUOUS
10
0.290291
20
-0.431322
11
0.2904
21
-0.431192
0
LINE
8
BLACK
6
CONTINUOUS
10
0.2904
20
-0.431192
11
0.290419
21
-0.431023
0
LINE
8
BLACK
6
CONTINUOUS
10
0.290419
20
-0.431023
11
0.291039
21
-0.430431
0
LINE
8
BLACK
6
CONTINUOUS
10
0.291039
20
-0.430431
11
0.291589
21
-0.429775
0
LINE
8
BLACK
6
CONTINUOUS
10
0.291589
20
-0.429775
11
0.291756
21
-0.429745
0
LINE
8
BLACK
6
CONTINUOUS
10
0.291756
20
-0.429745
11
0.291879
21
-0.429628
0
LINE
8
BLACK
6
CONTINUOUS
10
0.291879
20
-0.429628
11
0.292734
21
-0.429573
0
LINE
8
BLACK
6
CONTINUOUS
10
0.292734
20
-0.429573
11
0.293578
21
-0.429424
0
LINE
8
BLACK
6
CONTINUOUS
10
0.293578
20
-0.429424
11
0.293726
21
-0.429509
0
LINE
8
BLACK
6
CONTINUOUS
10
0.323449
20
-0.430434
11
0.32414
21
-0.432332
0
LINE
8
BLACK
6
CONTINUOUS
10
0.32414
20
-0.432332
11
0.32414
21
-0.459974
0
LINE
8
BLACK
6
CONTINUOUS
10
0.32414
20
-0.459974
11
0.325643
21
-0.464483
0
LINE
8
BLACK
6
CONTINUOUS
10
0.325643
20
-0.464483
11
0.328406
21
-0.467247
0
LINE
8
BLACK
6
CONTINUOUS
10
0.328406
20
-0.467247
11
0.332915
21
-0.468749
0
LINE
8
BLACK
6
CONTINUOUS
10
0.332915
20
-0.468749
11
0.336185
21
-0.468749
0
LINE
8
BLACK
6
CONTINUOUS
10
0.336185
20
-0.468749
11
0.337195
21
-0.468927
0
LINE
8
BLACK
6
CONTINUOUS
10
0.337195
20
-0.468927
11
0.338742
21
-0.470226
0
LINE
8
BLACK
6
CONTINUOUS
10
0.338742
20
-0.470226
11
0.339093
21
-0.472215
0
LINE
8
BLACK
6
CONTINUOUS
10
0.339093
20
-0.472215
11
0.338083
21
-0.473964
0
LINE
8
BLACK
6
CONTINUOUS
10
0.338083
20
-0.473964
11
0.336185
21
-0.474655
0
LINE
8
BLACK
6
CONTINUOUS
10
0.336185
20
-0.474655
11
0.332436
21
-0.474655
0
LINE
8
BLACK
6
CONTINUOUS
10
0.332436
20
-0.474655
11
0.331566
21
-0.474502
0
LINE
8
BLACK
6
CONTINUOUS
10
0.331566
20
-0.474502
11
0.331502
21
-0.474503
0
LINE
8
BLACK
6
CONTINUOUS
10
0.331502
20
-0.474503
11
0.325878
21
-0.472629
0
LINE
8
BLACK
6
CONTINUOUS
10
0.325878
20
-0.472629
11
0.324976
21
-0.47214
0
LINE
8
BLACK
6
CONTINUOUS
10
0.324976
20
-0.47214
11
0.324884
21
-0.47199
0
LINE
8
BLACK
6
CONTINUOUS
10
0.324884
20
-0.47199
11
0.324724
21
-0.471915
0
LINE
8
BLACK
6
CONTINUOUS
10
0.324724
20
-0.471915
11
0.320974
21
-0.468166
0
LINE
8
BLACK
6
CONTINUOUS
10
0.320974
20
-0.468166
11
0.320386
21
-0.467326
0
LINE
8
BLACK
6
CONTINUOUS
10
0.320386
20
-0.467326
11
0.32037
21
-0.46715
0
LINE
8
BLACK
6
CONTINUOUS
10
0.32037
20
-0.46715
11
0.320261
21
-0.467012
0
LINE
8
BLACK
6
CONTINUOUS
10
0.320261
20
-0.467012
11
0.318386
21
-0.461387
0
LINE
8
BLACK
6
CONTINUOUS
10
0.318386
20
-0.461387
11
0.318256
21
-0.460514
0
LINE
8
BLACK
6
CONTINUOUS
10
0.318256
20
-0.460514
11
0.318234
21
-0.460454
0
LINE
8
BLACK
6
CONTINUOUS
10
0.318234
20
-0.460454
11
0.318234
21
-0.432332
0
LINE
8
BLACK
6
CONTINUOUS
10
0.318234
20
-0.432332
11
0.318412
21
-0.431322
0
LINE
8
BLACK
6
CONTINUOUS
10
0.318412
20
-0.431322
11
0.319711
21
-0.429775
0
LINE
8
BLACK
6
CONTINUOUS
10
0.319711
20
-0.429775
11
0.3217
21
-0.429424
0
LINE
8
BLACK
6
CONTINUOUS
10
0.3217
20
-0.429424
11
0.323449
21
-0.430434
  0
ENDSEC
  0
EOF
