  0
SECTION
  2
HEADER
  9
$ANGBASE
  50
0.0
  9
$ANGDIR
  70
1
  9
$MEASUREMENT
  70
0
  0
ENDSEC
  0
SECTION
  2
TABLES
  0
TABLE
  2
LTYPE
  70
4
  0
LTYPE
  5
40F
  2
CONTINUOUS
  70
0
  3
Solid line
  72
65
  73
0
  40
0.0
  0
LTYPE
  5
410
  2
DASHDOT
 70
0
  3
Dash Dot ____ _ ____ _
 72
65
 73
4
 40
2.0
 49
1.25
 49
-0.25
 49
0.25
 49
-0.25
  0
LTYPE
  5
411
  2
DASHED
 70
0
  3
Dashed __ __ __ __ __
 72
65
 73
2
 40
0.75
 49
0.5
 49
-0.25
  0
LTYPE
  5
43B
  2
DOTTED
 70
0
  3
Dotted .  .  .  .
 72
65
 73
2
 40
0.2
 49
0.0
 49
-0.2
  0
ENDTAB
  0
TABLE
  2
STYLE
  70
4
  0
STYLE
  2
KICAD
  70
0
  40
0
  41
1
  42
1
  50
0
  71
0
  3
isocp.shx
  0
STYLE
  2
KICADB
  70
0
  40
0
  41
1
  42
1
  50
0
  71
0
  3
isocp.shx
  0
STYLE
  2
KICADI
  70
0
  40
0
  41
1
  42
1
  50
15
  71
0
  3
isocp.shx
  0
STYLE
  2
KICADBI
  70
0
  40
0
  41
1
  42
1
  50
15
  71
0
  3
isocp.shx
  0
ENDTAB
  0
TABLE
  2
LAYER
  70
1
  0
LAYER
  2
BLACK
  70
0
  62
7
  6
CONTINUOUS
  0
ENDTAB
  0
ENDSEC
  0
SECTION
  2
ENTITIES
0
LINE
8
BLACK
6
CONTINUOUS
10
1.30656
20
-0.21118
11
1.309
21
-0.21118
0
LINE
8
BLACK
6
CONTINUOUS
10
1.309
20
-0.21118
11
1.31141
21
-0.211582
0
LINE
8
BLACK
6
CONTINUOUS
10
1.31141
20
-0.211582
11
1.31385
21
-0.211784
0
LINE
8
BLACK
6
CONTINUOUS
10
1.31385
20
-0.211784
11
1.31621
21
-0.212384
0
LINE
8
BLACK
6
CONTINUOUS
10
1.31621
20
-0.212384
11
1.31862
21
-0.212786
0
LINE
8
BLACK
6
CONTINUOUS
10
1.31862
20
-0.212786
11
1.32093
21
-0.213579
0
LINE
8
BLACK
6
CONTINUOUS
10
1.32093
20
-0.213579
11
1.3233
21
-0.214178
0
LINE
8
BLACK
6
CONTINUOUS
10
1.3233
20
-0.214178
11
1.32554
21
-0.215159
0
LINE
8
BLACK
6
CONTINUOUS
10
1.32554
20
-0.215159
11
1.32785
21
-0.215953
0
LINE
8
BLACK
6
CONTINUOUS
10
1.32785
20
-0.215953
11
1.33
21
-0.217115
0
LINE
8
BLACK
6
CONTINUOUS
10
1.33
20
-0.217115
11
1.33223
21
-0.218096
0
LINE
8
BLACK
6
CONTINUOUS
10
1.33223
20
-0.218096
11
1.33428
21
-0.219432
0
LINE
8
BLACK
6
CONTINUOUS
10
1.33428
20
-0.219432
11
1.33643
21
-0.220595
0
LINE
8
BLACK
6
CONTINUOUS
10
1.33643
20
-0.220595
11
1.33835
21
-0.222095
0
LINE
8
BLACK
6
CONTINUOUS
10
1.33835
20
-0.222095
11
1.3404
21
-0.223431
0
LINE
8
BLACK
6
CONTINUOUS
10
1.3404
20
-0.223431
11
1.3422
21
-0.225085
0
LINE
8
BLACK
6
CONTINUOUS
10
1.3422
20
-0.225085
11
1.34412
21
-0.226585
0
LINE
8
BLACK
6
CONTINUOUS
10
1.34412
20
-0.226585
11
1.34578
21
-0.228382
0
LINE
8
BLACK
6
CONTINUOUS
10
1.34578
20
-0.228382
11
1.34758
21
-0.230037
0
LINE
8
BLACK
6
CONTINUOUS
10
1.34758
20
-0.230037
11
1.34908
21
-0.231964
0
LINE
8
BLACK
6
CONTINUOUS
10
1.34908
20
-0.231964
11
1.35073
21
-0.233761
0
LINE
8
BLACK
6
CONTINUOUS
10
1.35073
20
-0.233761
11
1.35207
21
-0.235806
0
LINE
8
BLACK
6
CONTINUOUS
10
1.35207
20
-0.235806
11
1.35357
21
-0.237734
0
LINE
8
BLACK
6
CONTINUOUS
10
1.35357
20
-0.237734
11
1.35473
21
-0.239882
0
LINE
8
BLACK
6
CONTINUOUS
10
1.35473
20
-0.239882
11
1.35606
21
-0.241926
0
LINE
8
BLACK
6
CONTINUOUS
10
1.35606
20
-0.241926
11
1.35705
21
-0.244163
0
LINE
8
BLACK
6
CONTINUOUS
10
1.35705
20
-0.244163
11
1.35821
21
-0.246311
0
LINE
8
BLACK
6
CONTINUOUS
10
1.35821
20
-0.246311
11
1.359
21
-0.248621
0
LINE
8
BLACK
6
CONTINUOUS
10
1.359
20
-0.248621
11
1.35998
21
-0.250858
0
LINE
8
BLACK
6
CONTINUOUS
10
1.35998
20
-0.250858
11
1.36058
21
-0.253226
0
LINE
8
BLACK
6
CONTINUOUS
10
1.36058
20
-0.253226
11
1.36137
21
-0.255536
0
LINE
8
BLACK
6
CONTINUOUS
10
1.36137
20
-0.255536
11
1.36178
21
-0.257946
0
LINE
8
BLACK
6
CONTINUOUS
10
1.36178
20
-0.257946
11
1.36238
21
-0.260313
0
LINE
8
BLACK
6
CONTINUOUS
10
1.36238
20
-0.260313
11
1.36258
21
-0.262748
0
LINE
8
BLACK
6
CONTINUOUS
10
1.36258
20
-0.262748
11
1.36298
21
-0.265157
0
LINE
8
BLACK
6
CONTINUOUS
10
1.36298
20
-0.265157
11
1.36298
21
-0.2676
0
LINE
8
BLACK
6
CONTINUOUS
10
1.36298
20
-0.2676
11
1.36318
21
-0.270034
0
LINE
8
BLACK
6
CONTINUOUS
10
1.36318
20
-0.270034
11
1.36318
21
-0.781845
0
LINE
8
BLACK
6
CONTINUOUS
10
1.36318
20
-0.781845
11
1.36238
21
-0.791565
0
LINE
8
BLACK
6
CONTINUOUS
10
1.36238
20
-0.791565
11
1.35998
21
-0.80102
0
LINE
8
BLACK
6
CONTINUOUS
10
1.35998
20
-0.80102
11
1.35606
21
-0.809952
0
LINE
8
BLACK
6
CONTINUOUS
10
1.35606
20
-0.809952
11
1.35117
21
-0.817444
0
LINE
8
BLACK
6
CONTINUOUS
10
1.35117
20
-0.817444
11
1.35117
21
-0.818217
0
LINE
8
BLACK
6
CONTINUOUS
10
1.35117
20
-0.818217
11
1.34956
21
-0.827838
0
LINE
8
BLACK
6
CONTINUOUS
10
1.34956
20
-0.827838
11
1.3464
21
-0.837063
0
LINE
8
BLACK
6
CONTINUOUS
10
1.3464
20
-0.837063
11
1.34175
21
-0.845641
0
LINE
8
BLACK
6
CONTINUOUS
10
1.34175
20
-0.845641
11
1.33576
21
-0.853338
0
LINE
8
BLACK
6
CONTINUOUS
10
1.33576
20
-0.853338
11
1.32859
21
-0.859944
0
LINE
8
BLACK
6
CONTINUOUS
10
1.32859
20
-0.859944
11
1.32042
21
-0.865278
0
LINE
8
BLACK
6
CONTINUOUS
10
1.32042
20
-0.865278
11
1.31149
21
-0.869196
0
LINE
8
BLACK
6
CONTINUOUS
10
1.31149
20
-0.869196
11
1.30204
21
-0.87159
0
LINE
8
BLACK
6
CONTINUOUS
10
1.30204
20
-0.87159
11
1.29232
21
-0.872396
0
LINE
8
BLACK
6
CONTINUOUS
10
1.29232
20
-0.872396
11
0.780505
21
-0.872396
0
LINE
8
BLACK
6
CONTINUOUS
10
0.780505
20
-0.872396
11
0.778071
21
-0.872194
0
LINE
8
BLACK
6
CONTINUOUS
10
0.778071
20
-0.872194
11
0.775628
21
-0.872194
0
LINE
8
BLACK
6
CONTINUOUS
10
0.775628
20
-0.872194
11
0.773219
21
-0.871792
0
LINE
8
BLACK
6
CONTINUOUS
10
0.773219
20
-0.871792
11
0.770785
21
-0.87159
0
LINE
8
BLACK
6
CONTINUOUS
10
0.770785
20
-0.87159
11
0.768417
21
-0.870991
0
LINE
8
BLACK
6
CONTINUOUS
10
0.768417
20
-0.870991
11
0.766008
21
-0.870589
0
LINE
8
BLACK
6
CONTINUOUS
10
0.766008
20
-0.870589
11
0.763698
21
-0.869796
0
LINE
8
BLACK
6
CONTINUOUS
10
0.763698
20
-0.869796
11
0.76133
21
-0.869196
0
LINE
8
BLACK
6
CONTINUOUS
10
0.76133
20
-0.869196
11
0.759093
21
-0.868215
0
LINE
8
BLACK
6
CONTINUOUS
10
0.759093
20
-0.868215
11
0.756783
21
-0.867422
0
LINE
8
BLACK
6
CONTINUOUS
10
0.756783
20
-0.867422
11
0.754635
21
-0.866259
0
LINE
8
BLACK
6
CONTINUOUS
10
0.754635
20
-0.866259
11
0.752398
21
-0.865278
0
LINE
8
BLACK
6
CONTINUOUS
10
0.752398
20
-0.865278
11
0.750353
21
-0.863942
0
LINE
8
BLACK
6
CONTINUOUS
10
0.750353
20
-0.863942
11
0.748205
21
-0.86278
0
LINE
8
BLACK
6
CONTINUOUS
10
0.748205
20
-0.86278
11
0.746277
21
-0.861279
0
LINE
8
BLACK
6
CONTINUOUS
10
0.746277
20
-0.861279
11
0.744232
21
-0.859944
0
LINE
8
BLACK
6
CONTINUOUS
10
0.744232
20
-0.859944
11
0.742435
21
-0.858289
0
LINE
8
BLACK
6
CONTINUOUS
10
0.742435
20
-0.858289
11
0.740508
21
-0.856789
0
LINE
8
BLACK
6
CONTINUOUS
10
0.740508
20
-0.856789
11
0.738854
21
-0.854992
0
LINE
8
BLACK
6
CONTINUOUS
10
0.738854
20
-0.854992
11
0.737056
21
-0.853338
0
LINE
8
BLACK
6
CONTINUOUS
10
0.737056
20
-0.853338
11
0.735556
21
-0.85141
0
LINE
8
BLACK
6
CONTINUOUS
10
0.735556
20
-0.85141
11
0.733902
21
-0.849613
0
LINE
8
BLACK
6
CONTINUOUS
10
0.733902
20
-0.849613
11
0.732566
21
-0.847568
0
LINE
8
BLACK
6
CONTINUOUS
10
0.732566
20
-0.847568
11
0.731066
21
-0.845641
0
LINE
8
BLACK
6
CONTINUOUS
10
0.731066
20
-0.845641
11
0.729903
21
-0.843493
0
LINE
8
BLACK
6
CONTINUOUS
10
0.729903
20
-0.843493
11
0.728567
21
-0.841448
0
LINE
8
BLACK
6
CONTINUOUS
10
0.728567
20
-0.841448
11
0.727586
21
-0.839211
0
LINE
8
BLACK
6
CONTINUOUS
10
0.727586
20
-0.839211
11
0.726424
21
-0.837063
0
LINE
8
BLACK
6
CONTINUOUS
10
0.726424
20
-0.837063
11
0.725631
21
-0.834753
0
LINE
8
BLACK
6
CONTINUOUS
10
0.725631
20
-0.834753
11
0.724649
21
-0.832516
0
LINE
8
BLACK
6
CONTINUOUS
10
0.724649
20
-0.832516
11
0.72405
21
-0.830148
0
LINE
8
BLACK
6
CONTINUOUS
10
0.72405
20
-0.830148
11
0.723257
21
-0.827838
0
LINE
8
BLACK
6
CONTINUOUS
10
0.723257
20
-0.827838
11
0.722855
21
-0.825429
0
LINE
8
BLACK
6
CONTINUOUS
10
0.722855
20
-0.825429
11
0.722255
21
-0.823061
0
LINE
8
BLACK
6
CONTINUOUS
10
0.722255
20
-0.823061
11
0.722053
21
-0.820627
0
LINE
8
BLACK
6
CONTINUOUS
10
0.722053
20
-0.820627
11
0.721651
21
-0.818217
0
LINE
8
BLACK
6
CONTINUOUS
10
0.721651
20
-0.818217
11
0.721651
21
-0.815775
0
LINE
8
BLACK
6
CONTINUOUS
10
0.721651
20
-0.815775
11
0.72145
21
-0.813341
0
LINE
8
BLACK
6
CONTINUOUS
10
0.72145
20
-0.813341
11
0.72145
21
-0.30153
0
LINE
8
BLACK
6
CONTINUOUS
10
0.72145
20
-0.30153
11
0.722255
21
-0.29181
0
LINE
8
BLACK
6
CONTINUOUS
10
0.722255
20
-0.29181
11
0.724649
21
-0.282355
0
LINE
8
BLACK
6
CONTINUOUS
10
0.724649
20
-0.282355
11
0.728567
21
-0.273423
0
LINE
8
BLACK
6
CONTINUOUS
10
0.728567
20
-0.273423
11
0.733462
21
-0.26593
0
LINE
8
BLACK
6
CONTINUOUS
10
0.733462
20
-0.26593
11
0.733462
21
-0.265157
0
LINE
8
BLACK
6
CONTINUOUS
10
0.733462
20
-0.265157
11
0.735068
21
-0.255536
0
LINE
8
BLACK
6
CONTINUOUS
10
0.735068
20
-0.255536
11
0.738235
21
-0.246311
0
LINE
8
BLACK
6
CONTINUOUS
10
0.738235
20
-0.246311
11
0.742877
21
-0.237734
0
LINE
8
BLACK
6
CONTINUOUS
10
0.742877
20
-0.237734
11
0.748868
21
-0.230037
0
LINE
8
BLACK
6
CONTINUOUS
10
0.748868
20
-0.230037
11
0.756043
21
-0.223431
0
LINE
8
BLACK
6
CONTINUOUS
10
0.756043
20
-0.223431
11
0.764209
21
-0.218096
0
LINE
8
BLACK
6
CONTINUOUS
10
0.764209
20
-0.218096
11
0.773141
21
-0.214178
0
LINE
8
BLACK
6
CONTINUOUS
10
0.773141
20
-0.214178
11
0.782596
21
-0.211784
0
LINE
8
BLACK
6
CONTINUOUS
10
0.782596
20
-0.211784
11
0.792316
21
-0.210979
0
LINE
8
BLACK
6
CONTINUOUS
10
0.792316
20
-0.210979
11
1.30413
21
-0.210979
0
LINE
8
BLACK
6
CONTINUOUS
10
1.30413
20
-0.210979
11
1.30656
21
-0.21118
0
LINE
8
BLACK
6
CONTINUOUS
10
0.83956
20
-0.329089
11
0.83956
21
-0.754286
0
LINE
8
BLACK
6
CONTINUOUS
10
0.83956
20
-0.754286
11
1.24507
21
-0.754286
0
LINE
8
BLACK
6
CONTINUOUS
10
1.24507
20
-0.754286
11
1.24507
21
-0.329089
0
LINE
8
BLACK
6
CONTINUOUS
10
1.24507
20
-0.329089
11
0.83956
21
-0.329089
  0
ENDSEC
  0
EOF
