  0
SECTION
  2
HEADER
  9
$ANGBASE
  50
0.0
  9
$ANGDIR
  70
1
  9
$MEASUREMENT
  70
0
  0
ENDSEC
  0
SECTION
  2
TABLES
  0
TABLE
  2
LTYPE
  70
4
  0
LTYPE
  5
40F
  2
CONTINUOUS
  70
0
  3
Solid line
  72
65
  73
0
  40
0.0
  0
LTYPE
  5
410
  2
DASHDOT
 70
0
  3
Dash Dot ____ _ ____ _
 72
65
 73
4
 40
2.0
 49
1.25
 49
-0.25
 49
0.25
 49
-0.25
  0
LTYPE
  5
411
  2
DASHED
 70
0
  3
Dashed __ __ __ __ __
 72
65
 73
2
 40
0.75
 49
0.5
 49
-0.25
  0
LTYPE
  5
43B
  2
DOTTED
 70
0
  3
Dotted .  .  .  .
 72
65
 73
2
 40
0.2
 49
0.0
 49
-0.2
  0
ENDTAB
  0
TABLE
  2
STYLE
  70
4
  0
STYLE
  2
KICAD
  70
0
  40
0
  41
1
  42
1
  50
0
  71
0
  3
isocp.shx
  0
STYLE
  2
KICADB
  70
0
  40
0
  41
1
  42
1
  50
0
  71
0
  3
isocp.shx
  0
STYLE
  2
KICADI
  70
0
  40
0
  41
1
  42
1
  50
15
  71
0
  3
isocp.shx
  0
STYLE
  2
KICADBI
  70
0
  40
0
  41
1
  42
1
  50
15
  71
0
  3
isocp.shx
  0
ENDTAB
  0
TABLE
  2
LAYER
  70
1
  0
LAYER
  2
BLACK
  70
0
  62
7
  6
CONTINUOUS
  0
ENDTAB
  0
ENDSEC
  0
SECTION
  2
ENTITIES
0
LINE
8
BLACK
6
CONTINUOUS
10
0.592765
20
-1.65535
11
0.594026
21
-1.65557
0
LINE
8
BLACK
6
CONTINUOUS
10
0.594026
20
-1.65557
11
0.594227
21
-1.65574
0
LINE
8
BLACK
6
CONTINUOUS
10
0.594227
20
-1.65574
11
0.594481
21
-1.65581
0
LINE
8
BLACK
6
CONTINUOUS
10
0.594481
20
-1.65581
11
0.595386
21
-1.65671
0
LINE
8
BLACK
6
CONTINUOUS
10
0.595386
20
-1.65671
11
0.596367
21
-1.65754
0
LINE
8
BLACK
6
CONTINUOUS
10
0.596367
20
-1.65754
11
0.596457
21
-1.65778
0
LINE
8
BLACK
6
CONTINUOUS
10
0.596457
20
-1.65778
11
0.596643
21
-1.65797
0
LINE
8
BLACK
6
CONTINUOUS
10
0.596643
20
-1.65797
11
0.596974
21
-1.65921
0
LINE
8
BLACK
6
CONTINUOUS
10
0.596974
20
-1.65921
11
0.597412
21
-1.66041
0
LINE
8
BLACK
6
CONTINUOUS
10
0.597412
20
-1.66041
11
0.597366
21
-1.66067
0
LINE
8
BLACK
6
CONTINUOUS
10
0.597366
20
-1.66067
11
0.597434
21
-1.66092
0
LINE
8
BLACK
6
CONTINUOUS
10
0.597434
20
-1.66092
11
0.597434
21
-1.71998
0
LINE
8
BLACK
6
CONTINUOUS
10
0.597434
20
-1.71998
11
0.596643
21
-1.72293
0
LINE
8
BLACK
6
CONTINUOUS
10
0.596643
20
-1.72293
11
0.594481
21
-1.72509
0
LINE
8
BLACK
6
CONTINUOUS
10
0.594481
20
-1.72509
11
0.591528
21
-1.72588
0
LINE
8
BLACK
6
CONTINUOUS
10
0.591528
20
-1.72588
11
0.588576
21
-1.72509
0
LINE
8
BLACK
6
CONTINUOUS
10
0.588576
20
-1.72509
11
0.586414
21
-1.72293
0
LINE
8
BLACK
6
CONTINUOUS
10
0.586414
20
-1.72293
11
0.585623
21
-1.71998
0
LINE
8
BLACK
6
CONTINUOUS
10
0.585623
20
-1.71998
11
0.585623
21
-1.68754
0
LINE
8
BLACK
6
CONTINUOUS
10
0.585623
20
-1.68754
11
0.577195
21
-1.7056
0
LINE
8
BLACK
6
CONTINUOUS
10
0.577195
20
-1.7056
11
0.57686
21
-1.706
0
LINE
8
BLACK
6
CONTINUOUS
10
0.57686
20
-1.706
11
0.576682
21
-1.70649
0
LINE
8
BLACK
6
CONTINUOUS
10
0.576682
20
-1.70649
11
0.575892
21
-1.70715
0
LINE
8
BLACK
6
CONTINUOUS
10
0.575892
20
-1.70715
11
0.575229
21
-1.70794
0
LINE
8
BLACK
6
CONTINUOUS
10
0.575229
20
-1.70794
11
0.57474
21
-1.70812
0
LINE
8
BLACK
6
CONTINUOUS
10
0.57474
20
-1.70812
11
0.574341
21
-1.70846
0
LINE
8
BLACK
6
CONTINUOUS
10
0.574341
20
-1.70846
11
0.573325
21
-1.70864
0
LINE
8
BLACK
6
CONTINUOUS
10
0.573325
20
-1.70864
11
0.572356
21
-1.70899
0
LINE
8
BLACK
6
CONTINUOUS
10
0.572356
20
-1.70899
11
0.571843
21
-1.7089
0
LINE
8
BLACK
6
CONTINUOUS
10
0.571843
20
-1.7089
11
0.57133
21
-1.70899
0
LINE
8
BLACK
6
CONTINUOUS
10
0.57133
20
-1.70899
11
0.570361
21
-1.70864
0
LINE
8
BLACK
6
CONTINUOUS
10
0.570361
20
-1.70864
11
0.569346
21
-1.70846
0
LINE
8
BLACK
6
CONTINUOUS
10
0.569346
20
-1.70846
11
0.568947
21
-1.70812
0
LINE
8
BLACK
6
CONTINUOUS
10
0.568947
20
-1.70812
11
0.568458
21
-1.70794
0
LINE
8
BLACK
6
CONTINUOUS
10
0.568458
20
-1.70794
11
0.567794
21
-1.70715
0
LINE
8
BLACK
6
CONTINUOUS
10
0.567794
20
-1.70715
11
0.567005
21
-1.70649
0
LINE
8
BLACK
6
CONTINUOUS
10
0.567005
20
-1.70649
11
0.566827
21
-1.706
0
LINE
8
BLACK
6
CONTINUOUS
10
0.566827
20
-1.706
11
0.566492
21
-1.7056
0
LINE
8
BLACK
6
CONTINUOUS
10
0.566492
20
-1.7056
11
0.558064
21
-1.68754
0
LINE
8
BLACK
6
CONTINUOUS
10
0.558064
20
-1.68754
11
0.558064
21
-1.71998
0
LINE
8
BLACK
6
CONTINUOUS
10
0.558064
20
-1.71998
11
0.557273
21
-1.72293
0
LINE
8
BLACK
6
CONTINUOUS
10
0.557273
20
-1.72293
11
0.555111
21
-1.72509
0
LINE
8
BLACK
6
CONTINUOUS
10
0.555111
20
-1.72509
11
0.552158
21
-1.72588
0
LINE
8
BLACK
6
CONTINUOUS
10
0.552158
20
-1.72588
11
0.549206
21
-1.72509
0
LINE
8
BLACK
6
CONTINUOUS
10
0.549206
20
-1.72509
11
0.547044
21
-1.72293
0
LINE
8
BLACK
6
CONTINUOUS
10
0.547044
20
-1.72293
11
0.546253
21
-1.71998
0
LINE
8
BLACK
6
CONTINUOUS
10
0.546253
20
-1.71998
11
0.546253
21
-1.66092
0
LINE
8
BLACK
6
CONTINUOUS
10
0.546253
20
-1.66092
11
0.546321
21
-1.66067
0
LINE
8
BLACK
6
CONTINUOUS
10
0.546321
20
-1.66067
11
0.546275
21
-1.66041
0
LINE
8
BLACK
6
CONTINUOUS
10
0.546275
20
-1.66041
11
0.546713
21
-1.65921
0
LINE
8
BLACK
6
CONTINUOUS
10
0.546713
20
-1.65921
11
0.547044
21
-1.65797
0
LINE
8
BLACK
6
CONTINUOUS
10
0.547044
20
-1.65797
11
0.54723
21
-1.65778
0
LINE
8
BLACK
6
CONTINUOUS
10
0.54723
20
-1.65778
11
0.54732
21
-1.65754
0
LINE
8
BLACK
6
CONTINUOUS
10
0.54732
20
-1.65754
11
0.5483
21
-1.65671
0
LINE
8
BLACK
6
CONTINUOUS
10
0.5483
20
-1.65671
11
0.549206
21
-1.65581
0
LINE
8
BLACK
6
CONTINUOUS
10
0.549206
20
-1.65581
11
0.54946
21
-1.65574
0
LINE
8
BLACK
6
CONTINUOUS
10
0.54946
20
-1.65574
11
0.549661
21
-1.65557
0
LINE
8
BLACK
6
CONTINUOUS
10
0.549661
20
-1.65557
11
0.550922
21
-1.65535
0
LINE
8
BLACK
6
CONTINUOUS
10
0.550922
20
-1.65535
11
0.552158
21
-1.65502
0
LINE
8
BLACK
6
CONTINUOUS
10
0.552158
20
-1.65502
11
0.552412
21
-1.65508
0
LINE
8
BLACK
6
CONTINUOUS
10
0.552412
20
-1.65508
11
0.552671
21
-1.65504
0
LINE
8
BLACK
6
CONTINUOUS
10
0.552671
20
-1.65504
11
0.553874
21
-1.65548
0
LINE
8
BLACK
6
CONTINUOUS
10
0.553874
20
-1.65548
11
0.555111
21
-1.65581
0
LINE
8
BLACK
6
CONTINUOUS
10
0.555111
20
-1.65581
11
0.555297
21
-1.65599
0
LINE
8
BLACK
6
CONTINUOUS
10
0.555297
20
-1.65599
11
0.555544
21
-1.65608
0
LINE
8
BLACK
6
CONTINUOUS
10
0.555544
20
-1.65608
11
0.556367
21
-1.65706
0
LINE
8
BLACK
6
CONTINUOUS
10
0.556367
20
-1.65706
11
0.557273
21
-1.65797
0
LINE
8
BLACK
6
CONTINUOUS
10
0.557273
20
-1.65797
11
0.557341
21
-1.65822
0
LINE
8
BLACK
6
CONTINUOUS
10
0.557341
20
-1.65822
11
0.55751
21
-1.65842
0
LINE
8
BLACK
6
CONTINUOUS
10
0.55751
20
-1.65842
11
0.571843
21
-1.68914
0
LINE
8
BLACK
6
CONTINUOUS
10
0.571843
20
-1.68914
11
0.586177
21
-1.65842
0
LINE
8
BLACK
6
CONTINUOUS
10
0.586177
20
-1.65842
11
0.586346
21
-1.65822
0
LINE
8
BLACK
6
CONTINUOUS
10
0.586346
20
-1.65822
11
0.586414
21
-1.65797
0
LINE
8
BLACK
6
CONTINUOUS
10
0.586414
20
-1.65797
11
0.587319
21
-1.65706
0
LINE
8
BLACK
6
CONTINUOUS
10
0.587319
20
-1.65706
11
0.588143
21
-1.65608
0
LINE
8
BLACK
6
CONTINUOUS
10
0.588143
20
-1.65608
11
0.58839
21
-1.65599
0
LINE
8
BLACK
6
CONTINUOUS
10
0.58839
20
-1.65599
11
0.588576
21
-1.65581
0
LINE
8
BLACK
6
CONTINUOUS
10
0.588576
20
-1.65581
11
0.589812
21
-1.65548
0
LINE
8
BLACK
6
CONTINUOUS
10
0.589812
20
-1.65548
11
0.591015
21
-1.65504
0
LINE
8
BLACK
6
CONTINUOUS
10
0.591015
20
-1.65504
11
0.591274
21
-1.65508
0
LINE
8
BLACK
6
CONTINUOUS
10
0.591274
20
-1.65508
11
0.591528
21
-1.65502
0
LINE
8
BLACK
6
CONTINUOUS
10
0.591528
20
-1.65502
11
0.592765
21
-1.65535
0
LINE
8
BLACK
6
CONTINUOUS
10
0.492963
20
-1.72509
11
0.490801
21
-1.72293
0
LINE
8
BLACK
6
CONTINUOUS
10
0.490801
20
-1.72293
11
0.490371
21
-1.72132
0
LINE
8
BLACK
6
CONTINUOUS
10
0.490371
20
-1.72132
11
0.489085
21
-1.7239
0
LINE
8
BLACK
6
CONTINUOUS
10
0.489085
20
-1.7239
11
0.486534
21
-1.72558
0
LINE
8
BLACK
6
CONTINUOUS
10
0.486534
20
-1.72558
11
0.483483
21
-1.72576
0
LINE
8
BLACK
6
CONTINUOUS
10
0.483483
20
-1.72576
11
0.480749
21
-1.7244
0
LINE
8
BLACK
6
CONTINUOUS
10
0.480749
20
-1.7244
11
0.479064
21
-1.72184
0
LINE
8
BLACK
6
CONTINUOUS
10
0.479064
20
-1.72184
11
0.474786
21
-1.70901
0
LINE
8
BLACK
6
CONTINUOUS
10
0.474786
20
-1.70901
11
0.455177
21
-1.70901
0
LINE
8
BLACK
6
CONTINUOUS
10
0.455177
20
-1.70901
11
0.450899
21
-1.72184
0
LINE
8
BLACK
6
CONTINUOUS
10
0.450899
20
-1.72184
11
0.449215
21
-1.7244
0
LINE
8
BLACK
6
CONTINUOUS
10
0.449215
20
-1.7244
11
0.446481
21
-1.72576
0
LINE
8
BLACK
6
CONTINUOUS
10
0.446481
20
-1.72576
11
0.443429
21
-1.72558
0
LINE
8
BLACK
6
CONTINUOUS
10
0.443429
20
-1.72558
11
0.440878
21
-1.7239
0
LINE
8
BLACK
6
CONTINUOUS
10
0.440878
20
-1.7239
11
0.439511
21
-1.72116
0
LINE
8
BLACK
6
CONTINUOUS
10
0.439511
20
-1.72116
11
0.439694
21
-1.71811
0
LINE
8
BLACK
6
CONTINUOUS
10
0.439694
20
-1.71811
11
0.459379
21
-1.65905
0
LINE
8
BLACK
6
CONTINUOUS
10
0.459379
20
-1.65905
11
0.460033
21
-1.65806
0
LINE
8
BLACK
6
CONTINUOUS
10
0.460033
20
-1.65806
11
0.460563
21
-1.657
0
LINE
8
BLACK
6
CONTINUOUS
10
0.460563
20
-1.657
11
0.460865
21
-1.65681
0
LINE
8
BLACK
6
CONTINUOUS
10
0.460865
20
-1.65681
11
0.461064
21
-1.6565
0
LINE
8
BLACK
6
CONTINUOUS
10
0.461064
20
-1.6565
11
0.462125
21
-1.65597
0
LINE
8
BLACK
6
CONTINUOUS
10
0.462125
20
-1.65597
11
0.463114
21
-1.65532
0
LINE
8
BLACK
6
CONTINUOUS
10
0.463114
20
-1.65532
11
0.463475
21
-1.6553
0
LINE
8
BLACK
6
CONTINUOUS
10
0.463475
20
-1.6553
11
0.463798
21
-1.65514
0
LINE
8
BLACK
6
CONTINUOUS
10
0.463798
20
-1.65514
11
0.464982
21
-1.65521
0
LINE
8
BLACK
6
CONTINUOUS
10
0.464982
20
-1.65521
11
0.466166
21
-1.65514
0
LINE
8
BLACK
6
CONTINUOUS
10
0.466166
20
-1.65514
11
0.466489
21
-1.6553
0
LINE
8
BLACK
6
CONTINUOUS
10
0.466489
20
-1.6553
11
0.466849
21
-1.65532
0
LINE
8
BLACK
6
CONTINUOUS
10
0.466849
20
-1.65532
11
0.467839
21
-1.65597
0
LINE
8
BLACK
6
CONTINUOUS
10
0.467839
20
-1.65597
11
0.4689
21
-1.6565
0
LINE
8
BLACK
6
CONTINUOUS
10
0.4689
20
-1.6565
11
0.469099
21
-1.65681
0
LINE
8
BLACK
6
CONTINUOUS
10
0.469099
20
-1.65681
11
0.4694
21
-1.657
0
LINE
8
BLACK
6
CONTINUOUS
10
0.4694
20
-1.657
11
0.469931
21
-1.65807
0
LINE
8
BLACK
6
CONTINUOUS
10
0.469931
20
-1.65807
11
0.470584
21
-1.65905
0
LINE
8
BLACK
6
CONTINUOUS
10
0.470584
20
-1.65905
11
0.490269
21
-1.71811
0
LINE
8
BLACK
6
CONTINUOUS
10
0.490269
20
-1.71811
11
0.490313
21
-1.71884
0
LINE
8
BLACK
6
CONTINUOUS
10
0.490313
20
-1.71884
11
0.490801
21
-1.71702
0
LINE
8
BLACK
6
CONTINUOUS
10
0.490801
20
-1.71702
11
0.492963
21
-1.71486
0
LINE
8
BLACK
6
CONTINUOUS
10
0.492963
20
-1.71486
11
0.495915
21
-1.71407
0
LINE
8
BLACK
6
CONTINUOUS
10
0.495915
20
-1.71407
11
0.518131
21
-1.71407
0
LINE
8
BLACK
6
CONTINUOUS
10
0.518131
20
-1.71407
11
0.518131
21
-1.66092
0
LINE
8
BLACK
6
CONTINUOUS
10
0.518131
20
-1.66092
11
0.518922
21
-1.65797
0
LINE
8
BLACK
6
CONTINUOUS
10
0.518922
20
-1.65797
11
0.521084
21
-1.65581
0
LINE
8
BLACK
6
CONTINUOUS
10
0.521084
20
-1.65581
11
0.524037
21
-1.65502
0
LINE
8
BLACK
6
CONTINUOUS
10
0.524037
20
-1.65502
11
0.52699
21
-1.65581
0
LINE
8
BLACK
6
CONTINUOUS
10
0.52699
20
-1.65581
11
0.529151
21
-1.65797
0
LINE
8
BLACK
6
CONTINUOUS
10
0.529151
20
-1.65797
11
0.529942
21
-1.66092
0
LINE
8
BLACK
6
CONTINUOUS
10
0.529942
20
-1.66092
11
0.529942
21
-1.71998
0
LINE
8
BLACK
6
CONTINUOUS
10
0.529942
20
-1.71998
11
0.529151
21
-1.72293
0
LINE
8
BLACK
6
CONTINUOUS
10
0.529151
20
-1.72293
11
0.52699
21
-1.72509
0
LINE
8
BLACK
6
CONTINUOUS
10
0.52699
20
-1.72509
11
0.524037
21
-1.72588
0
LINE
8
BLACK
6
CONTINUOUS
10
0.524037
20
-1.72588
11
0.495915
21
-1.72588
0
LINE
8
BLACK
6
CONTINUOUS
10
0.495915
20
-1.72588
11
0.492963
21
-1.72509
0
LINE
8
BLACK
6
CONTINUOUS
10
0.459114
20
-1.6972
11
0.470849
21
-1.6972
0
LINE
8
BLACK
6
CONTINUOUS
10
0.470849
20
-1.6972
11
0.464982
21
-1.6796
0
LINE
8
BLACK
6
CONTINUOUS
10
0.464982
20
-1.6796
11
0.459114
21
-1.6972
0
LINE
8
BLACK
6
CONTINUOUS
10
0.401803
20
-1.72553
11
0.400473
21
-1.72526
0
LINE
8
BLACK
6
CONTINUOUS
10
0.400473
20
-1.72526
11
0.394849
21
-1.72245
0
LINE
8
BLACK
6
CONTINUOUS
10
0.394849
20
-1.72245
11
0.394138
21
-1.72182
0
LINE
8
BLACK
6
CONTINUOUS
10
0.394138
20
-1.72182
11
0.393314
21
-1.72134
0
LINE
8
BLACK
6
CONTINUOUS
10
0.393314
20
-1.72134
11
0.390502
21
-1.71853
0
LINE
8
BLACK
6
CONTINUOUS
10
0.390502
20
-1.71853
11
0.390027
21
-1.71771
0
LINE
8
BLACK
6
CONTINUOUS
10
0.390027
20
-1.71771
11
0.389396
21
-1.71699
0
LINE
8
BLACK
6
CONTINUOUS
10
0.389396
20
-1.71699
11
0.386584
21
-1.71137
0
LINE
8
BLACK
6
CONTINUOUS
10
0.386584
20
-1.71137
11
0.386312
21
-1.71004
0
LINE
8
BLACK
6
CONTINUOUS
10
0.386312
20
-1.71004
11
0.38596
21
-1.70873
0
LINE
8
BLACK
6
CONTINUOUS
10
0.38596
20
-1.70873
11
0.38596
21
-1.70029
0
LINE
8
BLACK
6
CONTINUOUS
10
0.38596
20
-1.70029
11
0.386312
21
-1.69898
0
LINE
8
BLACK
6
CONTINUOUS
10
0.386312
20
-1.69898
11
0.386584
21
-1.69765
0
LINE
8
BLACK
6
CONTINUOUS
10
0.386584
20
-1.69765
11
0.389396
21
-1.69203
0
LINE
8
BLACK
6
CONTINUOUS
10
0.389396
20
-1.69203
11
0.390027
21
-1.69132
0
LINE
8
BLACK
6
CONTINUOUS
10
0.390027
20
-1.69132
11
0.390502
21
-1.69049
0
LINE
8
BLACK
6
CONTINUOUS
10
0.390502
20
-1.69049
11
0.393314
21
-1.68768
0
LINE
8
BLACK
6
CONTINUOUS
10
0.393314
20
-1.68768
11
0.393368
21
-1.68765
0
LINE
8
BLACK
6
CONTINUOUS
10
0.393368
20
-1.68765
11
0.393314
21
-1.6876
0
LINE
8
BLACK
6
CONTINUOUS
10
0.393314
20
-1.6876
11
0.392839
21
-1.68677
0
LINE
8
BLACK
6
CONTINUOUS
10
0.392839
20
-1.68677
11
0.392208
21
-1.68606
0
LINE
8
BLACK
6
CONTINUOUS
10
0.392208
20
-1.68606
11
0.389396
21
-1.68044
0
LINE
8
BLACK
6
CONTINUOUS
10
0.389396
20
-1.68044
11
0.389124
21
-1.67911
0
LINE
8
BLACK
6
CONTINUOUS
10
0.389124
20
-1.67911
11
0.388772
21
-1.6778
0
LINE
8
BLACK
6
CONTINUOUS
10
0.388772
20
-1.6778
11
0.388772
21
-1.67217
0
LINE
8
BLACK
6
CONTINUOUS
10
0.388772
20
-1.67217
11
0.389124
21
-1.67086
0
LINE
8
BLACK
6
CONTINUOUS
10
0.389124
20
-1.67086
11
0.389396
21
-1.66953
0
LINE
8
BLACK
6
CONTINUOUS
10
0.389396
20
-1.66953
11
0.392208
21
-1.66391
0
LINE
8
BLACK
6
CONTINUOUS
10
0.392208
20
-1.66391
11
0.392839
21
-1.66319
0
LINE
8
BLACK
6
CONTINUOUS
10
0.392839
20
-1.66319
11
0.393314
21
-1.66237
0
LINE
8
BLACK
6
CONTINUOUS
10
0.393314
20
-1.66237
11
0.396126
21
-1.65956
0
LINE
8
BLACK
6
CONTINUOUS
10
0.396126
20
-1.65956
11
0.39695
21
-1.65908
0
LINE
8
BLACK
6
CONTINUOUS
10
0.39695
20
-1.65908
11
0.397661
21
-1.65845
0
LINE
8
BLACK
6
CONTINUOUS
10
0.397661
20
-1.65845
11
0.403286
21
-1.65564
0
LINE
8
BLACK
6
CONTINUOUS
10
0.403286
20
-1.65564
11
0.404616
21
-1.65537
0
LINE
8
BLACK
6
CONTINUOUS
10
0.404616
20
-1.65537
11
0.405927
21
-1.65502
0
LINE
8
BLACK
6
CONTINUOUS
10
0.405927
20
-1.65502
11
0.425612
21
-1.65502
0
LINE
8
BLACK
6
CONTINUOUS
10
0.425612
20
-1.65502
11
0.428564
21
-1.65581
0
LINE
8
BLACK
6
CONTINUOUS
10
0.428564
20
-1.65581
11
0.430726
21
-1.65797
0
LINE
8
BLACK
6
CONTINUOUS
10
0.430726
20
-1.65797
11
0.431517
21
-1.66092
0
LINE
8
BLACK
6
CONTINUOUS
10
0.431517
20
-1.66092
11
0.431517
21
-1.71998
0
LINE
8
BLACK
6
CONTINUOUS
10
0.431517
20
-1.71998
11
0.430726
21
-1.72293
0
LINE
8
BLACK
6
CONTINUOUS
10
0.430726
20
-1.72293
11
0.428564
21
-1.72509
0
LINE
8
BLACK
6
CONTINUOUS
10
0.428564
20
-1.72509
11
0.425612
21
-1.72588
0
LINE
8
BLACK
6
CONTINUOUS
10
0.425612
20
-1.72588
11
0.403114
21
-1.72588
0
LINE
8
BLACK
6
CONTINUOUS
10
0.403114
20
-1.72588
11
0.401803
21
-1.72553
0
LINE
8
BLACK
6
CONTINUOUS
10
0.406885
20
-1.69495
11
0.40068
21
-1.69702
0
LINE
8
BLACK
6
CONTINUOUS
10
0.40068
20
-1.69702
11
0.399531
21
-1.69817
0
LINE
8
BLACK
6
CONTINUOUS
10
0.399531
20
-1.69817
11
0.397771
21
-1.70169
0
LINE
8
BLACK
6
CONTINUOUS
10
0.397771
20
-1.70169
11
0.397771
21
-1.70733
0
LINE
8
BLACK
6
CONTINUOUS
10
0.397771
20
-1.70733
11
0.399531
21
-1.71085
0
LINE
8
BLACK
6
CONTINUOUS
10
0.399531
20
-1.71085
11
0.400988
21
-1.71231
0
LINE
8
BLACK
6
CONTINUOUS
10
0.400988
20
-1.71231
11
0.404509
21
-1.71407
0
LINE
8
BLACK
6
CONTINUOUS
10
0.404509
20
-1.71407
11
0.419706
21
-1.71407
0
LINE
8
BLACK
6
CONTINUOUS
10
0.419706
20
-1.71407
11
0.419706
21
-1.69495
0
LINE
8
BLACK
6
CONTINUOUS
10
0.419706
20
-1.69495
11
0.406885
21
-1.69495
0
LINE
8
BLACK
6
CONTINUOUS
10
0.407321
20
-1.66683
11
0.4038
21
-1.66859
0
LINE
8
BLACK
6
CONTINUOUS
10
0.4038
20
-1.66859
11
0.402344
21
-1.67004
0
LINE
8
BLACK
6
CONTINUOUS
10
0.402344
20
-1.67004
11
0.400584
21
-1.67356
0
LINE
8
BLACK
6
CONTINUOUS
10
0.400584
20
-1.67356
11
0.400584
21
-1.6764
0
LINE
8
BLACK
6
CONTINUOUS
10
0.400584
20
-1.6764
11
0.402344
21
-1.67992
0
LINE
8
BLACK
6
CONTINUOUS
10
0.402344
20
-1.67992
11
0.4038
21
-1.68138
0
LINE
8
BLACK
6
CONTINUOUS
10
0.4038
20
-1.68138
11
0.407321
21
-1.68314
0
LINE
8
BLACK
6
CONTINUOUS
10
0.407321
20
-1.68314
11
0.419706
21
-1.68314
0
LINE
8
BLACK
6
CONTINUOUS
10
0.419706
20
-1.68314
11
0.419706
21
-1.66683
0
LINE
8
BLACK
6
CONTINUOUS
10
0.419706
20
-1.66683
11
0.407321
21
-1.66683
0
LINE
8
BLACK
6
CONTINUOUS
10
-0.173456
20
0.169797
11
-0.171282
21
0.172523
0
LINE
8
BLACK
6
CONTINUOUS
10
-0.171282
20
0.172523
11
-0.168141
21
0.174036
0
LINE
8
BLACK
6
CONTINUOUS
10
-0.168141
20
0.174036
11
-0.166398
21
0.174232
0
LINE
8
BLACK
6
CONTINUOUS
10
-0.166398
20
0.174232
11
0.736398
21
0.174232
0
LINE
8
BLACK
6
CONTINUOUS
10
0.736398
20
0.174232
11
0.739797
21
0.173456
0
LINE
8
BLACK
6
CONTINUOUS
10
0.739797
20
0.173456
11
0.742523
21
0.171282
0
LINE
8
BLACK
6
CONTINUOUS
10
0.742523
20
0.171282
11
0.744036
21
0.168141
0
LINE
8
BLACK
6
CONTINUOUS
10
0.744036
20
0.168141
11
0.744232
21
0.166398
0
LINE
8
BLACK
6
CONTINUOUS
10
0.744232
20
0.166398
11
0.744232
21
-1.7664
0
LINE
8
BLACK
6
CONTINUOUS
10
0.744232
20
-1.7664
11
0.743456
21
-1.7698
0
LINE
8
BLACK
6
CONTINUOUS
10
0.743456
20
-1.7698
11
0.741282
21
-1.77252
0
LINE
8
BLACK
6
CONTINUOUS
10
0.741282
20
-1.77252
11
0.738141
21
-1.77404
0
LINE
8
BLACK
6
CONTINUOUS
10
0.738141
20
-1.77404
11
0.736398
21
-1.77423
0
LINE
8
BLACK
6
CONTINUOUS
10
0.736398
20
-1.77423
11
0.634988
21
-1.77423
0
LINE
8
BLACK
6
CONTINUOUS
10
0.634988
20
-1.77423
11
0.631588
21
-1.77346
0
LINE
8
BLACK
6
CONTINUOUS
10
0.631588
20
-1.77346
11
0.628862
21
-1.77128
0
LINE
8
BLACK
6
CONTINUOUS
10
0.628862
20
-1.77128
11
0.627349
21
-1.76814
0
LINE
8
BLACK
6
CONTINUOUS
10
0.627349
20
-1.76814
11
0.627202
21
-1.76552
0
LINE
8
BLACK
6
CONTINUOUS
10
0.627202
20
-1.76552
11
0.627213
21
-1.76543
0
LINE
8
BLACK
6
CONTINUOUS
10
0.627213
20
-1.76543
11
0.627262
21
-1.76543
0
LINE
8
BLACK
6
CONTINUOUS
10
0.627262
20
-1.76543
11
0.627262
21
-1.6211
0
LINE
8
BLACK
6
CONTINUOUS
10
0.627262
20
-1.6211
11
0.358944
21
-1.6211
0
LINE
8
BLACK
6
CONTINUOUS
10
0.358944
20
-1.6211
11
0.358944
21
-1.76543
0
LINE
8
BLACK
6
CONTINUOUS
10
0.358944
20
-1.76543
11
0.358969
21
-1.76543
0
LINE
8
BLACK
6
CONTINUOUS
10
0.358969
20
-1.76543
11
0.358969
21
-1.76814
0
LINE
8
BLACK
6
CONTINUOUS
10
0.358969
20
-1.76814
11
0.357456
21
-1.77128
0
LINE
8
BLACK
6
CONTINUOUS
10
0.357456
20
-1.77128
11
0.35473
21
-1.77346
0
LINE
8
BLACK
6
CONTINUOUS
10
0.35473
20
-1.77346
11
0.351331
21
-1.77423
0
LINE
8
BLACK
6
CONTINUOUS
10
0.351331
20
-1.77423
11
-0.166398
21
-1.77423
0
LINE
8
BLACK
6
CONTINUOUS
10
-0.166398
20
-1.77423
11
-0.169797
21
-1.77346
0
LINE
8
BLACK
6
CONTINUOUS
10
-0.169797
20
-1.77346
11
-0.172523
21
-1.77128
0
LINE
8
BLACK
6
CONTINUOUS
10
-0.172523
20
-1.77128
11
-0.174036
21
-1.76814
0
LINE
8
BLACK
6
CONTINUOUS
10
-0.174036
20
-1.76814
11
-0.174232
21
-1.7664
0
LINE
8
BLACK
6
CONTINUOUS
10
-0.174232
20
-1.7664
11
-0.174232
21
0.166398
0
LINE
8
BLACK
6
CONTINUOUS
10
-0.174232
20
0.166398
11
-0.173456
21
0.169797
0
LINE
8
BLACK
6
CONTINUOUS
10
0.347261
20
-0.720814
11
0.34738
21
-0.722029
0
LINE
8
BLACK
6
CONTINUOUS
10
0.34738
20
-0.722029
11
0.347908
21
-0.727415
0
LINE
8
BLACK
6
CONTINUOUS
10
0.347908
20
-0.727415
11
0.35014
21
-0.734124
0
LINE
8
BLACK
6
CONTINUOUS
10
0.35014
20
-0.734124
11
0.353802
21
-0.740172
0
LINE
8
BLACK
6
CONTINUOUS
10
0.353802
20
-0.740172
11
0.358714
21
-0.745258
0
LINE
8
BLACK
6
CONTINUOUS
10
0.358714
20
-0.745258
11
0.36463
21
-0.74913
0
LINE
8
BLACK
6
CONTINUOUS
10
0.36463
20
-0.74913
11
0.365041
21
-0.749282
0
LINE
8
BLACK
6
CONTINUOUS
10
0.365041
20
-0.749282
11
0.370847
21
-0.751441
0
LINE
8
BLACK
6
CONTINUOUS
10
0.370847
20
-0.751441
11
0.370847
21
-0.751441
0
LINE
8
BLACK
6
CONTINUOUS
10
0.370847
20
-0.751441
11
0.371257
21
-0.751594
0
LINE
8
BLACK
6
CONTINUOUS
10
0.371257
20
-0.751594
11
0.371691
21
-0.751652
0
LINE
8
BLACK
6
CONTINUOUS
10
0.371691
20
-0.751652
11
0.371692
21
-0.751652
0
LINE
8
BLACK
6
CONTINUOUS
10
0.371692
20
-0.751652
11
0.376351
21
-0.752274
0
LINE
8
BLACK
6
CONTINUOUS
10
0.376351
20
-0.752274
11
0.378266
21
-0.752529
0
LINE
8
BLACK
6
CONTINUOUS
10
0.378266
20
-0.752529
11
0.378702
21
-0.75249
0
LINE
8
BLACK
6
CONTINUOUS
10
0.378702
20
-0.75249
11
0.384871
21
-0.751928
0
LINE
8
BLACK
6
CONTINUOUS
10
0.384871
20
-0.751928
11
0.384871
21
-0.751928
0
LINE
8
BLACK
6
CONTINUOUS
10
0.384871
20
-0.751928
11
0.385307
21
-0.751888
0
LINE
8
BLACK
6
CONTINUOUS
10
0.385307
20
-0.751888
11
0.388669
21
-0.750796
0
LINE
8
BLACK
6
CONTINUOUS
10
0.388669
20
-0.750796
11
0.391615
21
-0.749839
0
LINE
8
BLACK
6
CONTINUOUS
10
0.391615
20
-0.749839
11
0.391615
21
-0.749839
0
LINE
8
BLACK
6
CONTINUOUS
10
0.391615
20
-0.749839
11
0.392032
21
-0.749704
0
LINE
8
BLACK
6
CONTINUOUS
10
0.392032
20
-0.749704
11
0.392994
21
-0.74913
0
LINE
8
BLACK
6
CONTINUOUS
10
0.392994
20
-0.74913
11
0.397729
21
-0.746307
0
LINE
8
BLACK
6
CONTINUOUS
10
0.397729
20
-0.746307
11
0.397729
21
-0.746307
0
LINE
8
BLACK
6
CONTINUOUS
10
0.397729
20
-0.746307
11
0.398105
21
-0.746083
0
LINE
8
BLACK
6
CONTINUOUS
10
0.398105
20
-0.746083
11
0.403225
21
-0.741207
0
LINE
8
BLACK
6
CONTINUOUS
10
0.403225
20
-0.741207
11
0.403913
21
-0.740172
0
LINE
8
BLACK
6
CONTINUOUS
10
0.403913
20
-0.740172
11
0.406896
21
-0.735683
0
LINE
8
BLACK
6
CONTINUOUS
10
0.406896
20
-0.735683
11
0.407138
21
-0.735318
0
LINE
8
BLACK
6
CONTINUOUS
10
0.407138
20
-0.735318
11
0.409649
21
-0.728708
0
LINE
8
BLACK
6
CONTINUOUS
10
0.409649
20
-0.728708
11
0.41013
21
-0.725287
0
LINE
8
BLACK
6
CONTINUOUS
10
0.41013
20
-0.725287
11
0.411371
21
-0.722029
0
LINE
8
BLACK
6
CONTINUOUS
10
0.411371
20
-0.722029
11
0.412348
21
-0.720837
0
LINE
8
BLACK
6
CONTINUOUS
10
0.412348
20
-0.720837
11
0.423322
21
-0.709863
0
LINE
8
BLACK
6
CONTINUOUS
10
0.423322
20
-0.709863
11
0.424092
21
-0.709188
0
LINE
8
BLACK
6
CONTINUOUS
10
0.424092
20
-0.709188
11
0.424925
21
-0.708549
0
LINE
8
BLACK
6
CONTINUOUS
10
0.424925
20
-0.708549
11
0.428715
21
-0.70361
0
LINE
8
BLACK
6
CONTINUOUS
10
0.428715
20
-0.70361
11
0.431097
21
-0.697859
0
LINE
8
BLACK
6
CONTINUOUS
10
0.431097
20
-0.697859
11
0.431706
21
-0.693237
0
LINE
8
BLACK
6
CONTINUOUS
10
0.431706
20
-0.693237
11
0.43191
21
-0.691687
0
LINE
8
BLACK
6
CONTINUOUS
10
0.43191
20
-0.691687
11
0.431843
21
-0.691178
0
LINE
8
BLACK
6
CONTINUOUS
10
0.431843
20
-0.691178
11
0.431843
21
-0.691178
0
LINE
8
BLACK
6
CONTINUOUS
10
0.431843
20
-0.691178
11
0.431773
21
-0.690646
0
LINE
8
BLACK
6
CONTINUOUS
10
0.431773
20
-0.690646
11
0.431706
21
-0.689624
0
LINE
8
BLACK
6
CONTINUOUS
10
0.431706
20
-0.689624
11
0.431706
21
-0.58894
0
LINE
8
BLACK
6
CONTINUOUS
10
0.431706
20
-0.58894
11
0.432481
21
-0.585541
0
LINE
8
BLACK
6
CONTINUOUS
10
0.432481
20
-0.585541
11
0.434655
21
-0.582815
0
LINE
8
BLACK
6
CONTINUOUS
10
0.434655
20
-0.582815
11
0.435983
21
-0.58196
0
LINE
8
BLACK
6
CONTINUOUS
10
0.435983
20
-0.58196
11
0.436583
21
-0.581654
0
LINE
8
BLACK
6
CONTINUOUS
10
0.436583
20
-0.581654
11
0.437132
21
-0.581374
0
LINE
8
BLACK
6
CONTINUOUS
10
0.437132
20
-0.581374
11
0.440664
21
-0.577842
0
LINE
8
BLACK
6
CONTINUOUS
10
0.440664
20
-0.577842
11
0.442932
21
-0.573392
0
LINE
8
BLACK
6
CONTINUOUS
10
0.442932
20
-0.573392
11
0.443517
21
-0.5697
0
LINE
8
BLACK
6
CONTINUOUS
10
0.443517
20
-0.5697
11
0.443517
21
-0.468399
0
LINE
8
BLACK
6
CONTINUOUS
10
0.443517
20
-0.468399
11
0.443468
21
-0.468095
0
LINE
8
BLACK
6
CONTINUOUS
10
0.443468
20
-0.468095
11
0.443028
21
-0.465316
0
LINE
8
BLACK
6
CONTINUOUS
10
0.443028
20
-0.465316
11
0.443028
21
-0.465316
0
LINE
8
BLACK
6
CONTINUOUS
10
0.443028
20
-0.465316
11
0.442932
21
-0.464707
0
LINE
8
BLACK
6
CONTINUOUS
10
0.442932
20
-0.464707
11
0.440664
21
-0.460256
0
LINE
8
BLACK
6
CONTINUOUS
10
0.440664
20
-0.460256
11
0.437132
21
-0.456725
0
LINE
8
BLACK
6
CONTINUOUS
10
0.437132
20
-0.456725
11
0.432682
21
-0.454457
0
LINE
8
BLACK
6
CONTINUOUS
10
0.432682
20
-0.454457
11
0.42899
21
-0.453872
0
LINE
8
BLACK
6
CONTINUOUS
10
0.42899
20
-0.453872
11
0.428682
21
-0.453872
0
LINE
8
BLACK
6
CONTINUOUS
10
0.428682
20
-0.453872
11
0.408049
21
-0.453872
0
LINE
8
BLACK
6
CONTINUOUS
10
0.408049
20
-0.453872
11
0.387138
21
-0.453872
0
LINE
8
BLACK
6
CONTINUOUS
10
0.387138
20
-0.453872
11
0.386834
21
-0.45392
0
LINE
8
BLACK
6
CONTINUOUS
10
0.386834
20
-0.45392
11
0.386834
21
-0.45392
0
LINE
8
BLACK
6
CONTINUOUS
10
0.386834
20
-0.45392
11
0.384055
21
-0.454361
0
LINE
8
BLACK
6
CONTINUOUS
10
0.384055
20
-0.454361
11
0.384055
21
-0.454361
0
LINE
8
BLACK
6
CONTINUOUS
10
0.384055
20
-0.454361
11
0.383446
21
-0.454457
0
LINE
8
BLACK
6
CONTINUOUS
10
0.383446
20
-0.454457
11
0.382896
21
-0.454737
0
LINE
8
BLACK
6
CONTINUOUS
10
0.382896
20
-0.454737
11
0.382896
21
-0.454737
0
LINE
8
BLACK
6
CONTINUOUS
10
0.382896
20
-0.454737
11
0.381823
21
-0.455284
0
LINE
8
BLACK
6
CONTINUOUS
10
0.381823
20
-0.455284
11
0.378995
21
-0.456725
0
LINE
8
BLACK
6
CONTINUOUS
10
0.378995
20
-0.456725
11
0.375463
21
-0.460256
0
LINE
8
BLACK
6
CONTINUOUS
10
0.375463
20
-0.460256
11
0.373196
21
-0.464707
0
LINE
8
BLACK
6
CONTINUOUS
10
0.373196
20
-0.464707
11
0.372611
21
-0.468399
0
LINE
8
BLACK
6
CONTINUOUS
10
0.372611
20
-0.468399
11
0.372611
21
-0.5697
0
LINE
8
BLACK
6
CONTINUOUS
10
0.372611
20
-0.5697
11
0.372659
21
-0.570003
0
LINE
8
BLACK
6
CONTINUOUS
10
0.372659
20
-0.570003
11
0.372659
21
-0.570004
0
LINE
8
BLACK
6
CONTINUOUS
10
0.372659
20
-0.570004
11
0.373099
21
-0.572783
0
LINE
8
BLACK
6
CONTINUOUS
10
0.373099
20
-0.572783
11
0.373099
21
-0.572783
0
LINE
8
BLACK
6
CONTINUOUS
10
0.373099
20
-0.572783
11
0.373196
21
-0.573392
0
LINE
8
BLACK
6
CONTINUOUS
10
0.373196
20
-0.573392
11
0.375463
21
-0.577842
0
LINE
8
BLACK
6
CONTINUOUS
10
0.375463
20
-0.577842
11
0.378995
21
-0.581374
0
LINE
8
BLACK
6
CONTINUOUS
10
0.378995
20
-0.581374
11
0.379545
21
-0.581654
0
LINE
8
BLACK
6
CONTINUOUS
10
0.379545
20
-0.581654
11
0.380144
21
-0.58196
0
LINE
8
BLACK
6
CONTINUOUS
10
0.380144
20
-0.58196
11
0.382821
21
-0.584194
0
LINE
8
BLACK
6
CONTINUOUS
10
0.382821
20
-0.584194
11
0.384263
21
-0.587369
0
LINE
8
BLACK
6
CONTINUOUS
10
0.384263
20
-0.587369
11
0.384422
21
-0.58894
0
LINE
8
BLACK
6
CONTINUOUS
10
0.384422
20
-0.58894
11
0.384422
21
-0.678649
0
LINE
8
BLACK
6
CONTINUOUS
10
0.384422
20
-0.678649
11
0.383646
21
-0.682049
0
LINE
8
BLACK
6
CONTINUOUS
10
0.383646
20
-0.682049
11
0.382127
21
-0.684189
0
LINE
8
BLACK
6
CONTINUOUS
10
0.382127
20
-0.684189
11
0.378944
21
-0.687373
0
LINE
8
BLACK
6
CONTINUOUS
10
0.378944
20
-0.687373
11
0.375991
21
-0.689228
0
LINE
8
BLACK
6
CONTINUOUS
10
0.375991
20
-0.689228
11
0.374223
21
-0.689625
0
LINE
8
BLACK
6
CONTINUOUS
10
0.374223
20
-0.689625
11
0.37212
21
-0.689846
0
LINE
8
BLACK
6
CONTINUOUS
10
0.37212
20
-0.689846
11
0.365426
21
-0.692124
0
LINE
8
BLACK
6
CONTINUOUS
10
0.365426
20
-0.692124
11
0.361711
21
-0.69441
0
LINE
8
BLACK
6
CONTINUOUS
10
0.361711
20
-0.69441
11
0.359777
21
-0.6956
0
LINE
8
BLACK
6
CONTINUOUS
10
0.359777
20
-0.6956
11
0.359777
21
-0.6956
0
LINE
8
BLACK
6
CONTINUOUS
10
0.359777
20
-0.6956
11
0.359404
21
-0.695829
0
LINE
8
BLACK
6
CONTINUOUS
10
0.359404
20
-0.695829
11
0.354352
21
-0.700776
0
LINE
8
BLACK
6
CONTINUOUS
10
0.354352
20
-0.700776
11
0.350522
21
-0.706719
0
LINE
8
BLACK
6
CONTINUOUS
10
0.350522
20
-0.706719
11
0.348104
21
-0.713363
0
LINE
8
BLACK
6
CONTINUOUS
10
0.348104
20
-0.713363
11
0.347218
21
-0.720378
0
LINE
8
BLACK
6
CONTINUOUS
10
0.347218
20
-0.720378
11
0.347261
21
-0.720814
0
LINE
8
BLACK
6
CONTINUOUS
10
0.347261
20
-0.720814
11
0.347261
21
-0.720814
0
LINE
8
BLACK
6
CONTINUOUS
10
0.318947
20
-0.318459
11
0.3182
21
-0.318629
0
LINE
8
BLACK
6
CONTINUOUS
10
0.3182
20
-0.318629
11
0.318064
21
-0.318912
0
LINE
8
BLACK
6
CONTINUOUS
10
0.318064
20
-0.318912
11
0.318064
21
-0.339325
0
LINE
8
BLACK
6
CONTINUOUS
10
0.318064
20
-0.339325
11
0.327749
21
-0.339325
0
LINE
8
BLACK
6
CONTINUOUS
10
0.327749
20
-0.339325
11
0.327749
21
-0.378734
0
LINE
8
BLACK
6
CONTINUOUS
10
0.327749
20
-0.378734
11
0.347732
21
-0.378734
0
LINE
8
BLACK
6
CONTINUOUS
10
0.347732
20
-0.378734
11
0.348479
21
-0.378564
0
LINE
8
BLACK
6
CONTINUOUS
10
0.348479
20
-0.378564
11
0.348615
21
-0.378282
0
LINE
8
BLACK
6
CONTINUOUS
10
0.348615
20
-0.378282
11
0.348615
21
-0.33794
0
LINE
8
BLACK
6
CONTINUOUS
10
0.348615
20
-0.33794
11
0.348587
21
-0.337469
0
LINE
8
BLACK
6
CONTINUOUS
10
0.348587
20
-0.337469
11
0.348264
21
-0.3348
0
LINE
8
BLACK
6
CONTINUOUS
10
0.348264
20
-0.3348
11
0.348018
21
-0.333833
0
LINE
8
BLACK
6
CONTINUOUS
10
0.348018
20
-0.333833
11
0.346295
21
-0.329482
0
LINE
8
BLACK
6
CONTINUOUS
10
0.346295
20
-0.329482
11
0.345776
21
-0.32856
0
LINE
8
BLACK
6
CONTINUOUS
10
0.345776
20
-0.32856
11
0.342965
21
-0.324857
0
LINE
8
BLACK
6
CONTINUOUS
10
0.342965
20
-0.324857
11
0.342217
21
-0.324109
0
LINE
8
BLACK
6
CONTINUOUS
10
0.342217
20
-0.324109
11
0.338514
21
-0.321298
0
LINE
8
BLACK
6
CONTINUOUS
10
0.338514
20
-0.321298
11
0.337592
21
-0.320779
0
LINE
8
BLACK
6
CONTINUOUS
10
0.337592
20
-0.320779
11
0.333241
21
-0.319056
0
LINE
8
BLACK
6
CONTINUOUS
10
0.333241
20
-0.319056
11
0.332273
21
-0.31881
0
LINE
8
BLACK
6
CONTINUOUS
10
0.332273
20
-0.31881
11
0.329604
21
-0.318487
0
LINE
8
BLACK
6
CONTINUOUS
10
0.329604
20
-0.318487
11
0.329134
21
-0.318459
0
LINE
8
BLACK
6
CONTINUOUS
10
0.329134
20
-0.318459
11
0.318947
21
-0.318459
0
LINE
8
BLACK
6
CONTINUOUS
10
0.318517
20
-0.45901
11
0.329134
21
-0.45901
0
LINE
8
BLACK
6
CONTINUOUS
10
0.329134
20
-0.45901
11
0.329604
21
-0.458982
0
LINE
8
BLACK
6
CONTINUOUS
10
0.329604
20
-0.458982
11
0.332273
21
-0.458659
0
LINE
8
BLACK
6
CONTINUOUS
10
0.332273
20
-0.458659
11
0.333241
21
-0.458413
0
LINE
8
BLACK
6
CONTINUOUS
10
0.333241
20
-0.458413
11
0.337592
21
-0.45669
0
LINE
8
BLACK
6
CONTINUOUS
10
0.337592
20
-0.45669
11
0.338514
21
-0.456171
0
LINE
8
BLACK
6
CONTINUOUS
10
0.338514
20
-0.456171
11
0.342217
21
-0.45336
0
LINE
8
BLACK
6
CONTINUOUS
10
0.342217
20
-0.45336
11
0.342965
21
-0.452612
0
LINE
8
BLACK
6
CONTINUOUS
10
0.342965
20
-0.452612
11
0.345776
21
-0.448909
0
LINE
8
BLACK
6
CONTINUOUS
10
0.345776
20
-0.448909
11
0.346295
21
-0.447987
0
LINE
8
BLACK
6
CONTINUOUS
10
0.346295
20
-0.447987
11
0.348018
21
-0.443636
0
LINE
8
BLACK
6
CONTINUOUS
10
0.348018
20
-0.443636
11
0.348264
21
-0.442668
0
LINE
8
BLACK
6
CONTINUOUS
10
0.348264
20
-0.442668
11
0.348587
21
-0.439999
0
LINE
8
BLACK
6
CONTINUOUS
10
0.348587
20
-0.439999
11
0.348615
21
-0.439529
0
LINE
8
BLACK
6
CONTINUOUS
10
0.348615
20
-0.439529
11
0.348615
21
-0.399617
0
LINE
8
BLACK
6
CONTINUOUS
10
0.348615
20
-0.399617
11
0.348445
21
-0.39887
0
LINE
8
BLACK
6
CONTINUOUS
10
0.348445
20
-0.39887
11
0.348162
21
-0.398734
0
LINE
8
BLACK
6
CONTINUOUS
10
0.348162
20
-0.398734
11
0.327749
21
-0.398734
0
LINE
8
BLACK
6
CONTINUOUS
10
0.327749
20
-0.398734
11
0.327749
21
-0.438144
0
LINE
8
BLACK
6
CONTINUOUS
10
0.327749
20
-0.438144
11
0.318064
21
-0.438144
0
LINE
8
BLACK
6
CONTINUOUS
10
0.318064
20
-0.438144
11
0.318064
21
-0.458127
0
LINE
8
BLACK
6
CONTINUOUS
10
0.318064
20
-0.458127
11
0.318234
21
-0.458874
0
LINE
8
BLACK
6
CONTINUOUS
10
0.318234
20
-0.458874
11
0.318517
21
-0.45901
0
LINE
8
BLACK
6
CONTINUOUS
10
0.288379
20
-0.438144
11
0.288379
21
-0.398734
0
LINE
8
BLACK
6
CONTINUOUS
10
0.288379
20
-0.398734
11
0.268395
21
-0.398734
0
LINE
8
BLACK
6
CONTINUOUS
10
0.268395
20
-0.398734
11
0.267649
21
-0.398905
0
LINE
8
BLACK
6
CONTINUOUS
10
0.267649
20
-0.398905
11
0.267513
21
-0.399187
0
LINE
8
BLACK
6
CONTINUOUS
10
0.267513
20
-0.399187
11
0.267513
21
-0.439529
0
LINE
8
BLACK
6
CONTINUOUS
10
0.267513
20
-0.439529
11
0.267541
21
-0.439999
0
LINE
8
BLACK
6
CONTINUOUS
10
0.267541
20
-0.439999
11
0.267864
21
-0.442668
0
LINE
8
BLACK
6
CONTINUOUS
10
0.267864
20
-0.442668
11
0.26811
21
-0.443636
0
LINE
8
BLACK
6
CONTINUOUS
10
0.26811
20
-0.443636
11
0.269832
21
-0.447987
0
LINE
8
BLACK
6
CONTINUOUS
10
0.269832
20
-0.447987
11
0.270352
21
-0.448909
0
LINE
8
BLACK
6
CONTINUOUS
10
0.270352
20
-0.448909
11
0.273163
21
-0.452612
0
LINE
8
BLACK
6
CONTINUOUS
10
0.273163
20
-0.452612
11
0.273911
21
-0.45336
0
LINE
8
BLACK
6
CONTINUOUS
10
0.273911
20
-0.45336
11
0.277614
21
-0.456171
0
LINE
8
BLACK
6
CONTINUOUS
10
0.277614
20
-0.456171
11
0.278536
21
-0.45669
0
LINE
8
BLACK
6
CONTINUOUS
10
0.278536
20
-0.45669
11
0.282887
21
-0.458413
0
LINE
8
BLACK
6
CONTINUOUS
10
0.282887
20
-0.458413
11
0.283854
21
-0.458659
0
LINE
8
BLACK
6
CONTINUOUS
10
0.283854
20
-0.458659
11
0.286523
21
-0.458982
0
LINE
8
BLACK
6
CONTINUOUS
10
0.286523
20
-0.458982
11
0.286994
21
-0.45901
0
LINE
8
BLACK
6
CONTINUOUS
10
0.286994
20
-0.45901
11
0.297181
21
-0.45901
0
LINE
8
BLACK
6
CONTINUOUS
10
0.297181
20
-0.45901
11
0.297928
21
-0.45884
0
LINE
8
BLACK
6
CONTINUOUS
10
0.297928
20
-0.45884
11
0.298064
21
-0.458557
0
LINE
8
BLACK
6
CONTINUOUS
10
0.298064
20
-0.458557
11
0.298064
21
-0.438144
0
LINE
8
BLACK
6
CONTINUOUS
10
0.298064
20
-0.438144
11
0.288379
21
-0.438144
0
LINE
8
BLACK
6
CONTINUOUS
10
0.267965
20
-0.378734
11
0.288379
21
-0.378734
0
LINE
8
BLACK
6
CONTINUOUS
10
0.288379
20
-0.378734
11
0.288379
21
-0.339325
0
LINE
8
BLACK
6
CONTINUOUS
10
0.288379
20
-0.339325
11
0.298064
21
-0.339325
0
LINE
8
BLACK
6
CONTINUOUS
10
0.298064
20
-0.339325
11
0.298064
21
-0.319342
0
LINE
8
BLACK
6
CONTINUOUS
10
0.298064
20
-0.319342
11
0.297893
21
-0.318595
0
LINE
8
BLACK
6
CONTINUOUS
10
0.297893
20
-0.318595
11
0.297611
21
-0.318459
0
LINE
8
BLACK
6
CONTINUOUS
10
0.297611
20
-0.318459
11
0.286994
21
-0.318459
0
LINE
8
BLACK
6
CONTINUOUS
10
0.286994
20
-0.318459
11
0.286523
21
-0.318487
0
LINE
8
BLACK
6
CONTINUOUS
10
0.286523
20
-0.318487
11
0.283854
21
-0.31881
0
LINE
8
BLACK
6
CONTINUOUS
10
0.283854
20
-0.31881
11
0.282887
21
-0.319056
0
LINE
8
BLACK
6
CONTINUOUS
10
0.282887
20
-0.319056
11
0.278536
21
-0.320779
0
LINE
8
BLACK
6
CONTINUOUS
10
0.278536
20
-0.320779
11
0.277614
21
-0.321298
0
LINE
8
BLACK
6
CONTINUOUS
10
0.277614
20
-0.321298
11
0.273911
21
-0.324109
0
LINE
8
BLACK
6
CONTINUOUS
10
0.273911
20
-0.324109
11
0.273163
21
-0.324857
0
LINE
8
BLACK
6
CONTINUOUS
10
0.273163
20
-0.324857
11
0.270352
21
-0.32856
0
LINE
8
BLACK
6
CONTINUOUS
10
0.270352
20
-0.32856
11
0.269832
21
-0.329482
0
LINE
8
BLACK
6
CONTINUOUS
10
0.269832
20
-0.329482
11
0.26811
21
-0.333833
0
LINE
8
BLACK
6
CONTINUOUS
10
0.26811
20
-0.333833
11
0.267864
21
-0.3348
0
LINE
8
BLACK
6
CONTINUOUS
10
0.267864
20
-0.3348
11
0.267541
21
-0.337469
0
LINE
8
BLACK
6
CONTINUOUS
10
0.267541
20
-0.337469
11
0.267513
21
-0.33794
0
LINE
8
BLACK
6
CONTINUOUS
10
0.267513
20
-0.33794
11
0.267513
21
-0.377852
0
LINE
8
BLACK
6
CONTINUOUS
10
0.267513
20
-0.377852
11
0.267683
21
-0.378598
0
LINE
8
BLACK
6
CONTINUOUS
10
0.267683
20
-0.378598
11
0.267965
21
-0.378734
0
LINE
8
BLACK
6
CONTINUOUS
10
0.172659
20
-0.570003
11
0.172659
21
-0.570004
0
LINE
8
BLACK
6
CONTINUOUS
10
0.172659
20
-0.570004
11
0.173099
21
-0.572783
0
LINE
8
BLACK
6
CONTINUOUS
10
0.173099
20
-0.572783
11
0.173099
21
-0.572783
0
LINE
8
BLACK
6
CONTINUOUS
10
0.173099
20
-0.572783
11
0.173196
21
-0.573392
0
LINE
8
BLACK
6
CONTINUOUS
10
0.173196
20
-0.573392
11
0.175463
21
-0.577842
0
LINE
8
BLACK
6
CONTINUOUS
10
0.175463
20
-0.577842
11
0.178995
21
-0.581374
0
LINE
8
BLACK
6
CONTINUOUS
10
0.178995
20
-0.581374
11
0.183446
21
-0.583642
0
LINE
8
BLACK
6
CONTINUOUS
10
0.183446
20
-0.583642
11
0.187138
21
-0.584227
0
LINE
8
BLACK
6
CONTINUOUS
10
0.187138
20
-0.584227
11
0.187446
21
-0.584227
0
LINE
8
BLACK
6
CONTINUOUS
10
0.187446
20
-0.584227
11
0.208079
21
-0.584226
0
LINE
8
BLACK
6
CONTINUOUS
10
0.208079
20
-0.584226
11
0.22899
21
-0.584226
0
LINE
8
BLACK
6
CONTINUOUS
10
0.22899
20
-0.584226
11
0.229293
21
-0.584178
0
LINE
8
BLACK
6
CONTINUOUS
10
0.229293
20
-0.584178
11
0.229294
21
-0.584178
0
LINE
8
BLACK
6
CONTINUOUS
10
0.229294
20
-0.584178
11
0.232073
21
-0.583738
0
LINE
8
BLACK
6
CONTINUOUS
10
0.232073
20
-0.583738
11
0.232073
21
-0.583738
0
LINE
8
BLACK
6
CONTINUOUS
10
0.232073
20
-0.583738
11
0.232682
21
-0.583642
0
LINE
8
BLACK
6
CONTINUOUS
10
0.232682
20
-0.583642
11
0.233232
21
-0.583362
0
LINE
8
BLACK
6
CONTINUOUS
10
0.233232
20
-0.583362
11
0.233232
21
-0.583362
0
LINE
8
BLACK
6
CONTINUOUS
10
0.233232
20
-0.583362
11
0.236583
21
-0.581654
0
LINE
8
BLACK
6
CONTINUOUS
10
0.236583
20
-0.581654
11
0.237132
21
-0.581374
0
LINE
8
BLACK
6
CONTINUOUS
10
0.237132
20
-0.581374
11
0.240664
21
-0.577842
0
LINE
8
BLACK
6
CONTINUOUS
10
0.240664
20
-0.577842
11
0.242932
21
-0.573392
0
LINE
8
BLACK
6
CONTINUOUS
10
0.242932
20
-0.573392
11
0.243517
21
-0.5697
0
LINE
8
BLACK
6
CONTINUOUS
10
0.243517
20
-0.5697
11
0.243517
21
-0.468399
0
LINE
8
BLACK
6
CONTINUOUS
10
0.243517
20
-0.468399
11
0.243468
21
-0.468095
0
LINE
8
BLACK
6
CONTINUOUS
10
0.243468
20
-0.468095
11
0.243028
21
-0.465316
0
LINE
8
BLACK
6
CONTINUOUS
10
0.243028
20
-0.465316
11
0.243028
21
-0.465316
0
LINE
8
BLACK
6
CONTINUOUS
10
0.243028
20
-0.465316
11
0.242932
21
-0.464707
0
LINE
8
BLACK
6
CONTINUOUS
10
0.242932
20
-0.464707
11
0.240664
21
-0.460256
0
LINE
8
BLACK
6
CONTINUOUS
10
0.240664
20
-0.460256
11
0.237132
21
-0.456725
0
LINE
8
BLACK
6
CONTINUOUS
10
0.237132
20
-0.456725
11
0.235983
21
-0.456139
0
LINE
8
BLACK
6
CONTINUOUS
10
0.235983
20
-0.456139
11
0.233307
21
-0.453905
0
LINE
8
BLACK
6
CONTINUOUS
10
0.233307
20
-0.453905
11
0.231865
21
-0.45073
0
LINE
8
BLACK
6
CONTINUOUS
10
0.231865
20
-0.45073
11
0.231706
21
-0.449158
0
LINE
8
BLACK
6
CONTINUOUS
10
0.231706
20
-0.449158
11
0.231706
21
-0.295197
0
LINE
8
BLACK
6
CONTINUOUS
10
0.231706
20
-0.295197
11
0.232481
21
-0.291798
0
LINE
8
BLACK
6
CONTINUOUS
10
0.232481
20
-0.291798
11
0.234655
21
-0.289072
0
LINE
8
BLACK
6
CONTINUOUS
10
0.234655
20
-0.289072
11
0.237797
21
-0.287559
0
LINE
8
BLACK
6
CONTINUOUS
10
0.237797
20
-0.287559
11
0.23883
21
-0.287395
0
LINE
8
BLACK
6
CONTINUOUS
10
0.23883
20
-0.287395
11
0.239638
21
-0.287321
0
LINE
8
BLACK
6
CONTINUOUS
10
0.239638
20
-0.287321
11
0.240432
21
-0.287064
0
LINE
8
BLACK
6
CONTINUOUS
10
0.240432
20
-0.287064
11
0.245946
21
-0.285272
0
LINE
8
BLACK
6
CONTINUOUS
10
0.245946
20
-0.285272
11
0.245946
21
-0.285272
0
LINE
8
BLACK
6
CONTINUOUS
10
0.245946
20
-0.285272
11
0.246362
21
-0.285137
0
LINE
8
BLACK
6
CONTINUOUS
10
0.246362
20
-0.285137
11
0.252436
21
-0.281516
0
LINE
8
BLACK
6
CONTINUOUS
10
0.252436
20
-0.281516
11
0.257556
21
-0.27664
0
LINE
8
BLACK
6
CONTINUOUS
10
0.257556
20
-0.27664
11
0.258122
21
-0.275788
0
LINE
8
BLACK
6
CONTINUOUS
10
0.258122
20
-0.275788
11
0.261226
21
-0.271116
0
LINE
8
BLACK
6
CONTINUOUS
10
0.261226
20
-0.271116
11
0.261469
21
-0.270751
0
LINE
8
BLACK
6
CONTINUOUS
10
0.261469
20
-0.270751
11
0.261753
21
-0.270002
0
LINE
8
BLACK
6
CONTINUOUS
10
0.261753
20
-0.270002
11
0.263824
21
-0.264551
0
LINE
8
BLACK
6
CONTINUOUS
10
0.263824
20
-0.264551
11
0.263979
21
-0.264141
0
LINE
8
BLACK
6
CONTINUOUS
10
0.263979
20
-0.264141
11
0.264963
21
-0.25714
0
LINE
8
BLACK
6
CONTINUOUS
10
0.264963
20
-0.25714
11
0.264976
21
-0.256254
0
LINE
8
BLACK
6
CONTINUOUS
10
0.264976
20
-0.256254
11
0.264188
21
-0.249228
0
LINE
8
BLACK
6
CONTINUOUS
10
0.264188
20
-0.249228
11
0.263894
21
-0.248385
0
LINE
8
BLACK
6
CONTINUOUS
10
0.263894
20
-0.248385
11
0.262007
21
-0.242964
0
LINE
8
BLACK
6
CONTINUOUS
10
0.262007
20
-0.242964
11
0.261862
21
-0.24255
0
LINE
8
BLACK
6
CONTINUOUS
10
0.261862
20
-0.24255
11
0.258116
21
-0.236554
0
LINE
8
BLACK
6
CONTINUOUS
10
0.258116
20
-0.236554
11
0.253134
21
-0.231537
0
LINE
8
BLACK
6
CONTINUOUS
10
0.253134
20
-0.231537
11
0.247164
21
-0.227749
0
LINE
8
BLACK
6
CONTINUOUS
10
0.247164
20
-0.227749
11
0.243659
21
-0.226501
0
LINE
8
BLACK
6
CONTINUOUS
10
0.243659
20
-0.226501
11
0.240916
21
-0.225524
0
LINE
8
BLACK
6
CONTINUOUS
10
0.240916
20
-0.225524
11
0.240915
21
-0.225524
0
LINE
8
BLACK
6
CONTINUOUS
10
0.240915
20
-0.225524
11
0.240503
21
-0.225377
0
LINE
8
BLACK
6
CONTINUOUS
10
0.240503
20
-0.225377
11
0.240068
21
-0.225325
0
LINE
8
BLACK
6
CONTINUOUS
10
0.240068
20
-0.225325
11
0.240068
21
-0.225325
0
LINE
8
BLACK
6
CONTINUOUS
10
0.240068
20
-0.225325
11
0.233917
21
-0.224592
0
LINE
8
BLACK
6
CONTINUOUS
10
0.233917
20
-0.224592
11
0.233917
21
-0.224592
0
LINE
8
BLACK
6
CONTINUOUS
10
0.233917
20
-0.224592
11
0.233482
21
-0.22454
0
LINE
8
BLACK
6
CONTINUOUS
10
0.233482
20
-0.22454
11
0.22645
21
-0.225279
0
LINE
8
BLACK
6
CONTINUOUS
10
0.22645
20
-0.225279
11
0.226036
21
-0.22542
0
LINE
8
BLACK
6
CONTINUOUS
10
0.226036
20
-0.22542
11
0.226035
21
-0.22542
0
LINE
8
BLACK
6
CONTINUOUS
10
0.226035
20
-0.22542
11
0.222947
21
-0.226471
0
LINE
8
BLACK
6
CONTINUOUS
10
0.222947
20
-0.226471
11
0.219757
21
-0.227557
0
LINE
8
BLACK
6
CONTINUOUS
10
0.219757
20
-0.227557
11
0.216042
21
-0.229843
0
LINE
8
BLACK
6
CONTINUOUS
10
0.216042
20
-0.229843
11
0.214108
21
-0.231033
0
LINE
8
BLACK
6
CONTINUOUS
10
0.214108
20
-0.231033
11
0.214108
21
-0.231033
0
LINE
8
BLACK
6
CONTINUOUS
10
0.214108
20
-0.231033
11
0.213735
21
-0.231262
0
LINE
8
BLACK
6
CONTINUOUS
10
0.213735
20
-0.231262
11
0.208683
21
-0.236209
0
LINE
8
BLACK
6
CONTINUOUS
10
0.208683
20
-0.236209
11
0.204853
21
-0.242152
0
LINE
8
BLACK
6
CONTINUOUS
10
0.204853
20
-0.242152
11
0.202435
21
-0.248797
0
LINE
8
BLACK
6
CONTINUOUS
10
0.202435
20
-0.248797
11
0.20238
21
-0.249231
0
LINE
8
BLACK
6
CONTINUOUS
10
0.20238
20
-0.249231
11
0.20238
21
-0.249231
0
LINE
8
BLACK
6
CONTINUOUS
10
0.20238
20
-0.249231
11
0.20207
21
-0.251686
0
LINE
8
BLACK
6
CONTINUOUS
10
0.20207
20
-0.251686
11
0.200874
21
-0.254961
0
LINE
8
BLACK
6
CONTINUOUS
10
0.200874
20
-0.254961
11
0.199837
21
-0.256243
0
LINE
8
BLACK
6
CONTINUOUS
10
0.199837
20
-0.256243
11
0.192806
21
-0.263275
0
LINE
8
BLACK
6
CONTINUOUS
10
0.192806
20
-0.263275
11
0.192035
21
-0.26395
0
LINE
8
BLACK
6
CONTINUOUS
10
0.192035
20
-0.26395
11
0.191202
21
-0.264589
0
LINE
8
BLACK
6
CONTINUOUS
10
0.191202
20
-0.264589
11
0.19089
21
-0.264997
0
LINE
8
BLACK
6
CONTINUOUS
10
0.19089
20
-0.264997
11
0.19089
21
-0.264997
0
LINE
8
BLACK
6
CONTINUOUS
10
0.19089
20
-0.264997
11
0.190251
21
-0.265829
0
LINE
8
BLACK
6
CONTINUOUS
10
0.190251
20
-0.265829
11
0.190251
21
-0.265829
0
LINE
8
BLACK
6
CONTINUOUS
10
0.190251
20
-0.265829
11
0.187413
21
-0.269528
0
LINE
8
BLACK
6
CONTINUOUS
10
0.187413
20
-0.269528
11
0.185031
21
-0.275279
0
LINE
8
BLACK
6
CONTINUOUS
10
0.185031
20
-0.275279
11
0.184218
21
-0.281451
0
LINE
8
BLACK
6
CONTINUOUS
10
0.184218
20
-0.281451
11
0.184285
21
-0.28196
0
LINE
8
BLACK
6
CONTINUOUS
10
0.184285
20
-0.28196
11
0.184285
21
-0.28196
0
LINE
8
BLACK
6
CONTINUOUS
10
0.184285
20
-0.28196
11
0.184355
21
-0.282492
0
LINE
8
BLACK
6
CONTINUOUS
10
0.184355
20
-0.282492
11
0.184422
21
-0.283514
0
LINE
8
BLACK
6
CONTINUOUS
10
0.184422
20
-0.283514
11
0.184422
21
-0.449158
0
LINE
8
BLACK
6
CONTINUOUS
10
0.184422
20
-0.449158
11
0.183646
21
-0.452558
0
LINE
8
BLACK
6
CONTINUOUS
10
0.183646
20
-0.452558
11
0.181472
21
-0.455284
0
LINE
8
BLACK
6
CONTINUOUS
10
0.181472
20
-0.455284
11
0.180144
21
-0.456139
0
LINE
8
BLACK
6
CONTINUOUS
10
0.180144
20
-0.456139
11
0.178995
21
-0.456725
0
LINE
8
BLACK
6
CONTINUOUS
10
0.178995
20
-0.456725
11
0.175463
21
-0.460256
0
LINE
8
BLACK
6
CONTINUOUS
10
0.175463
20
-0.460256
11
0.173196
21
-0.464707
0
LINE
8
BLACK
6
CONTINUOUS
10
0.173196
20
-0.464707
11
0.172611
21
-0.468399
0
LINE
8
BLACK
6
CONTINUOUS
10
0.172611
20
-0.468399
11
0.172611
21
-0.5697
0
LINE
8
BLACK
6
CONTINUOUS
10
0.172611
20
-0.5697
11
0.172659
21
-0.570003
0
LINE
8
BLACK
6
CONTINUOUS
10
0.427749
20
-0.568459
11
0.415938
21
-0.568459
0
LINE
8
BLACK
6
CONTINUOUS
10
0.415938
20
-0.568459
11
0.415938
21
-0.691701
0
LINE
8
BLACK
6
CONTINUOUS
10
0.415938
20
-0.691701
11
0.415643
21
-0.692983
0
LINE
8
BLACK
6
CONTINUOUS
10
0.415643
20
-0.692983
11
0.415495
21
-0.69429
0
LINE
8
BLACK
6
CONTINUOUS
10
0.415495
20
-0.69429
11
0.415254
21
-0.694673
0
LINE
8
BLACK
6
CONTINUOUS
10
0.415254
20
-0.694673
11
0.415153
21
-0.695114
0
LINE
8
BLACK
6
CONTINUOUS
10
0.415153
20
-0.695114
11
0.414331
21
-0.696142
0
LINE
8
BLACK
6
CONTINUOUS
10
0.414331
20
-0.696142
11
0.413632
21
-0.697255
0
LINE
8
BLACK
6
CONTINUOUS
10
0.413632
20
-0.697255
11
0.394047
21
-0.716839
0
LINE
8
BLACK
6
CONTINUOUS
10
0.394047
20
-0.716839
11
0.394678
21
-0.720821
0
LINE
8
BLACK
6
CONTINUOUS
10
0.394678
20
-0.720821
11
0.393907
21
-0.725687
0
LINE
8
BLACK
6
CONTINUOUS
10
0.393907
20
-0.725687
11
0.39167
21
-0.730077
0
LINE
8
BLACK
6
CONTINUOUS
10
0.39167
20
-0.730077
11
0.388186
21
-0.733561
0
LINE
8
BLACK
6
CONTINUOUS
10
0.388186
20
-0.733561
11
0.383796
21
-0.735798
0
LINE
8
BLACK
6
CONTINUOUS
10
0.383796
20
-0.735798
11
0.37893
21
-0.736569
0
LINE
8
BLACK
6
CONTINUOUS
10
0.37893
20
-0.736569
11
0.374064
21
-0.735798
0
LINE
8
BLACK
6
CONTINUOUS
10
0.374064
20
-0.735798
11
0.369674
21
-0.733561
0
LINE
8
BLACK
6
CONTINUOUS
10
0.369674
20
-0.733561
11
0.36619
21
-0.730077
0
LINE
8
BLACK
6
CONTINUOUS
10
0.36619
20
-0.730077
11
0.363953
21
-0.725687
0
LINE
8
BLACK
6
CONTINUOUS
10
0.363953
20
-0.725687
11
0.363182
21
-0.720821
0
LINE
8
BLACK
6
CONTINUOUS
10
0.363182
20
-0.720821
11
0.363953
21
-0.715955
0
LINE
8
BLACK
6
CONTINUOUS
10
0.363953
20
-0.715955
11
0.36619
21
-0.711565
0
LINE
8
BLACK
6
CONTINUOUS
10
0.36619
20
-0.711565
11
0.369674
21
-0.708081
0
LINE
8
BLACK
6
CONTINUOUS
10
0.369674
20
-0.708081
11
0.374064
21
-0.705844
0
LINE
8
BLACK
6
CONTINUOUS
10
0.374064
20
-0.705844
11
0.37893
21
-0.705073
0
LINE
8
BLACK
6
CONTINUOUS
10
0.37893
20
-0.705073
11
0.382912
21
-0.705704
0
LINE
8
BLACK
6
CONTINUOUS
10
0.382912
20
-0.705704
11
0.40019
21
-0.688426
0
LINE
8
BLACK
6
CONTINUOUS
10
0.40019
20
-0.688426
11
0.40019
21
-0.568459
0
LINE
8
BLACK
6
CONTINUOUS
10
0.40019
20
-0.568459
11
0.388379
21
-0.568459
0
LINE
8
BLACK
6
CONTINUOUS
10
0.388379
20
-0.568459
11
0.388379
21
-0.46964
0
LINE
8
BLACK
6
CONTINUOUS
10
0.388379
20
-0.46964
11
0.427749
21
-0.46964
0
LINE
8
BLACK
6
CONTINUOUS
10
0.427749
20
-0.46964
11
0.427749
21
-0.568459
0
LINE
8
BLACK
6
CONTINUOUS
10
0.238127
20
-0.241277
11
0.242517
21
-0.243514
0
LINE
8
BLACK
6
CONTINUOUS
10
0.242517
20
-0.243514
11
0.246001
21
-0.246998
0
LINE
8
BLACK
6
CONTINUOUS
10
0.246001
20
-0.246998
11
0.248238
21
-0.251388
0
LINE
8
BLACK
6
CONTINUOUS
10
0.248238
20
-0.251388
11
0.249009
21
-0.256254
0
LINE
8
BLACK
6
CONTINUOUS
10
0.249009
20
-0.256254
11
0.248238
21
-0.261121
0
LINE
8
BLACK
6
CONTINUOUS
10
0.248238
20
-0.261121
11
0.246001
21
-0.265511
0
LINE
8
BLACK
6
CONTINUOUS
10
0.246001
20
-0.265511
11
0.242517
21
-0.268995
0
LINE
8
BLACK
6
CONTINUOUS
10
0.242517
20
-0.268995
11
0.238127
21
-0.271231
0
LINE
8
BLACK
6
CONTINUOUS
10
0.238127
20
-0.271231
11
0.233261
21
-0.272002
0
LINE
8
BLACK
6
CONTINUOUS
10
0.233261
20
-0.272002
11
0.229279
21
-0.271371
0
LINE
8
BLACK
6
CONTINUOUS
10
0.229279
20
-0.271371
11
0.215938
21
-0.284712
0
LINE
8
BLACK
6
CONTINUOUS
10
0.215938
20
-0.284712
11
0.215938
21
-0.46964
0
LINE
8
BLACK
6
CONTINUOUS
10
0.215938
20
-0.46964
11
0.227749
21
-0.46964
0
LINE
8
BLACK
6
CONTINUOUS
10
0.227749
20
-0.46964
11
0.227749
21
-0.568459
0
LINE
8
BLACK
6
CONTINUOUS
10
0.227749
20
-0.568459
11
0.188379
21
-0.568459
0
LINE
8
BLACK
6
CONTINUOUS
10
0.188379
20
-0.568459
11
0.188379
21
-0.46964
0
LINE
8
BLACK
6
CONTINUOUS
10
0.188379
20
-0.46964
11
0.20019
21
-0.46964
0
LINE
8
BLACK
6
CONTINUOUS
10
0.20019
20
-0.46964
11
0.20019
21
-0.281437
0
LINE
8
BLACK
6
CONTINUOUS
10
0.20019
20
-0.281437
11
0.200485
21
-0.280155
0
LINE
8
BLACK
6
CONTINUOUS
10
0.200485
20
-0.280155
11
0.200632
21
-0.278849
0
LINE
8
BLACK
6
CONTINUOUS
10
0.200632
20
-0.278849
11
0.200873
21
-0.278465
0
LINE
8
BLACK
6
CONTINUOUS
10
0.200873
20
-0.278465
11
0.200975
21
-0.278024
0
LINE
8
BLACK
6
CONTINUOUS
10
0.200975
20
-0.278024
11
0.201796
21
-0.276997
0
LINE
8
BLACK
6
CONTINUOUS
10
0.201796
20
-0.276997
11
0.202496
21
-0.275883
0
LINE
8
BLACK
6
CONTINUOUS
10
0.202496
20
-0.275883
11
0.218143
21
-0.260236
0
LINE
8
BLACK
6
CONTINUOUS
10
0.218143
20
-0.260236
11
0.217513
21
-0.256254
0
LINE
8
BLACK
6
CONTINUOUS
10
0.217513
20
-0.256254
11
0.218283
21
-0.251388
0
LINE
8
BLACK
6
CONTINUOUS
10
0.218283
20
-0.251388
11
0.22052
21
-0.246998
0
LINE
8
BLACK
6
CONTINUOUS
10
0.22052
20
-0.246998
11
0.224004
21
-0.243514
0
LINE
8
BLACK
6
CONTINUOUS
10
0.224004
20
-0.243514
11
0.228394
21
-0.241277
0
LINE
8
BLACK
6
CONTINUOUS
10
0.228394
20
-0.241277
11
0.233261
21
-0.240506
0
LINE
8
BLACK
6
CONTINUOUS
10
0.233261
20
-0.240506
11
0.238127
21
-0.241277
0
CIRCLE
8
BLACK
10
0.37893
20
-0.720821
40
0.00787402
0
CIRCLE
8
BLACK
10
0.233261
20
-0.256254
40
0.00787402
  0
ENDSEC
  0
EOF
