  0
SECTION
  2
HEADER
  9
$ANGBASE
  50
0.0
  9
$ANGDIR
  70
1
  9
$MEASUREMENT
  70
0
  0
ENDSEC
  0
SECTION
  2
TABLES
  0
TABLE
  2
LTYPE
  70
4
  0
LTYPE
  5
40F
  2
CONTINUOUS
  70
0
  3
Solid line
  72
65
  73
0
  40
0.0
  0
LTYPE
  5
410
  2
DASHDOT
 70
0
  3
Dash Dot ____ _ ____ _
 72
65
 73
4
 40
2.0
 49
1.25
 49
-0.25
 49
0.25
 49
-0.25
  0
LTYPE
  5
411
  2
DASHED
 70
0
  3
Dashed __ __ __ __ __
 72
65
 73
2
 40
0.75
 49
0.5
 49
-0.25
  0
LTYPE
  5
43B
  2
DOTTED
 70
0
  3
Dotted .  .  .  .
 72
65
 73
2
 40
0.2
 49
0.0
 49
-0.2
  0
ENDTAB
  0
TABLE
  2
STYLE
  70
4
  0
STYLE
  2
KICAD
  70
0
  40
0
  41
1
  42
1
  50
0
  71
0
  3
isocp.shx
  0
STYLE
  2
KICADB
  70
0
  40
0
  41
1
  42
1
  50
0
  71
0
  3
isocp.shx
  0
STYLE
  2
KICADI
  70
0
  40
0
  41
1
  42
1
  50
15
  71
0
  3
isocp.shx
  0
STYLE
  2
KICADBI
  70
0
  40
0
  41
1
  42
1
  50
15
  71
0
  3
isocp.shx
  0
ENDTAB
  0
TABLE
  2
LAYER
  70
1
  0
LAYER
  2
BLACK
  70
0
  62
7
  6
CONTINUOUS
  0
ENDTAB
  0
ENDSEC
  0
SECTION
  2
ENTITIES
0
LINE
8
BLACK
6
CONTINUOUS
10
0.014917
20
-1.4749
11
0.0287686
21
-1.47734
0
LINE
8
BLACK
6
CONTINUOUS
10
0.0287686
20
-1.47734
11
0.0422616
21
-1.48132
0
LINE
8
BLACK
6
CONTINUOUS
10
0.0422616
20
-1.48132
11
0.0552279
21
-1.48677
0
LINE
8
BLACK
6
CONTINUOUS
10
0.0552279
20
-1.48677
11
0.0675057
21
-1.49363
0
LINE
8
BLACK
6
CONTINUOUS
10
0.0675057
20
-1.49363
11
0.0789422
21
-1.50182
0
LINE
8
BLACK
6
CONTINUOUS
10
0.0789422
20
-1.50182
11
0.0893947
21
-1.51123
0
LINE
8
BLACK
6
CONTINUOUS
10
0.0893947
20
-1.51123
11
0.098733
21
-1.52175
0
LINE
8
BLACK
6
CONTINUOUS
10
0.098733
20
-1.52175
11
0.106841
21
-1.53324
0
LINE
8
BLACK
6
CONTINUOUS
10
0.106841
20
-1.53324
11
0.113617
21
-1.54556
0
LINE
8
BLACK
6
CONTINUOUS
10
0.113617
20
-1.54556
11
0.118977
21
-1.55857
0
LINE
8
BLACK
6
CONTINUOUS
10
0.118977
20
-1.55857
11
0.122853
21
-1.57209
0
LINE
8
BLACK
6
CONTINUOUS
10
0.122853
20
-1.57209
11
0.125199
21
-1.58596
0
LINE
8
BLACK
6
CONTINUOUS
10
0.125199
20
-1.58596
11
0.125984
21
-1.6
0
LINE
8
BLACK
6
CONTINUOUS
10
0.125984
20
-1.6
11
0.125935
21
-1.60352
0
LINE
8
BLACK
6
CONTINUOUS
10
0.125935
20
-1.60352
11
0.124758
21
-1.61753
0
LINE
8
BLACK
6
CONTINUOUS
10
0.124758
20
-1.61753
11
0.122026
21
-1.63133
0
LINE
8
BLACK
6
CONTINUOUS
10
0.122026
20
-1.63133
11
0.117773
21
-1.64474
0
LINE
8
BLACK
6
CONTINUOUS
10
0.117773
20
-1.64474
11
0.112052
21
-1.65759
0
LINE
8
BLACK
6
CONTINUOUS
10
0.112052
20
-1.65759
11
0.104935
21
-1.66972
0
LINE
8
BLACK
6
CONTINUOUS
10
0.104935
20
-1.66972
11
0.0965095
21
-1.68098
0
LINE
8
BLACK
6
CONTINUOUS
10
0.0965095
20
-1.68098
11
0.0868812
21
-1.69123
0
LINE
8
BLACK
6
CONTINUOUS
10
0.0868812
20
-1.69123
11
0.07617
21
-1.70035
0
LINE
8
BLACK
6
CONTINUOUS
10
0.07617
20
-1.70035
11
0.0645093
21
-1.70822
0
LINE
8
BLACK
6
CONTINUOUS
10
0.0645093
20
-1.70822
11
0.0520446
21
-1.71473
0
LINE
8
BLACK
6
CONTINUOUS
10
0.0520446
20
-1.71473
11
0.0389313
21
-1.71982
0
LINE
8
BLACK
6
CONTINUOUS
10
0.0389313
20
-1.71982
11
0.0253326
21
-1.72341
0
LINE
8
BLACK
6
CONTINUOUS
10
0.0253326
20
-1.72341
11
0.0114183
21
-1.72547
0
LINE
8
BLACK
6
CONTINUOUS
10
0.0114183
20
-1.72547
11
-0.00263843
21
-1.72596
0
LINE
8
BLACK
6
CONTINUOUS
10
-0.00263843
20
-1.72596
11
-0.0166622
21
-1.72488
0
LINE
8
BLACK
6
CONTINUOUS
10
-0.0166622
20
-1.72488
11
-0.0304783
21
-1.72224
0
LINE
8
BLACK
6
CONTINUOUS
10
-0.0304783
20
-1.72224
11
-0.0439146
21
-1.71808
0
LINE
8
BLACK
6
CONTINUOUS
10
-0.0439146
20
-1.71808
11
-0.0568035
21
-1.71245
0
LINE
8
BLACK
6
CONTINUOUS
10
-0.0568035
20
-1.71245
11
-0.0689843
21
-1.70542
0
LINE
8
BLACK
6
CONTINUOUS
10
-0.0689843
20
-1.70542
11
-0.0803054
21
-1.69707
0
LINE
8
BLACK
6
CONTINUOUS
10
-0.0803054
20
-1.69707
11
-0.0906255
21
-1.68752
0
LINE
8
BLACK
6
CONTINUOUS
10
-0.0906255
20
-1.68752
11
-0.099816
21
-1.67687
0
LINE
8
BLACK
6
CONTINUOUS
10
-0.099816
20
-1.67687
11
-0.107762
21
-1.66526
0
LINE
8
BLACK
6
CONTINUOUS
10
-0.107762
20
-1.66526
11
-0.114366
21
-1.65284
0
LINE
8
BLACK
6
CONTINUOUS
10
-0.114366
20
-1.65284
11
-0.119543
21
-1.63977
0
LINE
8
BLACK
6
CONTINUOUS
10
-0.119543
20
-1.63977
11
-0.123231
21
-1.62619
0
LINE
8
BLACK
6
CONTINUOUS
10
-0.123231
20
-1.62619
11
-0.125383
21
-1.61229
0
LINE
8
BLACK
6
CONTINUOUS
10
-0.125383
20
-1.61229
11
-0.125972
21
-1.59824
0
LINE
8
BLACK
6
CONTINUOUS
10
-0.125972
20
-1.59824
11
-0.124991
21
-1.58421
0
LINE
8
BLACK
6
CONTINUOUS
10
-0.124991
20
-1.58421
11
-0.122452
21
-1.57038
0
LINE
8
BLACK
6
CONTINUOUS
10
-0.122452
20
-1.57038
11
-0.118386
21
-1.55691
0
LINE
8
BLACK
6
CONTINUOUS
10
-0.118386
20
-1.55691
11
-0.112846
21
-1.54398
0
LINE
8
BLACK
6
CONTINUOUS
10
-0.112846
20
-1.54398
11
-0.105898
21
-1.53175
0
LINE
8
BLACK
6
CONTINUOUS
10
-0.105898
20
-1.53175
11
-0.0976308
21
-1.52037
0
LINE
8
BLACK
6
CONTINUOUS
10
-0.0976308
20
-1.52037
11
-0.0881466
21
-1.50999
0
LINE
8
BLACK
6
CONTINUOUS
10
-0.0881466
20
-1.50999
11
-0.0775637
21
-1.50072
0
LINE
8
BLACK
6
CONTINUOUS
10
-0.0775637
20
-1.50072
11
-0.066014
21
-1.4927
0
LINE
8
BLACK
6
CONTINUOUS
10
-0.066014
20
-1.4927
11
-0.0536415
21
-1.48601
0
LINE
8
BLACK
6
CONTINUOUS
10
-0.0536415
20
-1.48601
11
-0.0406004
21
-1.48074
0
LINE
8
BLACK
6
CONTINUOUS
10
-0.0406004
20
-1.48074
11
-0.0270533
21
-1.47695
0
LINE
8
BLACK
6
CONTINUOUS
10
-0.0270533
20
-1.47695
11
-0.0131689
21
-1.47471
0
LINE
8
BLACK
6
CONTINUOUS
10
-0.0131689
20
-1.47471
11
0.000879528
21
-1.47402
0
LINE
8
BLACK
6
CONTINUOUS
10
0.000879528
20
-1.47402
11
0.014917
21
-1.4749
0
LINE
8
BLACK
6
CONTINUOUS
10
0.430762
20
-0.462365
11
0.433317
21
-0.464072
0
LINE
8
BLACK
6
CONTINUOUS
10
0.433317
20
-0.464072
11
0.435024
21
-0.466627
0
LINE
8
BLACK
6
CONTINUOUS
10
0.435024
20
-0.466627
11
0.435623
21
-0.46964
0
LINE
8
BLACK
6
CONTINUOUS
10
0.435623
20
-0.46964
11
0.435623
21
-0.568459
0
LINE
8
BLACK
6
CONTINUOUS
10
0.435623
20
-0.568459
11
0.435024
21
-0.571472
0
LINE
8
BLACK
6
CONTINUOUS
10
0.435024
20
-0.571472
11
0.433317
21
-0.574027
0
LINE
8
BLACK
6
CONTINUOUS
10
0.433317
20
-0.574027
11
0.430762
21
-0.575733
0
LINE
8
BLACK
6
CONTINUOUS
10
0.430762
20
-0.575733
11
0.427749
21
-0.576333
0
LINE
8
BLACK
6
CONTINUOUS
10
0.427749
20
-0.576333
11
0.388379
21
-0.576333
0
LINE
8
BLACK
6
CONTINUOUS
10
0.388379
20
-0.576333
11
0.385366
21
-0.575733
0
LINE
8
BLACK
6
CONTINUOUS
10
0.385366
20
-0.575733
11
0.382811
21
-0.574027
0
LINE
8
BLACK
6
CONTINUOUS
10
0.382811
20
-0.574027
11
0.381104
21
-0.571472
0
LINE
8
BLACK
6
CONTINUOUS
10
0.381104
20
-0.571472
11
0.380505
21
-0.568459
0
LINE
8
BLACK
6
CONTINUOUS
10
0.380505
20
-0.568459
11
0.380505
21
-0.46964
0
LINE
8
BLACK
6
CONTINUOUS
10
0.380505
20
-0.46964
11
0.381104
21
-0.466627
0
LINE
8
BLACK
6
CONTINUOUS
10
0.381104
20
-0.466627
11
0.382811
21
-0.464072
0
LINE
8
BLACK
6
CONTINUOUS
10
0.382811
20
-0.464072
11
0.385366
21
-0.462365
0
LINE
8
BLACK
6
CONTINUOUS
10
0.385366
20
-0.462365
11
0.388379
21
-0.461766
0
LINE
8
BLACK
6
CONTINUOUS
10
0.388379
20
-0.461766
11
0.427749
21
-0.461766
0
LINE
8
BLACK
6
CONTINUOUS
10
0.427749
20
-0.461766
11
0.430762
21
-0.462365
0
LINE
8
BLACK
6
CONTINUOUS
10
0.230762
20
-0.462365
11
0.233317
21
-0.464072
0
LINE
8
BLACK
6
CONTINUOUS
10
0.233317
20
-0.464072
11
0.235024
21
-0.466627
0
LINE
8
BLACK
6
CONTINUOUS
10
0.235024
20
-0.466627
11
0.235623
21
-0.46964
0
LINE
8
BLACK
6
CONTINUOUS
10
0.235623
20
-0.46964
11
0.235623
21
-0.568459
0
LINE
8
BLACK
6
CONTINUOUS
10
0.235623
20
-0.568459
11
0.235024
21
-0.571472
0
LINE
8
BLACK
6
CONTINUOUS
10
0.235024
20
-0.571472
11
0.233317
21
-0.574027
0
LINE
8
BLACK
6
CONTINUOUS
10
0.233317
20
-0.574027
11
0.230762
21
-0.575733
0
LINE
8
BLACK
6
CONTINUOUS
10
0.230762
20
-0.575733
11
0.227749
21
-0.576333
0
LINE
8
BLACK
6
CONTINUOUS
10
0.227749
20
-0.576333
11
0.188379
21
-0.576333
0
LINE
8
BLACK
6
CONTINUOUS
10
0.188379
20
-0.576333
11
0.185366
21
-0.575733
0
LINE
8
BLACK
6
CONTINUOUS
10
0.185366
20
-0.575733
11
0.182811
21
-0.574027
0
LINE
8
BLACK
6
CONTINUOUS
10
0.182811
20
-0.574027
11
0.181104
21
-0.571472
0
LINE
8
BLACK
6
CONTINUOUS
10
0.181104
20
-0.571472
11
0.180505
21
-0.568459
0
LINE
8
BLACK
6
CONTINUOUS
10
0.180505
20
-0.568459
11
0.180505
21
-0.46964
0
LINE
8
BLACK
6
CONTINUOUS
10
0.180505
20
-0.46964
11
0.181104
21
-0.466627
0
LINE
8
BLACK
6
CONTINUOUS
10
0.181104
20
-0.466627
11
0.182811
21
-0.464072
0
LINE
8
BLACK
6
CONTINUOUS
10
0.182811
20
-0.464072
11
0.185366
21
-0.462365
0
LINE
8
BLACK
6
CONTINUOUS
10
0.185366
20
-0.462365
11
0.188379
21
-0.461766
0
LINE
8
BLACK
6
CONTINUOUS
10
0.188379
20
-0.461766
11
0.227749
21
-0.461766
0
LINE
8
BLACK
6
CONTINUOUS
10
0.227749
20
-0.461766
11
0.230762
21
-0.462365
0
LINE
8
BLACK
6
CONTINUOUS
10
0.330762
20
-0.33205
11
0.333317
21
-0.333757
0
LINE
8
BLACK
6
CONTINUOUS
10
0.333317
20
-0.333757
11
0.335024
21
-0.336312
0
LINE
8
BLACK
6
CONTINUOUS
10
0.335024
20
-0.336312
11
0.335623
21
-0.339325
0
LINE
8
BLACK
6
CONTINUOUS
10
0.335623
20
-0.339325
11
0.335623
21
-0.438144
0
LINE
8
BLACK
6
CONTINUOUS
10
0.335623
20
-0.438144
11
0.335024
21
-0.441157
0
LINE
8
BLACK
6
CONTINUOUS
10
0.335024
20
-0.441157
11
0.333317
21
-0.443712
0
LINE
8
BLACK
6
CONTINUOUS
10
0.333317
20
-0.443712
11
0.330762
21
-0.445419
0
LINE
8
BLACK
6
CONTINUOUS
10
0.330762
20
-0.445419
11
0.327749
21
-0.446018
0
LINE
8
BLACK
6
CONTINUOUS
10
0.327749
20
-0.446018
11
0.288379
21
-0.446018
0
LINE
8
BLACK
6
CONTINUOUS
10
0.288379
20
-0.446018
11
0.285366
21
-0.445419
0
LINE
8
BLACK
6
CONTINUOUS
10
0.285366
20
-0.445419
11
0.282811
21
-0.443712
0
LINE
8
BLACK
6
CONTINUOUS
10
0.282811
20
-0.443712
11
0.281104
21
-0.441157
0
LINE
8
BLACK
6
CONTINUOUS
10
0.281104
20
-0.441157
11
0.280505
21
-0.438144
0
LINE
8
BLACK
6
CONTINUOUS
10
0.280505
20
-0.438144
11
0.280505
21
-0.339325
0
LINE
8
BLACK
6
CONTINUOUS
10
0.280505
20
-0.339325
11
0.281104
21
-0.336312
0
LINE
8
BLACK
6
CONTINUOUS
10
0.281104
20
-0.336312
11
0.282811
21
-0.333757
0
LINE
8
BLACK
6
CONTINUOUS
10
0.282811
20
-0.333757
11
0.285366
21
-0.33205
0
LINE
8
BLACK
6
CONTINUOUS
10
0.285366
20
-0.33205
11
0.288379
21
-0.331451
0
LINE
8
BLACK
6
CONTINUOUS
10
0.288379
20
-0.331451
11
0.327749
21
-0.331451
0
LINE
8
BLACK
6
CONTINUOUS
10
0.327749
20
-0.331451
11
0.330762
21
-0.33205
0
LINE
8
BLACK
6
CONTINUOUS
10
0.014917
20
0.125098
11
0.0287686
21
0.122656
0
LINE
8
BLACK
6
CONTINUOUS
10
0.0287686
20
0.122656
11
0.0422616
21
0.118684
0
LINE
8
BLACK
6
CONTINUOUS
10
0.0422616
20
0.118684
11
0.0552279
21
0.113234
0
LINE
8
BLACK
6
CONTINUOUS
10
0.0552279
20
0.113234
11
0.0675057
21
0.106372
0
LINE
8
BLACK
6
CONTINUOUS
10
0.0675057
20
0.106372
11
0.0789422
21
0.0981843
0
LINE
8
BLACK
6
CONTINUOUS
10
0.0789422
20
0.0981843
11
0.0893947
21
0.0887728
0
LINE
8
BLACK
6
CONTINUOUS
10
0.0893947
20
0.0887728
11
0.098733
21
0.0782548
0
LINE
8
BLACK
6
CONTINUOUS
10
0.098733
20
0.0782548
11
0.106841
21
0.0667615
0
LINE
8
BLACK
6
CONTINUOUS
10
0.106841
20
0.0667615
11
0.113617
21
0.054436
0
LINE
8
BLACK
6
CONTINUOUS
10
0.113617
20
0.054436
11
0.118977
21
0.041432
0
LINE
8
BLACK
6
CONTINUOUS
10
0.118977
20
0.041432
11
0.122853
21
0.0279116
0
LINE
8
BLACK
6
CONTINUOUS
10
0.122853
20
0.0279116
11
0.125199
21
0.0140433
0
LINE
8
BLACK
6
CONTINUOUS
10
0.125199
20
0.0140433
11
0.125984
21
0
0
LINE
8
BLACK
6
CONTINUOUS
10
0.125984
20
0
11
0.125935
21
-0.00351768
0
LINE
8
BLACK
6
CONTINUOUS
10
0.125935
20
-0.00351768
11
0.124758
21
-0.0175336
0
LINE
8
BLACK
6
CONTINUOUS
10
0.124758
20
-0.0175336
11
0.122026
21
-0.031331
0
LINE
8
BLACK
6
CONTINUOUS
10
0.122026
20
-0.031331
11
0.117773
21
-0.0447379
0
LINE
8
BLACK
6
CONTINUOUS
10
0.117773
20
-0.0447379
11
0.112052
21
-0.0575871
0
LINE
8
BLACK
6
CONTINUOUS
10
0.112052
20
-0.0575871
11
0.104935
21
-0.0697186
0
LINE
8
BLACK
6
CONTINUOUS
10
0.104935
20
-0.0697186
11
0.0965095
21
-0.0809811
0
LINE
8
BLACK
6
CONTINUOUS
10
0.0965095
20
-0.0809811
11
0.0868812
21
-0.0912343
0
LINE
8
BLACK
6
CONTINUOUS
10
0.0868812
20
-0.0912343
11
0.07617
21
-0.10035
0
LINE
8
BLACK
6
CONTINUOUS
10
0.07617
20
-0.10035
11
0.0645093
21
-0.108215
0
LINE
8
BLACK
6
CONTINUOUS
10
0.0645093
20
-0.108215
11
0.0520446
21
-0.114732
0
LINE
8
BLACK
6
CONTINUOUS
10
0.0520446
20
-0.114732
11
0.0389313
21
-0.119818
0
LINE
8
BLACK
6
CONTINUOUS
10
0.0389313
20
-0.119818
11
0.0253326
21
-0.123411
0
LINE
8
BLACK
6
CONTINUOUS
10
0.0253326
20
-0.123411
11
0.0114183
21
-0.125466
0
LINE
8
BLACK
6
CONTINUOUS
10
0.0114183
20
-0.125466
11
-0.00263843
21
-0.125957
0
LINE
8
BLACK
6
CONTINUOUS
10
-0.00263843
20
-0.125957
11
-0.0166622
21
-0.124878
0
LINE
8
BLACK
6
CONTINUOUS
10
-0.0166622
20
-0.124878
11
-0.0304783
21
-0.122242
0
LINE
8
BLACK
6
CONTINUOUS
10
-0.0304783
20
-0.122242
11
-0.0439146
21
-0.118083
0
LINE
8
BLACK
6
CONTINUOUS
10
-0.0439146
20
-0.118083
11
-0.0568035
21
-0.112452
0
LINE
8
BLACK
6
CONTINUOUS
10
-0.0568035
20
-0.112452
11
-0.0689843
21
-0.105419
0
LINE
8
BLACK
6
CONTINUOUS
10
-0.0689843
20
-0.105419
11
-0.0803054
21
-0.0970725
0
LINE
8
BLACK
6
CONTINUOUS
10
-0.0803054
20
-0.0970725
11
-0.0906255
21
-0.087516
0
LINE
8
BLACK
6
CONTINUOUS
10
-0.0906255
20
-0.087516
11
-0.099816
21
-0.0768687
0
LINE
8
BLACK
6
CONTINUOUS
10
-0.099816
20
-0.0768687
11
-0.107762
21
-0.0652632
0
LINE
8
BLACK
6
CONTINUOUS
10
-0.107762
20
-0.0652632
11
-0.114366
21
-0.0528444
0
LINE
8
BLACK
6
CONTINUOUS
10
-0.114366
20
-0.0528444
11
-0.119543
21
-0.0397668
0
LINE
8
BLACK
6
CONTINUOUS
10
-0.119543
20
-0.0397668
11
-0.123231
21
-0.0261936
0
LINE
8
BLACK
6
CONTINUOUS
10
-0.123231
20
-0.0261936
11
-0.125383
21
-0.0122939
0
LINE
8
BLACK
6
CONTINUOUS
10
-0.125383
20
-0.0122939
11
-0.125972
21
0.00175902
0
LINE
8
BLACK
6
CONTINUOUS
10
-0.125972
20
0.00175902
11
-0.124991
21
0.01579
0
LINE
8
BLACK
6
CONTINUOUS
10
-0.124991
20
0.01579
11
-0.122452
21
0.0296242
0
LINE
8
BLACK
6
CONTINUOUS
10
-0.122452
20
0.0296242
11
-0.118386
21
0.0430891
0
LINE
8
BLACK
6
CONTINUOUS
10
-0.118386
20
0.0430891
11
-0.112846
21
0.056017
0
LINE
8
BLACK
6
CONTINUOUS
10
-0.112846
20
0.056017
11
-0.105898
21
0.0682467
0
LINE
8
BLACK
6
CONTINUOUS
10
-0.105898
20
0.0682467
11
-0.0976308
21
0.0796257
0
LINE
8
BLACK
6
CONTINUOUS
10
-0.0976308
20
0.0796257
11
-0.0881466
21
0.0900123
0
LINE
8
BLACK
6
CONTINUOUS
10
-0.0881466
20
0.0900123
11
-0.0775637
21
0.0992769
0
LINE
8
BLACK
6
CONTINUOUS
10
-0.0775637
20
0.0992769
11
-0.066014
21
0.107304
0
LINE
8
BLACK
6
CONTINUOUS
10
-0.066014
20
0.107304
11
-0.0536415
21
0.113994
0
LINE
8
BLACK
6
CONTINUOUS
10
-0.0536415
20
0.113994
11
-0.0406004
21
0.119263
0
LINE
8
BLACK
6
CONTINUOUS
10
-0.0406004
20
0.119263
11
-0.0270533
21
0.123045
0
LINE
8
BLACK
6
CONTINUOUS
10
-0.0270533
20
0.123045
11
-0.0131689
21
0.125294
0
LINE
8
BLACK
6
CONTINUOUS
10
-0.0131689
20
0.125294
11
0.000879528
21
0.125981
0
LINE
8
BLACK
6
CONTINUOUS
10
0.000879528
20
0.125981
11
0.014917
21
0.125098
  0
ENDSEC
  0
EOF
