  0
SECTION
  2
HEADER
  9
$ANGBASE
  50
0.0
  9
$ANGDIR
  70
1
  9
$MEASUREMENT
  70
0
  0
ENDSEC
  0
SECTION
  2
TABLES
  0
TABLE
  2
LTYPE
  70
4
  0
LTYPE
  5
40F
  2
CONTINUOUS
  70
0
  3
Solid line
  72
65
  73
0
  40
0.0
  0
LTYPE
  5
410
  2
DASHDOT
 70
0
  3
Dash Dot ____ _ ____ _
 72
65
 73
4
 40
2.0
 49
1.25
 49
-0.25
 49
0.25
 49
-0.25
  0
LTYPE
  5
411
  2
DASHED
 70
0
  3
Dashed __ __ __ __ __
 72
65
 73
2
 40
0.75
 49
0.5
 49
-0.25
  0
LTYPE
  5
43B
  2
DOTTED
 70
0
  3
Dotted .  .  .  .
 72
65
 73
2
 40
0.2
 49
0.0
 49
-0.2
  0
ENDTAB
  0
TABLE
  2
STYLE
  70
4
  0
STYLE
  2
KICAD
  70
0
  40
0
  41
1
  42
1
  50
0
  71
0
  3
isocp.shx
  0
STYLE
  2
KICADB
  70
0
  40
0
  41
1
  42
1
  50
0
  71
0
  3
isocp.shx
  0
STYLE
  2
KICADI
  70
0
  40
0
  41
1
  42
1
  50
15
  71
0
  3
isocp.shx
  0
STYLE
  2
KICADBI
  70
0
  40
0
  41
1
  42
1
  50
15
  71
0
  3
isocp.shx
  0
ENDTAB
  0
TABLE
  2
LAYER
  70
1
  0
LAYER
  2
BLACK
  70
0
  62
7
  6
CONTINUOUS
  0
ENDTAB
  0
ENDSEC
  0
SECTION
  2
ENTITIES
0
LINE
8
BLACK
6
CONTINUOUS
10
1.30557
20
-0.210996
11
1.30762
21
-0.211215
0
LINE
8
BLACK
6
CONTINUOUS
10
1.30762
20
-0.211215
11
1.30968
21
-0.211241
0
LINE
8
BLACK
6
CONTINUOUS
10
1.30968
20
-0.211241
11
1.31242
21
-0.211729
0
LINE
8
BLACK
6
CONTINUOUS
10
1.31242
20
-0.211729
11
1.31519
21
-0.212025
0
LINE
8
BLACK
6
CONTINUOUS
10
1.31519
20
-0.212025
11
1.31718
21
-0.212576
0
LINE
8
BLACK
6
CONTINUOUS
10
1.31718
20
-0.212576
11
1.31921
21
-0.212938
0
LINE
8
BLACK
6
CONTINUOUS
10
1.31921
20
-0.212938
11
1.32184
21
-0.213867
0
LINE
8
BLACK
6
CONTINUOUS
10
1.32184
20
-0.213867
11
1.32452
21
-0.214611
0
LINE
8
BLACK
6
CONTINUOUS
10
1.32452
20
-0.214611
11
1.32639
21
-0.21548
0
LINE
8
BLACK
6
CONTINUOUS
10
1.32639
20
-0.21548
11
1.32833
21
-0.216168
0
LINE
8
BLACK
6
CONTINUOUS
10
1.32833
20
-0.216168
11
1.33077
21
-0.217514
0
LINE
8
BLACK
6
CONTINUOUS
10
1.33077
20
-0.217514
11
1.3333
21
-0.218686
0
LINE
8
BLACK
6
CONTINUOUS
10
1.3333
20
-0.218686
11
1.335
21
-0.219848
0
LINE
8
BLACK
6
CONTINUOUS
10
1.335
20
-0.219848
11
1.33681
21
-0.220845
0
LINE
8
BLACK
6
CONTINUOUS
10
1.33681
20
-0.220845
11
1.33899
21
-0.222571
0
LINE
8
BLACK
6
CONTINUOUS
10
1.33899
20
-0.222571
11
1.34129
21
-0.224139
0
LINE
8
BLACK
6
CONTINUOUS
10
1.34129
20
-0.224139
11
1.34278
21
-0.225565
0
LINE
8
BLACK
6
CONTINUOUS
10
1.34278
20
-0.225565
11
1.3444
21
-0.226843
0
LINE
8
BLACK
6
CONTINUOUS
10
1.3444
20
-0.226843
11
1.34628
21
-0.228902
0
LINE
8
BLACK
6
CONTINUOUS
10
1.34628
20
-0.228902
11
1.34829
21
-0.230825
0
LINE
8
BLACK
6
CONTINUOUS
10
1.34829
20
-0.230825
11
1.34953
21
-0.232475
0
LINE
8
BLACK
6
CONTINUOUS
10
1.34953
20
-0.232475
11
1.35092
21
-0.234001
0
LINE
8
BLACK
6
CONTINUOUS
10
1.35092
20
-0.234001
11
1.35243
21
-0.236339
0
LINE
8
BLACK
6
CONTINUOUS
10
1.35243
20
-0.236339
11
1.3541
21
-0.238565
0
LINE
8
BLACK
6
CONTINUOUS
10
1.3541
20
-0.238565
11
1.35505
21
-0.240395
0
LINE
8
BLACK
6
CONTINUOUS
10
1.35505
20
-0.240395
11
1.35617
21
-0.242127
0
LINE
8
BLACK
6
CONTINUOUS
10
1.35617
20
-0.242127
11
1.35728
21
-0.24468
0
LINE
8
BLACK
6
CONTINUOUS
10
1.35728
20
-0.24468
11
1.35857
21
-0.247149
0
LINE
8
BLACK
6
CONTINUOUS
10
1.35857
20
-0.247149
11
1.35921
21
-0.24911
0
LINE
8
BLACK
6
CONTINUOUS
10
1.35921
20
-0.24911
11
1.36003
21
-0.251002
0
LINE
8
BLACK
6
CONTINUOUS
10
1.36003
20
-0.251002
11
1.36071
21
-0.253702
0
LINE
8
BLACK
6
CONTINUOUS
10
1.36071
20
-0.253702
11
1.36157
21
-0.256348
0
LINE
8
BLACK
6
CONTINUOUS
10
1.36157
20
-0.256348
11
1.36189
21
-0.258387
0
LINE
8
BLACK
6
CONTINUOUS
10
1.36189
20
-0.258387
11
1.36239
21
-0.260388
0
LINE
8
BLACK
6
CONTINUOUS
10
1.36239
20
-0.260388
11
1.36262
21
-0.263162
0
LINE
8
BLACK
6
CONTINUOUS
10
1.36262
20
-0.263162
11
1.36304
21
-0.265914
0
LINE
8
BLACK
6
CONTINUOUS
10
1.36304
20
-0.265914
11
1.36301
21
-0.267977
0
LINE
8
BLACK
6
CONTINUOUS
10
1.36301
20
-0.267977
11
1.36318
21
-0.270034
0
LINE
8
BLACK
6
CONTINUOUS
10
1.36318
20
-0.270034
11
1.36318
21
-0.781845
0
LINE
8
BLACK
6
CONTINUOUS
10
1.36318
20
-0.781845
11
1.36316
21
-0.783287
0
LINE
8
BLACK
6
CONTINUOUS
10
1.36316
20
-0.783287
11
1.36214
21
-0.79291
0
LINE
8
BLACK
6
CONTINUOUS
10
1.36214
20
-0.79291
11
1.35955
21
-0.802236
0
LINE
8
BLACK
6
CONTINUOUS
10
1.35955
20
-0.802236
11
1.35547
21
-0.811014
0
LINE
8
BLACK
6
CONTINUOUS
10
1.35547
20
-0.811014
11
1.35113
21
-0.817388
0
LINE
8
BLACK
6
CONTINUOUS
10
1.35113
20
-0.817388
11
1.35111
21
-0.818898
0
LINE
8
BLACK
6
CONTINUOUS
10
1.35111
20
-0.818898
11
1.34941
21
-0.828426
0
LINE
8
BLACK
6
CONTINUOUS
10
1.34941
20
-0.828426
11
1.34618
21
-0.837549
0
LINE
8
BLACK
6
CONTINUOUS
10
1.34618
20
-0.837549
11
1.3415
21
-0.846021
0
LINE
8
BLACK
6
CONTINUOUS
10
1.3415
20
-0.846021
11
1.33551
21
-0.853616
0
LINE
8
BLACK
6
CONTINUOUS
10
1.33551
20
-0.853616
11
1.32835
21
-0.860129
0
LINE
8
BLACK
6
CONTINUOUS
10
1.32835
20
-0.860129
11
1.32022
21
-0.865386
0
LINE
8
BLACK
6
CONTINUOUS
10
1.32022
20
-0.865386
11
1.31135
21
-0.869245
0
LINE
8
BLACK
6
CONTINUOUS
10
1.31135
20
-0.869245
11
1.30196
21
-0.871603
0
LINE
8
BLACK
6
CONTINUOUS
10
1.30196
20
-0.871603
11
1.29232
21
-0.872396
0
LINE
8
BLACK
6
CONTINUOUS
10
1.29232
20
-0.872396
11
0.780505
21
-0.872396
0
LINE
8
BLACK
6
CONTINUOUS
10
0.780505
20
-0.872396
11
0.779062
21
-0.872378
0
LINE
8
BLACK
6
CONTINUOUS
10
0.779062
20
-0.872378
11
0.77701
21
-0.872159
0
LINE
8
BLACK
6
CONTINUOUS
10
0.77701
20
-0.872159
11
0.774947
21
-0.872134
0
LINE
8
BLACK
6
CONTINUOUS
10
0.774947
20
-0.872134
11
0.772207
21
-0.871646
0
LINE
8
BLACK
6
CONTINUOUS
10
0.772207
20
-0.871646
11
0.769439
21
-0.87135
0
LINE
8
BLACK
6
CONTINUOUS
10
0.769439
20
-0.87135
11
0.767451
21
-0.870798
0
LINE
8
BLACK
6
CONTINUOUS
10
0.767451
20
-0.870798
11
0.765419
21
-0.870437
0
LINE
8
BLACK
6
CONTINUOUS
10
0.765419
20
-0.870437
11
0.762796
21
-0.869507
0
LINE
8
BLACK
6
CONTINUOUS
10
0.762796
20
-0.869507
11
0.760113
21
-0.868764
0
LINE
8
BLACK
6
CONTINUOUS
10
0.760113
20
-0.868764
11
0.758242
21
-0.867895
0
LINE
8
BLACK
6
CONTINUOUS
10
0.758242
20
-0.867895
11
0.756297
21
-0.867206
0
LINE
8
BLACK
6
CONTINUOUS
10
0.756297
20
-0.867206
11
0.75386
21
-0.865861
0
LINE
8
BLACK
6
CONTINUOUS
10
0.75386
20
-0.865861
11
0.751335
21
-0.864689
0
LINE
8
BLACK
6
CONTINUOUS
10
0.751335
20
-0.864689
11
0.749631
21
-0.863526
0
LINE
8
BLACK
6
CONTINUOUS
10
0.749631
20
-0.863526
11
0.747824
21
-0.862529
0
LINE
8
BLACK
6
CONTINUOUS
10
0.747824
20
-0.862529
11
0.74564
21
-0.860804
0
LINE
8
BLACK
6
CONTINUOUS
10
0.74564
20
-0.860804
11
0.74334
21
-0.859235
0
LINE
8
BLACK
6
CONTINUOUS
10
0.74334
20
-0.859235
11
0.741849
21
-0.85781
0
LINE
8
BLACK
6
CONTINUOUS
10
0.741849
20
-0.85781
11
0.740229
21
-0.856531
0
LINE
8
BLACK
6
CONTINUOUS
10
0.740229
20
-0.856531
11
0.738356
21
-0.854472
0
LINE
8
BLACK
6
CONTINUOUS
10
0.738356
20
-0.854472
11
0.736343
21
-0.852549
0
LINE
8
BLACK
6
CONTINUOUS
10
0.736343
20
-0.852549
11
0.735105
21
-0.850899
0
LINE
8
BLACK
6
CONTINUOUS
10
0.735105
20
-0.850899
11
0.733716
21
-0.849373
0
LINE
8
BLACK
6
CONTINUOUS
10
0.733716
20
-0.849373
11
0.732204
21
-0.847036
0
LINE
8
BLACK
6
CONTINUOUS
10
0.732204
20
-0.847036
11
0.730533
21
-0.84481
0
LINE
8
BLACK
6
CONTINUOUS
10
0.730533
20
-0.84481
11
0.72958
21
-0.84298
0
LINE
8
BLACK
6
CONTINUOUS
10
0.72958
20
-0.84298
11
0.728459
21
-0.841247
0
LINE
8
BLACK
6
CONTINUOUS
10
0.728459
20
-0.841247
11
0.727349
21
-0.838695
0
LINE
8
BLACK
6
CONTINUOUS
10
0.727349
20
-0.838695
11
0.726064
21
-0.836225
0
LINE
8
BLACK
6
CONTINUOUS
10
0.726064
20
-0.836225
11
0.725423
21
-0.834264
0
LINE
8
BLACK
6
CONTINUOUS
10
0.725423
20
-0.834264
11
0.7246
21
-0.832372
0
LINE
8
BLACK
6
CONTINUOUS
10
0.7246
20
-0.832372
11
0.723922
21
-0.829672
0
LINE
8
BLACK
6
CONTINUOUS
10
0.723922
20
-0.829672
11
0.723057
21
-0.827027
0
LINE
8
BLACK
6
CONTINUOUS
10
0.723057
20
-0.827027
11
0.722745
21
-0.824987
0
LINE
8
BLACK
6
CONTINUOUS
10
0.722745
20
-0.824987
11
0.722243
21
-0.822986
0
LINE
8
BLACK
6
CONTINUOUS
10
0.722243
20
-0.822986
11
0.722015
21
-0.820212
0
LINE
8
BLACK
6
CONTINUOUS
10
0.722015
20
-0.820212
11
0.721594
21
-0.81746
0
LINE
8
BLACK
6
CONTINUOUS
10
0.721594
20
-0.81746
11
0.721619
21
-0.815397
0
LINE
8
BLACK
6
CONTINUOUS
10
0.721619
20
-0.815397
11
0.72145
21
-0.813341
0
LINE
8
BLACK
6
CONTINUOUS
10
0.72145
20
-0.813341
11
0.72145
21
-0.30153
0
LINE
8
BLACK
6
CONTINUOUS
10
0.72145
20
-0.30153
11
0.721467
21
-0.300087
0
LINE
8
BLACK
6
CONTINUOUS
10
0.721467
20
-0.300087
11
0.722496
21
-0.290464
0
LINE
8
BLACK
6
CONTINUOUS
10
0.722496
20
-0.290464
11
0.725082
21
-0.281138
0
LINE
8
BLACK
6
CONTINUOUS
10
0.725082
20
-0.281138
11
0.729157
21
-0.27236
0
LINE
8
BLACK
6
CONTINUOUS
10
0.729157
20
-0.27236
11
0.733504
21
-0.265986
0
LINE
8
BLACK
6
CONTINUOUS
10
0.733504
20
-0.265986
11
0.733523
21
-0.264476
0
LINE
8
BLACK
6
CONTINUOUS
10
0.733523
20
-0.264476
11
0.73522
21
-0.254948
0
LINE
8
BLACK
6
CONTINUOUS
10
0.73522
20
-0.254948
11
0.73845
21
-0.245826
0
LINE
8
BLACK
6
CONTINUOUS
10
0.73845
20
-0.245826
11
0.743128
21
-0.237353
0
LINE
8
BLACK
6
CONTINUOUS
10
0.743128
20
-0.237353
11
0.749126
21
-0.229758
0
LINE
8
BLACK
6
CONTINUOUS
10
0.749126
20
-0.229758
11
0.756284
21
-0.223245
0
LINE
8
BLACK
6
CONTINUOUS
10
0.756284
20
-0.223245
11
0.764409
21
-0.217988
0
LINE
8
BLACK
6
CONTINUOUS
10
0.764409
20
-0.217988
11
0.773284
21
-0.214129
0
LINE
8
BLACK
6
CONTINUOUS
10
0.773284
20
-0.214129
11
0.782671
21
-0.211771
0
LINE
8
BLACK
6
CONTINUOUS
10
0.782671
20
-0.211771
11
0.792316
21
-0.210979
0
LINE
8
BLACK
6
CONTINUOUS
10
0.792316
20
-0.210979
11
1.30413
21
-0.210979
0
LINE
8
BLACK
6
CONTINUOUS
10
1.30413
20
-0.210979
11
1.30557
21
-0.210996
0
LINE
8
BLACK
6
CONTINUOUS
10
0.83956
20
-0.329089
11
0.83956
21
-0.754286
0
LINE
8
BLACK
6
CONTINUOUS
10
0.83956
20
-0.754286
11
1.24507
21
-0.754286
0
LINE
8
BLACK
6
CONTINUOUS
10
1.24507
20
-0.754286
11
1.24507
21
-0.329089
0
LINE
8
BLACK
6
CONTINUOUS
10
1.24507
20
-0.329089
11
0.83956
21
-0.329089
  0
ENDSEC
  0
EOF
