  0
SECTION
  2
HEADER
  9
$ANGBASE
  50
0.0
  9
$ANGDIR
  70
1
  9
$MEASUREMENT
  70
0
  0
ENDSEC
  0
SECTION
  2
TABLES
  0
TABLE
  2
LTYPE
  70
4
  0
LTYPE
  5
40F
  2
CONTINUOUS
  70
0
  3
Solid line
  72
65
  73
0
  40
0.0
  0
LTYPE
  5
410
  2
DASHDOT
 70
0
  3
Dash Dot ____ _ ____ _
 72
65
 73
4
 40
2.0
 49
1.25
 49
-0.25
 49
0.25
 49
-0.25
  0
LTYPE
  5
411
  2
DASHED
 70
0
  3
Dashed __ __ __ __ __
 72
65
 73
2
 40
0.75
 49
0.5
 49
-0.25
  0
LTYPE
  5
43B
  2
DOTTED
 70
0
  3
Dotted .  .  .  .
 72
65
 73
2
 40
0.2
 49
0.0
 49
-0.2
  0
ENDTAB
  0
TABLE
  2
STYLE
  70
4
  0
STYLE
  2
KICAD
  70
0
  40
0
  41
1
  42
1
  50
0
  71
0
  3
isocp.shx
  0
STYLE
  2
KICADB
  70
0
  40
0
  41
1
  42
1
  50
0
  71
0
  3
isocp.shx
  0
STYLE
  2
KICADI
  70
0
  40
0
  41
1
  42
1
  50
15
  71
0
  3
isocp.shx
  0
STYLE
  2
KICADBI
  70
0
  40
0
  41
1
  42
1
  50
15
  71
0
  3
isocp.shx
  0
ENDTAB
  0
TABLE
  2
LAYER
  70
1
  0
LAYER
  2
BLACK
  70
0
  62
7
  6
CONTINUOUS
  0
ENDTAB
  0
ENDSEC
  0
SECTION
  2
ENTITIES
0
LINE
8
BLACK
6
CONTINUOUS
10
0.0140628
20
-1.47519
11
0.0279486
21
-1.47755
0
LINE
8
BLACK
6
CONTINUOUS
10
0.0279486
20
-1.47755
11
0.041483
21
-1.48145
0
LINE
8
BLACK
6
CONTINUOUS
10
0.041483
20
-1.48145
11
0.0544958
21
-1.48684
0
LINE
8
BLACK
6
CONTINUOUS
10
0.0544958
20
-1.48684
11
0.0668232
21
-1.49365
0
LINE
8
BLACK
6
CONTINUOUS
10
0.0668232
20
-1.49365
11
0.0783103
21
-1.5018
0
LINE
8
BLACK
6
CONTINUOUS
10
0.0783103
20
-1.5018
11
0.0888126
21
-1.51119
0
LINE
8
BLACK
6
CONTINUOUS
10
0.0888126
20
-1.51119
11
0.098198
21
-1.52169
0
LINE
8
BLACK
6
CONTINUOUS
10
0.098198
20
-1.52169
11
0.106349
21
-1.53318
0
LINE
8
BLACK
6
CONTINUOUS
10
0.106349
20
-1.53318
11
0.113162
21
-1.5455
0
LINE
8
BLACK
6
CONTINUOUS
10
0.113162
20
-1.5455
11
0.118552
21
-1.55852
0
LINE
8
BLACK
6
CONTINUOUS
10
0.118552
20
-1.55852
11
0.122451
21
-1.57205
0
LINE
8
BLACK
6
CONTINUOUS
10
0.122451
20
-1.57205
11
0.12481
21
-1.58594
0
LINE
8
BLACK
6
CONTINUOUS
10
0.12481
20
-1.58594
11
0.1256
21
-1.6
0
LINE
8
BLACK
6
CONTINUOUS
10
0.1256
20
-1.6
11
0.12481
21
-1.61406
0
LINE
8
BLACK
6
CONTINUOUS
10
0.12481
20
-1.61406
11
0.122451
21
-1.62795
0
LINE
8
BLACK
6
CONTINUOUS
10
0.122451
20
-1.62795
11
0.118552
21
-1.64148
0
LINE
8
BLACK
6
CONTINUOUS
10
0.118552
20
-1.64148
11
0.113162
21
-1.6545
0
LINE
8
BLACK
6
CONTINUOUS
10
0.113162
20
-1.6545
11
0.106349
21
-1.66682
0
LINE
8
BLACK
6
CONTINUOUS
10
0.106349
20
-1.66682
11
0.098198
21
-1.67831
0
LINE
8
BLACK
6
CONTINUOUS
10
0.098198
20
-1.67831
11
0.0888126
21
-1.68881
0
LINE
8
BLACK
6
CONTINUOUS
10
0.0888126
20
-1.68881
11
0.0783103
21
-1.6982
0
LINE
8
BLACK
6
CONTINUOUS
10
0.0783103
20
-1.6982
11
0.0668232
21
-1.70635
0
LINE
8
BLACK
6
CONTINUOUS
10
0.0668232
20
-1.70635
11
0.0544958
21
-1.71316
0
LINE
8
BLACK
6
CONTINUOUS
10
0.0544958
20
-1.71316
11
0.041483
21
-1.71855
0
LINE
8
BLACK
6
CONTINUOUS
10
0.041483
20
-1.71855
11
0.0279486
21
-1.72245
0
LINE
8
BLACK
6
CONTINUOUS
10
0.0279486
20
-1.72245
11
0.0140628
21
-1.72481
0
LINE
8
BLACK
6
CONTINUOUS
10
0.0140628
20
-1.72481
11
0
21
-1.7256
0
LINE
8
BLACK
6
CONTINUOUS
10
0
20
-1.7256
11
-0.0140628
21
-1.72481
0
LINE
8
BLACK
6
CONTINUOUS
10
-0.0140628
20
-1.72481
11
-0.0279486
21
-1.72245
0
LINE
8
BLACK
6
CONTINUOUS
10
-0.0279486
20
-1.72245
11
-0.041483
21
-1.71855
0
LINE
8
BLACK
6
CONTINUOUS
10
-0.041483
20
-1.71855
11
-0.0544958
21
-1.71316
0
LINE
8
BLACK
6
CONTINUOUS
10
-0.0544958
20
-1.71316
11
-0.0668232
21
-1.70635
0
LINE
8
BLACK
6
CONTINUOUS
10
-0.0668232
20
-1.70635
11
-0.0783103
21
-1.6982
0
LINE
8
BLACK
6
CONTINUOUS
10
-0.0783103
20
-1.6982
11
-0.0888126
21
-1.68881
0
LINE
8
BLACK
6
CONTINUOUS
10
-0.0888126
20
-1.68881
11
-0.098198
21
-1.67831
0
LINE
8
BLACK
6
CONTINUOUS
10
-0.098198
20
-1.67831
11
-0.106349
21
-1.66682
0
LINE
8
BLACK
6
CONTINUOUS
10
-0.106349
20
-1.66682
11
-0.113162
21
-1.6545
0
LINE
8
BLACK
6
CONTINUOUS
10
-0.113162
20
-1.6545
11
-0.118552
21
-1.64148
0
LINE
8
BLACK
6
CONTINUOUS
10
-0.118552
20
-1.64148
11
-0.122451
21
-1.62795
0
LINE
8
BLACK
6
CONTINUOUS
10
-0.122451
20
-1.62795
11
-0.12481
21
-1.61406
0
LINE
8
BLACK
6
CONTINUOUS
10
-0.12481
20
-1.61406
11
-0.1256
21
-1.6
0
LINE
8
BLACK
6
CONTINUOUS
10
-0.1256
20
-1.6
11
-0.12481
21
-1.58594
0
LINE
8
BLACK
6
CONTINUOUS
10
-0.12481
20
-1.58594
11
-0.122451
21
-1.57205
0
LINE
8
BLACK
6
CONTINUOUS
10
-0.122451
20
-1.57205
11
-0.118552
21
-1.55852
0
LINE
8
BLACK
6
CONTINUOUS
10
-0.118552
20
-1.55852
11
-0.113162
21
-1.5455
0
LINE
8
BLACK
6
CONTINUOUS
10
-0.113162
20
-1.5455
11
-0.106349
21
-1.53318
0
LINE
8
BLACK
6
CONTINUOUS
10
-0.106349
20
-1.53318
11
-0.098198
21
-1.52169
0
LINE
8
BLACK
6
CONTINUOUS
10
-0.098198
20
-1.52169
11
-0.0888126
21
-1.51119
0
LINE
8
BLACK
6
CONTINUOUS
10
-0.0888126
20
-1.51119
11
-0.0783103
21
-1.5018
0
LINE
8
BLACK
6
CONTINUOUS
10
-0.0783103
20
-1.5018
11
-0.0668232
21
-1.49365
0
LINE
8
BLACK
6
CONTINUOUS
10
-0.0668232
20
-1.49365
11
-0.0544958
21
-1.48684
0
LINE
8
BLACK
6
CONTINUOUS
10
-0.0544958
20
-1.48684
11
-0.041483
21
-1.48145
0
LINE
8
BLACK
6
CONTINUOUS
10
-0.041483
20
-1.48145
11
-0.0279486
21
-1.47755
0
LINE
8
BLACK
6
CONTINUOUS
10
-0.0279486
20
-1.47755
11
-0.0140628
21
-1.47519
0
LINE
8
BLACK
6
CONTINUOUS
10
-0.0140628
20
-1.47519
11
0
21
-1.4744
0
LINE
8
BLACK
6
CONTINUOUS
10
0
20
-1.4744
11
0.0140628
21
-1.47519
0
LINE
8
BLACK
6
CONTINUOUS
10
-0.110038
20
-1.61286
11
-0.107801
21
-1.62555
0
LINE
8
BLACK
6
CONTINUOUS
10
-0.107801
20
-1.62555
11
-0.104106
21
-1.63789
0
LINE
8
BLACK
6
CONTINUOUS
10
-0.104106
20
-1.63789
11
-0.0990033
21
-1.64972
0
LINE
8
BLACK
6
CONTINUOUS
10
-0.0990033
20
-1.64972
11
-0.0925616
21
-1.66088
0
LINE
8
BLACK
6
CONTINUOUS
10
-0.0925616
20
-1.66088
11
-0.0848681
21
-1.67121
0
LINE
8
BLACK
6
CONTINUOUS
10
-0.0848681
20
-1.67121
11
-0.076027
21
-1.68058
0
LINE
8
BLACK
6
CONTINUOUS
10
-0.076027
20
-1.68058
11
-0.0661577
21
-1.68887
0
LINE
8
BLACK
6
CONTINUOUS
10
-0.0661577
20
-1.68887
11
-0.0553937
21
-1.69594
0
LINE
8
BLACK
6
CONTINUOUS
10
-0.0553937
20
-1.69594
11
-0.0438807
21
-1.70173
0
LINE
8
BLACK
6
CONTINUOUS
10
-0.0438807
20
-1.70173
11
-0.0317742
21
-1.70613
0
LINE
8
BLACK
6
CONTINUOUS
10
-0.0317742
20
-1.70613
11
-0.019238
21
-1.7091
0
LINE
8
BLACK
6
CONTINUOUS
10
-0.019238
20
-1.7091
11
-0.00644173
21
-1.7106
0
LINE
8
BLACK
6
CONTINUOUS
10
-0.00644173
20
-1.7106
11
0.00644173
21
-1.7106
0
LINE
8
BLACK
6
CONTINUOUS
10
0.00644173
20
-1.7106
11
0.019238
21
-1.7091
0
LINE
8
BLACK
6
CONTINUOUS
10
0.019238
20
-1.7091
11
0.0317742
21
-1.70613
0
LINE
8
BLACK
6
CONTINUOUS
10
0.0317742
20
-1.70613
11
0.0438807
21
-1.70173
0
LINE
8
BLACK
6
CONTINUOUS
10
0.0438807
20
-1.70173
11
0.0553937
21
-1.69594
0
LINE
8
BLACK
6
CONTINUOUS
10
0.0553937
20
-1.69594
11
0.0661577
21
-1.68887
0
LINE
8
BLACK
6
CONTINUOUS
10
0.0661577
20
-1.68887
11
0.076027
21
-1.68058
0
LINE
8
BLACK
6
CONTINUOUS
10
0.076027
20
-1.68058
11
0.0848681
21
-1.67121
0
LINE
8
BLACK
6
CONTINUOUS
10
0.0848681
20
-1.67121
11
0.0925616
21
-1.66088
0
LINE
8
BLACK
6
CONTINUOUS
10
0.0925616
20
-1.66088
11
0.0990033
21
-1.64972
0
LINE
8
BLACK
6
CONTINUOUS
10
0.0990033
20
-1.64972
11
0.104106
21
-1.63789
0
LINE
8
BLACK
6
CONTINUOUS
10
0.104106
20
-1.63789
11
0.107801
21
-1.62555
0
LINE
8
BLACK
6
CONTINUOUS
10
0.107801
20
-1.62555
11
0.110038
21
-1.61286
0
LINE
8
BLACK
6
CONTINUOUS
10
0.110038
20
-1.61286
11
0.110787
21
-1.6
0
LINE
8
BLACK
6
CONTINUOUS
10
0.110787
20
-1.6
11
0.110038
21
-1.58714
0
LINE
8
BLACK
6
CONTINUOUS
10
0.110038
20
-1.58714
11
0.107801
21
-1.57445
0
LINE
8
BLACK
6
CONTINUOUS
10
0.107801
20
-1.57445
11
0.104106
21
-1.56211
0
LINE
8
BLACK
6
CONTINUOUS
10
0.104106
20
-1.56211
11
0.0990033
21
-1.55028
0
LINE
8
BLACK
6
CONTINUOUS
10
0.0990033
20
-1.55028
11
0.0925616
21
-1.53912
0
LINE
8
BLACK
6
CONTINUOUS
10
0.0925616
20
-1.53912
11
0.0848681
21
-1.52879
0
LINE
8
BLACK
6
CONTINUOUS
10
0.0848681
20
-1.52879
11
0.076027
21
-1.51942
0
LINE
8
BLACK
6
CONTINUOUS
10
0.076027
20
-1.51942
11
0.0661577
21
-1.51113
0
LINE
8
BLACK
6
CONTINUOUS
10
0.0661577
20
-1.51113
11
0.0553937
21
-1.50406
0
LINE
8
BLACK
6
CONTINUOUS
10
0.0553937
20
-1.50406
11
0.0438807
21
-1.49827
0
LINE
8
BLACK
6
CONTINUOUS
10
0.0438807
20
-1.49827
11
0.0317742
21
-1.49387
0
LINE
8
BLACK
6
CONTINUOUS
10
0.0317742
20
-1.49387
11
0.019238
21
-1.4909
0
LINE
8
BLACK
6
CONTINUOUS
10
0.019238
20
-1.4909
11
0.00644173
21
-1.4894
0
LINE
8
BLACK
6
CONTINUOUS
10
0.00644173
20
-1.4894
11
-0.00644173
21
-1.4894
0
LINE
8
BLACK
6
CONTINUOUS
10
-0.00644173
20
-1.4894
11
-0.019238
21
-1.4909
0
LINE
8
BLACK
6
CONTINUOUS
10
-0.019238
20
-1.4909
11
-0.0317742
21
-1.49387
0
LINE
8
BLACK
6
CONTINUOUS
10
-0.0317742
20
-1.49387
11
-0.0438807
21
-1.49827
0
LINE
8
BLACK
6
CONTINUOUS
10
-0.0438807
20
-1.49827
11
-0.0553937
21
-1.50406
0
LINE
8
BLACK
6
CONTINUOUS
10
-0.0553937
20
-1.50406
11
-0.0661577
21
-1.51113
0
LINE
8
BLACK
6
CONTINUOUS
10
-0.0661577
20
-1.51113
11
-0.076027
21
-1.51942
0
LINE
8
BLACK
6
CONTINUOUS
10
-0.076027
20
-1.51942
11
-0.0848681
21
-1.52879
0
LINE
8
BLACK
6
CONTINUOUS
10
-0.0848681
20
-1.52879
11
-0.0925616
21
-1.53912
0
LINE
8
BLACK
6
CONTINUOUS
10
-0.0925616
20
-1.53912
11
-0.0990033
21
-1.55028
0
LINE
8
BLACK
6
CONTINUOUS
10
-0.0990033
20
-1.55028
11
-0.104106
21
-1.56211
0
LINE
8
BLACK
6
CONTINUOUS
10
-0.104106
20
-1.56211
11
-0.107801
21
-1.57445
0
LINE
8
BLACK
6
CONTINUOUS
10
-0.107801
20
-1.57445
11
-0.110038
21
-1.58714
0
LINE
8
BLACK
6
CONTINUOUS
10
-0.110038
20
-1.58714
11
-0.110787
21
-1.6
0
LINE
8
BLACK
6
CONTINUOUS
10
-0.110787
20
-1.6
11
-0.110038
21
-1.61286
0
LINE
8
BLACK
6
CONTINUOUS
10
0.0140628
20
0.12481
11
0.0279486
21
0.122451
0
LINE
8
BLACK
6
CONTINUOUS
10
0.0279486
20
0.122451
11
0.041483
21
0.118552
0
LINE
8
BLACK
6
CONTINUOUS
10
0.041483
20
0.118552
11
0.0544958
21
0.113162
0
LINE
8
BLACK
6
CONTINUOUS
10
0.0544958
20
0.113162
11
0.0668232
21
0.106349
0
LINE
8
BLACK
6
CONTINUOUS
10
0.0668232
20
0.106349
11
0.0783103
21
0.098198
0
LINE
8
BLACK
6
CONTINUOUS
10
0.0783103
20
0.098198
11
0.0888126
21
0.0888126
0
LINE
8
BLACK
6
CONTINUOUS
10
0.0888126
20
0.0888126
11
0.098198
21
0.0783103
0
LINE
8
BLACK
6
CONTINUOUS
10
0.098198
20
0.0783103
11
0.106349
21
0.0668232
0
LINE
8
BLACK
6
CONTINUOUS
10
0.106349
20
0.0668232
11
0.113162
21
0.0544958
0
LINE
8
BLACK
6
CONTINUOUS
10
0.113162
20
0.0544958
11
0.118552
21
0.041483
0
LINE
8
BLACK
6
CONTINUOUS
10
0.118552
20
0.041483
11
0.122451
21
0.0279486
0
LINE
8
BLACK
6
CONTINUOUS
10
0.122451
20
0.0279486
11
0.12481
21
0.0140628
0
LINE
8
BLACK
6
CONTINUOUS
10
0.12481
20
0.0140628
11
0.1256
21
0
0
LINE
8
BLACK
6
CONTINUOUS
10
0.1256
20
0
11
0.12481
21
-0.0140628
0
LINE
8
BLACK
6
CONTINUOUS
10
0.12481
20
-0.0140628
11
0.122451
21
-0.0279486
0
LINE
8
BLACK
6
CONTINUOUS
10
0.122451
20
-0.0279486
11
0.118552
21
-0.041483
0
LINE
8
BLACK
6
CONTINUOUS
10
0.118552
20
-0.041483
11
0.113162
21
-0.0544958
0
LINE
8
BLACK
6
CONTINUOUS
10
0.113162
20
-0.0544958
11
0.106349
21
-0.0668232
0
LINE
8
BLACK
6
CONTINUOUS
10
0.106349
20
-0.0668232
11
0.098198
21
-0.0783103
0
LINE
8
BLACK
6
CONTINUOUS
10
0.098198
20
-0.0783103
11
0.0888126
21
-0.0888126
0
LINE
8
BLACK
6
CONTINUOUS
10
0.0888126
20
-0.0888126
11
0.0783103
21
-0.098198
0
LINE
8
BLACK
6
CONTINUOUS
10
0.0783103
20
-0.098198
11
0.0668232
21
-0.106349
0
LINE
8
BLACK
6
CONTINUOUS
10
0.0668232
20
-0.106349
11
0.0544958
21
-0.113162
0
LINE
8
BLACK
6
CONTINUOUS
10
0.0544958
20
-0.113162
11
0.041483
21
-0.118552
0
LINE
8
BLACK
6
CONTINUOUS
10
0.041483
20
-0.118552
11
0.0279486
21
-0.122451
0
LINE
8
BLACK
6
CONTINUOUS
10
0.0279486
20
-0.122451
11
0.0140628
21
-0.12481
0
LINE
8
BLACK
6
CONTINUOUS
10
0.0140628
20
-0.12481
11
0
21
-0.1256
0
LINE
8
BLACK
6
CONTINUOUS
10
0
20
-0.1256
11
-0.0140628
21
-0.12481
0
LINE
8
BLACK
6
CONTINUOUS
10
-0.0140628
20
-0.12481
11
-0.0279486
21
-0.122451
0
LINE
8
BLACK
6
CONTINUOUS
10
-0.0279486
20
-0.122451
11
-0.041483
21
-0.118552
0
LINE
8
BLACK
6
CONTINUOUS
10
-0.041483
20
-0.118552
11
-0.0544958
21
-0.113162
0
LINE
8
BLACK
6
CONTINUOUS
10
-0.0544958
20
-0.113162
11
-0.0668232
21
-0.106349
0
LINE
8
BLACK
6
CONTINUOUS
10
-0.0668232
20
-0.106349
11
-0.0783103
21
-0.098198
0
LINE
8
BLACK
6
CONTINUOUS
10
-0.0783103
20
-0.098198
11
-0.0888126
21
-0.0888126
0
LINE
8
BLACK
6
CONTINUOUS
10
-0.0888126
20
-0.0888126
11
-0.098198
21
-0.0783103
0
LINE
8
BLACK
6
CONTINUOUS
10
-0.098198
20
-0.0783103
11
-0.106349
21
-0.0668232
0
LINE
8
BLACK
6
CONTINUOUS
10
-0.106349
20
-0.0668232
11
-0.113162
21
-0.0544958
0
LINE
8
BLACK
6
CONTINUOUS
10
-0.113162
20
-0.0544958
11
-0.118552
21
-0.041483
0
LINE
8
BLACK
6
CONTINUOUS
10
-0.118552
20
-0.041483
11
-0.122451
21
-0.0279486
0
LINE
8
BLACK
6
CONTINUOUS
10
-0.122451
20
-0.0279486
11
-0.12481
21
-0.0140628
0
LINE
8
BLACK
6
CONTINUOUS
10
-0.12481
20
-0.0140628
11
-0.1256
21
0
0
LINE
8
BLACK
6
CONTINUOUS
10
-0.1256
20
0
11
-0.12481
21
0.0140628
0
LINE
8
BLACK
6
CONTINUOUS
10
-0.12481
20
0.0140628
11
-0.122451
21
0.0279486
0
LINE
8
BLACK
6
CONTINUOUS
10
-0.122451
20
0.0279486
11
-0.118552
21
0.041483
0
LINE
8
BLACK
6
CONTINUOUS
10
-0.118552
20
0.041483
11
-0.113162
21
0.0544958
0
LINE
8
BLACK
6
CONTINUOUS
10
-0.113162
20
0.0544958
11
-0.106349
21
0.0668232
0
LINE
8
BLACK
6
CONTINUOUS
10
-0.106349
20
0.0668232
11
-0.098198
21
0.0783103
0
LINE
8
BLACK
6
CONTINUOUS
10
-0.098198
20
0.0783103
11
-0.0888126
21
0.0888126
0
LINE
8
BLACK
6
CONTINUOUS
10
-0.0888126
20
0.0888126
11
-0.0783103
21
0.098198
0
LINE
8
BLACK
6
CONTINUOUS
10
-0.0783103
20
0.098198
11
-0.0668232
21
0.106349
0
LINE
8
BLACK
6
CONTINUOUS
10
-0.0668232
20
0.106349
11
-0.0544958
21
0.113162
0
LINE
8
BLACK
6
CONTINUOUS
10
-0.0544958
20
0.113162
11
-0.041483
21
0.118552
0
LINE
8
BLACK
6
CONTINUOUS
10
-0.041483
20
0.118552
11
-0.0279486
21
0.122451
0
LINE
8
BLACK
6
CONTINUOUS
10
-0.0279486
20
0.122451
11
-0.0140628
21
0.12481
0
LINE
8
BLACK
6
CONTINUOUS
10
-0.0140628
20
0.12481
11
0
21
0.1256
0
LINE
8
BLACK
6
CONTINUOUS
10
0
20
0.1256
11
0.0140628
21
0.12481
0
LINE
8
BLACK
6
CONTINUOUS
10
-0.110038
20
-0.0128617
11
-0.107801
21
-0.0255493
0
LINE
8
BLACK
6
CONTINUOUS
10
-0.107801
20
-0.0255493
11
-0.104106
21
-0.0378915
0
LINE
8
BLACK
6
CONTINUOUS
10
-0.104106
20
-0.0378915
11
-0.0990033
21
-0.0497213
0
LINE
8
BLACK
6
CONTINUOUS
10
-0.0990033
20
-0.0497213
11
-0.0925616
21
-0.0608787
0
LINE
8
BLACK
6
CONTINUOUS
10
-0.0925616
20
-0.0608787
11
-0.0848681
21
-0.0712128
0
LINE
8
BLACK
6
CONTINUOUS
10
-0.0848681
20
-0.0712128
11
-0.076027
21
-0.0805839
0
LINE
8
BLACK
6
CONTINUOUS
10
-0.076027
20
-0.0805839
11
-0.0661577
21
-0.0888652
0
LINE
8
BLACK
6
CONTINUOUS
10
-0.0661577
20
-0.0888652
11
-0.0553937
21
-0.0959447
0
LINE
8
BLACK
6
CONTINUOUS
10
-0.0553937
20
-0.0959447
11
-0.0438807
21
-0.101727
0
LINE
8
BLACK
6
CONTINUOUS
10
-0.0438807
20
-0.101727
11
-0.0317742
21
-0.106133
0
LINE
8
BLACK
6
CONTINUOUS
10
-0.0317742
20
-0.106133
11
-0.019238
21
-0.109104
0
LINE
8
BLACK
6
CONTINUOUS
10
-0.019238
20
-0.109104
11
-0.00644173
21
-0.1106
0
LINE
8
BLACK
6
CONTINUOUS
10
-0.00644173
20
-0.1106
11
0.00644173
21
-0.1106
0
LINE
8
BLACK
6
CONTINUOUS
10
0.00644173
20
-0.1106
11
0.019238
21
-0.109104
0
LINE
8
BLACK
6
CONTINUOUS
10
0.019238
20
-0.109104
11
0.0317742
21
-0.106133
0
LINE
8
BLACK
6
CONTINUOUS
10
0.0317742
20
-0.106133
11
0.0438807
21
-0.101727
0
LINE
8
BLACK
6
CONTINUOUS
10
0.0438807
20
-0.101727
11
0.0553937
21
-0.0959447
0
LINE
8
BLACK
6
CONTINUOUS
10
0.0553937
20
-0.0959447
11
0.0661577
21
-0.0888652
0
LINE
8
BLACK
6
CONTINUOUS
10
0.0661577
20
-0.0888652
11
0.076027
21
-0.0805839
0
LINE
8
BLACK
6
CONTINUOUS
10
0.076027
20
-0.0805839
11
0.0848681
21
-0.0712128
0
LINE
8
BLACK
6
CONTINUOUS
10
0.0848681
20
-0.0712128
11
0.0925616
21
-0.0608787
0
LINE
8
BLACK
6
CONTINUOUS
10
0.0925616
20
-0.0608787
11
0.0990033
21
-0.0497213
0
LINE
8
BLACK
6
CONTINUOUS
10
0.0990033
20
-0.0497213
11
0.104106
21
-0.0378915
0
LINE
8
BLACK
6
CONTINUOUS
10
0.104106
20
-0.0378915
11
0.107801
21
-0.0255493
0
LINE
8
BLACK
6
CONTINUOUS
10
0.107801
20
-0.0255493
11
0.110038
21
-0.0128617
0
LINE
8
BLACK
6
CONTINUOUS
10
0.110038
20
-0.0128617
11
0.110787
21
0
0
LINE
8
BLACK
6
CONTINUOUS
10
0.110787
20
0
11
0.110038
21
0.0128617
0
LINE
8
BLACK
6
CONTINUOUS
10
0.110038
20
0.0128617
11
0.107801
21
0.0255493
0
LINE
8
BLACK
6
CONTINUOUS
10
0.107801
20
0.0255493
11
0.104106
21
0.0378915
0
LINE
8
BLACK
6
CONTINUOUS
10
0.104106
20
0.0378915
11
0.0990033
21
0.0497213
0
LINE
8
BLACK
6
CONTINUOUS
10
0.0990033
20
0.0497213
11
0.0925616
21
0.0608787
0
LINE
8
BLACK
6
CONTINUOUS
10
0.0925616
20
0.0608787
11
0.0848681
21
0.0712128
0
LINE
8
BLACK
6
CONTINUOUS
10
0.0848681
20
0.0712128
11
0.076027
21
0.0805839
0
LINE
8
BLACK
6
CONTINUOUS
10
0.076027
20
0.0805839
11
0.0661577
21
0.0888652
0
LINE
8
BLACK
6
CONTINUOUS
10
0.0661577
20
0.0888652
11
0.0553937
21
0.0959447
0
LINE
8
BLACK
6
CONTINUOUS
10
0.0553937
20
0.0959447
11
0.0438807
21
0.101727
0
LINE
8
BLACK
6
CONTINUOUS
10
0.0438807
20
0.101727
11
0.0317742
21
0.106133
0
LINE
8
BLACK
6
CONTINUOUS
10
0.0317742
20
0.106133
11
0.019238
21
0.109104
0
LINE
8
BLACK
6
CONTINUOUS
10
0.019238
20
0.109104
11
0.00644173
21
0.1106
0
LINE
8
BLACK
6
CONTINUOUS
10
0.00644173
20
0.1106
11
-0.00644173
21
0.1106
0
LINE
8
BLACK
6
CONTINUOUS
10
-0.00644173
20
0.1106
11
-0.019238
21
0.109104
0
LINE
8
BLACK
6
CONTINUOUS
10
-0.019238
20
0.109104
11
-0.0317742
21
0.106133
0
LINE
8
BLACK
6
CONTINUOUS
10
-0.0317742
20
0.106133
11
-0.0438807
21
0.101727
0
LINE
8
BLACK
6
CONTINUOUS
10
-0.0438807
20
0.101727
11
-0.0553937
21
0.0959447
0
LINE
8
BLACK
6
CONTINUOUS
10
-0.0553937
20
0.0959447
11
-0.0661577
21
0.0888652
0
LINE
8
BLACK
6
CONTINUOUS
10
-0.0661577
20
0.0888652
11
-0.076027
21
0.0805839
0
LINE
8
BLACK
6
CONTINUOUS
10
-0.076027
20
0.0805839
11
-0.0848681
21
0.0712128
0
LINE
8
BLACK
6
CONTINUOUS
10
-0.0848681
20
0.0712128
11
-0.0925616
21
0.0608787
0
LINE
8
BLACK
6
CONTINUOUS
10
-0.0925616
20
0.0608787
11
-0.0990033
21
0.0497213
0
LINE
8
BLACK
6
CONTINUOUS
10
-0.0990033
20
0.0497213
11
-0.104106
21
0.0378915
0
LINE
8
BLACK
6
CONTINUOUS
10
-0.104106
20
0.0378915
11
-0.107801
21
0.0255493
0
LINE
8
BLACK
6
CONTINUOUS
10
-0.107801
20
0.0255493
11
-0.110038
21
0.0128617
0
LINE
8
BLACK
6
CONTINUOUS
10
-0.110038
20
0.0128617
11
-0.110787
21
0
0
LINE
8
BLACK
6
CONTINUOUS
10
-0.110787
20
0
11
-0.110038
21
-0.0128617
  0
ENDSEC
  0
EOF
