  0
SECTION
  2
HEADER
  9
$ANGBASE
  50
0.0
  9
$ANGDIR
  70
1
  9
$MEASUREMENT
  70
0
  0
ENDSEC
  0
SECTION
  2
TABLES
  0
TABLE
  2
LTYPE
  70
4
  0
LTYPE
  5
40F
  2
CONTINUOUS
  70
0
  3
Solid line
  72
65
  73
0
  40
0.0
  0
LTYPE
  5
410
  2
DASHDOT
 70
0
  3
Dash Dot ____ _ ____ _
 72
65
 73
4
 40
2.0
 49
1.25
 49
-0.25
 49
0.25
 49
-0.25
  0
LTYPE
  5
411
  2
DASHED
 70
0
  3
Dashed __ __ __ __ __
 72
65
 73
2
 40
0.75
 49
0.5
 49
-0.25
  0
LTYPE
  5
43B
  2
DOTTED
 70
0
  3
Dotted .  .  .  .
 72
65
 73
2
 40
0.2
 49
0.0
 49
-0.2
  0
ENDTAB
  0
TABLE
  2
STYLE
  70
4
  0
STYLE
  2
KICAD
  70
0
  40
0
  41
1
  42
1
  50
0
  71
0
  3
isocp.shx
  0
STYLE
  2
KICADB
  70
0
  40
0
  41
1
  42
1
  50
0
  71
0
  3
isocp.shx
  0
STYLE
  2
KICADI
  70
0
  40
0
  41
1
  42
1
  50
15
  71
0
  3
isocp.shx
  0
STYLE
  2
KICADBI
  70
0
  40
0
  41
1
  42
1
  50
15
  71
0
  3
isocp.shx
  0
ENDTAB
  0
TABLE
  2
LAYER
  70
1
  0
LAYER
  2
BLACK
  70
0
  62
7
  6
CONTINUOUS
  0
ENDTAB
  0
ENDSEC
  0
SECTION
  2
ENTITIES
0
LINE
8
BLACK
6
CONTINUOUS
10
0.274437
20
-0.593816
11
0.274502
21
-0.593814
0
LINE
8
BLACK
6
CONTINUOUS
10
0.274502
20
-0.593814
11
0.280126
21
-0.595689
0
LINE
8
BLACK
6
CONTINUOUS
10
0.280126
20
-0.595689
11
0.281028
21
-0.596177
0
LINE
8
BLACK
6
CONTINUOUS
10
0.281028
20
-0.596177
11
0.28112
21
-0.596328
0
LINE
8
BLACK
6
CONTINUOUS
10
0.28112
20
-0.596328
11
0.28128
21
-0.596402
0
LINE
8
BLACK
6
CONTINUOUS
10
0.28128
20
-0.596402
11
0.283155
21
-0.598277
0
LINE
8
BLACK
6
CONTINUOUS
10
0.283155
20
-0.598277
11
0.28326
21
-0.598427
0
LINE
8
BLACK
6
CONTINUOUS
10
0.28326
20
-0.598427
11
0.283329
21
-0.598467
0
LINE
8
BLACK
6
CONTINUOUS
10
0.283329
20
-0.598467
11
0.283374
21
-0.598589
0
LINE
8
BLACK
6
CONTINUOUS
10
0.283374
20
-0.598589
11
0.283743
21
-0.599117
0
LINE
8
BLACK
6
CONTINUOUS
10
0.283743
20
-0.599117
11
0.283799
21
-0.599759
0
LINE
8
BLACK
6
CONTINUOUS
10
0.283799
20
-0.599759
11
0.28402
21
-0.600365
0
LINE
8
BLACK
6
CONTINUOUS
10
0.28402
20
-0.600365
11
0.28402
21
-0.613488
0
LINE
8
BLACK
6
CONTINUOUS
10
0.28402
20
-0.613488
11
0.283952
21
-0.613872
0
LINE
8
BLACK
6
CONTINUOUS
10
0.283952
20
-0.613872
11
0.283975
21
-0.614001
0
LINE
8
BLACK
6
CONTINUOUS
10
0.283975
20
-0.614001
11
0.283909
21
-0.614115
0
LINE
8
BLACK
6
CONTINUOUS
10
0.283909
20
-0.614115
11
0.283842
21
-0.614498
0
LINE
8
BLACK
6
CONTINUOUS
10
0.283842
20
-0.614498
11
0.283349
21
-0.615086
0
LINE
8
BLACK
6
CONTINUOUS
10
0.283349
20
-0.615086
11
0.282965
21
-0.61575
0
LINE
8
BLACK
6
CONTINUOUS
10
0.282965
20
-0.61575
11
0.282715
21
-0.615841
0
LINE
8
BLACK
6
CONTINUOUS
10
0.282715
20
-0.615841
11
0.282544
21
-0.616046
0
LINE
8
BLACK
6
CONTINUOUS
10
0.282544
20
-0.616046
11
0.281788
21
-0.616179
0
LINE
8
BLACK
6
CONTINUOUS
10
0.281788
20
-0.616179
11
0.281067
21
-0.616441
0
LINE
8
BLACK
6
CONTINUOUS
10
0.281067
20
-0.616441
11
0.273568
21
-0.616441
0
LINE
8
BLACK
6
CONTINUOUS
10
0.273568
20
-0.616441
11
0.272558
21
-0.616263
0
LINE
8
BLACK
6
CONTINUOUS
10
0.272558
20
-0.616263
11
0.271011
21
-0.614965
0
LINE
8
BLACK
6
CONTINUOUS
10
0.271011
20
-0.614965
11
0.27066
21
-0.612976
0
LINE
8
BLACK
6
CONTINUOUS
10
0.27066
20
-0.612976
11
0.27167
21
-0.611226
0
LINE
8
BLACK
6
CONTINUOUS
10
0.27167
20
-0.611226
11
0.273568
21
-0.610536
0
LINE
8
BLACK
6
CONTINUOUS
10
0.273568
20
-0.610536
11
0.278114
21
-0.610536
0
LINE
8
BLACK
6
CONTINUOUS
10
0.278114
20
-0.610536
11
0.278114
21
-0.601588
0
LINE
8
BLACK
6
CONTINUOUS
10
0.278114
20
-0.601588
11
0.277597
21
-0.601071
0
LINE
8
BLACK
6
CONTINUOUS
10
0.277597
20
-0.601071
11
0.273089
21
-0.599568
0
LINE
8
BLACK
6
CONTINUOUS
10
0.273089
20
-0.599568
11
0.270298
21
-0.599568
0
LINE
8
BLACK
6
CONTINUOUS
10
0.270298
20
-0.599568
11
0.265789
21
-0.601071
0
LINE
8
BLACK
6
CONTINUOUS
10
0.265789
20
-0.601071
11
0.262871
21
-0.603989
0
LINE
8
BLACK
6
CONTINUOUS
10
0.262871
20
-0.603989
11
0.261356
21
-0.60702
0
LINE
8
BLACK
6
CONTINUOUS
10
0.261356
20
-0.60702
11
0.259648
21
-0.613852
0
LINE
8
BLACK
6
CONTINUOUS
10
0.259648
20
-0.613852
11
0.259648
21
-0.618749
0
LINE
8
BLACK
6
CONTINUOUS
10
0.259648
20
-0.618749
11
0.261356
21
-0.625581
0
LINE
8
BLACK
6
CONTINUOUS
10
0.261356
20
-0.625581
11
0.262871
21
-0.628612
0
LINE
8
BLACK
6
CONTINUOUS
10
0.262871
20
-0.628612
11
0.265789
21
-0.63153
0
LINE
8
BLACK
6
CONTINUOUS
10
0.265789
20
-0.63153
11
0.270298
21
-0.633033
0
LINE
8
BLACK
6
CONTINUOUS
10
0.270298
20
-0.633033
11
0.274746
21
-0.633033
0
LINE
8
BLACK
6
CONTINUOUS
10
0.274746
20
-0.633033
11
0.277872
21
-0.63147
0
LINE
8
BLACK
6
CONTINUOUS
10
0.277872
20
-0.63147
11
0.278855
21
-0.631177
0
LINE
8
BLACK
6
CONTINUOUS
10
0.278855
20
-0.631177
11
0.280819
21
-0.631647
0
LINE
8
BLACK
6
CONTINUOUS
10
0.280819
20
-0.631647
11
0.282023
21
-0.633269
0
LINE
8
BLACK
6
CONTINUOUS
10
0.282023
20
-0.633269
11
0.281902
21
-0.635285
0
LINE
8
BLACK
6
CONTINUOUS
10
0.281902
20
-0.635285
11
0.280513
21
-0.636752
0
LINE
8
BLACK
6
CONTINUOUS
10
0.280513
20
-0.636752
11
0.276763
21
-0.638627
0
LINE
8
BLACK
6
CONTINUOUS
10
0.276763
20
-0.638627
11
0.27578
21
-0.638919
0
LINE
8
BLACK
6
CONTINUOUS
10
0.27578
20
-0.638919
11
0.275609
21
-0.638878
0
LINE
8
BLACK
6
CONTINUOUS
10
0.275609
20
-0.638878
11
0.275443
21
-0.638938
0
LINE
8
BLACK
6
CONTINUOUS
10
0.275443
20
-0.638938
11
0.269819
21
-0.638938
0
LINE
8
BLACK
6
CONTINUOUS
10
0.269819
20
-0.638938
11
0.268949
21
-0.638785
0
LINE
8
BLACK
6
CONTINUOUS
10
0.268949
20
-0.638785
11
0.268885
21
-0.638787
0
LINE
8
BLACK
6
CONTINUOUS
10
0.268885
20
-0.638787
11
0.263261
21
-0.636912
0
LINE
8
BLACK
6
CONTINUOUS
10
0.263261
20
-0.636912
11
0.262359
21
-0.636424
0
LINE
8
BLACK
6
CONTINUOUS
10
0.262359
20
-0.636424
11
0.262266
21
-0.636273
0
LINE
8
BLACK
6
CONTINUOUS
10
0.262266
20
-0.636273
11
0.262106
21
-0.636199
0
LINE
8
BLACK
6
CONTINUOUS
10
0.262106
20
-0.636199
11
0.258357
21
-0.632449
0
LINE
8
BLACK
6
CONTINUOUS
10
0.258357
20
-0.632449
11
0.257851
21
-0.631726
0
LINE
8
BLACK
6
CONTINUOUS
10
0.257851
20
-0.631726
11
0.257804
21
-0.631682
0
LINE
8
BLACK
6
CONTINUOUS
10
0.257804
20
-0.631682
11
0.255929
21
-0.627932
0
LINE
8
BLACK
6
CONTINUOUS
10
0.255929
20
-0.627932
11
0.255784
21
-0.627444
0
LINE
8
BLACK
6
CONTINUOUS
10
0.255784
20
-0.627444
11
0.255705
21
-0.627328
0
LINE
8
BLACK
6
CONTINUOUS
10
0.255705
20
-0.627328
11
0.253831
21
-0.619829
0
LINE
8
BLACK
6
CONTINUOUS
10
0.253831
20
-0.619829
11
0.253789
21
-0.619241
0
LINE
8
BLACK
6
CONTINUOUS
10
0.253789
20
-0.619241
11
0.253742
21
-0.619113
0
LINE
8
BLACK
6
CONTINUOUS
10
0.253742
20
-0.619113
11
0.253742
21
-0.613488
0
LINE
8
BLACK
6
CONTINUOUS
10
0.253742
20
-0.613488
11
0.253845
21
-0.612908
0
LINE
8
BLACK
6
CONTINUOUS
10
0.253845
20
-0.612908
11
0.253831
21
-0.612772
0
LINE
8
BLACK
6
CONTINUOUS
10
0.253831
20
-0.612772
11
0.255705
21
-0.605273
0
LINE
8
BLACK
6
CONTINUOUS
10
0.255705
20
-0.605273
11
0.255913
21
-0.604808
0
LINE
8
BLACK
6
CONTINUOUS
10
0.255913
20
-0.604808
11
0.255929
21
-0.604669
0
LINE
8
BLACK
6
CONTINUOUS
10
0.255929
20
-0.604669
11
0.257804
21
-0.600919
0
LINE
8
BLACK
6
CONTINUOUS
10
0.257804
20
-0.600919
11
0.25833
21
-0.60021
0
LINE
8
BLACK
6
CONTINUOUS
10
0.25833
20
-0.60021
11
0.258357
21
-0.600152
0
LINE
8
BLACK
6
CONTINUOUS
10
0.258357
20
-0.600152
11
0.262106
21
-0.596402
0
LINE
8
BLACK
6
CONTINUOUS
10
0.262106
20
-0.596402
11
0.262946
21
-0.595814
0
LINE
8
BLACK
6
CONTINUOUS
10
0.262946
20
-0.595814
11
0.263122
21
-0.595799
0
LINE
8
BLACK
6
CONTINUOUS
10
0.263122
20
-0.595799
11
0.263261
21
-0.595689
0
LINE
8
BLACK
6
CONTINUOUS
10
0.263261
20
-0.595689
11
0.268885
21
-0.593814
0
LINE
8
BLACK
6
CONTINUOUS
10
0.268885
20
-0.593814
11
0.269758
21
-0.593685
0
LINE
8
BLACK
6
CONTINUOUS
10
0.269758
20
-0.593685
11
0.269819
21
-0.593663
0
LINE
8
BLACK
6
CONTINUOUS
10
0.269819
20
-0.593663
11
0.273568
21
-0.593663
0
LINE
8
BLACK
6
CONTINUOUS
10
0.273568
20
-0.593663
11
0.274437
21
-0.593816
0
LINE
8
BLACK
6
CONTINUOUS
10
0.349428
20
-0.593816
11
0.349493
21
-0.593814
0
LINE
8
BLACK
6
CONTINUOUS
10
0.349493
20
-0.593814
11
0.355117
21
-0.595689
0
LINE
8
BLACK
6
CONTINUOUS
10
0.355117
20
-0.595689
11
0.356019
21
-0.596177
0
LINE
8
BLACK
6
CONTINUOUS
10
0.356019
20
-0.596177
11
0.356111
21
-0.596328
0
LINE
8
BLACK
6
CONTINUOUS
10
0.356111
20
-0.596328
11
0.356271
21
-0.596402
0
LINE
8
BLACK
6
CONTINUOUS
10
0.356271
20
-0.596402
11
0.36002
21
-0.600152
0
LINE
8
BLACK
6
CONTINUOUS
10
0.36002
20
-0.600152
11
0.360527
21
-0.600875
0
LINE
8
BLACK
6
CONTINUOUS
10
0.360527
20
-0.600875
11
0.360574
21
-0.600919
0
LINE
8
BLACK
6
CONTINUOUS
10
0.360574
20
-0.600919
11
0.362448
21
-0.604669
0
LINE
8
BLACK
6
CONTINUOUS
10
0.362448
20
-0.604669
11
0.362594
21
-0.605157
0
LINE
8
BLACK
6
CONTINUOUS
10
0.362594
20
-0.605157
11
0.362672
21
-0.605273
0
LINE
8
BLACK
6
CONTINUOUS
10
0.362672
20
-0.605273
11
0.364547
21
-0.612772
0
LINE
8
BLACK
6
CONTINUOUS
10
0.364547
20
-0.612772
11
0.364588
21
-0.61336
0
LINE
8
BLACK
6
CONTINUOUS
10
0.364588
20
-0.61336
11
0.364635
21
-0.613488
0
LINE
8
BLACK
6
CONTINUOUS
10
0.364635
20
-0.613488
11
0.364635
21
-0.619113
0
LINE
8
BLACK
6
CONTINUOUS
10
0.364635
20
-0.619113
11
0.364532
21
-0.619693
0
LINE
8
BLACK
6
CONTINUOUS
10
0.364532
20
-0.619693
11
0.364547
21
-0.619829
0
LINE
8
BLACK
6
CONTINUOUS
10
0.364547
20
-0.619829
11
0.362672
21
-0.627328
0
LINE
8
BLACK
6
CONTINUOUS
10
0.362672
20
-0.627328
11
0.362464
21
-0.627793
0
LINE
8
BLACK
6
CONTINUOUS
10
0.362464
20
-0.627793
11
0.362448
21
-0.627932
0
LINE
8
BLACK
6
CONTINUOUS
10
0.362448
20
-0.627932
11
0.360574
21
-0.631682
0
LINE
8
BLACK
6
CONTINUOUS
10
0.360574
20
-0.631682
11
0.360048
21
-0.632391
0
LINE
8
BLACK
6
CONTINUOUS
10
0.360048
20
-0.632391
11
0.36002
21
-0.632449
0
LINE
8
BLACK
6
CONTINUOUS
10
0.36002
20
-0.632449
11
0.356271
21
-0.636199
0
LINE
8
BLACK
6
CONTINUOUS
10
0.356271
20
-0.636199
11
0.355431
21
-0.636787
0
LINE
8
BLACK
6
CONTINUOUS
10
0.355431
20
-0.636787
11
0.355255
21
-0.636802
0
LINE
8
BLACK
6
CONTINUOUS
10
0.355255
20
-0.636802
11
0.355117
21
-0.636912
0
LINE
8
BLACK
6
CONTINUOUS
10
0.355117
20
-0.636912
11
0.349492
21
-0.638787
0
LINE
8
BLACK
6
CONTINUOUS
10
0.349492
20
-0.638787
11
0.348619
21
-0.638916
0
LINE
8
BLACK
6
CONTINUOUS
10
0.348619
20
-0.638916
11
0.348559
21
-0.638938
0
LINE
8
BLACK
6
CONTINUOUS
10
0.348559
20
-0.638938
11
0.339185
21
-0.638938
0
LINE
8
BLACK
6
CONTINUOUS
10
0.339185
20
-0.638938
11
0.338801
21
-0.638871
0
LINE
8
BLACK
6
CONTINUOUS
10
0.338801
20
-0.638871
11
0.338672
21
-0.638894
0
LINE
8
BLACK
6
CONTINUOUS
10
0.338672
20
-0.638894
11
0.338559
21
-0.638828
0
LINE
8
BLACK
6
CONTINUOUS
10
0.338559
20
-0.638828
11
0.338175
21
-0.63876
0
LINE
8
BLACK
6
CONTINUOUS
10
0.338175
20
-0.63876
11
0.337587
21
-0.638267
0
LINE
8
BLACK
6
CONTINUOUS
10
0.337587
20
-0.638267
11
0.336923
21
-0.637884
0
LINE
8
BLACK
6
CONTINUOUS
10
0.336923
20
-0.637884
11
0.336832
21
-0.637633
0
LINE
8
BLACK
6
CONTINUOUS
10
0.336832
20
-0.637633
11
0.336628
21
-0.637462
0
LINE
8
BLACK
6
CONTINUOUS
10
0.336628
20
-0.637462
11
0.336494
21
-0.636706
0
LINE
8
BLACK
6
CONTINUOUS
10
0.336494
20
-0.636706
11
0.336232
21
-0.635986
0
LINE
8
BLACK
6
CONTINUOUS
10
0.336232
20
-0.635986
11
0.336232
21
-0.596616
0
LINE
8
BLACK
6
CONTINUOUS
10
0.336232
20
-0.596616
11
0.3363
21
-0.596232
0
LINE
8
BLACK
6
CONTINUOUS
10
0.3363
20
-0.596232
11
0.336277
21
-0.596103
0
LINE
8
BLACK
6
CONTINUOUS
10
0.336277
20
-0.596103
11
0.336343
21
-0.595989
0
LINE
8
BLACK
6
CONTINUOUS
10
0.336343
20
-0.595989
11
0.33641
21
-0.595606
0
LINE
8
BLACK
6
CONTINUOUS
10
0.33641
20
-0.595606
11
0.336903
21
-0.595018
0
LINE
8
BLACK
6
CONTINUOUS
10
0.336903
20
-0.595018
11
0.337287
21
-0.594354
0
LINE
8
BLACK
6
CONTINUOUS
10
0.337287
20
-0.594354
11
0.337537
21
-0.594262
0
LINE
8
BLACK
6
CONTINUOUS
10
0.337537
20
-0.594262
11
0.337709
21
-0.594058
0
LINE
8
BLACK
6
CONTINUOUS
10
0.337709
20
-0.594058
11
0.338464
21
-0.593925
0
LINE
8
BLACK
6
CONTINUOUS
10
0.338464
20
-0.593925
11
0.339185
21
-0.593663
0
LINE
8
BLACK
6
CONTINUOUS
10
0.339185
20
-0.593663
11
0.348559
21
-0.593663
0
LINE
8
BLACK
6
CONTINUOUS
10
0.348559
20
-0.593663
11
0.349428
21
-0.593816
0
LINE
8
BLACK
6
CONTINUOUS
10
0.342138
20
-0.633033
11
0.34808
21
-0.633033
0
LINE
8
BLACK
6
CONTINUOUS
10
0.34808
20
-0.633033
11
0.352588
21
-0.63153
0
LINE
8
BLACK
6
CONTINUOUS
10
0.352588
20
-0.63153
11
0.355506
21
-0.628612
0
LINE
8
BLACK
6
CONTINUOUS
10
0.355506
20
-0.628612
11
0.357021
21
-0.625581
0
LINE
8
BLACK
6
CONTINUOUS
10
0.357021
20
-0.625581
11
0.358729
21
-0.618749
0
LINE
8
BLACK
6
CONTINUOUS
10
0.358729
20
-0.618749
11
0.358729
21
-0.613852
0
LINE
8
BLACK
6
CONTINUOUS
10
0.358729
20
-0.613852
11
0.357021
21
-0.60702
0
LINE
8
BLACK
6
CONTINUOUS
10
0.357021
20
-0.60702
11
0.355506
21
-0.603989
0
LINE
8
BLACK
6
CONTINUOUS
10
0.355506
20
-0.603989
11
0.352588
21
-0.601071
0
LINE
8
BLACK
6
CONTINUOUS
10
0.352588
20
-0.601071
11
0.34808
21
-0.599568
0
LINE
8
BLACK
6
CONTINUOUS
10
0.34808
20
-0.599568
11
0.342138
21
-0.599568
0
LINE
8
BLACK
6
CONTINUOUS
10
0.342138
20
-0.599568
11
0.342138
21
-0.633033
0
LINE
8
BLACK
6
CONTINUOUS
10
0.320681
20
-0.593755
11
0.32095
21
-0.593708
0
LINE
8
BLACK
6
CONTINUOUS
10
0.32095
20
-0.593708
11
0.321609
21
-0.594088
0
LINE
8
BLACK
6
CONTINUOUS
10
0.321609
20
-0.594088
11
0.322325
21
-0.594345
0
LINE
8
BLACK
6
CONTINUOUS
10
0.322325
20
-0.594345
11
0.322463
21
-0.594581
0
LINE
8
BLACK
6
CONTINUOUS
10
0.322463
20
-0.594581
11
0.322699
21
-0.594718
0
LINE
8
BLACK
6
CONTINUOUS
10
0.322699
20
-0.594718
11
0.322959
21
-0.595432
0
LINE
8
BLACK
6
CONTINUOUS
10
0.322959
20
-0.595432
11
0.323343
21
-0.59609
0
LINE
8
BLACK
6
CONTINUOUS
10
0.323343
20
-0.59609
11
0.323297
21
-0.596359
0
LINE
8
BLACK
6
CONTINUOUS
10
0.323297
20
-0.596359
11
0.32339
21
-0.596616
0
LINE
8
BLACK
6
CONTINUOUS
10
0.32339
20
-0.596616
11
0.32339
21
-0.635986
0
LINE
8
BLACK
6
CONTINUOUS
10
0.32339
20
-0.635986
11
0.323212
21
-0.636996
0
LINE
8
BLACK
6
CONTINUOUS
10
0.323212
20
-0.636996
11
0.321914
21
-0.638543
0
LINE
8
BLACK
6
CONTINUOUS
10
0.321914
20
-0.638543
11
0.319924
21
-0.638894
0
LINE
8
BLACK
6
CONTINUOUS
10
0.319924
20
-0.638894
11
0.318175
21
-0.637884
0
LINE
8
BLACK
6
CONTINUOUS
10
0.318175
20
-0.637884
11
0.317484
21
-0.635986
0
LINE
8
BLACK
6
CONTINUOUS
10
0.317484
20
-0.635986
11
0.317484
21
-0.607734
0
LINE
8
BLACK
6
CONTINUOUS
10
0.317484
20
-0.607734
11
0.300504
21
-0.637451
0
LINE
8
BLACK
6
CONTINUOUS
10
0.300504
20
-0.637451
11
0.299848
21
-0.638239
0
LINE
8
BLACK
6
CONTINUOUS
10
0.299848
20
-0.638239
11
0.299592
21
-0.638334
0
LINE
8
BLACK
6
CONTINUOUS
10
0.299592
20
-0.638334
11
0.299416
21
-0.638543
0
LINE
8
BLACK
6
CONTINUOUS
10
0.299416
20
-0.638543
11
0.298667
21
-0.638675
0
LINE
8
BLACK
6
CONTINUOUS
10
0.298667
20
-0.638675
11
0.297953
21
-0.638938
0
LINE
8
BLACK
6
CONTINUOUS
10
0.297953
20
-0.638938
11
0.297696
21
-0.638846
0
LINE
8
BLACK
6
CONTINUOUS
10
0.297696
20
-0.638846
11
0.297427
21
-0.638894
0
LINE
8
BLACK
6
CONTINUOUS
10
0.297427
20
-0.638894
11
0.296768
21
-0.638513
0
LINE
8
BLACK
6
CONTINUOUS
10
0.296768
20
-0.638513
11
0.296052
21
-0.638256
0
LINE
8
BLACK
6
CONTINUOUS
10
0.296052
20
-0.638256
11
0.295915
21
-0.63802
0
LINE
8
BLACK
6
CONTINUOUS
10
0.295915
20
-0.63802
11
0.295678
21
-0.637884
0
LINE
8
BLACK
6
CONTINUOUS
10
0.295678
20
-0.637884
11
0.295418
21
-0.637169
0
LINE
8
BLACK
6
CONTINUOUS
10
0.295418
20
-0.637169
11
0.295034
21
-0.636511
0
LINE
8
BLACK
6
CONTINUOUS
10
0.295034
20
-0.636511
11
0.295081
21
-0.636242
0
LINE
8
BLACK
6
CONTINUOUS
10
0.295081
20
-0.636242
11
0.294987
21
-0.635986
0
LINE
8
BLACK
6
CONTINUOUS
10
0.294987
20
-0.635986
11
0.294987
21
-0.596616
0
LINE
8
BLACK
6
CONTINUOUS
10
0.294987
20
-0.596616
11
0.295165
21
-0.595606
0
LINE
8
BLACK
6
CONTINUOUS
10
0.295165
20
-0.595606
11
0.296464
21
-0.594058
0
LINE
8
BLACK
6
CONTINUOUS
10
0.296464
20
-0.594058
11
0.298453
21
-0.593708
0
LINE
8
BLACK
6
CONTINUOUS
10
0.298453
20
-0.593708
11
0.300202
21
-0.594718
0
LINE
8
BLACK
6
CONTINUOUS
10
0.300202
20
-0.594718
11
0.300893
21
-0.596616
0
LINE
8
BLACK
6
CONTINUOUS
10
0.300893
20
-0.596616
11
0.300893
21
-0.624867
0
LINE
8
BLACK
6
CONTINUOUS
10
0.300893
20
-0.624867
11
0.317874
21
-0.595151
0
LINE
8
BLACK
6
CONTINUOUS
10
0.317874
20
-0.595151
11
0.318529
21
-0.594362
0
LINE
8
BLACK
6
CONTINUOUS
10
0.318529
20
-0.594362
11
0.318785
21
-0.594267
0
LINE
8
BLACK
6
CONTINUOUS
10
0.318785
20
-0.594267
11
0.318961
21
-0.594058
0
LINE
8
BLACK
6
CONTINUOUS
10
0.318961
20
-0.594058
11
0.31971
21
-0.593926
0
LINE
8
BLACK
6
CONTINUOUS
10
0.31971
20
-0.593926
11
0.320424
21
-0.593663
0
LINE
8
BLACK
6
CONTINUOUS
10
0.320424
20
-0.593663
11
0.320681
21
-0.593755
0
LINE
8
BLACK
6
CONTINUOUS
10
0.433203
20
-0.594597
11
0.433997
21
-0.596454
0
LINE
8
BLACK
6
CONTINUOUS
10
0.433997
20
-0.596454
11
0.433411
21
-0.598387
0
LINE
8
BLACK
6
CONTINUOUS
10
0.433411
20
-0.598387
11
0.418074
21
-0.618836
0
LINE
8
BLACK
6
CONTINUOUS
10
0.418074
20
-0.618836
11
0.433136
21
-0.633898
0
LINE
8
BLACK
6
CONTINUOUS
10
0.433136
20
-0.633898
11
0.433725
21
-0.634738
0
LINE
8
BLACK
6
CONTINUOUS
10
0.433725
20
-0.634738
11
0.433901
21
-0.63675
0
LINE
8
BLACK
6
CONTINUOUS
10
0.433901
20
-0.63675
11
0.432742
21
-0.638404
0
LINE
8
BLACK
6
CONTINUOUS
10
0.432742
20
-0.638404
11
0.430791
21
-0.638927
0
LINE
8
BLACK
6
CONTINUOUS
10
0.430791
20
-0.638927
11
0.428961
21
-0.638074
0
LINE
8
BLACK
6
CONTINUOUS
10
0.428961
20
-0.638074
11
0.411504
21
-0.620617
0
LINE
8
BLACK
6
CONTINUOUS
10
0.411504
20
-0.620617
11
0.411504
21
-0.635986
0
LINE
8
BLACK
6
CONTINUOUS
10
0.411504
20
-0.635986
11
0.411326
21
-0.636996
0
LINE
8
BLACK
6
CONTINUOUS
10
0.411326
20
-0.636996
11
0.410028
21
-0.638543
0
LINE
8
BLACK
6
CONTINUOUS
10
0.410028
20
-0.638543
11
0.408039
21
-0.638894
0
LINE
8
BLACK
6
CONTINUOUS
10
0.408039
20
-0.638894
11
0.406289
21
-0.637884
0
LINE
8
BLACK
6
CONTINUOUS
10
0.406289
20
-0.637884
11
0.405599
21
-0.635986
0
LINE
8
BLACK
6
CONTINUOUS
10
0.405599
20
-0.635986
11
0.405599
21
-0.596616
0
LINE
8
BLACK
6
CONTINUOUS
10
0.405599
20
-0.596616
11
0.405777
21
-0.595606
0
LINE
8
BLACK
6
CONTINUOUS
10
0.405777
20
-0.595606
11
0.407075
21
-0.594058
0
LINE
8
BLACK
6
CONTINUOUS
10
0.407075
20
-0.594058
11
0.409064
21
-0.593708
0
LINE
8
BLACK
6
CONTINUOUS
10
0.409064
20
-0.593708
11
0.410813
21
-0.594718
0
LINE
8
BLACK
6
CONTINUOUS
10
0.410813
20
-0.594718
11
0.411504
21
-0.596616
0
LINE
8
BLACK
6
CONTINUOUS
10
0.411504
20
-0.596616
11
0.411504
21
-0.612265
0
LINE
8
BLACK
6
CONTINUOUS
10
0.411504
20
-0.612265
11
0.413856
21
-0.614617
0
LINE
8
BLACK
6
CONTINUOUS
10
0.413856
20
-0.614617
11
0.428686
21
-0.594844
0
LINE
8
BLACK
6
CONTINUOUS
10
0.428686
20
-0.594844
11
0.429435
21
-0.594143
0
LINE
8
BLACK
6
CONTINUOUS
10
0.429435
20
-0.594143
11
0.431402
21
-0.593684
0
LINE
8
BLACK
6
CONTINUOUS
10
0.431402
20
-0.593684
11
0.433203
21
-0.594597
0
LINE
8
BLACK
6
CONTINUOUS
10
0.190749
20
-0.5941
11
0.192005
21
-0.595682
0
LINE
8
BLACK
6
CONTINUOUS
10
0.192005
20
-0.595682
11
0.195081
21
-0.604911
0
LINE
8
BLACK
6
CONTINUOUS
10
0.195081
20
-0.604911
11
0.209573
21
-0.604911
0
LINE
8
BLACK
6
CONTINUOUS
10
0.209573
20
-0.604911
11
0.212649
21
-0.595682
0
LINE
8
BLACK
6
CONTINUOUS
10
0.212649
20
-0.595682
11
0.213137
21
-0.59478
0
LINE
8
BLACK
6
CONTINUOUS
10
0.213137
20
-0.59478
11
0.214858
21
-0.593723
0
LINE
8
BLACK
6
CONTINUOUS
10
0.214858
20
-0.593723
11
0.216856
21
-0.594019
0
LINE
8
BLACK
6
CONTINUOUS
10
0.216856
20
-0.594019
11
0.218196
21
-0.59553
0
LINE
8
BLACK
6
CONTINUOUS
10
0.218196
20
-0.59553
11
0.218252
21
-0.597549
0
LINE
8
BLACK
6
CONTINUOUS
10
0.218252
20
-0.597549
11
0.205128
21
-0.636919
0
LINE
8
BLACK
6
CONTINUOUS
10
0.205128
20
-0.636919
11
0.20464
21
-0.637821
0
LINE
8
BLACK
6
CONTINUOUS
10
0.20464
20
-0.637821
11
0.204567
21
-0.637866
0
LINE
8
BLACK
6
CONTINUOUS
10
0.204567
20
-0.637866
11
0.204536
21
-0.637945
0
LINE
8
BLACK
6
CONTINUOUS
10
0.204536
20
-0.637945
11
0.203715
21
-0.638389
0
LINE
8
BLACK
6
CONTINUOUS
10
0.203715
20
-0.638389
11
0.202919
21
-0.638878
0
LINE
8
BLACK
6
CONTINUOUS
10
0.202919
20
-0.638878
11
0.202835
21
-0.638866
0
LINE
8
BLACK
6
CONTINUOUS
10
0.202835
20
-0.638866
11
0.20276
21
-0.638906
0
LINE
8
BLACK
6
CONTINUOUS
10
0.20276
20
-0.638906
11
0.201845
21
-0.638719
0
LINE
8
BLACK
6
CONTINUOUS
10
0.201845
20
-0.638719
11
0.200921
21
-0.638582
0
LINE
8
BLACK
6
CONTINUOUS
10
0.200921
20
-0.638582
11
0.200865
21
-0.638518
0
LINE
8
BLACK
6
CONTINUOUS
10
0.200865
20
-0.638518
11
0.200781
21
-0.638501
0
LINE
8
BLACK
6
CONTINUOUS
10
0.200781
20
-0.638501
11
0.200201
21
-0.63777
0
LINE
8
BLACK
6
CONTINUOUS
10
0.200201
20
-0.63777
11
0.199581
21
-0.637071
0
LINE
8
BLACK
6
CONTINUOUS
10
0.199581
20
-0.637071
11
0.199579
21
-0.636986
0
LINE
8
BLACK
6
CONTINUOUS
10
0.199579
20
-0.636986
11
0.199526
21
-0.636919
0
LINE
8
BLACK
6
CONTINUOUS
10
0.199526
20
-0.636919
11
0.186402
21
-0.597549
0
LINE
8
BLACK
6
CONTINUOUS
10
0.186402
20
-0.597549
11
0.186252
21
-0.596535
0
LINE
8
BLACK
6
CONTINUOUS
10
0.186252
20
-0.596535
11
0.186994
21
-0.594656
0
LINE
8
BLACK
6
CONTINUOUS
10
0.186994
20
-0.594656
11
0.188771
21
-0.593695
0
LINE
8
BLACK
6
CONTINUOUS
10
0.188771
20
-0.593695
11
0.190749
21
-0.5941
0
LINE
8
BLACK
6
CONTINUOUS
10
0.202327
20
-0.626648
11
0.207604
21
-0.610817
0
LINE
8
BLACK
6
CONTINUOUS
10
0.207604
20
-0.610817
11
0.19705
21
-0.610817
0
LINE
8
BLACK
6
CONTINUOUS
10
0.19705
20
-0.610817
11
0.202327
21
-0.626648
0
LINE
8
BLACK
6
CONTINUOUS
10
0.739181
20
-0.546549
11
0.740865
21
-0.5491
0
LINE
8
BLACK
6
CONTINUOUS
10
0.740865
20
-0.5491
11
0.741048
21
-0.552151
0
LINE
8
BLACK
6
CONTINUOUS
10
0.741048
20
-0.552151
11
0.739681
21
-0.554885
0
LINE
8
BLACK
6
CONTINUOUS
10
0.739681
20
-0.554885
11
0.73713
21
-0.55657
0
LINE
8
BLACK
6
CONTINUOUS
10
0.73713
20
-0.55657
11
0.722046
21
-0.561598
0
LINE
8
BLACK
6
CONTINUOUS
10
0.722046
20
-0.561598
11
0.722046
21
-0.584956
0
LINE
8
BLACK
6
CONTINUOUS
10
0.722046
20
-0.584956
11
0.73713
21
-0.589984
0
LINE
8
BLACK
6
CONTINUOUS
10
0.73713
20
-0.589984
11
0.739681
21
-0.591669
0
LINE
8
BLACK
6
CONTINUOUS
10
0.739681
20
-0.591669
11
0.741048
21
-0.594403
0
LINE
8
BLACK
6
CONTINUOUS
10
0.741048
20
-0.594403
11
0.740865
21
-0.597454
0
LINE
8
BLACK
6
CONTINUOUS
10
0.740865
20
-0.597454
11
0.739181
21
-0.600005
0
LINE
8
BLACK
6
CONTINUOUS
10
0.739181
20
-0.600005
11
0.736447
21
-0.601372
0
LINE
8
BLACK
6
CONTINUOUS
10
0.736447
20
-0.601372
11
0.733395
21
-0.601189
0
LINE
8
BLACK
6
CONTINUOUS
10
0.733395
20
-0.601189
11
0.666466
21
-0.578879
0
LINE
8
BLACK
6
CONTINUOUS
10
0.666466
20
-0.578879
11
0.665476
21
-0.578226
0
LINE
8
BLACK
6
CONTINUOUS
10
0.665476
20
-0.578226
11
0.664415
21
-0.577695
0
LINE
8
BLACK
6
CONTINUOUS
10
0.664415
20
-0.577695
11
0.664216
21
-0.577394
0
LINE
8
BLACK
6
CONTINUOUS
10
0.664216
20
-0.577394
11
0.663915
21
-0.577195
0
LINE
8
BLACK
6
CONTINUOUS
10
0.663915
20
-0.577195
11
0.663385
21
-0.576134
0
LINE
8
BLACK
6
CONTINUOUS
10
0.663385
20
-0.576134
11
0.662731
21
-0.575144
0
LINE
8
BLACK
6
CONTINUOUS
10
0.662731
20
-0.575144
11
0.66271
21
-0.574784
0
LINE
8
BLACK
6
CONTINUOUS
10
0.66271
20
-0.574784
11
0.662548
21
-0.574461
0
LINE
8
BLACK
6
CONTINUOUS
10
0.662548
20
-0.574461
11
0.662619
21
-0.573277
0
LINE
8
BLACK
6
CONTINUOUS
10
0.662619
20
-0.573277
11
0.662548
21
-0.572093
0
LINE
8
BLACK
6
CONTINUOUS
10
0.662548
20
-0.572093
11
0.66271
21
-0.57177
0
LINE
8
BLACK
6
CONTINUOUS
10
0.66271
20
-0.57177
11
0.662731
21
-0.571409
0
LINE
8
BLACK
6
CONTINUOUS
10
0.662731
20
-0.571409
11
0.663385
21
-0.57042
0
LINE
8
BLACK
6
CONTINUOUS
10
0.663385
20
-0.57042
11
0.663915
21
-0.569359
0
LINE
8
BLACK
6
CONTINUOUS
10
0.663915
20
-0.569359
11
0.664216
21
-0.56916
0
LINE
8
BLACK
6
CONTINUOUS
10
0.664216
20
-0.56916
11
0.664415
21
-0.568858
0
LINE
8
BLACK
6
CONTINUOUS
10
0.664415
20
-0.568858
11
0.665476
21
-0.568328
0
LINE
8
BLACK
6
CONTINUOUS
10
0.665476
20
-0.568328
11
0.666466
21
-0.567674
0
LINE
8
BLACK
6
CONTINUOUS
10
0.666466
20
-0.567674
11
0.733395
21
-0.545365
0
LINE
8
BLACK
6
CONTINUOUS
10
0.733395
20
-0.545365
11
0.736447
21
-0.545182
0
LINE
8
BLACK
6
CONTINUOUS
10
0.736447
20
-0.545182
11
0.739181
21
-0.546549
0
LINE
8
BLACK
6
CONTINUOUS
10
0.687008
20
-0.573277
11
0.710235
21
-0.581019
0
LINE
8
BLACK
6
CONTINUOUS
10
0.710235
20
-0.581019
11
0.710235
21
-0.565535
0
LINE
8
BLACK
6
CONTINUOUS
10
0.710235
20
-0.565535
11
0.687008
21
-0.573277
0
LINE
8
BLACK
6
CONTINUOUS
10
0.460426
20
-0.399167
11
0.462096
21
-0.399859
0
LINE
8
BLACK
6
CONTINUOUS
10
0.462096
20
-0.399859
11
0.462788
21
-0.40153
0
LINE
8
BLACK
6
CONTINUOUS
10
0.462788
20
-0.40153
11
0.462788
21
-0.506254
0
LINE
8
BLACK
6
CONTINUOUS
10
0.462788
20
-0.506254
11
0.462096
21
-0.507924
0
LINE
8
BLACK
6
CONTINUOUS
10
0.462096
20
-0.507924
11
0.460426
21
-0.508616
0
LINE
8
BLACK
6
CONTINUOUS
10
0.460426
20
-0.508616
11
0.440347
21
-0.508616
0
LINE
8
BLACK
6
CONTINUOUS
10
0.440347
20
-0.508616
11
0.440347
21
-0.566097
0
LINE
8
BLACK
6
CONTINUOUS
10
0.440347
20
-0.566097
11
0.439655
21
-0.567767
0
LINE
8
BLACK
6
CONTINUOUS
10
0.439655
20
-0.567767
11
0.437985
21
-0.568459
0
LINE
8
BLACK
6
CONTINUOUS
10
0.437985
20
-0.568459
11
0.436315
21
-0.567767
0
LINE
8
BLACK
6
CONTINUOUS
10
0.436315
20
-0.567767
11
0.435623
21
-0.566097
0
LINE
8
BLACK
6
CONTINUOUS
10
0.435623
20
-0.566097
11
0.435623
21
-0.506254
0
LINE
8
BLACK
6
CONTINUOUS
10
0.435623
20
-0.506254
11
0.436315
21
-0.504584
0
LINE
8
BLACK
6
CONTINUOUS
10
0.436315
20
-0.504584
11
0.437985
21
-0.503892
0
LINE
8
BLACK
6
CONTINUOUS
10
0.437985
20
-0.503892
11
0.458064
21
-0.503892
0
LINE
8
BLACK
6
CONTINUOUS
10
0.458064
20
-0.503892
11
0.458064
21
-0.403892
0
LINE
8
BLACK
6
CONTINUOUS
10
0.458064
20
-0.403892
11
0.337985
21
-0.403892
0
LINE
8
BLACK
6
CONTINUOUS
10
0.337985
20
-0.403892
11
0.336315
21
-0.4032
0
LINE
8
BLACK
6
CONTINUOUS
10
0.336315
20
-0.4032
11
0.335623
21
-0.40153
0
LINE
8
BLACK
6
CONTINUOUS
10
0.335623
20
-0.40153
11
0.336315
21
-0.399859
0
LINE
8
BLACK
6
CONTINUOUS
10
0.336315
20
-0.399859
11
0.337985
21
-0.399167
0
LINE
8
BLACK
6
CONTINUOUS
10
0.337985
20
-0.399167
11
0.460426
21
-0.399167
0
LINE
8
BLACK
6
CONTINUOUS
10
0.738216
20
-0.488485
11
0.740377
21
-0.490647
0
LINE
8
BLACK
6
CONTINUOUS
10
0.740377
20
-0.490647
11
0.741168
21
-0.493599
0
LINE
8
BLACK
6
CONTINUOUS
10
0.741168
20
-0.493599
11
0.741168
21
-0.531845
0
LINE
8
BLACK
6
CONTINUOUS
10
0.741168
20
-0.531845
11
0.740377
21
-0.534797
0
LINE
8
BLACK
6
CONTINUOUS
10
0.740377
20
-0.534797
11
0.738216
21
-0.536959
0
LINE
8
BLACK
6
CONTINUOUS
10
0.738216
20
-0.536959
11
0.735263
21
-0.53775
0
LINE
8
BLACK
6
CONTINUOUS
10
0.735263
20
-0.53775
11
0.73231
21
-0.536959
0
LINE
8
BLACK
6
CONTINUOUS
10
0.73231
20
-0.536959
11
0.730148
21
-0.534797
0
LINE
8
BLACK
6
CONTINUOUS
10
0.730148
20
-0.534797
11
0.729357
21
-0.531845
0
LINE
8
BLACK
6
CONTINUOUS
10
0.729357
20
-0.531845
11
0.729357
21
-0.518627
0
LINE
8
BLACK
6
CONTINUOUS
10
0.729357
20
-0.518627
11
0.668334
21
-0.518627
0
LINE
8
BLACK
6
CONTINUOUS
10
0.668334
20
-0.518627
11
0.667035
21
-0.518279
0
LINE
8
BLACK
6
CONTINUOUS
10
0.667035
20
-0.518279
11
0.665716
21
-0.518016
0
LINE
8
BLACK
6
CONTINUOUS
10
0.665716
20
-0.518016
11
0.665569
21
-0.517887
0
LINE
8
BLACK
6
CONTINUOUS
10
0.665569
20
-0.517887
11
0.665381
21
-0.517836
0
LINE
8
BLACK
6
CONTINUOUS
10
0.665381
20
-0.517836
11
0.66443
21
-0.516885
0
LINE
8
BLACK
6
CONTINUOUS
10
0.66443
20
-0.516885
11
0.66342
21
-0.515998
0
LINE
8
BLACK
6
CONTINUOUS
10
0.66342
20
-0.515998
11
0.663357
21
-0.515813
0
LINE
8
BLACK
6
CONTINUOUS
10
0.663357
20
-0.515813
11
0.663219
21
-0.515675
0
LINE
8
BLACK
6
CONTINUOUS
10
0.663219
20
-0.515675
11
0.662871
21
-0.514376
0
LINE
8
BLACK
6
CONTINUOUS
10
0.662871
20
-0.514376
11
0.66244
21
-0.513102
0
LINE
8
BLACK
6
CONTINUOUS
10
0.66244
20
-0.513102
11
0.662479
21
-0.512911
0
LINE
8
BLACK
6
CONTINUOUS
10
0.662479
20
-0.512911
11
0.662428
21
-0.512722
0
LINE
8
BLACK
6
CONTINUOUS
10
0.662428
20
-0.512722
11
0.662776
21
-0.511423
0
LINE
8
BLACK
6
CONTINUOUS
10
0.662776
20
-0.511423
11
0.66304
21
-0.510104
0
LINE
8
BLACK
6
CONTINUOUS
10
0.66304
20
-0.510104
11
0.663169
21
-0.509958
0
LINE
8
BLACK
6
CONTINUOUS
10
0.663169
20
-0.509958
11
0.663219
21
-0.509769
0
LINE
8
BLACK
6
CONTINUOUS
10
0.663219
20
-0.509769
11
0.66417
21
-0.508818
0
LINE
8
BLACK
6
CONTINUOUS
10
0.66417
20
-0.508818
11
0.665058
21
-0.507808
0
LINE
8
BLACK
6
CONTINUOUS
10
0.665058
20
-0.507808
11
0.674133
21
-0.501759
0
LINE
8
BLACK
6
CONTINUOUS
10
0.674133
20
-0.501759
11
0.679416
21
-0.496475
0
LINE
8
BLACK
6
CONTINUOUS
10
0.679416
20
-0.496475
11
0.682174
21
-0.490958
0
LINE
8
BLACK
6
CONTINUOUS
10
0.682174
20
-0.490958
11
0.684202
21
-0.488671
0
LINE
8
BLACK
6
CONTINUOUS
10
0.684202
20
-0.488671
11
0.687102
21
-0.487704
0
LINE
8
BLACK
6
CONTINUOUS
10
0.687102
20
-0.487704
11
0.690097
21
-0.488317
0
LINE
8
BLACK
6
CONTINUOUS
10
0.690097
20
-0.488317
11
0.692384
21
-0.490345
0
LINE
8
BLACK
6
CONTINUOUS
10
0.692384
20
-0.490345
11
0.693351
21
-0.493246
0
LINE
8
BLACK
6
CONTINUOUS
10
0.693351
20
-0.493246
11
0.692738
21
-0.49624
0
LINE
8
BLACK
6
CONTINUOUS
10
0.692738
20
-0.49624
11
0.689551
21
-0.502615
0
LINE
8
BLACK
6
CONTINUOUS
10
0.689551
20
-0.502615
11
0.68892
21
-0.503326
0
LINE
8
BLACK
6
CONTINUOUS
10
0.68892
20
-0.503326
11
0.688445
21
-0.504149
0
LINE
8
BLACK
6
CONTINUOUS
10
0.688445
20
-0.504149
11
0.685778
21
-0.506816
0
LINE
8
BLACK
6
CONTINUOUS
10
0.685778
20
-0.506816
11
0.729357
21
-0.506816
0
LINE
8
BLACK
6
CONTINUOUS
10
0.729357
20
-0.506816
11
0.729357
21
-0.493599
0
LINE
8
BLACK
6
CONTINUOUS
10
0.729357
20
-0.493599
11
0.730148
21
-0.490647
0
LINE
8
BLACK
6
CONTINUOUS
10
0.730148
20
-0.490647
11
0.73231
21
-0.488485
0
LINE
8
BLACK
6
CONTINUOUS
10
0.73231
20
-0.488485
11
0.735263
21
-0.487694
0
LINE
8
BLACK
6
CONTINUOUS
10
0.735263
20
-0.487694
11
0.738216
21
-0.488485
0
LINE
8
BLACK
6
CONTINUOUS
10
0.279813
20
-0.399859
11
0.280505
21
-0.40153
0
LINE
8
BLACK
6
CONTINUOUS
10
0.280505
20
-0.40153
11
0.279813
21
-0.4032
0
LINE
8
BLACK
6
CONTINUOUS
10
0.279813
20
-0.4032
11
0.278143
21
-0.403892
0
LINE
8
BLACK
6
CONTINUOUS
10
0.278143
20
-0.403892
11
0.158064
21
-0.403892
0
LINE
8
BLACK
6
CONTINUOUS
10
0.158064
20
-0.403892
11
0.158064
21
-0.506254
0
LINE
8
BLACK
6
CONTINUOUS
10
0.158064
20
-0.506254
11
0.157372
21
-0.507924
0
LINE
8
BLACK
6
CONTINUOUS
10
0.157372
20
-0.507924
11
0.155702
21
-0.508616
0
LINE
8
BLACK
6
CONTINUOUS
10
0.155702
20
-0.508616
11
0.154031
21
-0.507924
0
LINE
8
BLACK
6
CONTINUOUS
10
0.154031
20
-0.507924
11
0.153339
21
-0.506254
0
LINE
8
BLACK
6
CONTINUOUS
10
0.153339
20
-0.506254
11
0.153339
21
-0.40153
0
LINE
8
BLACK
6
CONTINUOUS
10
0.153339
20
-0.40153
11
0.154031
21
-0.399859
0
LINE
8
BLACK
6
CONTINUOUS
10
0.154031
20
-0.399859
11
0.155702
21
-0.399167
0
LINE
8
BLACK
6
CONTINUOUS
10
0.155702
20
-0.399167
11
0.278143
21
-0.399167
0
LINE
8
BLACK
6
CONTINUOUS
10
0.278143
20
-0.399167
11
0.279813
21
-0.399859
0
LINE
8
BLACK
6
CONTINUOUS
10
0.379813
20
-0.504584
11
0.380505
21
-0.506254
0
LINE
8
BLACK
6
CONTINUOUS
10
0.380505
20
-0.506254
11
0.379813
21
-0.507924
0
LINE
8
BLACK
6
CONTINUOUS
10
0.379813
20
-0.507924
11
0.378143
21
-0.508616
0
LINE
8
BLACK
6
CONTINUOUS
10
0.378143
20
-0.508616
11
0.237985
21
-0.508616
0
LINE
8
BLACK
6
CONTINUOUS
10
0.237985
20
-0.508616
11
0.236315
21
-0.507924
0
LINE
8
BLACK
6
CONTINUOUS
10
0.236315
20
-0.507924
11
0.235623
21
-0.506254
0
LINE
8
BLACK
6
CONTINUOUS
10
0.235623
20
-0.506254
11
0.236315
21
-0.504584
0
LINE
8
BLACK
6
CONTINUOUS
10
0.236315
20
-0.504584
11
0.237985
21
-0.503892
0
LINE
8
BLACK
6
CONTINUOUS
10
0.237985
20
-0.503892
11
0.378143
21
-0.503892
0
LINE
8
BLACK
6
CONTINUOUS
10
0.378143
20
-0.503892
11
0.379813
21
-0.504584
0
LINE
8
BLACK
6
CONTINUOUS
10
0.49134
20
-0.45527
11
0.492453
21
-0.456955
0
LINE
8
BLACK
6
CONTINUOUS
10
0.492453
20
-0.456955
11
0.492222
21
-0.458962
0
LINE
8
BLACK
6
CONTINUOUS
10
0.492222
20
-0.458962
11
0.490347
21
-0.462711
0
LINE
8
BLACK
6
CONTINUOUS
10
0.490347
20
-0.462711
11
0.489821
21
-0.463421
0
LINE
8
BLACK
6
CONTINUOUS
10
0.489821
20
-0.463421
11
0.489794
21
-0.463479
0
LINE
8
BLACK
6
CONTINUOUS
10
0.489794
20
-0.463479
11
0.487336
21
-0.465937
0
LINE
8
BLACK
6
CONTINUOUS
10
0.487336
20
-0.465937
11
0.51475
21
-0.465937
0
LINE
8
BLACK
6
CONTINUOUS
10
0.51475
20
-0.465937
11
0.51475
21
-0.457641
0
LINE
8
BLACK
6
CONTINUOUS
10
0.51475
20
-0.457641
11
0.514928
21
-0.456631
0
LINE
8
BLACK
6
CONTINUOUS
10
0.514928
20
-0.456631
11
0.516226
21
-0.455084
0
LINE
8
BLACK
6
CONTINUOUS
10
0.516226
20
-0.455084
11
0.518215
21
-0.454734
0
LINE
8
BLACK
6
CONTINUOUS
10
0.518215
20
-0.454734
11
0.519964
21
-0.455743
0
LINE
8
BLACK
6
CONTINUOUS
10
0.519964
20
-0.455743
11
0.520655
21
-0.457641
0
LINE
8
BLACK
6
CONTINUOUS
10
0.520655
20
-0.457641
11
0.520655
21
-0.480139
0
LINE
8
BLACK
6
CONTINUOUS
10
0.520655
20
-0.480139
11
0.520477
21
-0.481149
0
LINE
8
BLACK
6
CONTINUOUS
10
0.520477
20
-0.481149
11
0.519179
21
-0.482696
0
LINE
8
BLACK
6
CONTINUOUS
10
0.519179
20
-0.482696
11
0.51719
21
-0.483046
0
LINE
8
BLACK
6
CONTINUOUS
10
0.51719
20
-0.483046
11
0.51544
21
-0.482037
0
LINE
8
BLACK
6
CONTINUOUS
10
0.51544
20
-0.482037
11
0.51475
21
-0.480139
0
LINE
8
BLACK
6
CONTINUOUS
10
0.51475
20
-0.480139
11
0.51475
21
-0.471843
0
LINE
8
BLACK
6
CONTINUOUS
10
0.51475
20
-0.471843
11
0.478332
21
-0.471843
0
LINE
8
BLACK
6
CONTINUOUS
10
0.478332
20
-0.471843
11
0.477322
21
-0.471665
0
LINE
8
BLACK
6
CONTINUOUS
10
0.477322
20
-0.471665
11
0.477192
21
-0.471556
0
LINE
8
BLACK
6
CONTINUOUS
10
0.477192
20
-0.471556
11
0.477024
21
-0.471537
0
LINE
8
BLACK
6
CONTINUOUS
10
0.477024
20
-0.471537
11
0.476432
21
-0.470917
0
LINE
8
BLACK
6
CONTINUOUS
10
0.476432
20
-0.470917
11
0.475775
21
-0.470366
0
LINE
8
BLACK
6
CONTINUOUS
10
0.475775
20
-0.470366
11
0.475746
21
-0.470199
0
LINE
8
BLACK
6
CONTINUOUS
10
0.475746
20
-0.470199
11
0.475628
21
-0.470076
0
LINE
8
BLACK
6
CONTINUOUS
10
0.475628
20
-0.470076
11
0.475573
21
-0.469221
0
LINE
8
BLACK
6
CONTINUOUS
10
0.475573
20
-0.469221
11
0.475424
21
-0.468377
0
LINE
8
BLACK
6
CONTINUOUS
10
0.475424
20
-0.468377
11
0.475509
21
-0.46823
0
LINE
8
BLACK
6
CONTINUOUS
10
0.475509
20
-0.46823
11
0.475498
21
-0.468061
0
LINE
8
BLACK
6
CONTINUOUS
10
0.475498
20
-0.468061
11
0.476006
21
-0.46737
0
LINE
8
BLACK
6
CONTINUOUS
10
0.476006
20
-0.46737
11
0.476434
21
-0.466628
0
LINE
8
BLACK
6
CONTINUOUS
10
0.476434
20
-0.466628
11
0.476594
21
-0.46657
0
LINE
8
BLACK
6
CONTINUOUS
10
0.476594
20
-0.46657
11
0.476694
21
-0.466433
0
LINE
8
BLACK
6
CONTINUOUS
10
0.476694
20
-0.466433
11
0.482075
21
-0.462846
0
LINE
8
BLACK
6
CONTINUOUS
10
0.482075
20
-0.462846
11
0.485279
21
-0.459642
0
LINE
8
BLACK
6
CONTINUOUS
10
0.485279
20
-0.459642
11
0.48694
21
-0.456321
0
LINE
8
BLACK
6
CONTINUOUS
10
0.48694
20
-0.456321
11
0.487551
21
-0.455497
0
LINE
8
BLACK
6
CONTINUOUS
10
0.487551
20
-0.455497
11
0.489404
21
-0.454694
0
LINE
8
BLACK
6
CONTINUOUS
10
0.489404
20
-0.454694
11
0.49134
21
-0.45527
0
LINE
8
BLACK
6
CONTINUOUS
10
0.71047
20
-0.42414
11
0.711198
21
-0.424128
0
LINE
8
BLACK
6
CONTINUOUS
10
0.711198
20
-0.424128
11
0.723947
21
-0.427315
0
LINE
8
BLACK
6
CONTINUOUS
10
0.723947
20
-0.427315
11
0.724517
21
-0.427632
0
LINE
8
BLACK
6
CONTINUOUS
10
0.724517
20
-0.427632
11
0.725155
21
-0.427762
0
LINE
8
BLACK
6
CONTINUOUS
10
0.725155
20
-0.427762
11
0.73153
21
-0.430949
0
LINE
8
BLACK
6
CONTINUOUS
10
0.73153
20
-0.430949
11
0.732241
21
-0.43158
0
LINE
8
BLACK
6
CONTINUOUS
10
0.732241
20
-0.43158
11
0.733064
21
-0.432056
0
LINE
8
BLACK
6
CONTINUOUS
10
0.733064
20
-0.432056
11
0.736251
21
-0.435243
0
LINE
8
BLACK
6
CONTINUOUS
10
0.736251
20
-0.435243
11
0.736727
21
-0.436066
0
LINE
8
BLACK
6
CONTINUOUS
10
0.736727
20
-0.436066
11
0.737358
21
-0.436778
0
LINE
8
BLACK
6
CONTINUOUS
10
0.737358
20
-0.436778
11
0.740545
21
-0.443152
0
LINE
8
BLACK
6
CONTINUOUS
10
0.740545
20
-0.443152
11
0.740817
21
-0.444482
0
LINE
8
BLACK
6
CONTINUOUS
10
0.740817
20
-0.444482
11
0.741168
21
-0.445793
0
LINE
8
BLACK
6
CONTINUOUS
10
0.741168
20
-0.445793
11
0.741168
21
-0.452167
0
LINE
8
BLACK
6
CONTINUOUS
10
0.741168
20
-0.452167
11
0.740817
21
-0.453478
0
LINE
8
BLACK
6
CONTINUOUS
10
0.740817
20
-0.453478
11
0.740545
21
-0.454808
0
LINE
8
BLACK
6
CONTINUOUS
10
0.740545
20
-0.454808
11
0.737358
21
-0.461182
0
LINE
8
BLACK
6
CONTINUOUS
10
0.737358
20
-0.461182
11
0.736727
21
-0.461894
0
LINE
8
BLACK
6
CONTINUOUS
10
0.736727
20
-0.461894
11
0.736251
21
-0.462717
0
LINE
8
BLACK
6
CONTINUOUS
10
0.736251
20
-0.462717
11
0.733064
21
-0.465904
0
LINE
8
BLACK
6
CONTINUOUS
10
0.733064
20
-0.465904
11
0.732241
21
-0.46638
0
LINE
8
BLACK
6
CONTINUOUS
10
0.732241
20
-0.46638
11
0.73153
21
-0.46701
0
LINE
8
BLACK
6
CONTINUOUS
10
0.73153
20
-0.46701
11
0.725155
21
-0.470197
0
LINE
8
BLACK
6
CONTINUOUS
10
0.725155
20
-0.470197
11
0.724517
21
-0.470328
0
LINE
8
BLACK
6
CONTINUOUS
10
0.724517
20
-0.470328
11
0.723947
21
-0.470645
0
LINE
8
BLACK
6
CONTINUOUS
10
0.723947
20
-0.470645
11
0.711198
21
-0.473832
0
LINE
8
BLACK
6
CONTINUOUS
10
0.711198
20
-0.473832
11
0.71047
21
-0.473819
0
LINE
8
BLACK
6
CONTINUOUS
10
0.71047
20
-0.473819
11
0.709766
21
-0.474008
0
LINE
8
BLACK
6
CONTINUOUS
10
0.709766
20
-0.474008
11
0.69383
21
-0.474008
0
LINE
8
BLACK
6
CONTINUOUS
10
0.69383
20
-0.474008
11
0.693127
21
-0.473819
0
LINE
8
BLACK
6
CONTINUOUS
10
0.693127
20
-0.473819
11
0.692398
21
-0.473832
0
LINE
8
BLACK
6
CONTINUOUS
10
0.692398
20
-0.473832
11
0.67965
21
-0.470645
0
LINE
8
BLACK
6
CONTINUOUS
10
0.67965
20
-0.470645
11
0.67908
21
-0.470328
0
LINE
8
BLACK
6
CONTINUOUS
10
0.67908
20
-0.470328
11
0.678441
21
-0.470197
0
LINE
8
BLACK
6
CONTINUOUS
10
0.678441
20
-0.470197
11
0.672067
21
-0.46701
0
LINE
8
BLACK
6
CONTINUOUS
10
0.672067
20
-0.46701
11
0.671355
21
-0.46638
0
LINE
8
BLACK
6
CONTINUOUS
10
0.671355
20
-0.46638
11
0.670532
21
-0.465904
0
LINE
8
BLACK
6
CONTINUOUS
10
0.670532
20
-0.465904
11
0.667345
21
-0.462717
0
LINE
8
BLACK
6
CONTINUOUS
10
0.667345
20
-0.462717
11
0.666869
21
-0.461894
0
LINE
8
BLACK
6
CONTINUOUS
10
0.666869
20
-0.461894
11
0.666239
21
-0.461182
0
LINE
8
BLACK
6
CONTINUOUS
10
0.666239
20
-0.461182
11
0.663052
21
-0.454808
0
LINE
8
BLACK
6
CONTINUOUS
10
0.663052
20
-0.454808
11
0.662779
21
-0.453478
0
LINE
8
BLACK
6
CONTINUOUS
10
0.662779
20
-0.453478
11
0.662428
21
-0.452167
0
LINE
8
BLACK
6
CONTINUOUS
10
0.662428
20
-0.452167
11
0.662428
21
-0.445793
0
LINE
8
BLACK
6
CONTINUOUS
10
0.662428
20
-0.445793
11
0.662779
21
-0.444482
0
LINE
8
BLACK
6
CONTINUOUS
10
0.662779
20
-0.444482
11
0.663052
21
-0.443152
0
LINE
8
BLACK
6
CONTINUOUS
10
0.663052
20
-0.443152
11
0.666239
21
-0.436778
0
LINE
8
BLACK
6
CONTINUOUS
10
0.666239
20
-0.436778
11
0.666869
21
-0.436066
0
LINE
8
BLACK
6
CONTINUOUS
10
0.666869
20
-0.436066
11
0.667345
21
-0.435243
0
LINE
8
BLACK
6
CONTINUOUS
10
0.667345
20
-0.435243
11
0.670532
21
-0.432056
0
LINE
8
BLACK
6
CONTINUOUS
10
0.670532
20
-0.432056
11
0.671355
21
-0.43158
0
LINE
8
BLACK
6
CONTINUOUS
10
0.671355
20
-0.43158
11
0.672067
21
-0.430949
0
LINE
8
BLACK
6
CONTINUOUS
10
0.672067
20
-0.430949
11
0.678441
21
-0.427762
0
LINE
8
BLACK
6
CONTINUOUS
10
0.678441
20
-0.427762
11
0.67908
21
-0.427632
0
LINE
8
BLACK
6
CONTINUOUS
10
0.67908
20
-0.427632
11
0.67965
21
-0.427315
0
LINE
8
BLACK
6
CONTINUOUS
10
0.67965
20
-0.427315
11
0.692398
21
-0.424128
0
LINE
8
BLACK
6
CONTINUOUS
10
0.692398
20
-0.424128
11
0.693127
21
-0.42414
0
LINE
8
BLACK
6
CONTINUOUS
10
0.693127
20
-0.42414
11
0.69383
21
-0.423952
0
LINE
8
BLACK
6
CONTINUOUS
10
0.69383
20
-0.423952
11
0.709766
21
-0.423952
0
LINE
8
BLACK
6
CONTINUOUS
10
0.709766
20
-0.423952
11
0.71047
21
-0.42414
0
LINE
8
BLACK
6
CONTINUOUS
10
0.683143
20
-0.438616
11
0.678206
21
-0.441085
0
LINE
8
BLACK
6
CONTINUOUS
10
0.678206
20
-0.441085
11
0.676374
21
-0.442917
0
LINE
8
BLACK
6
CONTINUOUS
10
0.676374
20
-0.442917
11
0.674239
21
-0.447187
0
LINE
8
BLACK
6
CONTINUOUS
10
0.674239
20
-0.447187
11
0.674239
21
-0.450773
0
LINE
8
BLACK
6
CONTINUOUS
10
0.674239
20
-0.450773
11
0.676374
21
-0.455043
0
LINE
8
BLACK
6
CONTINUOUS
10
0.676374
20
-0.455043
11
0.678206
21
-0.456875
0
LINE
8
BLACK
6
CONTINUOUS
10
0.678206
20
-0.456875
11
0.683143
21
-0.459343
0
LINE
8
BLACK
6
CONTINUOUS
10
0.683143
20
-0.459343
11
0.694557
21
-0.462197
0
LINE
8
BLACK
6
CONTINUOUS
10
0.694557
20
-0.462197
11
0.709039
21
-0.462197
0
LINE
8
BLACK
6
CONTINUOUS
10
0.709039
20
-0.462197
11
0.720453
21
-0.459343
0
LINE
8
BLACK
6
CONTINUOUS
10
0.720453
20
-0.459343
11
0.72539
21
-0.456875
0
LINE
8
BLACK
6
CONTINUOUS
10
0.72539
20
-0.456875
11
0.727222
21
-0.455043
0
LINE
8
BLACK
6
CONTINUOUS
10
0.727222
20
-0.455043
11
0.729357
21
-0.450773
0
LINE
8
BLACK
6
CONTINUOUS
10
0.729357
20
-0.450773
11
0.729357
21
-0.447187
0
LINE
8
BLACK
6
CONTINUOUS
10
0.729357
20
-0.447187
11
0.727222
21
-0.442917
0
LINE
8
BLACK
6
CONTINUOUS
10
0.727222
20
-0.442917
11
0.72539
21
-0.441085
0
LINE
8
BLACK
6
CONTINUOUS
10
0.72539
20
-0.441085
11
0.720453
21
-0.438616
0
LINE
8
BLACK
6
CONTINUOUS
10
0.720453
20
-0.438616
11
0.709039
21
-0.435763
0
LINE
8
BLACK
6
CONTINUOUS
10
0.709039
20
-0.435763
11
0.694557
21
-0.435763
0
LINE
8
BLACK
6
CONTINUOUS
10
0.694557
20
-0.435763
11
0.683143
21
-0.438616
0
LINE
8
BLACK
6
CONTINUOUS
10
0.519964
20
-0.423872
11
0.520655
21
-0.42577
0
LINE
8
BLACK
6
CONTINUOUS
10
0.520655
20
-0.42577
11
0.520655
21
-0.42952
0
LINE
8
BLACK
6
CONTINUOUS
10
0.520655
20
-0.42952
11
0.520502
21
-0.430389
0
LINE
8
BLACK
6
CONTINUOUS
10
0.520502
20
-0.430389
11
0.520504
21
-0.430454
0
LINE
8
BLACK
6
CONTINUOUS
10
0.520504
20
-0.430454
11
0.518629
21
-0.436078
0
LINE
8
BLACK
6
CONTINUOUS
10
0.518629
20
-0.436078
11
0.518141
21
-0.43698
0
LINE
8
BLACK
6
CONTINUOUS
10
0.518141
20
-0.43698
11
0.51799
21
-0.437072
0
LINE
8
BLACK
6
CONTINUOUS
10
0.51799
20
-0.437072
11
0.517916
21
-0.437232
0
LINE
8
BLACK
6
CONTINUOUS
10
0.517916
20
-0.437232
11
0.514166
21
-0.440982
0
LINE
8
BLACK
6
CONTINUOUS
10
0.514166
20
-0.440982
11
0.513326
21
-0.44157
0
LINE
8
BLACK
6
CONTINUOUS
10
0.513326
20
-0.44157
11
0.51315
21
-0.441585
0
LINE
8
BLACK
6
CONTINUOUS
10
0.51315
20
-0.441585
11
0.513012
21
-0.441695
0
LINE
8
BLACK
6
CONTINUOUS
10
0.513012
20
-0.441695
11
0.507387
21
-0.44357
0
LINE
8
BLACK
6
CONTINUOUS
10
0.507387
20
-0.44357
11
0.506514
21
-0.443699
0
LINE
8
BLACK
6
CONTINUOUS
10
0.506514
20
-0.443699
11
0.506454
21
-0.443721
0
LINE
8
BLACK
6
CONTINUOUS
10
0.506454
20
-0.443721
11
0.478332
21
-0.443721
0
LINE
8
BLACK
6
CONTINUOUS
10
0.478332
20
-0.443721
11
0.477322
21
-0.443543
0
LINE
8
BLACK
6
CONTINUOUS
10
0.477322
20
-0.443543
11
0.475775
21
-0.442245
0
LINE
8
BLACK
6
CONTINUOUS
10
0.475775
20
-0.442245
11
0.475424
21
-0.440256
0
LINE
8
BLACK
6
CONTINUOUS
10
0.475424
20
-0.440256
11
0.476434
21
-0.438507
0
LINE
8
BLACK
6
CONTINUOUS
10
0.476434
20
-0.438507
11
0.478332
21
-0.437816
0
LINE
8
BLACK
6
CONTINUOUS
10
0.478332
20
-0.437816
11
0.505975
21
-0.437816
0
LINE
8
BLACK
6
CONTINUOUS
10
0.505975
20
-0.437816
11
0.510483
21
-0.436313
0
LINE
8
BLACK
6
CONTINUOUS
10
0.510483
20
-0.436313
11
0.513247
21
-0.433549
0
LINE
8
BLACK
6
CONTINUOUS
10
0.513247
20
-0.433549
11
0.51475
21
-0.429041
0
LINE
8
BLACK
6
CONTINUOUS
10
0.51475
20
-0.429041
11
0.51475
21
-0.42577
0
LINE
8
BLACK
6
CONTINUOUS
10
0.51475
20
-0.42577
11
0.514928
21
-0.42476
0
LINE
8
BLACK
6
CONTINUOUS
10
0.514928
20
-0.42476
11
0.516226
21
-0.423213
0
LINE
8
BLACK
6
CONTINUOUS
10
0.516226
20
-0.423213
11
0.518215
21
-0.422862
0
LINE
8
BLACK
6
CONTINUOUS
10
0.518215
20
-0.422862
11
0.519964
21
-0.423872
0
LINE
8
BLACK
6
CONTINUOUS
10
0.738216
20
-0.361001
11
0.740377
21
-0.363163
0
LINE
8
BLACK
6
CONTINUOUS
10
0.740377
20
-0.363163
11
0.741168
21
-0.366115
0
LINE
8
BLACK
6
CONTINUOUS
10
0.741168
20
-0.366115
11
0.740377
21
-0.369068
0
LINE
8
BLACK
6
CONTINUOUS
10
0.740377
20
-0.369068
11
0.738216
21
-0.37123
0
LINE
8
BLACK
6
CONTINUOUS
10
0.738216
20
-0.37123
11
0.735263
21
-0.372021
0
LINE
8
BLACK
6
CONTINUOUS
10
0.735263
20
-0.372021
11
0.709297
21
-0.372021
0
LINE
8
BLACK
6
CONTINUOUS
10
0.709297
20
-0.372021
11
0.709297
21
-0.378976
0
LINE
8
BLACK
6
CONTINUOUS
10
0.709297
20
-0.378976
11
0.738649
21
-0.399523
0
LINE
8
BLACK
6
CONTINUOUS
10
0.738649
20
-0.399523
11
0.740615
21
-0.401864
0
LINE
8
BLACK
6
CONTINUOUS
10
0.740615
20
-0.401864
11
0.741146
21
-0.404874
0
LINE
8
BLACK
6
CONTINUOUS
10
0.741146
20
-0.404874
11
0.740101
21
-0.407747
0
LINE
8
BLACK
6
CONTINUOUS
10
0.740101
20
-0.407747
11
0.737759
21
-0.409712
0
LINE
8
BLACK
6
CONTINUOUS
10
0.737759
20
-0.409712
11
0.734749
21
-0.410244
0
LINE
8
BLACK
6
CONTINUOUS
10
0.734749
20
-0.410244
11
0.731876
21
-0.409199
0
LINE
8
BLACK
6
CONTINUOUS
10
0.731876
20
-0.409199
11
0.708906
21
-0.393119
0
LINE
8
BLACK
6
CONTINUOUS
10
0.708906
20
-0.393119
11
0.708674
21
-0.394253
0
LINE
8
BLACK
6
CONTINUOUS
10
0.708674
20
-0.394253
11
0.705487
21
-0.400627
0
LINE
8
BLACK
6
CONTINUOUS
10
0.705487
20
-0.400627
11
0.704856
21
-0.401339
0
LINE
8
BLACK
6
CONTINUOUS
10
0.704856
20
-0.401339
11
0.70438
21
-0.402162
0
LINE
8
BLACK
6
CONTINUOUS
10
0.70438
20
-0.402162
11
0.701193
21
-0.405349
0
LINE
8
BLACK
6
CONTINUOUS
10
0.701193
20
-0.405349
11
0.70037
21
-0.405825
0
LINE
8
BLACK
6
CONTINUOUS
10
0.70037
20
-0.405825
11
0.699659
21
-0.406455
0
LINE
8
BLACK
6
CONTINUOUS
10
0.699659
20
-0.406455
11
0.693284
21
-0.409643
0
LINE
8
BLACK
6
CONTINUOUS
10
0.693284
20
-0.409643
11
0.691954
21
-0.409915
0
LINE
8
BLACK
6
CONTINUOUS
10
0.691954
20
-0.409915
11
0.690643
21
-0.410266
0
LINE
8
BLACK
6
CONTINUOUS
10
0.690643
20
-0.410266
11
0.681082
21
-0.410266
0
LINE
8
BLACK
6
CONTINUOUS
10
0.681082
20
-0.410266
11
0.679771
21
-0.409915
0
LINE
8
BLACK
6
CONTINUOUS
10
0.679771
20
-0.409915
11
0.678441
21
-0.409643
0
LINE
8
BLACK
6
CONTINUOUS
10
0.678441
20
-0.409643
11
0.672067
21
-0.406455
0
LINE
8
BLACK
6
CONTINUOUS
10
0.672067
20
-0.406455
11
0.671355
21
-0.405825
0
LINE
8
BLACK
6
CONTINUOUS
10
0.671355
20
-0.405825
11
0.670532
21
-0.405349
0
LINE
8
BLACK
6
CONTINUOUS
10
0.670532
20
-0.405349
11
0.667345
21
-0.402162
0
LINE
8
BLACK
6
CONTINUOUS
10
0.667345
20
-0.402162
11
0.666869
21
-0.401339
0
LINE
8
BLACK
6
CONTINUOUS
10
0.666869
20
-0.401339
11
0.666239
21
-0.400627
0
LINE
8
BLACK
6
CONTINUOUS
10
0.666239
20
-0.400627
11
0.663052
21
-0.394253
0
LINE
8
BLACK
6
CONTINUOUS
10
0.663052
20
-0.394253
11
0.662779
21
-0.392923
0
LINE
8
BLACK
6
CONTINUOUS
10
0.662779
20
-0.392923
11
0.662428
21
-0.391612
0
LINE
8
BLACK
6
CONTINUOUS
10
0.662428
20
-0.391612
11
0.662428
21
-0.366115
0
LINE
8
BLACK
6
CONTINUOUS
10
0.662428
20
-0.366115
11
0.663219
21
-0.363163
0
LINE
8
BLACK
6
CONTINUOUS
10
0.663219
20
-0.363163
11
0.665381
21
-0.361001
0
LINE
8
BLACK
6
CONTINUOUS
10
0.665381
20
-0.361001
11
0.668334
21
-0.36021
0
LINE
8
BLACK
6
CONTINUOUS
10
0.668334
20
-0.36021
11
0.735263
21
-0.36021
0
LINE
8
BLACK
6
CONTINUOUS
10
0.735263
20
-0.36021
11
0.738216
21
-0.361001
0
LINE
8
BLACK
6
CONTINUOUS
10
0.674239
20
-0.390218
11
0.676374
21
-0.394488
0
LINE
8
BLACK
6
CONTINUOUS
10
0.676374
20
-0.394488
11
0.678206
21
-0.39632
0
LINE
8
BLACK
6
CONTINUOUS
10
0.678206
20
-0.39632
11
0.682476
21
-0.398455
0
LINE
8
BLACK
6
CONTINUOUS
10
0.682476
20
-0.398455
11
0.689249
21
-0.398455
0
LINE
8
BLACK
6
CONTINUOUS
10
0.689249
20
-0.398455
11
0.693519
21
-0.39632
0
LINE
8
BLACK
6
CONTINUOUS
10
0.693519
20
-0.39632
11
0.695351
21
-0.394488
0
LINE
8
BLACK
6
CONTINUOUS
10
0.695351
20
-0.394488
11
0.697486
21
-0.390218
0
LINE
8
BLACK
6
CONTINUOUS
10
0.697486
20
-0.390218
11
0.697486
21
-0.372021
0
LINE
8
BLACK
6
CONTINUOUS
10
0.697486
20
-0.372021
11
0.674239
21
-0.372021
0
LINE
8
BLACK
6
CONTINUOUS
10
0.674239
20
-0.372021
11
0.674239
21
-0.390218
0
LINE
8
BLACK
6
CONTINUOUS
10
0.738216
20
-0.300446
11
0.740377
21
-0.302608
0
LINE
8
BLACK
6
CONTINUOUS
10
0.740377
20
-0.302608
11
0.741168
21
-0.30556
0
LINE
8
BLACK
6
CONTINUOUS
10
0.741168
20
-0.30556
11
0.741168
21
-0.337431
0
LINE
8
BLACK
6
CONTINUOUS
10
0.741168
20
-0.337431
11
0.740377
21
-0.340384
0
LINE
8
BLACK
6
CONTINUOUS
10
0.740377
20
-0.340384
11
0.738216
21
-0.342546
0
LINE
8
BLACK
6
CONTINUOUS
10
0.738216
20
-0.342546
11
0.735263
21
-0.343337
0
LINE
8
BLACK
6
CONTINUOUS
10
0.735263
20
-0.343337
11
0.73231
21
-0.342546
0
LINE
8
BLACK
6
CONTINUOUS
10
0.73231
20
-0.342546
11
0.730148
21
-0.340384
0
LINE
8
BLACK
6
CONTINUOUS
10
0.730148
20
-0.340384
11
0.729357
21
-0.337431
0
LINE
8
BLACK
6
CONTINUOUS
10
0.729357
20
-0.337431
11
0.729357
21
-0.311466
0
LINE
8
BLACK
6
CONTINUOUS
10
0.729357
20
-0.311466
11
0.70611
21
-0.311466
0
LINE
8
BLACK
6
CONTINUOUS
10
0.70611
20
-0.311466
11
0.70611
21
-0.32787
0
LINE
8
BLACK
6
CONTINUOUS
10
0.70611
20
-0.32787
11
0.705319
21
-0.330823
0
LINE
8
BLACK
6
CONTINUOUS
10
0.705319
20
-0.330823
11
0.703157
21
-0.332984
0
LINE
8
BLACK
6
CONTINUOUS
10
0.703157
20
-0.332984
11
0.700205
21
-0.333776
0
LINE
8
BLACK
6
CONTINUOUS
10
0.700205
20
-0.333776
11
0.697252
21
-0.332984
0
LINE
8
BLACK
6
CONTINUOUS
10
0.697252
20
-0.332984
11
0.69509
21
-0.330823
0
LINE
8
BLACK
6
CONTINUOUS
10
0.69509
20
-0.330823
11
0.694299
21
-0.32787
0
LINE
8
BLACK
6
CONTINUOUS
10
0.694299
20
-0.32787
11
0.694299
21
-0.311466
0
LINE
8
BLACK
6
CONTINUOUS
10
0.694299
20
-0.311466
11
0.674239
21
-0.311466
0
LINE
8
BLACK
6
CONTINUOUS
10
0.674239
20
-0.311466
11
0.674239
21
-0.337431
0
LINE
8
BLACK
6
CONTINUOUS
10
0.674239
20
-0.337431
11
0.673448
21
-0.340384
0
LINE
8
BLACK
6
CONTINUOUS
10
0.673448
20
-0.340384
11
0.671286
21
-0.342546
0
LINE
8
BLACK
6
CONTINUOUS
10
0.671286
20
-0.342546
11
0.668334
21
-0.343337
0
LINE
8
BLACK
6
CONTINUOUS
10
0.668334
20
-0.343337
11
0.665381
21
-0.342546
0
LINE
8
BLACK
6
CONTINUOUS
10
0.665381
20
-0.342546
11
0.663219
21
-0.340384
0
LINE
8
BLACK
6
CONTINUOUS
10
0.663219
20
-0.340384
11
0.662428
21
-0.337431
0
LINE
8
BLACK
6
CONTINUOUS
10
0.662428
20
-0.337431
11
0.662428
21
-0.30556
0
LINE
8
BLACK
6
CONTINUOUS
10
0.662428
20
-0.30556
11
0.663219
21
-0.302608
0
LINE
8
BLACK
6
CONTINUOUS
10
0.663219
20
-0.302608
11
0.665381
21
-0.300446
0
LINE
8
BLACK
6
CONTINUOUS
10
0.665381
20
-0.300446
11
0.668334
21
-0.299655
0
LINE
8
BLACK
6
CONTINUOUS
10
0.668334
20
-0.299655
11
0.735263
21
-0.299655
0
LINE
8
BLACK
6
CONTINUOUS
10
0.735263
20
-0.299655
11
0.738216
21
-0.300446
0
LINE
8
BLACK
6
CONTINUOUS
10
0.738216
20
-0.233517
11
0.740377
21
-0.235678
0
LINE
8
BLACK
6
CONTINUOUS
10
0.740377
20
-0.235678
11
0.741168
21
-0.238631
0
LINE
8
BLACK
6
CONTINUOUS
10
0.741168
20
-0.238631
11
0.741168
21
-0.254567
0
LINE
8
BLACK
6
CONTINUOUS
10
0.741168
20
-0.254567
11
0.740922
21
-0.255485
0
LINE
8
BLACK
6
CONTINUOUS
10
0.740922
20
-0.255485
11
0.740865
21
-0.256434
0
LINE
8
BLACK
6
CONTINUOUS
10
0.740865
20
-0.256434
11
0.737678
21
-0.265996
0
LINE
8
BLACK
6
CONTINUOUS
10
0.737678
20
-0.265996
11
0.73693
21
-0.267128
0
LINE
8
BLACK
6
CONTINUOUS
10
0.73693
20
-0.267128
11
0.736251
21
-0.268304
0
LINE
8
BLACK
6
CONTINUOUS
10
0.736251
20
-0.268304
11
0.729877
21
-0.274678
0
LINE
8
BLACK
6
CONTINUOUS
10
0.729877
20
-0.274678
11
0.729054
21
-0.275153
0
LINE
8
BLACK
6
CONTINUOUS
10
0.729054
20
-0.275153
11
0.728343
21
-0.275784
0
LINE
8
BLACK
6
CONTINUOUS
10
0.728343
20
-0.275784
11
0.721968
21
-0.278971
0
LINE
8
BLACK
6
CONTINUOUS
10
0.721968
20
-0.278971
11
0.72133
21
-0.279102
0
LINE
8
BLACK
6
CONTINUOUS
10
0.72133
20
-0.279102
11
0.72076
21
-0.279419
0
LINE
8
BLACK
6
CONTINUOUS
10
0.72076
20
-0.279419
11
0.708011
21
-0.282606
0
LINE
8
BLACK
6
CONTINUOUS
10
0.708011
20
-0.282606
11
0.707283
21
-0.282593
0
LINE
8
BLACK
6
CONTINUOUS
10
0.707283
20
-0.282593
11
0.706579
21
-0.282782
0
LINE
8
BLACK
6
CONTINUOUS
10
0.706579
20
-0.282782
11
0.697018
21
-0.282782
0
LINE
8
BLACK
6
CONTINUOUS
10
0.697018
20
-0.282782
11
0.696314
21
-0.282593
0
LINE
8
BLACK
6
CONTINUOUS
10
0.696314
20
-0.282593
11
0.695585
21
-0.282606
0
LINE
8
BLACK
6
CONTINUOUS
10
0.695585
20
-0.282606
11
0.682837
21
-0.279419
0
LINE
8
BLACK
6
CONTINUOUS
10
0.682837
20
-0.279419
11
0.682267
21
-0.279102
0
LINE
8
BLACK
6
CONTINUOUS
10
0.682267
20
-0.279102
11
0.681628
21
-0.278971
0
LINE
8
BLACK
6
CONTINUOUS
10
0.681628
20
-0.278971
11
0.675254
21
-0.275784
0
LINE
8
BLACK
6
CONTINUOUS
10
0.675254
20
-0.275784
11
0.674543
21
-0.275153
0
LINE
8
BLACK
6
CONTINUOUS
10
0.674543
20
-0.275153
11
0.673719
21
-0.274678
0
LINE
8
BLACK
6
CONTINUOUS
10
0.673719
20
-0.274678
11
0.667345
21
-0.268304
0
LINE
8
BLACK
6
CONTINUOUS
10
0.667345
20
-0.268304
11
0.666666
21
-0.267128
0
LINE
8
BLACK
6
CONTINUOUS
10
0.666666
20
-0.267128
11
0.665918
21
-0.265996
0
LINE
8
BLACK
6
CONTINUOUS
10
0.665918
20
-0.265996
11
0.662731
21
-0.256434
0
LINE
8
BLACK
6
CONTINUOUS
10
0.662731
20
-0.256434
11
0.662674
21
-0.255485
0
LINE
8
BLACK
6
CONTINUOUS
10
0.662674
20
-0.255485
11
0.662428
21
-0.254567
0
LINE
8
BLACK
6
CONTINUOUS
10
0.662428
20
-0.254567
11
0.662428
21
-0.238631
0
LINE
8
BLACK
6
CONTINUOUS
10
0.662428
20
-0.238631
11
0.663219
21
-0.235678
0
LINE
8
BLACK
6
CONTINUOUS
10
0.663219
20
-0.235678
11
0.665381
21
-0.233517
0
LINE
8
BLACK
6
CONTINUOUS
10
0.665381
20
-0.233517
11
0.668334
21
-0.232726
0
LINE
8
BLACK
6
CONTINUOUS
10
0.668334
20
-0.232726
11
0.735263
21
-0.232726
0
LINE
8
BLACK
6
CONTINUOUS
10
0.735263
20
-0.232726
11
0.738216
21
-0.233517
0
LINE
8
BLACK
6
CONTINUOUS
10
0.674239
20
-0.253608
11
0.676682
21
-0.260938
0
LINE
8
BLACK
6
CONTINUOUS
10
0.676682
20
-0.260938
11
0.681393
21
-0.265649
0
LINE
8
BLACK
6
CONTINUOUS
10
0.681393
20
-0.265649
11
0.68633
21
-0.268117
0
LINE
8
BLACK
6
CONTINUOUS
10
0.68633
20
-0.268117
11
0.697744
21
-0.270971
0
LINE
8
BLACK
6
CONTINUOUS
10
0.697744
20
-0.270971
11
0.705852
21
-0.270971
0
LINE
8
BLACK
6
CONTINUOUS
10
0.705852
20
-0.270971
11
0.717266
21
-0.268117
0
LINE
8
BLACK
6
CONTINUOUS
10
0.717266
20
-0.268117
11
0.722203
21
-0.265649
0
LINE
8
BLACK
6
CONTINUOUS
10
0.722203
20
-0.265649
11
0.726914
21
-0.260938
0
LINE
8
BLACK
6
CONTINUOUS
10
0.726914
20
-0.260938
11
0.729357
21
-0.253608
0
LINE
8
BLACK
6
CONTINUOUS
10
0.729357
20
-0.253608
11
0.729357
21
-0.244537
0
LINE
8
BLACK
6
CONTINUOUS
10
0.729357
20
-0.244537
11
0.674239
21
-0.244537
0
LINE
8
BLACK
6
CONTINUOUS
10
0.674239
20
-0.244537
11
0.674239
21
-0.253608
0
LINE
8
BLACK
6
CONTINUOUS
10
0.738216
20
-0.179336
11
0.740377
21
-0.181498
0
LINE
8
BLACK
6
CONTINUOUS
10
0.740377
20
-0.181498
11
0.741168
21
-0.184451
0
LINE
8
BLACK
6
CONTINUOUS
10
0.741168
20
-0.184451
11
0.741168
21
-0.216322
0
LINE
8
BLACK
6
CONTINUOUS
10
0.741168
20
-0.216322
11
0.740377
21
-0.219274
0
LINE
8
BLACK
6
CONTINUOUS
10
0.740377
20
-0.219274
11
0.738216
21
-0.221436
0
LINE
8
BLACK
6
CONTINUOUS
10
0.738216
20
-0.221436
11
0.735263
21
-0.222227
0
LINE
8
BLACK
6
CONTINUOUS
10
0.735263
20
-0.222227
11
0.73231
21
-0.221436
0
LINE
8
BLACK
6
CONTINUOUS
10
0.73231
20
-0.221436
11
0.730148
21
-0.219274
0
LINE
8
BLACK
6
CONTINUOUS
10
0.730148
20
-0.219274
11
0.729357
21
-0.216322
0
LINE
8
BLACK
6
CONTINUOUS
10
0.729357
20
-0.216322
11
0.729357
21
-0.190356
0
LINE
8
BLACK
6
CONTINUOUS
10
0.729357
20
-0.190356
11
0.668334
21
-0.190356
0
LINE
8
BLACK
6
CONTINUOUS
10
0.668334
20
-0.190356
11
0.665381
21
-0.189565
0
LINE
8
BLACK
6
CONTINUOUS
10
0.665381
20
-0.189565
11
0.663219
21
-0.187403
0
LINE
8
BLACK
6
CONTINUOUS
10
0.663219
20
-0.187403
11
0.662428
21
-0.184451
0
LINE
8
BLACK
6
CONTINUOUS
10
0.662428
20
-0.184451
11
0.663219
21
-0.181498
0
LINE
8
BLACK
6
CONTINUOUS
10
0.663219
20
-0.181498
11
0.665381
21
-0.179336
0
LINE
8
BLACK
6
CONTINUOUS
10
0.665381
20
-0.179336
11
0.668334
21
-0.178545
0
LINE
8
BLACK
6
CONTINUOUS
10
0.668334
20
-0.178545
11
0.735263
21
-0.178545
0
LINE
8
BLACK
6
CONTINUOUS
10
0.735263
20
-0.178545
11
0.738216
21
-0.179336
0
LINE
8
BLACK
6
CONTINUOUS
10
0.713657
20
-0.10543
11
0.714385
21
-0.105418
0
LINE
8
BLACK
6
CONTINUOUS
10
0.714385
20
-0.105418
11
0.727134
21
-0.108605
0
LINE
8
BLACK
6
CONTINUOUS
10
0.727134
20
-0.108605
11
0.727179
21
-0.10863
0
LINE
8
BLACK
6
CONTINUOUS
10
0.727179
20
-0.10863
11
0.72723
21
-0.10863
0
LINE
8
BLACK
6
CONTINUOUS
10
0.72723
20
-0.10863
11
0.728512
21
-0.10937
0
LINE
8
BLACK
6
CONTINUOUS
10
0.728512
20
-0.10937
11
0.729806
21
-0.110089
0
LINE
8
BLACK
6
CONTINUOUS
10
0.729806
20
-0.110089
11
0.729833
21
-0.110133
0
LINE
8
BLACK
6
CONTINUOUS
10
0.729833
20
-0.110133
11
0.729877
21
-0.110158
0
LINE
8
BLACK
6
CONTINUOUS
10
0.729877
20
-0.110158
11
0.736251
21
-0.116533
0
LINE
8
BLACK
6
CONTINUOUS
10
0.736251
20
-0.116533
11
0.736727
21
-0.117356
0
LINE
8
BLACK
6
CONTINUOUS
10
0.736727
20
-0.117356
11
0.737358
21
-0.118067
0
LINE
8
BLACK
6
CONTINUOUS
10
0.737358
20
-0.118067
11
0.740545
21
-0.124442
0
LINE
8
BLACK
6
CONTINUOUS
10
0.740545
20
-0.124442
11
0.740817
21
-0.125772
0
LINE
8
BLACK
6
CONTINUOUS
10
0.740817
20
-0.125772
11
0.741168
21
-0.127083
0
LINE
8
BLACK
6
CONTINUOUS
10
0.741168
20
-0.127083
11
0.741168
21
-0.139831
0
LINE
8
BLACK
6
CONTINUOUS
10
0.741168
20
-0.139831
11
0.740817
21
-0.141142
0
LINE
8
BLACK
6
CONTINUOUS
10
0.740817
20
-0.141142
11
0.740545
21
-0.142472
0
LINE
8
BLACK
6
CONTINUOUS
10
0.740545
20
-0.142472
11
0.737358
21
-0.148846
0
LINE
8
BLACK
6
CONTINUOUS
10
0.737358
20
-0.148846
11
0.736727
21
-0.149558
0
LINE
8
BLACK
6
CONTINUOUS
10
0.736727
20
-0.149558
11
0.736251
21
-0.150381
0
LINE
8
BLACK
6
CONTINUOUS
10
0.736251
20
-0.150381
11
0.729877
21
-0.156755
0
LINE
8
BLACK
6
CONTINUOUS
10
0.729877
20
-0.156755
11
0.729833
21
-0.156781
0
LINE
8
BLACK
6
CONTINUOUS
10
0.729833
20
-0.156781
11
0.729806
21
-0.156825
0
LINE
8
BLACK
6
CONTINUOUS
10
0.729806
20
-0.156825
11
0.728512
21
-0.157543
0
LINE
8
BLACK
6
CONTINUOUS
10
0.728512
20
-0.157543
11
0.72723
21
-0.158284
0
LINE
8
BLACK
6
CONTINUOUS
10
0.72723
20
-0.158284
11
0.727179
21
-0.158284
0
LINE
8
BLACK
6
CONTINUOUS
10
0.727179
20
-0.158284
11
0.727134
21
-0.158309
0
LINE
8
BLACK
6
CONTINUOUS
10
0.727134
20
-0.158309
11
0.714385
21
-0.161496
0
LINE
8
BLACK
6
CONTINUOUS
10
0.714385
20
-0.161496
11
0.713657
21
-0.161484
0
LINE
8
BLACK
6
CONTINUOUS
10
0.713657
20
-0.161484
11
0.712953
21
-0.161672
0
LINE
8
BLACK
6
CONTINUOUS
10
0.712953
20
-0.161672
11
0.690643
21
-0.161672
0
LINE
8
BLACK
6
CONTINUOUS
10
0.690643
20
-0.161672
11
0.68994
21
-0.161484
0
LINE
8
BLACK
6
CONTINUOUS
10
0.68994
20
-0.161484
11
0.689211
21
-0.161496
0
LINE
8
BLACK
6
CONTINUOUS
10
0.689211
20
-0.161496
11
0.676463
21
-0.158309
0
LINE
8
BLACK
6
CONTINUOUS
10
0.676463
20
-0.158309
11
0.676418
21
-0.158284
0
LINE
8
BLACK
6
CONTINUOUS
10
0.676418
20
-0.158284
11
0.676366
21
-0.158284
0
LINE
8
BLACK
6
CONTINUOUS
10
0.676366
20
-0.158284
11
0.675084
21
-0.157543
0
LINE
8
BLACK
6
CONTINUOUS
10
0.675084
20
-0.157543
11
0.67379
21
-0.156825
0
LINE
8
BLACK
6
CONTINUOUS
10
0.67379
20
-0.156825
11
0.673764
21
-0.156781
0
LINE
8
BLACK
6
CONTINUOUS
10
0.673764
20
-0.156781
11
0.673719
21
-0.156755
0
LINE
8
BLACK
6
CONTINUOUS
10
0.673719
20
-0.156755
11
0.667345
21
-0.150381
0
LINE
8
BLACK
6
CONTINUOUS
10
0.667345
20
-0.150381
11
0.666869
21
-0.149558
0
LINE
8
BLACK
6
CONTINUOUS
10
0.666869
20
-0.149558
11
0.666239
21
-0.148846
0
LINE
8
BLACK
6
CONTINUOUS
10
0.666239
20
-0.148846
11
0.663052
21
-0.142472
0
LINE
8
BLACK
6
CONTINUOUS
10
0.663052
20
-0.142472
11
0.662779
21
-0.141142
0
LINE
8
BLACK
6
CONTINUOUS
10
0.662779
20
-0.141142
11
0.662428
21
-0.139831
0
LINE
8
BLACK
6
CONTINUOUS
10
0.662428
20
-0.139831
11
0.662428
21
-0.127083
0
LINE
8
BLACK
6
CONTINUOUS
10
0.662428
20
-0.127083
11
0.662779
21
-0.125772
0
LINE
8
BLACK
6
CONTINUOUS
10
0.662779
20
-0.125772
11
0.663052
21
-0.124442
0
LINE
8
BLACK
6
CONTINUOUS
10
0.663052
20
-0.124442
11
0.666239
21
-0.118067
0
LINE
8
BLACK
6
CONTINUOUS
10
0.666239
20
-0.118067
11
0.666869
21
-0.117356
0
LINE
8
BLACK
6
CONTINUOUS
10
0.666869
20
-0.117356
11
0.667345
21
-0.116533
0
LINE
8
BLACK
6
CONTINUOUS
10
0.667345
20
-0.116533
11
0.673719
21
-0.110158
0
LINE
8
BLACK
6
CONTINUOUS
10
0.673719
20
-0.110158
11
0.673764
21
-0.110133
0
LINE
8
BLACK
6
CONTINUOUS
10
0.673764
20
-0.110133
11
0.67379
21
-0.110089
0
LINE
8
BLACK
6
CONTINUOUS
10
0.67379
20
-0.110089
11
0.675084
21
-0.109371
0
LINE
8
BLACK
6
CONTINUOUS
10
0.675084
20
-0.109371
11
0.676366
21
-0.10863
0
LINE
8
BLACK
6
CONTINUOUS
10
0.676366
20
-0.10863
11
0.676418
21
-0.10863
0
LINE
8
BLACK
6
CONTINUOUS
10
0.676418
20
-0.10863
11
0.676463
21
-0.108605
0
LINE
8
BLACK
6
CONTINUOUS
10
0.676463
20
-0.108605
11
0.689211
21
-0.105418
0
LINE
8
BLACK
6
CONTINUOUS
10
0.689211
20
-0.105418
11
0.68994
21
-0.10543
0
LINE
8
BLACK
6
CONTINUOUS
10
0.68994
20
-0.10543
11
0.690643
21
-0.105242
0
LINE
8
BLACK
6
CONTINUOUS
10
0.690643
20
-0.105242
11
0.712953
21
-0.105242
0
LINE
8
BLACK
6
CONTINUOUS
10
0.712953
20
-0.105242
11
0.713657
21
-0.10543
0
LINE
8
BLACK
6
CONTINUOUS
10
0.680914
20
-0.119667
11
0.676374
21
-0.124207
0
LINE
8
BLACK
6
CONTINUOUS
10
0.676374
20
-0.124207
11
0.674239
21
-0.128477
0
LINE
8
BLACK
6
CONTINUOUS
10
0.674239
20
-0.128477
11
0.674239
21
-0.138437
0
LINE
8
BLACK
6
CONTINUOUS
10
0.674239
20
-0.138437
11
0.676374
21
-0.142707
0
LINE
8
BLACK
6
CONTINUOUS
10
0.676374
20
-0.142707
11
0.680914
21
-0.147247
0
LINE
8
BLACK
6
CONTINUOUS
10
0.680914
20
-0.147247
11
0.69137
21
-0.149861
0
LINE
8
BLACK
6
CONTINUOUS
10
0.69137
20
-0.149861
11
0.712226
21
-0.149861
0
LINE
8
BLACK
6
CONTINUOUS
10
0.712226
20
-0.149861
11
0.722682
21
-0.147247
0
LINE
8
BLACK
6
CONTINUOUS
10
0.722682
20
-0.147247
11
0.727222
21
-0.142707
0
LINE
8
BLACK
6
CONTINUOUS
10
0.727222
20
-0.142707
11
0.729357
21
-0.138437
0
LINE
8
BLACK
6
CONTINUOUS
10
0.729357
20
-0.138437
11
0.729357
21
-0.128477
0
LINE
8
BLACK
6
CONTINUOUS
10
0.729357
20
-0.128477
11
0.727222
21
-0.124207
0
LINE
8
BLACK
6
CONTINUOUS
10
0.727222
20
-0.124207
11
0.722682
21
-0.119667
0
LINE
8
BLACK
6
CONTINUOUS
10
0.722682
20
-0.119667
11
0.712226
21
-0.117053
0
LINE
8
BLACK
6
CONTINUOUS
10
0.712226
20
-0.117053
11
0.69137
21
-0.117053
0
LINE
8
BLACK
6
CONTINUOUS
10
0.69137
20
-0.117053
11
0.680914
21
-0.119667
0
LINE
8
BLACK
6
CONTINUOUS
10
0.738216
20
-0.0391037
11
0.740377
21
-0.0412653
0
LINE
8
BLACK
6
CONTINUOUS
10
0.740377
20
-0.0412653
11
0.741168
21
-0.0442181
0
LINE
8
BLACK
6
CONTINUOUS
10
0.741168
20
-0.0442181
11
0.740377
21
-0.0471708
0
LINE
8
BLACK
6
CONTINUOUS
10
0.740377
20
-0.0471708
11
0.738216
21
-0.0493324
0
LINE
8
BLACK
6
CONTINUOUS
10
0.738216
20
-0.0493324
11
0.735263
21
-0.0501236
0
LINE
8
BLACK
6
CONTINUOUS
10
0.735263
20
-0.0501236
11
0.70611
21
-0.0501236
0
LINE
8
BLACK
6
CONTINUOUS
10
0.70611
20
-0.0501236
11
0.70611
21
-0.0765578
0
LINE
8
BLACK
6
CONTINUOUS
10
0.70611
20
-0.0765578
11
0.735263
21
-0.0765578
0
LINE
8
BLACK
6
CONTINUOUS
10
0.735263
20
-0.0765578
11
0.738216
21
-0.077349
0
LINE
8
BLACK
6
CONTINUOUS
10
0.738216
20
-0.077349
11
0.740377
21
-0.0795106
0
LINE
8
BLACK
6
CONTINUOUS
10
0.740377
20
-0.0795106
11
0.741168
21
-0.0824633
0
LINE
8
BLACK
6
CONTINUOUS
10
0.741168
20
-0.0824633
11
0.740377
21
-0.0854161
0
LINE
8
BLACK
6
CONTINUOUS
10
0.740377
20
-0.0854161
11
0.738216
21
-0.0875776
0
LINE
8
BLACK
6
CONTINUOUS
10
0.738216
20
-0.0875776
11
0.735263
21
-0.0883688
0
LINE
8
BLACK
6
CONTINUOUS
10
0.735263
20
-0.0883688
11
0.700205
21
-0.0883688
0
LINE
8
BLACK
6
CONTINUOUS
10
0.700205
20
-0.0883688
11
0.668334
21
-0.0883688
0
LINE
8
BLACK
6
CONTINUOUS
10
0.668334
20
-0.0883688
11
0.665381
21
-0.0875776
0
LINE
8
BLACK
6
CONTINUOUS
10
0.665381
20
-0.0875776
11
0.663219
21
-0.0854161
0
LINE
8
BLACK
6
CONTINUOUS
10
0.663219
20
-0.0854161
11
0.662428
21
-0.0824633
0
LINE
8
BLACK
6
CONTINUOUS
10
0.662428
20
-0.0824633
11
0.663219
21
-0.0795106
0
LINE
8
BLACK
6
CONTINUOUS
10
0.663219
20
-0.0795106
11
0.665381
21
-0.077349
0
LINE
8
BLACK
6
CONTINUOUS
10
0.665381
20
-0.077349
11
0.668334
21
-0.0765578
0
LINE
8
BLACK
6
CONTINUOUS
10
0.668334
20
-0.0765578
11
0.694299
21
-0.0765578
0
LINE
8
BLACK
6
CONTINUOUS
10
0.694299
20
-0.0765578
11
0.694299
21
-0.0501236
0
LINE
8
BLACK
6
CONTINUOUS
10
0.694299
20
-0.0501236
11
0.668334
21
-0.0501236
0
LINE
8
BLACK
6
CONTINUOUS
10
0.668334
20
-0.0501236
11
0.665381
21
-0.0493324
0
LINE
8
BLACK
6
CONTINUOUS
10
0.665381
20
-0.0493324
11
0.663219
21
-0.0471708
0
LINE
8
BLACK
6
CONTINUOUS
10
0.663219
20
-0.0471708
11
0.662428
21
-0.0442181
0
LINE
8
BLACK
6
CONTINUOUS
10
0.662428
20
-0.0442181
11
0.663219
21
-0.0412653
0
LINE
8
BLACK
6
CONTINUOUS
10
0.663219
20
-0.0412653
11
0.665381
21
-0.0391037
0
LINE
8
BLACK
6
CONTINUOUS
10
0.665381
20
-0.0391037
11
0.668334
21
-0.0383126
0
LINE
8
BLACK
6
CONTINUOUS
10
0.668334
20
-0.0383126
11
0.735263
21
-0.0383126
0
LINE
8
BLACK
6
CONTINUOUS
10
0.735263
20
-0.0383126
11
0.738216
21
-0.0391037
0
LINE
8
BLACK
6
CONTINUOUS
10
0.738216
20
0.0310125
11
0.740377
21
0.0288509
0
LINE
8
BLACK
6
CONTINUOUS
10
0.740377
20
0.0288509
11
0.741168
21
0.0258981
0
LINE
8
BLACK
6
CONTINUOUS
10
0.741168
20
0.0258981
11
0.740377
21
0.0229454
0
LINE
8
BLACK
6
CONTINUOUS
10
0.740377
20
0.0229454
11
0.738216
21
0.0207838
0
LINE
8
BLACK
6
CONTINUOUS
10
0.738216
20
0.0207838
11
0.735263
21
0.0199926
0
LINE
8
BLACK
6
CONTINUOUS
10
0.735263
20
0.0199926
11
0.690571
21
0.0199926
0
LINE
8
BLACK
6
CONTINUOUS
10
0.690571
20
0.0199926
11
0.738193
21
-0.00721965
0
LINE
8
BLACK
6
CONTINUOUS
10
0.738193
20
-0.00721965
11
0.738202
21
-0.00722921
0
LINE
8
BLACK
6
CONTINUOUS
10
0.738202
20
-0.00722921
11
0.738216
21
-0.00723276
0
LINE
8
BLACK
6
CONTINUOUS
10
0.738216
20
-0.00723276
11
0.739285
21
-0.0083022
0
LINE
8
BLACK
6
CONTINUOUS
10
0.739285
20
-0.0083022
11
0.740364
21
-0.00937157
0
LINE
8
BLACK
6
CONTINUOUS
10
0.740364
20
-0.00937157
11
0.740367
21
-0.00938472
0
LINE
8
BLACK
6
CONTINUOUS
10
0.740367
20
-0.00938472
11
0.740377
21
-0.00939433
0
LINE
8
BLACK
6
CONTINUOUS
10
0.740377
20
-0.00939433
11
0.740768
21
-0.010855
0
LINE
8
BLACK
6
CONTINUOUS
10
0.740768
20
-0.010855
11
0.741168
21
-0.0123208
0
LINE
8
BLACK
6
CONTINUOUS
10
0.741168
20
-0.0123208
11
0.741165
21
-0.012334
0
LINE
8
BLACK
6
CONTINUOUS
10
0.741165
20
-0.012334
11
0.741168
21
-0.0123471
0
LINE
8
BLACK
6
CONTINUOUS
10
0.741168
20
-0.0123471
11
0.740776
21
-0.0138119
0
LINE
8
BLACK
6
CONTINUOUS
10
0.740776
20
-0.0138119
11
0.74039
21
-0.015277
0
LINE
8
BLACK
6
CONTINUOUS
10
0.74039
20
-0.015277
11
0.740381
21
-0.0152867
0
LINE
8
BLACK
6
CONTINUOUS
10
0.740381
20
-0.0152867
11
0.740377
21
-0.0152998
0
LINE
8
BLACK
6
CONTINUOUS
10
0.740377
20
-0.0152998
11
0.739305
21
-0.0163715
0
LINE
8
BLACK
6
CONTINUOUS
10
0.739305
20
-0.0163715
11
0.738238
21
-0.0174482
0
LINE
8
BLACK
6
CONTINUOUS
10
0.738238
20
-0.0174482
11
0.738225
21
-0.0174518
0
LINE
8
BLACK
6
CONTINUOUS
10
0.738225
20
-0.0174518
11
0.738216
21
-0.0174614
0
LINE
8
BLACK
6
CONTINUOUS
10
0.738216
20
-0.0174614
11
0.736755
21
-0.0178528
0
LINE
8
BLACK
6
CONTINUOUS
10
0.736755
20
-0.0178528
11
0.735289
21
-0.0182526
0
LINE
8
BLACK
6
CONTINUOUS
10
0.735289
20
-0.0182526
11
0.735276
21
-0.0182491
0
LINE
8
BLACK
6
CONTINUOUS
10
0.735276
20
-0.0182491
11
0.735263
21
-0.0182526
0
LINE
8
BLACK
6
CONTINUOUS
10
0.735263
20
-0.0182526
11
0.668334
21
-0.0182526
0
LINE
8
BLACK
6
CONTINUOUS
10
0.668334
20
-0.0182526
11
0.665381
21
-0.0174614
0
LINE
8
BLACK
6
CONTINUOUS
10
0.665381
20
-0.0174614
11
0.663219
21
-0.0152998
0
LINE
8
BLACK
6
CONTINUOUS
10
0.663219
20
-0.0152998
11
0.662428
21
-0.0123471
0
LINE
8
BLACK
6
CONTINUOUS
10
0.662428
20
-0.0123471
11
0.663219
21
-0.00939433
0
LINE
8
BLACK
6
CONTINUOUS
10
0.663219
20
-0.00939433
11
0.665381
21
-0.00723276
0
LINE
8
BLACK
6
CONTINUOUS
10
0.665381
20
-0.00723276
11
0.668334
21
-0.00644157
0
LINE
8
BLACK
6
CONTINUOUS
10
0.668334
20
-0.00644157
11
0.713025
21
-0.00644157
0
LINE
8
BLACK
6
CONTINUOUS
10
0.713025
20
-0.00644157
11
0.665404
21
0.0207707
0
LINE
8
BLACK
6
CONTINUOUS
10
0.665404
20
0.0207707
11
0.665394
21
0.0207803
0
LINE
8
BLACK
6
CONTINUOUS
10
0.665394
20
0.0207803
11
0.665381
21
0.0207838
0
LINE
8
BLACK
6
CONTINUOUS
10
0.665381
20
0.0207838
11
0.664309
21
0.0218555
0
LINE
8
BLACK
6
CONTINUOUS
10
0.664309
20
0.0218555
11
0.663232
21
0.0229226
0
LINE
8
BLACK
6
CONTINUOUS
10
0.663232
20
0.0229226
11
0.663229
21
0.0229358
0
LINE
8
BLACK
6
CONTINUOUS
10
0.663229
20
0.0229358
11
0.663219
21
0.0229454
0
LINE
8
BLACK
6
CONTINUOUS
10
0.663219
20
0.0229454
11
0.662828
21
0.0244061
0
LINE
8
BLACK
6
CONTINUOUS
10
0.662828
20
0.0244061
11
0.662428
21
0.0258719
0
LINE
8
BLACK
6
CONTINUOUS
10
0.662428
20
0.0258719
11
0.662432
21
0.0258851
0
LINE
8
BLACK
6
CONTINUOUS
10
0.662432
20
0.0258851
11
0.662428
21
0.0258981
0
LINE
8
BLACK
6
CONTINUOUS
10
0.662428
20
0.0258981
11
0.662821
21
0.027363
0
LINE
8
BLACK
6
CONTINUOUS
10
0.662821
20
0.027363
11
0.663206
21
0.0288281
0
LINE
8
BLACK
6
CONTINUOUS
10
0.663206
20
0.0288281
11
0.663216
21
0.0288378
0
LINE
8
BLACK
6
CONTINUOUS
10
0.663216
20
0.0288378
11
0.663219
21
0.0288509
0
LINE
8
BLACK
6
CONTINUOUS
10
0.663219
20
0.0288509
11
0.664291
21
0.0299226
0
LINE
8
BLACK
6
CONTINUOUS
10
0.664291
20
0.0299226
11
0.665358
21
0.0309993
0
LINE
8
BLACK
6
CONTINUOUS
10
0.665358
20
0.0309993
11
0.665371
21
0.0310029
0
LINE
8
BLACK
6
CONTINUOUS
10
0.665371
20
0.0310029
11
0.665381
21
0.0310125
0
LINE
8
BLACK
6
CONTINUOUS
10
0.665381
20
0.0310125
11
0.666841
21
0.0314039
0
LINE
8
BLACK
6
CONTINUOUS
10
0.666841
20
0.0314039
11
0.668307
21
0.0318036
0
LINE
8
BLACK
6
CONTINUOUS
10
0.668307
20
0.0318036
11
0.668321
21
0.0318002
0
LINE
8
BLACK
6
CONTINUOUS
10
0.668321
20
0.0318002
11
0.668334
21
0.0318037
0
LINE
8
BLACK
6
CONTINUOUS
10
0.668334
20
0.0318037
11
0.735263
21
0.0318037
0
LINE
8
BLACK
6
CONTINUOUS
10
0.735263
20
0.0318037
11
0.738216
21
0.0310125
0
LINE
8
BLACK
6
CONTINUOUS
10
0.738216
20
0.0628835
11
0.740377
21
0.0607219
0
LINE
8
BLACK
6
CONTINUOUS
10
0.740377
20
0.0607219
11
0.741168
21
0.0577692
0
LINE
8
BLACK
6
CONTINUOUS
10
0.741168
20
0.0577692
11
0.740377
21
0.0548164
0
LINE
8
BLACK
6
CONTINUOUS
10
0.740377
20
0.0548164
11
0.738216
21
0.0526548
0
LINE
8
BLACK
6
CONTINUOUS
10
0.738216
20
0.0526548
11
0.735263
21
0.0518637
0
LINE
8
BLACK
6
CONTINUOUS
10
0.735263
20
0.0518637
11
0.668334
21
0.0518637
0
LINE
8
BLACK
6
CONTINUOUS
10
0.668334
20
0.0518637
11
0.665381
21
0.0526548
0
LINE
8
BLACK
6
CONTINUOUS
10
0.665381
20
0.0526548
11
0.663219
21
0.0548164
0
LINE
8
BLACK
6
CONTINUOUS
10
0.663219
20
0.0548164
11
0.662428
21
0.0577692
0
LINE
8
BLACK
6
CONTINUOUS
10
0.662428
20
0.0577692
11
0.663219
21
0.0607219
0
LINE
8
BLACK
6
CONTINUOUS
10
0.663219
20
0.0607219
11
0.665381
21
0.0628835
0
LINE
8
BLACK
6
CONTINUOUS
10
0.665381
20
0.0628835
11
0.668334
21
0.0636747
0
LINE
8
BLACK
6
CONTINUOUS
10
0.668334
20
0.0636747
11
0.735263
21
0.0636747
0
LINE
8
BLACK
6
CONTINUOUS
10
0.735263
20
0.0636747
11
0.738216
21
0.0628835
0
LINE
8
BLACK
6
CONTINUOUS
10
0.738216
20
0.129813
11
0.740377
21
0.127651
0
LINE
8
BLACK
6
CONTINUOUS
10
0.740377
20
0.127651
11
0.741168
21
0.124698
0
LINE
8
BLACK
6
CONTINUOUS
10
0.741168
20
0.124698
11
0.740377
21
0.121746
0
LINE
8
BLACK
6
CONTINUOUS
10
0.740377
20
0.121746
11
0.738216
21
0.119584
0
LINE
8
BLACK
6
CONTINUOUS
10
0.738216
20
0.119584
11
0.735263
21
0.118793
0
LINE
8
BLACK
6
CONTINUOUS
10
0.735263
20
0.118793
11
0.709297
21
0.118793
0
LINE
8
BLACK
6
CONTINUOUS
10
0.709297
20
0.118793
11
0.709297
21
0.0992015
0
LINE
8
BLACK
6
CONTINUOUS
10
0.709297
20
0.0992015
11
0.708946
21
0.0978904
0
LINE
8
BLACK
6
CONTINUOUS
10
0.708946
20
0.0978904
11
0.708674
21
0.0965605
0
LINE
8
BLACK
6
CONTINUOUS
10
0.708674
20
0.0965605
11
0.705487
21
0.0901863
0
LINE
8
BLACK
6
CONTINUOUS
10
0.705487
20
0.0901863
11
0.704856
21
0.0894749
0
LINE
8
BLACK
6
CONTINUOUS
10
0.704856
20
0.0894749
11
0.70438
21
0.0886515
0
LINE
8
BLACK
6
CONTINUOUS
10
0.70438
20
0.0886515
11
0.701193
21
0.0854643
0
LINE
8
BLACK
6
CONTINUOUS
10
0.701193
20
0.0854643
11
0.70037
21
0.084989
0
LINE
8
BLACK
6
CONTINUOUS
10
0.70037
20
0.084989
11
0.699659
21
0.0843581
0
LINE
8
BLACK
6
CONTINUOUS
10
0.699659
20
0.0843581
11
0.693284
21
0.081171
0
LINE
8
BLACK
6
CONTINUOUS
10
0.693284
20
0.081171
11
0.691954
21
0.0808989
0
LINE
8
BLACK
6
CONTINUOUS
10
0.691954
20
0.0808989
11
0.690643
21
0.0805476
0
LINE
8
BLACK
6
CONTINUOUS
10
0.690643
20
0.0805476
11
0.681082
21
0.0805476
0
LINE
8
BLACK
6
CONTINUOUS
10
0.681082
20
0.0805476
11
0.679771
21
0.0808989
0
LINE
8
BLACK
6
CONTINUOUS
10
0.679771
20
0.0808989
11
0.678441
21
0.081171
0
LINE
8
BLACK
6
CONTINUOUS
10
0.678441
20
0.081171
11
0.672067
21
0.0843581
0
LINE
8
BLACK
6
CONTINUOUS
10
0.672067
20
0.0843581
11
0.671355
21
0.084989
0
LINE
8
BLACK
6
CONTINUOUS
10
0.671355
20
0.084989
11
0.670532
21
0.0854643
0
LINE
8
BLACK
6
CONTINUOUS
10
0.670532
20
0.0854643
11
0.667345
21
0.0886515
0
LINE
8
BLACK
6
CONTINUOUS
10
0.667345
20
0.0886515
11
0.666869
21
0.0894749
0
LINE
8
BLACK
6
CONTINUOUS
10
0.666869
20
0.0894749
11
0.666239
21
0.0901863
0
LINE
8
BLACK
6
CONTINUOUS
10
0.666239
20
0.0901863
11
0.663052
21
0.0965605
0
LINE
8
BLACK
6
CONTINUOUS
10
0.663052
20
0.0965605
11
0.662779
21
0.0978904
0
LINE
8
BLACK
6
CONTINUOUS
10
0.662779
20
0.0978904
11
0.662428
21
0.0992015
0
LINE
8
BLACK
6
CONTINUOUS
10
0.662428
20
0.0992015
11
0.662428
21
0.124698
0
LINE
8
BLACK
6
CONTINUOUS
10
0.662428
20
0.124698
11
0.663219
21
0.127651
0
LINE
8
BLACK
6
CONTINUOUS
10
0.663219
20
0.127651
11
0.665381
21
0.129813
0
LINE
8
BLACK
6
CONTINUOUS
10
0.665381
20
0.129813
11
0.668334
21
0.130604
0
LINE
8
BLACK
6
CONTINUOUS
10
0.668334
20
0.130604
11
0.735263
21
0.130604
0
LINE
8
BLACK
6
CONTINUOUS
10
0.735263
20
0.130604
11
0.738216
21
0.129813
0
LINE
8
BLACK
6
CONTINUOUS
10
0.674239
20
0.100596
11
0.676374
21
0.0963255
0
LINE
8
BLACK
6
CONTINUOUS
10
0.676374
20
0.0963255
11
0.678206
21
0.0944936
0
LINE
8
BLACK
6
CONTINUOUS
10
0.678206
20
0.0944936
11
0.682476
21
0.0923586
0
LINE
8
BLACK
6
CONTINUOUS
10
0.682476
20
0.0923586
11
0.689249
21
0.0923586
0
LINE
8
BLACK
6
CONTINUOUS
10
0.689249
20
0.0923586
11
0.693519
21
0.0944936
0
LINE
8
BLACK
6
CONTINUOUS
10
0.693519
20
0.0944936
11
0.695351
21
0.0963255
0
LINE
8
BLACK
6
CONTINUOUS
10
0.695351
20
0.0963255
11
0.697486
21
0.100596
0
LINE
8
BLACK
6
CONTINUOUS
10
0.697486
20
0.100596
11
0.697486
21
0.118793
0
LINE
8
BLACK
6
CONTINUOUS
10
0.697486
20
0.118793
11
0.674239
21
0.118793
0
LINE
8
BLACK
6
CONTINUOUS
10
0.674239
20
0.118793
11
0.674239
21
0.100596
0
CIRCLE
8
BLACK
10
0
20
0
40
0.00688976
0
CIRCLE
8
BLACK
10
0
20
-1.6
40
0.00688976
  0
ENDSEC
  0
EOF
