  0
SECTION
  2
HEADER
  9
$ANGBASE
  50
0.0
  9
$ANGDIR
  70
1
  9
$MEASUREMENT
  70
0
  0
ENDSEC
  0
SECTION
  2
TABLES
  0
TABLE
  2
LTYPE
  70
4
  0
LTYPE
  5
40F
  2
CONTINUOUS
  70
0
  3
Solid line
  72
65
  73
0
  40
0.0
  0
LTYPE
  5
410
  2
DASHDOT
 70
0
  3
Dash Dot ____ _ ____ _
 72
65
 73
4
 40
2.0
 49
1.25
 49
-0.25
 49
0.25
 49
-0.25
  0
LTYPE
  5
411
  2
DASHED
 70
0
  3
Dashed __ __ __ __ __
 72
65
 73
2
 40
0.75
 49
0.5
 49
-0.25
  0
LTYPE
  5
43B
  2
DOTTED
 70
0
  3
Dotted .  .  .  .
 72
65
 73
2
 40
0.2
 49
0.0
 49
-0.2
  0
ENDTAB
  0
TABLE
  2
STYLE
  70
4
  0
STYLE
  2
KICAD
  70
0
  40
0
  41
1
  42
1
  50
0
  71
0
  3
isocp.shx
  0
STYLE
  2
KICADB
  70
0
  40
0
  41
1
  42
1
  50
0
  71
0
  3
isocp.shx
  0
STYLE
  2
KICADI
  70
0
  40
0
  41
1
  42
1
  50
15
  71
0
  3
isocp.shx
  0
STYLE
  2
KICADBI
  70
0
  40
0
  41
1
  42
1
  50
15
  71
0
  3
isocp.shx
  0
ENDTAB
  0
TABLE
  2
LAYER
  70
1
  0
LAYER
  2
BLACK
  70
0
  62
7
  6
CONTINUOUS
  0
ENDTAB
  0
ENDSEC
  0
SECTION
  2
ENTITIES
0
LINE
8
BLACK
6
CONTINUOUS
10
-0.122078
20
-1.57047
11
-0.118025
21
-1.55704
0
LINE
8
BLACK
6
CONTINUOUS
10
-0.118025
20
-1.55704
11
-0.112501
21
-1.54415
0
LINE
8
BLACK
6
CONTINUOUS
10
-0.112501
20
-1.54415
11
-0.105575
21
-1.53196
0
LINE
8
BLACK
6
CONTINUOUS
10
-0.105575
20
-1.53196
11
-0.097333
21
-1.52062
0
LINE
8
BLACK
6
CONTINUOUS
10
-0.097333
20
-1.52062
11
-0.0878777
21
-1.51026
0
LINE
8
BLACK
6
CONTINUOUS
10
-0.0878777
20
-1.51026
11
-0.0773271
21
-1.50103
0
LINE
8
BLACK
6
CONTINUOUS
10
-0.0773271
20
-1.50103
11
-0.0658126
21
-1.49302
0
LINE
8
BLACK
6
CONTINUOUS
10
-0.0658126
20
-1.49302
11
-0.0534779
21
-1.48635
0
LINE
8
BLACK
6
CONTINUOUS
10
-0.0534779
20
-1.48635
11
-0.0404766
21
-1.4811
0
LINE
8
BLACK
6
CONTINUOUS
10
-0.0404766
20
-1.4811
11
-0.0269707
21
-1.47733
0
LINE
8
BLACK
6
CONTINUOUS
10
-0.0269707
20
-1.47733
11
-0.0131288
21
-1.47509
0
LINE
8
BLACK
6
CONTINUOUS
10
-0.0131288
20
-1.47509
11
0.00087685
21
-1.4744
0
LINE
8
BLACK
6
CONTINUOUS
10
0.00087685
20
-1.4744
11
0.0148715
21
-1.47528
0
LINE
8
BLACK
6
CONTINUOUS
10
0.0148715
20
-1.47528
11
0.0286809
21
-1.47772
0
LINE
8
BLACK
6
CONTINUOUS
10
0.0286809
20
-1.47772
11
0.0421327
21
-1.48168
0
LINE
8
BLACK
6
CONTINUOUS
10
0.0421327
20
-1.48168
11
0.0550594
21
-1.48711
0
LINE
8
BLACK
6
CONTINUOUS
10
0.0550594
20
-1.48711
11
0.0672998
21
-1.49395
0
LINE
8
BLACK
6
CONTINUOUS
10
0.0672998
20
-1.49395
11
0.0787015
21
-1.50212
0
LINE
8
BLACK
6
CONTINUOUS
10
0.0787015
20
-1.50212
11
0.0891221
21
-1.5115
0
LINE
8
BLACK
6
CONTINUOUS
10
0.0891221
20
-1.5115
11
0.0984319
21
-1.52198
0
LINE
8
BLACK
6
CONTINUOUS
10
0.0984319
20
-1.52198
11
0.106515
21
-1.53344
0
LINE
8
BLACK
6
CONTINUOUS
10
0.106515
20
-1.53344
11
0.11327
21
-1.54573
0
LINE
8
BLACK
6
CONTINUOUS
10
0.11327
20
-1.54573
11
0.118614
21
-1.55869
0
LINE
8
BLACK
6
CONTINUOUS
10
0.118614
20
-1.55869
11
0.122479
21
-1.57217
0
LINE
8
BLACK
6
CONTINUOUS
10
0.122479
20
-1.57217
11
0.124817
21
-1.586
0
LINE
8
BLACK
6
CONTINUOUS
10
0.124817
20
-1.586
11
0.1256
21
-1.6
0
LINE
8
BLACK
6
CONTINUOUS
10
0.1256
20
-1.6
11
0.125551
21
-1.60351
0
LINE
8
BLACK
6
CONTINUOUS
10
0.125551
20
-1.60351
11
0.124378
21
-1.61748
0
LINE
8
BLACK
6
CONTINUOUS
10
0.124378
20
-1.61748
11
0.121654
21
-1.63124
0
LINE
8
BLACK
6
CONTINUOUS
10
0.121654
20
-1.63124
11
0.117414
21
-1.6446
0
LINE
8
BLACK
6
CONTINUOUS
10
0.117414
20
-1.6446
11
0.111711
21
-1.65741
0
LINE
8
BLACK
6
CONTINUOUS
10
0.111711
20
-1.65741
11
0.104615
21
-1.66951
0
LINE
8
BLACK
6
CONTINUOUS
10
0.104615
20
-1.66951
11
0.0962152
21
-1.68073
0
LINE
8
BLACK
6
CONTINUOUS
10
0.0962152
20
-1.68073
11
0.0866162
21
-1.69096
0
LINE
8
BLACK
6
CONTINUOUS
10
0.0866162
20
-1.69096
11
0.0759376
21
-1.70004
0
LINE
8
BLACK
6
CONTINUOUS
10
0.0759376
20
-1.70004
11
0.0643126
21
-1.70789
0
LINE
8
BLACK
6
CONTINUOUS
10
0.0643126
20
-1.70789
11
0.0518859
21
-1.71438
0
LINE
8
BLACK
6
CONTINUOUS
10
0.0518859
20
-1.71438
11
0.0388125
21
-1.71945
0
LINE
8
BLACK
6
CONTINUOUS
10
0.0388125
20
-1.71945
11
0.0252554
21
-1.72303
0
LINE
8
BLACK
6
CONTINUOUS
10
0.0252554
20
-1.72303
11
0.0113835
21
-1.72508
0
LINE
8
BLACK
6
CONTINUOUS
10
0.0113835
20
-1.72508
11
-0.00263035
21
-1.72557
0
LINE
8
BLACK
6
CONTINUOUS
10
-0.00263035
20
-1.72557
11
-0.0166114
21
-1.7245
0
LINE
8
BLACK
6
CONTINUOUS
10
-0.0166114
20
-1.7245
11
-0.0303854
21
-1.72187
0
LINE
8
BLACK
6
CONTINUOUS
10
-0.0303854
20
-1.72187
11
-0.0437806
21
-1.71772
0
LINE
8
BLACK
6
CONTINUOUS
10
-0.0437806
20
-1.71772
11
-0.0566302
21
-1.71211
0
LINE
8
BLACK
6
CONTINUOUS
10
-0.0566302
20
-1.71211
11
-0.0687739
21
-1.7051
0
LINE
8
BLACK
6
CONTINUOUS
10
-0.0687739
20
-1.7051
11
-0.0800605
21
-1.69678
0
LINE
8
BLACK
6
CONTINUOUS
10
-0.0800605
20
-1.69678
11
-0.0903491
21
-1.68725
0
LINE
8
BLACK
6
CONTINUOUS
10
-0.0903491
20
-1.68725
11
-0.0995116
21
-1.67663
0
LINE
8
BLACK
6
CONTINUOUS
10
-0.0995116
20
-1.67663
11
-0.107434
21
-1.66506
0
LINE
8
BLACK
6
CONTINUOUS
10
-0.107434
20
-1.66506
11
-0.114017
21
-1.65268
0
LINE
8
BLACK
6
CONTINUOUS
10
-0.114017
20
-1.65268
11
-0.119179
21
-1.63965
0
LINE
8
BLACK
6
CONTINUOUS
10
-0.119179
20
-1.63965
11
-0.122855
21
-1.62611
0
LINE
8
BLACK
6
CONTINUOUS
10
-0.122855
20
-1.62611
11
-0.125001
21
-1.61226
0
LINE
8
BLACK
6
CONTINUOUS
10
-0.125001
20
-1.61226
11
-0.125588
21
-1.59825
0
LINE
8
BLACK
6
CONTINUOUS
10
-0.125588
20
-1.59825
11
-0.125467
21
-1.59652
0
LINE
8
BLACK
6
CONTINUOUS
10
-0.125467
20
-1.59652
11
-0.12461
21
-1.58426
0
LINE
8
BLACK
6
CONTINUOUS
10
-0.12461
20
-1.58426
11
-0.122078
21
-1.57047
0
LINE
8
BLACK
6
CONTINUOUS
10
-0.108602
20
-1.6219
11
-0.105365
21
-1.63424
0
LINE
8
BLACK
6
CONTINUOUS
10
-0.105365
20
-1.63424
11
-0.100732
21
-1.64612
0
LINE
8
BLACK
6
CONTINUOUS
10
-0.100732
20
-1.64612
11
-0.0947636
21
-1.65739
0
LINE
8
BLACK
6
CONTINUOUS
10
-0.0947636
20
-1.65739
11
-0.0875393
21
-1.6679
0
LINE
8
BLACK
6
CONTINUOUS
10
-0.0875393
20
-1.6679
11
-0.0791546
21
-1.67751
0
LINE
8
BLACK
6
CONTINUOUS
10
-0.0791546
20
-1.67751
11
-0.0697208
21
-1.6861
0
LINE
8
BLACK
6
CONTINUOUS
10
-0.0697208
20
-1.6861
11
-0.0593629
21
-1.69354
0
LINE
8
BLACK
6
CONTINUOUS
10
-0.0593629
20
-1.69354
11
-0.0482181
21
-1.69974
0
LINE
8
BLACK
6
CONTINUOUS
10
-0.0482181
20
-1.69974
11
-0.0364343
21
-1.70463
0
LINE
8
BLACK
6
CONTINUOUS
10
-0.0364343
20
-1.70463
11
-0.0241675
21
-1.70812
0
LINE
8
BLACK
6
CONTINUOUS
10
-0.0241675
20
-1.70812
11
-0.0115804
21
-1.71018
0
LINE
8
BLACK
6
CONTINUOUS
10
-0.0115804
20
-1.71018
11
0.00116016
21
-1.71078
0
LINE
8
BLACK
6
CONTINUOUS
10
0.00116016
20
-1.71078
11
0.0138854
21
-1.70991
0
LINE
8
BLACK
6
CONTINUOUS
10
0.0138854
20
-1.70991
11
0.0264265
21
-1.70759
0
LINE
8
BLACK
6
CONTINUOUS
10
0.0264265
20
-1.70759
11
0.0386174
21
-1.70384
0
LINE
8
BLACK
6
CONTINUOUS
10
0.0386174
20
-1.70384
11
0.0502965
21
-1.69871
0
LINE
8
BLACK
6
CONTINUOUS
10
0.0502965
20
-1.69871
11
0.0613088
21
-1.69228
0
LINE
8
BLACK
6
CONTINUOUS
10
0.0613088
20
-1.69228
11
0.0715086
21
-1.68462
0
LINE
8
BLACK
6
CONTINUOUS
10
0.0715086
20
-1.68462
11
0.0807606
21
-1.67584
0
LINE
8
BLACK
6
CONTINUOUS
10
0.0807606
20
-1.67584
11
0.0889421
21
-1.66605
0
LINE
8
BLACK
6
CONTINUOUS
10
0.0889421
20
-1.66605
11
0.0959447
21
-1.65539
0
LINE
8
BLACK
6
CONTINUOUS
10
0.0959447
20
-1.65539
11
0.101676
21
-1.644
0
LINE
8
BLACK
6
CONTINUOUS
10
0.101676
20
-1.644
11
0.106059
21
-1.63202
0
LINE
8
BLACK
6
CONTINUOUS
10
0.106059
20
-1.63202
11
0.109036
21
-1.61962
0
LINE
8
BLACK
6
CONTINUOUS
10
0.109036
20
-1.61962
11
0.110569
21
-1.60696
0
LINE
8
BLACK
6
CONTINUOUS
10
0.110569
20
-1.60696
11
0.110787
21
-1.6
0
LINE
8
BLACK
6
CONTINUOUS
10
0.110787
20
-1.6
11
0.110053
21
-1.58727
0
LINE
8
BLACK
6
CONTINUOUS
10
0.110053
20
-1.58727
11
0.10786
21
-1.5747
0
LINE
8
BLACK
6
CONTINUOUS
10
0.10786
20
-1.5747
11
0.104238
21
-1.56247
0
LINE
8
BLACK
6
CONTINUOUS
10
0.104238
20
-1.56247
11
0.0992336
21
-1.55074
0
LINE
8
BLACK
6
CONTINUOUS
10
0.0992336
20
-1.55074
11
0.0929142
21
-1.53966
0
LINE
8
BLACK
6
CONTINUOUS
10
0.0929142
20
-1.53966
11
0.0853632
21
-1.52938
0
LINE
8
BLACK
6
CONTINUOUS
10
0.0853632
20
-1.52938
11
0.0766808
21
-1.52004
0
LINE
8
BLACK
6
CONTINUOUS
10
0.0766808
20
-1.52004
11
0.066982
21
-1.51175
0
LINE
8
BLACK
6
CONTINUOUS
10
0.066982
20
-1.51175
11
0.0563954
21
-1.50464
0
LINE
8
BLACK
6
CONTINUOUS
10
0.0563954
20
-1.50464
11
0.0450613
21
-1.49879
0
LINE
8
BLACK
6
CONTINUOUS
10
0.0450613
20
-1.49879
11
0.03313
21
-1.49428
0
LINE
8
BLACK
6
CONTINUOUS
10
0.03313
20
-1.49428
11
0.0207595
21
-1.49117
0
LINE
8
BLACK
6
CONTINUOUS
10
0.0207595
20
-1.49117
11
0.00811386
21
-1.48951
0
LINE
8
BLACK
6
CONTINUOUS
10
0.00811386
20
-1.48951
11
-0.00463929
21
-1.48931
0
LINE
8
BLACK
6
CONTINUOUS
10
-0.00463929
20
-1.48931
11
-0.017331
21
-1.49058
0
LINE
8
BLACK
6
CONTINUOUS
10
-0.017331
20
-1.49058
11
-0.029793
21
-1.49329
0
LINE
8
BLACK
6
CONTINUOUS
10
-0.029793
20
-1.49329
11
-0.04186
21
-1.49743
0
LINE
8
BLACK
6
CONTINUOUS
10
-0.04186
20
-1.49743
11
-0.0533722
21
-1.50292
0
LINE
8
BLACK
6
CONTINUOUS
10
-0.0533722
20
-1.50292
11
-0.0641771
21
-1.50969
0
LINE
8
BLACK
6
CONTINUOUS
10
-0.0641771
20
-1.50969
11
-0.0741313
21
-1.51767
0
LINE
8
BLACK
6
CONTINUOUS
10
-0.0741313
20
-1.51767
11
-0.0831029
21
-1.52673
0
LINE
8
BLACK
6
CONTINUOUS
10
-0.0831029
20
-1.52673
11
-0.090973
21
-1.53677
0
LINE
8
BLACK
6
CONTINUOUS
10
-0.090973
20
-1.53677
11
-0.0976374
21
-1.54765
0
LINE
8
BLACK
6
CONTINUOUS
10
-0.0976374
20
-1.54765
11
-0.103008
21
-1.55922
0
LINE
8
BLACK
6
CONTINUOUS
10
-0.103008
20
-1.55922
11
-0.107012
21
-1.57133
0
LINE
8
BLACK
6
CONTINUOUS
10
-0.107012
20
-1.57133
11
-0.109599
21
-1.58382
0
LINE
8
BLACK
6
CONTINUOUS
10
-0.109599
20
-1.58382
11
-0.110733
21
-1.59652
0
LINE
8
BLACK
6
CONTINUOUS
10
-0.110733
20
-1.59652
11
-0.110399
21
-1.60927
0
LINE
8
BLACK
6
CONTINUOUS
10
-0.110399
20
-1.60927
11
-0.108602
21
-1.6219
0
LINE
8
BLACK
6
CONTINUOUS
10
-0.122078
20
0.0295339
11
-0.118025
21
0.0429577
0
LINE
8
BLACK
6
CONTINUOUS
10
-0.118025
20
0.0429577
11
-0.112501
21
0.0558462
0
LINE
8
BLACK
6
CONTINUOUS
10
-0.112501
20
0.0558462
11
-0.105575
21
0.0680385
0
LINE
8
BLACK
6
CONTINUOUS
10
-0.105575
20
0.0680385
11
-0.097333
21
0.0793829
0
LINE
8
BLACK
6
CONTINUOUS
10
-0.097333
20
0.0793829
11
-0.0878777
21
0.0897378
0
LINE
8
BLACK
6
CONTINUOUS
10
-0.0878777
20
0.0897378
11
-0.0773271
21
0.0989741
0
LINE
8
BLACK
6
CONTINUOUS
10
-0.0773271
20
0.0989741
11
-0.0658126
21
0.106977
0
LINE
8
BLACK
6
CONTINUOUS
10
-0.0658126
20
0.106977
11
-0.0534779
21
0.113646
0
LINE
8
BLACK
6
CONTINUOUS
10
-0.0534779
20
0.113646
11
-0.0404766
21
0.118899
0
LINE
8
BLACK
6
CONTINUOUS
10
-0.0404766
20
0.118899
11
-0.0269707
21
0.12267
0
LINE
8
BLACK
6
CONTINUOUS
10
-0.0269707
20
0.12267
11
-0.0131288
21
0.124912
0
LINE
8
BLACK
6
CONTINUOUS
10
-0.0131288
20
0.124912
11
0.00087685
21
0.125597
0
LINE
8
BLACK
6
CONTINUOUS
10
0.00087685
20
0.125597
11
0.0148715
21
0.124716
0
LINE
8
BLACK
6
CONTINUOUS
10
0.0148715
20
0.124716
11
0.0286809
21
0.122281
0
LINE
8
BLACK
6
CONTINUOUS
10
0.0286809
20
0.122281
11
0.0421327
21
0.118322
0
LINE
8
BLACK
6
CONTINUOUS
10
0.0421327
20
0.118322
11
0.0550594
21
0.112889
0
LINE
8
BLACK
6
CONTINUOUS
10
0.0550594
20
0.112889
11
0.0672998
21
0.106048
0
LINE
8
BLACK
6
CONTINUOUS
10
0.0672998
20
0.106048
11
0.0787015
21
0.0978848
0
LINE
8
BLACK
6
CONTINUOUS
10
0.0787015
20
0.0978848
11
0.0891221
21
0.088502
0
LINE
8
BLACK
6
CONTINUOUS
10
0.0891221
20
0.088502
11
0.0984319
21
0.0780161
0
LINE
8
BLACK
6
CONTINUOUS
10
0.0984319
20
0.0780161
11
0.106515
21
0.0665579
0
LINE
8
BLACK
6
CONTINUOUS
10
0.106515
20
0.0665579
11
0.11327
21
0.05427
0
LINE
8
BLACK
6
CONTINUOUS
10
0.11327
20
0.05427
11
0.118614
21
0.0413057
0
LINE
8
BLACK
6
CONTINUOUS
10
0.118614
20
0.0413057
11
0.122479
21
0.0278265
0
LINE
8
BLACK
6
CONTINUOUS
10
0.122479
20
0.0278265
11
0.124817
21
0.0140005
0
LINE
8
BLACK
6
CONTINUOUS
10
0.124817
20
0.0140005
11
0.1256
21
0
0
LINE
8
BLACK
6
CONTINUOUS
10
0.1256
20
0
11
0.125551
21
-0.00350697
0
LINE
8
BLACK
6
CONTINUOUS
10
0.125551
20
-0.00350697
11
0.124378
21
-0.0174802
0
LINE
8
BLACK
6
CONTINUOUS
10
0.124378
20
-0.0174802
11
0.121654
21
-0.0312354
0
LINE
8
BLACK
6
CONTINUOUS
10
0.121654
20
-0.0312354
11
0.117414
21
-0.0446014
0
LINE
8
BLACK
6
CONTINUOUS
10
0.117414
20
-0.0446014
11
0.111711
21
-0.0574115
0
LINE
8
BLACK
6
CONTINUOUS
10
0.111711
20
-0.0574115
11
0.104615
21
-0.069506
0
LINE
8
BLACK
6
CONTINUOUS
10
0.104615
20
-0.069506
11
0.0962152
21
-0.0807341
0
LINE
8
BLACK
6
CONTINUOUS
10
0.0962152
20
-0.0807341
11
0.0866162
21
-0.090956
0
LINE
8
BLACK
6
CONTINUOUS
10
0.0866162
20
-0.090956
11
0.0759376
21
-0.100044
0
LINE
8
BLACK
6
CONTINUOUS
10
0.0759376
20
-0.100044
11
0.0643126
21
-0.107885
0
LINE
8
BLACK
6
CONTINUOUS
10
0.0643126
20
-0.107885
11
0.0518859
21
-0.114382
0
LINE
8
BLACK
6
CONTINUOUS
10
0.0518859
20
-0.114382
11
0.0388125
21
-0.119453
0
LINE
8
BLACK
6
CONTINUOUS
10
0.0388125
20
-0.119453
11
0.0252554
21
-0.123035
0
LINE
8
BLACK
6
CONTINUOUS
10
0.0252554
20
-0.123035
11
0.0113835
21
-0.125083
0
LINE
8
BLACK
6
CONTINUOUS
10
0.0113835
20
-0.125083
11
-0.00263035
21
-0.125572
0
LINE
8
BLACK
6
CONTINUOUS
10
-0.00263035
20
-0.125572
11
-0.0166114
21
-0.124497
0
LINE
8
BLACK
6
CONTINUOUS
10
-0.0166114
20
-0.124497
11
-0.0303854
21
-0.121869
0
LINE
8
BLACK
6
CONTINUOUS
10
-0.0303854
20
-0.121869
11
-0.0437806
21
-0.117723
0
LINE
8
BLACK
6
CONTINUOUS
10
-0.0437806
20
-0.117723
11
-0.0566302
21
-0.112109
0
LINE
8
BLACK
6
CONTINUOUS
10
-0.0566302
20
-0.112109
11
-0.0687739
21
-0.105098
0
LINE
8
BLACK
6
CONTINUOUS
10
-0.0687739
20
-0.105098
11
-0.0800605
21
-0.0967765
0
LINE
8
BLACK
6
CONTINUOUS
10
-0.0800605
20
-0.0967765
11
-0.0903491
21
-0.0872491
0
LINE
8
BLACK
6
CONTINUOUS
10
-0.0903491
20
-0.0872491
11
-0.0995116
21
-0.0766343
0
LINE
8
BLACK
6
CONTINUOUS
10
-0.0995116
20
-0.0766343
11
-0.107434
21
-0.0650642
0
LINE
8
BLACK
6
CONTINUOUS
10
-0.107434
20
-0.0650642
11
-0.114017
21
-0.0526832
0
LINE
8
BLACK
6
CONTINUOUS
10
-0.114017
20
-0.0526832
11
-0.119179
21
-0.0396455
0
LINE
8
BLACK
6
CONTINUOUS
10
-0.119179
20
-0.0396455
11
-0.122855
21
-0.0261137
0
LINE
8
BLACK
6
CONTINUOUS
10
-0.122855
20
-0.0261137
11
-0.125001
21
-0.0122564
0
LINE
8
BLACK
6
CONTINUOUS
10
-0.125001
20
-0.0122564
11
-0.125588
21
0.00175366
0
LINE
8
BLACK
6
CONTINUOUS
10
-0.125588
20
0.00175366
11
-0.125467
21
0.00347992
0
LINE
8
BLACK
6
CONTINUOUS
10
-0.125467
20
0.00347992
11
-0.12461
21
0.0157419
0
LINE
8
BLACK
6
CONTINUOUS
10
-0.12461
20
0.0157419
11
-0.122078
21
0.0295339
0
LINE
8
BLACK
6
CONTINUOUS
10
-0.108602
20
-0.021898
11
-0.105365
21
-0.0342352
0
LINE
8
BLACK
6
CONTINUOUS
10
-0.105365
20
-0.0342352
11
-0.100732
21
-0.0461187
0
LINE
8
BLACK
6
CONTINUOUS
10
-0.100732
20
-0.0461187
11
-0.0947636
21
-0.0573909
0
LINE
8
BLACK
6
CONTINUOUS
10
-0.0947636
20
-0.0573909
11
-0.0875393
21
-0.0679024
0
LINE
8
BLACK
6
CONTINUOUS
10
-0.0875393
20
-0.0679024
11
-0.0791546
21
-0.0775139
0
LINE
8
BLACK
6
CONTINUOUS
10
-0.0791546
20
-0.0775139
11
-0.0697208
21
-0.086098
0
LINE
8
BLACK
6
CONTINUOUS
10
-0.0697208
20
-0.086098
11
-0.0593629
21
-0.0935409
0
LINE
8
BLACK
6
CONTINUOUS
10
-0.0593629
20
-0.0935409
11
-0.0482181
21
-0.099744
0
LINE
8
BLACK
6
CONTINUOUS
10
-0.0482181
20
-0.099744
11
-0.0364343
21
-0.104625
0
LINE
8
BLACK
6
CONTINUOUS
10
-0.0364343
20
-0.104625
11
-0.0241675
21
-0.108119
0
LINE
8
BLACK
6
CONTINUOUS
10
-0.0241675
20
-0.108119
11
-0.0115804
21
-0.110181
0
LINE
8
BLACK
6
CONTINUOUS
10
-0.0115804
20
-0.110181
11
0.00116016
21
-0.110781
0
LINE
8
BLACK
6
CONTINUOUS
10
0.00116016
20
-0.110781
11
0.0138854
21
-0.109914
0
LINE
8
BLACK
6
CONTINUOUS
10
0.0138854
20
-0.109914
11
0.0264265
21
-0.107589
0
LINE
8
BLACK
6
CONTINUOUS
10
0.0264265
20
-0.107589
11
0.0386174
21
-0.103839
0
LINE
8
BLACK
6
CONTINUOUS
10
0.0386174
20
-0.103839
11
0.0502965
21
-0.0987123
0
LINE
8
BLACK
6
CONTINUOUS
10
0.0502965
20
-0.0987123
11
0.0613088
21
-0.0922772
0
LINE
8
BLACK
6
CONTINUOUS
10
0.0613088
20
-0.0922772
11
0.0715086
21
-0.084619
0
LINE
8
BLACK
6
CONTINUOUS
10
0.0715086
20
-0.084619
11
0.0807606
21
-0.0758392
0
LINE
8
BLACK
6
CONTINUOUS
10
0.0807606
20
-0.0758392
11
0.0889421
21
-0.0660542
0
LINE
8
BLACK
6
CONTINUOUS
10
0.0889421
20
-0.0660542
11
0.0959447
21
-0.0553937
0
LINE
8
BLACK
6
CONTINUOUS
10
0.0959447
20
-0.0553937
11
0.101676
21
-0.043999
0
LINE
8
BLACK
6
CONTINUOUS
10
0.101676
20
-0.043999
11
0.106059
21
-0.0320211
0
LINE
8
BLACK
6
CONTINUOUS
10
0.106059
20
-0.0320211
11
0.109036
21
-0.0196188
0
LINE
8
BLACK
6
CONTINUOUS
10
0.109036
20
-0.0196188
11
0.110569
21
-0.00695642
0
LINE
8
BLACK
6
CONTINUOUS
10
0.110569
20
-0.00695642
11
0.110787
21
0
0
LINE
8
BLACK
6
CONTINUOUS
10
0.110787
20
0
11
0.110053
21
0.0127336
0
LINE
8
BLACK
6
CONTINUOUS
10
0.110053
20
0.0127336
11
0.10786
21
0.0252984
0
LINE
8
BLACK
6
CONTINUOUS
10
0.10786
20
0.0252984
11
0.104238
21
0.0375279
0
LINE
8
BLACK
6
CONTINUOUS
10
0.104238
20
0.0375279
11
0.0992336
21
0.04926
0
LINE
8
BLACK
6
CONTINUOUS
10
0.0992336
20
0.04926
11
0.0929142
21
0.0603392
0
LINE
8
BLACK
6
CONTINUOUS
10
0.0929142
20
0.0603392
11
0.0853632
21
0.0706186
0
LINE
8
BLACK
6
CONTINUOUS
10
0.0853632
20
0.0706186
11
0.0766808
21
0.079962
0
LINE
8
BLACK
6
CONTINUOUS
10
0.0766808
20
0.079962
11
0.066982
21
0.0882455
0
LINE
8
BLACK
6
CONTINUOUS
10
0.066982
20
0.0882455
11
0.0563954
21
0.0953594
0
LINE
8
BLACK
6
CONTINUOUS
10
0.0563954
20
0.0953594
11
0.0450613
21
0.101209
0
LINE
8
BLACK
6
CONTINUOUS
10
0.0450613
20
0.101209
11
0.03313
21
0.105718
0
LINE
8
BLACK
6
CONTINUOUS
10
0.03313
20
0.105718
11
0.0207595
21
0.108825
0
LINE
8
BLACK
6
CONTINUOUS
10
0.0207595
20
0.108825
11
0.00811386
21
0.11049
0
LINE
8
BLACK
6
CONTINUOUS
10
0.00811386
20
0.11049
11
-0.00463929
21
0.11069
0
LINE
8
BLACK
6
CONTINUOUS
10
-0.00463929
20
0.11069
11
-0.017331
21
0.109423
0
LINE
8
BLACK
6
CONTINUOUS
10
-0.017331
20
0.109423
11
-0.029793
21
0.106706
0
LINE
8
BLACK
6
CONTINUOUS
10
-0.029793
20
0.106706
11
-0.04186
21
0.102575
0
LINE
8
BLACK
6
CONTINUOUS
10
-0.04186
20
0.102575
11
-0.0533722
21
0.0970838
0
LINE
8
BLACK
6
CONTINUOUS
10
-0.0533722
20
0.0970838
11
-0.0641771
21
0.0903059
0
LINE
8
BLACK
6
CONTINUOUS
10
-0.0641771
20
0.0903059
11
-0.0741313
21
0.0823311
0
LINE
8
BLACK
6
CONTINUOUS
10
-0.0741313
20
0.0823311
11
-0.0831029
21
0.073265
0
LINE
8
BLACK
6
CONTINUOUS
10
-0.0831029
20
0.073265
11
-0.090973
21
0.0632279
0
LINE
8
BLACK
6
CONTINUOUS
10
-0.090973
20
0.0632279
11
-0.0976374
21
0.0523527
0
LINE
8
BLACK
6
CONTINUOUS
10
-0.0976374
20
0.0523527
11
-0.103008
21
0.0407836
0
LINE
8
BLACK
6
CONTINUOUS
10
-0.103008
20
0.0407836
11
-0.107012
21
0.0286739
0
LINE
8
BLACK
6
CONTINUOUS
10
-0.107012
20
0.0286739
11
-0.109599
21
0.0161842
0
LINE
8
BLACK
6
CONTINUOUS
10
-0.109599
20
0.0161842
11
-0.110733
21
0.00347992
0
LINE
8
BLACK
6
CONTINUOUS
10
-0.110733
20
0.00347992
11
-0.110399
21
-0.00927047
0
LINE
8
BLACK
6
CONTINUOUS
10
-0.110399
20
-0.00927047
11
-0.108602
21
-0.021898
  0
ENDSEC
  0
EOF
