  0
SECTION
  2
HEADER
  9
$ANGBASE
  50
0.0
  9
$ANGDIR
  70
1
  9
$MEASUREMENT
  70
0
  0
ENDSEC
  0
SECTION
  2
TABLES
  0
TABLE
  2
LTYPE
  70
4
  0
LTYPE
  5
40F
  2
CONTINUOUS
  70
0
  3
Solid line
  72
65
  73
0
  40
0.0
  0
LTYPE
  5
410
  2
DASHDOT
 70
0
  3
Dash Dot ____ _ ____ _
 72
65
 73
4
 40
2.0
 49
1.25
 49
-0.25
 49
0.25
 49
-0.25
  0
LTYPE
  5
411
  2
DASHED
 70
0
  3
Dashed __ __ __ __ __
 72
65
 73
2
 40
0.75
 49
0.5
 49
-0.25
  0
LTYPE
  5
43B
  2
DOTTED
 70
0
  3
Dotted .  .  .  .
 72
65
 73
2
 40
0.2
 49
0.0
 49
-0.2
  0
ENDTAB
  0
TABLE
  2
STYLE
  70
4
  0
STYLE
  2
KICAD
  70
0
  40
0
  41
1
  42
1
  50
0
  71
0
  3
isocp.shx
  0
STYLE
  2
KICADB
  70
0
  40
0
  41
1
  42
1
  50
0
  71
0
  3
isocp.shx
  0
STYLE
  2
KICADI
  70
0
  40
0
  41
1
  42
1
  50
15
  71
0
  3
isocp.shx
  0
STYLE
  2
KICADBI
  70
0
  40
0
  41
1
  42
1
  50
15
  71
0
  3
isocp.shx
  0
ENDTAB
  0
TABLE
  2
LAYER
  70
1
  0
LAYER
  2
BLACK
  70
0
  62
7
  6
CONTINUOUS
  0
ENDTAB
  0
ENDSEC
  0
SECTION
  2
ENTITIES
0
LINE
8
BLACK
6
CONTINUOUS
10
0.691954
20
-1.44223
11
0.693284
21
-1.4425
0
LINE
8
BLACK
6
CONTINUOUS
10
0.693284
20
-1.4425
11
0.699659
21
-1.44569
0
LINE
8
BLACK
6
CONTINUOUS
10
0.699659
20
-1.44569
11
0.70037
21
-1.44632
0
LINE
8
BLACK
6
CONTINUOUS
10
0.70037
20
-1.44632
11
0.701193
21
-1.44679
0
LINE
8
BLACK
6
CONTINUOUS
10
0.701193
20
-1.44679
11
0.70438
21
-1.44998
0
LINE
8
BLACK
6
CONTINUOUS
10
0.70438
20
-1.44998
11
0.704856
21
-1.4508
0
LINE
8
BLACK
6
CONTINUOUS
10
0.704856
20
-1.4508
11
0.705487
21
-1.45151
0
LINE
8
BLACK
6
CONTINUOUS
10
0.705487
20
-1.45151
11
0.708674
21
-1.45789
0
LINE
8
BLACK
6
CONTINUOUS
10
0.708674
20
-1.45789
11
0.708946
21
-1.45922
0
LINE
8
BLACK
6
CONTINUOUS
10
0.708946
20
-1.45922
11
0.709297
21
-1.46053
0
LINE
8
BLACK
6
CONTINUOUS
10
0.709297
20
-1.46053
11
0.709297
21
-1.48012
0
LINE
8
BLACK
6
CONTINUOUS
10
0.709297
20
-1.48012
11
0.735263
21
-1.48012
0
LINE
8
BLACK
6
CONTINUOUS
10
0.735263
20
-1.48012
11
0.738216
21
-1.48091
0
LINE
8
BLACK
6
CONTINUOUS
10
0.738216
20
-1.48091
11
0.740377
21
-1.48307
0
LINE
8
BLACK
6
CONTINUOUS
10
0.740377
20
-1.48307
11
0.741168
21
-1.48603
0
LINE
8
BLACK
6
CONTINUOUS
10
0.741168
20
-1.48603
11
0.740377
21
-1.48898
0
LINE
8
BLACK
6
CONTINUOUS
10
0.740377
20
-1.48898
11
0.738216
21
-1.49114
0
LINE
8
BLACK
6
CONTINUOUS
10
0.738216
20
-1.49114
11
0.735263
21
-1.49193
0
LINE
8
BLACK
6
CONTINUOUS
10
0.735263
20
-1.49193
11
0.703392
21
-1.49193
0
LINE
8
BLACK
6
CONTINUOUS
10
0.703392
20
-1.49193
11
0.668334
21
-1.49193
0
LINE
8
BLACK
6
CONTINUOUS
10
0.668334
20
-1.49193
11
0.665381
21
-1.49114
0
LINE
8
BLACK
6
CONTINUOUS
10
0.665381
20
-1.49114
11
0.663219
21
-1.48898
0
LINE
8
BLACK
6
CONTINUOUS
10
0.663219
20
-1.48898
11
0.662428
21
-1.48603
0
LINE
8
BLACK
6
CONTINUOUS
10
0.662428
20
-1.48603
11
0.662428
21
-1.48603
0
LINE
8
BLACK
6
CONTINUOUS
10
0.662428
20
-1.48603
11
0.662428
21
-1.46053
0
LINE
8
BLACK
6
CONTINUOUS
10
0.662428
20
-1.46053
11
0.662779
21
-1.45922
0
LINE
8
BLACK
6
CONTINUOUS
10
0.662779
20
-1.45922
11
0.663052
21
-1.45789
0
LINE
8
BLACK
6
CONTINUOUS
10
0.663052
20
-1.45789
11
0.666239
21
-1.45151
0
LINE
8
BLACK
6
CONTINUOUS
10
0.666239
20
-1.45151
11
0.666869
21
-1.4508
0
LINE
8
BLACK
6
CONTINUOUS
10
0.666869
20
-1.4508
11
0.667345
21
-1.44998
0
LINE
8
BLACK
6
CONTINUOUS
10
0.667345
20
-1.44998
11
0.670532
21
-1.44679
0
LINE
8
BLACK
6
CONTINUOUS
10
0.670532
20
-1.44679
11
0.671355
21
-1.44632
0
LINE
8
BLACK
6
CONTINUOUS
10
0.671355
20
-1.44632
11
0.672067
21
-1.44569
0
LINE
8
BLACK
6
CONTINUOUS
10
0.672067
20
-1.44569
11
0.678441
21
-1.4425
0
LINE
8
BLACK
6
CONTINUOUS
10
0.678441
20
-1.4425
11
0.679771
21
-1.44223
0
LINE
8
BLACK
6
CONTINUOUS
10
0.679771
20
-1.44223
11
0.681082
21
-1.44187
0
LINE
8
BLACK
6
CONTINUOUS
10
0.681082
20
-1.44187
11
0.690643
21
-1.44187
0
LINE
8
BLACK
6
CONTINUOUS
10
0.690643
20
-1.44187
11
0.691954
21
-1.44223
0
LINE
8
BLACK
6
CONTINUOUS
10
0.678206
20
-1.45582
11
0.676374
21
-1.45765
0
LINE
8
BLACK
6
CONTINUOUS
10
0.676374
20
-1.45765
11
0.674239
21
-1.46192
0
LINE
8
BLACK
6
CONTINUOUS
10
0.674239
20
-1.46192
11
0.674239
21
-1.48012
0
LINE
8
BLACK
6
CONTINUOUS
10
0.674239
20
-1.48012
11
0.697486
21
-1.48012
0
LINE
8
BLACK
6
CONTINUOUS
10
0.697486
20
-1.48012
11
0.697486
21
-1.46192
0
LINE
8
BLACK
6
CONTINUOUS
10
0.697486
20
-1.46192
11
0.695351
21
-1.45765
0
LINE
8
BLACK
6
CONTINUOUS
10
0.695351
20
-1.45765
11
0.693519
21
-1.45582
0
LINE
8
BLACK
6
CONTINUOUS
10
0.693519
20
-1.45582
11
0.689249
21
-1.45369
0
LINE
8
BLACK
6
CONTINUOUS
10
0.689249
20
-1.45369
11
0.682476
21
-1.45369
0
LINE
8
BLACK
6
CONTINUOUS
10
0.682476
20
-1.45369
11
0.678206
21
-1.45582
0
LINE
8
BLACK
6
CONTINUOUS
10
0.738216
20
-1.41398
11
0.740377
21
-1.41614
0
LINE
8
BLACK
6
CONTINUOUS
10
0.740377
20
-1.41614
11
0.741168
21
-1.4191
0
LINE
8
BLACK
6
CONTINUOUS
10
0.741168
20
-1.4191
11
0.740377
21
-1.42205
0
LINE
8
BLACK
6
CONTINUOUS
10
0.740377
20
-1.42205
11
0.738216
21
-1.42421
0
LINE
8
BLACK
6
CONTINUOUS
10
0.738216
20
-1.42421
11
0.735263
21
-1.425
0
LINE
8
BLACK
6
CONTINUOUS
10
0.735263
20
-1.425
11
0.668334
21
-1.425
0
LINE
8
BLACK
6
CONTINUOUS
10
0.668334
20
-1.425
11
0.665381
21
-1.42421
0
LINE
8
BLACK
6
CONTINUOUS
10
0.665381
20
-1.42421
11
0.663219
21
-1.42205
0
LINE
8
BLACK
6
CONTINUOUS
10
0.663219
20
-1.42205
11
0.662428
21
-1.4191
0
LINE
8
BLACK
6
CONTINUOUS
10
0.662428
20
-1.4191
11
0.663219
21
-1.41614
0
LINE
8
BLACK
6
CONTINUOUS
10
0.663219
20
-1.41614
11
0.665381
21
-1.41398
0
LINE
8
BLACK
6
CONTINUOUS
10
0.665381
20
-1.41398
11
0.668334
21
-1.41319
0
LINE
8
BLACK
6
CONTINUOUS
10
0.668334
20
-1.41319
11
0.735263
21
-1.41319
0
LINE
8
BLACK
6
CONTINUOUS
10
0.735263
20
-1.41319
11
0.738216
21
-1.41398
0
LINE
8
BLACK
6
CONTINUOUS
10
0.735276
20
-1.34308
11
0.735289
21
-1.34307
0
LINE
8
BLACK
6
CONTINUOUS
10
0.735289
20
-1.34307
11
0.736755
21
-1.34347
0
LINE
8
BLACK
6
CONTINUOUS
10
0.736755
20
-1.34347
11
0.738216
21
-1.34387
0
LINE
8
BLACK
6
CONTINUOUS
10
0.738216
20
-1.34387
11
0.738225
21
-1.34388
0
LINE
8
BLACK
6
CONTINUOUS
10
0.738225
20
-1.34388
11
0.738238
21
-1.34388
0
LINE
8
BLACK
6
CONTINUOUS
10
0.738238
20
-1.34388
11
0.739305
21
-1.34496
0
LINE
8
BLACK
6
CONTINUOUS
10
0.739305
20
-1.34496
11
0.740377
21
-1.34603
0
LINE
8
BLACK
6
CONTINUOUS
10
0.740377
20
-1.34603
11
0.740381
21
-1.34604
0
LINE
8
BLACK
6
CONTINUOUS
10
0.740381
20
-1.34604
11
0.74039
21
-1.34605
0
LINE
8
BLACK
6
CONTINUOUS
10
0.74039
20
-1.34605
11
0.740776
21
-1.34752
0
LINE
8
BLACK
6
CONTINUOUS
10
0.740776
20
-1.34752
11
0.741168
21
-1.34898
0
LINE
8
BLACK
6
CONTINUOUS
10
0.741168
20
-1.34898
11
0.741165
21
-1.34899
0
LINE
8
BLACK
6
CONTINUOUS
10
0.741165
20
-1.34899
11
0.741168
21
-1.34901
0
LINE
8
BLACK
6
CONTINUOUS
10
0.741168
20
-1.34901
11
0.740768
21
-1.35047
0
LINE
8
BLACK
6
CONTINUOUS
10
0.740768
20
-1.35047
11
0.740377
21
-1.35193
0
LINE
8
BLACK
6
CONTINUOUS
10
0.740377
20
-1.35193
11
0.740367
21
-1.35194
0
LINE
8
BLACK
6
CONTINUOUS
10
0.740367
20
-1.35194
11
0.740364
21
-1.35196
0
LINE
8
BLACK
6
CONTINUOUS
10
0.740364
20
-1.35196
11
0.739285
21
-1.35302
0
LINE
8
BLACK
6
CONTINUOUS
10
0.739285
20
-1.35302
11
0.738216
21
-1.35409
0
LINE
8
BLACK
6
CONTINUOUS
10
0.738216
20
-1.35409
11
0.738202
21
-1.3541
0
LINE
8
BLACK
6
CONTINUOUS
10
0.738202
20
-1.3541
11
0.738193
21
-1.35411
0
LINE
8
BLACK
6
CONTINUOUS
10
0.738193
20
-1.35411
11
0.690571
21
-1.38132
0
LINE
8
BLACK
6
CONTINUOUS
10
0.690571
20
-1.38132
11
0.735263
21
-1.38132
0
LINE
8
BLACK
6
CONTINUOUS
10
0.735263
20
-1.38132
11
0.738216
21
-1.38211
0
LINE
8
BLACK
6
CONTINUOUS
10
0.738216
20
-1.38211
11
0.740377
21
-1.38427
0
LINE
8
BLACK
6
CONTINUOUS
10
0.740377
20
-1.38427
11
0.741168
21
-1.38723
0
LINE
8
BLACK
6
CONTINUOUS
10
0.741168
20
-1.38723
11
0.740377
21
-1.39018
0
LINE
8
BLACK
6
CONTINUOUS
10
0.740377
20
-1.39018
11
0.738216
21
-1.39234
0
LINE
8
BLACK
6
CONTINUOUS
10
0.738216
20
-1.39234
11
0.735263
21
-1.39313
0
LINE
8
BLACK
6
CONTINUOUS
10
0.735263
20
-1.39313
11
0.668334
21
-1.39313
0
LINE
8
BLACK
6
CONTINUOUS
10
0.668334
20
-1.39313
11
0.668321
21
-1.39313
0
LINE
8
BLACK
6
CONTINUOUS
10
0.668321
20
-1.39313
11
0.668307
21
-1.39313
0
LINE
8
BLACK
6
CONTINUOUS
10
0.668307
20
-1.39313
11
0.666841
21
-1.39273
0
LINE
8
BLACK
6
CONTINUOUS
10
0.666841
20
-1.39273
11
0.665381
21
-1.39234
0
LINE
8
BLACK
6
CONTINUOUS
10
0.665381
20
-1.39234
11
0.665371
21
-1.39233
0
LINE
8
BLACK
6
CONTINUOUS
10
0.665371
20
-1.39233
11
0.665358
21
-1.39233
0
LINE
8
BLACK
6
CONTINUOUS
10
0.665358
20
-1.39233
11
0.664291
21
-1.39125
0
LINE
8
BLACK
6
CONTINUOUS
10
0.664291
20
-1.39125
11
0.663219
21
-1.39018
0
LINE
8
BLACK
6
CONTINUOUS
10
0.663219
20
-1.39018
11
0.663216
21
-1.39016
0
LINE
8
BLACK
6
CONTINUOUS
10
0.663216
20
-1.39016
11
0.663206
21
-1.39016
0
LINE
8
BLACK
6
CONTINUOUS
10
0.663206
20
-1.39016
11
0.662821
21
-1.38869
0
LINE
8
BLACK
6
CONTINUOUS
10
0.662821
20
-1.38869
11
0.662428
21
-1.38723
0
LINE
8
BLACK
6
CONTINUOUS
10
0.662428
20
-1.38723
11
0.662432
21
-1.38721
0
LINE
8
BLACK
6
CONTINUOUS
10
0.662432
20
-1.38721
11
0.662428
21
-1.3872
0
LINE
8
BLACK
6
CONTINUOUS
10
0.662428
20
-1.3872
11
0.662828
21
-1.38573
0
LINE
8
BLACK
6
CONTINUOUS
10
0.662828
20
-1.38573
11
0.663219
21
-1.38427
0
LINE
8
BLACK
6
CONTINUOUS
10
0.663219
20
-1.38427
11
0.663229
21
-1.38426
0
LINE
8
BLACK
6
CONTINUOUS
10
0.663229
20
-1.38426
11
0.663232
21
-1.38425
0
LINE
8
BLACK
6
CONTINUOUS
10
0.663232
20
-1.38425
11
0.664309
21
-1.38318
0
LINE
8
BLACK
6
CONTINUOUS
10
0.664309
20
-1.38318
11
0.665381
21
-1.38211
0
LINE
8
BLACK
6
CONTINUOUS
10
0.665381
20
-1.38211
11
0.665394
21
-1.38211
0
LINE
8
BLACK
6
CONTINUOUS
10
0.665394
20
-1.38211
11
0.665404
21
-1.3821
0
LINE
8
BLACK
6
CONTINUOUS
10
0.665404
20
-1.3821
11
0.713025
21
-1.35489
0
LINE
8
BLACK
6
CONTINUOUS
10
0.713025
20
-1.35489
11
0.668334
21
-1.35489
0
LINE
8
BLACK
6
CONTINUOUS
10
0.668334
20
-1.35489
11
0.665381
21
-1.35409
0
LINE
8
BLACK
6
CONTINUOUS
10
0.665381
20
-1.35409
11
0.663219
21
-1.35193
0
LINE
8
BLACK
6
CONTINUOUS
10
0.663219
20
-1.35193
11
0.662428
21
-1.34898
0
LINE
8
BLACK
6
CONTINUOUS
10
0.662428
20
-1.34898
11
0.663219
21
-1.34603
0
LINE
8
BLACK
6
CONTINUOUS
10
0.663219
20
-1.34603
11
0.665381
21
-1.34387
0
LINE
8
BLACK
6
CONTINUOUS
10
0.665381
20
-1.34387
11
0.668334
21
-1.34307
0
LINE
8
BLACK
6
CONTINUOUS
10
0.668334
20
-1.34307
11
0.735263
21
-1.34307
0
LINE
8
BLACK
6
CONTINUOUS
10
0.735263
20
-1.34307
11
0.735276
21
-1.34308
0
LINE
8
BLACK
6
CONTINUOUS
10
0.738216
20
-1.27375
11
0.740377
21
-1.27591
0
LINE
8
BLACK
6
CONTINUOUS
10
0.740377
20
-1.27591
11
0.741168
21
-1.27886
0
LINE
8
BLACK
6
CONTINUOUS
10
0.741168
20
-1.27886
11
0.740377
21
-1.28182
0
LINE
8
BLACK
6
CONTINUOUS
10
0.740377
20
-1.28182
11
0.738216
21
-1.28398
0
LINE
8
BLACK
6
CONTINUOUS
10
0.738216
20
-1.28398
11
0.735263
21
-1.28477
0
LINE
8
BLACK
6
CONTINUOUS
10
0.735263
20
-1.28477
11
0.70611
21
-1.28477
0
LINE
8
BLACK
6
CONTINUOUS
10
0.70611
20
-1.28477
11
0.70611
21
-1.3112
0
LINE
8
BLACK
6
CONTINUOUS
10
0.70611
20
-1.3112
11
0.735263
21
-1.3112
0
LINE
8
BLACK
6
CONTINUOUS
10
0.735263
20
-1.3112
11
0.738216
21
-1.31199
0
LINE
8
BLACK
6
CONTINUOUS
10
0.738216
20
-1.31199
11
0.740377
21
-1.31416
0
LINE
8
BLACK
6
CONTINUOUS
10
0.740377
20
-1.31416
11
0.741168
21
-1.31711
0
LINE
8
BLACK
6
CONTINUOUS
10
0.741168
20
-1.31711
11
0.740377
21
-1.32006
0
LINE
8
BLACK
6
CONTINUOUS
10
0.740377
20
-1.32006
11
0.738216
21
-1.32222
0
LINE
8
BLACK
6
CONTINUOUS
10
0.738216
20
-1.32222
11
0.735263
21
-1.32301
0
LINE
8
BLACK
6
CONTINUOUS
10
0.735263
20
-1.32301
11
0.700205
21
-1.32301
0
LINE
8
BLACK
6
CONTINUOUS
10
0.700205
20
-1.32301
11
0.668334
21
-1.32301
0
LINE
8
BLACK
6
CONTINUOUS
10
0.668334
20
-1.32301
11
0.665381
21
-1.32222
0
LINE
8
BLACK
6
CONTINUOUS
10
0.665381
20
-1.32222
11
0.663219
21
-1.32006
0
LINE
8
BLACK
6
CONTINUOUS
10
0.663219
20
-1.32006
11
0.662428
21
-1.31711
0
LINE
8
BLACK
6
CONTINUOUS
10
0.662428
20
-1.31711
11
0.663219
21
-1.31416
0
LINE
8
BLACK
6
CONTINUOUS
10
0.663219
20
-1.31416
11
0.665381
21
-1.31199
0
LINE
8
BLACK
6
CONTINUOUS
10
0.665381
20
-1.31199
11
0.668334
21
-1.3112
0
LINE
8
BLACK
6
CONTINUOUS
10
0.668334
20
-1.3112
11
0.694299
21
-1.3112
0
LINE
8
BLACK
6
CONTINUOUS
10
0.694299
20
-1.3112
11
0.694299
21
-1.28477
0
LINE
8
BLACK
6
CONTINUOUS
10
0.694299
20
-1.28477
11
0.668334
21
-1.28477
0
LINE
8
BLACK
6
CONTINUOUS
10
0.668334
20
-1.28477
11
0.665381
21
-1.28398
0
LINE
8
BLACK
6
CONTINUOUS
10
0.665381
20
-1.28398
11
0.663219
21
-1.28182
0
LINE
8
BLACK
6
CONTINUOUS
10
0.663219
20
-1.28182
11
0.662428
21
-1.27886
0
LINE
8
BLACK
6
CONTINUOUS
10
0.662428
20
-1.27886
11
0.663219
21
-1.27591
0
LINE
8
BLACK
6
CONTINUOUS
10
0.663219
20
-1.27591
11
0.665381
21
-1.27375
0
LINE
8
BLACK
6
CONTINUOUS
10
0.665381
20
-1.27375
11
0.668334
21
-1.27296
0
LINE
8
BLACK
6
CONTINUOUS
10
0.668334
20
-1.27296
11
0.735263
21
-1.27296
0
LINE
8
BLACK
6
CONTINUOUS
10
0.735263
20
-1.27296
11
0.738216
21
-1.27375
0
LINE
8
BLACK
6
CONTINUOUS
10
0.713657
20
-1.19984
11
0.714385
21
-1.19983
0
LINE
8
BLACK
6
CONTINUOUS
10
0.714385
20
-1.19983
11
0.727134
21
-1.20302
0
LINE
8
BLACK
6
CONTINUOUS
10
0.727134
20
-1.20302
11
0.727179
21
-1.20304
0
LINE
8
BLACK
6
CONTINUOUS
10
0.727179
20
-1.20304
11
0.72723
21
-1.20304
0
LINE
8
BLACK
6
CONTINUOUS
10
0.72723
20
-1.20304
11
0.728512
21
-1.20378
0
LINE
8
BLACK
6
CONTINUOUS
10
0.728512
20
-1.20378
11
0.729806
21
-1.2045
0
LINE
8
BLACK
6
CONTINUOUS
10
0.729806
20
-1.2045
11
0.729833
21
-1.20455
0
LINE
8
BLACK
6
CONTINUOUS
10
0.729833
20
-1.20455
11
0.729877
21
-1.20457
0
LINE
8
BLACK
6
CONTINUOUS
10
0.729877
20
-1.20457
11
0.736251
21
-1.21095
0
LINE
8
BLACK
6
CONTINUOUS
10
0.736251
20
-1.21095
11
0.736727
21
-1.21177
0
LINE
8
BLACK
6
CONTINUOUS
10
0.736727
20
-1.21177
11
0.737358
21
-1.21248
0
LINE
8
BLACK
6
CONTINUOUS
10
0.737358
20
-1.21248
11
0.740545
21
-1.21885
0
LINE
8
BLACK
6
CONTINUOUS
10
0.740545
20
-1.21885
11
0.740817
21
-1.22018
0
LINE
8
BLACK
6
CONTINUOUS
10
0.740817
20
-1.22018
11
0.741168
21
-1.2215
0
LINE
8
BLACK
6
CONTINUOUS
10
0.741168
20
-1.2215
11
0.741168
21
-1.23424
0
LINE
8
BLACK
6
CONTINUOUS
10
0.741168
20
-1.23424
11
0.740817
21
-1.23556
0
LINE
8
BLACK
6
CONTINUOUS
10
0.740817
20
-1.23556
11
0.740545
21
-1.23689
0
LINE
8
BLACK
6
CONTINUOUS
10
0.740545
20
-1.23689
11
0.737358
21
-1.24326
0
LINE
8
BLACK
6
CONTINUOUS
10
0.737358
20
-1.24326
11
0.736727
21
-1.24397
0
LINE
8
BLACK
6
CONTINUOUS
10
0.736727
20
-1.24397
11
0.736251
21
-1.24479
0
LINE
8
BLACK
6
CONTINUOUS
10
0.736251
20
-1.24479
11
0.729877
21
-1.25117
0
LINE
8
BLACK
6
CONTINUOUS
10
0.729877
20
-1.25117
11
0.729833
21
-1.25119
0
LINE
8
BLACK
6
CONTINUOUS
10
0.729833
20
-1.25119
11
0.729806
21
-1.25124
0
LINE
8
BLACK
6
CONTINUOUS
10
0.729806
20
-1.25124
11
0.728512
21
-1.25196
0
LINE
8
BLACK
6
CONTINUOUS
10
0.728512
20
-1.25196
11
0.72723
21
-1.2527
0
LINE
8
BLACK
6
CONTINUOUS
10
0.72723
20
-1.2527
11
0.727179
21
-1.2527
0
LINE
8
BLACK
6
CONTINUOUS
10
0.727179
20
-1.2527
11
0.727134
21
-1.25272
0
LINE
8
BLACK
6
CONTINUOUS
10
0.727134
20
-1.25272
11
0.714385
21
-1.25591
0
LINE
8
BLACK
6
CONTINUOUS
10
0.714385
20
-1.25591
11
0.713657
21
-1.2559
0
LINE
8
BLACK
6
CONTINUOUS
10
0.713657
20
-1.2559
11
0.712953
21
-1.25609
0
LINE
8
BLACK
6
CONTINUOUS
10
0.712953
20
-1.25609
11
0.690643
21
-1.25609
0
LINE
8
BLACK
6
CONTINUOUS
10
0.690643
20
-1.25609
11
0.68994
21
-1.2559
0
LINE
8
BLACK
6
CONTINUOUS
10
0.68994
20
-1.2559
11
0.689211
21
-1.25591
0
LINE
8
BLACK
6
CONTINUOUS
10
0.689211
20
-1.25591
11
0.676463
21
-1.25272
0
LINE
8
BLACK
6
CONTINUOUS
10
0.676463
20
-1.25272
11
0.676418
21
-1.2527
0
LINE
8
BLACK
6
CONTINUOUS
10
0.676418
20
-1.2527
11
0.676366
21
-1.2527
0
LINE
8
BLACK
6
CONTINUOUS
10
0.676366
20
-1.2527
11
0.675084
21
-1.25196
0
LINE
8
BLACK
6
CONTINUOUS
10
0.675084
20
-1.25196
11
0.67379
21
-1.25124
0
LINE
8
BLACK
6
CONTINUOUS
10
0.67379
20
-1.25124
11
0.673764
21
-1.25119
0
LINE
8
BLACK
6
CONTINUOUS
10
0.673764
20
-1.25119
11
0.673719
21
-1.25117
0
LINE
8
BLACK
6
CONTINUOUS
10
0.673719
20
-1.25117
11
0.667345
21
-1.24479
0
LINE
8
BLACK
6
CONTINUOUS
10
0.667345
20
-1.24479
11
0.666869
21
-1.24397
0
LINE
8
BLACK
6
CONTINUOUS
10
0.666869
20
-1.24397
11
0.666239
21
-1.24326
0
LINE
8
BLACK
6
CONTINUOUS
10
0.666239
20
-1.24326
11
0.663052
21
-1.23689
0
LINE
8
BLACK
6
CONTINUOUS
10
0.663052
20
-1.23689
11
0.662779
21
-1.23556
0
LINE
8
BLACK
6
CONTINUOUS
10
0.662779
20
-1.23556
11
0.662428
21
-1.23424
0
LINE
8
BLACK
6
CONTINUOUS
10
0.662428
20
-1.23424
11
0.662428
21
-1.2215
0
LINE
8
BLACK
6
CONTINUOUS
10
0.662428
20
-1.2215
11
0.662779
21
-1.22018
0
LINE
8
BLACK
6
CONTINUOUS
10
0.662779
20
-1.22018
11
0.663052
21
-1.21885
0
LINE
8
BLACK
6
CONTINUOUS
10
0.663052
20
-1.21885
11
0.666239
21
-1.21248
0
LINE
8
BLACK
6
CONTINUOUS
10
0.666239
20
-1.21248
11
0.666869
21
-1.21177
0
LINE
8
BLACK
6
CONTINUOUS
10
0.666869
20
-1.21177
11
0.667345
21
-1.21095
0
LINE
8
BLACK
6
CONTINUOUS
10
0.667345
20
-1.21095
11
0.673719
21
-1.20457
0
LINE
8
BLACK
6
CONTINUOUS
10
0.673719
20
-1.20457
11
0.673764
21
-1.20455
0
LINE
8
BLACK
6
CONTINUOUS
10
0.673764
20
-1.20455
11
0.67379
21
-1.2045
0
LINE
8
BLACK
6
CONTINUOUS
10
0.67379
20
-1.2045
11
0.675084
21
-1.20378
0
LINE
8
BLACK
6
CONTINUOUS
10
0.675084
20
-1.20378
11
0.676366
21
-1.20304
0
LINE
8
BLACK
6
CONTINUOUS
10
0.676366
20
-1.20304
11
0.676418
21
-1.20304
0
LINE
8
BLACK
6
CONTINUOUS
10
0.676418
20
-1.20304
11
0.676463
21
-1.20302
0
LINE
8
BLACK
6
CONTINUOUS
10
0.676463
20
-1.20302
11
0.689211
21
-1.19983
0
LINE
8
BLACK
6
CONTINUOUS
10
0.689211
20
-1.19983
11
0.68994
21
-1.19984
0
LINE
8
BLACK
6
CONTINUOUS
10
0.68994
20
-1.19984
11
0.690643
21
-1.19965
0
LINE
8
BLACK
6
CONTINUOUS
10
0.690643
20
-1.19965
11
0.712953
21
-1.19965
0
LINE
8
BLACK
6
CONTINUOUS
10
0.712953
20
-1.19965
11
0.713657
21
-1.19984
0
LINE
8
BLACK
6
CONTINUOUS
10
0.680914
20
-1.21408
11
0.676374
21
-1.21862
0
LINE
8
BLACK
6
CONTINUOUS
10
0.676374
20
-1.21862
11
0.674239
21
-1.22289
0
LINE
8
BLACK
6
CONTINUOUS
10
0.674239
20
-1.22289
11
0.674239
21
-1.23285
0
LINE
8
BLACK
6
CONTINUOUS
10
0.674239
20
-1.23285
11
0.676374
21
-1.23712
0
LINE
8
BLACK
6
CONTINUOUS
10
0.676374
20
-1.23712
11
0.680914
21
-1.24166
0
LINE
8
BLACK
6
CONTINUOUS
10
0.680914
20
-1.24166
11
0.69137
21
-1.24427
0
LINE
8
BLACK
6
CONTINUOUS
10
0.69137
20
-1.24427
11
0.712226
21
-1.24427
0
LINE
8
BLACK
6
CONTINUOUS
10
0.712226
20
-1.24427
11
0.722682
21
-1.24166
0
LINE
8
BLACK
6
CONTINUOUS
10
0.722682
20
-1.24166
11
0.727222
21
-1.23712
0
LINE
8
BLACK
6
CONTINUOUS
10
0.727222
20
-1.23712
11
0.729357
21
-1.23285
0
LINE
8
BLACK
6
CONTINUOUS
10
0.729357
20
-1.23285
11
0.729357
21
-1.22289
0
LINE
8
BLACK
6
CONTINUOUS
10
0.729357
20
-1.22289
11
0.727222
21
-1.21862
0
LINE
8
BLACK
6
CONTINUOUS
10
0.727222
20
-1.21862
11
0.722682
21
-1.21408
0
LINE
8
BLACK
6
CONTINUOUS
10
0.722682
20
-1.21408
11
0.712226
21
-1.21147
0
LINE
8
BLACK
6
CONTINUOUS
10
0.712226
20
-1.21147
11
0.69137
21
-1.21147
0
LINE
8
BLACK
6
CONTINUOUS
10
0.69137
20
-1.21147
11
0.680914
21
-1.21408
0
LINE
8
BLACK
6
CONTINUOUS
10
0.738216
20
-1.13989
11
0.740377
21
-1.14205
0
LINE
8
BLACK
6
CONTINUOUS
10
0.740377
20
-1.14205
11
0.741168
21
-1.14501
0
LINE
8
BLACK
6
CONTINUOUS
10
0.741168
20
-1.14501
11
0.741168
21
-1.17688
0
LINE
8
BLACK
6
CONTINUOUS
10
0.741168
20
-1.17688
11
0.740377
21
-1.17983
0
LINE
8
BLACK
6
CONTINUOUS
10
0.740377
20
-1.17983
11
0.738216
21
-1.18199
0
LINE
8
BLACK
6
CONTINUOUS
10
0.738216
20
-1.18199
11
0.735263
21
-1.18278
0
LINE
8
BLACK
6
CONTINUOUS
10
0.735263
20
-1.18278
11
0.668334
21
-1.18278
0
LINE
8
BLACK
6
CONTINUOUS
10
0.668334
20
-1.18278
11
0.665381
21
-1.18199
0
LINE
8
BLACK
6
CONTINUOUS
10
0.665381
20
-1.18199
11
0.663219
21
-1.17983
0
LINE
8
BLACK
6
CONTINUOUS
10
0.663219
20
-1.17983
11
0.662428
21
-1.17688
0
LINE
8
BLACK
6
CONTINUOUS
10
0.662428
20
-1.17688
11
0.663219
21
-1.17392
0
LINE
8
BLACK
6
CONTINUOUS
10
0.663219
20
-1.17392
11
0.665381
21
-1.17176
0
LINE
8
BLACK
6
CONTINUOUS
10
0.665381
20
-1.17176
11
0.668334
21
-1.17097
0
LINE
8
BLACK
6
CONTINUOUS
10
0.668334
20
-1.17097
11
0.729357
21
-1.17097
0
LINE
8
BLACK
6
CONTINUOUS
10
0.729357
20
-1.17097
11
0.729357
21
-1.14501
0
LINE
8
BLACK
6
CONTINUOUS
10
0.729357
20
-1.14501
11
0.730148
21
-1.14205
0
LINE
8
BLACK
6
CONTINUOUS
10
0.730148
20
-1.14205
11
0.73231
21
-1.13989
0
LINE
8
BLACK
6
CONTINUOUS
10
0.73231
20
-1.13989
11
0.735263
21
-1.1391
0
LINE
8
BLACK
6
CONTINUOUS
10
0.735263
20
-1.1391
11
0.738216
21
-1.13989
0
LINE
8
BLACK
6
CONTINUOUS
10
0.707283
20
-1.07873
11
0.708011
21
-1.07872
0
LINE
8
BLACK
6
CONTINUOUS
10
0.708011
20
-1.07872
11
0.72076
21
-1.08191
0
LINE
8
BLACK
6
CONTINUOUS
10
0.72076
20
-1.08191
11
0.72133
21
-1.08222
0
LINE
8
BLACK
6
CONTINUOUS
10
0.72133
20
-1.08222
11
0.721968
21
-1.08236
0
LINE
8
BLACK
6
CONTINUOUS
10
0.721968
20
-1.08236
11
0.728343
21
-1.08554
0
LINE
8
BLACK
6
CONTINUOUS
10
0.728343
20
-1.08554
11
0.729054
21
-1.08617
0
LINE
8
BLACK
6
CONTINUOUS
10
0.729054
20
-1.08617
11
0.729877
21
-1.08665
0
LINE
8
BLACK
6
CONTINUOUS
10
0.729877
20
-1.08665
11
0.736251
21
-1.09302
0
LINE
8
BLACK
6
CONTINUOUS
10
0.736251
20
-1.09302
11
0.73693
21
-1.0942
0
LINE
8
BLACK
6
CONTINUOUS
10
0.73693
20
-1.0942
11
0.737678
21
-1.09533
0
LINE
8
BLACK
6
CONTINUOUS
10
0.737678
20
-1.09533
11
0.740865
21
-1.10489
0
LINE
8
BLACK
6
CONTINUOUS
10
0.740865
20
-1.10489
11
0.740922
21
-1.10584
0
LINE
8
BLACK
6
CONTINUOUS
10
0.740922
20
-1.10584
11
0.741168
21
-1.10676
0
LINE
8
BLACK
6
CONTINUOUS
10
0.741168
20
-1.10676
11
0.741168
21
-1.1227
0
LINE
8
BLACK
6
CONTINUOUS
10
0.741168
20
-1.1227
11
0.740377
21
-1.12565
0
LINE
8
BLACK
6
CONTINUOUS
10
0.740377
20
-1.12565
11
0.738216
21
-1.12781
0
LINE
8
BLACK
6
CONTINUOUS
10
0.738216
20
-1.12781
11
0.735263
21
-1.1286
0
LINE
8
BLACK
6
CONTINUOUS
10
0.735263
20
-1.1286
11
0.668334
21
-1.1286
0
LINE
8
BLACK
6
CONTINUOUS
10
0.668334
20
-1.1286
11
0.665381
21
-1.12781
0
LINE
8
BLACK
6
CONTINUOUS
10
0.665381
20
-1.12781
11
0.663219
21
-1.12565
0
LINE
8
BLACK
6
CONTINUOUS
10
0.663219
20
-1.12565
11
0.662428
21
-1.1227
0
LINE
8
BLACK
6
CONTINUOUS
10
0.662428
20
-1.1227
11
0.662428
21
-1.10676
0
LINE
8
BLACK
6
CONTINUOUS
10
0.662428
20
-1.10676
11
0.662674
21
-1.10584
0
LINE
8
BLACK
6
CONTINUOUS
10
0.662674
20
-1.10584
11
0.662731
21
-1.10489
0
LINE
8
BLACK
6
CONTINUOUS
10
0.662731
20
-1.10489
11
0.665918
21
-1.09533
0
LINE
8
BLACK
6
CONTINUOUS
10
0.665918
20
-1.09533
11
0.666666
21
-1.0942
0
LINE
8
BLACK
6
CONTINUOUS
10
0.666666
20
-1.0942
11
0.667345
21
-1.09302
0
LINE
8
BLACK
6
CONTINUOUS
10
0.667345
20
-1.09302
11
0.673719
21
-1.08665
0
LINE
8
BLACK
6
CONTINUOUS
10
0.673719
20
-1.08665
11
0.674543
21
-1.08617
0
LINE
8
BLACK
6
CONTINUOUS
10
0.674543
20
-1.08617
11
0.675254
21
-1.08554
0
LINE
8
BLACK
6
CONTINUOUS
10
0.675254
20
-1.08554
11
0.681628
21
-1.08236
0
LINE
8
BLACK
6
CONTINUOUS
10
0.681628
20
-1.08236
11
0.682267
21
-1.08222
0
LINE
8
BLACK
6
CONTINUOUS
10
0.682267
20
-1.08222
11
0.682837
21
-1.08191
0
LINE
8
BLACK
6
CONTINUOUS
10
0.682837
20
-1.08191
11
0.695585
21
-1.07872
0
LINE
8
BLACK
6
CONTINUOUS
10
0.695585
20
-1.07872
11
0.696314
21
-1.07873
0
LINE
8
BLACK
6
CONTINUOUS
10
0.696314
20
-1.07873
11
0.697018
21
-1.07855
0
LINE
8
BLACK
6
CONTINUOUS
10
0.697018
20
-1.07855
11
0.706579
21
-1.07855
0
LINE
8
BLACK
6
CONTINUOUS
10
0.706579
20
-1.07855
11
0.707283
21
-1.07873
0
LINE
8
BLACK
6
CONTINUOUS
10
0.68633
20
-1.09321
11
0.681393
21
-1.09568
0
LINE
8
BLACK
6
CONTINUOUS
10
0.681393
20
-1.09568
11
0.676682
21
-1.10039
0
LINE
8
BLACK
6
CONTINUOUS
10
0.676682
20
-1.10039
11
0.674239
21
-1.10772
0
LINE
8
BLACK
6
CONTINUOUS
10
0.674239
20
-1.10772
11
0.674239
21
-1.11679
0
LINE
8
BLACK
6
CONTINUOUS
10
0.674239
20
-1.11679
11
0.729357
21
-1.11679
0
LINE
8
BLACK
6
CONTINUOUS
10
0.729357
20
-1.11679
11
0.729357
21
-1.10772
0
LINE
8
BLACK
6
CONTINUOUS
10
0.729357
20
-1.10772
11
0.726914
21
-1.10039
0
LINE
8
BLACK
6
CONTINUOUS
10
0.726914
20
-1.10039
11
0.722203
21
-1.09568
0
LINE
8
BLACK
6
CONTINUOUS
10
0.722203
20
-1.09568
11
0.717266
21
-1.09321
0
LINE
8
BLACK
6
CONTINUOUS
10
0.717266
20
-1.09321
11
0.705852
21
-1.09036
0
LINE
8
BLACK
6
CONTINUOUS
10
0.705852
20
-1.09036
11
0.697744
21
-1.09036
0
LINE
8
BLACK
6
CONTINUOUS
10
0.697744
20
-1.09036
11
0.68633
21
-1.09321
0
LINE
8
BLACK
6
CONTINUOUS
10
0.738216
20
-1.01878
11
0.740377
21
-1.02094
0
LINE
8
BLACK
6
CONTINUOUS
10
0.740377
20
-1.02094
11
0.741168
21
-1.0239
0
LINE
8
BLACK
6
CONTINUOUS
10
0.741168
20
-1.0239
11
0.741168
21
-1.05577
0
LINE
8
BLACK
6
CONTINUOUS
10
0.741168
20
-1.05577
11
0.740377
21
-1.05872
0
LINE
8
BLACK
6
CONTINUOUS
10
0.740377
20
-1.05872
11
0.738216
21
-1.06088
0
LINE
8
BLACK
6
CONTINUOUS
10
0.738216
20
-1.06088
11
0.735263
21
-1.06167
0
LINE
8
BLACK
6
CONTINUOUS
10
0.735263
20
-1.06167
11
0.700205
21
-1.06167
0
LINE
8
BLACK
6
CONTINUOUS
10
0.700205
20
-1.06167
11
0.668334
21
-1.06167
0
LINE
8
BLACK
6
CONTINUOUS
10
0.668334
20
-1.06167
11
0.665381
21
-1.06088
0
LINE
8
BLACK
6
CONTINUOUS
10
0.665381
20
-1.06088
11
0.663219
21
-1.05872
0
LINE
8
BLACK
6
CONTINUOUS
10
0.663219
20
-1.05872
11
0.662428
21
-1.05577
0
LINE
8
BLACK
6
CONTINUOUS
10
0.662428
20
-1.05577
11
0.662428
21
-1.0239
0
LINE
8
BLACK
6
CONTINUOUS
10
0.662428
20
-1.0239
11
0.663219
21
-1.02094
0
LINE
8
BLACK
6
CONTINUOUS
10
0.663219
20
-1.02094
11
0.665381
21
-1.01878
0
LINE
8
BLACK
6
CONTINUOUS
10
0.665381
20
-1.01878
11
0.668334
21
-1.01799
0
LINE
8
BLACK
6
CONTINUOUS
10
0.668334
20
-1.01799
11
0.671286
21
-1.01878
0
LINE
8
BLACK
6
CONTINUOUS
10
0.671286
20
-1.01878
11
0.673448
21
-1.02094
0
LINE
8
BLACK
6
CONTINUOUS
10
0.673448
20
-1.02094
11
0.674239
21
-1.0239
0
LINE
8
BLACK
6
CONTINUOUS
10
0.674239
20
-1.0239
11
0.674239
21
-1.04986
0
LINE
8
BLACK
6
CONTINUOUS
10
0.674239
20
-1.04986
11
0.694299
21
-1.04986
0
LINE
8
BLACK
6
CONTINUOUS
10
0.694299
20
-1.04986
11
0.694299
21
-1.03346
0
LINE
8
BLACK
6
CONTINUOUS
10
0.694299
20
-1.03346
11
0.69509
21
-1.0305
0
LINE
8
BLACK
6
CONTINUOUS
10
0.69509
20
-1.0305
11
0.697252
21
-1.02834
0
LINE
8
BLACK
6
CONTINUOUS
10
0.697252
20
-1.02834
11
0.700205
21
-1.02755
0
LINE
8
BLACK
6
CONTINUOUS
10
0.700205
20
-1.02755
11
0.703157
21
-1.02834
0
LINE
8
BLACK
6
CONTINUOUS
10
0.703157
20
-1.02834
11
0.705319
21
-1.0305
0
LINE
8
BLACK
6
CONTINUOUS
10
0.705319
20
-1.0305
11
0.70611
21
-1.03346
0
LINE
8
BLACK
6
CONTINUOUS
10
0.70611
20
-1.03346
11
0.70611
21
-1.04986
0
LINE
8
BLACK
6
CONTINUOUS
10
0.70611
20
-1.04986
11
0.729357
21
-1.04986
0
LINE
8
BLACK
6
CONTINUOUS
10
0.729357
20
-1.04986
11
0.729357
21
-1.0239
0
LINE
8
BLACK
6
CONTINUOUS
10
0.729357
20
-1.0239
11
0.730148
21
-1.02094
0
LINE
8
BLACK
6
CONTINUOUS
10
0.730148
20
-1.02094
11
0.73231
21
-1.01878
0
LINE
8
BLACK
6
CONTINUOUS
10
0.73231
20
-1.01878
11
0.735263
21
-1.01799
0
LINE
8
BLACK
6
CONTINUOUS
10
0.735263
20
-1.01799
11
0.738216
21
-1.01878
0
LINE
8
BLACK
6
CONTINUOUS
10
0.691954
20
-0.951412
11
0.693284
21
-0.951684
0
LINE
8
BLACK
6
CONTINUOUS
10
0.693284
20
-0.951684
11
0.699659
21
-0.954872
0
LINE
8
BLACK
6
CONTINUOUS
10
0.699659
20
-0.954872
11
0.70037
21
-0.955502
0
LINE
8
BLACK
6
CONTINUOUS
10
0.70037
20
-0.955502
11
0.701193
21
-0.955978
0
LINE
8
BLACK
6
CONTINUOUS
10
0.701193
20
-0.955978
11
0.70438
21
-0.959165
0
LINE
8
BLACK
6
CONTINUOUS
10
0.70438
20
-0.959165
11
0.704856
21
-0.959988
0
LINE
8
BLACK
6
CONTINUOUS
10
0.704856
20
-0.959988
11
0.705487
21
-0.9607
0
LINE
8
BLACK
6
CONTINUOUS
10
0.705487
20
-0.9607
11
0.708674
21
-0.967074
0
LINE
8
BLACK
6
CONTINUOUS
10
0.708674
20
-0.967074
11
0.708906
21
-0.968208
0
LINE
8
BLACK
6
CONTINUOUS
10
0.708906
20
-0.968208
11
0.731876
21
-0.952129
0
LINE
8
BLACK
6
CONTINUOUS
10
0.731876
20
-0.952129
11
0.734749
21
-0.951083
0
LINE
8
BLACK
6
CONTINUOUS
10
0.734749
20
-0.951083
11
0.737759
21
-0.951615
0
LINE
8
BLACK
6
CONTINUOUS
10
0.737759
20
-0.951615
11
0.740101
21
-0.95358
0
LINE
8
BLACK
6
CONTINUOUS
10
0.740101
20
-0.95358
11
0.741146
21
-0.956453
0
LINE
8
BLACK
6
CONTINUOUS
10
0.741146
20
-0.956453
11
0.740615
21
-0.959463
0
LINE
8
BLACK
6
CONTINUOUS
10
0.740615
20
-0.959463
11
0.738649
21
-0.961805
0
LINE
8
BLACK
6
CONTINUOUS
10
0.738649
20
-0.961805
11
0.709297
21
-0.982351
0
LINE
8
BLACK
6
CONTINUOUS
10
0.709297
20
-0.982351
11
0.709297
21
-0.989306
0
LINE
8
BLACK
6
CONTINUOUS
10
0.709297
20
-0.989306
11
0.735263
21
-0.989306
0
LINE
8
BLACK
6
CONTINUOUS
10
0.735263
20
-0.989306
11
0.738216
21
-0.990097
0
LINE
8
BLACK
6
CONTINUOUS
10
0.738216
20
-0.990097
11
0.740377
21
-0.992259
0
LINE
8
BLACK
6
CONTINUOUS
10
0.740377
20
-0.992259
11
0.741168
21
-0.995212
0
LINE
8
BLACK
6
CONTINUOUS
10
0.741168
20
-0.995212
11
0.740377
21
-0.998165
0
LINE
8
BLACK
6
CONTINUOUS
10
0.740377
20
-0.998165
11
0.738216
21
-1.00033
0
LINE
8
BLACK
6
CONTINUOUS
10
0.738216
20
-1.00033
11
0.735263
21
-1.00112
0
LINE
8
BLACK
6
CONTINUOUS
10
0.735263
20
-1.00112
11
0.703392
21
-1.00112
0
LINE
8
BLACK
6
CONTINUOUS
10
0.703392
20
-1.00112
11
0.668334
21
-1.00112
0
LINE
8
BLACK
6
CONTINUOUS
10
0.668334
20
-1.00112
11
0.665381
21
-1.00033
0
LINE
8
BLACK
6
CONTINUOUS
10
0.665381
20
-1.00033
11
0.663219
21
-0.998165
0
LINE
8
BLACK
6
CONTINUOUS
10
0.663219
20
-0.998165
11
0.662428
21
-0.995212
0
LINE
8
BLACK
6
CONTINUOUS
10
0.662428
20
-0.995212
11
0.662428
21
-0.995212
0
LINE
8
BLACK
6
CONTINUOUS
10
0.662428
20
-0.995212
11
0.662428
21
-0.969715
0
LINE
8
BLACK
6
CONTINUOUS
10
0.662428
20
-0.969715
11
0.662779
21
-0.968404
0
LINE
8
BLACK
6
CONTINUOUS
10
0.662779
20
-0.968404
11
0.663052
21
-0.967074
0
LINE
8
BLACK
6
CONTINUOUS
10
0.663052
20
-0.967074
11
0.666239
21
-0.9607
0
LINE
8
BLACK
6
CONTINUOUS
10
0.666239
20
-0.9607
11
0.666869
21
-0.959988
0
LINE
8
BLACK
6
CONTINUOUS
10
0.666869
20
-0.959988
11
0.667345
21
-0.959165
0
LINE
8
BLACK
6
CONTINUOUS
10
0.667345
20
-0.959165
11
0.670532
21
-0.955978
0
LINE
8
BLACK
6
CONTINUOUS
10
0.670532
20
-0.955978
11
0.671355
21
-0.955502
0
LINE
8
BLACK
6
CONTINUOUS
10
0.671355
20
-0.955502
11
0.672067
21
-0.954872
0
LINE
8
BLACK
6
CONTINUOUS
10
0.672067
20
-0.954872
11
0.678441
21
-0.951684
0
LINE
8
BLACK
6
CONTINUOUS
10
0.678441
20
-0.951684
11
0.679771
21
-0.951412
0
LINE
8
BLACK
6
CONTINUOUS
10
0.679771
20
-0.951412
11
0.681082
21
-0.951061
0
LINE
8
BLACK
6
CONTINUOUS
10
0.681082
20
-0.951061
11
0.690643
21
-0.951061
0
LINE
8
BLACK
6
CONTINUOUS
10
0.690643
20
-0.951061
11
0.691954
21
-0.951412
0
LINE
8
BLACK
6
CONTINUOUS
10
0.678206
20
-0.965007
11
0.676374
21
-0.966839
0
LINE
8
BLACK
6
CONTINUOUS
10
0.676374
20
-0.966839
11
0.674239
21
-0.971109
0
LINE
8
BLACK
6
CONTINUOUS
10
0.674239
20
-0.971109
11
0.674239
21
-0.989306
0
LINE
8
BLACK
6
CONTINUOUS
10
0.674239
20
-0.989306
11
0.697486
21
-0.989306
0
LINE
8
BLACK
6
CONTINUOUS
10
0.697486
20
-0.989306
11
0.697486
21
-0.971109
0
LINE
8
BLACK
6
CONTINUOUS
10
0.697486
20
-0.971109
11
0.695351
21
-0.966839
0
LINE
8
BLACK
6
CONTINUOUS
10
0.695351
20
-0.966839
11
0.693519
21
-0.965007
0
LINE
8
BLACK
6
CONTINUOUS
10
0.693519
20
-0.965007
11
0.689249
21
-0.962872
0
LINE
8
BLACK
6
CONTINUOUS
10
0.689249
20
-0.962872
11
0.682476
21
-0.962872
0
LINE
8
BLACK
6
CONTINUOUS
10
0.682476
20
-0.962872
11
0.678206
21
-0.965007
0
LINE
8
BLACK
6
CONTINUOUS
10
0.71047
20
-0.887508
11
0.711198
21
-0.887495
0
LINE
8
BLACK
6
CONTINUOUS
10
0.711198
20
-0.887495
11
0.723947
21
-0.890682
0
LINE
8
BLACK
6
CONTINUOUS
10
0.723947
20
-0.890682
11
0.724517
21
-0.890999
0
LINE
8
BLACK
6
CONTINUOUS
10
0.724517
20
-0.890999
11
0.725155
21
-0.89113
0
LINE
8
BLACK
6
CONTINUOUS
10
0.725155
20
-0.89113
11
0.73153
21
-0.894317
0
LINE
8
BLACK
6
CONTINUOUS
10
0.73153
20
-0.894317
11
0.732241
21
-0.894947
0
LINE
8
BLACK
6
CONTINUOUS
10
0.732241
20
-0.894947
11
0.733064
21
-0.895423
0
LINE
8
BLACK
6
CONTINUOUS
10
0.733064
20
-0.895423
11
0.736251
21
-0.89861
0
LINE
8
BLACK
6
CONTINUOUS
10
0.736251
20
-0.89861
11
0.736727
21
-0.899433
0
LINE
8
BLACK
6
CONTINUOUS
10
0.736727
20
-0.899433
11
0.737358
21
-0.900145
0
LINE
8
BLACK
6
CONTINUOUS
10
0.737358
20
-0.900145
11
0.740545
21
-0.906519
0
LINE
8
BLACK
6
CONTINUOUS
10
0.740545
20
-0.906519
11
0.740817
21
-0.907849
0
LINE
8
BLACK
6
CONTINUOUS
10
0.740817
20
-0.907849
11
0.741168
21
-0.90916
0
LINE
8
BLACK
6
CONTINUOUS
10
0.741168
20
-0.90916
11
0.741168
21
-0.915534
0
LINE
8
BLACK
6
CONTINUOUS
10
0.741168
20
-0.915534
11
0.740817
21
-0.916845
0
LINE
8
BLACK
6
CONTINUOUS
10
0.740817
20
-0.916845
11
0.740545
21
-0.918175
0
LINE
8
BLACK
6
CONTINUOUS
10
0.740545
20
-0.918175
11
0.737358
21
-0.924549
0
LINE
8
BLACK
6
CONTINUOUS
10
0.737358
20
-0.924549
11
0.736727
21
-0.925261
0
LINE
8
BLACK
6
CONTINUOUS
10
0.736727
20
-0.925261
11
0.736251
21
-0.926084
0
LINE
8
BLACK
6
CONTINUOUS
10
0.736251
20
-0.926084
11
0.733064
21
-0.929271
0
LINE
8
BLACK
6
CONTINUOUS
10
0.733064
20
-0.929271
11
0.732241
21
-0.929747
0
LINE
8
BLACK
6
CONTINUOUS
10
0.732241
20
-0.929747
11
0.73153
21
-0.930378
0
LINE
8
BLACK
6
CONTINUOUS
10
0.73153
20
-0.930378
11
0.725155
21
-0.933565
0
LINE
8
BLACK
6
CONTINUOUS
10
0.725155
20
-0.933565
11
0.724517
21
-0.933695
0
LINE
8
BLACK
6
CONTINUOUS
10
0.724517
20
-0.933695
11
0.723947
21
-0.934012
0
LINE
8
BLACK
6
CONTINUOUS
10
0.723947
20
-0.934012
11
0.711198
21
-0.937199
0
LINE
8
BLACK
6
CONTINUOUS
10
0.711198
20
-0.937199
11
0.71047
21
-0.937187
0
LINE
8
BLACK
6
CONTINUOUS
10
0.71047
20
-0.937187
11
0.709766
21
-0.937375
0
LINE
8
BLACK
6
CONTINUOUS
10
0.709766
20
-0.937375
11
0.69383
21
-0.937375
0
LINE
8
BLACK
6
CONTINUOUS
10
0.69383
20
-0.937375
11
0.693127
21
-0.937187
0
LINE
8
BLACK
6
CONTINUOUS
10
0.693127
20
-0.937187
11
0.692398
21
-0.937199
0
LINE
8
BLACK
6
CONTINUOUS
10
0.692398
20
-0.937199
11
0.67965
21
-0.934012
0
LINE
8
BLACK
6
CONTINUOUS
10
0.67965
20
-0.934012
11
0.67908
21
-0.933695
0
LINE
8
BLACK
6
CONTINUOUS
10
0.67908
20
-0.933695
11
0.678441
21
-0.933565
0
LINE
8
BLACK
6
CONTINUOUS
10
0.678441
20
-0.933565
11
0.672067
21
-0.930378
0
LINE
8
BLACK
6
CONTINUOUS
10
0.672067
20
-0.930378
11
0.671355
21
-0.929747
0
LINE
8
BLACK
6
CONTINUOUS
10
0.671355
20
-0.929747
11
0.670532
21
-0.929271
0
LINE
8
BLACK
6
CONTINUOUS
10
0.670532
20
-0.929271
11
0.667345
21
-0.926084
0
LINE
8
BLACK
6
CONTINUOUS
10
0.667345
20
-0.926084
11
0.666869
21
-0.925261
0
LINE
8
BLACK
6
CONTINUOUS
10
0.666869
20
-0.925261
11
0.666239
21
-0.924549
0
LINE
8
BLACK
6
CONTINUOUS
10
0.666239
20
-0.924549
11
0.663052
21
-0.918175
0
LINE
8
BLACK
6
CONTINUOUS
10
0.663052
20
-0.918175
11
0.662779
21
-0.916845
0
LINE
8
BLACK
6
CONTINUOUS
10
0.662779
20
-0.916845
11
0.662428
21
-0.915534
0
LINE
8
BLACK
6
CONTINUOUS
10
0.662428
20
-0.915534
11
0.662428
21
-0.90916
0
LINE
8
BLACK
6
CONTINUOUS
10
0.662428
20
-0.90916
11
0.662779
21
-0.907849
0
LINE
8
BLACK
6
CONTINUOUS
10
0.662779
20
-0.907849
11
0.663052
21
-0.906519
0
LINE
8
BLACK
6
CONTINUOUS
10
0.663052
20
-0.906519
11
0.666239
21
-0.900145
0
LINE
8
BLACK
6
CONTINUOUS
10
0.666239
20
-0.900145
11
0.666869
21
-0.899433
0
LINE
8
BLACK
6
CONTINUOUS
10
0.666869
20
-0.899433
11
0.667345
21
-0.89861
0
LINE
8
BLACK
6
CONTINUOUS
10
0.667345
20
-0.89861
11
0.670532
21
-0.895423
0
LINE
8
BLACK
6
CONTINUOUS
10
0.670532
20
-0.895423
11
0.671355
21
-0.894947
0
LINE
8
BLACK
6
CONTINUOUS
10
0.671355
20
-0.894947
11
0.672067
21
-0.894317
0
LINE
8
BLACK
6
CONTINUOUS
10
0.672067
20
-0.894317
11
0.678441
21
-0.89113
0
LINE
8
BLACK
6
CONTINUOUS
10
0.678441
20
-0.89113
11
0.67908
21
-0.890999
0
LINE
8
BLACK
6
CONTINUOUS
10
0.67908
20
-0.890999
11
0.67965
21
-0.890682
0
LINE
8
BLACK
6
CONTINUOUS
10
0.67965
20
-0.890682
11
0.692398
21
-0.887495
0
LINE
8
BLACK
6
CONTINUOUS
10
0.692398
20
-0.887495
11
0.693127
21
-0.887508
0
LINE
8
BLACK
6
CONTINUOUS
10
0.693127
20
-0.887508
11
0.69383
21
-0.887319
0
LINE
8
BLACK
6
CONTINUOUS
10
0.69383
20
-0.887319
11
0.709766
21
-0.887319
0
LINE
8
BLACK
6
CONTINUOUS
10
0.709766
20
-0.887319
11
0.71047
21
-0.887508
0
LINE
8
BLACK
6
CONTINUOUS
10
0.683143
20
-0.901984
11
0.678206
21
-0.904452
0
LINE
8
BLACK
6
CONTINUOUS
10
0.678206
20
-0.904452
11
0.676374
21
-0.906284
0
LINE
8
BLACK
6
CONTINUOUS
10
0.676374
20
-0.906284
11
0.674239
21
-0.910554
0
LINE
8
BLACK
6
CONTINUOUS
10
0.674239
20
-0.910554
11
0.674239
21
-0.91414
0
LINE
8
BLACK
6
CONTINUOUS
10
0.674239
20
-0.91414
11
0.676374
21
-0.91841
0
LINE
8
BLACK
6
CONTINUOUS
10
0.676374
20
-0.91841
11
0.678206
21
-0.920242
0
LINE
8
BLACK
6
CONTINUOUS
10
0.678206
20
-0.920242
11
0.683143
21
-0.922711
0
LINE
8
BLACK
6
CONTINUOUS
10
0.683143
20
-0.922711
11
0.694557
21
-0.925564
0
LINE
8
BLACK
6
CONTINUOUS
10
0.694557
20
-0.925564
11
0.709039
21
-0.925564
0
LINE
8
BLACK
6
CONTINUOUS
10
0.709039
20
-0.925564
11
0.720453
21
-0.922711
0
LINE
8
BLACK
6
CONTINUOUS
10
0.720453
20
-0.922711
11
0.72539
21
-0.920242
0
LINE
8
BLACK
6
CONTINUOUS
10
0.72539
20
-0.920242
11
0.727222
21
-0.91841
0
LINE
8
BLACK
6
CONTINUOUS
10
0.727222
20
-0.91841
11
0.729357
21
-0.91414
0
LINE
8
BLACK
6
CONTINUOUS
10
0.729357
20
-0.91414
11
0.729357
21
-0.910554
0
LINE
8
BLACK
6
CONTINUOUS
10
0.729357
20
-0.910554
11
0.727222
21
-0.906284
0
LINE
8
BLACK
6
CONTINUOUS
10
0.727222
20
-0.906284
11
0.72539
21
-0.904452
0
LINE
8
BLACK
6
CONTINUOUS
10
0.72539
20
-0.904452
11
0.720453
21
-0.901984
0
LINE
8
BLACK
6
CONTINUOUS
10
0.720453
20
-0.901984
11
0.709039
21
-0.89913
0
LINE
8
BLACK
6
CONTINUOUS
10
0.709039
20
-0.89913
11
0.694557
21
-0.89913
0
LINE
8
BLACK
6
CONTINUOUS
10
0.694557
20
-0.89913
11
0.683143
21
-0.901984
0
LINE
8
BLACK
6
CONTINUOUS
10
0.738216
20
-0.824368
11
0.740377
21
-0.82653
0
LINE
8
BLACK
6
CONTINUOUS
10
0.740377
20
-0.82653
11
0.741168
21
-0.829482
0
LINE
8
BLACK
6
CONTINUOUS
10
0.741168
20
-0.829482
11
0.741168
21
-0.867728
0
LINE
8
BLACK
6
CONTINUOUS
10
0.741168
20
-0.867728
11
0.740377
21
-0.87068
0
LINE
8
BLACK
6
CONTINUOUS
10
0.740377
20
-0.87068
11
0.738216
21
-0.872842
0
LINE
8
BLACK
6
CONTINUOUS
10
0.738216
20
-0.872842
11
0.735263
21
-0.873633
0
LINE
8
BLACK
6
CONTINUOUS
10
0.735263
20
-0.873633
11
0.73231
21
-0.872842
0
LINE
8
BLACK
6
CONTINUOUS
10
0.73231
20
-0.872842
11
0.730148
21
-0.87068
0
LINE
8
BLACK
6
CONTINUOUS
10
0.730148
20
-0.87068
11
0.729357
21
-0.867728
0
LINE
8
BLACK
6
CONTINUOUS
10
0.729357
20
-0.867728
11
0.729357
21
-0.854511
0
LINE
8
BLACK
6
CONTINUOUS
10
0.729357
20
-0.854511
11
0.685778
21
-0.854511
0
LINE
8
BLACK
6
CONTINUOUS
10
0.685778
20
-0.854511
11
0.688445
21
-0.857178
0
LINE
8
BLACK
6
CONTINUOUS
10
0.688445
20
-0.857178
11
0.68892
21
-0.858001
0
LINE
8
BLACK
6
CONTINUOUS
10
0.68892
20
-0.858001
11
0.689551
21
-0.858712
0
LINE
8
BLACK
6
CONTINUOUS
10
0.689551
20
-0.858712
11
0.692738
21
-0.865087
0
LINE
8
BLACK
6
CONTINUOUS
10
0.692738
20
-0.865087
11
0.693351
21
-0.868082
0
LINE
8
BLACK
6
CONTINUOUS
10
0.693351
20
-0.868082
11
0.692384
21
-0.870982
0
LINE
8
BLACK
6
CONTINUOUS
10
0.692384
20
-0.870982
11
0.690097
21
-0.87301
0
LINE
8
BLACK
6
CONTINUOUS
10
0.690097
20
-0.87301
11
0.687102
21
-0.873623
0
LINE
8
BLACK
6
CONTINUOUS
10
0.687102
20
-0.873623
11
0.684202
21
-0.872656
0
LINE
8
BLACK
6
CONTINUOUS
10
0.684202
20
-0.872656
11
0.682174
21
-0.870369
0
LINE
8
BLACK
6
CONTINUOUS
10
0.682174
20
-0.870369
11
0.679416
21
-0.864852
0
LINE
8
BLACK
6
CONTINUOUS
10
0.679416
20
-0.864852
11
0.674133
21
-0.859569
0
LINE
8
BLACK
6
CONTINUOUS
10
0.674133
20
-0.859569
11
0.665058
21
-0.853519
0
LINE
8
BLACK
6
CONTINUOUS
10
0.665058
20
-0.853519
11
0.66417
21
-0.852509
0
LINE
8
BLACK
6
CONTINUOUS
10
0.66417
20
-0.852509
11
0.663219
21
-0.851558
0
LINE
8
BLACK
6
CONTINUOUS
10
0.663219
20
-0.851558
11
0.663169
21
-0.851369
0
LINE
8
BLACK
6
CONTINUOUS
10
0.663169
20
-0.851369
11
0.66304
21
-0.851223
0
LINE
8
BLACK
6
CONTINUOUS
10
0.66304
20
-0.851223
11
0.662776
21
-0.849904
0
LINE
8
BLACK
6
CONTINUOUS
10
0.662776
20
-0.849904
11
0.662428
21
-0.848605
0
LINE
8
BLACK
6
CONTINUOUS
10
0.662428
20
-0.848605
11
0.662479
21
-0.848416
0
LINE
8
BLACK
6
CONTINUOUS
10
0.662479
20
-0.848416
11
0.66244
21
-0.848225
0
LINE
8
BLACK
6
CONTINUOUS
10
0.66244
20
-0.848225
11
0.662871
21
-0.846951
0
LINE
8
BLACK
6
CONTINUOUS
10
0.662871
20
-0.846951
11
0.663219
21
-0.845652
0
LINE
8
BLACK
6
CONTINUOUS
10
0.663219
20
-0.845652
11
0.663357
21
-0.845514
0
LINE
8
BLACK
6
CONTINUOUS
10
0.663357
20
-0.845514
11
0.66342
21
-0.845329
0
LINE
8
BLACK
6
CONTINUOUS
10
0.66342
20
-0.845329
11
0.66443
21
-0.844442
0
LINE
8
BLACK
6
CONTINUOUS
10
0.66443
20
-0.844442
11
0.665381
21
-0.843491
0
LINE
8
BLACK
6
CONTINUOUS
10
0.665381
20
-0.843491
11
0.665569
21
-0.84344
0
LINE
8
BLACK
6
CONTINUOUS
10
0.665569
20
-0.84344
11
0.665716
21
-0.843311
0
LINE
8
BLACK
6
CONTINUOUS
10
0.665716
20
-0.843311
11
0.667035
21
-0.843048
0
LINE
8
BLACK
6
CONTINUOUS
10
0.667035
20
-0.843048
11
0.668334
21
-0.8427
0
LINE
8
BLACK
6
CONTINUOUS
10
0.668334
20
-0.8427
11
0.729357
21
-0.8427
0
LINE
8
BLACK
6
CONTINUOUS
10
0.729357
20
-0.8427
11
0.729357
21
-0.829482
0
LINE
8
BLACK
6
CONTINUOUS
10
0.729357
20
-0.829482
11
0.730148
21
-0.82653
0
LINE
8
BLACK
6
CONTINUOUS
10
0.730148
20
-0.82653
11
0.73231
21
-0.824368
0
LINE
8
BLACK
6
CONTINUOUS
10
0.73231
20
-0.824368
11
0.735263
21
-0.823577
0
LINE
8
BLACK
6
CONTINUOUS
10
0.735263
20
-0.823577
11
0.738216
21
-0.824368
0
LINE
8
BLACK
6
CONTINUOUS
10
0.739181
20
-0.761322
11
0.740865
21
-0.763873
0
LINE
8
BLACK
6
CONTINUOUS
10
0.740865
20
-0.763873
11
0.741048
21
-0.766924
0
LINE
8
BLACK
6
CONTINUOUS
10
0.741048
20
-0.766924
11
0.739681
21
-0.769659
0
LINE
8
BLACK
6
CONTINUOUS
10
0.739681
20
-0.769659
11
0.73713
21
-0.771343
0
LINE
8
BLACK
6
CONTINUOUS
10
0.73713
20
-0.771343
11
0.722046
21
-0.776371
0
LINE
8
BLACK
6
CONTINUOUS
10
0.722046
20
-0.776371
11
0.722046
21
-0.799729
0
LINE
8
BLACK
6
CONTINUOUS
10
0.722046
20
-0.799729
11
0.73713
21
-0.804757
0
LINE
8
BLACK
6
CONTINUOUS
10
0.73713
20
-0.804757
11
0.739681
21
-0.806442
0
LINE
8
BLACK
6
CONTINUOUS
10
0.739681
20
-0.806442
11
0.741048
21
-0.809176
0
LINE
8
BLACK
6
CONTINUOUS
10
0.741048
20
-0.809176
11
0.740865
21
-0.812227
0
LINE
8
BLACK
6
CONTINUOUS
10
0.740865
20
-0.812227
11
0.739181
21
-0.814778
0
LINE
8
BLACK
6
CONTINUOUS
10
0.739181
20
-0.814778
11
0.736447
21
-0.816145
0
LINE
8
BLACK
6
CONTINUOUS
10
0.736447
20
-0.816145
11
0.733395
21
-0.815962
0
LINE
8
BLACK
6
CONTINUOUS
10
0.733395
20
-0.815962
11
0.666466
21
-0.793653
0
LINE
8
BLACK
6
CONTINUOUS
10
0.666466
20
-0.793653
11
0.665476
21
-0.792999
0
LINE
8
BLACK
6
CONTINUOUS
10
0.665476
20
-0.792999
11
0.664415
21
-0.792469
0
LINE
8
BLACK
6
CONTINUOUS
10
0.664415
20
-0.792469
11
0.664216
21
-0.792167
0
LINE
8
BLACK
6
CONTINUOUS
10
0.664216
20
-0.792167
11
0.663915
21
-0.791968
0
LINE
8
BLACK
6
CONTINUOUS
10
0.663915
20
-0.791968
11
0.663385
21
-0.790907
0
LINE
8
BLACK
6
CONTINUOUS
10
0.663385
20
-0.790907
11
0.662731
21
-0.789918
0
LINE
8
BLACK
6
CONTINUOUS
10
0.662731
20
-0.789918
11
0.66271
21
-0.789557
0
LINE
8
BLACK
6
CONTINUOUS
10
0.66271
20
-0.789557
11
0.662548
21
-0.789234
0
LINE
8
BLACK
6
CONTINUOUS
10
0.662548
20
-0.789234
11
0.662619
21
-0.78805
0
LINE
8
BLACK
6
CONTINUOUS
10
0.662619
20
-0.78805
11
0.662548
21
-0.786866
0
LINE
8
BLACK
6
CONTINUOUS
10
0.662548
20
-0.786866
11
0.66271
21
-0.786543
0
LINE
8
BLACK
6
CONTINUOUS
10
0.66271
20
-0.786543
11
0.662731
21
-0.786183
0
LINE
8
BLACK
6
CONTINUOUS
10
0.662731
20
-0.786183
11
0.663385
21
-0.785193
0
LINE
8
BLACK
6
CONTINUOUS
10
0.663385
20
-0.785193
11
0.663915
21
-0.784132
0
LINE
8
BLACK
6
CONTINUOUS
10
0.663915
20
-0.784132
11
0.664216
21
-0.783933
0
LINE
8
BLACK
6
CONTINUOUS
10
0.664216
20
-0.783933
11
0.664415
21
-0.783632
0
LINE
8
BLACK
6
CONTINUOUS
10
0.664415
20
-0.783632
11
0.665476
21
-0.783101
0
LINE
8
BLACK
6
CONTINUOUS
10
0.665476
20
-0.783101
11
0.666466
21
-0.782448
0
LINE
8
BLACK
6
CONTINUOUS
10
0.666466
20
-0.782448
11
0.733395
21
-0.760138
0
LINE
8
BLACK
6
CONTINUOUS
10
0.733395
20
-0.760138
11
0.736447
21
-0.759955
0
LINE
8
BLACK
6
CONTINUOUS
10
0.736447
20
-0.759955
11
0.739181
21
-0.761322
0
LINE
8
BLACK
6
CONTINUOUS
10
0.687008
20
-0.78805
11
0.710235
21
-0.795792
0
LINE
8
BLACK
6
CONTINUOUS
10
0.710235
20
-0.795792
11
0.710235
21
-0.780308
0
LINE
8
BLACK
6
CONTINUOUS
10
0.710235
20
-0.780308
11
0.687008
21
-0.78805
0
LINE
8
BLACK
6
CONTINUOUS
10
0.391124
20
-0.178566
11
0.391254
21
-0.178543
0
LINE
8
BLACK
6
CONTINUOUS
10
0.391254
20
-0.178543
11
0.391367
21
-0.178609
0
LINE
8
BLACK
6
CONTINUOUS
10
0.391367
20
-0.178609
11
0.391751
21
-0.178676
0
LINE
8
BLACK
6
CONTINUOUS
10
0.391751
20
-0.178676
11
0.392339
21
-0.179169
0
LINE
8
BLACK
6
CONTINUOUS
10
0.392339
20
-0.179169
11
0.393003
21
-0.179553
0
LINE
8
BLACK
6
CONTINUOUS
10
0.393003
20
-0.179553
11
0.393094
21
-0.179803
0
LINE
8
BLACK
6
CONTINUOUS
10
0.393094
20
-0.179803
11
0.393298
21
-0.179975
0
LINE
8
BLACK
6
CONTINUOUS
10
0.393298
20
-0.179975
11
0.393431
21
-0.18073
0
LINE
8
BLACK
6
CONTINUOUS
10
0.393431
20
-0.18073
11
0.393694
21
-0.181451
0
LINE
8
BLACK
6
CONTINUOUS
10
0.393694
20
-0.181451
11
0.393694
21
-0.275939
0
LINE
8
BLACK
6
CONTINUOUS
10
0.393694
20
-0.275939
11
0.393626
21
-0.276323
0
LINE
8
BLACK
6
CONTINUOUS
10
0.393626
20
-0.276323
11
0.393649
21
-0.276452
0
LINE
8
BLACK
6
CONTINUOUS
10
0.393649
20
-0.276452
11
0.393583
21
-0.276565
0
LINE
8
BLACK
6
CONTINUOUS
10
0.393583
20
-0.276565
11
0.393516
21
-0.276949
0
LINE
8
BLACK
6
CONTINUOUS
10
0.393516
20
-0.276949
11
0.393023
21
-0.277537
0
LINE
8
BLACK
6
CONTINUOUS
10
0.393023
20
-0.277537
11
0.392639
21
-0.278201
0
LINE
8
BLACK
6
CONTINUOUS
10
0.392639
20
-0.278201
11
0.392389
21
-0.278292
0
LINE
8
BLACK
6
CONTINUOUS
10
0.392389
20
-0.278292
11
0.392217
21
-0.278496
0
LINE
8
BLACK
6
CONTINUOUS
10
0.392217
20
-0.278496
11
0.391462
21
-0.27863
0
LINE
8
BLACK
6
CONTINUOUS
10
0.391462
20
-0.27863
11
0.390741
21
-0.278892
0
LINE
8
BLACK
6
CONTINUOUS
10
0.390741
20
-0.278892
11
0.225387
21
-0.278892
0
LINE
8
BLACK
6
CONTINUOUS
10
0.225387
20
-0.278892
11
0.225003
21
-0.278824
0
LINE
8
BLACK
6
CONTINUOUS
10
0.225003
20
-0.278824
11
0.224874
21
-0.278847
0
LINE
8
BLACK
6
CONTINUOUS
10
0.224874
20
-0.278847
11
0.22476
21
-0.278781
0
LINE
8
BLACK
6
CONTINUOUS
10
0.22476
20
-0.278781
11
0.224377
21
-0.278714
0
LINE
8
BLACK
6
CONTINUOUS
10
0.224377
20
-0.278714
11
0.223789
21
-0.278221
0
LINE
8
BLACK
6
CONTINUOUS
10
0.223789
20
-0.278221
11
0.223125
21
-0.277837
0
LINE
8
BLACK
6
CONTINUOUS
10
0.223125
20
-0.277837
11
0.223034
21
-0.277587
0
LINE
8
BLACK
6
CONTINUOUS
10
0.223034
20
-0.277587
11
0.222829
21
-0.277416
0
LINE
8
BLACK
6
CONTINUOUS
10
0.222829
20
-0.277416
11
0.222696
21
-0.27666
0
LINE
8
BLACK
6
CONTINUOUS
10
0.222696
20
-0.27666
11
0.222434
21
-0.275939
0
LINE
8
BLACK
6
CONTINUOUS
10
0.222434
20
-0.275939
11
0.222434
21
-0.181451
0
LINE
8
BLACK
6
CONTINUOUS
10
0.222434
20
-0.181451
11
0.222501
21
-0.181067
0
LINE
8
BLACK
6
CONTINUOUS
10
0.222501
20
-0.181067
11
0.222479
21
-0.180938
0
LINE
8
BLACK
6
CONTINUOUS
10
0.222479
20
-0.180938
11
0.222544
21
-0.180825
0
LINE
8
BLACK
6
CONTINUOUS
10
0.222544
20
-0.180825
11
0.222612
21
-0.180441
0
LINE
8
BLACK
6
CONTINUOUS
10
0.222612
20
-0.180441
11
0.223105
21
-0.179853
0
LINE
8
BLACK
6
CONTINUOUS
10
0.223105
20
-0.179853
11
0.223489
21
-0.179189
0
LINE
8
BLACK
6
CONTINUOUS
10
0.223489
20
-0.179189
11
0.223739
21
-0.179098
0
LINE
8
BLACK
6
CONTINUOUS
10
0.223739
20
-0.179098
11
0.22391
21
-0.178894
0
LINE
8
BLACK
6
CONTINUOUS
10
0.22391
20
-0.178894
11
0.224666
21
-0.178761
0
LINE
8
BLACK
6
CONTINUOUS
10
0.224666
20
-0.178761
11
0.225387
21
-0.178498
0
LINE
8
BLACK
6
CONTINUOUS
10
0.225387
20
-0.178498
11
0.390741
21
-0.178498
0
LINE
8
BLACK
6
CONTINUOUS
10
0.390741
20
-0.178498
11
0.391124
21
-0.178566
0
LINE
8
BLACK
6
CONTINUOUS
10
0.228339
20
-0.184404
11
0.228339
21
-0.272986
0
LINE
8
BLACK
6
CONTINUOUS
10
0.228339
20
-0.272986
11
0.387788
21
-0.272986
0
LINE
8
BLACK
6
CONTINUOUS
10
0.387788
20
-0.272986
11
0.387788
21
-0.184404
0
LINE
8
BLACK
6
CONTINUOUS
10
0.387788
20
-0.184404
11
0.228339
21
-0.184404
0
LINE
8
BLACK
6
CONTINUOUS
10
0.310514
20
-0.121821
11
0.311438
21
-0.121958
0
LINE
8
BLACK
6
CONTINUOUS
10
0.311438
20
-0.121958
11
0.311495
21
-0.122021
0
LINE
8
BLACK
6
CONTINUOUS
10
0.311495
20
-0.122021
11
0.311578
21
-0.122038
0
LINE
8
BLACK
6
CONTINUOUS
10
0.311578
20
-0.122038
11
0.312159
21
-0.12277
0
LINE
8
BLACK
6
CONTINUOUS
10
0.312159
20
-0.12277
11
0.312778
21
-0.123469
0
LINE
8
BLACK
6
CONTINUOUS
10
0.312778
20
-0.123469
11
0.312781
21
-0.123554
0
LINE
8
BLACK
6
CONTINUOUS
10
0.312781
20
-0.123554
11
0.312834
21
-0.12362
0
LINE
8
BLACK
6
CONTINUOUS
10
0.312834
20
-0.12362
11
0.325957
21
-0.16299
0
LINE
8
BLACK
6
CONTINUOUS
10
0.325957
20
-0.16299
11
0.326107
21
-0.164005
0
LINE
8
BLACK
6
CONTINUOUS
10
0.326107
20
-0.164005
11
0.325365
21
-0.165883
0
LINE
8
BLACK
6
CONTINUOUS
10
0.325365
20
-0.165883
11
0.323589
21
-0.166845
0
LINE
8
BLACK
6
CONTINUOUS
10
0.323589
20
-0.166845
11
0.32161
21
-0.16644
0
LINE
8
BLACK
6
CONTINUOUS
10
0.32161
20
-0.16644
11
0.320354
21
-0.164858
0
LINE
8
BLACK
6
CONTINUOUS
10
0.320354
20
-0.164858
11
0.317278
21
-0.155628
0
LINE
8
BLACK
6
CONTINUOUS
10
0.317278
20
-0.155628
11
0.302787
21
-0.155628
0
LINE
8
BLACK
6
CONTINUOUS
10
0.302787
20
-0.155628
11
0.29971
21
-0.164858
0
LINE
8
BLACK
6
CONTINUOUS
10
0.29971
20
-0.164858
11
0.299222
21
-0.16576
0
LINE
8
BLACK
6
CONTINUOUS
10
0.299222
20
-0.16576
11
0.297501
21
-0.166817
0
LINE
8
BLACK
6
CONTINUOUS
10
0.297501
20
-0.166817
11
0.295503
21
-0.166521
0
LINE
8
BLACK
6
CONTINUOUS
10
0.295503
20
-0.166521
11
0.294163
21
-0.165009
0
LINE
8
BLACK
6
CONTINUOUS
10
0.294163
20
-0.165009
11
0.294108
21
-0.16299
0
LINE
8
BLACK
6
CONTINUOUS
10
0.294108
20
-0.16299
11
0.307231
21
-0.12362
0
LINE
8
BLACK
6
CONTINUOUS
10
0.307231
20
-0.12362
11
0.307719
21
-0.122719
0
LINE
8
BLACK
6
CONTINUOUS
10
0.307719
20
-0.122719
11
0.307792
21
-0.122674
0
LINE
8
BLACK
6
CONTINUOUS
10
0.307792
20
-0.122674
11
0.307823
21
-0.122595
0
LINE
8
BLACK
6
CONTINUOUS
10
0.307823
20
-0.122595
11
0.308644
21
-0.12215
0
LINE
8
BLACK
6
CONTINUOUS
10
0.308644
20
-0.12215
11
0.30944
21
-0.121661
0
LINE
8
BLACK
6
CONTINUOUS
10
0.30944
20
-0.121661
11
0.309524
21
-0.121674
0
LINE
8
BLACK
6
CONTINUOUS
10
0.309524
20
-0.121674
11
0.309599
21
-0.121633
0
LINE
8
BLACK
6
CONTINUOUS
10
0.309599
20
-0.121633
11
0.310514
21
-0.121821
0
LINE
8
BLACK
6
CONTINUOUS
10
0.304755
20
-0.149723
11
0.315309
21
-0.149723
0
LINE
8
BLACK
6
CONTINUOUS
10
0.315309
20
-0.149723
11
0.310032
21
-0.133891
0
LINE
8
BLACK
6
CONTINUOUS
10
0.310032
20
-0.133891
11
0.304755
21
-0.149723
0
CIRCLE
8
BLACK
10
0
20
0
40
0.00688976
0
CIRCLE
8
BLACK
10
0
20
-1.6
40
0.00688976
  0
ENDSEC
  0
EOF
