<!DOCTYPE svg PUBLIC "-//W3C//DTD SVG 1.1//EN" "http://www.w3.org/Graphics/SVG/1.1/DTD/svg11.dtd">
<svg xmlns="http://www.w3.org/2000/svg" version="1.1" width="34.33mm" height="60.492mm" viewBox="-1385791.79 604151.46 343300.0 604920.0">
            <title>Picture generated by PcbDraw </title>
            <desc>Picture generated by PcbDraw</desc>
        <defs><clipPath id="cut-off"><path d=" M 1334791.0 655151.0 L 1093491.0 655151.0 L 1093491.0 1158071.0 L 1334791.0 1158071.0 L 1334791.0 655151.0 " style="fill-rule: evenodd;"/></clipPath><mask id="pads-mask"><g style="fill:#ffffff; fill-opacity:0.0;  stroke:#ffffff; stroke-width:0.000000; stroke-opacity:1;  stroke-linecap:round; stroke-linejoin:round;">
<g style="fill:#ffffff; fill-opacity:1.0;  stroke:#ffffff; stroke-width:0.010000; stroke-opacity:1;  stroke-linecap:round; stroke-linejoin:round;">
<circle cx="1141751.790000" cy="703411.460000" r="32000.000000"/> 
</g>
<g style="fill:#ffffff; fill-opacity:1.0;  stroke:#ffffff; stroke-width:0.010000; stroke-opacity:1;  stroke-linecap:round; stroke-linejoin:round;">
<circle cx="1141751.790000" cy="1109811.460000" r="32000.000000"/> 
</g>
<g style="fill:#ffffff; fill-opacity:1.0;  stroke:#ffffff; stroke-width:0.010000; stroke-opacity:1;  stroke-linecap:round; stroke-linejoin:round;">
<path style="fill:#ffffff; fill-opacity:1.0;  stroke:#ffffff; stroke-width:0.010000; stroke-opacity:1;  stroke-linecap:round; stroke-linejoin:round;fill-rule:evenodd;" d="M 1240400.000000,849800.000000 1239634.630000,849647.760000 1238985.790000,849214.210000 1238552.240000,848565.370000 1238400.000000,847800.000000 1238400.000000,822700.000000 1238552.240000,821934.630000 1238985.790000,821285.790000 1239634.630000,820852.240000 1240400.000000,820700.000000 1250400.000000,820700.000000 1251165.370000,820852.240000 1251814.210000,821285.790000 1252247.760000,821934.630000 1252400.000000,822700.000000 1252400.000000,847800.000000 1252247.760000,848565.370000 1251814.210000,849214.210000 1251165.370000,849647.760000 1250400.000000,849800.000000 Z"/> 
<path style="fill:#ffffff; fill-opacity:1.0;  stroke:#ffffff; stroke-width:0.010000; stroke-opacity:1;  stroke-linecap:round; stroke-linejoin:round;fill-rule:evenodd;" d="M 1215000.000000,816700.000000 1214234.630000,816547.760000 1213585.790000,816114.210000 1213152.240000,815465.370000 1213000.000000,814700.000000 1213000.000000,789600.000000 1213152.240000,788834.630000 1213585.790000,788185.790000 1214234.630000,787752.240000 1215000.000000,787600.000000 1225000.000000,787600.000000 1225765.370000,787752.240000 1226414.210000,788185.790000 1226847.760000,788834.630000 1227000.000000,789600.000000 1227000.000000,814700.000000 1226847.760000,815465.370000 1226414.210000,816114.210000 1225765.370000,816547.760000 1225000.000000,816700.000000 Z"/> 
<path style="fill:#ffffff; fill-opacity:1.0;  stroke:#ffffff; stroke-width:0.010000; stroke-opacity:1;  stroke-linecap:round; stroke-linejoin:round;fill-rule:evenodd;" d="M 1189600.000000,849800.000000 1188834.630000,849647.760000 1188185.790000,849214.210000 1187752.240000,848565.370000 1187600.000000,847800.000000 1187600.000000,822700.000000 1187752.240000,821934.630000 1188185.790000,821285.790000 1188834.630000,820852.240000 1189600.000000,820700.000000 1199600.000000,820700.000000 1200365.370000,820852.240000 1201014.210000,821285.790000 1201447.760000,821934.630000 1201600.000000,822700.000000 1201600.000000,847800.000000 1201447.760000,848565.370000 1201014.210000,849214.210000 1200365.370000,849647.760000 1199600.000000,849800.000000 Z"/> 
</g>
</g> 
</mask><mask id="pads-mask-silkscreen"><rect x="1092491.79" y="654151.46" width="243300.0" height="504920.0" fill="white"/><g style="fill:#000000; fill-opacity:0.0;  stroke:#000000; stroke-width:0.000000; stroke-opacity:1;  stroke-linecap:round; stroke-linejoin:round;">
<g style="fill:#000000; fill-opacity:1.0;  stroke:#000000; stroke-width:0.010000; stroke-opacity:1;  stroke-linecap:round; stroke-linejoin:round;">
<circle cx="1141751.790000" cy="703411.460000" r="32000.000000"/> 
</g>
<g style="fill:#000000; fill-opacity:1.0;  stroke:#000000; stroke-width:0.010000; stroke-opacity:1;  stroke-linecap:round; stroke-linejoin:round;">
<circle cx="1141751.790000" cy="1109811.460000" r="32000.000000"/> 
</g>
<g style="fill:#000000; fill-opacity:1.0;  stroke:#000000; stroke-width:0.010000; stroke-opacity:1;  stroke-linecap:round; stroke-linejoin:round;">
<path style="fill:#000000; fill-opacity:1.0;  stroke:#000000; stroke-width:0.010000; stroke-opacity:1;  stroke-linecap:round; stroke-linejoin:round;fill-rule:evenodd;" d="M 1240400.000000,849800.000000 1239634.630000,849647.760000 1238985.790000,849214.210000 1238552.240000,848565.370000 1238400.000000,847800.000000 1238400.000000,822700.000000 1238552.240000,821934.630000 1238985.790000,821285.790000 1239634.630000,820852.240000 1240400.000000,820700.000000 1250400.000000,820700.000000 1251165.370000,820852.240000 1251814.210000,821285.790000 1252247.760000,821934.630000 1252400.000000,822700.000000 1252400.000000,847800.000000 1252247.760000,848565.370000 1251814.210000,849214.210000 1251165.370000,849647.760000 1250400.000000,849800.000000 Z"/> 
<path style="fill:#000000; fill-opacity:1.0;  stroke:#000000; stroke-width:0.010000; stroke-opacity:1;  stroke-linecap:round; stroke-linejoin:round;fill-rule:evenodd;" d="M 1215000.000000,816700.000000 1214234.630000,816547.760000 1213585.790000,816114.210000 1213152.240000,815465.370000 1213000.000000,814700.000000 1213000.000000,789600.000000 1213152.240000,788834.630000 1213585.790000,788185.790000 1214234.630000,787752.240000 1215000.000000,787600.000000 1225000.000000,787600.000000 1225765.370000,787752.240000 1226414.210000,788185.790000 1226847.760000,788834.630000 1227000.000000,789600.000000 1227000.000000,814700.000000 1226847.760000,815465.370000 1226414.210000,816114.210000 1225765.370000,816547.760000 1225000.000000,816700.000000 Z"/> 
<path style="fill:#000000; fill-opacity:1.0;  stroke:#000000; stroke-width:0.010000; stroke-opacity:1;  stroke-linecap:round; stroke-linejoin:round;fill-rule:evenodd;" d="M 1189600.000000,849800.000000 1188834.630000,849647.760000 1188185.790000,849214.210000 1187752.240000,848565.370000 1187600.000000,847800.000000 1187600.000000,822700.000000 1187752.240000,821934.630000 1188185.790000,821285.790000 1188834.630000,820852.240000 1189600.000000,820700.000000 1199600.000000,820700.000000 1200365.370000,820852.240000 1201014.210000,821285.790000 1201447.760000,821934.630000 1201600.000000,822700.000000 1201600.000000,847800.000000 1201447.760000,848565.370000 1201014.210000,849214.210000 1200365.370000,849647.760000 1199600.000000,849800.000000 Z"/> 
</g>
</g> 
</mask><mask id="hole-mask"><g><rect x="1092491.79" y="654151.46" fill="white" width="243300.0" height="504920.0"/><polyline stroke-linecap="round" stroke="black" stroke-width="30000.0" points="-0.0 0 0.0 0" transform="translate(1141751.79 703411.46) rotate(-0.0)"/><polyline stroke-linecap="round" stroke="black" stroke-width="30000.0" points="-0.0 0 0.0 0" transform="translate(1141751.79 1109811.46) rotate(-0.0)"/><polyline stroke-linecap="round" stroke="black" stroke-width="4000.0" points="-0.0 0 0.0 0" transform="translate(1238000.0 886500.0) rotate(0)"/><polyline stroke-linecap="round" stroke="black" stroke-width="4000.0" points="-0.0 0 0.0 0" transform="translate(1201000.0 768500.0) rotate(0)"/></g></mask></defs><g transform="scale(-1,1)" id="boardContainer"><g id="substrate" clip-path="url(#cut-off)" mask="url(#hole-mask)"><g id="substrate-board" style="fill:#f1f4f3; stroke:#f1f4f3;"><path d=" M 1334791.0 655151.0 L 1093491.0 655151.0 L 1093491.0 1158071.0 L 1334791.0 1158071.0 L 1334791.0 655151.0 " style="fill-rule: evenodd;"/><g style="fill-opacity: 0.0;stroke-width: 2000.000000;stroke-opacity: 1;stroke-linecap: round;stroke-linejoin: round">
<path d="M1334791 1158071 L1334791 655151 "/>
<path d="M1093491 1158071 L1093491 655151 "/>
<path d="M1093491 1158071 L1334791 1158071 "/>
<path d="M1093491 655151 L1334791 655151 "/>
</g> 
</g><g id="substrate-clad" style="fill:#72786c; stroke:#72786c;"><g style="fill-opacity: 0.0;stroke-width: 0.000000;stroke-opacity: 1;stroke-linecap: round;stroke-linejoin: round">
<g style="fill-opacity: 1.0;stroke-width: 0.010000;stroke-opacity: 1;stroke-linecap: round;stroke-linejoin: round">
<circle cx="1141751.790000" cy="703411.460000" r="32000.000000"/> 
</g>
<g style="fill-opacity: 1.0;stroke-width: 0.010000;stroke-opacity: 1;stroke-linecap: round;stroke-linejoin: round">
<circle cx="1141751.790000" cy="1109811.460000" r="32000.000000"/> 
</g>
<g style="fill-opacity: 1.0;stroke-width: 0.010000;stroke-opacity: 1;stroke-linecap: round;stroke-linejoin: round">
<path style="fill-opacity: 1.0;stroke-width: 0.010000;stroke-opacity: 1;stroke-linecap: round;stroke-linejoin: round;fill-rule: evenodd" d="M 1240400.000000,849800.000000 1239634.630000,849647.760000 1238985.790000,849214.210000 1238552.240000,848565.370000 1238400.000000,847800.000000 1238400.000000,822700.000000 1238552.240000,821934.630000 1238985.790000,821285.790000 1239634.630000,820852.240000 1240400.000000,820700.000000 1250400.000000,820700.000000 1251165.370000,820852.240000 1251814.210000,821285.790000 1252247.760000,821934.630000 1252400.000000,822700.000000 1252400.000000,847800.000000 1252247.760000,848565.370000 1251814.210000,849214.210000 1251165.370000,849647.760000 1250400.000000,849800.000000 Z"/> 
<path style="fill-opacity: 1.0;stroke-width: 0.010000;stroke-opacity: 1;stroke-linecap: round;stroke-linejoin: round;fill-rule: evenodd" d="M 1215000.000000,816700.000000 1214234.630000,816547.760000 1213585.790000,816114.210000 1213152.240000,815465.370000 1213000.000000,814700.000000 1213000.000000,789600.000000 1213152.240000,788834.630000 1213585.790000,788185.790000 1214234.630000,787752.240000 1215000.000000,787600.000000 1225000.000000,787600.000000 1225765.370000,787752.240000 1226414.210000,788185.790000 1226847.760000,788834.630000 1227000.000000,789600.000000 1227000.000000,814700.000000 1226847.760000,815465.370000 1226414.210000,816114.210000 1225765.370000,816547.760000 1225000.000000,816700.000000 Z"/> 
<path style="fill-opacity: 1.0;stroke-width: 0.010000;stroke-opacity: 1;stroke-linecap: round;stroke-linejoin: round;fill-rule: evenodd" d="M 1189600.000000,849800.000000 1188834.630000,849647.760000 1188185.790000,849214.210000 1187752.240000,848565.370000 1187600.000000,847800.000000 1187600.000000,822700.000000 1187752.240000,821934.630000 1188185.790000,821285.790000 1188834.630000,820852.240000 1189600.000000,820700.000000 1199600.000000,820700.000000 1200365.370000,820852.240000 1201014.210000,821285.790000 1201447.760000,821934.630000 1201600.000000,822700.000000 1201600.000000,847800.000000 1201447.760000,848565.370000 1201014.210000,849214.210000 1200365.370000,849647.760000 1199600.000000,849800.000000 Z"/> 
</g>
</g> 
</g><g id="substrate-copper" style="fill:#f8f8f7; stroke:#f8f8f7;"><g style="fill-opacity: 0.0;stroke-width: 3000.000000;stroke-opacity: 1;stroke-linecap: round;stroke-linejoin: round">
<text x="1267000.000000" y="1141000.000000" transform="scale(-1 1) translate(-2534000.000000 0)" textLength="55192.860000" font-size="20000.000000" lengthAdjust="spacingAndGlyphs" text-anchor="middle" opacity="0">MLAB</text>
<g class="stroked-text"><desc>MLAB</desc>
<path d="M1292000 1140285 L1292000 1125285 L1287000 1136000 L1282000 1125285 L1282000 1140285 "/>
<path d="M1267714 1140285 L1274857 1140285 L1274857 1125285 "/>
<path d="M1263428 1136000 L1256285 1136000 "/>
<path d="M1264857 1140285 L1259857 1125285 L1254857 1140285 "/>
<path d="M1244857 1132428 L1242714 1133142 L1242000 1133857 L1241285 1135285 L1241285 1137428 L1242000 1138857 L1242714 1139571 L1244142 1140285 L1249857 1140285 L1249857 1125285 L1244857 1125285 L1243428 1126000 L1242714 1126714 L1242000 1128142 L1242000 1129571 L1242714 1131000 L1243428 1131714 L1244857 1132428 L1249857 1132428 "/>
</g><g style="fill-opacity: 1.0;stroke-width: 0.010000;stroke-opacity: 1;stroke-linecap: round;stroke-linejoin: round">
<circle cx="1141751.790000" cy="703411.460000" r="30000.000000"/> 
</g>
<g style="fill-opacity: 1.0;stroke-width: 0.010000;stroke-opacity: 1;stroke-linecap: round;stroke-linejoin: round">
<circle cx="1141751.790000" cy="1109811.460000" r="30000.000000"/> 
</g>
<g style="fill-opacity: 1.0;stroke-width: 0.010000;stroke-opacity: 1;stroke-linecap: round;stroke-linejoin: round">
<path style="fill-opacity: 1.0;stroke-width: 0.010000;stroke-opacity: 1;stroke-linecap: round;stroke-linejoin: round;fill-rule: evenodd" d="M 1250400.000000,847800.000000 1240400.000000,847800.000000 1240400.000000,822700.000000 1250400.000000,822700.000000 Z"/> 
<path style="fill-opacity: 1.0;stroke-width: 0.010000;stroke-opacity: 1;stroke-linecap: round;stroke-linejoin: round;fill-rule: evenodd" d="M 1225000.000000,814700.000000 1215000.000000,814700.000000 1215000.000000,789600.000000 1225000.000000,789600.000000 Z"/> 
<path style="fill-opacity: 1.0;stroke-width: 0.010000;stroke-opacity: 1;stroke-linecap: round;stroke-linejoin: round;fill-rule: evenodd" d="M 1199600.000000,847800.000000 1189600.000000,847800.000000 1189600.000000,822700.000000 1199600.000000,822700.000000 Z"/> 
</g>
<g style="fill-opacity: 1.0;stroke-width: 0.010000;stroke-opacity: 1;stroke-linecap: round;stroke-linejoin: round">
<circle cx="1238000.000000" cy="886500.000000" r="4000.000000"/> 
</g>
<g style="fill-opacity: 1.0;stroke-width: 0.010000;stroke-opacity: 1;stroke-linecap: round;stroke-linejoin: round">
<circle cx="1201000.000000" cy="768500.000000" r="4000.000000"/> 
</g>
<g style="fill-opacity: 0.0;stroke-width: 4000.000000;stroke-opacity: 1;stroke-linecap: round;stroke-linejoin: round">
<path d="M1245400 879100 L1238000 886500 "/>
<path d="M1245400 835250 L1245400 879100 "/>
<path d="M1201000 768500 L1194600 774900 "/>
<path d="M1194600 774900 L1194600 835250 "/>
</g>
<g style="fill-opacity: 0.0;stroke-width: 4000.000000;stroke-opacity: 1;stroke-linecap: round;stroke-linejoin: round">
<g style="fill-opacity: 1.0;stroke-width: 0.010000;stroke-opacity: 1;stroke-linecap: round;stroke-linejoin: round">
<path style="fill-opacity: 1.0;stroke-width: 0.010000;stroke-opacity: 1;stroke-linecap: round;stroke-linejoin: round;fill-rule: evenodd" d="M 1329660.220000,659353.530000 1330352.630000,659905.720000 1330736.900000,660703.640000 1330786.790000,661146.460000 1330786.790000,1152076.460000 1330589.720000,1152939.890000 1330037.530000,1153632.300000 1329239.610000,1154016.570000 1328796.790000,1154066.460000 1303038.660000,1154066.460000 1302175.230000,1153869.390000 1301482.820000,1153317.200000 1301098.550000,1152519.280000 1301061.170000,1151853.650000 1301063.830000,1151830.000000 1301076.430000,1151830.000000 1301076.430000,1115170.000000 1232923.570000,1115170.000000 1232923.570000,1151830.000000 1232929.930000,1151830.000000 1232929.920000,1152519.300000 1232545.650000,1153317.220000 1231853.230000,1153869.400000 1230989.820000,1154066.460000 1099486.790000,1154066.460000 1098623.360000,1153869.390000 1097930.950000,1153317.200000 1097546.680000,1152519.280000 1097496.790000,1152076.460000 1097496.790000,886387.530000 1229945.140000,886387.530000 1229956.000000,886498.290000 1229956.000000,886498.300000 1229986.250000,886806.750000 1230120.390000,888174.860000 1230687.260000,889878.960000 1231617.590000,891415.120000 1232865.140000,892706.990000 1234367.890000,893690.360000 1234472.140000,893729.130000 1235946.850000,894277.570000 1235946.870000,894277.570000 1236051.160000,894316.360000 1236161.430000,894331.070000 1236161.460000,894331.080000 1237344.860000,894488.980000 1237831.300000,894553.880000 1237942.070000,894543.800000 1239508.960000,894401.210000 1239508.980000,894401.210000 1239619.810000,894391.120000 1240473.810000,894113.640000 1241221.960000,893870.550000 1241221.990000,893870.540000 1241327.820000,893836.150000 1241572.390000,893690.360000 1242774.890000,892973.530000 1242774.900000,892973.520000 1242870.440000,892916.570000 1244170.990000,891678.070000 1244345.700000,891415.120000 1245103.250000,890274.900000 1245164.830000,890182.220000 1245802.570000,888503.360000 1245924.700000,887634.340000 1246240.010000,886806.750000 1246488.190000,886504.160000 1249275.610000,883716.740000 1249471.250000,883545.170000 1249682.820000,883382.820000 1250645.360000,882128.410000 1251250.440000,880667.620000 1251405.000000,879493.610000 1251456.820000,879100.000000 1251439.800000,878970.720000 1251439.800000,878970.650000 1251422.030000,878835.670000 1251405.000000,878575.920000 1251405.000000,853002.310000 1251602.070000,852138.880000 1252154.260000,851446.470000 1252491.560000,851229.210000 1252643.880000,851151.600000 1252783.420000,851080.500000 1253680.500000,850183.420000 1254256.460000,849053.040000 1254405.000000,848115.190000 1254404.990000,822384.820000 1254392.750000,822307.530000 1254280.970000,821601.690000 1254280.960000,821601.660000 1254256.460000,821446.960000 1253680.500000,820316.580000 1252783.420000,819419.500000 1251653.040000,818843.540000 1250715.190000,818695.000000 1250636.950000,818695.000000 1245396.270000,818695.010000 1240084.820000,818695.010000 1240007.690000,818707.230000 1240007.630000,818707.230000 1239301.690000,818819.030000 1239301.660000,818819.040000 1239146.960000,818843.540000 1239007.400000,818914.650000 1239007.370000,818914.660000 1238734.830000,819053.530000 1238016.580000,819419.500000 1237119.500000,820316.580000 1236543.540000,821446.960000 1236395.000000,822384.810000 1236395.010000,848115.180000 1236407.230000,848192.310000 1236407.230000,848192.370000 1236519.030000,848898.310000 1236519.040000,848898.340000 1236543.540000,849053.040000 1237119.500000,850183.420000 1238016.580000,851080.500000 1238156.120000,851151.600000 1238308.440000,851229.210000 1238988.290000,851796.790000 1239354.550000,852603.140000 1239395.000000,853002.310000 1239395.000000,875788.370000 1239197.930000,876651.800000 1238812.140000,877195.510000 1238003.480000,878004.170000 1237253.600000,878475.360000 1236804.350000,878576.130000 1236270.170000,878632.270000 1234570.070000,879211.030000 1233626.510000,879791.510000 1233135.210000,880093.760000 1233135.190000,880093.770000 1233040.450000,880152.060000 1231757.320000,881408.590000 1230784.460000,882918.170000 1230170.220000,884605.780000 1229945.140000,886387.530000 1097496.790000,886387.530000 1097496.790000,822384.810000 1185595.000000,822384.810000 1185595.010000,848115.180000 1185607.230000,848192.310000 1185607.230000,848192.370000 1185719.030000,848898.310000 1185719.040000,848898.340000 1185743.540000,849053.040000 1186319.500000,850183.420000 1187216.580000,851080.500000 1188346.960000,851656.460000 1189284.810000,851805.000000 1189363.050000,851805.000000 1194603.730000,851804.990000 1199915.180000,851804.990000 1199992.310000,851792.770000 1199992.370000,851792.770000 1200698.310000,851680.970000 1200698.340000,851680.960000 1200853.040000,851656.460000 1200992.600000,851585.350000 1200992.630000,851585.340000 1201843.880000,851151.600000 1201983.420000,851080.500000 1202880.500000,850183.420000 1203456.460000,849053.040000 1203605.000000,848115.190000 1203604.990000,822384.820000 1203592.750000,822307.530000 1203480.970000,821601.690000 1203480.960000,821601.660000 1203456.460000,821446.960000 1202880.500000,820316.580000 1201983.420000,819419.500000 1201691.560000,819270.790000 1201011.710000,818703.210000 1200645.450000,817896.860000 1200605.000000,817497.690000 1200605.000000,815051.760000 1209700.000000,815051.760000 1209707.200000,815171.300000 1209789.250000,815849.240000 1209851.650000,816094.940000 1210289.220000,817200.150000 1210421.150000,817434.290000 1211135.100000,818374.870000 1211325.130000,818564.900000 1212265.710000,819278.850000 1212499.850000,819410.780000 1213605.060000,819848.350000 1213850.760000,819910.750000 1214528.700000,819992.800000 1214648.240000,820000.000000 1217235.770000,820000.000000 1217425.470000,819956.700000 1217460.000000,819885.000000 1217460.000000,819775.770000 1222540.000000,819775.770000 1222583.300000,819965.470000 1222655.000000,820000.000000 1225351.760000,820000.000000 1225471.300000,819992.800000 1226149.240000,819910.750000 1226394.940000,819848.350000 1227500.150000,819410.780000 1227734.290000,819278.850000 1228674.870000,818564.900000 1228864.900000,818374.870000 1229578.850000,817434.290000 1229710.780000,817200.150000 1230148.350000,816094.940000 1230210.750000,815849.240000 1230292.800000,815171.300000 1230300.000000,815051.760000 1230300.000000,804914.230000 1230256.700000,804724.530000 1230185.000000,804690.000000 1222764.230000,804690.000000 1222574.530000,804733.300000 1222540.000000,804805.000000 1222540.000000,819775.770000 1217460.000000,819775.770000 1217460.000000,804914.230000 1217416.700000,804724.530000 1217345.000000,804690.000000 1209924.230000,804690.000000 1209734.530000,804733.300000 1209700.000000,804805.000000 1209700.000000,815051.760000 1200605.000000,815051.760000 1200605.000000,799385.770000 1209700.000000,799385.770000 1209743.300000,799575.470000 1209815.000000,799610.000000 1217235.770000,799610.000000 1217425.470000,799566.700000 1217460.000000,799495.000000 1217460.000000,799385.770000 1222540.000000,799385.770000 1222583.300000,799575.470000 1222655.000000,799610.000000 1230075.770000,799610.000000 1230265.470000,799566.700000 1230300.000000,799495.000000 1230300.000000,789248.240000 1230292.800000,789128.700000 1230210.750000,788450.760000 1230148.350000,788205.060000 1229710.780000,787099.850000 1229578.850000,786865.710000 1228864.900000,785925.130000 1228674.870000,785735.100000 1227734.290000,785021.150000 1227500.150000,784889.220000 1226394.940000,784451.650000 1226149.240000,784389.250000 1225471.300000,784307.200000 1225351.760000,784300.000000 1222764.230000,784300.000000 1222574.530000,784343.300000 1222540.000000,784415.000000 1222540.000000,799385.770000 1217460.000000,799385.770000 1217460.000000,784524.230000 1217416.700000,784334.530000 1217345.000000,784300.000000 1214648.240000,784300.000000 1214528.700000,784307.200000 1213850.760000,784389.250000 1213605.060000,784451.650000 1212499.850000,784889.220000 1212265.710000,785021.150000 1211325.130000,785735.100000 1211135.100000,785925.130000 1210421.150000,786865.710000 1210289.220000,787099.850000 1209851.650000,788205.060000 1209789.250000,788450.760000 1209707.200000,789128.700000 1209700.000000,789248.240000 1209700.000000,799385.770000 1200605.000000,799385.770000 1200605.000000,778391.600000 1200802.070000,777528.170000 1201354.260000,776835.760000 1202152.180000,776451.490000 1202414.630000,776409.790000 1202619.810000,776391.120000 1202821.440000,776325.610000 1204221.960000,775870.550000 1204221.990000,775870.540000 1204327.820000,775836.150000 1205870.440000,774916.570000 1207170.990000,773678.070000 1207314.760000,773461.690000 1208103.250000,772274.900000 1208164.830000,772182.220000 1208237.060000,771992.090000 1208763.050000,770607.390000 1208802.570000,770503.360000 1209052.510000,768724.930000 1209055.650000,768500.000000 1208855.460000,766715.280000 1208780.940000,766501.270000 1208301.450000,765124.370000 1208264.850000,765019.270000 1207313.160000,763496.250000 1206047.700000,762221.930000 1204531.360000,761259.630000 1203641.090000,760942.620000 1202944.360000,760694.520000 1202944.320000,760694.510000 1202839.510000,760657.190000 1202729.040000,760644.020000 1202729.010000,760644.010000 1201166.710000,760457.720000 1201166.690000,760457.720000 1201056.240000,760444.550000 1199270.170000,760632.270000 1199164.820000,760668.130000 1199164.790000,760668.140000 1198380.350000,760935.190000 1197570.070000,761211.030000 1196626.510000,761791.510000 1196135.210000,762093.760000 1196135.190000,762093.770000 1196040.450000,762152.060000 1194757.320000,763408.590000 1193784.460000,764918.170000 1193170.220000,766605.780000 1193156.280000,766716.090000 1193156.280000,766716.110000 1193077.520000,767339.580000 1192773.780000,768171.500000 1192510.350000,768497.300000 1190724.390000,770283.260000 1190528.750000,770454.830000 1190317.180000,770617.180000 1190237.810000,770720.620000 1190237.780000,770720.650000 1190075.530000,770932.110000 1190075.500000,770932.150000 1189354.640000,771871.590000 1188749.560000,773332.380000 1188543.180000,774900.000000 1188560.200000,775029.280000 1188560.200000,775029.350000 1188577.970000,775164.330000 1188595.000000,775424.080000 1188595.000000,817497.690000 1188397.930000,818361.120000 1187845.740000,819053.530000 1187508.450000,819270.790000 1187216.580000,819419.500000 1186319.500000,820316.580000 1185743.540000,821446.960000 1185595.000000,822384.810000 1097496.790000,822384.810000 1097496.790000,661146.460000 1097693.860000,660283.030000 1098246.050000,659590.620000 1099043.970000,659206.350000 1099486.790000,659156.460000 1328796.790000,659156.460000 Z"/> 
</g>
</g>
</g> 
</g><g id="substrate-pads" style="fill:#c4c1ba; stroke:#c4c1ba;" mask="url(#pads-mask)"><g style="fill-opacity: 0.0;stroke-width: 3000.000000;stroke-opacity: 1;stroke-linecap: round;stroke-linejoin: round">
<text x="1267000.000000" y="1141000.000000" transform="scale(-1 1) translate(-2534000.000000 0)" textLength="53242.860000" font-size="20000.000000" lengthAdjust="spacingAndGlyphs" text-anchor="middle" opacity="0">MLAB</text>
<g class="stroked-text"><desc>MLAB</desc>
<path d="M1292000 1140285 L1292000 1125285 L1287000 1136000 L1282000 1125285 L1282000 1140285 "/>
<path d="M1267714 1140285 L1274857 1140285 L1274857 1125285 "/>
<path d="M1263428 1136000 L1256285 1136000 "/>
<path d="M1264857 1140285 L1259857 1125285 L1254857 1140285 "/>
<path d="M1244857 1132428 L1242714 1133142 L1242000 1133857 L1241285 1135285 L1241285 1137428 L1242000 1138857 L1242714 1139571 L1244142 1140285 L1249857 1140285 L1249857 1125285 L1244857 1125285 L1243428 1126000 L1242714 1126714 L1242000 1128142 L1242000 1129571 L1242714 1131000 L1243428 1131714 L1244857 1132428 L1249857 1132428 "/>
</g><g style="fill-opacity: 1.0;stroke-width: 0.010000;stroke-opacity: 1;stroke-linecap: round;stroke-linejoin: round">
<circle cx="1141751.790000" cy="703411.460000" r="30000.000000"/> 
</g>
<g style="fill-opacity: 1.0;stroke-width: 0.010000;stroke-opacity: 1;stroke-linecap: round;stroke-linejoin: round">
<circle cx="1141751.790000" cy="1109811.460000" r="30000.000000"/> 
</g>
<g style="fill-opacity: 1.0;stroke-width: 0.010000;stroke-opacity: 1;stroke-linecap: round;stroke-linejoin: round">
<path style="fill-opacity: 1.0;stroke-width: 0.010000;stroke-opacity: 1;stroke-linecap: round;stroke-linejoin: round;fill-rule: evenodd" d="M 1250400.000000,847800.000000 1240400.000000,847800.000000 1240400.000000,822700.000000 1250400.000000,822700.000000 Z"/> 
<path style="fill-opacity: 1.0;stroke-width: 0.010000;stroke-opacity: 1;stroke-linecap: round;stroke-linejoin: round;fill-rule: evenodd" d="M 1225000.000000,814700.000000 1215000.000000,814700.000000 1215000.000000,789600.000000 1225000.000000,789600.000000 Z"/> 
<path style="fill-opacity: 1.0;stroke-width: 0.010000;stroke-opacity: 1;stroke-linecap: round;stroke-linejoin: round;fill-rule: evenodd" d="M 1199600.000000,847800.000000 1189600.000000,847800.000000 1189600.000000,822700.000000 1199600.000000,822700.000000 Z"/> 
</g>
<g style="fill-opacity: 1.0;stroke-width: 0.010000;stroke-opacity: 1;stroke-linecap: round;stroke-linejoin: round">
<circle cx="1238000.000000" cy="886500.000000" r="4000.000000"/> 
</g>
<g style="fill-opacity: 1.0;stroke-width: 0.010000;stroke-opacity: 1;stroke-linecap: round;stroke-linejoin: round">
<circle cx="1201000.000000" cy="768500.000000" r="4000.000000"/> 
</g>
<g style="fill-opacity: 0.0;stroke-width: 4000.000000;stroke-opacity: 1;stroke-linecap: round;stroke-linejoin: round">
<path d="M1245400 879100 L1238000 886500 "/>
<path d="M1245400 835250 L1245400 879100 "/>
<path d="M1201000 768500 L1194600 774900 "/>
<path d="M1194600 774900 L1194600 835250 "/>
</g>
<g style="fill-opacity: 0.0;stroke-width: 4000.000000;stroke-opacity: 1;stroke-linecap: round;stroke-linejoin: round">
<g style="fill-opacity: 1.0;stroke-width: 0.010000;stroke-opacity: 1;stroke-linecap: round;stroke-linejoin: round">
<path style="fill-opacity: 1.0;stroke-width: 0.010000;stroke-opacity: 1;stroke-linecap: round;stroke-linejoin: round;fill-rule: evenodd" d="M 1329660.220000,659353.530000 1330352.630000,659905.720000 1330736.900000,660703.640000 1330786.790000,661146.460000 1330786.790000,1152076.460000 1330589.720000,1152939.890000 1330037.530000,1153632.300000 1329239.610000,1154016.570000 1328796.790000,1154066.460000 1303038.660000,1154066.460000 1302175.230000,1153869.390000 1301482.820000,1153317.200000 1301098.550000,1152519.280000 1301061.170000,1151853.650000 1301063.830000,1151830.000000 1301076.430000,1151830.000000 1301076.430000,1115170.000000 1232923.570000,1115170.000000 1232923.570000,1151830.000000 1232929.930000,1151830.000000 1232929.920000,1152519.300000 1232545.650000,1153317.220000 1231853.230000,1153869.400000 1230989.820000,1154066.460000 1099486.790000,1154066.460000 1098623.360000,1153869.390000 1097930.950000,1153317.200000 1097546.680000,1152519.280000 1097496.790000,1152076.460000 1097496.790000,886387.530000 1229945.140000,886387.530000 1229956.000000,886498.290000 1229956.000000,886498.300000 1229986.250000,886806.750000 1230120.390000,888174.860000 1230687.260000,889878.960000 1231617.590000,891415.120000 1232865.140000,892706.990000 1234367.890000,893690.360000 1234472.140000,893729.130000 1235946.850000,894277.570000 1235946.870000,894277.570000 1236051.160000,894316.360000 1236161.430000,894331.070000 1236161.460000,894331.080000 1237344.860000,894488.980000 1237831.300000,894553.880000 1237942.070000,894543.800000 1239508.960000,894401.210000 1239508.980000,894401.210000 1239619.810000,894391.120000 1240473.810000,894113.640000 1241221.960000,893870.550000 1241221.990000,893870.540000 1241327.820000,893836.150000 1241572.390000,893690.360000 1242774.890000,892973.530000 1242774.900000,892973.520000 1242870.440000,892916.570000 1244170.990000,891678.070000 1244345.700000,891415.120000 1245103.250000,890274.900000 1245164.830000,890182.220000 1245802.570000,888503.360000 1245924.700000,887634.340000 1246240.010000,886806.750000 1246488.190000,886504.160000 1249275.610000,883716.740000 1249471.250000,883545.170000 1249682.820000,883382.820000 1250645.360000,882128.410000 1251250.440000,880667.620000 1251405.000000,879493.610000 1251456.820000,879100.000000 1251439.800000,878970.720000 1251439.800000,878970.650000 1251422.030000,878835.670000 1251405.000000,878575.920000 1251405.000000,853002.310000 1251602.070000,852138.880000 1252154.260000,851446.470000 1252491.560000,851229.210000 1252643.880000,851151.600000 1252783.420000,851080.500000 1253680.500000,850183.420000 1254256.460000,849053.040000 1254405.000000,848115.190000 1254404.990000,822384.820000 1254392.750000,822307.530000 1254280.970000,821601.690000 1254280.960000,821601.660000 1254256.460000,821446.960000 1253680.500000,820316.580000 1252783.420000,819419.500000 1251653.040000,818843.540000 1250715.190000,818695.000000 1250636.950000,818695.000000 1245396.270000,818695.010000 1240084.820000,818695.010000 1240007.690000,818707.230000 1240007.630000,818707.230000 1239301.690000,818819.030000 1239301.660000,818819.040000 1239146.960000,818843.540000 1239007.400000,818914.650000 1239007.370000,818914.660000 1238734.830000,819053.530000 1238016.580000,819419.500000 1237119.500000,820316.580000 1236543.540000,821446.960000 1236395.000000,822384.810000 1236395.010000,848115.180000 1236407.230000,848192.310000 1236407.230000,848192.370000 1236519.030000,848898.310000 1236519.040000,848898.340000 1236543.540000,849053.040000 1237119.500000,850183.420000 1238016.580000,851080.500000 1238156.120000,851151.600000 1238308.440000,851229.210000 1238988.290000,851796.790000 1239354.550000,852603.140000 1239395.000000,853002.310000 1239395.000000,875788.370000 1239197.930000,876651.800000 1238812.140000,877195.510000 1238003.480000,878004.170000 1237253.600000,878475.360000 1236804.350000,878576.130000 1236270.170000,878632.270000 1234570.070000,879211.030000 1233626.510000,879791.510000 1233135.210000,880093.760000 1233135.190000,880093.770000 1233040.450000,880152.060000 1231757.320000,881408.590000 1230784.460000,882918.170000 1230170.220000,884605.780000 1229945.140000,886387.530000 1097496.790000,886387.530000 1097496.790000,822384.810000 1185595.000000,822384.810000 1185595.010000,848115.180000 1185607.230000,848192.310000 1185607.230000,848192.370000 1185719.030000,848898.310000 1185719.040000,848898.340000 1185743.540000,849053.040000 1186319.500000,850183.420000 1187216.580000,851080.500000 1188346.960000,851656.460000 1189284.810000,851805.000000 1189363.050000,851805.000000 1194603.730000,851804.990000 1199915.180000,851804.990000 1199992.310000,851792.770000 1199992.370000,851792.770000 1200698.310000,851680.970000 1200698.340000,851680.960000 1200853.040000,851656.460000 1200992.600000,851585.350000 1200992.630000,851585.340000 1201843.880000,851151.600000 1201983.420000,851080.500000 1202880.500000,850183.420000 1203456.460000,849053.040000 1203605.000000,848115.190000 1203604.990000,822384.820000 1203592.750000,822307.530000 1203480.970000,821601.690000 1203480.960000,821601.660000 1203456.460000,821446.960000 1202880.500000,820316.580000 1201983.420000,819419.500000 1201691.560000,819270.790000 1201011.710000,818703.210000 1200645.450000,817896.860000 1200605.000000,817497.690000 1200605.000000,815051.760000 1209700.000000,815051.760000 1209707.200000,815171.300000 1209789.250000,815849.240000 1209851.650000,816094.940000 1210289.220000,817200.150000 1210421.150000,817434.290000 1211135.100000,818374.870000 1211325.130000,818564.900000 1212265.710000,819278.850000 1212499.850000,819410.780000 1213605.060000,819848.350000 1213850.760000,819910.750000 1214528.700000,819992.800000 1214648.240000,820000.000000 1217235.770000,820000.000000 1217425.470000,819956.700000 1217460.000000,819885.000000 1217460.000000,819775.770000 1222540.000000,819775.770000 1222583.300000,819965.470000 1222655.000000,820000.000000 1225351.760000,820000.000000 1225471.300000,819992.800000 1226149.240000,819910.750000 1226394.940000,819848.350000 1227500.150000,819410.780000 1227734.290000,819278.850000 1228674.870000,818564.900000 1228864.900000,818374.870000 1229578.850000,817434.290000 1229710.780000,817200.150000 1230148.350000,816094.940000 1230210.750000,815849.240000 1230292.800000,815171.300000 1230300.000000,815051.760000 1230300.000000,804914.230000 1230256.700000,804724.530000 1230185.000000,804690.000000 1222764.230000,804690.000000 1222574.530000,804733.300000 1222540.000000,804805.000000 1222540.000000,819775.770000 1217460.000000,819775.770000 1217460.000000,804914.230000 1217416.700000,804724.530000 1217345.000000,804690.000000 1209924.230000,804690.000000 1209734.530000,804733.300000 1209700.000000,804805.000000 1209700.000000,815051.760000 1200605.000000,815051.760000 1200605.000000,799385.770000 1209700.000000,799385.770000 1209743.300000,799575.470000 1209815.000000,799610.000000 1217235.770000,799610.000000 1217425.470000,799566.700000 1217460.000000,799495.000000 1217460.000000,799385.770000 1222540.000000,799385.770000 1222583.300000,799575.470000 1222655.000000,799610.000000 1230075.770000,799610.000000 1230265.470000,799566.700000 1230300.000000,799495.000000 1230300.000000,789248.240000 1230292.800000,789128.700000 1230210.750000,788450.760000 1230148.350000,788205.060000 1229710.780000,787099.850000 1229578.850000,786865.710000 1228864.900000,785925.130000 1228674.870000,785735.100000 1227734.290000,785021.150000 1227500.150000,784889.220000 1226394.940000,784451.650000 1226149.240000,784389.250000 1225471.300000,784307.200000 1225351.760000,784300.000000 1222764.230000,784300.000000 1222574.530000,784343.300000 1222540.000000,784415.000000 1222540.000000,799385.770000 1217460.000000,799385.770000 1217460.000000,784524.230000 1217416.700000,784334.530000 1217345.000000,784300.000000 1214648.240000,784300.000000 1214528.700000,784307.200000 1213850.760000,784389.250000 1213605.060000,784451.650000 1212499.850000,784889.220000 1212265.710000,785021.150000 1211325.130000,785735.100000 1211135.100000,785925.130000 1210421.150000,786865.710000 1210289.220000,787099.850000 1209851.650000,788205.060000 1209789.250000,788450.760000 1209707.200000,789128.700000 1209700.000000,789248.240000 1209700.000000,799385.770000 1200605.000000,799385.770000 1200605.000000,778391.600000 1200802.070000,777528.170000 1201354.260000,776835.760000 1202152.180000,776451.490000 1202414.630000,776409.790000 1202619.810000,776391.120000 1202821.440000,776325.610000 1204221.960000,775870.550000 1204221.990000,775870.540000 1204327.820000,775836.150000 1205870.440000,774916.570000 1207170.990000,773678.070000 1207314.760000,773461.690000 1208103.250000,772274.900000 1208164.830000,772182.220000 1208237.060000,771992.090000 1208763.050000,770607.390000 1208802.570000,770503.360000 1209052.510000,768724.930000 1209055.650000,768500.000000 1208855.460000,766715.280000 1208780.940000,766501.270000 1208301.450000,765124.370000 1208264.850000,765019.270000 1207313.160000,763496.250000 1206047.700000,762221.930000 1204531.360000,761259.630000 1203641.090000,760942.620000 1202944.360000,760694.520000 1202944.320000,760694.510000 1202839.510000,760657.190000 1202729.040000,760644.020000 1202729.010000,760644.010000 1201166.710000,760457.720000 1201166.690000,760457.720000 1201056.240000,760444.550000 1199270.170000,760632.270000 1199164.820000,760668.130000 1199164.790000,760668.140000 1198380.350000,760935.190000 1197570.070000,761211.030000 1196626.510000,761791.510000 1196135.210000,762093.760000 1196135.190000,762093.770000 1196040.450000,762152.060000 1194757.320000,763408.590000 1193784.460000,764918.170000 1193170.220000,766605.780000 1193156.280000,766716.090000 1193156.280000,766716.110000 1193077.520000,767339.580000 1192773.780000,768171.500000 1192510.350000,768497.300000 1190724.390000,770283.260000 1190528.750000,770454.830000 1190317.180000,770617.180000 1190237.810000,770720.620000 1190237.780000,770720.650000 1190075.530000,770932.110000 1190075.500000,770932.150000 1189354.640000,771871.590000 1188749.560000,773332.380000 1188543.180000,774900.000000 1188560.200000,775029.280000 1188560.200000,775029.350000 1188577.970000,775164.330000 1188595.000000,775424.080000 1188595.000000,817497.690000 1188397.930000,818361.120000 1187845.740000,819053.530000 1187508.450000,819270.790000 1187216.580000,819419.500000 1186319.500000,820316.580000 1185743.540000,821446.960000 1185595.000000,822384.810000 1097496.790000,822384.810000 1097496.790000,661146.460000 1097693.860000,660283.030000 1098246.050000,659590.620000 1099043.970000,659206.350000 1099486.790000,659156.460000 1328796.790000,659156.460000 Z"/> 
</g>
</g>
</g> 
</g><g id="substrate-silk" style="fill:#0b1013; stroke:#0b1013;" mask="url(#pads-mask-silkscreen)"><g style="fill-opacity: 0.0;stroke-width: 3000.000000;stroke-opacity: 1;stroke-linecap: round;stroke-linejoin: round">
<g transform="rotate(-90.000000 1320800.000000 762000.000000)">
<text x="1320800.000000" y="770500.000000" transform="scale(-1 1) translate(-2641600.000000 0)" textLength="184719.050000" font-size="22666.660000" lengthAdjust="spacingAndGlyphs" text-anchor="middle" opacity="0">PINHOLDER01A</text>
</g>
<g class="stroked-text"><desc>PINHOLDER01A</desc>
<path d="M1328490 671738 L1311490 671738 L1311490 678214 L1312300 679833 L1313109 680642 L1314728 681452 L1317157 681452 L1318776 680642 L1319585 679833 L1320395 678214 L1320395 671738 "/>
<path d="M1328490 688738 L1311490 688738 "/>
<path d="M1328490 696833 L1311490 696833 L1328490 706547 L1311490 706547 "/>
<path d="M1328490 714642 L1311490 714642 "/>
<path d="M1319585 714642 L1319585 724357 "/>
<path d="M1328490 724357 L1311490 724357 "/>
<path d="M1311490 735690 L1311490 738928 L1312300 740547 L1313919 742166 L1317157 742976 L1322823 742976 L1326061 742166 L1327680 740547 L1328490 738928 L1328490 735690 L1327680 734071 L1326061 732452 L1322823 731642 L1317157 731642 L1313919 732452 L1312300 734071 L1311490 735690 "/>
<path d="M1328490 758357 L1328490 750261 L1311490 750261 "/>
<path d="M1328490 764023 L1311490 764023 L1311490 768071 L1312300 770500 L1313919 772119 L1315538 772928 L1318776 773738 L1321204 773738 L1324442 772928 L1326061 772119 L1327680 770500 L1328490 768071 L1328490 764023 "/>
<path d="M1319585 781023 L1319585 786690 "/>
<path d="M1328490 789119 L1328490 781023 L1311490 781023 L1311490 789119 "/>
<path d="M1328490 806119 L1320395 800452 "/>
<path d="M1328490 796404 L1311490 796404 L1311490 802880 L1312300 804500 L1313109 805309 L1314728 806119 L1317157 806119 L1318776 805309 L1319585 804500 L1320395 802880 L1320395 796404 "/>
<path d="M1311490 816642 L1311490 818261 L1312300 819880 L1313109 820690 L1314728 821500 L1317966 822309 L1322014 822309 L1325252 821500 L1326871 820690 L1327680 819880 L1328490 818261 L1328490 816642 L1327680 815023 L1326871 814214 L1325252 813404 L1322014 812595 L1317966 812595 L1314728 813404 L1313109 814214 L1312300 815023 L1311490 816642 "/>
<path d="M1328490 838500 L1328490 828785 "/>
<path d="M1328490 833642 L1311490 833642 L1313919 832023 L1315538 830404 L1316347 828785 "/>
<path d="M1323633 844976 L1323633 853071 "/>
<path d="M1328490 843357 L1311490 849023 L1328490 854690 "/>
</g></g>
<g style="fill-opacity: 0.0;stroke-width: 1500.000000;stroke-opacity: 1;stroke-linecap: round;stroke-linejoin: round">
<g transform="rotate(-180.000000 1221000.000000 859500.000000)">
<text x="1221000.000000" y="864500.000000" transform="scale(-1 1) translate(-2442000.000000 0)" textLength="60385.710000" font-size="13333.330000" lengthAdjust="spacingAndGlyphs" text-anchor="middle" opacity="0">A GND K</text>
</g>
<g class="stroked-text"><desc>A GND K</desc>
<path d="M1190761 857833 L1195523 857833 "/>
<path d="M1189809 854976 L1193142 864976 L1196476 854976 "/>
<path d="M1212666 864500 L1211714 864976 L1210285 864976 L1208857 864500 L1207904 863547 L1207428 862595 L1206952 860690 L1206952 859261 L1207428 857357 L1207904 856404 L1208857 855452 L1210285 854976 L1211238 854976 L1212666 855452 L1213142 855928 L1213142 859261 L1211238 859261 "/>
<path d="M1217428 854976 L1217428 864976 L1223142 854976 L1223142 864976 "/>
<path d="M1227904 854976 L1227904 864976 L1230285 864976 L1231714 864500 L1232666 863547 L1233142 862595 L1233619 860690 L1233619 859261 L1233142 857357 L1232666 856404 L1231714 855452 L1230285 854976 L1227904 854976 "/>
<path d="M1245523 854976 L1245523 864976 "/>
<path d="M1251238 854976 L1246952 860690 "/>
<path d="M1251238 864976 L1245523 859261 "/>
</g><g transform="rotate(-90.000000 1268700.000000 818700.000000)">
<text x="1268700.000000" y="823700.000000" transform="scale(-1 1) translate(-2537400.000000 0)" textLength="15192.860000" font-size="13333.330000" lengthAdjust="spacingAndGlyphs" text-anchor="middle" opacity="0">J1</text>
</g>
<g class="stroked-text"><desc>J1</desc>
<path d="M1263223 815366 L1270366 815366 L1271795 814890 L1272747 813938 L1273223 812509 L1273223 811557 "/>
<path d="M1273223 825366 L1273223 819652 "/>
<path d="M1273223 822509 L1263223 822509 L1264652 821557 L1265604 820604 L1266080 819652 "/>
</g></g>
<g style="fill-opacity: 0.0;stroke-width: 1200.000000;stroke-opacity: 1;stroke-linecap: round;stroke-linejoin: round">
<path d="M1181300 832000 L1181300 805400 "/>
<path d="M1237800 832000 L1202200 832000 "/>
<path d="M1258700 832000 L1258700 805400 "/>
<path d="M1258700 832000 L1253000 832000 "/>
<path d="M1212400 805400 L1181300 805400 "/>
<path d="M1187000 805400 L1181300 805400 "/>
<path d="M1253000 832000 L1253000 847200 "/>
<path d="M1258700 805400 L1227600 805400 "/>
</g> 
</g><g id="substrate-outline" style="fill:#000000; stroke:#000000; stroke-width: 1500.0"><g style="fill-opacity: 0.0;stroke-opacity: 1;stroke-linecap: round;stroke-linejoin: round">
<path d="M1334791 1158071 L1334791 655151 "/>
<path d="M1093491 1158071 L1093491 655151 "/>
<path d="M1093491 1158071 L1334791 1158071 "/>
<path d="M1093491 655151 L1334791 655151 "/>
</g> 
<path d="M -15000.0 0.0 A 15000.0 15000.0 0 1 1 15000.0 0.0 L 15000.0 -0.0 A 15000.0 15000.0 0 1 1 -15000.0 -0.0 Z" transform="translate(1141751.79 703411.46) rotate(-0.0)"/><path d="M -15000.0 0.0 A 15000.0 15000.0 0 1 1 15000.0 0.0 L 15000.0 -0.0 A 15000.0 15000.0 0 1 1 -15000.0 -0.0 Z" transform="translate(1141751.79 1109811.46) rotate(-0.0)"/><path d="M -2000.0 0.0 A 2000.0 2000.0 0 1 1 2000.0 0.0 L 2000.0 -0.0 A 2000.0 2000.0 0 1 1 -2000.0 -0.0 Z" transform="translate(1238000.0 886500.0) rotate(0)"/><path d="M -2000.0 0.0 A 2000.0 2000.0 0 1 1 2000.0 0.0 L 2000.0 -0.0 A 2000.0 2000.0 0 1 1 -2000.0 -0.0 Z" transform="translate(1201000.0 768500.0) rotate(0)"/></g></g><g id="substrate-paste" style="fill:#8a8a8a; stroke:#8a8a8a;"><g style="fill-opacity: 0.0;stroke-width: 0.000000;stroke-opacity: 1;stroke-linecap: round;stroke-linejoin: round">
<g style="fill-opacity: 1.0;stroke-width: 0.010000;stroke-opacity: 1;stroke-linecap: round;stroke-linejoin: round">
<path style="fill-opacity: 1.0;stroke-width: 0.010000;stroke-opacity: 1;stroke-linecap: round;stroke-linejoin: round;fill-rule: evenodd" d="M 1250400.000000,847800.000000 1240400.000000,847800.000000 1240400.000000,822700.000000 1250400.000000,822700.000000 Z"/> 
<path style="fill-opacity: 1.0;stroke-width: 0.010000;stroke-opacity: 1;stroke-linecap: round;stroke-linejoin: round;fill-rule: evenodd" d="M 1225000.000000,814700.000000 1215000.000000,814700.000000 1215000.000000,789600.000000 1225000.000000,789600.000000 Z"/> 
<path style="fill-opacity: 1.0;stroke-width: 0.010000;stroke-opacity: 1;stroke-linecap: round;stroke-linejoin: round;fill-rule: evenodd" d="M 1199600.000000,847800.000000 1189600.000000,847800.000000 1189600.000000,822700.000000 1199600.000000,822700.000000 Z"/> 
</g>
</g> 
</g></g></svg>