<!DOCTYPE svg PUBLIC "-//W3C//DTD SVG 1.1//EN" "http://www.w3.org/Graphics/SVG/1.1/DTD/svg11.dtd">
<svg xmlns="http://www.w3.org/2000/svg" version="1.1" width="34.33mm" height="60.491999mm" viewBox="104.249179 60.41514599999999 34.33000000000001 60.49199999999999">
            <title>Picture generated by PcbDraw </title>
            <desc>Picture generated by PcbDraw</desc>
        <defs><clipPath id="cut-off"><path d=" M 133.4792 65.5151 L 109.3492 65.5151 L 109.3492 115.8071 L 133.4792 115.8071 L 133.4792 65.5151 " style="fill-rule: evenodd;"/></clipPath><mask id="pads-mask"><g style="fill:#ffffff; fill-opacity:0.0;  stroke:#ffffff; stroke-width:0.0000; stroke-opacity:1;  stroke-linecap:round; stroke-linejoin:round;">
<g style="fill:#ffffff; fill-opacity:1.0000;  stroke:#ffffff; stroke-width:0.0000; stroke-opacity:1;  stroke-linecap:round; stroke-linejoin:round;">
<circle cx="114.1752" cy="70.3411" r="3.2000"/> 
</g>
<g style="fill:#ffffff; fill-opacity:1.0000;  stroke:#ffffff; stroke-width:0.0000; stroke-opacity:1;  stroke-linecap:round; stroke-linejoin:round;">
<circle cx="114.1752" cy="110.9811" r="3.2000"/> 
</g>
<g style="fill:#ffffff; fill-opacity:1.0000;  stroke:#ffffff; stroke-width:0.0000; stroke-opacity:1;  stroke-linecap:round; stroke-linejoin:round;">
<circle cx="120.7500" cy="90.7500" r="0.4549"/> 
</g>
<g style="fill:#ffffff; fill-opacity:1.0000;  stroke:#ffffff; stroke-width:0.0000; stroke-opacity:1;  stroke-linecap:round; stroke-linejoin:round;">
<path style="fill:#ffffff; fill-opacity:1.0000;  stroke:#ffffff; stroke-width:0.0000; stroke-opacity:1;  stroke-linecap:round; stroke-linejoin:round;fill-rule:evenodd;" d="M 124.1000,77.1500 124.0848,77.2265 124.0414,77.2914 123.9765,77.3348 123.9000,77.3500 120.1000,77.3500 120.0235,77.3348 119.9586,77.2914 119.9152,77.2265 119.9000,77.1500 119.9000,75.1500 119.9152,75.0735 119.9586,75.0086 120.0235,74.9652 120.1000,74.9500 123.9000,74.9500 123.9765,74.9652 124.0414,75.0086 124.0848,75.0735 124.1000,75.1500 Z"/> 
</g>
<g style="fill:#ffffff; fill-opacity:1.0000;  stroke:#ffffff; stroke-width:0.0000; stroke-opacity:1;  stroke-linecap:round; stroke-linejoin:round;">
<g>
<path style="fill:#ffffff; fill-opacity:1.0000;  stroke:#ffffff; stroke-width:0.0000; stroke-opacity:1;  stroke-linecap:round; stroke-linejoin:round;fill-rule:evenodd;" d="M 133.4647,65.5296 133.4792,65.5646 133.4792,115.7576 133.4647,115.7926 133.4297,115.8071 109.3987,115.8071 109.3637,115.7926 109.3492,115.7576 109.3492,65.5646 109.3637,65.5296 109.3987,65.5151 133.4297,65.5151 Z"/> 
</g>
</g>
</g> 
</mask><mask id="pads-mask-silkscreen"><rect x="109.249179" y="65.415146" width="24.33" height="50.492" fill="white"/><g style="fill:#000000; fill-opacity:0.0;  stroke:#000000; stroke-width:0.0000; stroke-opacity:1;  stroke-linecap:round; stroke-linejoin:round;">
<g style="fill:#000000; fill-opacity:1.0000;  stroke:#000000; stroke-width:0.0000; stroke-opacity:1;  stroke-linecap:round; stroke-linejoin:round;">
<circle cx="114.1752" cy="70.3411" r="3.2000"/> 
</g>
<g style="fill:#000000; fill-opacity:1.0000;  stroke:#000000; stroke-width:0.0000; stroke-opacity:1;  stroke-linecap:round; stroke-linejoin:round;">
<circle cx="114.1752" cy="110.9811" r="3.2000"/> 
</g>
<g style="fill:#000000; fill-opacity:1.0000;  stroke:#000000; stroke-width:0.0000; stroke-opacity:1;  stroke-linecap:round; stroke-linejoin:round;">
<circle cx="120.7500" cy="90.7500" r="0.4549"/> 
</g>
<g style="fill:#000000; fill-opacity:1.0000;  stroke:#000000; stroke-width:0.0000; stroke-opacity:1;  stroke-linecap:round; stroke-linejoin:round;">
<path style="fill:#000000; fill-opacity:1.0000;  stroke:#000000; stroke-width:0.0000; stroke-opacity:1;  stroke-linecap:round; stroke-linejoin:round;fill-rule:evenodd;" d="M 124.1000,77.1500 124.0848,77.2265 124.0414,77.2914 123.9765,77.3348 123.9000,77.3500 120.1000,77.3500 120.0235,77.3348 119.9586,77.2914 119.9152,77.2265 119.9000,77.1500 119.9000,75.1500 119.9152,75.0735 119.9586,75.0086 120.0235,74.9652 120.1000,74.9500 123.9000,74.9500 123.9765,74.9652 124.0414,75.0086 124.0848,75.0735 124.1000,75.1500 Z"/> 
</g>
<g style="fill:#000000; fill-opacity:1.0000;  stroke:#000000; stroke-width:0.0000; stroke-opacity:1;  stroke-linecap:round; stroke-linejoin:round;">
<g>
<path style="fill:#000000; fill-opacity:1.0000;  stroke:#000000; stroke-width:0.0000; stroke-opacity:1;  stroke-linecap:round; stroke-linejoin:round;fill-rule:evenodd;" d="M 133.4647,65.5296 133.4792,65.5646 133.4792,115.7576 133.4647,115.7926 133.4297,115.8071 109.3987,115.8071 109.3637,115.7926 109.3492,115.7576 109.3492,65.5646 109.3637,65.5296 109.3987,65.5151 133.4297,65.5151 Z"/> 
</g>
</g>
</g> 
</mask><mask id="hole-mask"><g><rect x="109.249179" y="65.415146" fill="white" width="24.33" height="50.492"/><polyline stroke-linecap="round" stroke="black" stroke-width="3.0" points="-0.0 0 0.0 0" transform="translate(114.175179 70.341146) rotate(-0.0)"/><polyline stroke-linecap="round" stroke="black" stroke-width="3.0" points="-0.0 0 0.0 0" transform="translate(114.175179 110.981146) rotate(-0.0)"/><polyline stroke-linecap="round" stroke="black" stroke-width="0.4" points="-0.0 0 0.0 0" transform="translate(123.8 88.65) rotate(-0.0)"/><polyline stroke-linecap="round" stroke="black" stroke-width="0.4" points="-0.0 0 0.0 0" transform="translate(120.1 76.85) rotate(-0.0)"/></g></mask></defs><g transform="" id="boardContainer"><g id="substrate" clip-path="url(#cut-off)" mask="url(#hole-mask)"><g id="substrate-board" style="fill:#f1f4f3; stroke:#f1f4f3;"><path d=" M 133.4792 65.5151 L 109.3492 65.5151 L 109.3492 115.8071 L 133.4792 115.8071 L 133.4792 65.5151 " style="fill-rule: evenodd;"/><g style="fill-opacity: 0.0;stroke-width: 0.2000;stroke-opacity: 1;stroke-linecap: round;stroke-linejoin: round">
<path d="M133.4792 115.8071 L133.4792 65.5151 "/>
<path d="M109.3492 115.8071 L109.3492 65.5151 "/>
<path d="M109.3492 115.8071 L133.4792 115.8071 "/>
<path d="M109.3492 65.5151 L133.4792 65.5151 "/>
</g> 
</g><g id="substrate-clad" style="fill:#72786c; stroke:#72786c;"><g style="fill-opacity: 0.0;stroke-width: 0.0000;stroke-opacity: 1;stroke-linecap: round;stroke-linejoin: round">
<g style="fill-opacity: 1.0000;stroke-width: 0.0000;stroke-opacity: 1;stroke-linecap: round;stroke-linejoin: round">
<circle cx="114.1752" cy="70.3411" r="3.2000"/> 
</g>
<g style="fill-opacity: 1.0000;stroke-width: 0.0000;stroke-opacity: 1;stroke-linecap: round;stroke-linejoin: round">
<circle cx="114.1752" cy="110.9811" r="3.2000"/> 
</g>
<g style="fill-opacity: 1.0000;stroke-width: 0.0000;stroke-opacity: 1;stroke-linecap: round;stroke-linejoin: round">
<circle cx="120.7500" cy="90.7500" r="0.4549"/> 
</g>
<g style="fill-opacity: 1.0000;stroke-width: 0.0000;stroke-opacity: 1;stroke-linecap: round;stroke-linejoin: round">
<path style="fill-opacity: 1.0000;stroke-width: 0.0000;stroke-opacity: 1;stroke-linecap: round;stroke-linejoin: round;fill-rule: evenodd" d="M 124.1000,77.1500 124.0848,77.2265 124.0414,77.2914 123.9765,77.3348 123.9000,77.3500 120.1000,77.3500 120.0235,77.3348 119.9586,77.2914 119.9152,77.2265 119.9000,77.1500 119.9000,75.1500 119.9152,75.0735 119.9586,75.0086 120.0235,74.9652 120.1000,74.9500 123.9000,74.9500 123.9765,74.9652 124.0414,75.0086 124.0848,75.0735 124.1000,75.1500 Z"/> 
</g>
<g style="fill-opacity: 1.0000;stroke-width: 0.0000;stroke-opacity: 1;stroke-linecap: round;stroke-linejoin: round">
<g>
<path style="fill-opacity: 1.0000;stroke-width: 0.0000;stroke-opacity: 1;stroke-linecap: round;stroke-linejoin: round;fill-rule: evenodd" d="M 133.4647,65.5296 133.4792,65.5646 133.4792,115.7576 133.4647,115.7926 133.4297,115.8071 109.3987,115.8071 109.3637,115.7926 109.3492,115.7576 109.3492,65.5646 109.3637,65.5296 109.3987,65.5151 133.4297,65.5151 Z"/> 
</g>
</g>
</g> 
</g><g id="substrate-copper" style="fill:#f8f8f7; stroke:#f8f8f7;"><g style="fill-opacity: 0.0;stroke-width: 0.3000;stroke-opacity: 1;stroke-linecap: round;stroke-linejoin: round">
<text x="126.6703" y="114.0777" textLength="6.1643" font-size="2.0000" lengthAdjust="spacingAndGlyphs" text-anchor="middle" opacity="0">MLAB</text>
<g class="stroked-text"><desc>MLAB</desc>
<path d="M124.1703 114.0061 L124.1703 112.5061 "/>
<path d="M124.1703 112.5061 L124.6703 113.5775 "/>
<path d="M124.6703 113.5775 L125.1703 112.5061 "/>
<path d="M125.1703 112.5061 L125.1703 114.0061 "/>
<path d="M126.5989 114.0061 L125.8846 114.0061 "/>
<path d="M125.8846 114.0061 L125.8846 112.5061 "/>
<path d="M127.0275 113.5775 L127.7418 113.5775 "/>
<path d="M126.8846 114.0061 L127.3846 112.5061 "/>
<path d="M127.3846 112.5061 L127.8846 114.0061 "/>
<path d="M128.8846 113.2204 L129.0989 113.2918 "/>
<path d="M129.0989 113.2918 L129.1703 113.3632 "/>
<path d="M129.1703 113.3632 L129.2418 113.5061 "/>
<path d="M129.2418 113.5061 L129.2418 113.7204 "/>
<path d="M129.2418 113.7204 L129.1703 113.8632 "/>
<path d="M129.1703 113.8632 L129.0989 113.9346 "/>
<path d="M129.0989 113.9346 L128.9561 114.0061 "/>
<path d="M128.9561 114.0061 L128.3846 114.0061 "/>
<path d="M128.3846 114.0061 L128.3846 112.5061 "/>
<path d="M128.3846 112.5061 L128.8846 112.5061 "/>
<path d="M128.8846 112.5061 L129.0275 112.5775 "/>
<path d="M129.0275 112.5775 L129.0989 112.6489 "/>
<path d="M129.0989 112.6489 L129.1703 112.7918 "/>
<path d="M129.1703 112.7918 L129.1703 112.9346 "/>
<path d="M129.1703 112.9346 L129.0989 113.0775 "/>
<path d="M129.0989 113.0775 L129.0275 113.1489 "/>
<path d="M129.0275 113.1489 L128.8846 113.2204 "/>
<path d="M128.8846 113.2204 L128.3846 113.2204 "/>
</g><g style="fill-opacity: 1.0000;stroke-width: 0.0000;stroke-opacity: 1;stroke-linecap: round;stroke-linejoin: round">
<circle cx="114.1752" cy="70.3411" r="3.0000"/> 
</g>
<g style="fill-opacity: 1.0000;stroke-width: 0.0000;stroke-opacity: 1;stroke-linecap: round;stroke-linejoin: round">
<circle cx="114.1752" cy="110.9811" r="3.0000"/> 
</g>
<g style="fill-opacity: 1.0000;stroke-width: 0.0000;stroke-opacity: 1;stroke-linecap: round;stroke-linejoin: round">
<circle cx="120.7500" cy="90.7500" r="0.2550"/> 
</g>
<g style="fill-opacity: 1.0000;stroke-width: 0.0000;stroke-opacity: 1;stroke-linecap: round;stroke-linejoin: round">
<path style="fill-opacity: 1.0000;stroke-width: 0.0000;stroke-opacity: 1;stroke-linecap: round;stroke-linejoin: round;fill-rule: evenodd" d="M 123.9000,75.1500 123.9000,77.1500 120.1000,77.1500 120.1000,75.1500 Z"/> 
</g>
<g style="fill-opacity: 1.0000;stroke-width: 0.0000;stroke-opacity: 1;stroke-linecap: round;stroke-linejoin: round">
<circle cx="123.8000" cy="88.6500" r="0.4000"/> 
</g>
<g style="fill-opacity: 1.0000;stroke-width: 0.0000;stroke-opacity: 1;stroke-linecap: round;stroke-linejoin: round">
<circle cx="120.1000" cy="76.8500" r="0.4000"/> 
</g>
<g style="fill-opacity: 0.0;stroke-width: 0.4000;stroke-opacity: 1;stroke-linecap: round;stroke-linejoin: round">
<path d="M120.9500 76.5500 L120.5500 76.9500 "/>
<path d="M120.1000 76.8500 L121.3000 76.8500 "/>
</g>
<g style="fill-opacity: 0.0;stroke-width: 0.4000;stroke-opacity: 1;stroke-linecap: round;stroke-linejoin: round">
<g style="fill-opacity: 1.0000;stroke-width: 0.0000;stroke-opacity: 1;stroke-linecap: round;stroke-linejoin: round">
<path style="fill-opacity: 1.0000;stroke-width: 0.0000;stroke-opacity: 1;stroke-linecap: round;stroke-linejoin: round;fill-rule: evenodd" d="M 124.1921,88.2700 124.2386,88.3237 124.2500,88.3760 124.2500,93.1240 124.2300,93.1921 124.1763,93.2386 124.1240,93.2500 119.3760,93.2500 119.3079,93.2300 119.2614,93.1763 119.2500,93.1240 119.2500,88.3760 119.2700,88.3079 119.3237,88.2614 119.3760,88.2500 124.1240,88.2500 Z"/> 
</g>
</g>
</g> 
</g><g id="substrate-pads" style="fill:#c4c1ba; stroke:#c4c1ba;" mask="url(#pads-mask)"><g style="fill-opacity: 0.0;stroke-width: 0.3000;stroke-opacity: 1;stroke-linecap: round;stroke-linejoin: round">
<text x="126.6703" y="114.0777" textLength="6.1643" font-size="2.0000" lengthAdjust="spacingAndGlyphs" text-anchor="middle" opacity="0">MLAB</text>
<g class="stroked-text"><desc>MLAB</desc>
<path d="M124.1703 114.0061 L124.1703 112.5061 "/>
<path d="M124.1703 112.5061 L124.6703 113.5775 "/>
<path d="M124.6703 113.5775 L125.1703 112.5061 "/>
<path d="M125.1703 112.5061 L125.1703 114.0061 "/>
<path d="M126.5989 114.0061 L125.8846 114.0061 "/>
<path d="M125.8846 114.0061 L125.8846 112.5061 "/>
<path d="M127.0275 113.5775 L127.7418 113.5775 "/>
<path d="M126.8846 114.0061 L127.3846 112.5061 "/>
<path d="M127.3846 112.5061 L127.8846 114.0061 "/>
<path d="M128.8846 113.2204 L129.0989 113.2918 "/>
<path d="M129.0989 113.2918 L129.1703 113.3632 "/>
<path d="M129.1703 113.3632 L129.2418 113.5061 "/>
<path d="M129.2418 113.5061 L129.2418 113.7204 "/>
<path d="M129.2418 113.7204 L129.1703 113.8632 "/>
<path d="M129.1703 113.8632 L129.0989 113.9346 "/>
<path d="M129.0989 113.9346 L128.9561 114.0061 "/>
<path d="M128.9561 114.0061 L128.3846 114.0061 "/>
<path d="M128.3846 114.0061 L128.3846 112.5061 "/>
<path d="M128.3846 112.5061 L128.8846 112.5061 "/>
<path d="M128.8846 112.5061 L129.0275 112.5775 "/>
<path d="M129.0275 112.5775 L129.0989 112.6489 "/>
<path d="M129.0989 112.6489 L129.1703 112.7918 "/>
<path d="M129.1703 112.7918 L129.1703 112.9346 "/>
<path d="M129.1703 112.9346 L129.0989 113.0775 "/>
<path d="M129.0989 113.0775 L129.0275 113.1489 "/>
<path d="M129.0275 113.1489 L128.8846 113.2204 "/>
<path d="M128.8846 113.2204 L128.3846 113.2204 "/>
</g><g style="fill-opacity: 1.0000;stroke-width: 0.0000;stroke-opacity: 1;stroke-linecap: round;stroke-linejoin: round">
<circle cx="114.1752" cy="70.3411" r="3.0000"/> 
</g>
<g style="fill-opacity: 1.0000;stroke-width: 0.0000;stroke-opacity: 1;stroke-linecap: round;stroke-linejoin: round">
<circle cx="114.1752" cy="110.9811" r="3.0000"/> 
</g>
<g style="fill-opacity: 1.0000;stroke-width: 0.0000;stroke-opacity: 1;stroke-linecap: round;stroke-linejoin: round">
<circle cx="120.7500" cy="90.7500" r="0.2550"/> 
</g>
<g style="fill-opacity: 1.0000;stroke-width: 0.0000;stroke-opacity: 1;stroke-linecap: round;stroke-linejoin: round">
<path style="fill-opacity: 1.0000;stroke-width: 0.0000;stroke-opacity: 1;stroke-linecap: round;stroke-linejoin: round;fill-rule: evenodd" d="M 123.9000,75.1500 123.9000,77.1500 120.1000,77.1500 120.1000,75.1500 Z"/> 
</g>
<g style="fill-opacity: 1.0000;stroke-width: 0.0000;stroke-opacity: 1;stroke-linecap: round;stroke-linejoin: round">
<circle cx="123.8000" cy="88.6500" r="0.4000"/> 
</g>
<g style="fill-opacity: 1.0000;stroke-width: 0.0000;stroke-opacity: 1;stroke-linecap: round;stroke-linejoin: round">
<circle cx="120.1000" cy="76.8500" r="0.4000"/> 
</g>
<g style="fill-opacity: 0.0;stroke-width: 0.4000;stroke-opacity: 1;stroke-linecap: round;stroke-linejoin: round">
<path d="M120.9500 76.5500 L120.5500 76.9500 "/>
<path d="M120.1000 76.8500 L121.3000 76.8500 "/>
</g>
<g style="fill-opacity: 0.0;stroke-width: 0.4000;stroke-opacity: 1;stroke-linecap: round;stroke-linejoin: round">
<g style="fill-opacity: 1.0000;stroke-width: 0.0000;stroke-opacity: 1;stroke-linecap: round;stroke-linejoin: round">
<path style="fill-opacity: 1.0000;stroke-width: 0.0000;stroke-opacity: 1;stroke-linecap: round;stroke-linejoin: round;fill-rule: evenodd" d="M 124.1921,88.2700 124.2386,88.3237 124.2500,88.3760 124.2500,93.1240 124.2300,93.1921 124.1763,93.2386 124.1240,93.2500 119.3760,93.2500 119.3079,93.2300 119.2614,93.1763 119.2500,93.1240 119.2500,88.3760 119.2700,88.3079 119.3237,88.2614 119.3760,88.2500 124.1240,88.2500 Z"/> 
</g>
</g>
</g> 
</g><g id="substrate-silk" style="fill:#0b1013; stroke:#0b1013;" mask="url(#pads-mask-silkscreen)"><g style="fill-opacity: 0.0;stroke-width: 0.3000;stroke-opacity: 1;stroke-linecap: round;stroke-linejoin: round">
<g transform="rotate(-90.000000 132.0800 99.0600)">
<text x="132.0800" y="99.9100" textLength="19.2719" font-size="2.2667" lengthAdjust="spacingAndGlyphs" text-anchor="middle" opacity="0">PINHOLDER01A</text>
</g>
<g class="stroked-text"><desc>PINHOLDER01A</desc>
<path d="M132.8509 108.0862 L131.1509 108.0862 "/>
<path d="M131.1509 108.0862 L131.1509 107.4386 "/>
<path d="M131.1509 107.4386 L131.2318 107.2767 "/>
<path d="M131.2318 107.2767 L131.3128 107.1957 "/>
<path d="M131.3128 107.1957 L131.4747 107.1148 "/>
<path d="M131.4747 107.1148 L131.7175 107.1148 "/>
<path d="M131.7175 107.1148 L131.8794 107.1957 "/>
<path d="M131.8794 107.1957 L131.9604 107.2767 "/>
<path d="M131.9604 107.2767 L132.0413 107.4386 "/>
<path d="M132.0413 107.4386 L132.0413 108.0862 "/>
<path d="M132.8509 106.3862 L131.1509 106.3862 "/>
<path d="M132.8509 105.5767 L131.1509 105.5767 "/>
<path d="M131.1509 105.5767 L132.8509 104.6052 "/>
<path d="M132.8509 104.6052 L131.1509 104.6052 "/>
<path d="M132.8509 103.7957 L131.1509 103.7957 "/>
<path d="M131.9604 103.7957 L131.9604 102.8243 "/>
<path d="M132.8509 102.8243 L131.1509 102.8243 "/>
<path d="M131.1509 101.6910 L131.1509 101.3671 "/>
<path d="M131.1509 101.3671 L131.2318 101.2052 "/>
<path d="M131.2318 101.2052 L131.3937 101.0433 "/>
<path d="M131.3937 101.0433 L131.7175 100.9624 "/>
<path d="M131.7175 100.9624 L132.2842 100.9624 "/>
<path d="M132.2842 100.9624 L132.6080 101.0433 "/>
<path d="M132.6080 101.0433 L132.7699 101.2052 "/>
<path d="M132.7699 101.2052 L132.8509 101.3671 "/>
<path d="M132.8509 101.3671 L132.8509 101.6910 "/>
<path d="M132.8509 101.6910 L132.7699 101.8529 "/>
<path d="M132.7699 101.8529 L132.6080 102.0148 "/>
<path d="M132.6080 102.0148 L132.2842 102.0957 "/>
<path d="M132.2842 102.0957 L131.7175 102.0957 "/>
<path d="M131.7175 102.0957 L131.3937 102.0148 "/>
<path d="M131.3937 102.0148 L131.2318 101.8529 "/>
<path d="M131.2318 101.8529 L131.1509 101.6910 "/>
<path d="M132.8509 99.4243 L132.8509 100.2338 "/>
<path d="M132.8509 100.2338 L131.1509 100.2338 "/>
<path d="M132.8509 98.8576 L131.1509 98.8576 "/>
<path d="M131.1509 98.8576 L131.1509 98.4529 "/>
<path d="M131.1509 98.4529 L131.2318 98.2100 "/>
<path d="M131.2318 98.2100 L131.3937 98.0481 "/>
<path d="M131.3937 98.0481 L131.5556 97.9671 "/>
<path d="M131.5556 97.9671 L131.8794 97.8862 "/>
<path d="M131.8794 97.8862 L132.1223 97.8862 "/>
<path d="M132.1223 97.8862 L132.4461 97.9671 "/>
<path d="M132.4461 97.9671 L132.6080 98.0481 "/>
<path d="M132.6080 98.0481 L132.7699 98.2100 "/>
<path d="M132.7699 98.2100 L132.8509 98.4529 "/>
<path d="M132.8509 98.4529 L132.8509 98.8576 "/>
<path d="M131.9604 97.1576 L131.9604 96.5910 "/>
<path d="M132.8509 96.3481 L132.8509 97.1576 "/>
<path d="M132.8509 97.1576 L131.1509 97.1576 "/>
<path d="M131.1509 97.1576 L131.1509 96.3481 "/>
<path d="M132.8509 94.6481 L132.0413 95.2148 "/>
<path d="M132.8509 95.6195 L131.1509 95.6195 "/>
<path d="M131.1509 95.6195 L131.1509 94.9719 "/>
<path d="M131.1509 94.9719 L131.2318 94.8100 "/>
<path d="M131.2318 94.8100 L131.3128 94.7290 "/>
<path d="M131.3128 94.7290 L131.4747 94.6481 "/>
<path d="M131.4747 94.6481 L131.7175 94.6481 "/>
<path d="M131.7175 94.6481 L131.8794 94.7290 "/>
<path d="M131.8794 94.7290 L131.9604 94.8100 "/>
<path d="M131.9604 94.8100 L132.0413 94.9719 "/>
<path d="M132.0413 94.9719 L132.0413 95.6195 "/>
<path d="M131.1509 93.5957 L131.1509 93.4338 "/>
<path d="M131.1509 93.4338 L131.2318 93.2719 "/>
<path d="M131.2318 93.2719 L131.3128 93.1910 "/>
<path d="M131.3128 93.1910 L131.4747 93.1100 "/>
<path d="M131.4747 93.1100 L131.7985 93.0290 "/>
<path d="M131.7985 93.0290 L132.2032 93.0290 "/>
<path d="M132.2032 93.0290 L132.5270 93.1100 "/>
<path d="M132.5270 93.1100 L132.6889 93.1910 "/>
<path d="M132.6889 93.1910 L132.7699 93.2719 "/>
<path d="M132.7699 93.2719 L132.8509 93.4338 "/>
<path d="M132.8509 93.4338 L132.8509 93.5957 "/>
<path d="M132.8509 93.5957 L132.7699 93.7576 "/>
<path d="M132.7699 93.7576 L132.6889 93.8386 "/>
<path d="M132.6889 93.8386 L132.5270 93.9195 "/>
<path d="M132.5270 93.9195 L132.2032 94.0005 "/>
<path d="M132.2032 94.0005 L131.7985 94.0005 "/>
<path d="M131.7985 94.0005 L131.4747 93.9195 "/>
<path d="M131.4747 93.9195 L131.3128 93.8386 "/>
<path d="M131.3128 93.8386 L131.2318 93.7576 "/>
<path d="M131.2318 93.7576 L131.1509 93.5957 "/>
<path d="M132.8509 91.4100 L132.8509 92.3814 "/>
<path d="M132.8509 91.8957 L131.1509 91.8957 "/>
<path d="M131.1509 91.8957 L131.3937 92.0576 "/>
<path d="M131.3937 92.0576 L131.5556 92.2195 "/>
<path d="M131.5556 92.2195 L131.6366 92.3814 "/>
<path d="M132.3651 90.7624 L132.3651 89.9529 "/>
<path d="M132.8509 90.9243 L131.1509 90.3576 "/>
<path d="M131.1509 90.3576 L132.8509 89.7910 "/>
</g></g>
<g style="fill-opacity: 0.0;stroke-width: 0.1500;stroke-opacity: 1;stroke-linecap: round;stroke-linejoin: round">
<text x="122.0500" y="74.5500" textLength="1.0321" font-size="1.3333" lengthAdjust="spacingAndGlyphs" text-anchor="middle" opacity="0">A</text>
<g class="stroked-text"><desc>A</desc>
<path d="M121.8119 74.2191 L122.2881 74.2191 "/>
<path d="M121.7167 74.5048 L122.0500 73.5048 "/>
<path d="M122.0500 73.5048 L122.3833 74.5048 "/>
</g><path d="M124.1000 77.3500 L119.9000 77.3500 "/>
<path d="M124.1000 74.9500 L124.1000 77.3500 "/>
<path d="M119.9000 77.3500 L119.9000 74.9500 "/>
<path d="M119.9000 74.9500 L124.1000 74.9500 "/>
</g> 
</g><g id="substrate-outline" style="fill:#000000; stroke:#000000; stroke-width: 0.15"><g style="fill-opacity: 0.0;stroke-opacity: 1;stroke-linecap: round;stroke-linejoin: round">
<path d="M133.4792 115.8071 L133.4792 65.5151 "/>
<path d="M109.3492 115.8071 L109.3492 65.5151 "/>
<path d="M109.3492 115.8071 L133.4792 115.8071 "/>
<path d="M109.3492 65.5151 L133.4792 65.5151 "/>
</g> 
<path d="M -1.5 0.0 A 1.5 1.5 0 1 1 1.5 0.0 L 1.5 -0.0 A 1.5 1.5 0 1 1 -1.5 -0.0 Z" transform="translate(114.175179 70.341146) rotate(-0.0)"/><path d="M -1.5 0.0 A 1.5 1.5 0 1 1 1.5 0.0 L 1.5 -0.0 A 1.5 1.5 0 1 1 -1.5 -0.0 Z" transform="translate(114.175179 110.981146) rotate(-0.0)"/><path d="M -0.2 0.0 A 0.2 0.2 0 1 1 0.2 0.0 L 0.2 -0.0 A 0.2 0.2 0 1 1 -0.2 -0.0 Z" transform="translate(123.8 88.65) rotate(-0.0)"/><path d="M -0.2 0.0 A 0.2 0.2 0 1 1 0.2 0.0 L 0.2 -0.0 A 0.2 0.2 0 1 1 -0.2 -0.0 Z" transform="translate(120.1 76.85) rotate(-0.0)"/></g></g><g id="substrate-paste" style="fill:#8a8a8a; stroke:#8a8a8a;"><g style="fill-opacity: 0.0;stroke-width: 0.0000;stroke-opacity: 1;stroke-linecap: round;stroke-linejoin: round">
<g style="fill-opacity: 1.0000;stroke-width: 0.0000;stroke-opacity: 1;stroke-linecap: round;stroke-linejoin: round">
<path style="fill-opacity: 1.0000;stroke-width: 0.0000;stroke-opacity: 1;stroke-linecap: round;stroke-linejoin: round;fill-rule: evenodd" d="M 123.9000,75.1500 123.9000,77.1500 120.1000,77.1500 120.1000,75.1500 Z"/> 
</g>
</g> 
</g></g><g transform="" id="componentContainer"><!--Mlab_Mechanical:MountingHole_3mm:M3--><g transform="translate(114.175179 70.341146) scale(1.0, 1.0) rotate(-0.0) translate(-0.75 -0.75)"><g id="pref_12_Mlab_Mechanical__MountingHole_3mm_HOLE"><defs xmlns:xlink="http://www.w3.org/1999/xlink" id="pref_13defs13">
    <linearGradient id="pref_13linearGradient13300">
      <stop style="stop-color:#e5e5e5;stop-opacity:1;" offset="0" id="pref_13stop13298"/>
    </linearGradient>
    <linearGradient id="pref_13linearGradient10336">
      <stop style="stop-color:#cfcfcf;stop-opacity:1" offset="0" id="pref_13stop10332"/>
      <stop style="stop-color:#cdcdcd;stop-opacity:0" offset="1" id="pref_13stop10334"/>
    </linearGradient>
    <linearGradient id="pref_13linearGradient9067">
      <stop style="stop-color:#d3d3d3;stop-opacity:1;" offset="0" id="pref_13stop9051"/>
      <stop style="stop-color:#c8c8c8;stop-opacity:1;" offset="0.1656336" id="pref_13stop9053"/>
      <stop style="stop-color:#d8d8d8;stop-opacity:0.52030832" offset="0.29162589" id="pref_13stop9055"/>
      <stop style="stop-color:#c6c6c6;stop-opacity:0.51711833" offset="0.38067153" id="pref_13stop9057"/>
      <stop style="stop-color:#bbbbbb;stop-opacity:0.45933419" offset="0.51505035" id="pref_13stop9059"/>
      <stop style="stop-color:#8e8e8e;stop-opacity:0.47450981" offset="0.5970481" id="pref_13stop9061"/>
      <stop style="stop-color:#656565;stop-opacity:0.56470591" offset="0.7681157" id="pref_13stop9063"/>
      <stop style="stop-color:#606060;stop-opacity:0.28235294;" offset="0.95913506" id="pref_13stop9743"/>
      <stop style="stop-color:#b5b5b5;stop-opacity:0.21568628" offset="1" id="pref_13stop9065"/>
    </linearGradient>
    <linearGradient id="pref_13linearGradient3692">
      <stop style="stop-color:#e4e4e4;stop-opacity:1" offset="0" id="pref_13stop6926"/>
      <stop style="stop-color:#e5e5e5;stop-opacity:1" offset="0.1656336" id="pref_13stop6928"/>
      <stop style="stop-color:#f5f5f5;stop-opacity:1" offset="0.29162589" id="pref_13stop6930"/>
      <stop style="stop-color:#c6c6c6;stop-opacity:1;" offset="0.38067153" id="pref_13stop6932"/>
      <stop style="stop-color:#dddddd;stop-opacity:1" offset="0.57577699" id="pref_13stop6934"/>
      <stop style="stop-color:#f2f2f2;stop-opacity:1" offset="0.66836077" id="pref_13stop6936"/>
      <stop style="stop-color:#ebebeb;stop-opacity:1" offset="0.79280978" id="pref_13stop6938"/>
      <stop style="stop-color:#efefef;stop-opacity:1" offset="1" id="pref_13stop6940"/>
    </linearGradient>
    <linearGradient id="pref_13linearGradient5758">
      <stop style="stop-color:#f6f6f6;stop-opacity:0.89019608" offset="0" id="pref_13stop5754"/>
      <stop style="stop-color:#646464;stop-opacity:0.9921568" offset="1" id="pref_13stop5756"/>
    </linearGradient>
    <linearGradient id="pref_13linearGradient3692-7">
      <stop style="stop-color:#d3d3d3;stop-opacity:1;" offset="0" id="pref_13stop3688"/>
      <stop style="stop-color:#c8c8c8;stop-opacity:1;" offset="0.1656336" id="pref_13stop4378"/>
      <stop style="stop-color:#ededed;stop-opacity:1" offset="0.29162589" id="pref_13stop4444"/>
      <stop style="stop-color:#c6c6c6;stop-opacity:1;" offset="0.38067153" id="pref_13stop4376"/>
      <stop style="stop-color:#dbdbdb;stop-opacity:1" offset="0.57577699" id="pref_13stop4308"/>
      <stop style="stop-color:#c8c8c8;stop-opacity:1" offset="0.66836077" id="pref_13stop4242"/>
      <stop style="stop-color:#b8b8b8;stop-opacity:1;" offset="0.79280978" id="pref_13stop4310"/>
      <stop style="stop-color:#aeaeae;stop-opacity:1" offset="1" id="pref_13stop3690"/>
    </linearGradient>
    <linearGradient id="pref_13linearGradient3156">
      <stop style="stop-color:#d3d3d3;stop-opacity:1;" offset="0" id="pref_13stop3152"/>
      <stop style="stop-color:#d3d3d3;stop-opacity:0.89019608;" offset="0.93029171" id="pref_13stop3290"/>
      <stop style="stop-color:#757575;stop-opacity:1" offset="1" id="pref_13stop3154"/>
    </linearGradient>
    <radialGradient xlink:href="#pref_13linearGradient3156" id="pref_13radialGradient3160" cx="0.75" cy="0.75" fx="0.75" fy="0.75" r="2.75" gradientUnits="userSpaceOnUse" gradientTransform="matrix(0.96363636,0,0,0.96363636,0.02727275,0.02727275)"/>
    <linearGradient xlink:href="#pref_13linearGradient3692-7" id="pref_13linearGradient3694" x1="-0.69187778" y1="-1.1810942" x2="2.8737183" y2="2.1900826" gradientUnits="userSpaceOnUse" gradientTransform="matrix(0.92592591,0,0,0.92592591,0.05555555,0.05555555)"/>
    <linearGradient xlink:href="#pref_13linearGradient5758" id="pref_13linearGradient5760" x1="-15.456677" y1="-15.474042" x2="-4.6413889" y2="-6.7602329" gradientUnits="userSpaceOnUse"/>
    <linearGradient xlink:href="#pref_13linearGradient3692" id="pref_13linearGradient6924" gradientUnits="userSpaceOnUse" x1="1.4987922" y1="4.3924975" x2="-1.0811033" y2="-3.0084407"/>
    <radialGradient xlink:href="#pref_13linearGradient9067" id="pref_13radialGradient8763" cx="0.75" cy="0.75" fx="0.75" fy="0.75" r="2.5" gradientUnits="userSpaceOnUse"/>
    <radialGradient xlink:href="#pref_13linearGradient10336" id="pref_13radialGradient10338" cx="-9.3072596" cy="-12.247526" fx="-9.3072596" fy="-12.247526" r="5.7490053" gradientTransform="matrix(0.25618062,-0.83918687,0.82829029,0.2528542,1.5718983,-16.37084)" gradientUnits="userSpaceOnUse"/>
  </defs>
  <circle style="opacity:1;fill:url(#pref_13linearGradient6924);fill-opacity:1;stroke:#cecece;stroke-width:0.05;stroke-miterlimit:4;stroke-dasharray:none;stroke-opacity:1" id="pref_13path6642" cx="0.75" cy="0.75" r="3.5"/>
  <circle style="fill:url(#pref_13radialGradient3160);fill-opacity:1;stroke-width:0.0358194" id="pref_13path1030-6" cx="0.75" cy="0.75" r="2.6500001"/>
  <circle style="opacity:1;fill:url(#pref_13linearGradient3694);fill-opacity:1;stroke-width:0.033792" id="pref_13path1030" cx="0.75" cy="0.75" r="2.5"/>
  <circle style="fill:url(#pref_13radialGradient8763);fill-opacity:1;stroke-width:0.034;stroke-miterlimit:4;stroke-dasharray:none" id="pref_13path1030-7" cx="0.75" cy="0.75" r="2.5"/>
  <path xmlns:sodipodi="http://sodipodi.sourceforge.net/DTD/sodipodi-0.dtd" sodipodi:type="star" style="opacity:1;fill:#b6b6b6;fill-opacity:1;stroke:url(#pref_13linearGradient5760);stroke-width:0.398303;stroke-miterlimit:4;stroke-dasharray:none;stroke-opacity:1" id="pref_13path1288-3" sodipodi:sides="6" sodipodi:cx="-9.9017067" sodipodi:cy="-10.789671" sodipodi:r1="5.7490053" sodipodi:r2="4.9787846" sodipodi:arg1="1.0471976" sodipodi:arg2="1.5707963" transform="matrix(0.24392497,0.05945068,-0.05945068,0.24392497,2.5238203,3.9705334)" d="m -7.0272043,-5.8108862 -5.7490057,-2e-7 -2.874502,-4.9787846 2.874503,-4.978785 5.7490052,1e-6 2.8745024,4.978784 z"/>
  <path xmlns:sodipodi="http://sodipodi.sourceforge.net/DTD/sodipodi-0.dtd" sodipodi:type="star" style="opacity:1;fill:url(#pref_13radialGradient10338);fill-opacity:1;stroke:none;stroke-width:0.398303;stroke-miterlimit:4;stroke-dasharray:none;stroke-opacity:1" id="pref_13path1288-3-6" sodipodi:sides="6" sodipodi:cx="-9.9017067" sodipodi:cy="-10.789671" sodipodi:r1="5.7490053" sodipodi:r2="4.9787846" sodipodi:arg1="1.0471976" sodipodi:arg2="1.5707963" transform="matrix(0.24487282,0.0596817,-0.0596817,0.24487282,2.5307131,3.9830479)" d="m -7.0272043,-5.8108862 -5.7490057,-2e-7 -2.874502,-4.9787846 2.874503,-4.978785 5.7490052,1e-6 2.8745024,4.978784 z"/>
</g></g><!--Mlab_Mechanical:MountingHole_3mm:M4--><g transform="translate(114.175179 110.981146) scale(1.0, 1.0) rotate(-0.0) translate(-0.75 -0.75)"><use xmlns:xlink="http://www.w3.org/1999/xlink" xlink:href="#pref_12_Mlab_Mechanical__MountingHole_3mm_HOLE"/></g></g></svg>