<!DOCTYPE svg PUBLIC "-//W3C//DTD SVG 1.1//EN" "http://www.w3.org/Graphics/SVG/1.1/DTD/svg11.dtd">
<svg xmlns="http://www.w3.org/2000/svg" version="1.1" width="34.33mm" height="60.492mm" viewBox="1042491.79 604151.46 343300.0 604920.0">
            <title>Picture generated by PcbDraw </title>
            <desc>Picture generated by PcbDraw</desc>
        <defs><clipPath id="cut-off"><path d=" M 1334791.0 655151.0 L 1093491.0 655151.0 L 1093491.0 1158071.0 L 1334791.0 1158071.0 L 1334791.0 655151.0 " style="fill-rule: evenodd;"/></clipPath><mask id="pads-mask"><g style="fill:#ffffff; fill-opacity:0.0;  stroke:#ffffff; stroke-width:0.000000; stroke-opacity:1;  stroke-linecap:round; stroke-linejoin:round;">
<g style="fill:#ffffff; fill-opacity:1.0;  stroke:#ffffff; stroke-width:0.010000; stroke-opacity:1;  stroke-linecap:round; stroke-linejoin:round;">
<circle cx="1141751.790000" cy="703411.460000" r="32000.000000"/> 
</g>
<g style="fill:#ffffff; fill-opacity:1.0;  stroke:#ffffff; stroke-width:0.010000; stroke-opacity:1;  stroke-linecap:round; stroke-linejoin:round;">
<circle cx="1141751.790000" cy="1109811.460000" r="32000.000000"/> 
</g>
<g style="fill:#ffffff; fill-opacity:1.0;  stroke:#ffffff; stroke-width:0.010000; stroke-opacity:1;  stroke-linecap:round; stroke-linejoin:round;">
<circle cx="1207500.000000" cy="907500.000000" r="4549.500000"/> 
</g>
<g style="fill:#ffffff; fill-opacity:1.0;  stroke:#ffffff; stroke-width:0.010000; stroke-opacity:1;  stroke-linecap:round; stroke-linejoin:round;">
<path style="fill:#ffffff; fill-opacity:1.0;  stroke:#ffffff; stroke-width:0.010000; stroke-opacity:1;  stroke-linecap:round; stroke-linejoin:round;fill-rule:evenodd;" d="M 1241000.000000,771500.000000 1240847.760000,772265.370000 1240414.210000,772914.210000 1239765.370000,773347.760000 1239000.000000,773500.000000 1201000.000000,773500.000000 1200234.630000,773347.760000 1199585.790000,772914.210000 1199152.240000,772265.370000 1199000.000000,771500.000000 1199000.000000,751500.000000 1199152.240000,750734.630000 1199585.790000,750085.790000 1200234.630000,749652.240000 1201000.000000,749500.000000 1239000.000000,749500.000000 1239765.370000,749652.240000 1240414.210000,750085.790000 1240847.760000,750734.630000 1241000.000000,751500.000000 Z"/> 
</g>
<g style="fill:#ffffff; fill-opacity:1.0;  stroke:#ffffff; stroke-width:0.010000; stroke-opacity:1;  stroke-linecap:round; stroke-linejoin:round;">
<g>
<path style="fill:#ffffff; fill-opacity:1.0;  stroke:#ffffff; stroke-width:0.010000; stroke-opacity:1;  stroke-linecap:round; stroke-linejoin:round;fill-rule:evenodd;" d="M 1334646.810000,655296.440000 1334791.790000,655646.460000 1334791.790000,1157576.460000 1334646.810000,1157926.480000 1334296.790000,1158071.460000 1093986.790000,1158071.460000 1093636.770000,1157926.480000 1093491.790000,1157576.460000 1093491.790000,655646.460000 1093636.770000,655296.440000 1093986.790000,655151.460000 1334296.790000,655151.460000 Z"/> 
</g>
</g>
</g> 
</mask><mask id="pads-mask-silkscreen"><rect x="1092491.79" y="654151.46" width="243300.0" height="504920.0" fill="white"/><g style="fill:#000000; fill-opacity:0.0;  stroke:#000000; stroke-width:0.000000; stroke-opacity:1;  stroke-linecap:round; stroke-linejoin:round;">
<g style="fill:#000000; fill-opacity:1.0;  stroke:#000000; stroke-width:0.010000; stroke-opacity:1;  stroke-linecap:round; stroke-linejoin:round;">
<circle cx="1141751.790000" cy="703411.460000" r="32000.000000"/> 
</g>
<g style="fill:#000000; fill-opacity:1.0;  stroke:#000000; stroke-width:0.010000; stroke-opacity:1;  stroke-linecap:round; stroke-linejoin:round;">
<circle cx="1141751.790000" cy="1109811.460000" r="32000.000000"/> 
</g>
<g style="fill:#000000; fill-opacity:1.0;  stroke:#000000; stroke-width:0.010000; stroke-opacity:1;  stroke-linecap:round; stroke-linejoin:round;">
<circle cx="1207500.000000" cy="907500.000000" r="4549.500000"/> 
</g>
<g style="fill:#000000; fill-opacity:1.0;  stroke:#000000; stroke-width:0.010000; stroke-opacity:1;  stroke-linecap:round; stroke-linejoin:round;">
<path style="fill:#000000; fill-opacity:1.0;  stroke:#000000; stroke-width:0.010000; stroke-opacity:1;  stroke-linecap:round; stroke-linejoin:round;fill-rule:evenodd;" d="M 1241000.000000,771500.000000 1240847.760000,772265.370000 1240414.210000,772914.210000 1239765.370000,773347.760000 1239000.000000,773500.000000 1201000.000000,773500.000000 1200234.630000,773347.760000 1199585.790000,772914.210000 1199152.240000,772265.370000 1199000.000000,771500.000000 1199000.000000,751500.000000 1199152.240000,750734.630000 1199585.790000,750085.790000 1200234.630000,749652.240000 1201000.000000,749500.000000 1239000.000000,749500.000000 1239765.370000,749652.240000 1240414.210000,750085.790000 1240847.760000,750734.630000 1241000.000000,751500.000000 Z"/> 
</g>
<g style="fill:#000000; fill-opacity:1.0;  stroke:#000000; stroke-width:0.010000; stroke-opacity:1;  stroke-linecap:round; stroke-linejoin:round;">
<g>
<path style="fill:#000000; fill-opacity:1.0;  stroke:#000000; stroke-width:0.010000; stroke-opacity:1;  stroke-linecap:round; stroke-linejoin:round;fill-rule:evenodd;" d="M 1334646.810000,655296.440000 1334791.790000,655646.460000 1334791.790000,1157576.460000 1334646.810000,1157926.480000 1334296.790000,1158071.460000 1093986.790000,1158071.460000 1093636.770000,1157926.480000 1093491.790000,1157576.460000 1093491.790000,655646.460000 1093636.770000,655296.440000 1093986.790000,655151.460000 1334296.790000,655151.460000 Z"/> 
</g>
</g>
</g> 
</mask><mask id="hole-mask"><g><rect x="1092491.79" y="654151.46" fill="white" width="243300.0" height="504920.0"/><polyline stroke-linecap="round" stroke="black" stroke-width="30000.0" points="-0.0 0 0.0 0" transform="translate(1141751.79 703411.46) rotate(-0.0)"/><polyline stroke-linecap="round" stroke="black" stroke-width="30000.0" points="-0.0 0 0.0 0" transform="translate(1141751.79 1109811.46) rotate(-0.0)"/><polyline stroke-linecap="round" stroke="black" stroke-width="4000.0" points="-0.0 0 0.0 0" transform="translate(1238000.0 886500.0) rotate(0)"/><polyline stroke-linecap="round" stroke="black" stroke-width="4000.0" points="-0.0 0 0.0 0" transform="translate(1201000.0 768500.0) rotate(0)"/></g></mask></defs><g transform="" id="boardContainer"><g id="substrate" clip-path="url(#cut-off)" mask="url(#hole-mask)"><g id="substrate-board" style="fill:#f1f4f3; stroke:#f1f4f3;"><path d=" M 1334791.0 655151.0 L 1093491.0 655151.0 L 1093491.0 1158071.0 L 1334791.0 1158071.0 L 1334791.0 655151.0 " style="fill-rule: evenodd;"/><g style="fill-opacity: 0.0;stroke-width: 2000.000000;stroke-opacity: 1;stroke-linecap: round;stroke-linejoin: round">
<path d="M1334791 1158071 L1334791 655151 "/>
<path d="M1093491 1158071 L1093491 655151 "/>
<path d="M1093491 1158071 L1334791 1158071 "/>
<path d="M1093491 655151 L1334791 655151 "/>
</g> 
</g><g id="substrate-clad" style="fill:#72786c; stroke:#72786c;"><g style="fill-opacity: 0.0;stroke-width: 0.000000;stroke-opacity: 1;stroke-linecap: round;stroke-linejoin: round">
<g style="fill-opacity: 1.0;stroke-width: 0.010000;stroke-opacity: 1;stroke-linecap: round;stroke-linejoin: round">
<circle cx="1141751.790000" cy="703411.460000" r="32000.000000"/> 
</g>
<g style="fill-opacity: 1.0;stroke-width: 0.010000;stroke-opacity: 1;stroke-linecap: round;stroke-linejoin: round">
<circle cx="1141751.790000" cy="1109811.460000" r="32000.000000"/> 
</g>
<g style="fill-opacity: 1.0;stroke-width: 0.010000;stroke-opacity: 1;stroke-linecap: round;stroke-linejoin: round">
<circle cx="1207500.000000" cy="907500.000000" r="4549.500000"/> 
</g>
<g style="fill-opacity: 1.0;stroke-width: 0.010000;stroke-opacity: 1;stroke-linecap: round;stroke-linejoin: round">
<path style="fill-opacity: 1.0;stroke-width: 0.010000;stroke-opacity: 1;stroke-linecap: round;stroke-linejoin: round;fill-rule: evenodd" d="M 1241000.000000,771500.000000 1240847.760000,772265.370000 1240414.210000,772914.210000 1239765.370000,773347.760000 1239000.000000,773500.000000 1201000.000000,773500.000000 1200234.630000,773347.760000 1199585.790000,772914.210000 1199152.240000,772265.370000 1199000.000000,771500.000000 1199000.000000,751500.000000 1199152.240000,750734.630000 1199585.790000,750085.790000 1200234.630000,749652.240000 1201000.000000,749500.000000 1239000.000000,749500.000000 1239765.370000,749652.240000 1240414.210000,750085.790000 1240847.760000,750734.630000 1241000.000000,751500.000000 Z"/> 
</g>
<g style="fill-opacity: 1.0;stroke-width: 0.010000;stroke-opacity: 1;stroke-linecap: round;stroke-linejoin: round">
<g>
<path style="fill-opacity: 1.0;stroke-width: 0.010000;stroke-opacity: 1;stroke-linecap: round;stroke-linejoin: round;fill-rule: evenodd" d="M 1334646.810000,655296.440000 1334791.790000,655646.460000 1334791.790000,1157576.460000 1334646.810000,1157926.480000 1334296.790000,1158071.460000 1093986.790000,1158071.460000 1093636.770000,1157926.480000 1093491.790000,1157576.460000 1093491.790000,655646.460000 1093636.770000,655296.440000 1093986.790000,655151.460000 1334296.790000,655151.460000 Z"/> 
</g>
</g>
</g> 
</g><g id="substrate-copper" style="fill:#f8f8f7; stroke:#f8f8f7;"><g style="fill-opacity: 0.0;stroke-width: 3000.000000;stroke-opacity: 1;stroke-linecap: round;stroke-linejoin: round">
<text x="1266703.470000" y="1140777.450000" textLength="59092.860000" font-size="20000.000000" lengthAdjust="spacingAndGlyphs" text-anchor="middle" opacity="0">MLAB</text>
<g class="stroked-text"><desc>MLAB</desc>
<path d="M1241703 1140063 L1241703 1125063 L1246703 1135777 L1251703 1125063 L1251703 1140063 "/>
<path d="M1265989 1140063 L1258846 1140063 L1258846 1125063 "/>
<path d="M1270274 1135777 L1277417 1135777 "/>
<path d="M1268846 1140063 L1273846 1125063 L1278846 1140063 "/>
<path d="M1288846 1132206 L1290989 1132920 L1291703 1133634 L1292417 1135063 L1292417 1137206 L1291703 1138634 L1290989 1139348 L1289560 1140063 L1283846 1140063 L1283846 1125063 L1288846 1125063 L1290274 1125777 L1290989 1126491 L1291703 1127920 L1291703 1129348 L1290989 1130777 L1290274 1131491 L1288846 1132206 L1283846 1132206 "/>
</g><g style="fill-opacity: 1.0;stroke-width: 0.010000;stroke-opacity: 1;stroke-linecap: round;stroke-linejoin: round">
<circle cx="1141751.790000" cy="703411.460000" r="30000.000000"/> 
</g>
<g style="fill-opacity: 1.0;stroke-width: 0.010000;stroke-opacity: 1;stroke-linecap: round;stroke-linejoin: round">
<circle cx="1141751.790000" cy="1109811.460000" r="30000.000000"/> 
</g>
<g style="fill-opacity: 1.0;stroke-width: 0.010000;stroke-opacity: 1;stroke-linecap: round;stroke-linejoin: round">
<circle cx="1207500.000000" cy="907500.000000" r="2549.500000"/> 
</g>
<g style="fill-opacity: 1.0;stroke-width: 0.010000;stroke-opacity: 1;stroke-linecap: round;stroke-linejoin: round">
<path style="fill-opacity: 1.0;stroke-width: 0.010000;stroke-opacity: 1;stroke-linecap: round;stroke-linejoin: round;fill-rule: evenodd" d="M 1239000.000000,751500.000000 1239000.000000,771500.000000 1201000.000000,771500.000000 1201000.000000,751500.000000 Z"/> 
</g>
<g style="fill-opacity: 1.0;stroke-width: 0.010000;stroke-opacity: 1;stroke-linecap: round;stroke-linejoin: round">
<circle cx="1238000.000000" cy="886500.000000" r="4000.000000"/> 
</g>
<g style="fill-opacity: 1.0;stroke-width: 0.010000;stroke-opacity: 1;stroke-linecap: round;stroke-linejoin: round">
<circle cx="1201000.000000" cy="768500.000000" r="4000.000000"/> 
</g>
<g style="fill-opacity: 0.0;stroke-width: 4000.000000;stroke-opacity: 1;stroke-linecap: round;stroke-linejoin: round">
<path d="M1209500 765500 L1205500 769500 "/>
<path d="M1201000 768500 L1213000 768500 "/>
</g>
<g style="fill-opacity: 0.0;stroke-width: 4000.000000;stroke-opacity: 1;stroke-linecap: round;stroke-linejoin: round">
<g style="fill-opacity: 1.0;stroke-width: 0.010000;stroke-opacity: 1;stroke-linecap: round;stroke-linejoin: round">
<path style="fill-opacity: 1.0;stroke-width: 0.010000;stroke-opacity: 1;stroke-linecap: round;stroke-linejoin: round;fill-rule: evenodd" d="M 1241921.210000,882700.020000 1242386.140000,883236.580000 1242500.000000,883760.000000 1242500.000000,931240.000000 1242299.980000,931921.210000 1241763.420000,932386.140000 1241240.000000,932500.000000 1193760.000000,932500.000000 1193078.790000,932299.980000 1192613.860000,931763.420000 1192500.000000,931240.000000 1192500.000000,883760.000000 1192700.020000,883078.790000 1193236.580000,882613.860000 1193760.000000,882500.000000 1241240.000000,882500.000000 Z"/> 
</g>
</g>
</g> 
</g><g id="substrate-pads" style="fill:#c4c1ba; stroke:#c4c1ba;" mask="url(#pads-mask)"><g style="fill-opacity: 0.0;stroke-width: 3000.000000;stroke-opacity: 1;stroke-linecap: round;stroke-linejoin: round">
<text x="1266703.470000" y="1140777.450000" textLength="61042.860000" font-size="20000.000000" lengthAdjust="spacingAndGlyphs" text-anchor="middle" opacity="0">MLAB</text>
<g class="stroked-text"><desc>MLAB</desc>
<path d="M1241703 1140063 L1241703 1125063 L1246703 1135777 L1251703 1125063 L1251703 1140063 "/>
<path d="M1265989 1140063 L1258846 1140063 L1258846 1125063 "/>
<path d="M1270274 1135777 L1277417 1135777 "/>
<path d="M1268846 1140063 L1273846 1125063 L1278846 1140063 "/>
<path d="M1288846 1132206 L1290989 1132920 L1291703 1133634 L1292417 1135063 L1292417 1137206 L1291703 1138634 L1290989 1139348 L1289560 1140063 L1283846 1140063 L1283846 1125063 L1288846 1125063 L1290274 1125777 L1290989 1126491 L1291703 1127920 L1291703 1129348 L1290989 1130777 L1290274 1131491 L1288846 1132206 L1283846 1132206 "/>
</g><g style="fill-opacity: 1.0;stroke-width: 0.010000;stroke-opacity: 1;stroke-linecap: round;stroke-linejoin: round">
<circle cx="1141751.790000" cy="703411.460000" r="30000.000000"/> 
</g>
<g style="fill-opacity: 1.0;stroke-width: 0.010000;stroke-opacity: 1;stroke-linecap: round;stroke-linejoin: round">
<circle cx="1141751.790000" cy="1109811.460000" r="30000.000000"/> 
</g>
<g style="fill-opacity: 1.0;stroke-width: 0.010000;stroke-opacity: 1;stroke-linecap: round;stroke-linejoin: round">
<circle cx="1207500.000000" cy="907500.000000" r="2549.500000"/> 
</g>
<g style="fill-opacity: 1.0;stroke-width: 0.010000;stroke-opacity: 1;stroke-linecap: round;stroke-linejoin: round">
<path style="fill-opacity: 1.0;stroke-width: 0.010000;stroke-opacity: 1;stroke-linecap: round;stroke-linejoin: round;fill-rule: evenodd" d="M 1239000.000000,751500.000000 1239000.000000,771500.000000 1201000.000000,771500.000000 1201000.000000,751500.000000 Z"/> 
</g>
<g style="fill-opacity: 1.0;stroke-width: 0.010000;stroke-opacity: 1;stroke-linecap: round;stroke-linejoin: round">
<circle cx="1238000.000000" cy="886500.000000" r="4000.000000"/> 
</g>
<g style="fill-opacity: 1.0;stroke-width: 0.010000;stroke-opacity: 1;stroke-linecap: round;stroke-linejoin: round">
<circle cx="1201000.000000" cy="768500.000000" r="4000.000000"/> 
</g>
<g style="fill-opacity: 0.0;stroke-width: 4000.000000;stroke-opacity: 1;stroke-linecap: round;stroke-linejoin: round">
<path d="M1209500 765500 L1205500 769500 "/>
<path d="M1201000 768500 L1213000 768500 "/>
</g>
<g style="fill-opacity: 0.0;stroke-width: 4000.000000;stroke-opacity: 1;stroke-linecap: round;stroke-linejoin: round">
<g style="fill-opacity: 1.0;stroke-width: 0.010000;stroke-opacity: 1;stroke-linecap: round;stroke-linejoin: round">
<path style="fill-opacity: 1.0;stroke-width: 0.010000;stroke-opacity: 1;stroke-linecap: round;stroke-linejoin: round;fill-rule: evenodd" d="M 1241921.210000,882700.020000 1242386.140000,883236.580000 1242500.000000,883760.000000 1242500.000000,931240.000000 1242299.980000,931921.210000 1241763.420000,932386.140000 1241240.000000,932500.000000 1193760.000000,932500.000000 1193078.790000,932299.980000 1192613.860000,931763.420000 1192500.000000,931240.000000 1192500.000000,883760.000000 1192700.020000,883078.790000 1193236.580000,882613.860000 1193760.000000,882500.000000 1241240.000000,882500.000000 Z"/> 
</g>
</g>
</g> 
</g><g id="substrate-silk" style="fill:#0b1013; stroke:#0b1013;" mask="url(#pads-mask-silkscreen)"><g style="fill-opacity: 0.0;stroke-width: 3000.000000;stroke-opacity: 1;stroke-linecap: round;stroke-linejoin: round">
<g transform="rotate(-90.000000 1320800.000000 990600.000000)">
<text x="1320800.000000" y="999100.000000" textLength="192519.050000" font-size="22666.660000" lengthAdjust="spacingAndGlyphs" text-anchor="middle" opacity="0">PINHOLDER01A</text>
</g>
<g class="stroked-text"><desc>PINHOLDER01A</desc>
<path d="M1328490 1080861 L1311490 1080861 L1311490 1074385 L1312300 1072766 L1313109 1071957 L1314728 1071147 L1317157 1071147 L1318776 1071957 L1319585 1072766 L1320395 1074385 L1320395 1080861 "/>
<path d="M1328490 1063861 L1311490 1063861 "/>
<path d="M1328490 1055766 L1311490 1055766 L1328490 1046052 L1311490 1046052 "/>
<path d="M1328490 1037957 L1311490 1037957 "/>
<path d="M1319585 1037957 L1319585 1028242 "/>
<path d="M1328490 1028242 L1311490 1028242 "/>
<path d="M1311490 1016909 L1311490 1013671 L1312300 1012052 L1313919 1010433 L1317157 1009623 L1322823 1009623 L1326061 1010433 L1327680 1012052 L1328490 1013671 L1328490 1016909 L1327680 1018528 L1326061 1020147 L1322823 1020957 L1317157 1020957 L1313919 1020147 L1312300 1018528 L1311490 1016909 "/>
<path d="M1328490 994242 L1328490 1002338 L1311490 1002338 "/>
<path d="M1328490 988576 L1311490 988576 L1311490 984528 L1312300 982100 L1313919 980480 L1315538 979671 L1318776 978861 L1321204 978861 L1324442 979671 L1326061 980480 L1327680 982100 L1328490 984528 L1328490 988576 "/>
<path d="M1319585 971576 L1319585 965909 "/>
<path d="M1328490 963480 L1328490 971576 L1311490 971576 L1311490 963480 "/>
<path d="M1328490 946480 L1320395 952147 "/>
<path d="M1328490 956195 L1311490 956195 L1311490 949719 L1312300 948100 L1313109 947290 L1314728 946480 L1317157 946480 L1318776 947290 L1319585 948100 L1320395 949719 L1320395 956195 "/>
<path d="M1311490 935957 L1311490 934338 L1312300 932719 L1313109 931909 L1314728 931100 L1317966 930290 L1322014 930290 L1325252 931100 L1326871 931909 L1327680 932719 L1328490 934338 L1328490 935957 L1327680 937576 L1326871 938385 L1325252 939195 L1322014 940004 L1317966 940004 L1314728 939195 L1313109 938385 L1312300 937576 L1311490 935957 "/>
<path d="M1328490 914100 L1328490 923814 "/>
<path d="M1328490 918957 L1311490 918957 L1313919 920576 L1315538 922195 L1316347 923814 "/>
<path d="M1323633 907623 L1323633 899528 "/>
<path d="M1328490 909242 L1311490 903576 L1328490 897909 "/>
</g></g>
<g style="fill-opacity: 0.0;stroke-width: 1500.000000;stroke-opacity: 1;stroke-linecap: round;stroke-linejoin: round">
<text x="1220500.000000" y="745500.000000" textLength="12471.430000" font-size="13333.330000" lengthAdjust="spacingAndGlyphs" text-anchor="middle" opacity="0">A</text>
<g class="stroked-text"><desc>A</desc>
<path d="M1218119 742166 L1222880 742166 "/>
<path d="M1217166 745023 L1220500 735023 L1223833 745023 "/>
</g><path d="M1241000 773500 L1199000 773500 "/>
<path d="M1241000 749500 L1241000 773500 "/>
<path d="M1199000 773500 L1199000 749500 "/>
<path d="M1199000 749500 L1241000 749500 "/>
</g> 
</g><g id="substrate-outline" style="fill:#000000; stroke:#000000; stroke-width: 1500.0"><g style="fill-opacity: 0.0;stroke-opacity: 1;stroke-linecap: round;stroke-linejoin: round">
<path d="M1334791 1158071 L1334791 655151 "/>
<path d="M1093491 1158071 L1093491 655151 "/>
<path d="M1093491 1158071 L1334791 1158071 "/>
<path d="M1093491 655151 L1334791 655151 "/>
</g> 
<path d="M -15000.0 0.0 A 15000.0 15000.0 0 1 1 15000.0 0.0 L 15000.0 -0.0 A 15000.0 15000.0 0 1 1 -15000.0 -0.0 Z" transform="translate(1141751.79 703411.46) rotate(-0.0)"/><path d="M -15000.0 0.0 A 15000.0 15000.0 0 1 1 15000.0 0.0 L 15000.0 -0.0 A 15000.0 15000.0 0 1 1 -15000.0 -0.0 Z" transform="translate(1141751.79 1109811.46) rotate(-0.0)"/><path d="M -2000.0 0.0 A 2000.0 2000.0 0 1 1 2000.0 0.0 L 2000.0 -0.0 A 2000.0 2000.0 0 1 1 -2000.0 -0.0 Z" transform="translate(1238000.0 886500.0) rotate(0)"/><path d="M -2000.0 0.0 A 2000.0 2000.0 0 1 1 2000.0 0.0 L 2000.0 -0.0 A 2000.0 2000.0 0 1 1 -2000.0 -0.0 Z" transform="translate(1201000.0 768500.0) rotate(0)"/></g></g><g id="substrate-paste" style="fill:#8a8a8a; stroke:#8a8a8a;"><g style="fill-opacity: 0.0;stroke-width: 0.000000;stroke-opacity: 1;stroke-linecap: round;stroke-linejoin: round">
<g style="fill-opacity: 1.0;stroke-width: 0.010000;stroke-opacity: 1;stroke-linecap: round;stroke-linejoin: round">
<path style="fill-opacity: 1.0;stroke-width: 0.010000;stroke-opacity: 1;stroke-linecap: round;stroke-linejoin: round;fill-rule: evenodd" d="M 1239000.000000,751500.000000 1239000.000000,771500.000000 1201000.000000,771500.000000 1201000.000000,751500.000000 Z"/> 
</g>
</g> 
</g></g></svg>