<!DOCTYPE svg PUBLIC "-//W3C//DTD SVG 1.1//EN" "http://www.w3.org/Graphics/SVG/1.1/DTD/svg11.dtd">
<svg xmlns="http://www.w3.org/2000/svg" version="1.1" width="34.33mm" height="60.491999mm" viewBox="-138.579179 60.41514599999999 34.33 60.49199999999999">
            <title>Picture generated by PcbDraw </title>
            <desc>Picture generated by PcbDraw</desc>
        <defs><clipPath id="cut-off"><path d=" M 133.4792 65.5151 L 109.3492 65.5151 L 109.3492 115.8071 L 133.4792 115.8071 L 133.4792 65.5151 " style="fill-rule: evenodd;"/></clipPath><mask id="pads-mask"><g style="fill:#ffffff; fill-opacity:0.0;  stroke:#ffffff; stroke-width:0.0000; stroke-opacity:1;  stroke-linecap:round; stroke-linejoin:round;">
<g style="fill:#ffffff; fill-opacity:1.0000;  stroke:#ffffff; stroke-width:0.0000; stroke-opacity:1;  stroke-linecap:round; stroke-linejoin:round;">
<circle cx="114.1752" cy="70.3411" r="3.2000"/> 
</g>
<g style="fill:#ffffff; fill-opacity:1.0000;  stroke:#ffffff; stroke-width:0.0000; stroke-opacity:1;  stroke-linecap:round; stroke-linejoin:round;">
<circle cx="114.1752" cy="110.9811" r="3.2000"/> 
</g>
<g style="fill:#ffffff; fill-opacity:1.0000;  stroke:#ffffff; stroke-width:0.0000; stroke-opacity:1;  stroke-linecap:round; stroke-linejoin:round;">
<path style="fill:#ffffff; fill-opacity:1.0000;  stroke:#ffffff; stroke-width:0.0000; stroke-opacity:1;  stroke-linecap:round; stroke-linejoin:round;fill-rule:evenodd;" d="M 124.0400,84.9800 123.9635,84.9648 123.8986,84.9214 123.8552,84.8565 123.8400,84.7800 123.8400,82.2700 123.8552,82.1935 123.8986,82.1286 123.9635,82.0852 124.0400,82.0700 125.0400,82.0700 125.1165,82.0852 125.1814,82.1286 125.2248,82.1935 125.2400,82.2700 125.2400,84.7800 125.2248,84.8565 125.1814,84.9214 125.1165,84.9648 125.0400,84.9800 Z"/> 
<path style="fill:#ffffff; fill-opacity:1.0000;  stroke:#ffffff; stroke-width:0.0000; stroke-opacity:1;  stroke-linecap:round; stroke-linejoin:round;fill-rule:evenodd;" d="M 121.5000,81.6700 121.4235,81.6548 121.3586,81.6114 121.3152,81.5465 121.3000,81.4700 121.3000,78.9600 121.3152,78.8835 121.3586,78.8186 121.4235,78.7752 121.5000,78.7600 122.5000,78.7600 122.5765,78.7752 122.6414,78.8186 122.6848,78.8835 122.7000,78.9600 122.7000,81.4700 122.6848,81.5465 122.6414,81.6114 122.5765,81.6548 122.5000,81.6700 Z"/> 
<path style="fill:#ffffff; fill-opacity:1.0000;  stroke:#ffffff; stroke-width:0.0000; stroke-opacity:1;  stroke-linecap:round; stroke-linejoin:round;fill-rule:evenodd;" d="M 118.9600,84.9800 118.8835,84.9648 118.8186,84.9214 118.7752,84.8565 118.7600,84.7800 118.7600,82.2700 118.7752,82.1935 118.8186,82.1286 118.8835,82.0852 118.9600,82.0700 119.9600,82.0700 120.0365,82.0852 120.1014,82.1286 120.1448,82.1935 120.1600,82.2700 120.1600,84.7800 120.1448,84.8565 120.1014,84.9214 120.0365,84.9648 119.9600,84.9800 Z"/> 
</g>
</g> 
</mask><mask id="pads-mask-silkscreen"><rect x="109.249179" y="65.415146" width="24.33" height="50.492" fill="white"/><g style="fill:#000000; fill-opacity:0.0;  stroke:#000000; stroke-width:0.0000; stroke-opacity:1;  stroke-linecap:round; stroke-linejoin:round;">
<g style="fill:#000000; fill-opacity:1.0000;  stroke:#000000; stroke-width:0.0000; stroke-opacity:1;  stroke-linecap:round; stroke-linejoin:round;">
<circle cx="114.1752" cy="70.3411" r="3.2000"/> 
</g>
<g style="fill:#000000; fill-opacity:1.0000;  stroke:#000000; stroke-width:0.0000; stroke-opacity:1;  stroke-linecap:round; stroke-linejoin:round;">
<circle cx="114.1752" cy="110.9811" r="3.2000"/> 
</g>
<g style="fill:#000000; fill-opacity:1.0000;  stroke:#000000; stroke-width:0.0000; stroke-opacity:1;  stroke-linecap:round; stroke-linejoin:round;">
<path style="fill:#000000; fill-opacity:1.0000;  stroke:#000000; stroke-width:0.0000; stroke-opacity:1;  stroke-linecap:round; stroke-linejoin:round;fill-rule:evenodd;" d="M 124.0400,84.9800 123.9635,84.9648 123.8986,84.9214 123.8552,84.8565 123.8400,84.7800 123.8400,82.2700 123.8552,82.1935 123.8986,82.1286 123.9635,82.0852 124.0400,82.0700 125.0400,82.0700 125.1165,82.0852 125.1814,82.1286 125.2248,82.1935 125.2400,82.2700 125.2400,84.7800 125.2248,84.8565 125.1814,84.9214 125.1165,84.9648 125.0400,84.9800 Z"/> 
<path style="fill:#000000; fill-opacity:1.0000;  stroke:#000000; stroke-width:0.0000; stroke-opacity:1;  stroke-linecap:round; stroke-linejoin:round;fill-rule:evenodd;" d="M 121.5000,81.6700 121.4235,81.6548 121.3586,81.6114 121.3152,81.5465 121.3000,81.4700 121.3000,78.9600 121.3152,78.8835 121.3586,78.8186 121.4235,78.7752 121.5000,78.7600 122.5000,78.7600 122.5765,78.7752 122.6414,78.8186 122.6848,78.8835 122.7000,78.9600 122.7000,81.4700 122.6848,81.5465 122.6414,81.6114 122.5765,81.6548 122.5000,81.6700 Z"/> 
<path style="fill:#000000; fill-opacity:1.0000;  stroke:#000000; stroke-width:0.0000; stroke-opacity:1;  stroke-linecap:round; stroke-linejoin:round;fill-rule:evenodd;" d="M 118.9600,84.9800 118.8835,84.9648 118.8186,84.9214 118.7752,84.8565 118.7600,84.7800 118.7600,82.2700 118.7752,82.1935 118.8186,82.1286 118.8835,82.0852 118.9600,82.0700 119.9600,82.0700 120.0365,82.0852 120.1014,82.1286 120.1448,82.1935 120.1600,82.2700 120.1600,84.7800 120.1448,84.8565 120.1014,84.9214 120.0365,84.9648 119.9600,84.9800 Z"/> 
</g>
</g> 
</mask><mask id="hole-mask"><g><rect x="109.249179" y="65.415146" fill="white" width="24.33" height="50.492"/><polyline stroke-linecap="round" stroke="black" stroke-width="3.0" points="-0.0 0 0.0 0" transform="translate(114.175179 70.341146) rotate(-0.0)"/><polyline stroke-linecap="round" stroke="black" stroke-width="3.0" points="-0.0 0 0.0 0" transform="translate(114.175179 110.981146) rotate(-0.0)"/><polyline stroke-linecap="round" stroke="black" stroke-width="0.4" points="-0.0 0 0.0 0" transform="translate(123.8 88.65) rotate(-0.0)"/><polyline stroke-linecap="round" stroke="black" stroke-width="0.4" points="-0.0 0 0.0 0" transform="translate(120.1 76.85) rotate(-0.0)"/></g></mask></defs><g transform="scale(-1,1)" id="boardContainer"><g id="substrate" clip-path="url(#cut-off)" mask="url(#hole-mask)"><g id="substrate-board" style="fill:#f1f4f3; stroke:#f1f4f3;"><path d=" M 133.4792 65.5151 L 109.3492 65.5151 L 109.3492 115.8071 L 133.4792 115.8071 L 133.4792 65.5151 " style="fill-rule: evenodd;"/><g style="fill-opacity: 0.0;stroke-width: 0.2000;stroke-opacity: 1;stroke-linecap: round;stroke-linejoin: round">
<path d="M133.4792 115.8071 L133.4792 65.5151 "/>
<path d="M109.3492 115.8071 L109.3492 65.5151 "/>
<path d="M109.3492 115.8071 L133.4792 115.8071 "/>
<path d="M109.3492 65.5151 L133.4792 65.5151 "/>
</g> 
</g><g id="substrate-clad" style="fill:#72786c; stroke:#72786c;"><g style="fill-opacity: 0.0;stroke-width: 0.0000;stroke-opacity: 1;stroke-linecap: round;stroke-linejoin: round">
<g style="fill-opacity: 1.0000;stroke-width: 0.0000;stroke-opacity: 1;stroke-linecap: round;stroke-linejoin: round">
<circle cx="114.1752" cy="70.3411" r="3.2000"/> 
</g>
<g style="fill-opacity: 1.0000;stroke-width: 0.0000;stroke-opacity: 1;stroke-linecap: round;stroke-linejoin: round">
<circle cx="114.1752" cy="110.9811" r="3.2000"/> 
</g>
<g style="fill-opacity: 1.0000;stroke-width: 0.0000;stroke-opacity: 1;stroke-linecap: round;stroke-linejoin: round">
<path style="fill-opacity: 1.0000;stroke-width: 0.0000;stroke-opacity: 1;stroke-linecap: round;stroke-linejoin: round;fill-rule: evenodd" d="M 124.0400,84.9800 123.9635,84.9648 123.8986,84.9214 123.8552,84.8565 123.8400,84.7800 123.8400,82.2700 123.8552,82.1935 123.8986,82.1286 123.9635,82.0852 124.0400,82.0700 125.0400,82.0700 125.1165,82.0852 125.1814,82.1286 125.2248,82.1935 125.2400,82.2700 125.2400,84.7800 125.2248,84.8565 125.1814,84.9214 125.1165,84.9648 125.0400,84.9800 Z"/> 
<path style="fill-opacity: 1.0000;stroke-width: 0.0000;stroke-opacity: 1;stroke-linecap: round;stroke-linejoin: round;fill-rule: evenodd" d="M 121.5000,81.6700 121.4235,81.6548 121.3586,81.6114 121.3152,81.5465 121.3000,81.4700 121.3000,78.9600 121.3152,78.8835 121.3586,78.8186 121.4235,78.7752 121.5000,78.7600 122.5000,78.7600 122.5765,78.7752 122.6414,78.8186 122.6848,78.8835 122.7000,78.9600 122.7000,81.4700 122.6848,81.5465 122.6414,81.6114 122.5765,81.6548 122.5000,81.6700 Z"/> 
<path style="fill-opacity: 1.0000;stroke-width: 0.0000;stroke-opacity: 1;stroke-linecap: round;stroke-linejoin: round;fill-rule: evenodd" d="M 118.9600,84.9800 118.8835,84.9648 118.8186,84.9214 118.7752,84.8565 118.7600,84.7800 118.7600,82.2700 118.7752,82.1935 118.8186,82.1286 118.8835,82.0852 118.9600,82.0700 119.9600,82.0700 120.0365,82.0852 120.1014,82.1286 120.1448,82.1935 120.1600,82.2700 120.1600,84.7800 120.1448,84.8565 120.1014,84.9214 120.0365,84.9648 119.9600,84.9800 Z"/> 
</g>
</g> 
</g><g id="substrate-copper" style="fill:#f8f8f7; stroke:#f8f8f7;"><g style="fill-opacity: 0.0;stroke-width: 0.3000;stroke-opacity: 1;stroke-linecap: round;stroke-linejoin: round">
<text x="126.7000" y="114.1000" transform="scale(-1 1) translate(-253.400000 0)" textLength="6.1643" font-size="2.0000" lengthAdjust="spacingAndGlyphs" text-anchor="middle" opacity="0">MLAB</text>
<g class="stroked-text"><desc>MLAB</desc>
<path d="M129.2000 114.0283 L129.2000 112.5283 "/>
<path d="M129.2000 112.5283 L128.7000 113.5998 "/>
<path d="M128.7000 113.5998 L128.2000 112.5283 "/>
<path d="M128.2000 112.5283 L128.2000 114.0283 "/>
<path d="M126.7714 114.0283 L127.4857 114.0283 "/>
<path d="M127.4857 114.0283 L127.4857 112.5283 "/>
<path d="M126.3429 113.5998 L125.6286 113.5998 "/>
<path d="M126.4857 114.0283 L125.9857 112.5283 "/>
<path d="M125.9857 112.5283 L125.4857 114.0283 "/>
<path d="M124.4857 113.2426 L124.2714 113.3140 "/>
<path d="M124.2714 113.3140 L124.2000 113.3855 "/>
<path d="M124.2000 113.3855 L124.1286 113.5283 "/>
<path d="M124.1286 113.5283 L124.1286 113.7426 "/>
<path d="M124.1286 113.7426 L124.2000 113.8855 "/>
<path d="M124.2000 113.8855 L124.2714 113.9569 "/>
<path d="M124.2714 113.9569 L124.4143 114.0283 "/>
<path d="M124.4143 114.0283 L124.9857 114.0283 "/>
<path d="M124.9857 114.0283 L124.9857 112.5283 "/>
<path d="M124.9857 112.5283 L124.4857 112.5283 "/>
<path d="M124.4857 112.5283 L124.3429 112.5998 "/>
<path d="M124.3429 112.5998 L124.2714 112.6712 "/>
<path d="M124.2714 112.6712 L124.2000 112.8140 "/>
<path d="M124.2000 112.8140 L124.2000 112.9569 "/>
<path d="M124.2000 112.9569 L124.2714 113.0998 "/>
<path d="M124.2714 113.0998 L124.3429 113.1712 "/>
<path d="M124.3429 113.1712 L124.4857 113.2426 "/>
<path d="M124.4857 113.2426 L124.9857 113.2426 "/>
</g><g style="fill-opacity: 1.0000;stroke-width: 0.0000;stroke-opacity: 1;stroke-linecap: round;stroke-linejoin: round">
<circle cx="114.1752" cy="70.3411" r="3.0000"/> 
</g>
<g style="fill-opacity: 1.0000;stroke-width: 0.0000;stroke-opacity: 1;stroke-linecap: round;stroke-linejoin: round">
<circle cx="114.1752" cy="110.9811" r="3.0000"/> 
</g>
<g style="fill-opacity: 1.0000;stroke-width: 0.0000;stroke-opacity: 1;stroke-linecap: round;stroke-linejoin: round">
<path style="fill-opacity: 1.0000;stroke-width: 0.0000;stroke-opacity: 1;stroke-linecap: round;stroke-linejoin: round;fill-rule: evenodd" d="M 125.0400,84.7800 124.0400,84.7800 124.0400,82.2700 125.0400,82.2700 Z"/> 
<path style="fill-opacity: 1.0000;stroke-width: 0.0000;stroke-opacity: 1;stroke-linecap: round;stroke-linejoin: round;fill-rule: evenodd" d="M 122.5000,81.4700 121.5000,81.4700 121.5000,78.9600 122.5000,78.9600 Z"/> 
<path style="fill-opacity: 1.0000;stroke-width: 0.0000;stroke-opacity: 1;stroke-linecap: round;stroke-linejoin: round;fill-rule: evenodd" d="M 119.9600,84.7800 118.9600,84.7800 118.9600,82.2700 119.9600,82.2700 Z"/> 
</g>
<g style="fill-opacity: 1.0000;stroke-width: 0.0000;stroke-opacity: 1;stroke-linecap: round;stroke-linejoin: round">
<circle cx="123.8000" cy="88.6500" r="0.4000"/> 
</g>
<g style="fill-opacity: 1.0000;stroke-width: 0.0000;stroke-opacity: 1;stroke-linecap: round;stroke-linejoin: round">
<circle cx="120.1000" cy="76.8500" r="0.4000"/> 
</g>
<g style="fill-opacity: 0.0;stroke-width: 0.4000;stroke-opacity: 1;stroke-linecap: round;stroke-linejoin: round">
<path d="M124.5400 87.9100 L123.8000 88.6500 "/>
<path d="M124.5400 83.5250 L124.5400 87.9100 "/>
<path d="M120.1000 76.8500 L119.4600 77.4900 "/>
<path d="M119.4600 77.4900 L119.4600 83.5250 "/>
</g>
<g style="fill-opacity: 0.0;stroke-width: 0.4000;stroke-opacity: 1;stroke-linecap: round;stroke-linejoin: round">
<g style="fill-opacity: 1.0000;stroke-width: 0.0000;stroke-opacity: 1;stroke-linecap: round;stroke-linejoin: round">
<path style="fill-opacity: 1.0000;stroke-width: 0.0000;stroke-opacity: 1;stroke-linecap: round;stroke-linejoin: round;fill-rule: evenodd" d="M 133.3660,65.5354 133.4353,65.5906 133.4737,65.6704 133.4787,65.7146 133.4787,115.5510 133.4590,115.6373 133.4038,115.7066 133.3240,115.7450 133.2797,115.7500 109.5487,115.7500 109.4623,115.7303 109.3931,115.6751 109.3547,115.5953 109.3497,115.5510 109.3497,111.6102 123.0031,111.6102 123.0031,115.0898 130.3969,115.0898 130.3969,111.6102 123.0031,111.6102 109.3497,111.6102 109.3497,88.6500 122.9944,88.6500 123.0146,88.8293 123.0146,88.8293 123.0146,88.8293 123.0742,88.9995 123.0742,88.9995 123.1702,89.1523 123.2977,89.2798 123.2977,89.2798 123.2977,89.2798 123.4505,89.3758 123.6207,89.4354 123.8000,89.4556 123.9793,89.4354 124.1495,89.3758 124.3023,89.2798 124.4298,89.1523 124.5258,88.9995 124.5854,88.8293 124.5922,88.7684 124.6215,88.6848 124.6493,88.6500 124.9322,88.3671 124.9419,88.3585 124.9683,88.3383 125.0645,88.2128 125.1250,88.0668 125.1405,87.9494 125.1457,87.9100 125.1414,87.8771 125.1405,87.8641 125.1405,85.3002 125.1602,85.2139 125.2154,85.1446 125.2492,85.1229 125.2783,85.1080 125.3680,85.0183 125.4256,84.9053 125.4405,84.8115 125.4405,82.2385 125.4256,82.1447 125.3680,82.0317 125.3680,82.0317 125.3680,82.0317 125.2783,81.9419 125.1653,81.8844 125.1653,81.8844 125.1653,81.8844 125.1653,81.8844 125.0998,81.8740 125.0715,81.8695 125.0715,81.8695 124.0085,81.8695 123.9147,81.8844 123.9147,81.8844 123.8017,81.9420 123.7119,82.0317 123.6544,82.1447 123.6544,82.1447 123.6395,82.2385 123.6395,84.8115 123.6523,84.8925 123.6544,84.9053 123.6544,84.9053 123.6544,84.9053 123.7120,85.0183 123.8017,85.1080 123.8017,85.1080 123.8017,85.1080 123.8308,85.1229 123.8988,85.1797 123.9355,85.2603 123.9395,85.3002 123.9395,87.5788 123.9198,87.6652 123.8812,87.7195 123.8000,87.8007 123.7250,87.8479 123.6816,87.8578 123.6207,87.8646 123.6207,87.8646 123.4505,87.9242 123.4505,87.9242 123.2977,88.0202 123.1702,88.1477 123.0742,88.3005 123.0742,88.3005 123.0509,88.3671 123.0146,88.4707 122.9944,88.6500 109.3497,88.6500 109.3497,84.8115 118.5595,84.8115 118.5723,84.8925 118.5744,84.9053 118.5744,84.9053 118.5744,84.9053 118.6320,85.0183 118.7217,85.1080 118.7935,85.1446 118.8347,85.1656 118.9285,85.1805 119.9915,85.1805 120.0853,85.1656 120.1983,85.1080 120.2880,85.0183 120.3456,84.9053 120.3605,84.8115 120.3605,82.2385 120.3456,82.1447 120.2880,82.0317 120.2880,82.0317 120.2880,82.0317 120.1983,81.9419 120.1983,81.9419 120.1692,81.9271 120.1012,81.8703 120.0645,81.7897 120.0605,81.7498 120.0605,80.4690 120.9700,80.4690 120.9700,81.5115 120.9802,81.5967 121.0337,81.7322 121.0337,81.7322 121.1217,81.8483 121.1217,81.8483 121.2378,81.9363 121.2378,81.9363 121.3733,81.9898 121.4585,82.0000 121.7460,82.0000 121.7460,80.4690 122.2540,80.4690 122.2540,82.0000 122.5415,82.0000 122.6267,81.9898 122.7622,81.9363 122.7622,81.9363 122.8783,81.8483 122.8783,81.8483 122.9663,81.7322 122.9663,81.7322 123.0198,81.5967 123.0300,81.5115 123.0300,80.4690 122.2540,80.4690 121.7460,80.4690 120.9700,80.4690 120.0605,80.4690 120.0605,79.9610 120.9700,79.9610 121.7460,79.9610 121.7460,78.4300 122.2540,78.4300 122.2540,79.9610 123.0300,79.9610 123.0300,78.9185 123.0198,78.8333 122.9663,78.6978 122.9663,78.6978 122.8783,78.5817 122.8783,78.5817 122.7622,78.4937 122.7622,78.4937 122.6267,78.4402 122.5415,78.4300 122.2540,78.4300 121.7460,78.4300 121.4585,78.4300 121.3733,78.4402 121.2378,78.4937 121.2378,78.4937 121.1217,78.5817 121.1217,78.5817 121.0337,78.6978 121.0337,78.6978 120.9802,78.8333 120.9700,78.9185 120.9700,79.9610 120.0605,79.9610 120.0605,77.8379 120.0802,77.7515 120.1354,77.6823 120.2152,77.6438 120.2372,77.6401 120.2793,77.6354 120.4495,77.5758 120.6023,77.4798 120.7298,77.3523 120.8258,77.1995 120.8854,77.0293 120.9056,76.8500 120.8854,76.6707 120.8258,76.5005 120.7298,76.3477 120.7298,76.3477 120.7298,76.3477 120.6023,76.2202 120.6023,76.2202 120.6023,76.2202 120.4495,76.1242 120.4495,76.1242 120.4495,76.1242 120.2793,76.0646 120.2793,76.0646 120.2793,76.0646 120.1000,76.0444 119.9207,76.0646 119.9207,76.0646 119.9207,76.0646 119.7505,76.1242 119.7505,76.1242 119.5977,76.2202 119.4702,76.3477 119.3742,76.5005 119.3742,76.5005 119.3146,76.6707 119.3146,76.6707 119.3078,76.7316 119.2785,76.8152 119.2507,76.8500 119.0678,77.0329 119.0580,77.0415 119.0317,77.0617 119.0076,77.0932 118.9355,77.1872 118.9355,77.1872 118.8750,77.3332 118.8750,77.3332 118.8543,77.4900 118.8586,77.5229 118.8595,77.5359 118.8595,81.7498 118.8398,81.8361 118.7846,81.9054 118.7508,81.9271 118.7217,81.9419 118.7217,81.9419 118.6319,82.0317 118.5744,82.1447 118.5744,82.1447 118.5595,82.2385 118.5595,84.8115 109.3497,84.8115 109.3497,65.7146 109.3694,65.6283 109.4246,65.5591 109.5044,65.5206 109.5487,65.5156 133.2797,65.5156 Z"/> 
</g>
</g>
</g> 
</g><g id="substrate-pads" style="fill:#c4c1ba; stroke:#c4c1ba;" mask="url(#pads-mask)"><g style="fill-opacity: 0.0;stroke-width: 0.3000;stroke-opacity: 1;stroke-linecap: round;stroke-linejoin: round">
<text x="126.7000" y="114.1000" transform="scale(-1 1) translate(-253.400000 0)" textLength="6.1643" font-size="2.0000" lengthAdjust="spacingAndGlyphs" text-anchor="middle" opacity="0">MLAB</text>
<g class="stroked-text"><desc>MLAB</desc>
<path d="M129.2000 114.0283 L129.2000 112.5283 "/>
<path d="M129.2000 112.5283 L128.7000 113.5998 "/>
<path d="M128.7000 113.5998 L128.2000 112.5283 "/>
<path d="M128.2000 112.5283 L128.2000 114.0283 "/>
<path d="M126.7714 114.0283 L127.4857 114.0283 "/>
<path d="M127.4857 114.0283 L127.4857 112.5283 "/>
<path d="M126.3429 113.5998 L125.6286 113.5998 "/>
<path d="M126.4857 114.0283 L125.9857 112.5283 "/>
<path d="M125.9857 112.5283 L125.4857 114.0283 "/>
<path d="M124.4857 113.2426 L124.2714 113.3140 "/>
<path d="M124.2714 113.3140 L124.2000 113.3855 "/>
<path d="M124.2000 113.3855 L124.1286 113.5283 "/>
<path d="M124.1286 113.5283 L124.1286 113.7426 "/>
<path d="M124.1286 113.7426 L124.2000 113.8855 "/>
<path d="M124.2000 113.8855 L124.2714 113.9569 "/>
<path d="M124.2714 113.9569 L124.4143 114.0283 "/>
<path d="M124.4143 114.0283 L124.9857 114.0283 "/>
<path d="M124.9857 114.0283 L124.9857 112.5283 "/>
<path d="M124.9857 112.5283 L124.4857 112.5283 "/>
<path d="M124.4857 112.5283 L124.3429 112.5998 "/>
<path d="M124.3429 112.5998 L124.2714 112.6712 "/>
<path d="M124.2714 112.6712 L124.2000 112.8140 "/>
<path d="M124.2000 112.8140 L124.2000 112.9569 "/>
<path d="M124.2000 112.9569 L124.2714 113.0998 "/>
<path d="M124.2714 113.0998 L124.3429 113.1712 "/>
<path d="M124.3429 113.1712 L124.4857 113.2426 "/>
<path d="M124.4857 113.2426 L124.9857 113.2426 "/>
</g><g style="fill-opacity: 1.0000;stroke-width: 0.0000;stroke-opacity: 1;stroke-linecap: round;stroke-linejoin: round">
<circle cx="114.1752" cy="70.3411" r="3.0000"/> 
</g>
<g style="fill-opacity: 1.0000;stroke-width: 0.0000;stroke-opacity: 1;stroke-linecap: round;stroke-linejoin: round">
<circle cx="114.1752" cy="110.9811" r="3.0000"/> 
</g>
<g style="fill-opacity: 1.0000;stroke-width: 0.0000;stroke-opacity: 1;stroke-linecap: round;stroke-linejoin: round">
<path style="fill-opacity: 1.0000;stroke-width: 0.0000;stroke-opacity: 1;stroke-linecap: round;stroke-linejoin: round;fill-rule: evenodd" d="M 125.0400,84.7800 124.0400,84.7800 124.0400,82.2700 125.0400,82.2700 Z"/> 
<path style="fill-opacity: 1.0000;stroke-width: 0.0000;stroke-opacity: 1;stroke-linecap: round;stroke-linejoin: round;fill-rule: evenodd" d="M 122.5000,81.4700 121.5000,81.4700 121.5000,78.9600 122.5000,78.9600 Z"/> 
<path style="fill-opacity: 1.0000;stroke-width: 0.0000;stroke-opacity: 1;stroke-linecap: round;stroke-linejoin: round;fill-rule: evenodd" d="M 119.9600,84.7800 118.9600,84.7800 118.9600,82.2700 119.9600,82.2700 Z"/> 
</g>
<g style="fill-opacity: 1.0000;stroke-width: 0.0000;stroke-opacity: 1;stroke-linecap: round;stroke-linejoin: round">
<circle cx="123.8000" cy="88.6500" r="0.4000"/> 
</g>
<g style="fill-opacity: 1.0000;stroke-width: 0.0000;stroke-opacity: 1;stroke-linecap: round;stroke-linejoin: round">
<circle cx="120.1000" cy="76.8500" r="0.4000"/> 
</g>
<g style="fill-opacity: 0.0;stroke-width: 0.4000;stroke-opacity: 1;stroke-linecap: round;stroke-linejoin: round">
<path d="M124.5400 87.9100 L123.8000 88.6500 "/>
<path d="M124.5400 83.5250 L124.5400 87.9100 "/>
<path d="M120.1000 76.8500 L119.4600 77.4900 "/>
<path d="M119.4600 77.4900 L119.4600 83.5250 "/>
</g>
<g style="fill-opacity: 0.0;stroke-width: 0.4000;stroke-opacity: 1;stroke-linecap: round;stroke-linejoin: round">
<g style="fill-opacity: 1.0000;stroke-width: 0.0000;stroke-opacity: 1;stroke-linecap: round;stroke-linejoin: round">
<path style="fill-opacity: 1.0000;stroke-width: 0.0000;stroke-opacity: 1;stroke-linecap: round;stroke-linejoin: round;fill-rule: evenodd" d="M 133.3660,65.5354 133.4353,65.5906 133.4737,65.6704 133.4787,65.7146 133.4787,115.5510 133.4590,115.6373 133.4038,115.7066 133.3240,115.7450 133.2797,115.7500 109.5487,115.7500 109.4623,115.7303 109.3931,115.6751 109.3547,115.5953 109.3497,115.5510 109.3497,111.6102 123.0031,111.6102 123.0031,115.0898 130.3969,115.0898 130.3969,111.6102 123.0031,111.6102 109.3497,111.6102 109.3497,88.6500 122.9944,88.6500 123.0146,88.8293 123.0146,88.8293 123.0146,88.8293 123.0742,88.9995 123.0742,88.9995 123.1702,89.1523 123.2977,89.2798 123.2977,89.2798 123.2977,89.2798 123.4505,89.3758 123.6207,89.4354 123.8000,89.4556 123.9793,89.4354 124.1495,89.3758 124.3023,89.2798 124.4298,89.1523 124.5258,88.9995 124.5854,88.8293 124.5922,88.7684 124.6215,88.6848 124.6493,88.6500 124.9322,88.3671 124.9419,88.3585 124.9683,88.3383 125.0645,88.2128 125.1250,88.0668 125.1405,87.9494 125.1457,87.9100 125.1414,87.8771 125.1405,87.8641 125.1405,85.3002 125.1602,85.2139 125.2154,85.1446 125.2492,85.1229 125.2783,85.1080 125.3680,85.0183 125.4256,84.9053 125.4405,84.8115 125.4405,82.2385 125.4256,82.1447 125.3680,82.0317 125.3680,82.0317 125.3680,82.0317 125.2783,81.9419 125.1653,81.8844 125.1653,81.8844 125.1653,81.8844 125.1653,81.8844 125.0998,81.8740 125.0715,81.8695 125.0715,81.8695 124.0085,81.8695 123.9147,81.8844 123.9147,81.8844 123.8017,81.9420 123.7119,82.0317 123.6544,82.1447 123.6544,82.1447 123.6395,82.2385 123.6395,84.8115 123.6523,84.8925 123.6544,84.9053 123.6544,84.9053 123.6544,84.9053 123.7120,85.0183 123.8017,85.1080 123.8017,85.1080 123.8017,85.1080 123.8308,85.1229 123.8988,85.1797 123.9355,85.2603 123.9395,85.3002 123.9395,87.5788 123.9198,87.6652 123.8812,87.7195 123.8000,87.8007 123.7250,87.8479 123.6816,87.8578 123.6207,87.8646 123.6207,87.8646 123.4505,87.9242 123.4505,87.9242 123.2977,88.0202 123.1702,88.1477 123.0742,88.3005 123.0742,88.3005 123.0509,88.3671 123.0146,88.4707 122.9944,88.6500 109.3497,88.6500 109.3497,84.8115 118.5595,84.8115 118.5723,84.8925 118.5744,84.9053 118.5744,84.9053 118.5744,84.9053 118.6320,85.0183 118.7217,85.1080 118.7935,85.1446 118.8347,85.1656 118.9285,85.1805 119.9915,85.1805 120.0853,85.1656 120.1983,85.1080 120.2880,85.0183 120.3456,84.9053 120.3605,84.8115 120.3605,82.2385 120.3456,82.1447 120.2880,82.0317 120.2880,82.0317 120.2880,82.0317 120.1983,81.9419 120.1983,81.9419 120.1692,81.9271 120.1012,81.8703 120.0645,81.7897 120.0605,81.7498 120.0605,80.4690 120.9700,80.4690 120.9700,81.5115 120.9802,81.5967 121.0337,81.7322 121.0337,81.7322 121.1217,81.8483 121.1217,81.8483 121.2378,81.9363 121.2378,81.9363 121.3733,81.9898 121.4585,82.0000 121.7460,82.0000 121.7460,80.4690 122.2540,80.4690 122.2540,82.0000 122.5415,82.0000 122.6267,81.9898 122.7622,81.9363 122.7622,81.9363 122.8783,81.8483 122.8783,81.8483 122.9663,81.7322 122.9663,81.7322 123.0198,81.5967 123.0300,81.5115 123.0300,80.4690 122.2540,80.4690 121.7460,80.4690 120.9700,80.4690 120.0605,80.4690 120.0605,79.9610 120.9700,79.9610 121.7460,79.9610 121.7460,78.4300 122.2540,78.4300 122.2540,79.9610 123.0300,79.9610 123.0300,78.9185 123.0198,78.8333 122.9663,78.6978 122.9663,78.6978 122.8783,78.5817 122.8783,78.5817 122.7622,78.4937 122.7622,78.4937 122.6267,78.4402 122.5415,78.4300 122.2540,78.4300 121.7460,78.4300 121.4585,78.4300 121.3733,78.4402 121.2378,78.4937 121.2378,78.4937 121.1217,78.5817 121.1217,78.5817 121.0337,78.6978 121.0337,78.6978 120.9802,78.8333 120.9700,78.9185 120.9700,79.9610 120.0605,79.9610 120.0605,77.8379 120.0802,77.7515 120.1354,77.6823 120.2152,77.6438 120.2372,77.6401 120.2793,77.6354 120.4495,77.5758 120.6023,77.4798 120.7298,77.3523 120.8258,77.1995 120.8854,77.0293 120.9056,76.8500 120.8854,76.6707 120.8258,76.5005 120.7298,76.3477 120.7298,76.3477 120.7298,76.3477 120.6023,76.2202 120.6023,76.2202 120.6023,76.2202 120.4495,76.1242 120.4495,76.1242 120.4495,76.1242 120.2793,76.0646 120.2793,76.0646 120.2793,76.0646 120.1000,76.0444 119.9207,76.0646 119.9207,76.0646 119.9207,76.0646 119.7505,76.1242 119.7505,76.1242 119.5977,76.2202 119.4702,76.3477 119.3742,76.5005 119.3742,76.5005 119.3146,76.6707 119.3146,76.6707 119.3078,76.7316 119.2785,76.8152 119.2507,76.8500 119.0678,77.0329 119.0580,77.0415 119.0317,77.0617 119.0076,77.0932 118.9355,77.1872 118.9355,77.1872 118.8750,77.3332 118.8750,77.3332 118.8543,77.4900 118.8586,77.5229 118.8595,77.5359 118.8595,81.7498 118.8398,81.8361 118.7846,81.9054 118.7508,81.9271 118.7217,81.9419 118.7217,81.9419 118.6319,82.0317 118.5744,82.1447 118.5744,82.1447 118.5595,82.2385 118.5595,84.8115 109.3497,84.8115 109.3497,65.7146 109.3694,65.6283 109.4246,65.5591 109.5044,65.5206 109.5487,65.5156 133.2797,65.5156 Z"/> 
</g>
</g>
</g> 
</g><g id="substrate-silk" style="fill:#0b1013; stroke:#0b1013;" mask="url(#pads-mask-silkscreen)"><g style="fill-opacity: 0.0;stroke-width: 0.3000;stroke-opacity: 1;stroke-linecap: round;stroke-linejoin: round">
<g transform="rotate(-90.000000 132.0800 76.2000)">
<text x="132.0800" y="77.0500" transform="scale(-1 1) translate(-264.160000 0)" textLength="19.2719" font-size="2.2667" lengthAdjust="spacingAndGlyphs" text-anchor="middle" opacity="0">PINHOLDER01A</text>
</g>
<g class="stroked-text"><desc>PINHOLDER01A</desc>
<path d="M132.8509 67.1738 L131.1509 67.1738 "/>
<path d="M131.1509 67.1738 L131.1509 67.8214 "/>
<path d="M131.1509 67.8214 L131.2318 67.9833 "/>
<path d="M131.2318 67.9833 L131.3128 68.0643 "/>
<path d="M131.3128 68.0643 L131.4747 68.1452 "/>
<path d="M131.4747 68.1452 L131.7175 68.1452 "/>
<path d="M131.7175 68.1452 L131.8794 68.0643 "/>
<path d="M131.8794 68.0643 L131.9604 67.9833 "/>
<path d="M131.9604 67.9833 L132.0413 67.8214 "/>
<path d="M132.0413 67.8214 L132.0413 67.1738 "/>
<path d="M132.8509 68.8738 L131.1509 68.8738 "/>
<path d="M132.8509 69.6833 L131.1509 69.6833 "/>
<path d="M131.1509 69.6833 L132.8509 70.6548 "/>
<path d="M132.8509 70.6548 L131.1509 70.6548 "/>
<path d="M132.8509 71.4643 L131.1509 71.4643 "/>
<path d="M131.9604 71.4643 L131.9604 72.4357 "/>
<path d="M132.8509 72.4357 L131.1509 72.4357 "/>
<path d="M131.1509 73.5690 L131.1509 73.8929 "/>
<path d="M131.1509 73.8929 L131.2318 74.0548 "/>
<path d="M131.2318 74.0548 L131.3937 74.2167 "/>
<path d="M131.3937 74.2167 L131.7175 74.2976 "/>
<path d="M131.7175 74.2976 L132.2842 74.2976 "/>
<path d="M132.2842 74.2976 L132.6080 74.2167 "/>
<path d="M132.6080 74.2167 L132.7699 74.0548 "/>
<path d="M132.7699 74.0548 L132.8509 73.8929 "/>
<path d="M132.8509 73.8929 L132.8509 73.5690 "/>
<path d="M132.8509 73.5690 L132.7699 73.4071 "/>
<path d="M132.7699 73.4071 L132.6080 73.2452 "/>
<path d="M132.6080 73.2452 L132.2842 73.1643 "/>
<path d="M132.2842 73.1643 L131.7175 73.1643 "/>
<path d="M131.7175 73.1643 L131.3937 73.2452 "/>
<path d="M131.3937 73.2452 L131.2318 73.4071 "/>
<path d="M131.2318 73.4071 L131.1509 73.5690 "/>
<path d="M132.8509 75.8357 L132.8509 75.0262 "/>
<path d="M132.8509 75.0262 L131.1509 75.0262 "/>
<path d="M132.8509 76.4024 L131.1509 76.4024 "/>
<path d="M131.1509 76.4024 L131.1509 76.8071 "/>
<path d="M131.1509 76.8071 L131.2318 77.0500 "/>
<path d="M131.2318 77.0500 L131.3937 77.2119 "/>
<path d="M131.3937 77.2119 L131.5556 77.2929 "/>
<path d="M131.5556 77.2929 L131.8794 77.3738 "/>
<path d="M131.8794 77.3738 L132.1223 77.3738 "/>
<path d="M132.1223 77.3738 L132.4461 77.2929 "/>
<path d="M132.4461 77.2929 L132.6080 77.2119 "/>
<path d="M132.6080 77.2119 L132.7699 77.0500 "/>
<path d="M132.7699 77.0500 L132.8509 76.8071 "/>
<path d="M132.8509 76.8071 L132.8509 76.4024 "/>
<path d="M131.9604 78.1024 L131.9604 78.6690 "/>
<path d="M132.8509 78.9119 L132.8509 78.1024 "/>
<path d="M132.8509 78.1024 L131.1509 78.1024 "/>
<path d="M131.1509 78.1024 L131.1509 78.9119 "/>
<path d="M132.8509 80.6119 L132.0413 80.0452 "/>
<path d="M132.8509 79.6405 L131.1509 79.6405 "/>
<path d="M131.1509 79.6405 L131.1509 80.2881 "/>
<path d="M131.1509 80.2881 L131.2318 80.4500 "/>
<path d="M131.2318 80.4500 L131.3128 80.5310 "/>
<path d="M131.3128 80.5310 L131.4747 80.6119 "/>
<path d="M131.4747 80.6119 L131.7175 80.6119 "/>
<path d="M131.7175 80.6119 L131.8794 80.5310 "/>
<path d="M131.8794 80.5310 L131.9604 80.4500 "/>
<path d="M131.9604 80.4500 L132.0413 80.2881 "/>
<path d="M132.0413 80.2881 L132.0413 79.6405 "/>
<path d="M131.1509 81.6643 L131.1509 81.8262 "/>
<path d="M131.1509 81.8262 L131.2318 81.9881 "/>
<path d="M131.2318 81.9881 L131.3128 82.0690 "/>
<path d="M131.3128 82.0690 L131.4747 82.1500 "/>
<path d="M131.4747 82.1500 L131.7985 82.2310 "/>
<path d="M131.7985 82.2310 L132.2032 82.2310 "/>
<path d="M132.2032 82.2310 L132.5270 82.1500 "/>
<path d="M132.5270 82.1500 L132.6889 82.0690 "/>
<path d="M132.6889 82.0690 L132.7699 81.9881 "/>
<path d="M132.7699 81.9881 L132.8509 81.8262 "/>
<path d="M132.8509 81.8262 L132.8509 81.6643 "/>
<path d="M132.8509 81.6643 L132.7699 81.5024 "/>
<path d="M132.7699 81.5024 L132.6889 81.4214 "/>
<path d="M132.6889 81.4214 L132.5270 81.3405 "/>
<path d="M132.5270 81.3405 L132.2032 81.2595 "/>
<path d="M132.2032 81.2595 L131.7985 81.2595 "/>
<path d="M131.7985 81.2595 L131.4747 81.3405 "/>
<path d="M131.4747 81.3405 L131.3128 81.4214 "/>
<path d="M131.3128 81.4214 L131.2318 81.5024 "/>
<path d="M131.2318 81.5024 L131.1509 81.6643 "/>
<path d="M132.8509 83.8500 L132.8509 82.8786 "/>
<path d="M132.8509 83.3643 L131.1509 83.3643 "/>
<path d="M131.1509 83.3643 L131.3937 83.2024 "/>
<path d="M131.3937 83.2024 L131.5556 83.0405 "/>
<path d="M131.5556 83.0405 L131.6366 82.8786 "/>
<path d="M132.3651 84.4976 L132.3651 85.3071 "/>
<path d="M132.8509 84.3357 L131.1509 84.9024 "/>
<path d="M131.1509 84.9024 L132.8509 85.4690 "/>
</g></g>
<g style="fill-opacity: 0.0;stroke-width: 0.1500;stroke-opacity: 1;stroke-linecap: round;stroke-linejoin: round">
<g transform="rotate(-180.000000 122.1000 85.9500)">
<text x="122.1000" y="86.4500" transform="scale(-1 1) translate(-244.200000 0)" textLength="6.6036" font-size="1.3333" lengthAdjust="spacingAndGlyphs" text-anchor="middle" opacity="0">A GND K</text>
</g>
<g class="stroked-text"><desc>A GND K</desc>
<path d="M119.0762 85.7809 L119.5524 85.7809 "/>
<path d="M118.9810 85.4952 L119.3143 86.4952 "/>
<path d="M119.3143 86.4952 L119.6476 85.4952 "/>
<path d="M121.2667 86.4476 L121.1714 86.4952 "/>
<path d="M121.1714 86.4952 L121.0286 86.4952 "/>
<path d="M121.0286 86.4952 L120.8857 86.4476 "/>
<path d="M120.8857 86.4476 L120.7905 86.3523 "/>
<path d="M120.7905 86.3523 L120.7429 86.2571 "/>
<path d="M120.7429 86.2571 L120.6952 86.0666 "/>
<path d="M120.6952 86.0666 L120.6952 85.9238 "/>
<path d="M120.6952 85.9238 L120.7429 85.7333 "/>
<path d="M120.7429 85.7333 L120.7905 85.6380 "/>
<path d="M120.7905 85.6380 L120.8857 85.5428 "/>
<path d="M120.8857 85.5428 L121.0286 85.4952 "/>
<path d="M121.0286 85.4952 L121.1238 85.4952 "/>
<path d="M121.1238 85.4952 L121.2667 85.5428 "/>
<path d="M121.2667 85.5428 L121.3143 85.5904 "/>
<path d="M121.3143 85.5904 L121.3143 85.9238 "/>
<path d="M121.3143 85.9238 L121.1238 85.9238 "/>
<path d="M121.7429 85.4952 L121.7429 86.4952 "/>
<path d="M121.7429 86.4952 L122.3143 85.4952 "/>
<path d="M122.3143 85.4952 L122.3143 86.4952 "/>
<path d="M122.7905 85.4952 L122.7905 86.4952 "/>
<path d="M122.7905 86.4952 L123.0286 86.4952 "/>
<path d="M123.0286 86.4952 L123.1714 86.4476 "/>
<path d="M123.1714 86.4476 L123.2667 86.3523 "/>
<path d="M123.2667 86.3523 L123.3143 86.2571 "/>
<path d="M123.3143 86.2571 L123.3619 86.0666 "/>
<path d="M123.3619 86.0666 L123.3619 85.9238 "/>
<path d="M123.3619 85.9238 L123.3143 85.7333 "/>
<path d="M123.3143 85.7333 L123.2667 85.6380 "/>
<path d="M123.2667 85.6380 L123.1714 85.5428 "/>
<path d="M123.1714 85.5428 L123.0286 85.4952 "/>
<path d="M123.0286 85.4952 L122.7905 85.4952 "/>
<path d="M124.5524 85.4952 L124.5524 86.4952 "/>
<path d="M125.1238 85.4952 L124.6952 86.0666 "/>
<path d="M125.1238 86.4952 L124.5524 85.9238 "/>
</g><g transform="rotate(-90.000000 126.8700 81.8700)">
<text x="126.8700" y="82.3700" transform="scale(-1 1) translate(-253.740000 0)" textLength="1.8893" font-size="1.3333" lengthAdjust="spacingAndGlyphs" text-anchor="middle" opacity="0">J1</text>
</g>
<g class="stroked-text"><desc>J1</desc>
<path d="M126.3248 81.5367 L127.0391 81.5367 "/>
<path d="M127.0391 81.5367 L127.1820 81.4890 "/>
<path d="M127.1820 81.4890 L127.2772 81.3938 "/>
<path d="M127.2772 81.3938 L127.3248 81.2510 "/>
<path d="M127.3248 81.2510 L127.3248 81.1557 "/>
<path d="M127.3248 82.5367 L127.3248 81.9652 "/>
<path d="M127.3248 82.2510 L126.3248 82.2510 "/>
<path d="M126.3248 82.2510 L126.4677 82.1557 "/>
<path d="M126.4677 82.1557 L126.5629 82.0605 "/>
<path d="M126.5629 82.0605 L126.6105 81.9652 "/>
</g></g>
<g style="fill-opacity: 0.0;stroke-width: 0.1200;stroke-opacity: 1;stroke-linecap: round;stroke-linejoin: round">
<path d="M118.1300 83.2000 L118.1300 80.5400 "/>
<path d="M123.7800 83.2000 L120.2200 83.2000 "/>
<path d="M125.8700 83.2000 L125.8700 80.5400 "/>
<path d="M125.8700 83.2000 L125.3000 83.2000 "/>
<path d="M121.2400 80.5400 L118.1300 80.5400 "/>
<path d="M118.7000 80.5400 L118.1300 80.5400 "/>
<path d="M125.3000 83.2000 L125.3000 84.7200 "/>
<path d="M125.8700 80.5400 L122.7600 80.5400 "/>
</g> 
</g><g id="substrate-outline" style="fill:#000000; stroke:#000000; stroke-width: 0.15"><g style="fill-opacity: 0.0;stroke-opacity: 1;stroke-linecap: round;stroke-linejoin: round">
<path d="M133.4792 115.8071 L133.4792 65.5151 "/>
<path d="M109.3492 115.8071 L109.3492 65.5151 "/>
<path d="M109.3492 115.8071 L133.4792 115.8071 "/>
<path d="M109.3492 65.5151 L133.4792 65.5151 "/>
</g> 
<path d="M -1.5 0.0 A 1.5 1.5 0 1 1 1.5 0.0 L 1.5 -0.0 A 1.5 1.5 0 1 1 -1.5 -0.0 Z" transform="translate(114.175179 70.341146) rotate(-0.0)"/><path d="M -1.5 0.0 A 1.5 1.5 0 1 1 1.5 0.0 L 1.5 -0.0 A 1.5 1.5 0 1 1 -1.5 -0.0 Z" transform="translate(114.175179 110.981146) rotate(-0.0)"/><path d="M -0.2 0.0 A 0.2 0.2 0 1 1 0.2 0.0 L 0.2 -0.0 A 0.2 0.2 0 1 1 -0.2 -0.0 Z" transform="translate(123.8 88.65) rotate(-0.0)"/><path d="M -0.2 0.0 A 0.2 0.2 0 1 1 0.2 0.0 L 0.2 -0.0 A 0.2 0.2 0 1 1 -0.2 -0.0 Z" transform="translate(120.1 76.85) rotate(-0.0)"/></g></g><g id="substrate-paste" style="fill:#8a8a8a; stroke:#8a8a8a;"><g style="fill-opacity: 0.0;stroke-width: 0.0000;stroke-opacity: 1;stroke-linecap: round;stroke-linejoin: round">
<g style="fill-opacity: 1.0000;stroke-width: 0.0000;stroke-opacity: 1;stroke-linecap: round;stroke-linejoin: round">
<path style="fill-opacity: 1.0000;stroke-width: 0.0000;stroke-opacity: 1;stroke-linecap: round;stroke-linejoin: round;fill-rule: evenodd" d="M 125.0400,84.7800 124.0400,84.7800 124.0400,82.2700 125.0400,82.2700 Z"/> 
<path style="fill-opacity: 1.0000;stroke-width: 0.0000;stroke-opacity: 1;stroke-linecap: round;stroke-linejoin: round;fill-rule: evenodd" d="M 122.5000,81.4700 121.5000,81.4700 121.5000,78.9600 122.5000,78.9600 Z"/> 
<path style="fill-opacity: 1.0000;stroke-width: 0.0000;stroke-opacity: 1;stroke-linecap: round;stroke-linejoin: round;fill-rule: evenodd" d="M 119.9600,84.7800 118.9600,84.7800 118.9600,82.2700 119.9600,82.2700 Z"/> 
</g>
</g> 
</g></g><g transform="scale(-1,1)" id="componentContainer"><!--Mlab_Mechanical:MountingHole_3mm.back:M3--><g transform="translate(114.175179 70.341146) scale(1.0, 1.0) rotate(-0.0) translate(-0.75 -0.75)"><g id="pref_12_Mlab_Mechanical__MountingHole_3mmback_HOLE"><defs xmlns:xlink="http://www.w3.org/1999/xlink" id="pref_13defs13">
    <linearGradient id="pref_13linearGradient3674">
      <stop style="stop-color:#2b2b2b;stop-opacity:1" offset="0" id="pref_13stop3666"/>
      <stop style="stop-color:#5e5e5e;stop-opacity:0.78431374" offset="0.48605427" id="pref_13stop4288"/>
      <stop style="stop-color:#838383;stop-opacity:0" offset="0.53796667" id="pref_13stop3668"/>
      <stop style="stop-color:#dcdcdc;stop-opacity:0" offset="0.76845002" id="pref_13stop3670"/>
      <stop style="stop-color:#e4e4e4;stop-opacity:0.88235301" offset="1" id="pref_13stop3672"/>
    </linearGradient>
    <linearGradient id="pref_13linearGradient2885">
      <stop style="stop-color:#8f8f8f;stop-opacity:1" offset="0" id="pref_13stop2881"/>
      <stop style="stop-color:#e5e5e5;stop-opacity:1" offset="1" id="pref_13stop2883"/>
    </linearGradient>
    <linearGradient id="pref_13linearGradient1894">
      <stop style="stop-color:#b2b2b2;stop-opacity:1" offset="0" id="pref_13stop1890"/>
      <stop style="stop-color:#838383;stop-opacity:1" offset="0.3359659" id="pref_13stop2785"/>
      <stop style="stop-color:#dcdcdc;stop-opacity:1" offset="0.76141548" id="pref_13stop2655"/>
      <stop style="stop-color:#bebebe;stop-opacity:1" offset="1" id="pref_13stop1892"/>
    </linearGradient>
    <linearGradient id="pref_13linearGradient3692-7">
      <stop style="stop-color:#d3d3d3;stop-opacity:1;" offset="0" id="pref_13stop3688"/>
      <stop style="stop-color:#b2b2b2;stop-opacity:1" offset="0.81006318" id="pref_13stop5318"/>
      <stop style="stop-color:#c8c8c8;stop-opacity:1" offset="0.87439835" id="pref_13stop4242"/>
      <stop style="stop-color:#b8b8b8;stop-opacity:1;" offset="0.94349736" id="pref_13stop4310"/>
      <stop style="stop-color:#aeaeae;stop-opacity:1" offset="1" id="pref_13stop3690"/>
    </linearGradient>
    <radialGradient xlink:href="#pref_13linearGradient3692-7" id="pref_13radialGradient1176" cx="0.75" cy="0.75" fx="0.75" fy="0.75" r="1.5" gradientUnits="userSpaceOnUse"/>
    <linearGradient xlink:href="#pref_13linearGradient1894" id="pref_13linearGradient1902" x1="-0.24704969" y1="-10.608996" x2="8.4657993" y2="-5.57863" gradientUnits="userSpaceOnUse"/>
    <linearGradient xlink:href="#pref_13linearGradient2885" id="pref_13linearGradient2887" x1="-0.24704971" y1="-8.0938129" x2="8.4657997" y2="-8.0938129" gradientUnits="userSpaceOnUse"/>
    <radialGradient xlink:href="#pref_13linearGradient3674" id="pref_13radialGradient3506" cx="4.109375" cy="-8.0938129" fx="4.109375" fy="-8.0938129" r="4.3564248" gradientTransform="matrix(1.1330715,0.01077876,-0.01098402,1.1546483,-0.63574335,1.2074004)" gradientUnits="userSpaceOnUse"/>
    <linearGradient xlink:href="#pref_13linearGradient1894" id="pref_13linearGradient1902-1" x1="-0.24704969" y1="-10.608996" x2="8.4657993" y2="-5.57863" gradientUnits="userSpaceOnUse"/>
    <linearGradient xlink:href="#pref_13linearGradient2885" id="pref_13linearGradient2887-3" x1="-0.2470497" y1="-8.0938129" x2="8.4657993" y2="-8.0938129" gradientUnits="userSpaceOnUse"/>
    <radialGradient xlink:href="#pref_13linearGradient3674" id="pref_13radialGradient3506-6" cx="4.109375" cy="-8.0938129" fx="4.109375" fy="-8.0938129" r="4.3564248" gradientTransform="matrix(1.1330715,0.01077876,-0.01098402,1.1546483,-0.63574335,1.2074004)" gradientUnits="userSpaceOnUse"/>
    <linearGradient xlink:href="#pref_13linearGradient3692" id="pref_13linearGradient6924" gradientUnits="userSpaceOnUse" x1="1.4987922" y1="4.3924975" x2="-1.0811033" y2="-3.0084407"/>
    <linearGradient id="pref_13linearGradient3692">
      <stop style="stop-color:#e4e4e4;stop-opacity:1" offset="0" id="pref_13stop6926"/>
      <stop style="stop-color:#e5e5e5;stop-opacity:1" offset="0.1656336" id="pref_13stop6928"/>
      <stop style="stop-color:#f5f5f5;stop-opacity:1" offset="0.29162589" id="pref_13stop6930"/>
      <stop style="stop-color:#c6c6c6;stop-opacity:1;" offset="0.38067153" id="pref_13stop6932"/>
      <stop style="stop-color:#dddddd;stop-opacity:1" offset="0.57577699" id="pref_13stop6934"/>
      <stop style="stop-color:#f2f2f2;stop-opacity:1" offset="0.66836077" id="pref_13stop6936"/>
      <stop style="stop-color:#ebebeb;stop-opacity:1" offset="0.79280978" id="pref_13stop6938"/>
      <stop style="stop-color:#efefef;stop-opacity:1" offset="1" id="pref_13stop6940"/>
    </linearGradient>
  </defs>
  <circle style="fill:url(#pref_13linearGradient6924);fill-opacity:1;stroke:#cecece;stroke-width:0.05;stroke-miterlimit:4;stroke-dasharray:none;stroke-opacity:1" id="pref_13path6642" cx="0.75" cy="0.75" r="3.5"/>
  <g xmlns:sodipodi="http://sodipodi.sourceforge.net/DTD/sodipodi-0.dtd" id="pref_13g5432-9" transform="rotate(16.945707,0.75000009,0.75000001)">
    <path sodipodi:type="star" style="opacity:1;fill:url(#pref_13linearGradient1902-1);fill-opacity:1;stroke:url(#pref_13linearGradient2887-3);stroke-width:0.0984229;stroke-linecap:round;stroke-linejoin:round;stroke-miterlimit:4;stroke-dasharray:none" id="pref_13path1634-2" sodipodi:sides="6" sodipodi:cx="4.109375" sodipodi:cy="-8.0938129" sodipodi:r1="5.0303659" sodipodi:r2="4.3564248" sodipodi:arg1="0.52359878" sodipodi:arg2="1.0471976" transform="matrix(0.47378978,0.39955401,-0.39955401,0.47378978,-4.4308952,2.9428486)" d="m 8.4657997,-5.57863 -4.3564247,2.515183 -4.35642471,-2.515183 2e-8,-5.030366 4.35642469,-2.515183 4.3564247,2.515183 z"/>
    <path sodipodi:type="star" style="opacity:1;fill:url(#pref_13radialGradient3506-6);fill-opacity:1;stroke:none;stroke-width:0.0984229;stroke-linecap:round;stroke-linejoin:round;stroke-miterlimit:4;stroke-dasharray:none" id="pref_13path1634-9-0" sodipodi:sides="6" sodipodi:cx="4.109375" sodipodi:cy="-8.0938129" sodipodi:r1="5.0303659" sodipodi:r2="4.3564248" sodipodi:arg1="0.52359878" sodipodi:arg2="1.0471976" transform="matrix(0.47378978,0.39955401,-0.39955401,0.47378978,-4.4308952,2.9428486)" d="m 8.4657997,-5.57863 -4.3564247,2.515183 -4.35642471,-2.515183 2e-8,-5.030366 4.35642469,-2.515183 4.3564247,2.515183 z"/>
  </g>
  <g xmlns:sodipodi="http://sodipodi.sourceforge.net/DTD/sodipodi-0.dtd" id="pref_13g5432">
    <path sodipodi:type="star" style="opacity:1;fill:url(#pref_13linearGradient1902);fill-opacity:1;stroke:url(#pref_13linearGradient2887);stroke-width:0.0984229;stroke-linecap:round;stroke-linejoin:round;stroke-miterlimit:4;stroke-dasharray:none" id="pref_13path1634" sodipodi:sides="6" sodipodi:cx="4.109375" sodipodi:cy="-8.0938129" sodipodi:r1="5.0303659" sodipodi:r2="4.3564248" sodipodi:arg1="0.52359878" sodipodi:arg2="1.0471976" d="m 8.4657997,-5.57863 -4.3564247,2.515183 -4.35642471,-2.515183 2e-8,-5.030366 4.35642469,-2.515183 4.3564247,2.515183 z" transform="matrix(0.47378978,0.39955401,-0.39955401,0.47378978,-4.4308952,2.9428486)"/>
    <path sodipodi:type="star" style="opacity:1;fill:url(#pref_13radialGradient3506);fill-opacity:1;stroke:none;stroke-width:0.0984229;stroke-linecap:round;stroke-linejoin:round;stroke-miterlimit:4;stroke-dasharray:none" id="pref_13path1634-9" sodipodi:sides="6" sodipodi:cx="4.109375" sodipodi:cy="-8.0938129" sodipodi:r1="5.0303659" sodipodi:r2="4.3564248" sodipodi:arg1="0.52359878" sodipodi:arg2="1.0471976" transform="matrix(0.47378978,0.39955401,-0.39955401,0.47378978,-4.4308952,2.9428486)" d="m 8.4657997,-5.57863 -4.3564247,2.515183 -4.35642471,-2.515183 2e-8,-5.030366 4.35642469,-2.515183 4.3564247,2.515183 z"/>
  </g>
  <circle style="opacity:1;fill:url(#pref_13radialGradient1176);fill-opacity:1;stroke-width:0.0202753;stroke:#848484;stroke-opacity:1" id="pref_13path1030" cx="0.75" cy="0.75" r="1.5"/>
</g></g><!--Mlab_Mechanical:MountingHole_3mm.back:M4--><g transform="translate(114.175179 110.981146) scale(1.0, 1.0) rotate(-0.0) translate(-0.75 -0.75)"><use xmlns:xlink="http://www.w3.org/1999/xlink" xlink:href="#pref_12_Mlab_Mechanical__MountingHole_3mmback_HOLE"/></g></g></svg>