<?xml version='1.0' encoding='ASCII' standalone='yes'?>
<svg xmlns:svg="http://www.w3.org/2000/svg" xmlns="http://www.w3.org/2000/svg" xmlns:xlink="http://www.w3.org/1999/xlink" version="1.1" width="297.0022mm" height="210.0072mm" viewBox="0.0000 0.0000 297.0022 210.0072">
<title>SVG Image created as PINHOLDER01-F_Fab.svg date 2023/07/05 14:49:38 </title>
  <desc>Image generated by PCBNEW </desc>
<g style="fill:#848484; fill-opacity:1.0000;stroke:#848484; stroke-opacity:1.0000; stroke-linecap:round; stroke-linejoin:round;" transform="translate(0 0) scale(1 1)">
</g>
<g style="fill:#848484; fill-opacity:0.0;  stroke:#848484; stroke-width:0.0000; stroke-opacity:1;  stroke-linecap:round; stroke-linejoin:round;">
</g>
<g style="fill:#848484; fill-opacity:0.01;  stroke:#848484; stroke-width:0.5615; stroke-opacity:1;  stroke-linecap:round; stroke-linejoin:round;">
<text x="146.0646" y="46.5222" textLength="10.8151" font-size="4.9909" lengthAdjust="spacingAndGlyphs" text-anchor="middle" opacity="0.01" style="font-family:monospace">TP2</text>
<g class="stroked-text"><desc>TP2</desc>
<path d="M150.7881 42.6100 L148.6492 42.6100 "/>
<path d="M149.7187 46.3531 L149.7187 42.6100 "/>
<path d="M147.4015 46.3531 L147.4015 42.6100 "/>
<path d="M147.4015 42.6100 L145.9755 42.6100 "/>
<path d="M145.9755 42.6100 L145.6190 42.7882 "/>
<path d="M145.6190 42.7882 L145.4408 42.9664 "/>
<path d="M145.4408 42.9664 L145.2625 43.3229 "/>
<path d="M145.2625 43.3229 L145.2625 43.8577 "/>
<path d="M145.2625 43.8577 L145.4408 44.2142 "/>
<path d="M145.4408 44.2142 L145.6190 44.3924 "/>
<path d="M145.6190 44.3924 L145.9755 44.5707 "/>
<path d="M145.9755 44.5707 L147.4015 44.5707 "/>
<path d="M143.8366 42.9664 L143.6583 42.7882 "/>
<path d="M143.6583 42.7882 L143.3018 42.6100 "/>
<path d="M143.3018 42.6100 L142.4106 42.6100 "/>
<path d="M142.4106 42.6100 L142.0541 42.7882 "/>
<path d="M142.0541 42.7882 L141.8758 42.9664 "/>
<path d="M141.8758 42.9664 L141.6976 43.3229 "/>
<path d="M141.6976 43.3229 L141.6976 43.6794 "/>
<path d="M141.6976 43.6794 L141.8758 44.2142 "/>
<path d="M141.8758 44.2142 L144.0148 46.3531 "/>
<path d="M144.0148 46.3531 L141.6976 46.3531 "/>
</g></g>
<g style="fill:#848484; fill-opacity:0.0;  stroke:#848484; stroke-width:0.6239; stroke-opacity:1;  stroke-linecap:round; stroke-linejoin:round;">
<path d="M140.8658 42.5711 L140.8658 40.4916 "/>
<path d="M140.8658 40.4916 L151.2635 40.4916 "/>
<path d="M151.2635 46.7302 L151.2635 48.8097 "/>
<path d="M151.2635 48.8097 L140.8658 48.8097 "/>
<path d="M140.8658 46.7302 L138.7862 46.7302 "/>
<path d="M153.9669 42.5711 L138.1624 42.5711 "/>
<path d="M151.2635 40.4916 L151.2635 42.5711 "/>
<path d="M153.3430 46.7302 L151.2635 46.7302 "/>
<path d="M138.7862 42.5711 L140.8658 42.5711 "/>
<path d="M140.8658 48.8097 L140.8658 46.7302 "/>
<path d="M138.1624 46.7302 L153.9669 46.7302 "/>
<path d="M146.0646 48.8097 L146.0646 46.7302 "/>
<path d="M138.1624 46.7302 L138.1624 42.5711 "/>
<path d="M153.9669 42.5711 L153.9669 46.7302 "/>
<path d="M151.2635 42.5711 L153.3430 42.5711 "/>
<path d="M146.0646 42.5711 L146.0646 40.4916 "/>
<g>
</g>
<g>
</g>
<g>
</g>
<g>
</g>
<g>
</g>
<g>
</g>
<g>
</g>
<g>
</g>
</g> 
<svg:g><svg:g><svg:title>SVG Image created as PINHOLDER01-Edge_Cuts.svg date 2023/07/05 14:49:38 </svg:title>
  <svg:desc>Image generated by PCBNEW </svg:desc>
<svg:g style="fill:#C2C200; fill-opacity:1.0000;stroke:#C2C200; stroke-opacity:1.0000; stroke-linecap:round; stroke-linejoin:round;" transform="translate(0 0) scale(1 1)">
</svg:g>
<svg:g style="fill:#C2C200; fill-opacity:0.0;  stroke:#C2C200; stroke-width:0.0000; stroke-opacity:1;  stroke-linecap:round; stroke-linejoin:round;">
</svg:g>
<svg:g style="fill:#C2C200; fill-opacity:0.0;  stroke:#C2C200; stroke-width:0.8318; stroke-opacity:1;  stroke-linecap:round; stroke-linejoin:round;">
<svg:path d="M98.3219 209.5877 L98.3219 0.4195 "/>
<svg:path d="M198.6803 209.5877 L198.6803 0.4195 "/>
<svg:path d="M198.6803 209.5877 L98.3219 209.5877 "/>
<svg:path d="M198.6803 0.4195 L98.3219 0.4195 "/>
<svg:g>
</svg:g>
<svg:g>
</svg:g>
<svg:g>
</svg:g>
<svg:g>
</svg:g>
<svg:g>
</svg:g>
<svg:g>
</svg:g>
<svg:g>
</svg:g>
<svg:g>
</svg:g>
</svg:g> 
</svg:g></svg:g></svg>
