<?xml version='1.0' encoding='ASCII' standalone='yes'?>
<svg xmlns:svg="http://www.w3.org/2000/svg" xmlns="http://www.w3.org/2000/svg" xmlns:xlink="http://www.w3.org/1999/xlink" version="1.1" width="29.700220cm" height="21.000720cm" viewBox="0 0 2970022 2100072">
<title>SVG Picture created as PINHOLDER01-B_Fab.svg date 2023/04/13 07:49:44 </title>
  <desc>Picture generated by PCBNEW </desc>
<g style="fill:#000084; fill-opacity:1.000000;stroke:#000084; stroke-opacity:1.000000; stroke-linecap:round; stroke-linejoin:round;" transform="translate(0 0) scale(1 1)">
</g>
<g style="fill:#000084; fill-opacity:0.0;  stroke:#000084; stroke-width:0.000000; stroke-opacity:1;  stroke-linecap:round; stroke-linejoin:round;">
</g>
<g style="fill:#000084; fill-opacity:0.01;  stroke:#000084; stroke-width:6237.623762; stroke-opacity:1;  stroke-linecap:round; stroke-linejoin:round;">
<text x="1451968.693069" y="705303.338614" transform="scale(-1 1) translate(-2903937.386139 0)" textLength="63178.229703" font-size="55445.530693" lengthAdjust="spacingAndGlyphs" text-anchor="middle" opacity="0.01" style="font-family:monospace">J1</text>
<g class="stroked-text"><desc>J1</desc>
<path d="M1465830 661738 L1465830 691441 L1467810 697382 L1471770 701342 L1477711 703323 L1481671 703323 "/>
<path d="M1424245 703323 L1448008 703323 "/>
<path d="M1436127 703323 L1436127 661738 L1440087 667679 L1444047 671639 L1448008 673620 "/>
</g></g>
<g style="fill:#000084; fill-opacity:0.0;  stroke:#000084; stroke-width:4158.415842; stroke-opacity:1;  stroke-linecap:round; stroke-linejoin:round;">
<path d="M1570899 737323 L1610404 697818 "/>
<path d="M1610404 697818 L1610404 631699 "/>
<path d="M1333038 790135 L1333038 737323 "/>
<path d="M1570899 737323 L1570899 790135 "/>
<path d="M1293533 631699 L1293533 737323 "/>
<path d="M1359651 737323 L1359651 790135 "/>
<path d="M1610404 631699 L1293533 631699 "/>
<path d="M1359651 790135 L1333038 790135 "/>
<path d="M1465275 578887 L1438661 578887 "/>
<path d="M1293533 737323 L1570899 737323 "/>
<path d="M1570899 790135 L1544285 790135 "/>
<path d="M1465275 631699 L1465275 578887 "/>
<path d="M1544285 790135 L1544285 737323 "/>
<path d="M1438661 578887 L1438661 631699 "/>
<g>
</g>
<g>
</g>
<g>
</g>
<g>
</g>
<g>
</g>
<g>
</g>
<g>
</g>
<g>
</g>
</g> 
<svg:g><svg:g><svg:title>SVG Picture created as PINHOLDER01-Edge_Cuts.svg date 2023/04/13 07:49:44 </svg:title>
  <svg:desc>Picture generated by PCBNEW </svg:desc>
<svg:g style="fill:#C2C200; fill-opacity:1.000000;stroke:#C2C200; stroke-opacity:1.000000; stroke-linecap:round; stroke-linejoin:round;" transform="translate(0 0) scale(1 1)">
</svg:g>
<svg:g style="fill:#C2C200; fill-opacity:0.0;  stroke:#C2C200; stroke-width:0.000000; stroke-opacity:1;  stroke-linecap:round; stroke-linejoin:round;">
</svg:g>
<svg:g style="fill:#C2C200; fill-opacity:0.0;  stroke:#C2C200; stroke-width:8316.831683; stroke-opacity:1;  stroke-linecap:round; stroke-linejoin:round;">
<svg:path d="M2044127 2095877 L2044127 4194 "/>
<svg:path d="M925894 2095758 L925894 4408 "/>
<svg:path d="M925894 2095758 L2044127 2095877 "/>
<svg:path d="M925894 4408 L2044127 4194 "/>
<svg:g>
</svg:g>
<svg:g>
</svg:g>
<svg:g>
</svg:g>
<svg:g>
</svg:g>
<svg:g>
</svg:g>
<svg:g>
</svg:g>
<svg:g>
</svg:g>
<svg:g>
</svg:g>
</svg:g> 
</svg:g></svg:g></svg>
