<?xml version='1.0' encoding='ASCII' standalone='yes'?>
<svg xmlns:svg="http://www.w3.org/2000/svg" xmlns="http://www.w3.org/2000/svg" xmlns:xlink="http://www.w3.org/1999/xlink" version="1.1" width="297.0022mm" height="210.0072mm" viewBox="0.0000 0.0000 297.0022 210.0072">
<title>SVG Image created as PINHOLDER01-B_Fab.svg date 2023/07/05 14:49:38 </title>
  <desc>Image generated by PCBNEW </desc>
<g style="fill:#000084; fill-opacity:1.0000;stroke:#000084; stroke-opacity:1.0000; stroke-linecap:round; stroke-linejoin:round;" transform="translate(0 0) scale(1 1)">
</g>
<g style="fill:#000084; fill-opacity:0.0;  stroke:#000084; stroke-width:0.0000; stroke-opacity:1;  stroke-linecap:round; stroke-linejoin:round;">
</g>
<g style="fill:#000084; fill-opacity:0.01;  stroke:#000084; stroke-width:0.6239; stroke-opacity:1;  stroke-linecap:round; stroke-linejoin:round;">
<text x="150.9376" y="70.5201" transform="scale(-1 1) translate(-301.875150 0)" textLength="7.8577" font-size="5.5454" lengthAdjust="spacingAndGlyphs" text-anchor="middle" opacity="0.01" style="font-family:monospace">J1</text>
<g class="stroked-text"><desc>J1</desc>
<path d="M152.3239 66.1731 L152.3239 69.1439 "/>
<path d="M152.3239 69.1439 L152.5220 69.7380 "/>
<path d="M152.5220 69.7380 L152.9181 70.1341 "/>
<path d="M152.9181 70.1341 L153.5122 70.3322 "/>
<path d="M153.5122 70.3322 L153.9083 70.3322 "/>
<path d="M148.1649 70.3322 L150.5415 70.3322 "/>
<path d="M149.3532 70.3322 L149.3532 66.1731 "/>
<path d="M149.3532 66.1731 L149.7493 66.7673 "/>
<path d="M149.7493 66.7673 L150.1454 67.1634 "/>
<path d="M150.1454 67.1634 L150.5415 67.3614 "/>
</g></g>
<g style="fill:#000084; fill-opacity:0.0;  stroke:#000084; stroke-width:0.4159; stroke-opacity:1;  stroke-linecap:round; stroke-linejoin:round;">
<path d="M162.8325 73.7226 L166.7836 69.7715 "/>
<path d="M166.7836 69.7715 L166.7836 63.1585 "/>
<path d="M139.0426 79.0046 L139.0426 73.7226 "/>
<path d="M162.8325 73.7226 L162.8325 79.0046 "/>
<path d="M135.0915 63.1585 L135.0915 73.7226 "/>
<path d="M141.7044 73.7226 L141.7044 79.0046 "/>
<path d="M166.7836 63.1585 L135.0915 63.1585 "/>
<path d="M141.7044 79.0046 L139.0426 79.0046 "/>
<path d="M152.2685 57.8765 L149.6067 57.8765 "/>
<path d="M135.0915 73.7226 L162.8325 73.7226 "/>
<path d="M162.8325 79.0046 L160.1707 79.0046 "/>
<path d="M152.2685 63.1585 L152.2685 57.8765 "/>
<path d="M160.1707 79.0046 L160.1707 73.7226 "/>
<path d="M149.6067 57.8765 L149.6067 63.1585 "/>
<g>
</g>
<g>
</g>
<g>
</g>
<g>
</g>
<g>
</g>
<g>
</g>
<g>
</g>
<g>
</g>
</g> 
<svg:g><svg:g><svg:title>SVG Image created as PINHOLDER01-Edge_Cuts.svg date 2023/07/05 14:49:38 </svg:title>
  <svg:desc>Image generated by PCBNEW </svg:desc>
<svg:g style="fill:#C2C200; fill-opacity:1.0000;stroke:#C2C200; stroke-opacity:1.0000; stroke-linecap:round; stroke-linejoin:round;" transform="translate(0 0) scale(1 1)">
</svg:g>
<svg:g style="fill:#C2C200; fill-opacity:0.0;  stroke:#C2C200; stroke-width:0.0000; stroke-opacity:1;  stroke-linecap:round; stroke-linejoin:round;">
</svg:g>
<svg:g style="fill:#C2C200; fill-opacity:0.0;  stroke:#C2C200; stroke-width:0.8318; stroke-opacity:1;  stroke-linecap:round; stroke-linejoin:round;">
<svg:path d="M198.6803 209.5877 L198.6803 0.4195 "/>
<svg:path d="M98.3219 209.5877 L98.3219 0.4195 "/>
<svg:path d="M98.3219 209.5877 L198.6803 209.5877 "/>
<svg:path d="M98.3219 0.4195 L198.6803 0.4195 "/>
<svg:g>
</svg:g>
<svg:g>
</svg:g>
<svg:g>
</svg:g>
<svg:g>
</svg:g>
<svg:g>
</svg:g>
<svg:g>
</svg:g>
<svg:g>
</svg:g>
<svg:g>
</svg:g>
</svg:g> 
</svg:g></svg:g></svg>
