<?xml version='1.0' encoding='ASCII' standalone='yes'?>
<svg xmlns:svg="http://www.w3.org/2000/svg" xmlns="http://www.w3.org/2000/svg" xmlns:xlink="http://www.w3.org/1999/xlink" version="1.1" width="29.700220cm" height="21.000720cm" viewBox="0 0 2970022 2100072">
<title>SVG Picture created as PINHOLDER01-F_Fab.svg date 2023/07/05 12:22:01 </title>
  <desc>Picture generated by PCBNEW </desc>
<g style="fill:#848484; fill-opacity:1.000000;stroke:#848484; stroke-opacity:1.000000; stroke-linecap:round; stroke-linejoin:round;" transform="translate(0 0) scale(1 1)">
</g>
<g style="fill:#848484; fill-opacity:0.0;  stroke:#848484; stroke-width:0.000000; stroke-opacity:1;  stroke-linecap:round; stroke-linejoin:round;">
</g>
<g style="fill:#848484; fill-opacity:0.01;  stroke:#848484; stroke-width:5614.750852; stroke-opacity:1;  stroke-linecap:round; stroke-linejoin:round;">
<text x="1460646.251367" y="465222.451081" textLength="109710.443239" font-size="49908.896459" lengthAdjust="spacingAndGlyphs" text-anchor="middle" opacity="0.01" style="font-family:monospace">TP2</text>
<g class="stroked-text"><desc>TP2</desc>
<path d="M1507881 426008 L1486491 426008 "/>
<path d="M1497186 463439 L1497186 426008 "/>
<path d="M1474014 463439 L1474014 426008 L1459755 426008 L1456190 427790 L1454407 429573 L1452625 433138 L1452625 438485 L1454407 442050 L1456190 443832 L1459755 445615 L1474014 445615 "/>
<path d="M1438365 429573 L1436583 427790 L1433018 426008 L1424105 426008 L1420540 427790 L1418758 429573 L1416975 433138 L1416975 436703 L1418758 442050 L1440147 463439 L1416975 463439 "/>
</g></g>
<g style="fill:#848484; fill-opacity:0.0;  stroke:#848484; stroke-width:6238.612057; stroke-opacity:1;  stroke-linecap:round; stroke-linejoin:round;">
<path d="M1408657 425711 L1408657 404915 "/>
<path d="M1408657 404915 L1512634 404915 "/>
<path d="M1512634 467301 L1512634 488097 "/>
<path d="M1512634 488097 L1408657 488097 "/>
<path d="M1408657 467301 L1387862 467301 "/>
<path d="M1539668 425711 L1381623 425711 "/>
<path d="M1512634 404915 L1512634 425711 "/>
<path d="M1533430 467301 L1512634 467301 "/>
<path d="M1387862 425711 L1408657 425711 "/>
<path d="M1408657 488097 L1408657 467301 "/>
<path d="M1381623 467301 L1539668 467301 "/>
<path d="M1460646 488097 L1460646 467301 "/>
<path d="M1381623 467301 L1381623 425711 "/>
<path d="M1539668 425711 L1539668 467301 "/>
<path d="M1512634 425711 L1533430 425711 "/>
<path d="M1460646 425711 L1460646 404915 "/>
<g>
</g>
<g>
</g>
<g>
</g>
<g>
</g>
<g>
</g>
<g>
</g>
<g>
</g>
<g>
</g>
</g> 
<svg:g><svg:g><svg:title>SVG Picture created as PINHOLDER01-Edge_Cuts.svg date 2023/07/05 12:22:01 </svg:title>
  <svg:desc>Picture generated by PCBNEW </svg:desc>
<svg:g style="fill:#C2C200; fill-opacity:1.000000;stroke:#C2C200; stroke-opacity:1.000000; stroke-linecap:round; stroke-linejoin:round;" transform="translate(0 0) scale(1 1)">
</svg:g>
<svg:g style="fill:#C2C200; fill-opacity:0.0;  stroke:#C2C200; stroke-width:0.000000; stroke-opacity:1;  stroke-linecap:round; stroke-linejoin:round;">
</svg:g>
<svg:g style="fill:#C2C200; fill-opacity:0.0;  stroke:#C2C200; stroke-width:8318.149410; stroke-opacity:1;  stroke-linecap:round; stroke-linejoin:round;">
<svg:path d="M983218 2095876 L983218 4195 "/>
<svg:path d="M1986803 2095876 L1986803 4195 "/>
<svg:path d="M1986803 2095876 L983218 2095876 "/>
<svg:path d="M1986803 4195 L983218 4195 "/>
<svg:g>
</svg:g>
<svg:g>
</svg:g>
<svg:g>
</svg:g>
<svg:g>
</svg:g>
<svg:g>
</svg:g>
<svg:g>
</svg:g>
<svg:g>
</svg:g>
<svg:g>
</svg:g>
</svg:g> 
</svg:g></svg:g></svg>
