<?xml version='1.0' encoding='ASCII' standalone='yes'?>
<svg xmlns:svg="http://www.w3.org/2000/svg" xmlns="http://www.w3.org/2000/svg" xmlns:xlink="http://www.w3.org/1999/xlink" version="1.1" width="29.700220cm" height="21.000720cm" viewBox="0 0 2970022 2100072">
<title>SVG Picture created as PINHOLDER01-B_Fab.svg date 2023/05/25 08:25:45 </title>
  <desc>Picture generated by PCBNEW </desc>
<g style="fill:#000084; fill-opacity:1.000000;stroke:#000084; stroke-opacity:1.000000; stroke-linecap:round; stroke-linejoin:round;" transform="translate(0 0) scale(1 1)">
</g>
<g style="fill:#000084; fill-opacity:0.0;  stroke:#000084; stroke-width:0.000000; stroke-opacity:1;  stroke-linecap:round; stroke-linejoin:round;">
</g>
<g style="fill:#000084; fill-opacity:0.01;  stroke:#000084; stroke-width:6238.612057; stroke-opacity:1;  stroke-linecap:round; stroke-linejoin:round;">
<text x="1509375.748633" y="705201.061554" transform="scale(-1 1) translate(-3018751.497267 0)" textLength="63188.239721" font-size="55454.315535" lengthAdjust="spacingAndGlyphs" text-anchor="middle" opacity="0.01" style="font-family:monospace">J1</text>
<g class="stroked-text"><desc>J1</desc>
<path d="M1523239 661629 L1523239 691337 L1525219 697278 L1529180 701240 L1535122 703220 L1539083 703220 "/>
<path d="M1481648 703220 L1505414 703220 "/>
<path d="M1493531 703220 L1493531 661629 L1497492 667571 L1501453 671532 L1505414 673512 "/>
</g></g>
<g style="fill:#000084; fill-opacity:0.0;  stroke:#000084; stroke-width:4159.074705; stroke-opacity:1;  stroke-linecap:round; stroke-linejoin:round;">
<path d="M1628325 737225 L1667836 697714 "/>
<path d="M1667836 697714 L1667836 631585 "/>
<path d="M1390426 790046 L1390426 737225 "/>
<path d="M1628325 737225 L1628325 790046 "/>
<path d="M1350915 631585 L1350915 737225 "/>
<path d="M1417044 737225 L1417044 790046 "/>
<path d="M1667836 631585 L1350915 631585 "/>
<path d="M1417044 790046 L1390426 790046 "/>
<path d="M1522684 578765 L1496066 578765 "/>
<path d="M1350915 737225 L1628325 737225 "/>
<path d="M1628325 790046 L1601707 790046 "/>
<path d="M1522684 631585 L1522684 578765 "/>
<path d="M1601707 790046 L1601707 737225 "/>
<path d="M1496066 578765 L1496066 631585 "/>
<g>
</g>
<g>
</g>
<g>
</g>
<g>
</g>
<g>
</g>
<g>
</g>
<g>
</g>
<g>
</g>
</g> 
<svg:g><svg:g><svg:title>SVG Picture created as PINHOLDER01-Edge_Cuts.svg date 2023/05/25 08:25:45 </svg:title>
  <svg:desc>Picture generated by PCBNEW </svg:desc>
<svg:g style="fill:#C2C200; fill-opacity:1.000000;stroke:#C2C200; stroke-opacity:1.000000; stroke-linecap:round; stroke-linejoin:round;" transform="translate(0 0) scale(1 1)">
</svg:g>
<svg:g style="fill:#C2C200; fill-opacity:0.0;  stroke:#C2C200; stroke-width:0.000000; stroke-opacity:1;  stroke-linecap:round; stroke-linejoin:round;">
</svg:g>
<svg:g style="fill:#C2C200; fill-opacity:0.0;  stroke:#C2C200; stroke-width:8318.149410; stroke-opacity:1;  stroke-linecap:round; stroke-linejoin:round;">
<svg:path d="M1986803 2095876 L1986803 4195 "/>
<svg:path d="M983218 2095876 L983218 4195 "/>
<svg:path d="M983218 2095876 L1986803 2095876 "/>
<svg:path d="M983218 4195 L1986803 4195 "/>
<svg:g>
</svg:g>
<svg:g>
</svg:g>
<svg:g>
</svg:g>
<svg:g>
</svg:g>
<svg:g>
</svg:g>
<svg:g>
</svg:g>
<svg:g>
</svg:g>
<svg:g>
</svg:g>
</svg:g> 
</svg:g></svg:g></svg>
