%TF.GenerationSoftware,KiCad,Pcbnew,6.0.11+dfsg-1~bpo11+1*%
%TF.CreationDate,2023-07-05T00:34:24+00:00*%
%TF.ProjectId,PINHOLDER01,50494e48-4f4c-4444-9552-30312e6b6963,01A*%
%TF.SameCoordinates,Original*%
%TF.FileFunction,Copper,L2,Bot*%
%TF.FilePolarity,Positive*%
%FSLAX46Y46*%
G04 Gerber Fmt 4.6, Leading zero omitted, Abs format (unit mm)*
G04 Created by KiCad (PCBNEW 6.0.11+dfsg-1~bpo11+1) date 2023-07-05 00:34:24*
%MOMM*%
%LPD*%
G01*
G04 APERTURE LIST*
%ADD10C,0.300000*%
%TA.AperFunction,NonConductor*%
%ADD11C,0.300000*%
%TD*%
%TA.AperFunction,ComponentPad*%
%ADD12C,6.000000*%
%TD*%
%TA.AperFunction,SMDPad,CuDef*%
%ADD13R,1.000000X2.510000*%
%TD*%
%TA.AperFunction,ViaPad*%
%ADD14C,0.800000*%
%TD*%
%TA.AperFunction,Conductor*%
%ADD15C,0.400000*%
%TD*%
G04 APERTURE END LIST*
D10*
D11*
X15024821Y-43687425D02*
X15024821Y-42187425D01*
X14524821Y-43258854D01*
X14024821Y-42187425D01*
X14024821Y-43687425D01*
X12596249Y-43687425D02*
X13310535Y-43687425D01*
X13310535Y-42187425D01*
X12167678Y-43258854D02*
X11453392Y-43258854D01*
X12310535Y-43687425D02*
X11810535Y-42187425D01*
X11310535Y-43687425D01*
X10310535Y-42901711D02*
X10096249Y-42973139D01*
X10024821Y-43044568D01*
X9953392Y-43187425D01*
X9953392Y-43401711D01*
X10024821Y-43544568D01*
X10096249Y-43615996D01*
X10239106Y-43687425D01*
X10810535Y-43687425D01*
X10810535Y-42187425D01*
X10310535Y-42187425D01*
X10167678Y-42258854D01*
X10096249Y-42330282D01*
X10024821Y-42473139D01*
X10024821Y-42615996D01*
X10096249Y-42758854D01*
X10167678Y-42830282D01*
X10310535Y-42901711D01*
X10810535Y-42901711D01*
D12*
%TO.P,M3,1*%
%TO.N,GND*%
X0Y0D03*
%TD*%
%TO.P,M4,1*%
%TO.N,GND*%
X0Y-40640000D03*
%TD*%
D13*
%TO.P,J1,1*%
%TO.N,/circle_0*%
X10364821Y-13183854D03*
%TO.P,J1,2*%
%TO.N,GND*%
X7824821Y-9873854D03*
%TO.P,J1,3*%
%TO.N,Net-(J1-Pad3)*%
X5284821Y-13183854D03*
%TD*%
D14*
%TO.N,/circle_0*%
X9624821Y-18308854D03*
%TO.N,Net-(J1-Pad3)*%
X5924821Y-6508854D03*
%TD*%
D15*
%TO.N,/circle_0*%
X10364821Y-17568854D02*
X9624821Y-18308854D01*
X10364821Y-13183854D02*
X10364821Y-17568854D01*
%TO.N,Net-(J1-Pad3)*%
X5924821Y-6508854D02*
X5284821Y-7148854D01*
X5284821Y-7148854D02*
X5284821Y-13183854D01*
%TD*%
%TA.AperFunction,Conductor*%
%TO.N,GND*%
G36*
X18790843Y4405793D02*
G01*
X18860084Y4350574D01*
X18898511Y4270782D01*
X18903500Y4226500D01*
X18903500Y-44866500D01*
X18883793Y-44952843D01*
X18828574Y-45022084D01*
X18748782Y-45060511D01*
X18704500Y-45065500D01*
X16128687Y-45065500D01*
X16042344Y-45045793D01*
X15973103Y-44990574D01*
X15934676Y-44910782D01*
X15930938Y-44844219D01*
X15931204Y-44841854D01*
X15932464Y-44841854D01*
X15932464Y-41175854D01*
X9117178Y-41175854D01*
X9117178Y-44841854D01*
X9117814Y-44841854D01*
X9117813Y-44910784D01*
X9079386Y-44990576D01*
X9010144Y-45045794D01*
X8923803Y-45065500D01*
X-4226500Y-45065500D01*
X-4312843Y-45045793D01*
X-4382084Y-44990574D01*
X-4420511Y-44910782D01*
X-4425500Y-44866500D01*
X-4425500Y-18297607D01*
X8819335Y-18297607D01*
X8820421Y-18308683D01*
X8820421Y-18308684D01*
X8823446Y-18339529D01*
X8836860Y-18476340D01*
X8893547Y-18646750D01*
X8986580Y-18800366D01*
X9111335Y-18929553D01*
X9261610Y-19027890D01*
X9272035Y-19031767D01*
X9419506Y-19086611D01*
X9419508Y-19086611D01*
X9429937Y-19090490D01*
X9440964Y-19091961D01*
X9440967Y-19091962D01*
X9559307Y-19107752D01*
X9607951Y-19114242D01*
X9619028Y-19113234D01*
X9775717Y-19098975D01*
X9775719Y-19098975D01*
X9786802Y-19097966D01*
X9872202Y-19070218D01*
X9947017Y-19045909D01*
X9947020Y-19045908D01*
X9957603Y-19042469D01*
X9982060Y-19027890D01*
X10102310Y-18956207D01*
X10102311Y-18956206D01*
X10111865Y-18950511D01*
X10241920Y-18826661D01*
X10259391Y-18800366D01*
X10335146Y-18686344D01*
X10341304Y-18677076D01*
X10405078Y-18509190D01*
X10417291Y-18422288D01*
X10448822Y-18339529D01*
X10473640Y-18309270D01*
X10752382Y-18030528D01*
X10771946Y-18013371D01*
X10793103Y-17997136D01*
X10889357Y-17871695D01*
X10949865Y-17725616D01*
X10965321Y-17608215D01*
X10970503Y-17568854D01*
X10968801Y-17555926D01*
X10968801Y-17555919D01*
X10967024Y-17542421D01*
X10965321Y-17516446D01*
X10965321Y-14959085D01*
X10985028Y-14872742D01*
X11040247Y-14803501D01*
X11073977Y-14781775D01*
X11089209Y-14774014D01*
X11103163Y-14766904D01*
X11192871Y-14677196D01*
X11250467Y-14564158D01*
X11265321Y-14470373D01*
X11265320Y-11897336D01*
X11264096Y-11889607D01*
X11252918Y-11819023D01*
X11252917Y-11819020D01*
X11250467Y-11803550D01*
X11192871Y-11690512D01*
X11103163Y-11600804D01*
X10990125Y-11543208D01*
X10896340Y-11528354D01*
X10888516Y-11528354D01*
X10364448Y-11528355D01*
X9833303Y-11528355D01*
X9825590Y-11529577D01*
X9825584Y-11529577D01*
X9754990Y-11540757D01*
X9754987Y-11540758D01*
X9739517Y-11543208D01*
X9725561Y-11550319D01*
X9725558Y-11550320D01*
X9698304Y-11564207D01*
X9626479Y-11600804D01*
X9536771Y-11690512D01*
X9479175Y-11803550D01*
X9464321Y-11897335D01*
X9464322Y-14470372D01*
X9465544Y-14478085D01*
X9465544Y-14478091D01*
X9476724Y-14548685D01*
X9476725Y-14548688D01*
X9479175Y-14564158D01*
X9536771Y-14677196D01*
X9626479Y-14766904D01*
X9640433Y-14774014D01*
X9655665Y-14781775D01*
X9723650Y-14838533D01*
X9760276Y-14919168D01*
X9764321Y-14959085D01*
X9764321Y-17237691D01*
X9744614Y-17324034D01*
X9706035Y-17378405D01*
X9625169Y-17459271D01*
X9550181Y-17506390D01*
X9505256Y-17516467D01*
X9451838Y-17522081D01*
X9281828Y-17579957D01*
X9187472Y-17638005D01*
X9138342Y-17668230D01*
X9138340Y-17668231D01*
X9128866Y-17674060D01*
X9000553Y-17799713D01*
X8903267Y-17950671D01*
X8841843Y-18119432D01*
X8819335Y-18297607D01*
X-4425500Y-18297607D01*
X-4425500Y-11897335D01*
X4384321Y-11897335D01*
X4384322Y-14470372D01*
X4385544Y-14478085D01*
X4385544Y-14478091D01*
X4396724Y-14548685D01*
X4396725Y-14548688D01*
X4399175Y-14564158D01*
X4456771Y-14677196D01*
X4546479Y-14766904D01*
X4659517Y-14824500D01*
X4753302Y-14839354D01*
X4761126Y-14839354D01*
X5285194Y-14839353D01*
X5816339Y-14839353D01*
X5824052Y-14838131D01*
X5824058Y-14838131D01*
X5894652Y-14826951D01*
X5894655Y-14826950D01*
X5910125Y-14824500D01*
X5924081Y-14817389D01*
X5924084Y-14817388D01*
X6009209Y-14774014D01*
X6023163Y-14766904D01*
X6112871Y-14677196D01*
X6170467Y-14564158D01*
X6185321Y-14470373D01*
X6185320Y-11897336D01*
X6184096Y-11889607D01*
X6172918Y-11819023D01*
X6172917Y-11819020D01*
X6170467Y-11803550D01*
X6112871Y-11690512D01*
X6023163Y-11600804D01*
X5993977Y-11585933D01*
X5925992Y-11529175D01*
X5889366Y-11448540D01*
X5885321Y-11408623D01*
X5885321Y-11164030D01*
X6794821Y-11164030D01*
X6795541Y-11175984D01*
X6803746Y-11243778D01*
X6809986Y-11268348D01*
X6853743Y-11378869D01*
X6866936Y-11402283D01*
X6938331Y-11496341D01*
X6957334Y-11515344D01*
X7051392Y-11586739D01*
X7074806Y-11599932D01*
X7185327Y-11643689D01*
X7209897Y-11649929D01*
X7277691Y-11658134D01*
X7289645Y-11658854D01*
X7548398Y-11658854D01*
X7567368Y-11654524D01*
X7570821Y-11647354D01*
X7570821Y-11636431D01*
X8078821Y-11636431D01*
X8083151Y-11655401D01*
X8090321Y-11658854D01*
X8359997Y-11658854D01*
X8371951Y-11658134D01*
X8439745Y-11649929D01*
X8464315Y-11643689D01*
X8574836Y-11599932D01*
X8598250Y-11586739D01*
X8692308Y-11515344D01*
X8711311Y-11496341D01*
X8782706Y-11402283D01*
X8795899Y-11378869D01*
X8839656Y-11268348D01*
X8845896Y-11243778D01*
X8854101Y-11175984D01*
X8854821Y-11164030D01*
X8854821Y-10150277D01*
X8850491Y-10131307D01*
X8843321Y-10127854D01*
X8101244Y-10127854D01*
X8082274Y-10132184D01*
X8078821Y-10139354D01*
X8078821Y-11636431D01*
X7570821Y-11636431D01*
X7570821Y-10150277D01*
X7566491Y-10131307D01*
X7559321Y-10127854D01*
X6817244Y-10127854D01*
X6798274Y-10132184D01*
X6794821Y-10139354D01*
X6794821Y-11164030D01*
X5885321Y-11164030D01*
X5885321Y-9597431D01*
X6794821Y-9597431D01*
X6799151Y-9616401D01*
X6806321Y-9619854D01*
X7548398Y-9619854D01*
X7567368Y-9615524D01*
X7570821Y-9608354D01*
X7570821Y-9597431D01*
X8078821Y-9597431D01*
X8083151Y-9616401D01*
X8090321Y-9619854D01*
X8832398Y-9619854D01*
X8851368Y-9615524D01*
X8854821Y-9608354D01*
X8854821Y-8583678D01*
X8854101Y-8571724D01*
X8845896Y-8503930D01*
X8839656Y-8479360D01*
X8795899Y-8368839D01*
X8782706Y-8345425D01*
X8711311Y-8251367D01*
X8692308Y-8232364D01*
X8598250Y-8160969D01*
X8574836Y-8147776D01*
X8464315Y-8104019D01*
X8439745Y-8097779D01*
X8371951Y-8089574D01*
X8359997Y-8088854D01*
X8101244Y-8088854D01*
X8082274Y-8093184D01*
X8078821Y-8100354D01*
X8078821Y-9597431D01*
X7570821Y-9597431D01*
X7570821Y-8111277D01*
X7566491Y-8092307D01*
X7559321Y-8088854D01*
X7289645Y-8088854D01*
X7277691Y-8089574D01*
X7209897Y-8097779D01*
X7185327Y-8104019D01*
X7074806Y-8147776D01*
X7051392Y-8160969D01*
X6957334Y-8232364D01*
X6938331Y-8251367D01*
X6866936Y-8345425D01*
X6853743Y-8368839D01*
X6809986Y-8479360D01*
X6803746Y-8503930D01*
X6795541Y-8571724D01*
X6794821Y-8583678D01*
X6794821Y-9597431D01*
X5885321Y-9597431D01*
X5885321Y-7498014D01*
X5905028Y-7411671D01*
X5960247Y-7342430D01*
X6040039Y-7304003D01*
X6066284Y-7299833D01*
X6086802Y-7297966D01*
X6106965Y-7291415D01*
X6247017Y-7245909D01*
X6247020Y-7245908D01*
X6257603Y-7242469D01*
X6411865Y-7150511D01*
X6541920Y-7026661D01*
X6556297Y-7005023D01*
X6635146Y-6886344D01*
X6641304Y-6877076D01*
X6648527Y-6858063D01*
X6701126Y-6719593D01*
X6705078Y-6709190D01*
X6730072Y-6531347D01*
X6730386Y-6508854D01*
X6710367Y-6330382D01*
X6702915Y-6308981D01*
X6654966Y-6171291D01*
X6651306Y-6160781D01*
X6556137Y-6008479D01*
X6429591Y-5881047D01*
X6277957Y-5784817D01*
X6188930Y-5753116D01*
X6119257Y-5728306D01*
X6119253Y-5728305D01*
X6108772Y-5724573D01*
X6097725Y-5723256D01*
X6097722Y-5723255D01*
X5941492Y-5704626D01*
X5941490Y-5704626D01*
X5930445Y-5703309D01*
X5751838Y-5722081D01*
X5741303Y-5725667D01*
X5741300Y-5725668D01*
X5662856Y-5752373D01*
X5581828Y-5779957D01*
X5487472Y-5838005D01*
X5438342Y-5868230D01*
X5438340Y-5868231D01*
X5428866Y-5874060D01*
X5300553Y-5999713D01*
X5203267Y-6150671D01*
X5141843Y-6319432D01*
X5140449Y-6330463D01*
X5140449Y-6330465D01*
X5132573Y-6392812D01*
X5102199Y-6476004D01*
X5075856Y-6508584D01*
X4897260Y-6687180D01*
X4877696Y-6704337D01*
X4856539Y-6720572D01*
X4848602Y-6730916D01*
X4848599Y-6730919D01*
X4832374Y-6752065D01*
X4832371Y-6752069D01*
X4760285Y-6846013D01*
X4699777Y-6992092D01*
X4679139Y-7148854D01*
X4680841Y-7161782D01*
X4680841Y-7161789D01*
X4682618Y-7175287D01*
X4684321Y-7201262D01*
X4684321Y-11408623D01*
X4664614Y-11494966D01*
X4609395Y-11564207D01*
X4575666Y-11585933D01*
X4546479Y-11600804D01*
X4456771Y-11690512D01*
X4399175Y-11803550D01*
X4384321Y-11897335D01*
X-4425500Y-11897335D01*
X-4425500Y4226500D01*
X-4405793Y4312843D01*
X-4350574Y4382084D01*
X-4270782Y4420511D01*
X-4226500Y4425500D01*
X18704500Y4425500D01*
X18790843Y4405793D01*
G37*
%TD.AperFunction*%
%TD*%
M02*
