%TF.GenerationSoftware,KiCad,Pcbnew,7.0.5.1-1-g8f565ef7f0-dirty-deb11*%
%TF.CreationDate,2023-07-05T14:49:23+00:00*%
%TF.ProjectId,PINHOLDER01,50494e48-4f4c-4444-9552-30312e6b6963,01A*%
%TF.SameCoordinates,Original*%
%TF.FileFunction,Legend,Bot*%
%TF.FilePolarity,Positive*%
%FSLAX46Y46*%
G04 Gerber Fmt 4.6, Leading zero omitted, Abs format (unit mm)*
G04 Created by KiCad (PCBNEW 7.0.5.1-1-g8f565ef7f0-dirty-deb11) date 2023-07-05 14:49:23*
%MOMM*%
%LPD*%
G01*
G04 APERTURE LIST*
%ADD10C,0.300000*%
%ADD11C,0.150000*%
%ADD12C,0.120000*%
G04 APERTURE END LIST*
D10*
X18675674Y3167337D02*
X16975674Y3167337D01*
X16975674Y3167337D02*
X16975674Y2519718D01*
X16975674Y2519718D02*
X17056626Y2357813D01*
X17056626Y2357813D02*
X17137579Y2276860D01*
X17137579Y2276860D02*
X17299483Y2195908D01*
X17299483Y2195908D02*
X17542341Y2195908D01*
X17542341Y2195908D02*
X17704245Y2276860D01*
X17704245Y2276860D02*
X17785198Y2357813D01*
X17785198Y2357813D02*
X17866150Y2519718D01*
X17866150Y2519718D02*
X17866150Y3167337D01*
X18675674Y1467337D02*
X16975674Y1467337D01*
X18675674Y657813D02*
X16975674Y657813D01*
X16975674Y657813D02*
X18675674Y-313616D01*
X18675674Y-313616D02*
X16975674Y-313616D01*
X18675674Y-1123139D02*
X16975674Y-1123139D01*
X17785198Y-1123139D02*
X17785198Y-2094568D01*
X18675674Y-2094568D02*
X16975674Y-2094568D01*
X16975674Y-3227901D02*
X16975674Y-3551710D01*
X16975674Y-3551710D02*
X17056626Y-3713615D01*
X17056626Y-3713615D02*
X17218531Y-3875520D01*
X17218531Y-3875520D02*
X17542341Y-3956472D01*
X17542341Y-3956472D02*
X18109007Y-3956472D01*
X18109007Y-3956472D02*
X18432817Y-3875520D01*
X18432817Y-3875520D02*
X18594722Y-3713615D01*
X18594722Y-3713615D02*
X18675674Y-3551710D01*
X18675674Y-3551710D02*
X18675674Y-3227901D01*
X18675674Y-3227901D02*
X18594722Y-3065996D01*
X18594722Y-3065996D02*
X18432817Y-2904091D01*
X18432817Y-2904091D02*
X18109007Y-2823139D01*
X18109007Y-2823139D02*
X17542341Y-2823139D01*
X17542341Y-2823139D02*
X17218531Y-2904091D01*
X17218531Y-2904091D02*
X17056626Y-3065996D01*
X17056626Y-3065996D02*
X16975674Y-3227901D01*
X18675674Y-5494567D02*
X18675674Y-4685043D01*
X18675674Y-4685043D02*
X16975674Y-4685043D01*
X18675674Y-6061233D02*
X16975674Y-6061233D01*
X16975674Y-6061233D02*
X16975674Y-6465995D01*
X16975674Y-6465995D02*
X17056626Y-6708852D01*
X17056626Y-6708852D02*
X17218531Y-6870757D01*
X17218531Y-6870757D02*
X17380436Y-6951710D01*
X17380436Y-6951710D02*
X17704245Y-7032662D01*
X17704245Y-7032662D02*
X17947102Y-7032662D01*
X17947102Y-7032662D02*
X18270912Y-6951710D01*
X18270912Y-6951710D02*
X18432817Y-6870757D01*
X18432817Y-6870757D02*
X18594722Y-6708852D01*
X18594722Y-6708852D02*
X18675674Y-6465995D01*
X18675674Y-6465995D02*
X18675674Y-6061233D01*
X17785198Y-7761233D02*
X17785198Y-8327900D01*
X18675674Y-8570757D02*
X18675674Y-7761233D01*
X18675674Y-7761233D02*
X16975674Y-7761233D01*
X16975674Y-7761233D02*
X16975674Y-8570757D01*
X18675674Y-10270757D02*
X17866150Y-9704090D01*
X18675674Y-9299328D02*
X16975674Y-9299328D01*
X16975674Y-9299328D02*
X16975674Y-9946947D01*
X16975674Y-9946947D02*
X17056626Y-10108852D01*
X17056626Y-10108852D02*
X17137579Y-10189805D01*
X17137579Y-10189805D02*
X17299483Y-10270757D01*
X17299483Y-10270757D02*
X17542341Y-10270757D01*
X17542341Y-10270757D02*
X17704245Y-10189805D01*
X17704245Y-10189805D02*
X17785198Y-10108852D01*
X17785198Y-10108852D02*
X17866150Y-9946947D01*
X17866150Y-9946947D02*
X17866150Y-9299328D01*
X16975674Y-11323138D02*
X16975674Y-11485043D01*
X16975674Y-11485043D02*
X17056626Y-11646947D01*
X17056626Y-11646947D02*
X17137579Y-11727900D01*
X17137579Y-11727900D02*
X17299483Y-11808852D01*
X17299483Y-11808852D02*
X17623293Y-11889805D01*
X17623293Y-11889805D02*
X18028055Y-11889805D01*
X18028055Y-11889805D02*
X18351864Y-11808852D01*
X18351864Y-11808852D02*
X18513769Y-11727900D01*
X18513769Y-11727900D02*
X18594722Y-11646947D01*
X18594722Y-11646947D02*
X18675674Y-11485043D01*
X18675674Y-11485043D02*
X18675674Y-11323138D01*
X18675674Y-11323138D02*
X18594722Y-11161233D01*
X18594722Y-11161233D02*
X18513769Y-11080281D01*
X18513769Y-11080281D02*
X18351864Y-10999328D01*
X18351864Y-10999328D02*
X18028055Y-10918376D01*
X18028055Y-10918376D02*
X17623293Y-10918376D01*
X17623293Y-10918376D02*
X17299483Y-10999328D01*
X17299483Y-10999328D02*
X17137579Y-11080281D01*
X17137579Y-11080281D02*
X17056626Y-11161233D01*
X17056626Y-11161233D02*
X16975674Y-11323138D01*
X18675674Y-13508853D02*
X18675674Y-12537424D01*
X18675674Y-13023138D02*
X16975674Y-13023138D01*
X16975674Y-13023138D02*
X17218531Y-12861234D01*
X17218531Y-12861234D02*
X17380436Y-12699329D01*
X17380436Y-12699329D02*
X17461388Y-12537424D01*
X18189960Y-14156472D02*
X18189960Y-14965996D01*
X18675674Y-13994567D02*
X16975674Y-14561234D01*
X16975674Y-14561234D02*
X18675674Y-15127901D01*
D11*
X4901011Y-15439749D02*
X5377201Y-15439749D01*
X4805773Y-15154034D02*
X5139106Y-16154034D01*
X5139106Y-16154034D02*
X5472439Y-15154034D01*
X7091487Y-16106415D02*
X6996249Y-16154034D01*
X6996249Y-16154034D02*
X6853392Y-16154034D01*
X6853392Y-16154034D02*
X6710535Y-16106415D01*
X6710535Y-16106415D02*
X6615297Y-16011177D01*
X6615297Y-16011177D02*
X6567678Y-15915939D01*
X6567678Y-15915939D02*
X6520059Y-15725463D01*
X6520059Y-15725463D02*
X6520059Y-15582606D01*
X6520059Y-15582606D02*
X6567678Y-15392130D01*
X6567678Y-15392130D02*
X6615297Y-15296892D01*
X6615297Y-15296892D02*
X6710535Y-15201654D01*
X6710535Y-15201654D02*
X6853392Y-15154034D01*
X6853392Y-15154034D02*
X6948630Y-15154034D01*
X6948630Y-15154034D02*
X7091487Y-15201654D01*
X7091487Y-15201654D02*
X7139106Y-15249273D01*
X7139106Y-15249273D02*
X7139106Y-15582606D01*
X7139106Y-15582606D02*
X6948630Y-15582606D01*
X7567678Y-15154034D02*
X7567678Y-16154034D01*
X7567678Y-16154034D02*
X8139106Y-15154034D01*
X8139106Y-15154034D02*
X8139106Y-16154034D01*
X8615297Y-15154034D02*
X8615297Y-16154034D01*
X8615297Y-16154034D02*
X8853392Y-16154034D01*
X8853392Y-16154034D02*
X8996249Y-16106415D01*
X8996249Y-16106415D02*
X9091487Y-16011177D01*
X9091487Y-16011177D02*
X9139106Y-15915939D01*
X9139106Y-15915939D02*
X9186725Y-15725463D01*
X9186725Y-15725463D02*
X9186725Y-15582606D01*
X9186725Y-15582606D02*
X9139106Y-15392130D01*
X9139106Y-15392130D02*
X9091487Y-15296892D01*
X9091487Y-15296892D02*
X8996249Y-15201654D01*
X8996249Y-15201654D02*
X8853392Y-15154034D01*
X8853392Y-15154034D02*
X8615297Y-15154034D01*
X10377202Y-15154034D02*
X10377202Y-16154034D01*
X10948630Y-15154034D02*
X10520059Y-15725463D01*
X10948630Y-16154034D02*
X10377202Y-15582606D01*
%TO.C,J1*%
X12149640Y-11195520D02*
X12863925Y-11195520D01*
X12863925Y-11195520D02*
X13006782Y-11147901D01*
X13006782Y-11147901D02*
X13102021Y-11052663D01*
X13102021Y-11052663D02*
X13149640Y-10909806D01*
X13149640Y-10909806D02*
X13149640Y-10814568D01*
X13149640Y-12195520D02*
X13149640Y-11624092D01*
X13149640Y-11909806D02*
X12149640Y-11909806D01*
X12149640Y-11909806D02*
X12292497Y-11814568D01*
X12292497Y-11814568D02*
X12387735Y-11719330D01*
X12387735Y-11719330D02*
X12435354Y-11624092D01*
D12*
X3954821Y-12858854D02*
X3954821Y-10198854D01*
X9604821Y-12858854D02*
X6044821Y-12858854D01*
X11694821Y-12858854D02*
X11694821Y-10198854D01*
X11694821Y-12858854D02*
X11124821Y-12858854D01*
X7064821Y-10198854D02*
X3954821Y-10198854D01*
X4524821Y-10198854D02*
X3954821Y-10198854D01*
X11124821Y-12858854D02*
X11124821Y-14378854D01*
X11694821Y-10198854D02*
X8584821Y-10198854D01*
%TD*%
M02*
