%TF.GenerationSoftware,KiCad,Pcbnew,7.0.5.1-1-g8f565ef7f0-dirty-deb11*%
%TF.CreationDate,2023-07-05T14:49:23+00:00*%
%TF.ProjectId,PINHOLDER01,50494e48-4f4c-4444-9552-30312e6b6963,01A*%
%TF.SameCoordinates,Original*%
%TF.FileFunction,Copper,L2,Bot*%
%TF.FilePolarity,Positive*%
%FSLAX46Y46*%
G04 Gerber Fmt 4.6, Leading zero omitted, Abs format (unit mm)*
G04 Created by KiCad (PCBNEW 7.0.5.1-1-g8f565ef7f0-dirty-deb11) date 2023-07-05 14:49:23*
%MOMM*%
%LPD*%
G01*
G04 APERTURE LIST*
%ADD10C,0.300000*%
%TA.AperFunction,NonConductor*%
%ADD11C,0.300000*%
%TD*%
%TA.AperFunction,ComponentPad*%
%ADD12C,6.000000*%
%TD*%
%TA.AperFunction,SMDPad,CuDef*%
%ADD13R,1.000000X2.510000*%
%TD*%
%TA.AperFunction,ViaPad*%
%ADD14C,0.800000*%
%TD*%
%TA.AperFunction,Conductor*%
%ADD15C,0.400000*%
%TD*%
G04 APERTURE END LIST*
D10*
D11*
X15024821Y-43687182D02*
X15024821Y-42187182D01*
X15024821Y-42187182D02*
X14524821Y-43258611D01*
X14524821Y-43258611D02*
X14024821Y-42187182D01*
X14024821Y-42187182D02*
X14024821Y-43687182D01*
X12596249Y-43687182D02*
X13310535Y-43687182D01*
X13310535Y-43687182D02*
X13310535Y-42187182D01*
X12167677Y-43258611D02*
X11453392Y-43258611D01*
X12310534Y-43687182D02*
X11810534Y-42187182D01*
X11810534Y-42187182D02*
X11310534Y-43687182D01*
X10310535Y-42901468D02*
X10096249Y-42972896D01*
X10096249Y-42972896D02*
X10024820Y-43044325D01*
X10024820Y-43044325D02*
X9953392Y-43187182D01*
X9953392Y-43187182D02*
X9953392Y-43401468D01*
X9953392Y-43401468D02*
X10024820Y-43544325D01*
X10024820Y-43544325D02*
X10096249Y-43615754D01*
X10096249Y-43615754D02*
X10239106Y-43687182D01*
X10239106Y-43687182D02*
X10810535Y-43687182D01*
X10810535Y-43687182D02*
X10810535Y-42187182D01*
X10810535Y-42187182D02*
X10310535Y-42187182D01*
X10310535Y-42187182D02*
X10167678Y-42258611D01*
X10167678Y-42258611D02*
X10096249Y-42330039D01*
X10096249Y-42330039D02*
X10024820Y-42472896D01*
X10024820Y-42472896D02*
X10024820Y-42615754D01*
X10024820Y-42615754D02*
X10096249Y-42758611D01*
X10096249Y-42758611D02*
X10167678Y-42830039D01*
X10167678Y-42830039D02*
X10310535Y-42901468D01*
X10310535Y-42901468D02*
X10810535Y-42901468D01*
D12*
%TO.P,M3,1*%
%TO.N,GND*%
X0Y0D03*
%TD*%
%TO.P,M4,1*%
%TO.N,GND*%
X0Y-40640000D03*
%TD*%
D13*
%TO.P,J1,1*%
%TO.N,/circle_0*%
X10364821Y-13183854D03*
%TO.P,J1,2*%
%TO.N,GND*%
X7824821Y-9873854D03*
%TO.P,J1,3*%
%TO.N,Net-(J1-Pad3)*%
X5284821Y-13183854D03*
%TD*%
D14*
%TO.N,/circle_0*%
X9624821Y-18308854D03*
%TO.N,Net-(J1-Pad3)*%
X5924821Y-6508854D03*
%TD*%
D15*
%TO.N,/circle_0*%
X10364821Y-17568854D02*
X9624821Y-18308854D01*
X10364821Y-13183854D02*
X10364821Y-17568854D01*
%TO.N,Net-(J1-Pad3)*%
X5924821Y-6508854D02*
X5284821Y-7148854D01*
X5284821Y-7148854D02*
X5284821Y-13183854D01*
%TD*%
%TA.AperFunction,Conductor*%
%TO.N,GND*%
G36*
X19190843Y4805793D02*
G01*
X19260084Y4750574D01*
X19298511Y4670782D01*
X19303500Y4626500D01*
X19303500Y-45209854D01*
X19283793Y-45296197D01*
X19228574Y-45365438D01*
X19148782Y-45403865D01*
X19104500Y-45408854D01*
X-4626500Y-45408854D01*
X-4712843Y-45389147D01*
X-4782084Y-45333928D01*
X-4820511Y-45254136D01*
X-4825500Y-45209854D01*
X-4825500Y-41269068D01*
X8827892Y-41269068D01*
X8827892Y-44748640D01*
X16221750Y-44748640D01*
X16221750Y-41269068D01*
X8827892Y-41269068D01*
X-4825500Y-41269068D01*
X-4825500Y-18308854D01*
X8819256Y-18308854D01*
X8839453Y-18488109D01*
X8839453Y-18488111D01*
X8839454Y-18488112D01*
X8899031Y-18658374D01*
X8899031Y-18658375D01*
X8995008Y-18811120D01*
X9122554Y-18938666D01*
X9122556Y-18938667D01*
X9122559Y-18938670D01*
X9275299Y-19034643D01*
X9445566Y-19094222D01*
X9624821Y-19114419D01*
X9804076Y-19094222D01*
X9974343Y-19034643D01*
X10127083Y-18938670D01*
X10254637Y-18811116D01*
X10350610Y-18658376D01*
X10410189Y-18488109D01*
X10417044Y-18427264D01*
X10446294Y-18343671D01*
X10474075Y-18308833D01*
X10756994Y-18025914D01*
X10766771Y-18017340D01*
X10793103Y-17997136D01*
X10889357Y-17871695D01*
X10949865Y-17725616D01*
X10965321Y-17608215D01*
X10970503Y-17568854D01*
X10966173Y-17535960D01*
X10965321Y-17522960D01*
X10965321Y-14959085D01*
X10985028Y-14872742D01*
X11040247Y-14803501D01*
X11073973Y-14781776D01*
X11103163Y-14766904D01*
X11192871Y-14677196D01*
X11250467Y-14564158D01*
X11265321Y-14470373D01*
X11265320Y-11897336D01*
X11250467Y-11803550D01*
X11192871Y-11690512D01*
X11192870Y-11690511D01*
X11192869Y-11690509D01*
X11103163Y-11600803D01*
X10990128Y-11543209D01*
X10990125Y-11543208D01*
X10990123Y-11543207D01*
X10990121Y-11543207D01*
X10924639Y-11532836D01*
X10896340Y-11528354D01*
X10896339Y-11528354D01*
X9833302Y-11528354D01*
X9739517Y-11543208D01*
X9739515Y-11543208D01*
X9626476Y-11600805D01*
X9536770Y-11690511D01*
X9479176Y-11803546D01*
X9479174Y-11803553D01*
X9464321Y-11897335D01*
X9464321Y-14470372D01*
X9477144Y-14551334D01*
X9479174Y-14564154D01*
X9479175Y-14564157D01*
X9479175Y-14564159D01*
X9536772Y-14677198D01*
X9626476Y-14766902D01*
X9626478Y-14766903D01*
X9626479Y-14766904D01*
X9655665Y-14781775D01*
X9723649Y-14838532D01*
X9760276Y-14919166D01*
X9764321Y-14959085D01*
X9764321Y-17237689D01*
X9744614Y-17324032D01*
X9706034Y-17378404D01*
X9624841Y-17459596D01*
X9549852Y-17506714D01*
X9506413Y-17516629D01*
X9445568Y-17523485D01*
X9445563Y-17523486D01*
X9275300Y-17583064D01*
X9275299Y-17583064D01*
X9122554Y-17679041D01*
X8995008Y-17806587D01*
X8899031Y-17959332D01*
X8899031Y-17959333D01*
X8875731Y-18025922D01*
X8839453Y-18129599D01*
X8819256Y-18308854D01*
X-4825500Y-18308854D01*
X-4825500Y-14470372D01*
X4384321Y-14470372D01*
X4397144Y-14551334D01*
X4399174Y-14564154D01*
X4399175Y-14564157D01*
X4399175Y-14564159D01*
X4456772Y-14677198D01*
X4546478Y-14766904D01*
X4618304Y-14803501D01*
X4659517Y-14824500D01*
X4753302Y-14839354D01*
X5816339Y-14839353D01*
X5910125Y-14824500D01*
X6023163Y-14766904D01*
X6112871Y-14677196D01*
X6170467Y-14564158D01*
X6185321Y-14470373D01*
X6185320Y-11897336D01*
X6170467Y-11803550D01*
X6112871Y-11690512D01*
X6112870Y-11690511D01*
X6112869Y-11690509D01*
X6023164Y-11600804D01*
X6023162Y-11600803D01*
X5993975Y-11585931D01*
X5925990Y-11529173D01*
X5889365Y-11448537D01*
X5885321Y-11408622D01*
X5885321Y-10127854D01*
X6794821Y-10127854D01*
X6794821Y-11170354D01*
X6805048Y-11255516D01*
X6858495Y-11391051D01*
X6858500Y-11391059D01*
X6946530Y-11507143D01*
X6946531Y-11507144D01*
X7062615Y-11595174D01*
X7062623Y-11595179D01*
X7198158Y-11648626D01*
X7283321Y-11658854D01*
X7570821Y-11658854D01*
X7570821Y-10127854D01*
X8078821Y-10127854D01*
X8078821Y-11658854D01*
X8366321Y-11658854D01*
X8451483Y-11648626D01*
X8587018Y-11595179D01*
X8587026Y-11595174D01*
X8703110Y-11507144D01*
X8703111Y-11507143D01*
X8791141Y-11391059D01*
X8791146Y-11391051D01*
X8844593Y-11255516D01*
X8854821Y-11170354D01*
X8854821Y-10127854D01*
X8078821Y-10127854D01*
X7570821Y-10127854D01*
X6794821Y-10127854D01*
X5885321Y-10127854D01*
X5885321Y-9619854D01*
X6794821Y-9619854D01*
X7570821Y-9619854D01*
X7570821Y-8088854D01*
X8078821Y-8088854D01*
X8078821Y-9619854D01*
X8854821Y-9619854D01*
X8854821Y-8577353D01*
X8844593Y-8492191D01*
X8791146Y-8356656D01*
X8791141Y-8356648D01*
X8703111Y-8240564D01*
X8703110Y-8240563D01*
X8587026Y-8152533D01*
X8587018Y-8152528D01*
X8451483Y-8099081D01*
X8366321Y-8088854D01*
X8078821Y-8088854D01*
X7570821Y-8088854D01*
X7283321Y-8088854D01*
X7198158Y-8099081D01*
X7062623Y-8152528D01*
X7062615Y-8152533D01*
X6946531Y-8240563D01*
X6946530Y-8240564D01*
X6858500Y-8356648D01*
X6858495Y-8356656D01*
X6805048Y-8492191D01*
X6794821Y-8577353D01*
X6794821Y-9619854D01*
X5885321Y-9619854D01*
X5885321Y-7496706D01*
X5905028Y-7410363D01*
X5960247Y-7341122D01*
X6040039Y-7302695D01*
X6062037Y-7298958D01*
X6104076Y-7294222D01*
X6274343Y-7234643D01*
X6427083Y-7138670D01*
X6554637Y-7011116D01*
X6650610Y-6858376D01*
X6710189Y-6688109D01*
X6730386Y-6508854D01*
X6710189Y-6329599D01*
X6650610Y-6159332D01*
X6554637Y-6006592D01*
X6554634Y-6006589D01*
X6554633Y-6006587D01*
X6427087Y-5879041D01*
X6427084Y-5879039D01*
X6427083Y-5879038D01*
X6274343Y-5783065D01*
X6274342Y-5783064D01*
X6274341Y-5783064D01*
X6104079Y-5723487D01*
X6104078Y-5723486D01*
X6104076Y-5723486D01*
X5924821Y-5703289D01*
X5745566Y-5723486D01*
X5745563Y-5723486D01*
X5745562Y-5723487D01*
X5575300Y-5783064D01*
X5575299Y-5783064D01*
X5422554Y-5879041D01*
X5295008Y-6006587D01*
X5199031Y-6159332D01*
X5199031Y-6159333D01*
X5139453Y-6329596D01*
X5139452Y-6329601D01*
X5132596Y-6390446D01*
X5103344Y-6474039D01*
X5075562Y-6508876D01*
X4892656Y-6691782D01*
X4882864Y-6700370D01*
X4856539Y-6720571D01*
X4832372Y-6752067D01*
X4760285Y-6846012D01*
X4760284Y-6846012D01*
X4699778Y-6992089D01*
X4699777Y-6992091D01*
X4679139Y-7148855D01*
X4683469Y-7181747D01*
X4684321Y-7194747D01*
X4684321Y-11408622D01*
X4664614Y-11494965D01*
X4609395Y-11564206D01*
X4575667Y-11585931D01*
X4546479Y-11600803D01*
X4546477Y-11600804D01*
X4456770Y-11690511D01*
X4399176Y-11803546D01*
X4399174Y-11803553D01*
X4384321Y-11897335D01*
X4384321Y-14470372D01*
X-4825500Y-14470372D01*
X-4825500Y4626500D01*
X-4805793Y4712843D01*
X-4750574Y4782084D01*
X-4670782Y4820511D01*
X-4626500Y4825500D01*
X19104500Y4825500D01*
X19190843Y4805793D01*
G37*
%TD.AperFunction*%
%TD*%
M02*
