%TF.GenerationSoftware,KiCad,Pcbnew,7.0.5.1-1-g8f565ef7f0-dirty-deb11*%
%TF.CreationDate,2023-07-05T14:49:23+00:00*%
%TF.ProjectId,PINHOLDER01,50494e48-4f4c-4444-9552-30312e6b6963,01A*%
%TF.SameCoordinates,Original*%
%TF.FileFunction,Copper,L1,Top*%
%TF.FilePolarity,Positive*%
%FSLAX46Y46*%
G04 Gerber Fmt 4.6, Leading zero omitted, Abs format (unit mm)*
G04 Created by KiCad (PCBNEW 7.0.5.1-1-g8f565ef7f0-dirty-deb11) date 2023-07-05 14:49:23*
%MOMM*%
%LPD*%
G01*
G04 APERTURE LIST*
%ADD10C,0.300000*%
%TA.AperFunction,NonConductor*%
%ADD11C,0.300000*%
%TD*%
%TA.AperFunction,ComponentPad*%
%ADD12C,6.000000*%
%TD*%
%TA.AperFunction,SMDPad,CuDef*%
%ADD13C,0.509900*%
%TD*%
%TA.AperFunction,SMDPad,CuDef*%
%ADD14R,3.800000X2.000000*%
%TD*%
%TA.AperFunction,ViaPad*%
%ADD15C,0.800000*%
%TD*%
%TA.AperFunction,Conductor*%
%ADD16C,0.400000*%
%TD*%
G04 APERTURE END LIST*
D10*
D11*
X9995167Y-43664927D02*
X9995167Y-42164927D01*
X9995167Y-42164927D02*
X10495167Y-43236356D01*
X10495167Y-43236356D02*
X10995167Y-42164927D01*
X10995167Y-42164927D02*
X10995167Y-43664927D01*
X12423739Y-43664927D02*
X11709453Y-43664927D01*
X11709453Y-43664927D02*
X11709453Y-42164927D01*
X12852311Y-43236356D02*
X13566597Y-43236356D01*
X12709454Y-43664927D02*
X13209454Y-42164927D01*
X13209454Y-42164927D02*
X13709454Y-43664927D01*
X14709453Y-42879213D02*
X14923739Y-42950641D01*
X14923739Y-42950641D02*
X14995168Y-43022070D01*
X14995168Y-43022070D02*
X15066596Y-43164927D01*
X15066596Y-43164927D02*
X15066596Y-43379213D01*
X15066596Y-43379213D02*
X14995168Y-43522070D01*
X14995168Y-43522070D02*
X14923739Y-43593499D01*
X14923739Y-43593499D02*
X14780882Y-43664927D01*
X14780882Y-43664927D02*
X14209453Y-43664927D01*
X14209453Y-43664927D02*
X14209453Y-42164927D01*
X14209453Y-42164927D02*
X14709453Y-42164927D01*
X14709453Y-42164927D02*
X14852311Y-42236356D01*
X14852311Y-42236356D02*
X14923739Y-42307784D01*
X14923739Y-42307784D02*
X14995168Y-42450641D01*
X14995168Y-42450641D02*
X14995168Y-42593499D01*
X14995168Y-42593499D02*
X14923739Y-42736356D01*
X14923739Y-42736356D02*
X14852311Y-42807784D01*
X14852311Y-42807784D02*
X14709453Y-42879213D01*
X14709453Y-42879213D02*
X14209453Y-42879213D01*
D12*
%TO.P,M3,1*%
%TO.N,GND*%
X0Y0D03*
%TD*%
%TO.P,M4,1*%
%TO.N,GND*%
X0Y-40640000D03*
%TD*%
D13*
%TO.P,TP1,1,1*%
%TO.N,/circle_0*%
X6574821Y-20408854D03*
%TD*%
D14*
%TO.P,TP2,1,1*%
%TO.N,Net-(J1-Pad3)*%
X7824821Y-5808854D03*
%TD*%
D15*
%TO.N,/circle_0*%
X9624821Y-18308854D03*
%TO.N,Net-(J1-Pad3)*%
X5924821Y-6508854D03*
%TD*%
D16*
%TO.N,Net-(J1-Pad3)*%
X6774821Y-6208854D02*
X6374821Y-6608854D01*
X5924821Y-6508854D02*
X7124821Y-6508854D01*
%TD*%
%TA.AperFunction,Conductor*%
%TO.N,/circle_0*%
G36*
X10016942Y-17928856D02*
G01*
X10063435Y-17982512D01*
X10074821Y-18034854D01*
X10074821Y-22782854D01*
X10054819Y-22850975D01*
X10001163Y-22897468D01*
X9948821Y-22908854D01*
X5200821Y-22908854D01*
X5132700Y-22888852D01*
X5086207Y-22835196D01*
X5074821Y-22782854D01*
X5074821Y-18034854D01*
X5094823Y-17966733D01*
X5148479Y-17920240D01*
X5200821Y-17908854D01*
X9948821Y-17908854D01*
X10016942Y-17928856D01*
G37*
%TD.AperFunction*%
%TD*%
M02*
